<?xml version="1.0" encoding="UTF-8" standalone="no"?>
<svg
   width="1000"
   height="600"
   version="1.1"
   id="svg115"
   xmlns:xlink="http://www.w3.org/1999/xlink"
   xmlns="http://www.w3.org/2000/svg"
   xmlns:svg="http://www.w3.org/2000/svg">
  <style
     id="style1">.B{stroke-linecap:round}.C{fill:none}.D{stroke-width:.987}.E{stroke-width:.513}.F{fill:#fedd00}.G{fill:#d52b1e}.H{stroke:#713f2a}.I{fill:#fcd900}.J{fill:#c6aa76}.K{stroke-width:1.041}.L{stroke-width:1.037}.M{stroke-width:1.356}</style>
  <path
     d="M 0,0 H 1000 V 600 H 0 Z"
     fill="#d50032"
     id="path1"
     style="stroke-width:0.92582" />
  <path
     d="M 0,0 H 680 V 600 H 0 Z"
     class="F"
     id="path2"
     style="stroke-width:0.92582" />
  <path
     d="M 0,0 H 320 V 600 H 0 Z"
     fill="#10069f"
     id="path3"
     style="stroke-width:0.92582" />
  <path
     d="m 469.37,138.48 c 12.051,0 16.979,10.338 29.029,10.338 7.44,0 11.777,-2.43 18.261,-6.087 4.524,-2.562 7.41,-3.927 12.605,-3.927 5.319,0 8.58,1.608 11.301,6.167 1.537,2.58 2.814,7.628 2.138,10.525 a 62.488,62.488 0 0 1 -4.262,12.953 c -1.043,2.438 -2.028,3.898 -2.028,6.566 0,6.396 8.704,8.594 14.622,8.685 1.29,0.02 12.139,0.198 18.815,-6.56 -3.622,-0.16 -7.675,-2.965 -7.675,-6.588 0,-4.099 2.88,-6.873 6.785,-8.057 0.742,-0.212 2.006,0.443 2.677,0.09 0.954,-0.495 0.508,-1.568 1.356,-2.24 1.944,-1.555 3.207,-2.525 5.699,-2.525 a 5.732,5.732 0 0 1 3.885,1.165 c 0.69,0.495 0.943,1.107 1.79,1.107 1.786,0 2.67,-1.13 4.454,-1.13 a 6.876,6.876 0 0 1 3.604,0.848 c 1.06,0.548 1.037,2.349 2.238,2.349 0.601,0 3.779,-1.296 5.44,-1.296 3.446,0 5.285,1.248 7.512,3.863 0.6,0.707 0.985,2.137 1.596,2.137 a 9.72,9.72 0 0 1 5.832,2.559 9.871,9.871 0 0 1 1.68,2.038 c 0.406,0.654 1.03,2.25 1.748,2.526 0.927,0.193 1.822,0.52 2.655,0.971 a 9.315,9.315 0 0 1 4.377,7.611 15.88,15.88 0 0 1 -0.75,3.31 c -2.942,10.284 -9.94,13.548 -17.009,22.382 -3.004,3.763 -5.375,6.767 -5.375,11.59 0,1.167 1.436,3.303 2.073,4.275 -0.389,-2.267 0.647,-5.051 3.043,-5.18 a 6.09,6.09 0 0 1 6.259,5.568 7.025,7.025 0 0 1 -0.519,2.85 14.911,14.911 0 0 1 6.217,-2.202 19.38,19.38 0 0 1 2.979,-0.13 c 5.245,0.13 11.034,3.08 14.547,6.064 10.749,9.13 12.049,22.492 11.462,26.203 -1.305,8.246 -0.484,23.168 -21.56,29.117 3.897,1.641 6.55,4.573 6.55,8.178 a 7.11,7.11 0 0 1 -6.927,7.28 6.825,6.825 0 0 1 -5.372,-2.12 c -4.382,4.381 -5.23,8.852 -5.23,15.054 a 19.283,19.283 0 0 0 2.261,9.258 c 1.644,3.552 2.827,5.637 5.796,8.2 1.573,-2.369 3.234,-4.1 6.078,-4.1 2.757,0 5.09,0.883 6.22,3.392 0.336,0.76 0.035,1.379 0.424,2.12 0.495,0.955 1.326,1.167 1.838,2.121 0.795,1.467 0.018,2.721 0.707,4.24 0.441,0.99 1.413,1.132 1.837,2.121 a 9.168,9.168 0 0 1 0.849,4.24 c 0,4.701 -4.277,8.058 -8.977,8.058 -1.413,0 -2.19,-0.565 -3.604,-0.424 2.686,2.686 4.735,3.852 6.785,7.068 2.968,4.647 3.71,7.951 4.382,13.429 0.11,0.891 0.157,1.788 0.142,2.686 0,7.032 -1.096,11.238 -4.241,17.528 -3.004,6.025 -5.566,9.365 -11.026,13.287 -8.517,6.131 -14.72,7.899 -25.02,9.895 a 116.172,116.172 0 0 1 -17.105,2.262 l -22.052,1.13 c -11.238,0.76 -19.03,2.35 -27,10.32 3.765,2.756 6.362,5.46 6.362,10.107 0,4.77 -2.951,8.18 -7.492,9.683 -1.06,0.353 -1.838,0.035 -2.827,0.565 -1.184,0.618 -1.131,1.979 -2.262,2.686 a 9.7,9.7 0 0 1 -5.937,1.555 c -4.205,0 -7.068,-0.99 -10.037,-3.959 -3.445,2.863 -4.612,5.443 -8.481,7.634 -1.273,0.707 -1.927,1.696 -3.393,1.696 -2.315,0 -3.375,-1.466 -5.23,-2.827 a 35.88,35.88 0 0 1 -6.927,-6.36 c -3.516,2.102 -5.672,3.816 -9.754,3.816 a 10.173,10.173 0 0 1 -6.22,-1.697 c -1.113,-0.689 -1.29,-1.714 -2.403,-2.403 -1.166,-0.724 -2.138,-0.459 -3.392,-0.99 -4.718,-2.031 -7.775,-5.53 -7.775,-10.671 0,-4.506 2.845,-7.369 6.927,-9.26 -7.828,-7.827 -15.532,-9.187 -26.576,-9.894 l -21.911,-1.131 a 154.24,154.24 0 0 1 -17.246,-2.262 c -5.072,-0.83 -8.075,-1.095 -12.722,-3.251 -15.991,-7.457 -26.187,-17.687 -28.272,-35.198 a 28.508,28.508 0 0 1 -0.142,-3.887 c 0,-9.118 3.587,-14.683 10.036,-21.133 -1.66,-0.39 -2.774,0.159 -4.382,-0.424 -4.029,-1.467 -6.926,-4.259 -6.926,-8.553 a 7.173,7.173 0 0 1 0.848,-4.028 c 0.548,-0.972 1.59,-1.167 1.837,-2.262 0.318,-1.449 -0.106,-2.474 0.566,-3.817 0.442,-0.9 1.272,-1.078 1.696,-1.979 1.396,-2.897 3.146,-5.23 6.361,-5.23 2.757,0 4.524,1.449 5.937,3.817 2.686,-1.237 3.428,-3.252 4.948,-5.796 2.527,-4.223 3.675,-7.174 3.675,-12.086 a 23.87,23.87 0 0 0 -1.413,-8.693 c -0.778,-2.333 -1.096,-3.923 -2.827,-5.654 a 6.825,6.825 0 0 1 -5.372,2.12 8.135,8.135 0 0 1 -7.916,-8.34 7.516,7.516 0 0 1 4.665,-7.21 c -2.421,-2.084 -4.524,-2.261 -7.21,-3.957 -4.081,-2.58 -5.512,-5.301 -8.198,-9.33 -1.75,-2.633 -2.21,-4.47 -3.11,-7.492 a 29.36,29.36 0 0 1 -1.697,-9.612 17.52,17.52 0 0 1 0.141,-2.545 c 1.008,-7.668 2.386,-12.475 7.21,-18.518 2.862,-3.587 4.806,-5.795 9.047,-7.633 3.604,-1.555 5.76,-2.686 9.683,-2.686 a 21.67,21.67 0 0 1 3.04,0.142 c 1.583,0.086 3.127,0.52 4.523,1.272 0.6,0.336 1.696,1.343 1.696,0.636 0,-0.813 -0.424,-1.237 -0.424,-2.05 0,-3.25 2.332,-6.22 5.584,-6.22 2.35,0 3.304,2.068 4.453,4.1 a 6.091,6.091 0 0 0 1.13,-3.534 c 0,-5.372 -2.88,-8.11 -6.22,-12.298 -7.28,-9.1 -16.397,-13.358 -16.397,-25.02 0,-3.48 1.678,-5.849 4.665,-7.633 0.865,-0.513 2.03,0 2.877,-0.543 0.725,-0.46 0.642,-1.395 1.101,-2.137 a 10.415,10.415 0 0 1 2.373,-2.525 c 1.661,-1.449 3.12,-1.015 4.957,-2.287 0.919,-0.636 1.136,-1.463 1.843,-2.31 2.05,-2.474 3.89,-3.669 7.123,-3.669 a 9.254,9.254 0 0 1 4.04,0.607 c 0.512,0.195 1.47,0.967 1.594,0.818 a 7.35,7.35 0 0 1 2.243,-1.813 6.37,6.37 0 0 1 3.432,-0.907 c 1.732,0 2.866,0.971 4.598,0.971 0.636,0 0.783,-0.635 1.295,-0.971 1.537,-1.042 2.422,-1.632 4.295,-1.632 a 7.157,7.157 0 0 1 4.318,1.567 c 1.43,0.902 1.637,2.108 3.103,2.957 0.813,0.477 1.502,0.265 2.404,0.565 4.028,1.343 7.068,4.029 7.068,8.27 a 6.487,6.487 0 0 1 -2.262,5.442 c -1.361,1.201 -2.65,0.99 -4.382,1.555 5.619,4.488 10.508,5.601 17.682,5.601 6.573,0 14.612,-2.687 14.612,-9.26 0,-3.057 -1.69,-4.7 -2.892,-7.509 -2.156,-5 -3.325,-7.942 -3.325,-13.384 0,-4.311 0.47,-6.927 2.979,-10.426 2.58,-3.604 5.731,-4.445 10.167,-4.445 z"
     class="J"
     id="path4" />
  <g
     class="C H"
     id="g10"
     transform="translate(0,-50)">
    <path
       d="m 425.59,223.46 a 5.564,5.564 0 0 0 3.82,3.807 5.894,5.894 0 0 0 5.986,-2.177 6.92,6.92 0 0 0 0.833,-6.297 7.32,7.32 0 0 0 -2.698,-3.468 l -7.938,8.057 -0.002,0.079 z"
       stroke-linejoin="round"
       class="K"
       id="path5" />
    <path
       d="m 626.61,343.94 c -1.866,-4.51 -6.686,-2.488 -6.983,0 -0.683,5.732 4.34,7.464 7.916,6.53 a 6.22,6.22 0 0 0 3.896,-3.03 7.55,7.55 0 0 0 0.61,-5.824 8.38,8.38 0 0 0 -3.325,-4.471 c -1.375,-0.878 -2.874,-0.965 -5.224,-0.965 -8.708,0 -16.327,10.289 -18.886,20.977 a 46.074,46.074 0 0 0 -0.396,18.815 35.044,35.044 0 0 0 9.16,17.585 39.21,39.21 0 0 0 8.99,6.435 38.76,38.76 0 0 0 6.496,2.683 12.41,12.41 0 0 0 6.159,0.142 c 5.16,-1.12 7.559,-5.92 4.96,-10.83 -2.129,-4.02 -8.397,-6.219 -11.352,-1.088 a 5.1,5.1 0 0 0 -0.628,2.411 4.65,4.65 0 0 0 1.561,3.64 c 2.246,1.428 5.838,1.024 5.672,-2.941"
       class="B L"
       id="path6" />
    <path
       d="m 599.69,403.07 a 17.66,17.66 0 0 1 10.343,-5.703 c 4.654,-0.572 8.699,0.783 12.828,3.004 8.06,4.335 12.554,8.995 15.549,17.641 a 26.91,26.91 0 0 1 1.304,9.022 c -0.14,5.604 -1.563,11.73 -3.092,14.692 -1.334,2.583 -4.82,13.994 -23.946,21.868 -11.161,4.594 -28.3,5.653 -40.118,6.12 -16.256,0.642 -31.254,1.244 -39.962,11.973"
       stroke-width="1.276"
       id="path7" />
    <g
       stroke-width="1.121"
       id="g9">
      <path
         d="m 603.75,421.45 c -0.466,-1.71 -0.035,-3.35 1.322,-5.209 1.814,-2.486 5.675,-3.343 9.174,-1.4 a 11.61,11.61 0 0 1 3.965,3.266 l 1.788,2.488 a 19.33,19.33 0 0 1 1.703,3.887 c 3.846,10.928 -2.265,22.771 -10.255,27.522 -6.206,3.69 -13.608,5.336 -22.469,6.375 -3.982,0.468 -6.256,0.437 -10.263,0.623 -3.223,0.149 -6.008,0.096 -8.63,0.064 l -6.297,-0.064 a 110.46,110.46 0 0 0 -11.274,0.155 c -4.55,0.331 -7.972,0.448 -11.818,1.089 -2.511,0.418 -5.455,0.822 -8.542,1.515 -0.926,0.207 -1.865,0.377 -2.809,0.661 l -1.881,0.575 a 62.311,62.311 0 0 0 -15.257,6.521 27.29,27.29 0 0 0 -3.877,2.708 c -0.665,0.627 -1.472,1.256 -2.124,1.898 -2.99,2.941 -6.047,6.126 -6.762,10.438 a 15.452,15.452 0 0 0 -0.132,2.507 c 0,2.798 2.278,6.608 8.42,7.852 M 516.37,229.11 c 1.285,2.324 1.992,3.738 1.244,6.142 -0.847,2.723 -2.778,4.354 -5.52,4.354 -6.22,0 -9.878,-7.364 -7.075,-12.051 4.976,-8.319 14.539,-3.647 23.402,0.474 -0.428,-2.134 -1.174,-2.828 -1.096,-5.471 0.193,-6.565 5.061,-9.542 7.005,-15.605 1.157,-3.613 1.618,-6.75 -1.025,-9.316 -2.308,-2.24 -4.982,-2.205 -7.994,-1.025 -6.018,2.359 -13.246,9.138 -25.97,9.326 -12.724,-0.188 -20.012,-6.967 -26.03,-9.326 -3.012,-1.18 -5.686,-1.214 -7.994,1.025 -2.643,2.566 -2.183,5.703 -1.025,9.316 1.944,6.064 6.812,9.04 7.005,15.605 0.077,2.643 -0.669,3.337 -1.096,5.47 8.863,-4.12 18.798,-9.211 23.402,-0.473 2.565,4.869 -0.855,12.05 -7.075,12.05 -2.742,0 -4.667,-1.747 -5.52,-4.353 a 6.71,6.71 0 0 1 1.244,-6.142"
         id="path8" />
      <path
         d="m 491.5,224.79 c 2.403,1.838 4.1,4.1 3.817,7.775 -0.307,3.986 -1.273,4.947 -4.382,7.068 m 3.745,-5.933 a 5.124,5.124 0 0 1 -3.534,4.947"
         class="B"
         id="path9" />
    </g>
  </g>
  <path
     d="m 432.4,164.49 1.088,0.777 1.166,1.245 0.778,1.555 0.389,1.321 0.078,1.71 -0.078,1.167 -0.389,1.322 -0.778,0.932 -0.933,1.011 -1.321,0.7 -1.71,0.389 -1.478,0.233 -1.555,-0.7 -1.399,-1.01 -0.855,-1.245 -0.622,-1.555 v -0.621 l 7.62,-7.231 z"
     class="J"
     id="path10" />
  <g
     class="C H"
     id="g85"
     transform="translate(0,-50)">
    <path
       d="m 430.01,220.57 c -0.478,-2.581 -3.496,-3.11 -4.665,-1.586 -1.8,2.348 -0.485,6.257 3.176,7.401 a 5.89,5.89 0 0 0 5.987,-2.177 6.78,6.78 0 0 0 -1.587,-9.451 l -0.279,-0.189 c -4.252,-3.233 -11.118,-2.488 -13.373,2.954 -2.909,7.02 3.42,12.284 9.252,16.25 7.34,4.991 15.705,5.899 22.003,5.83 14.306,-0.155 25.19,-6.997 32.265,-10.884 1.648,-0.905 3.345,-0.72 4.198,0.311 a 3.115,3.115 0 0 1 -0.389,4.276"
       class="B K"
       id="path11" />
    <path
       d="m 387.6,414.35 -3.188,1.166 -3.265,2.488 -1.4,1.944 -1.788,3.11 -0.777,2.332 -0.622,2.877 -0.311,2.177 m 29.701,-15.784 -0.233,2.8 -0.467,1.943 -1.4,3.343 -2.176,2.877 -2.333,1.865 -1.71,0.856 -2.41,0.544"
       stroke-width="1.057"
       id="path12" />
    <path
       d="m 499.6,489.23 c -0.58,2.588 -3.004,5.548 -8.279,6.617 l -1.025,0.212"
       stroke-width="1.197"
       id="path13" />
    <path
       d="m 631.59,406.57 a 28.457,28.457 0 0 1 7.488,12.109 26.88,26.88 0 0 1 1.303,9.021 c -0.14,5.604 -1.562,11.73 -3.091,14.692 -1.334,2.584 -4.82,13.994 -23.946,21.868 -11.161,4.595 -28.3,5.654 -40.118,6.12 -16.022,0.633 -30.822,1.227 -39.582,11.517"
       class="M"
       id="path14" />
    <path
       d="m 605.45,416.95 c 1.188,-1.621 5.517,-3.673 9.016,-1.73 a 9.68,9.68 0 0 1 3.714,3.243"
       stroke-width="0.929"
       id="path15" />
    <path
       d="m 627.51,402.79 2.244,0.767 c 1.997,0.635 4.134,0.685 6.158,0.142 4.423,-1.327 7.261,-5.459 4.96,-10.83 a 8.856,8.856 0 0 0 -2.717,-3.333"
       class="M"
       id="path16" />
    <path
       d="m 375.44,287.13 c -2.969,1.838 -5.182,2.273 -7.492,4.947 a 43.944,43.944 0 0 0 -4.1,10.65 M 435.88,221.96 c 0,2.686 -1.98,4.382 -4.665,4.947"
       class="B K"
       id="path17" />
    <path
       d="m 620.49,275.03 c 7.39,-0.15 28.859,5.64 29.012,30.876 0.15,24.925 -15.383,28.997 -21.607,30.656"
       stroke-width="0.997"
       id="path18" />
    <path
       d="m 622.43,275.03 c 12.743,-0.554 25.892,8.826 26.472,32.236 0.452,18.289 -12.517,26.584 -18.742,28.243"
       class="L"
       id="path19" />
    <path
       d="m 615.33,363.16 0.196,-2.502 0.834,-3.974 1.178,-3.091 1.324,-2.551 1.717,-2.06 m 12.161,-5.312 -0.195,2.449 -0.7,1.672 -1.088,1.594 -1.244,0.933 -1.904,0.7 -1.672,0.116 -1.244,-0.195 m -22.363,-82.519 0.544,-2.643 1.166,-2.45 1.517,-2.449 2.604,-3.343 2.06,-2.293 3.343,-3.382 2.877,-2.916 1.827,-2.099 2.41,-2.915 2.138,-3.227 1.283,-2.643 0.7,-3.421 0.212,-4.242 -0.388,-1.23 m -19.183,200.273 2.527,-0.505 1.905,-1.011 1.05,-1.05 0.738,-1.205 0.505,-1.943 0.04,-1.361 M 364.94,403.38 l 1.866,0.155 2.41,-0.194 2.41,-0.855 m 7.814,-57.106 -0.31,2.177 -0.506,0.972 -0.739,0.933 -1.01,0.777 -1.128,0.505 -1.477,0.234 -1.011,0.078 m 15.471,-24.406 -0.544,3.382 -0.661,1.477 -1.36,1.866 -1.828,1.4 -1.866,0.932 -3.615,0.894 m 23.904,-62.121 -0.7,2.021 -0.855,1.478 -1.166,1.632 -1.633,1.477 -1.943,0.934 -1.633,0.388 -1.01,-0.078 m 0.59,-9.682 0.04,1.555"
       stroke-width="0.881"
       id="path20" />
    <g
       class="D"
       id="g84">
      <path
         d="m 397.32,325.09 a 10.71,10.71 0 0 1 -3.265,2.029 M 629.24,397.16 c 0.134,0.145 0.581,0.217 0.739,0.31 2.215,1.323 6.577,-0.325 5.294,-3.746"
         class="B"
         id="path21" />
      <path
         d="m 621.54,349.38 c 1.573,2.055 4.538,2.588 6.883,1.976 a 6.22,6.22 0 0 0 3.895,-3.03 7.54,7.54 0 0 0 0.61,-5.825 7.65,7.65 0 0 0 -1.325,-2.58 10.59,10.59 0 0 0 -2.132,-2.23 c -0.17,-0.111 -0.339,-0.262 -0.518,-0.383 m 10.037,53.152 a 6.23,6.23 0 0 0 -1.906,-5.711 7.44,7.44 0 0 0 -1.36,-1.233 m 0.746,0.734 c -0.073,-2.912 -2.456,-4.995 -5.41,-5.513 m -6.52,4.433 a 20.74,20.74 0 0 1 -2.042,-1.69 24.55,24.55 0 0 1 -6.742,-16.677 c -0.037,-6.473 2.566,-13.062 5.598,-15.627 m -88.284,132.264 2.799,-2.566 1.944,-1.477 3.654,-2.255 3.42,-1.632 2.41,-0.622 4.821,-1.089 5.598,-0.855 M 511.61,501.2 c -2.022,3.11 -6.842,7.775 -11.896,9.64 -5.054,-1.865 -9.874,-6.53 -11.895,-9.64"
         id="path22" />
      <path
         d="m 491.28,494.73 a 15.468,15.468 0 0 1 -3.468,6.451"
         class="B"
         id="path23" />
      <path
         d="m 491.78,491.47 -0.7,3.42 m -3.65,6.53 -1.477,1.477 -2.644,1.477 -3.032,0.934 M 471.46,227.45 a 9.8,9.8 0 0 0 0.71,-4.014 c -0.193,-6.565 -5.06,-9.542 -7.005,-15.606 -1.157,-3.612 -1.618,-6.75 1.026,-9.316 2.307,-2.24 4.981,-2.205 7.993,-1.025 6.018,2.36 13.308,9.138 26.032,9.326 -12.724,-0.188 -20.015,-6.967 -26.032,-9.326 -3.012,-1.18 -5.935,-1.525 -8.242,0.714 -2.644,2.566 -1.934,6.015 -0.777,9.627 1.944,6.064 6.563,9.041 6.756,15.606 a 9.61,9.61 0 0 1 -0.834,4.014 m 29.093,-21.08 c 12.517,-0.661 23.245,-9.071 26.706,-9.757 3.086,-0.612 4.809,-0.336 7.072,1.721 -2.264,-2.057 -4.842,-1.993 -7.77,-0.845 -6.018,2.359 -13.246,9.138 -25.97,9.326 M 624.59,383.2 a 24.286,24.286 0 0 1 -9.718,-19.274 c -0.036,-6.474 2.565,-13.061 5.597,-15.627 M 511.17,500.76 c -2.021,3.11 -6.842,7.775 -11.895,9.64 -5.054,-1.865 -9.874,-6.53 -11.895,-9.64"
         id="path24" />
      <path
         d="m 479.17,230.74 3.624,-2.018 c 1.649,-0.906 3.63,-0.716 4.483,0.316 a 3.27,3.27 0 0 1 -0.226,4.416"
         class="B"
         id="path25" />
      <path
         d="m 460.48,239.49 c 8.588,-1.792 15.585,-5.638 20.875,-8.597 M 531.78,487.43 a 4.15,4.15 0 0 1 1.166,1.493 6.91,6.91 0 0 1 0.521,1.326 3.353,3.353 0 0 1 -2.533,4.008 3.35,3.35 0 0 1 -0.55,0.077 5.26,5.26 0 0 1 -5.482,-3.17 M 460.04,239.05 c 8.588,-1.792 15.585,-5.638 20.875,-8.597 M 633.38,397.49 c -1.633,0.63 -2.526,0.544 -4.557,-0.358 -0.834,-0.37 -1.788,-0.943 -2.907,-1.578 -3.98,-2.261 -8.708,-5.824 -13.139,-14.143 a 29.387,29.387 0 0 1 -2.672,-6.992 25.88,25.88 0 0 1 -0.78,-5.212 40.11,40.11 0 0 1 0.964,-9.72 31.62,31.62 0 0 1 6.376,-14.15 c 1.795,-2.463 3.343,-3.966 6.686,-4.043 M 398.83,279.88 a 11.11,11.11 0 0 1 4.12,8.94 c 0,4.842 -4.05,12.75 -14.001,15.55 a 12.945,12.945 0 0 1 -9.87,-1.18 m 21.381,-6.91 a 5.39,5.39 0 0 1 2.488,5.07 c 0,1.664 -1.076,3.822 -2.907,5.866 a 19.31,19.31 0 0 1 -13.716,6.26 15.986,15.986 0 0 1 -9.422,-2.735 14.16,14.16 0 0 1 -5.987,-8.397"
         id="path26" />
      <path
         d="m 400.3,306.71 c 2.026,1.862 2.648,4.193 2.648,7.129 0,4.29 -1.742,7.6 -5.75,11.107 a 19.69,19.69 0 0 1 -3.032,2.178 M 596.4,292.63 v 5.519 m -0.44,-6.879 v 7.774 m 0.44,-24.604 v 10.185 m -0.44,-12.435 v 13.918 m -2.97,128.062 a 29.244,29.244 0 0 1 -6.53,8.863 30.66,30.66 0 0 1 -9.097,6.375 38.43,38.43 0 0 1 -10.263,3.421 52.465,52.465 0 0 1 -10.73,1.322 73.824,73.824 0 0 1 -9.909,-0.255 c -4.127,-0.285 -6.417,-0.86 -10.538,-1.222 a 83.08,83.08 0 0 0 -8.743,-0.566 44.835,44.835 0 0 0 -8.983,0.643 34.411,34.411 0 0 0 -8.086,2.255 c -4.198,1.7 -8.941,4.665 -9.952,5.987 -1.01,-1.322 -5.754,-4.286 -9.952,-5.987 a 34.42,34.42 0 0 0 -8.085,-2.255 44.79,44.79 0 0 0 -8.984,-0.643 82.8,82.8 0 0 0 -8.743,0.566 c -4.121,0.362 -6.41,0.937 -10.538,1.222 a 74.2,74.2 0 0 1 -9.91,0.255 52.169,52.169 0 0 1 -10.728,-1.322 38.667,38.667 0 0 1 -10.263,-3.42 30.57,30.57 0 0 1 -9.097,-6.376 l -0.948,-0.953 m 65.889,83.39 2.799,-0.35 m 47.301,-3.68 2.825,-0.269 2.69,-1.076 1.884,-1.144 2.556,-3.027 0.538,-1.144 0.404,-2.623 0.134,-1.21 M 613.23,277.36 c 1.213,-4.128 -0.268,-8.483 -4.266,-8.366 M 402.79,341.75 a 12.78,12.78 0 0 1 -5.62,7.293 m 5.69,-72.993 a 10.186,10.186 0 0 1 -5.724,6.26 c -2.886,1.304 -6.227,0.086 -8.014,-1.292"
         id="path27" />
      <path
         d="m 380.95,291.2 c 2.392,1.253 4.82,-0.584 4.322,-3.696 a 4.45,4.45 0 0 0 -3.933,-3.433"
         class="B"
         id="path28" />
      <path
         d="m 390.87,422.86 c 0.516,0.485 0.626,1.115 1.322,1.244 1.05,0.194 1.866,0.583 2.915,-0.816 1.294,-1.725 0.599,-4.409 -0.747,-6.098 a 7.72,7.72 0 0 0 -9.112,-1.461 11.606,11.606 0 0 0 -3.965,3.265 l -1.788,2.488 a 19.351,19.351 0 0 0 -1.704,3.887 c -3.2,9.098 0.6,18.664 6.489,24.493"
         id="path29" />
      <path
         d="m 531.59,487.23 a 9.19,9.19 0 0 1 1.01,1.244 6.18,6.18 0 0 1 0.428,1.327 3.353,3.353 0 0 1 -3.083,4.084 4.97,4.97 0 0 1 -5.267,-3.156"
         class="B"
         id="path30" />
      <path
         d="m 608.5,216.81 a 11.565,11.565 0 0 1 9.784,10.992 c 0,6.92 -2.331,9.496 -5.974,14.446 -3.899,5.297 -16.638,15.005 -16.638,26.045 0,6.686 1.866,10.962 6.686,13.139 3.108,1.404 6.742,-0.116 8.397,-1.61 4.042,-3.655 2.426,-10.063 -1.788,-10.829 -5.132,-0.933 -6.096,7.145 -1.089,6.609 M 635.73,383.51 a 5.72,5.72 0 0 0 -11.377,0.99 5.924,5.924 0 0 0 1.615,4.085 M 599.79,279.88 a 11.11,11.11 0 0 0 -4.12,8.94 c 0,4.842 4.05,12.75 14.001,15.55 3.814,1.072 7.458,0.971 9.74,-0.417 M 375.61,287.8 a 14.64,14.64 0 0 0 -7.55,5.395 c -1.856,2.63 -2.938,6.286 -3.608,9.485 a 31.01,31.01 0 0 0 0.252,10.41 24.6,24.6 0 0 0 3.602,8.806 12.38,12.38 0 0 0 1.62,1.932 17.35,17.35 0 0 0 1.774,1.373 M 471.72,469.02 c 7.576,3.359 13.13,5.875 17.839,13.31 a 15.464,15.464 0 0 1 1.866,7.62 15.864,15.864 0 0 1 -5.21,11.894 12.946,12.946 0 0 1 -10.417,3.188 c -3.007,-0.295 -5.831,-2.488 -6.298,-4.043 M 396.88,325.2 c 4.276,3.343 6.064,6.586 6.064,11.74 a 13.056,13.056 0 0 1 -6.22,11.662"
         id="path31" />
      <path
         d="m 392.99,344.41 c 6.375,7.93 9.758,12.637 9.952,22.08 0.181,8.863 -2.644,14.927 -7.93,21.303"
         class="B"
         id="path32" />
      <path
         d="m 515.23,239.57 a 6.42,6.42 0 0 0 2.497,-3.485 c 0.753,-2.325 0.77,-4.308 -0.474,-6.096 1.534,2.009 1.675,3.705 1.243,6.142 -0.274,1.552 -1.264,2.369 -2.497,3.485 M 596.4,374.24 v 25.241 h 0.067 a 38.529,38.529 0 0 1 -0.212,3.887 l -0.429,2.703"
         id="path33" />
      <path
         d="m 595.96,371.81 v 27.223 h 0.067 a 38,38 0 0 1 -0.212,3.887 l -0.729,4.125 m 0.874,-67.105 v 22.702 m 0.44,-20.912 v 18.463 m 0,-41.943 v 13.841 m -0.44,-15.471 v 17.064 M 596.4,304.1 v 5.37 m -0.44,-6.46 v 7.776 m -2.88,101.864 -0.53,1.084 a 29.244,29.244 0 0 1 -6.53,8.863 30.67,30.67 0 0 1 -9.097,6.376 38.43,38.43 0 0 1 -10.263,3.42 52.32,52.32 0 0 1 -10.73,1.322 c -3.305,0.135 -6.615,0.05 -9.908,-0.255 -4.128,-0.285 -6.417,-0.86 -10.538,-1.222 a 83.226,83.226 0 0 0 -8.743,-0.566 44.767,44.767 0 0 0 -8.984,0.644 34.39,34.39 0 0 0 -8.086,2.254 c -4.197,1.7 -8.94,4.665 -9.951,5.987 -1.011,-1.322 -5.754,-4.286 -9.952,-5.987 a 34.36,34.36 0 0 0 -8.086,-2.254 44.7,44.7 0 0 0 -8.983,-0.644 82.69,82.69 0 0 0 -8.743,0.566 c -4.122,0.362 -6.41,0.937 -10.538,1.222 a 74.2,74.2 0 0 1 -9.91,0.255 52.24,52.24 0 0 1 -10.729,-1.321 38.705,38.705 0 0 1 -10.263,-3.421 30.566,30.566 0 0 1 -9.096,-6.376 34.17,34.17 0 0 1 -3.858,-4.355 m -3.142,-4.982 a 15.78,15.78 0 0 1 -3.523,12.034 c -1.321,1.4 -4.2,4.074 -7.775,4.12 -5.908,0.078 -7.672,-3.986 -8.03,-4.975 M 399.4,410.7 a 16.05,16.05 0 0 1 2.893,3.965 c 1.477,2.799 1.022,7.48 -0.148,9.64 a 6.86,6.86 0 0 1 -0.475,0.749 M 370.04,453.2 c 3.514,3.687 8.828,7.692 16.99,11.052 11.161,4.595 28.3,5.654 40.118,6.12 15.715,0.62 30.193,1.266 39.01,10.998 m 27.132,-6.36 c 2.598,2.556 5.247,5.295 6.366,8.798 M 488.18,501.7 a 13.7,13.7 0 0 1 -11.501,4.217 9.657,9.657 0 0 1 -6.685,-4.025 m -8.364,-4.542 a 9.78,9.78 0 0 0 0.457,0.577 11.88,11.88 0 0 0 7.978,3.833 m 41.985,-0.12 c -2.022,3.11 -6.842,7.774 -11.895,9.64 -5.054,-1.866 -9.874,-6.53 -11.896,-9.64 l -0.472,-0.727 m 24.343,0.707 a 12.76,12.76 0 0 0 1.156,1.109 12.95,12.95 0 0 0 10.418,3.187 8.544,8.544 0 0 0 6.36,-4.043 c 0.303,-0.329 0.539,-0.715 0.692,-1.136"
         id="path34" />
      <path
         d="m 529.75,500.99 -1.16,1.867 -1.766,1.463 -2.674,1.11 -2.421,0.1"
         id="path35" />
      <path
         d="m 536.03,483.22 a 12.03,12.03 0 0 1 3.599,4.534 10.78,10.78 0 0 1 0.787,3.698 9.15,9.15 0 0 1 -2.222,6.474 11.745,11.745 0 0 1 -8.43,3.866 h -0.734 m 0.29,-0.442 a 10.67,10.67 0 0 1 -8.092,-3.375 M 620.72,391.93 a 37.11,37.11 0 0 1 -7.507,-10.077 29.38,29.38 0 0 1 -2.672,-6.992 25.85,25.85 0 0 1 -0.78,-5.211 40.13,40.13 0 0 1 0.964,-9.722 32.63,32.63 0 0 1 6.376,-14.15 17.19,17.19 0 0 1 3.25,-3.488 M 618.2,223.83 c 3.965,0.31 7.639,4.58 7.59,8.764 -0.07,6.078 -2.108,8.59 -6.89,14.545 -4.12,5.131 -16.482,14.15 -16.171,22.78 a 8.51,8.51 0 0 0 1.802,4.39 m -4.941,5.411 a 10.847,10.847 0 0 0 3.207,2.156 7.846,7.846 0 0 0 6.654,-0.443 M 576.37,213.9 a 9.443,9.443 0 0 1 3.415,4.061 c 2.908,7.02 -3.42,12.284 -9.252,16.25 a 33.35,33.35 0 0 1 -12.968,5.128 M 569.69,227.43 a 6.53,6.53 0 0 1 -4.92,-2.34 5.225,5.225 0 0 1 -1.106,-1.552 M 540.45,231.2 a 7.23,7.23 0 0 1 -2.063,-1.504 6.393,6.393 0 0 1 -1.242,-6.853 c 0.987,-2.963 5.746,-11.274 5.98,-17.027 0.356,-8.79 -3.025,-13.977 -8.313,-16"
         id="path36" />
      <path
         d="m 542.68,203.85 -0.206,3.305 -0.895,3.374 -1.722,4.613 -1.308,2.96 -1.377,2.961 -0.688,2.066 -0.276,1.515 0.207,1.446 M 595.81,423.4 a 4.77,4.77 0 0 0 0.933,1.306 c 1.01,1.687 4.94,4.655 8.514,4.701 5.91,0.078 7.312,-4.057 7.464,-4.975 0.746,-4.509 -0.796,-5.743 -3.11,-7.013 a 5.263,5.263 0 0 0 -2.994,-0.433"
         class="B"
         id="path37" />
      <path
         d="m 370.23,403.67 c -1.88,0.535 -3.871,0.546 -5.757,0.033 -4.423,-1.326 -8.007,-5.564 -6.18,-10.829 M 379.21,343.15 a 2.8,2.8 0 0 1 0.653,1.67 c 0.683,5.732 -4.34,7.402 -7.916,6.469 a 8.8,8.8 0 0 1 -4.71,-3.56 7.354,7.354 0 0 1 -0.963,-3.6 M 400.74,307.15 a 7.546,7.546 0 0 1 1.931,2.757 M 400.9,296.6 a 5.98,5.98 0 0 1 1.825,2.042"
         id="path38" />
      <path
         d="m 402.91,303.94 a 13.23,13.23 0 0 1 -2.43,3.718 19.312,19.312 0 0 1 -13.716,6.26 15.99,15.99 0 0 1 -9.422,-2.736 14.897,14.897 0 0 1 -6.377,-8.715"
         class="B"
         id="path39" />
      <path
         d="m 399.11,280.13 a 12.11,12.11 0 0 1 3.698,5.295"
         id="path40" />
      <path
         d="m 402.86,292.56 a 18.42,18.42 0 0 1 -13.473,12.248 c -3.804,0.964 -8.702,-0.241 -10.374,-1.664"
         class="B"
         id="path41" />
      <path
         d="m 375.06,291.49 c 0.417,4.12 3.174,7.209 8.401,7.308 7.35,0.138 11.818,-10.574 5.287,-18.094"
         id="path42" />
      <path
         d="m 358.52,327.39 a 25.41,25.41 0 0 0 3.63,3.636 26.228,26.228 0 0 0 9.272,5.153 m 8.248,0.771 c 6.569,-0.789 10.272,-5.684 9.538,-11.41 -0.56,-4.363 -4.563,-7.718 -7.285,-7.912"
         class="B"
         id="path43" />
      <path
         d="m 390.39,268.92 a 4.464,4.464 0 0 1 4.449,4.478 l -0.005,0.187"
         id="path44" />
      <path
         d="m 389.72,229.81 a 17.95,17.95 0 0 0 7.86,9.099 m 225.28,48.381 c 2.686,3.679 0.927,10.932 -6.379,11.07 a 8.102,8.102 0 0 1 -6.939,-3.924"
         class="B"
         id="path45" />
      <path
         d="m 596.4,239.25 v 24.686"
         id="path46" />
      <path
         d="m 380.87,291.14 c 2.255,1.632 5.15,-1.124 4.03,-4.05 -0.757,-1.975 -3.563,-4.106 -7.45,-1.463 -4.294,2.92 -3.11,12.13 5.13,12.284 7.35,0.139 11.819,-10.574 5.287,-18.093 -6.282,-7.234 -17.727,-5.542 -25.19,0.396 a 33.43,33.43 0 0 0 -11.04,18.164 34.314,34.314 0 0 0 -0.912,7.93 35.44,35.44 0 0 0 5.562,18.276 18.21,18.21 0 0 0 2.037,2.56 39.13,39.13 0 0 0 2.954,3.032 c 4.223,3.515 9.665,6.27 16.327,5.987 7.308,-0.311 11.507,-5.442 10.729,-11.507 -0.754,-5.88 -6.69,-8.805 -10.574,-6.064 -2.644,1.866 -3.584,7.644 1.088,9.018 2.644,0.778 4.976,-2.565 3.11,-4.509 M 584.4,210.68 c 4.218,-2.29 7.47,-1.867 9.874,1.47 a 15.457,15.457 0 0 1 2.41,11.28 c -0.855,4.199 -2.068,5.942 -5.407,8.988 m 3.303,-19.868 c 4.82,-3.187 10.041,-1.834 12.906,2.41 2.1,3.11 2.636,5.712 2.488,9.563 a 17.555,17.555 0 0 1 -8.941,14.383"
         class="B"
         id="path47" />
      <path
         d="m 617.28,223.67 a 8.052,8.052 0 0 1 7.153,8.086 c 0,5.986 -1.671,8.583 -6.454,14.539 -4.12,5.131 -16.482,14.15 -16.17,22.78 0.117,3.263 2.868,6.338 5.241,6.51"
         id="path48" />
      <path
         d="m 617.75,291.14 c -2.255,1.632 -5.131,-1.004 -3.887,-3.803 0.859,-1.932 3.42,-4.353 7.308,-1.71 4.293,2.92 3.11,12.13 -5.131,12.284 -7.35,0.139 -12.317,-10.297 -5.287,-18.093 6.416,-7.116 18.315,-5.723 25.778,0.214 3.176,2.527 9.566,9.466 10.936,18.573 1.658,11.02 1.445,24.575 -9.937,32.922 a 26.91,26.91 0 0 1 -16.516,4.637 c -7.308,-0.32 -11.506,-5.443 -10.729,-11.507 0.754,-5.88 6.416,-8.368 10.574,-6.065 4.32,2.393 3.565,8.466 -1.088,9.019 -2.736,0.325 -4.976,-2.566 -3.11,-4.51"
         class="B"
         id="path49" />
      <path
         d="m 613.86,287.34 c 1.212,-5.454 5.885,-5.962 9.658,-5.907 10.296,0.151 17.416,12.364 17.535,24.178 0.15,14.923 -6.334,23.711 -17.241,24.178 -2.823,0.121 -7.684,-1.221 -7.768,-4.665"
         id="path50" />
      <path
         d="m 620.2,284.9 c 10.858,2.413 14.67,12.196 14.67,21.532 0,7.616 -0.754,18.022 -15.575,21.682"
         stroke-linecap="square"
         id="path51" />
      <path
         d="m 638.11,389.58 a 6.104,6.104 0 1 0 -9.789,3.66"
         id="path52" />
      <g
         class="B"
         id="g54">
        <path
           d="m 616.33,380.33 a 25.82,25.82 0 0 0 9.74,9.238 m -1.96,16.482 c -5.12,-3.359 -14.838,-7.761 -23.624,-3.428 -3.259,1.608 -5.442,3.597 -6.675,6.84 a 15.52,15.52 0 0 0 2.788,14.949 c 1.321,1.4 4.2,4.074 7.774,4.12 5.91,0.079 7.314,-4.056 7.464,-4.975 0.7,-4.276 -1.788,-5.987 -3.11,-6.453 -1.014,-0.358 -4.312,-0.266 -5.012,2.065 a 4.174,4.174 0 0 0 0.348,3.144"
           id="path53" />
        <path
           d="m 531.99,488.16 c 1.633,3.343 -0.224,5.024 -2.488,5.287 -3.343,0.388 -5.131,-2.255 -5.364,-4.665 a 6.87,6.87 0 0 1 6.327,-7.366 l 0.515,-0.02 a 8.674,8.674 0 0 1 7.764,5.477 10.79,10.79 0 0 1 0.788,3.697 9.147,9.147 0 0 1 -2.223,6.474 11.745,11.745 0 0 1 -8.429,3.866 c -6.6,0.265 -11.74,-5.908 -11.74,-12.206 0,-12.05 17.872,-18.623 24.957,-20.314 8.708,-2.077 14.006,-2.855 27.99,-3.632 5.597,-0.311 9.697,-0.153 15.86,-0.792 a 94.33,94.33 0 0 0 14.072,-2.162 42.58,42.58 0 0 0 19.592,-9.952 c 4.55,-4.131 7.153,-7.075 9.26,-12.75 1.817,-4.898 2.653,-14.596 -1.951,-21.77 a 22.4,22.4 0 0 0 -16.171,-10.565 c -5.83,-0.843 -10.942,1.672 -13.995,7.456 -1.477,2.8 -1.022,7.48 0.148,9.64 a 9.37,9.37 0 0 0 7.471,4.666 c 5.909,0.078 7.313,-4.057 7.464,-4.976 0.7,-4.276 -1.788,-5.987 -3.11,-6.453 -1.014,-0.358 -4.312,-0.266 -5.012,2.065 a 4.18,4.18 0 0 0 0.347,3.144 M 526.9,469.02 c -7.576,3.359 -13.13,5.875 -17.839,13.31 a 15.464,15.464 0 0 0 -1.866,7.62 15.864,15.864 0 0 0 5.21,11.894 12.947,12.947 0 0 0 10.417,3.188 c 3.007,-0.295 5.832,-2.488 6.298,-4.043"
           id="path54" />
      </g>
      <path
         d="m 601.73,325.2 c -3.545,1.183 -6.064,6.586 -6.064,11.74 a 13.056,13.056 0 0 0 6.22,11.662"
         id="path55" />
      <path
         d="m 605.62,344.41 c -6.375,7.93 -9.758,12.637 -9.952,22.08 -0.182,8.863 2.644,14.927 7.93,21.303"
         class="B"
         id="path56" />
      <path
         d="m 571.64,212.58 0.547,-0.81 c 2.644,-3.887 7.312,-4.911 10.73,-2.332 4.12,3.11 5.16,8.402 4.042,13.994 a 13.57,13.57 0 0 1 -6.325,8.521"
         id="path57" />
      <path
         d="m 414.22,210.68 c -4.043,-1.866 -7.371,-1.507 -9.874,1.47 -2.877,3.421 -2.986,8.453 -2.41,11.28 0.855,4.199 2.068,5.942 5.407,8.988"
         class="B"
         id="path58" />
      <path
         d="m 404.03,212.55 c -4.82,-3.187 -10.041,-1.834 -12.906,2.41 -2.1,3.11 -2.636,5.712 -2.488,9.563 a 17.555,17.555 0 0 0 8.941,14.383"
         id="path59" />
      <path
         d="m 390.12,216.81 a 10.65,10.65 0 0 0 -9.4,10.433 c 0,6.92 1.703,9.718 5.59,15.005 3.897,5.299 16.638,15.005 16.638,26.045 0,6.686 -1.866,10.962 -6.686,13.139 -3.108,1.404 -6.742,-0.116 -8.397,-1.61 -4.043,-3.655 -2.426,-10.063 1.788,-10.829 5.131,-0.933 6.096,7.145 1.089,6.609 M 381.33,223.67 c -3.965,0.31 -7.867,3.723 -7.867,7.908 0,5.986 2.385,8.761 7.167,14.716 4.121,5.131 15.762,13.972 15.451,22.602 -0.117,3.263 -2.31,7.253 -4.488,6.786"
         id="path60" />
      <path
         d="m 372,343.94 c 1.866,-4.51 6.686,-2.488 6.983,0 0.683,5.732 -4.34,7.464 -7.916,6.53 a 6.218,6.218 0 0 1 -3.896,-3.03 7.55,7.55 0 0 1 -0.61,-5.824 7.66,7.66 0 0 1 1.326,-2.581 7.748,7.748 0 0 1 1.999,-1.89 c 1.375,-0.878 2.874,-0.965 5.224,-0.965 8.708,0 16.327,10.289 18.886,20.977 a 46.039,46.039 0 0 1 0.396,18.815 35.051,35.051 0 0 1 -9.16,17.585 39.21,39.21 0 0 1 -8.99,6.435 38.76,38.76 0 0 1 -6.496,2.683 10.954,10.954 0 0 1 -6.158,0.142 c -4.423,-1.327 -7.262,-5.46 -4.96,-10.83 1.792,-4.18 8.397,-6.219 11.351,-1.088 a 5.1,5.1 0 0 1 0.628,2.411 4.648,4.648 0 0 1 -1.561,3.64 c -2.246,1.428 -5.838,1.024 -5.671,-2.941"
         class="B"
         id="path61" />
      <path
         d="m 365.24,397.49 c 1.633,0.63 2.526,0.544 4.557,-0.358 0.834,-0.37 1.789,-0.943 2.907,-1.578 3.98,-2.261 8.708,-5.824 13.139,-14.143 a 29.38,29.38 0 0 0 2.672,-6.992 25.87,25.87 0 0 0 0.78,-5.212 40.06,40.06 0 0 0 -0.964,-9.72 31.607,31.607 0 0 0 -6.376,-14.15 c -1.795,-2.463 -3.343,-3.966 -6.686,-4.043 M 360.51,389.58 a 6.104,6.104 0 1 1 9.789,3.66 m -7.419,-9.73 a 5.72,5.72 0 0 1 11.377,0.99 5.926,5.926 0 0 1 -1.615,4.085"
         id="path62" />
      <path
         d="m 374.02,383.2 a 24.286,24.286 0 0 0 9.718,-19.274 c 0.036,-6.474 -2.565,-13.061 -5.597,-15.627"
         id="path63" />
      <path
         d="m 382.29,380.33 a 25.82,25.82 0 0 1 -9.74,9.238"
         class="B"
         id="path64" />
      <path
         d="m 397.81,402.63 c -1.449,-3.409 -4.329,-4.985 -9.019,-5.486 -4.662,-0.497 -8.698,0.784 -12.828,3.005 -8.06,4.335 -12.554,8.995 -15.55,17.641 a 26.88,26.88 0 0 0 -1.303,9.021 c 0.14,5.604 1.563,11.73 3.091,14.692 1.334,2.584 4.82,13.994 23.946,21.868 11.161,4.595 28.3,5.654 40.118,6.12 16.256,0.642 31.255,1.245 39.962,11.973"
         id="path65" />
      <path
         d="m 374.5,406.05 c 5.12,-3.359 14.838,-7.761 23.624,-3.428 3.259,1.608 5.442,3.597 6.675,6.84 a 15.52,15.52 0 0 1 -2.788,14.949 c -1.321,1.4 -4.2,4.074 -7.775,4.12 -5.908,0.079 -7.313,-4.056 -7.463,-4.975 -0.7,-4.276 1.788,-5.987 3.11,-6.453 1.014,-0.358 4.312,-0.266 5.011,2.065 a 4.174,4.174 0 0 1 -0.347,3.144"
         class="B"
         id="path66" />
      <path
         d="m 394.86,421.45 a 5.27,5.27 0 0 0 -1.321,-5.209 8.013,8.013 0 0 0 -9.175,-1.4 11.61,11.61 0 0 0 -3.965,3.266 l -1.788,2.488 a 19.351,19.351 0 0 0 -1.704,3.887 c -3.845,10.928 2.413,22.532 10.256,27.522 6.842,4.354 13.84,5.598 22.47,6.375 3.993,0.36 6.256,0.437 10.263,0.623 3.223,0.149 6.008,0.096 8.63,0.064 l 6.296,-0.064 a 110.46,110.46 0 0 1 11.274,0.155 c 4.55,0.331 7.973,0.448 11.818,1.089 2.512,0.418 5.456,0.822 8.543,1.515 0.926,0.207 1.865,0.377 2.808,0.661 l 1.882,0.575 a 62.33,62.33 0 0 1 15.257,6.521 23.63,23.63 0 0 1 3.877,2.708 c 0.796,0.795 1.472,1.256 2.123,1.898 2.99,2.941 6.048,6.126 6.763,10.438 0.112,0.831 0.156,1.669 0.132,2.507 0,2.798 -2.278,6.608 -8.42,7.852"
         id="path67" />
      <path
         d="m 466.62,488.16 c -1.633,3.343 0.224,5.024 2.488,5.287 3.343,0.388 5.131,-2.255 5.364,-4.665 a 6.87,6.87 0 0 0 -6.327,-7.366 l -0.515,-0.02 a 8.674,8.674 0 0 0 -7.764,5.477 10.79,10.79 0 0 0 -0.788,3.697 9.147,9.147 0 0 0 2.223,6.474 11.74,11.74 0 0 0 8.429,3.866 c 6.6,0.265 11.74,-5.908 11.74,-12.206 0,-12.05 -17.873,-18.623 -24.957,-20.314 -8.708,-2.077 -14.006,-2.855 -27.99,-3.632 -5.597,-0.311 -9.697,-0.153 -15.86,-0.792 a 94.337,94.337 0 0 1 -14.073,-2.162 42.58,42.58 0 0 1 -19.592,-9.952 c -4.55,-4.131 -7.153,-7.075 -9.26,-12.75 -1.817,-4.898 -2.652,-14.596 1.951,-21.77 a 22.4,22.4 0 0 1 16.172,-10.565 c 5.83,-0.843 10.942,1.672 13.995,7.456 1.478,2.8 1.022,7.48 -0.148,9.64 a 9.37,9.37 0 0 1 -7.471,4.666 c -5.909,0.078 -7.313,-4.057 -7.464,-4.976 -0.7,-4.276 1.788,-5.987 3.11,-6.453 1.014,-0.358 4.312,-0.266 5.012,2.065 a 4.18,4.18 0 0 1 -0.347,3.144"
         id="path68" />
      <path
         d="m 426.97,212.58 -0.547,-0.81 c -2.644,-3.887 -7.312,-4.911 -10.73,-2.332 -4.12,3.11 -5.16,8.402 -4.042,13.994 a 13.572,13.572 0 0 0 6.324,8.521"
         class="B"
         id="path69" />
      <path
         d="m 573.04,224.37 c -6.298,6.842 -12.595,9.026 -22.003,9.33 -2.938,0.095 -8.552,-0.933 -11.818,-3.258 -2.098,-1.494 -4.432,-4.05 -2.954,-8.482 0.987,-2.962 5.746,-11.273 5.98,-17.027 0.355,-8.79 -3.026,-13.606 -8.313,-15.472 -9.774,-3.45 -20.267,6.211 -26.589,8.319 a 21.34,21.34 0 0 1 -8.008,1.243 21.63,21.63 0 0 1 -8.068,-1.243 c -6.323,-2.108 -16.816,-11.77 -26.59,-8.32 -5.287,1.867 -8.668,6.683 -8.312,15.473 0.234,5.753 4.992,14.064 5.98,17.027 1.477,4.431 -0.857,6.988 -2.955,8.481 -3.265,2.326 -8.88,3.353 -11.818,3.259 -9.407,-0.304 -15.705,-2.488 -22.003,-9.33"
         id="path70" />
      <path
         d="m 464.58,466.27 c 1.246,0.487 0.303,-0.295 8.195,3.203 7.576,3.359 12.954,6.3 17.663,13.736 a 15.464,15.464 0 0 1 1.866,7.62 16.65,16.65 0 0 1 -0.459,3.841"
         class="B"
         id="path71" />
      <path
         d="m 465.09,500.06 a 12.52,12.52 0 0 0 5.081,1.29 c 6.6,0.264 11.74,-5.91 11.74,-12.207 0,-4.366 -2.377,-8.044 -5.706,-11"
         id="path72" />
      <path
         d="m 466.52,488.15 c -1.594,3.553 0.677,5.475 2.94,5.738 a 4.91,4.91 0 0 0 5.432,-4.328 l 0.026,-0.337 a 6.98,6.98 0 0 0 -3.278,-6.485"
         class="B"
         id="path73" />
      <path
         d="m 609.53,216.87 c 5.018,0 9.394,5.585 9.394,11.317 0,6.605 -3.513,10.648 -6.087,13.705 -2.072,2.46 -4.316,4.663 -6.982,7.348"
         id="path74" />
      <path
         d="m 603.58,211.58 a 10.822,10.822 0 0 1 4.346,3.819 c 2.099,3.11 2.633,5.712 2.487,9.563 -0.249,6.6 -4.998,11.17 -9.246,13.959 M 593.71,211.58 a 8.66,8.66 0 0 1 1,1.014 c 2.877,3.421 3.1,8.478 2.41,11.281 -1.035,4.213 -2.427,6.029 -5.846,8.549 M 583.36,209.85 c 4.12,3.11 5.346,8.489 3.98,14.026 -0.975,3.957 -3.463,6.328 -6.565,8.217 m 17.385,64.187 c 0.493,1.447 1.306,1.949 2.332,3.022 a 21.14,21.14 0 0 0 9.623,5.504 c 3.334,0.979 6.928,0.482 9.87,-1.367 M 365.29,387.87 c 1.937,-0.035 3.869,1.273 5.133,3.468 a 5.09,5.09 0 0 1 0.628,2.41 4.276,4.276 0 0 1 -1.593,3.453 c -2.245,1.43 -6.232,0.815 -6.065,-3.15"
         class="B"
         id="path75" />
      <path
         d="m 377.33,336.4 c 7.703,1.438 15.119,10.729 17.546,20.865 a 46.03,46.03 0 0 1 0.396,18.815 35.05,35.05 0 0 1 -9.16,17.585 25.826,25.826 0 0 1 -3.323,2.855 l -1.643,1.113 M 368.76,378.67 c 3.164,0 5.934,3.032 5.934,6.273 a 5.926,5.926 0 0 1 -1.615,4.085 m -6.459,-6.678 a 6.84,6.84 0 0 1 6.433,6.546 6.09,6.09 0 0 1 -2.316,4.786"
         id="path76" />
      <path
         d="m 396.84,349.2 c 3.027,4.063 5.025,7.561 5.954,12.07 m -0.104,13.26 a 26.98,26.98 0 0 1 -2.264,6.322 27.859,27.859 0 0 1 -5.552,7.253"
         class="B"
         id="path77" />
      <path
         d="m 397.32,325.52 a 14.58,14.58 0 0 1 5.501,7.469"
         id="path78" />
      <path
         d="m 402.9,317.92 c -0.767,2.66 -2.506,4.674 -5.266,7.193 m -14.304,-26.843 3.369,-0.886 1.994,-1.508 1.285,-1.817 1.108,-2.837 0.444,-2.305"
         class="B"
         id="path79" />
      <path
         d="m 376.51,286.41 a 20.24,20.24 0 0 0 -3.824,1.333 13.97,13.97 0 0 0 -5.506,4.576 c -1.856,2.63 -2.938,6.286 -3.608,9.484 a 30.98,30.98 0 0 0 0.252,10.41 24.628,24.628 0 0 0 3.601,8.807 14.292,14.292 0 0 0 1.621,2.087 c 2.022,2.021 3.888,3.265 6.997,2.643"
         id="path80" />
      <path
         d="m 395.38,271.58 c -0.546,2.007 -1.625,4.493 -4.774,4.221"
         class="B"
         id="path81" />
      <path
         d="m 383.87,285.2 c -3.024,-2.956 -9.43,-3.726 -15.798,0.302 a 24.12,24.12 0 0 0 -2.448,1.859 13.847,13.847 0 0 0 -2.25,2.482 28.057,28.057 0 0 0 -2.182,3.8 19.629,19.629 0 0 0 -1.474,4.142 31.717,31.717 0 0 0 -1.02,9.776 c 0.176,1.513 0.32,2.903 0.567,4.182 a 29.13,29.13 0 0 0 3.475,9.656 c 1.407,2.333 4.906,7.69 12.058,8.397 2.811,0.278 7.612,-1.01 7.768,-4.665"
         id="path82" />
      <path
         d="m 568.38,220.42 c 0.478,-2.581 3.59,-3.08 4.758,-1.555 1.8,2.348 0.61,6.382 -3.051,7.526 a 5.89,5.89 0 0 1 -5.987,-2.177 6.78,6.78 0 0 1 1.585,-9.45 l 0.281,-0.19 c 4.251,-3.234 11.118,-2.488 13.372,2.954 2.909,7.02 -3.42,12.284 -9.252,16.249 -7.34,4.992 -15.705,5.9 -22.003,5.831 -14.306,-0.156 -25.19,-6.997 -32.265,-10.884 -1.648,-0.906 -3.345,-0.72 -4.198,0.31 a 3.117,3.117 0 0 0 0.389,4.277 M 571.26,218 a 2.625,2.625 0 0 1 2.387,1.267 c 1.8,2.348 0.485,6.383 -3.176,7.526 m 27.869,80.537 c -5.45,5.933 -0.437,16.116 3.636,18.418 1.41,1.097 2.013,0.515 3.14,1.175"
         class="B"
         id="path83" />
      <path
         d="m 598.63,295.99 c -1.788,1.244 -2.418,2.642 -2.488,5.07 a 8.196,8.196 0 0 0 2.203,6.272 c 2.972,3.092 8.786,5.784 14.42,5.855 3.35,0.097 6.645,-0.86 9.422,-2.736 a 14.156,14.156 0 0 0 5.987,-8.397 M 595.58,398.6 a 38,38 0 0 1 -0.212,3.887 32.805,32.805 0 0 1 -9.795,19.671 30.679,30.679 0 0 1 -9.097,6.375 38.43,38.43 0 0 1 -10.263,3.42 52.317,52.317 0 0 1 -10.73,1.322 74.53,74.53 0 0 1 -9.909,-0.254 c -4.127,-0.286 -6.417,-0.86 -10.538,-1.223 a 83.34,83.34 0 0 0 -8.743,-0.566 44.763,44.763 0 0 0 -8.983,0.644 34.33,34.33 0 0 0 -8.086,2.255 c -4.198,1.7 -8.941,4.664 -9.952,5.986 -1.01,-1.322 -5.754,-4.286 -9.952,-5.986 a 34.403,34.403 0 0 0 -8.085,-2.255 44.767,44.767 0 0 0 -8.984,-0.644 82.69,82.69 0 0 0 -8.743,0.566 c -4.121,0.362 -6.41,0.937 -10.538,1.223 -3.294,0.306 -6.605,0.39 -9.91,0.254 a 52.444,52.444 0 0 1 -10.728,-1.321 38.43,38.43 0 0 1 -10.263,-3.421 30.66,30.66 0 0 1 -9.097,-6.375 32.812,32.812 0 0 1 -9.796,-19.671 37.952,37.952 0 0 1 -0.212,-3.887 V 239.58 h 192.55 V 398.6 Z"
         id="path84" />
    </g>
  </g>
  <g
     class="J"
     id="g86"
     transform="translate(0,-50)">
    <path
       d="m 387.41,421.32 a 3.91,3.91 0 0 1 3.903,-3.911 3.91,3.91 0 0 1 3.911,3.903 v 0.009 a 3.91,3.91 0 0 1 -3.911,3.903 3.91,3.91 0 0 1 -3.903,-3.903 z m -23.99,-27.61 c 0,-1.932 1.236,-3.499 2.76,-3.499 1.524,0 2.76,1.567 2.76,3.499 0,1.932 -1.236,3.499 -2.76,3.499 -1.524,0 -2.76,-1.567 -2.76,-3.499 z"
       stroke="#c7b37f"
       class="E"
       id="path85" />
    <path
       d="m 377.05,324.36 a 2.674,2.674 0 0 1 5.33,0.4 2.673,2.673 0 0 1 -2.665,2.472 2.775,2.775 0 0 1 -2.665,-2.873 z m 47.86,-102.55 a 2.49,2.49 0 0 1 2.636,-2.329 2.49,2.49 0 0 1 2.329,2.636 2.488,2.488 0 0 1 -2.221,2.32 2.7,2.7 0 0 1 -2.744,-2.627 z"
       id="path86" />
  </g>
  <g
     stroke="#c7b37f"
     class="C D"
     id="g89"
     transform="translate(0,-50)">
    <path
       d="m 373.92,340.54 a 3.884,3.884 0 0 0 -2.138,2.208 6.36,6.36 0 0 0 -0.381,1.858 m 7.369,41.794 1.391,-1.687 a 16.95,16.95 0 0 0 1.073,-1.47 c 0.344,-0.539 0.498,-0.867 0.801,-1.43 l 1.05,-2.06 m -1.975,21.777 -2.371,1.088 -1.71,1.003 -1.945,1.307 -1.904,1.523 m 23.38,-59.201 -1.283,-1.321 -1.4,-1.322 c -0.556,-0.469 -0.91,-0.683 -1.492,-1.12"
       class="B"
       id="path87" />
    <path
       d="m 397.17,326.47 c -0.618,0.319 -1.254,0.602 -1.905,0.848 -0.751,0.278 -1.54,0.44 -2.34,0.482"
       id="path88" />
    <path
       d="m 371,300.68 c 0.173,0.787 0.391,1.563 0.653,2.325 a 12.18,12.18 0 0 0 1.446,2.666 13.05,13.05 0 0 0 1.99,2.457 c 0.655,0.658 1.383,1.24 2.17,1.734 0.753,0.455 1.529,0.87 2.325,1.244 m -1.544,-9.156 a 19.32,19.32 0 0 0 1.944,1.042 c 0.614,0.261 1.251,0.461 1.904,0.598 a 11.49,11.49 0 0 0 2.683,0.32 12.09,12.09 0 0 0 2.916,-0.234 m 11.203,-63.526 -3.196,-1.866 a 19.074,19.074 0 0 1 -2.923,-2.371 14.607,14.607 0 0 1 -1.811,-2.022 c -0.563,-0.76 -0.778,-1.257 -1.275,-2.06 M 401.2,224.72 c 0.278,0.914 0.613,1.81 1.003,2.682 a 12.19,12.19 0 0 0 2.224,3.188 c 1.414,1.552 2.613,1.992 4.283,3.265 m 2.27,-9.245 c 0.28,0.824 0.612,1.629 0.995,2.41 0.364,0.68 0.799,1.318 1.299,1.905 a 11.468,11.468 0 0 0 2.099,2.06 22.796,22.796 0 0 0 2.939,1.75"
       class="B"
       id="path89" />
  </g>
  <g
     fill="#713f2a"
     id="g93"
     transform="translate(0,-50)">
    <path
       d="m 520.78,211.91 c -0.08,-2.649 -2.69,-2.924 -3.69,-2.924 -2.885,0 -3.666,1.8 -7.265,3.732 -4.512,2.424 -6.455,2.962 -10.466,2.998 -4.01,-0.036 -6.005,-0.575 -10.517,-2.998 -3.6,-1.932 -4.205,-3.674 -7.091,-3.674 a 3.64,3.64 0 0 0 -3.516,3.757 l 0.003,0.075 a 6.48,6.48 0 0 0 0.093,1.347 c 0.047,0.204 0.296,0.14 0.374,0.32 a 3.64,3.64 0 0 1 0.8,-2.633 3.415,3.415 0 0 1 2.54,-1.313 c 2.885,0 3.953,1.851 7.553,3.784 4.512,2.423 6.453,2.962 10.464,2.998 4.01,-0.036 6.007,-0.575 10.519,-2.998 3.6,-1.933 4.634,-3.938 7.52,-3.938 a 2.12,2.12 0 0 1 2.032,1.667 4.96,4.96 0 0 1 0.14,1.293 c 0.026,0.121 0.174,0.109 0.207,0.24 a 4.08,4.08 0 0 0 0.3,-1.733 z"
       stroke-width="0.277"
       class="H"
       id="path90" />
    <path
       d="m 413.12,434.42 c 0.81,-0.872 1.423,-0.544 1.573,-0.946 0.11,-0.297 -0.13,-0.327 -0.46,-0.45 -0.44,-0.165 -0.906,-0.26 -1.346,-0.424 -0.457,-0.17 -0.87,-0.405 -1.327,-0.576 -0.189,-0.07 -0.625,-0.293 -0.75,0.04 -0.228,0.61 1.602,0.558 0.988,2.2 a 5.79,5.79 0 0 1 -1.274,1.875 l -4.141,4.507 c -0.093,0.104 -0.248,0.326 -0.342,0.29 -0.094,-0.036 -0.082,-0.309 -0.083,-0.45 l 0.06,-6.39 a 8.468,8.468 0 0 1 0.303,-2.636 c 0.275,-0.734 1.12,-0.119 1.297,-0.59 0.111,-0.298 0.026,-0.31 -0.477,-0.498 -0.252,-0.094 -0.734,-0.195 -1.74,-0.571 l -1.563,-0.664 c -0.236,-0.088 -0.672,-0.41 -0.828,0.01 -0.046,0.123 0.119,0.304 0.16,0.339 0.524,0.294 0.816,0.876 0.74,1.472 l 0.114,11.635 c 0.009,0.84 0.1,1.073 0.258,1.132 0.173,0.065 0.29,-0.011 0.633,-0.4 l 8.205,-8.904 z"
       id="path91" />
    <path
       d="m 417.95,436.22 c 0.533,-1.69 1.532,-0.671 1.723,-1.276 0.067,-0.214 -10e-4,-0.275 -0.482,-0.426 l -2.088,-0.58 -1.788,-0.642 c -0.144,-0.046 -0.527,-0.225 -0.623,0.077 -0.196,0.623 1.77,0.695 1.26,2.314 l -2.693,8.542 c -0.533,1.69 -1.54,0.864 -1.736,1.486 -0.028,0.09 -0.036,0.224 0.109,0.27 l 1.816,0.494 2.412,0.839 c 0.368,0.116 0.534,0.09 0.596,-0.106 0.18,-0.57 -1.872,-0.316 -1.182,-2.505 z m 5.78,1.71 c 0.318,-1.073 0.817,-0.926 1.413,-0.75 1.626,0.483 2.135,2.073 1.616,3.827 -0.313,1.055 -0.706,2.028 -3.153,1.303 -0.483,-0.143 -1.079,-0.32 -0.946,-0.766 z m -4.434,7.696 c -0.667,2.254 -1.797,1.278 -1.966,1.85 -0.106,0.358 0.248,0.404 0.425,0.457 l 2.5,0.663 c 0.677,0.2 1.09,0.4 1.364,0.481 0.37,0.11 0.53,0.04 0.579,-0.12 0.19,-0.644 -1.621,-0.383 -1.054,-2.297 l 0.917,-3.095 c 0.185,-0.626 0.126,-0.78 0.979,-0.527 0.805,0.238 1.047,0.485 1.184,1.382 l 0.515,3.227 c 0.192,1.186 0.374,2.465 1.645,2.842 0.644,0.19 1.824,0.112 1.988,-0.443 a 0.248,0.248 0 0 0 -0.149,-0.316 c -0.179,-0.054 -0.372,0.005 -0.533,-0.042 a 0.617,0.617 0 0 1 -0.495,-0.458 l -1.06,-5.704 c 0.053,-0.179 0.568,-0.201 1.156,-0.475 a 2.963,2.963 0 0 0 1.596,-1.959 c 0.244,-0.823 0.67,-3.44 -2.856,-4.485 l -3.274,-0.892 -1.862,-0.63 c -0.193,-0.056 -0.381,-0.015 -0.434,0.164 -0.19,0.644 1.76,0.502 1.167,2.505 z m 13.164,3.854 c -0.518,2.159 -2.154,0.845 -2.324,1.552 -0.096,0.4 0.186,0.448 0.48,0.519 l 2.303,0.476 2.269,0.622 c 0.473,0.113 0.787,0.246 0.891,-0.19 0.122,-0.507 -2.094,-0.483 -1.558,-2.715 l 1.968,-8.2 c 0.21,-0.87 0.395,-0.922 1.064,-0.761 l 1.388,0.333 c 1.895,0.378 0.889,2.267 1.542,2.423 0.425,0.102 0.415,-0.648 0.435,-0.874 l 0.22,-1.712 c 0.028,-0.185 0.089,-0.44 -0.156,-0.498 l -5.014,-1.127 -4.978,-1.272 c -0.245,-0.06 -0.306,0.195 -0.366,0.372 l -0.836,2.332 c -0.09,0.228 -0.283,0.604 0.06,0.686 0.734,0.176 0.815,-2.318 2.66,-1.875 l 1.372,0.33 c 0.669,0.16 0.81,0.29 0.601,1.161 l -2.02,8.418 z m 19.84,-5.06 c 0.646,-1 1.306,-0.782 1.385,-1.204 0.057,-0.312 -0.184,-0.3 -0.53,-0.364 -0.463,-0.086 -0.939,-0.098 -1.401,-0.184 -0.479,-0.089 -0.928,-0.248 -1.406,-0.337 -0.198,-0.037 -0.667,-0.18 -0.732,0.168 -0.119,0.643 1.675,0.273 1.355,1.997 a 5.75,5.75 0 0 1 -0.93,2.067 l -3.295,5.158 c -0.073,0.119 -0.187,0.364 -0.286,0.345 -0.099,-0.019 -0.134,-0.29 -0.16,-0.428 l -1.052,-6.305 a 8.5,8.5 0 0 1 -0.158,-2.648 c 0.143,-0.77 1.083,-0.311 1.175,-0.807 0.057,-0.312 -0.029,-0.309 -0.557,-0.407 -0.264,-0.049 -0.756,-0.064 -1.813,-0.26 l -1.654,-0.382 c -0.248,-0.046 -0.732,-0.288 -0.814,0.152 -0.024,0.129 0.17,0.279 0.217,0.306 0.566,0.199 0.955,0.722 0.984,1.321 l 2.132,11.44 c 0.155,0.825 0.286,1.039 0.451,1.07 0.182,0.034 0.285,-0.061 0.555,-0.505 z m 0.93,10.51 c 0.009,0.456 -0.032,0.6 0.363,0.78 0.848,0.496 1.756,0.884 2.702,1.152 2.169,0.362 3.967,-1.02 4.37,-3.43 0.391,-2.338 -0.57,-3.312 -2.197,-4.473 -2.037,-1.457 -2.908,-1.85 -2.702,-3.082 a 1.774,1.774 0 0 1 2.162,-1.624 c 2.849,0.476 2.524,3.94 2.905,4.004 0.364,0.061 0.45,-0.151 0.486,-0.562 l 0.23,-2.496 c 0.038,-0.429 0.134,-0.697 -0.115,-0.738 -0.215,-0.036 -0.679,0.19 -0.894,0.153 -0.496,-0.083 -1.072,-0.917 -2.43,-1.144 -1.938,-0.325 -3.521,1 -3.875,3.116 -0.324,1.932 0.533,2.813 1.84,3.75 2.448,1.753 3.452,2.167 3.19,3.731 a 2.235,2.235 0 0 1 -2.68,1.973 c -1.838,-0.308 -2.585,-2.154 -2.82,-4.01 -0.025,-0.25 -0.03,-0.42 -0.296,-0.465 -0.414,-0.069 -0.337,0.492 -0.33,0.758 z m 24.72,-6.97 c 0.538,-1.062 1.217,-0.915 1.251,-1.343 0.025,-0.316 -0.214,-0.279 -0.566,-0.306 -0.468,-0.037 -0.943,0 -1.412,-0.036 -0.485,-0.038 -0.948,-0.15 -1.433,-0.188 -0.201,-0.016 -0.682,-0.11 -0.71,0.243 -0.051,0.651 1.694,0.096 1.556,1.845 a 5.77,5.77 0 0 1 -0.708,2.152 l -2.739,5.474 c -0.06,0.126 -0.148,0.381 -0.248,0.374 -0.1,-0.007 -0.164,-0.275 -0.204,-0.41 l -1.704,-6.16 a 8.466,8.466 0 0 1 -0.435,-2.617 c 0.062,-0.78 1.044,-0.423 1.084,-0.925 0.024,-0.316 -0.06,-0.304 -0.596,-0.346 -0.268,-0.02 -0.76,0.016 -1.83,-0.07 l -1.685,-0.207 c -0.251,-0.02 -0.759,-0.21 -0.794,0.237 -0.011,0.13 0.199,0.26 0.247,0.282 a 1.476,1.476 0 0 1 1.118,1.21 l 3.316,11.154 c 0.24,0.805 0.393,1.004 0.56,1.017 0.184,0.014 0.277,-0.091 0.499,-0.56 z"
       id="path92" />
    <path
       d="m 480.6,457 c -0.016,1.903 -1.626,1.553 -1.632,2.3 -0.002,0.317 0.334,0.226 0.519,0.228 l 1.444,-0.062 1.98,0.092 c 0.22,0 0.639,0.024 0.64,-0.237 0.008,-0.877 -2.152,0.373 -2.12,-3.21 l 0.055,-6.342 c 0,-0.168 0.036,-0.299 0.137,-0.298 0.084,0 0.183,0.095 0.3,0.245 l 7.992,9.772 a 0.493,0.493 0 0 0 0.434,0.265 c 0.202,0 0.203,-0.147 0.206,-0.558 l 0.092,-10.466 c 0.015,-1.958 1.44,-1.498 1.445,-2.058 0,-0.056 0.002,-0.243 -0.317,-0.245 -0.15,0 -0.74,0.068 -1.797,0.059 l -1.914,-0.091 c -0.218,0 -0.27,0.184 -0.271,0.314 -0.005,0.616 2.046,0.298 2.03,1.996 l -0.053,6.213 c -0.005,0.466 -0.04,0.69 -0.14,0.689 -0.1,-10e-4 -0.3,-0.227 -0.517,-0.49 l -6.678,-8.286 c -0.3,-0.358 -0.097,-0.486 -0.634,-0.491 -0.89,-0.01 -1.327,0.063 -1.764,0.059 -0.319,0 -0.62,-0.08 -0.94,-0.083 a 0.282,0.282 0 0 0 -0.29,0.274 c 0,0.014 0,0.027 0.002,0.041 -0.009,0.895 1.884,-0.301 1.852,3.281 l -0.061,7.09 z m 16.26,-8.4 c 0.016,-1.772 1.27,-1.09 1.274,-1.724 0.002,-0.224 -0.08,-0.262 -0.585,-0.267 -0.957,-0.01 -1.562,0.061 -2.166,0.056 -0.588,0 -1.242,-0.086 -1.897,-0.09 -0.151,-0.002 -0.57,-0.062 -0.573,0.256 -0.005,0.653 1.802,0.147 1.788,1.845 l 0.015,8.955 c -0.015,1.772 -1.22,1.277 -1.225,1.93 -10e-4,0.093 0.031,0.224 0.182,0.225 0.437,0.01 1.16,-0.064 1.882,-0.058 l 2.55,0.097 c 0.387,0 0.539,-0.07 0.54,-0.275 0.006,-0.597 -1.882,0.245 -1.862,-2.05 z m 7.04,8.67 c 0.02,2.22 -1.886,1.341 -1.88,2.069 0.006,0.41 0.29,0.39 0.592,0.386 l 2.35,-0.095 2.351,0.054 c 0.487,0 0.824,0.05 0.82,-0.399 -0.005,-0.522 -2.15,0.037 -2.17,-2.257 l -0.073,-8.433 c -0.007,-0.895 0.16,-0.99 0.848,-0.996 l 1.427,-0.011 c 1.93,-0.091 1.411,1.984 2.083,1.978 0.436,0 0.245,-0.73 0.21,-0.953 l -0.2,-1.715 c -0.018,-0.187 -0.02,-0.448 -0.273,-0.446 l -5.137,0.12 c -2.452,0.02 -3.577,-0.044 -5.139,-0.03 -0.252,0 -0.25,0.263 -0.265,0.45 l -0.247,2.465 c -0.031,0.243 -0.128,0.654 0.224,0.651 0.756,-0.01 0.231,-2.446 2.128,-2.462 l 1.41,-0.014 c 0.69,-0.01 0.858,0.086 0.866,0.98 z m 9.78,-3.53 c -0.301,0.024 -0.534,0.061 -0.549,-0.125 a 1.91,1.91 0 0 1 0.13,-0.703 l 1.03,-3.393 c 0.067,-0.212 0.133,-0.236 0.166,-0.238 0.084,-0.01 0.034,0 0.146,0.138 l 1.638,3.259 a 1.92,1.92 0 0 1 0.238,0.673 c 0.013,0.186 -0.221,0.186 -0.523,0.21 z m 2.874,0.784 c 0.436,-0.034 0.534,0.146 1.2,1.553 a 3.5,3.5 0 0 1 0.4,1.222 c 0.09,1.135 -1.115,1.024 -1.073,1.563 0.02,0.26 0.236,0.206 0.537,0.183 l 1.835,-0.22 2.166,-0.096 c 0.452,-0.035 0.605,-0.01 0.58,-0.326 -0.048,-0.614 -0.895,0.183 -1.535,-1.096 l -5.415,-11.028 c -0.262,-0.54 -0.298,-0.575 -0.449,-0.563 -0.217,0.018 -0.273,0.377 -0.367,0.684 l -3.651,11.61 c -0.336,1.074 -1.199,1.03 -1.165,1.458 0.02,0.242 0.284,0.183 0.518,0.165 0.485,-0.038 0.965,-0.151 1.467,-0.19 l 1.58,-0.05 c 0.351,-0.028 0.88,0.062 0.85,-0.329 -0.04,-0.502 -1.824,-0.062 -1.93,-1.401 0.013,-0.507 0.093,-1.01 0.236,-1.497 0.288,-1.258 0.634,-1.36 0.919,-1.382 l 3.298,-0.26 z m 12.976,-7.734 c -0.168,-1.276 -0.104,-1.304 1.91,-1.569 3.213,-0.423 2.2,1.912 2.982,1.81 0.383,-0.05 0.22,-0.65 0.171,-0.889 l -0.307,-1.822 a 0.343,0.343 0 0 0 -0.373,-0.309 l -3.793,0.575 -4.438,0.509 a 0.332,0.332 0 0 0 -0.326,0.337 l 10e-4,0.026 c 0.098,0.74 1.901,-0.1 2.12,1.564 l 1.14,8.658 c 0.297,2.256 -1.1,1.424 -0.988,2.275 0.016,0.111 0.127,0.19 0.343,0.162 l 2.122,-0.355 1.99,-0.186 c 0.417,-0.055 0.776,-0.027 0.727,-0.397 -0.065,-0.5 -1.885,0.21 -2.156,-1.843 l -0.36,-2.738 c -0.142,-1.073 -0.237,-1.286 0.528,-1.387 l 1.232,-0.162 c 1.732,-0.228 1.524,1.795 2.056,1.724 0.4,-0.053 0.212,-0.705 0.164,-0.943 l -0.55,-3.277 c -0.082,-0.498 -0.26,-0.437 -0.377,-0.421 -0.333,0.044 -0.159,1.752 -1.59,1.94 l -1.05,0.139 c -0.715,0.094 -0.732,-0.035 -0.837,-0.831 l -0.34,-2.59 z m 6.14,4.24 c 0.69,3.724 3.378,5.787 6.697,5.172 5.267,-0.976 5.44,-5.657 4.965,-8.225 -0.721,-3.89 -3.62,-5.8 -6.833,-5.166 -3.939,0.767 -5.574,4.201 -4.829,8.219 z m 1.837,-1.422 c -0.493,-2.66 -0.137,-5.345 2.643,-5.917 2.123,-0.431 4.532,1.323 5.283,5.378 0.565,3.045 0.096,5.675 -2.734,6.256 -2.945,0.603 -4.696,-3.039 -5.192,-5.717 z m 13.023,-6.498 c -0.261,-1.089 0.245,-1.21 0.849,-1.355 1.65,-0.396 2.886,0.727 3.313,2.505 0.257,1.07 0.403,2.11 -2.08,2.705 -0.49,0.118 -1.093,0.263 -1.202,-0.19 z m 0.009,8.882 c 0.549,2.286 -0.917,2.004 -0.778,2.585 0.087,0.363 0.417,0.226 0.596,0.183 l 2.498,-0.676 c 0.685,-0.165 1.143,-0.198 1.421,-0.265 0.376,-0.09 0.48,-0.23 0.44,-0.393 -0.156,-0.654 -1.594,0.478 -2.06,-1.463 l -0.753,-3.138 c -0.153,-0.635 -0.281,-0.739 0.584,-0.947 a 1.356,1.356 0 0 1 1.717,0.605 l 2.06,2.537 c 0.758,0.931 1.555,1.949 2.845,1.64 0.653,-0.158 1.635,-0.816 1.5,-1.378 a 0.246,0.246 0 0 0 -0.286,-0.199 l -0.02,0.004 c -0.163,0.039 -0.3,0.187 -0.464,0.226 a 0.62,0.62 0 0 1 -0.657,-0.149 l -3.77,-4.41 c -0.044,-0.181 0.39,-0.458 0.764,-0.99 a 2.96,2.96 0 0 0 0.403,-2.494 c -0.2,-0.835 -1.141,-3.314 -4.717,-2.456 l -3.281,0.864 -1.928,0.386 c -0.196,0.047 -0.337,0.177 -0.294,0.359 0.157,0.653 1.776,-0.446 2.264,1.586 z m 13.471,-3.012 c 0.556,2.15 -1.505,1.758 -1.323,2.462 0.102,0.398 0.374,0.308 0.667,0.232 l 2.257,-0.66 2.295,-0.517 c 0.471,-0.122 0.81,-0.152 0.698,-0.585 -0.13,-0.506 -2.076,0.556 -2.65,-1.666 l -2.112,-8.164 c -0.224,-0.867 -0.085,-1 0.581,-1.172 l 1.382,-0.358 c 1.851,-0.555 1.85,1.584 2.5,1.416 0.422,-0.11 0.061,-0.767 -0.027,-0.976 l -0.609,-1.615 c -0.063,-0.177 -0.128,-0.43 -0.372,-0.367 l -4.956,1.36 -4.993,1.214 c -0.244,0.063 -0.179,0.316 -0.148,0.5 l 0.356,2.452 c 0.029,0.243 0.034,0.666 0.375,0.577 0.732,-0.189 -0.368,-2.429 1.469,-2.904 l 1.365,-0.353 c 0.667,-0.172 0.853,-0.124 1.077,0.743 z m 8.59,-11.46 c -0.474,-1.708 0.92,-1.397 0.75,-2.009 -0.06,-0.215 -0.15,-0.229 -0.636,-0.095 l -2.068,0.651 -1.848,0.435 c -0.146,0.04 -0.565,0.098 -0.48,0.405 0.174,0.629 1.863,-0.382 2.316,1.254 l 2.394,8.63 c 0.474,1.708 -0.821,1.564 -0.647,2.193 0.025,0.09 0.093,0.207 0.238,0.167 l 1.793,-0.575 2.48,-0.61 c 0.371,-0.103 0.497,-0.215 0.442,-0.413 -0.16,-0.576 -1.742,0.754 -2.356,-1.458 z m 3.58,4.17 c 1.202,3.592 4.15,5.261 7.352,4.19 5.08,-1.7 4.6,-6.36 3.771,-8.836 -1.255,-3.751 -4.391,-5.24 -7.485,-4.166 -3.793,1.31 -4.934,4.937 -3.638,8.812 z m 1.621,-1.664 c -0.858,-2.565 -0.879,-5.273 1.794,-6.227 2.043,-0.723 4.672,0.68 5.98,4.59 0.983,2.937 0.885,5.606 -1.836,6.576 -2.833,1.006 -5.074,-2.356 -5.938,-4.939 z m 11.919,-8.466 c -0.41,-1.041 0.074,-1.232 0.652,-1.46 1.578,-0.622 2.96,0.318 3.63,2.02 0.403,1.024 0.692,2.033 -1.683,2.968 -0.469,0.185 -1.047,0.412 -1.218,-0.023 l -1.381,-3.506 z m 1.245,8.794 c 0.861,2.187 -0.63,2.113 -0.411,2.669 0.136,0.347 0.444,0.166 0.616,0.098 l 2.378,-1.017 c 0.657,-0.259 1.106,-0.355 1.371,-0.46 0.36,-0.142 0.444,-0.295 0.382,-0.452 -0.246,-0.625 -1.512,0.697 -2.244,-1.16 l -1.183,-3.004 c -0.24,-0.608 -0.38,-0.692 0.447,-1.018 a 1.354,1.354 0 0 1 1.784,0.36 l 2.393,2.225 c 0.881,0.816 1.812,1.713 3.046,1.227 0.625,-0.246 1.506,-1.034 1.294,-1.572 a 0.246,0.246 0 0 0 -0.31,-0.158 l -0.02,0.007 c -0.157,0.062 -0.272,0.227 -0.428,0.289 a 0.62,0.62 0 0 1 -0.672,-0.056 l -4.347,-3.843 c -0.068,-0.173 0.323,-0.508 0.62,-1.085 0.392,-0.793 0.41,-1.719 0.05,-2.527 -0.314,-0.8 -1.59,-3.123 -5.012,-1.776 l -3.129,1.313 -1.855,0.65 c -0.188,0.075 -0.31,0.222 -0.241,0.396 0.246,0.625 1.696,-0.688 2.462,1.256 z"
       id="path93" />
  </g>
  <path
     d="m 412.66,199.25 h 82.179 v 82.023 H 412.66 Z"
     class="G"
     id="path94" />
  <path
     d="m 451.2,263.83 a 20.15,20.15 0 0 1 -0.855,5.287 c -0.933,2.721 -0.94,2.721 -1.796,4.043 a 13.133,13.133 0 0 1 -3.81,3.887 9.42,9.42 0 0 1 -5.948,1.71 c -5.49,-0.486 -8.038,-6.44 -9.283,-11.273 -1.321,-5.13 -5.073,-7.923 -7.463,-6.064 -1.4,1.089 -1.479,2.914 -0.311,4.665 a 9.01,9.01 0 0 0 4.099,2.8 l -2.933,3.731 a 9.18,9.18 0 0 1 -7.535,-7.393 c -0.466,-2.488 0.742,-7.134 4.891,-8.522 5.297,-1.774 8.686,2.004 10.318,5.191 2.246,4.384 3.21,12.434 9.43,11.19 3.384,-0.677 4.976,-5.598 4.976,-7.852 l 2.467,-2.644 3.654,1.167 0.099,0.078 z m 5.12,0 a 20.15,20.15 0 0 0 0.855,5.287 c 0.933,2.721 0.94,2.721 1.796,4.043 a 13.133,13.133 0 0 0 3.81,3.887 9.42,9.42 0 0 0 5.948,1.71 c 5.49,-0.486 8.038,-6.44 9.283,-11.273 1.321,-5.13 5.073,-7.923 7.463,-6.064 1.4,1.089 1.479,2.914 0.311,4.665 a 9.01,9.01 0 0 1 -4.099,2.8 l 2.933,3.731 a 9.18,9.18 0 0 0 7.535,-7.393 c 0.466,-2.488 -0.742,-7.134 -4.891,-8.522 -5.297,-1.774 -8.686,2.004 -10.318,5.191 -2.246,4.384 -3.21,12.434 -9.43,11.19 -3.384,-0.677 -4.976,-5.598 -4.976,-7.852 l -2.467,-2.644 -3.654,1.167 -0.099,0.078 z"
     fill="#ffffff"
     id="path95" />
  <path
     d="m 461.12,228.95 10.76,-11.643 a 4.69,4.69 0 0 0 1.61,-3.401 l -2.219,0.345 -0.497,-1.142 -0.11,-1.147 2.981,-0.63 c 0.048,-0.484 0.007,-0.85 0.092,-1.384 0.08,-0.494 0.19,-0.76 0.311,-1.244 l -3.265,0.218 c 0.166,-0.571 0.128,-0.875 0.31,-1.406 a 4.04,4.04 0 0 1 0.504,-1.103 l 1.907,-0.304 c 0.728,-0.073 1.143,-0.04 1.873,-0.085 1.781,-3.321 9.19,-6.373 14.454,-0.904 3.81,3.958 2.988,11.219 -1.95,13.139 a 6.32,6.32 0 0 1 -6.862,-1.11 l 1.97,-3.866 c 2.722,1.625 4.976,-0.396 4.821,-2.495 a 4.58,4.58 0 0 0 -4.354,-4.51 c -2.254,-0.197 -3.872,1.093 -4.898,3.11 -0.626,1.231 -0.336,2.134 -0.544,3.5 a 23.92,23.92 0 0 1 -0.537,3.809 8.76,8.76 0 0 1 -2.37,3.592 l -11.03,11.935 -42.941,46.445 -3.227,-2.983 43.211,-46.737 z"
     class="F"
     id="path96" />
  <path
     d="m 429.51,233.04 c 0,0 2.7,13.372 11.874,33.431 4.665,-1.71 7.42,-2.8 12.362,-2.8 4.942,0 7.697,0.934 12.362,2.8 9.174,-20.059 11.874,-33.431 11.874,-33.431 l -24.236,-31.177 z"
     fill="#ffffff"
     id="path97" />
  <path
     d="m 456.12,212.41 16.82,21.637 c 0,0 -2.243,10.52 -9.078,26.354 a 47.33,47.33 0 0 0 -7.733,-1.32 l -0.009,-46.67 z m -4.74,0 -16.82,21.637 c 0,0 2.243,10.52 9.078,26.354 a 47.33,47.33 0 0 1 7.733,-1.32 l 0.009,-46.67 z m 52.22,-13.16 h 82.179 v 82.023 H 503.6 Z"
     class="F"
     id="path98" />
  <path
     d="m 515.11,199.25 h 12.253 v 82.023 H 515.11 Z m 23.48,0 h 12.253 v 82.023 H 538.59 Z m 23.48,0 h 12.253 v 82.023 H 562.07 Z"
     class="G"
     id="path99" />
  <path
     d="m 412.97,352.41 a 20.76,20.76 0 0 0 2.163,6.609 c 1.477,2.332 0.932,2.269 4.276,6 a 23.918,23.918 0 0 0 6.227,4.495 26.955,26.955 0 0 0 6.842,2.496 50.943,50.943 0 0 0 16.574,1.598 98.46,98.46 0 0 0 10.249,-1.062 108.8,108.8 0 0 1 11.118,-1.01 c 2.133,-0.09 4.149,-0.11 6.142,0 2.457,0.162 4.899,0.499 7.308,1.01 a 79.67,79.67 0 0 1 10.962,3.188 l 0.014,-85.655 -82.193,-0.023 V 348.6 c 0,0 0.168,2.86 0.318,3.81 z"
     class="F"
     id="path100" />
  <path
     d="m 422.51,367.43 3.852,2.241 5.278,1.9 -0.005,-81.528 h -9.126 z m 45.66,3.71 0.011,-81.099 h -9.143 v 82.396 l 9.131,-0.988 z m 18.24,-81.09 h -9.113 v 81.381 a 60.43,60.43 0 0 1 9.13,1.683 z m -36.49,0 v 83.331 a 80.663,80.663 0 0 1 -9.173,-0.003 l 0.002,-83.314 z"
     stroke="#d52b1e"
     class="E G"
     id="path101" />
  <path
     d="m 585.48,352.39 a 20.728,20.728 0 0 1 -2.163,6.608 c -1.477,2.333 -0.932,2.27 -4.275,6.001 a 23.963,23.963 0 0 1 -6.228,4.495 26.91,26.91 0 0 1 -6.841,2.495 50.95,50.95 0 0 1 -16.574,1.599 98.69,98.69 0 0 1 -10.25,-1.062 108.633,108.633 0 0 0 -11.117,-1.01 c -2.133,-0.09 -4.15,-0.11 -6.142,0 a 51.47,51.47 0 0 0 -7.309,1.01 82.42,82.42 0 0 0 -11.033,3.188 l 0.057,-85.655 82.193,-0.023 v 58.543 c 0,0 -0.168,2.86 -0.318,3.81 z"
     class="F"
     id="path102" />
  <use
     xlink:href="#B"
     class="G"
     id="use102"
     transform="translate(0,-50)" />
  <g
     stroke="#fedf00"
     id="g108"
     transform="translate(0,-50)">
    <use
       xlink:href="#C"
       class="B C D"
       id="use103" />
    <use
       xlink:href="#D"
       class="E I"
       id="use104" />
    <g
       class="C D"
       id="g107">
      <use
         xlink:href="#E"
         class="B"
         id="use105" />
      <path
         d="m 560.12,369.78 0.384,-0.249 a 8.149,8.149 0 0 0 2.686,-1.79"
         id="path105" />
      <g
         class="B"
         id="g106">
        <path
           d="m 552.38,368.02 h 0.007 c 3.533,-0.883 5.885,-2.648 7.579,-2.869"
           id="path106" />
        <use
           xlink:href="#F"
           id="use106" />
      </g>
    </g>
    <use
       xlink:href="#G"
       class="E I"
       id="use107" />
  </g>
  <path
     d="m 525.13,314.17 a 15.473,15.473 0 0 1 -1.966,-0.826 c 0.323,-0.25 0.587,-0.265 0.863,-0.555 0.39,-0.408 0.373,-0.788 0.593,-1.319 0.215,-0.52 0.184,-0.954 0.671,-1.343 0.329,-0.22 0.74,-0.281 1.118,-0.165 0.389,0.106 0.703,0.39 0.848,0.766 0.137,0.561 -0.16,0.886 -0.246,1.454 -0.155,0.47 -0.221,0.965 -0.195,1.46 a 6.07,6.07 0 0 0 0.354,0.907 15.3,15.3 0 0 1 -2.04,-0.38 z m -0.99,0.95 a 0.62603914,0.62603914 0 1 1 1.252,-0.014 0.62606469,0.62606469 0 0 1 -1.252,0.018 z m -1.76,-16.51 -0.144,-0.104 c -0.383,-0.31 -0.42,-0.653 -0.601,-1.11 a 4.093,4.093 0 0 1 -0.315,-1.154 7.331,7.331 0 0 1 0,-1.048 c 0.02,-0.314 0.02,-0.63 0,-0.944 a 2.172,2.172 0 0 0 -0.21,-0.944 c -0.097,-0.18 -0.394,-0.337 -0.314,-0.42 0.094,-0.096 0.257,-0.02 0.42,0 a 1.64,1.64 0 0 1 0.943,0.42 c 0.338,0.262 0.576,0.632 0.672,1.049 l 0.407,1.468 c 0.058,0.257 0.154,0.505 0.284,0.734 a 4.27,4.27 0 0 0 0.524,0.629 l -0.011,0.023 a 9.012,9.012 0 0 1 -0.777,0.834 c -0.261,0.22 -0.544,0.412 -0.846,0.573 l -0.033,-0.01 z m 3.6,10.64 2.23,1.031 a 9.23,9.23 0 0 0 3.497,-3.919 13.839,13.839 0 0 0 1.364,-4.313 l -1.789,-0.581 -0.357,0.073 a 15.655,15.655 0 0 1 -1.618,4.192 11.63,11.63 0 0 1 -2.649,3.034 z m 4.94,18.12 c 0.282,-0.439 0.59,-0.861 0.922,-1.264 a 12.73,12.73 0 0 1 1.312,-1.15 c 0.163,-0.011 0.327,0.014 0.48,0.071 a 8.677,8.677 0 0 1 -0.526,2.751 3.48,3.48 0 0 1 -0.39,0.979 4.15,4.15 0 0 1 -0.476,0.518 c -0.51,-0.742 -1.33,-1.297 -1.322,-1.906 z m 33.01,1.85 a 7.51,7.51 0 0 1 2.936,1.482 c 0.055,0.155 0.076,0.319 0.063,0.483 a 9.05,9.05 0 0 1 -1.53,0.251 8.39,8.39 0 0 1 -1.259,0 3.46,3.46 0 0 1 -1.048,-0.105 4.3,4.3 0 0 1 -0.63,-0.314 c 0.573,-0.696 0.88,-1.637 1.468,-1.797 z m -9.76,-2.04 a 7.53,7.53 0 0 1 2.936,1.482 1.16,1.16 0 0 1 0.063,0.482 8.95,8.95 0 0 1 -1.53,0.252 8.4,8.4 0 0 1 -1.259,0 3.46,3.46 0 0 1 -1.048,-0.105 4.3,4.3 0 0 1 -0.63,-0.314 c 0.573,-0.696 0.88,-1.637 1.468,-1.797 z m -17.34,2.13 a 13.02,13.02 0 0 1 1.469,0.538 13.16,13.16 0 0 1 1.468,0.944 1.2,1.2 0 0 1 0.063,0.483 9.08,9.08 0 0 1 -1.531,0.251 8.38,8.38 0 0 1 -1.258,0 3.433,3.433 0 0 1 -1.049,-0.105 4.252,4.252 0 0 1 -0.63,-0.314 c 0.573,-0.696 0.88,-1.637 1.468,-1.797 z m -8.98,-29.8 c -0.613,-0.278 -1.05,-1.045 -0.66,-1.594 0.155,-0.22 0.412,-0.174 0.565,-0.395 0.144,-0.254 0.192,-0.552 0.136,-0.839 a 5.22,5.22 0 0 0 -0.21,-0.944 5.007,5.007 0 0 1 -0.135,-1.048 2.25,2.25 0 0 1 0.345,-1.573 c 0.211,-0.279 0.497,-0.491 0.825,-0.612 0.147,0.136 -0.057,0.502 -0.033,0.822 a 3.83,3.83 0 0 0 0.288,1.153 c 0.202,0.563 0.479,0.809 0.703,1.363 a 3.58,3.58 0 0 1 0.42,1.363 2.29,2.29 0 0 1 -0.21,1.154 2.007,2.007 0 0 1 -0.61,0.839 1.85,1.85 0 0 1 -0.796,0.419 1.15,1.15 0 0 1 -0.628,-0.108 z"
     fill="#005eb8"
     id="path108" />
  <use
     xlink:href="#B"
     y="36.591"
     class="G"
     id="use108"
     transform="translate(0,-50)" />
  <g
     stroke="#fedf00"
     id="g114"
     transform="translate(0,-50)">
    <use
       xlink:href="#C"
       y="36.591"
       class="B C D"
       id="use109" />
    <use
       xlink:href="#D"
       y="36.591"
       class="E I"
       id="use110" />
    <g
       class="C D"
       id="g113">
      <use
         xlink:href="#E"
         y="36.591"
         class="B"
         id="use111" />
      <path
         d="m 560.12,406.371 0.384,-0.249 a 8.149,8.149 0 0 0 2.686,-1.79"
         id="path111" />
      <g
         class="B"
         id="g112">
        <path
           d="m 552.38,404.611 h 0.007 c 3.533,-0.883 5.885,-2.648 7.579,-2.869"
           id="path112" />
        <use
           xlink:href="#F"
           y="36.591"
           id="use112" />
      </g>
    </g>
    <use
       xlink:href="#G"
       y="36.591"
       class="E I"
       id="use113" />
  </g>
  <path
     d="m 525.13,350.761 a 15.473,15.473 0 0 1 -1.966,-0.826 c 0.323,-0.25 0.587,-0.265 0.863,-0.555 0.39,-0.408 0.373,-0.788 0.593,-1.319 0.215,-0.52 0.184,-0.954 0.671,-1.343 0.329,-0.22 0.74,-0.281 1.118,-0.165 0.389,0.106 0.703,0.39 0.848,0.766 0.137,0.561 -0.16,0.886 -0.246,1.454 -0.155,0.47 -0.221,0.965 -0.195,1.46 a 6.07,6.07 0 0 0 0.354,0.907 15.3,15.3 0 0 1 -2.04,-0.38 z m -0.99,0.95 a 0.62603914,0.62603914 0 1 1 1.252,-0.014 0.62606469,0.62606469 0 0 1 -1.252,0.018 z m -1.76,-16.51 -0.144,-0.104 c -0.383,-0.31 -0.42,-0.653 -0.601,-1.11 a 4.093,4.093 0 0 1 -0.315,-1.154 7.331,7.331 0 0 1 0,-1.048 c 0.02,-0.314 0.02,-0.63 0,-0.944 a 2.172,2.172 0 0 0 -0.21,-0.944 c -0.097,-0.18 -0.394,-0.337 -0.314,-0.42 0.094,-0.096 0.257,-0.02 0.42,0 a 1.64,1.64 0 0 1 0.943,0.42 c 0.338,0.262 0.576,0.632 0.672,1.049 l 0.407,1.468 c 0.058,0.257 0.154,0.505 0.284,0.734 a 4.27,4.27 0 0 0 0.524,0.629 l -0.011,0.023 a 9.012,9.012 0 0 1 -0.777,0.834 c -0.261,0.22 -0.544,0.412 -0.846,0.573 l -0.033,-0.01 z m 3.6,10.64 2.23,1.031 a 9.23,9.23 0 0 0 3.497,-3.919 13.839,13.839 0 0 0 1.364,-4.313 l -1.789,-0.581 -0.357,0.073 a 15.655,15.655 0 0 1 -1.618,4.192 11.63,11.63 0 0 1 -2.649,3.034 z m 4.94,18.12 c 0.282,-0.439 0.59,-0.861 0.922,-1.264 a 12.73,12.73 0 0 1 1.312,-1.15 c 0.163,-0.011 0.327,0.014 0.48,0.071 a 8.677,8.677 0 0 1 -0.526,2.751 3.48,3.48 0 0 1 -0.39,0.979 4.15,4.15 0 0 1 -0.476,0.518 c -0.51,-0.742 -1.33,-1.297 -1.322,-1.906 z m 33.01,1.85 a 7.51,7.51 0 0 1 2.936,1.482 c 0.055,0.155 0.076,0.319 0.063,0.483 a 9.05,9.05 0 0 1 -1.53,0.251 8.39,8.39 0 0 1 -1.259,0 3.46,3.46 0 0 1 -1.048,-0.105 4.3,4.3 0 0 1 -0.63,-0.314 c 0.573,-0.696 0.88,-1.637 1.468,-1.797 z m -9.76,-2.04 a 7.53,7.53 0 0 1 2.936,1.482 1.16,1.16 0 0 1 0.063,0.482 8.95,8.95 0 0 1 -1.53,0.252 8.4,8.4 0 0 1 -1.259,0 3.46,3.46 0 0 1 -1.048,-0.105 4.3,4.3 0 0 1 -0.63,-0.314 c 0.573,-0.696 0.88,-1.637 1.468,-1.797 z m -17.34,2.13 a 13.02,13.02 0 0 1 1.469,0.538 13.16,13.16 0 0 1 1.468,0.944 1.2,1.2 0 0 1 0.063,0.483 9.08,9.08 0 0 1 -1.531,0.251 8.38,8.38 0 0 1 -1.258,0 3.433,3.433 0 0 1 -1.049,-0.105 4.252,4.252 0 0 1 -0.63,-0.314 c 0.573,-0.696 0.88,-1.637 1.468,-1.797 z m -8.98,-29.8 c -0.613,-0.278 -1.05,-1.045 -0.66,-1.594 0.155,-0.22 0.412,-0.174 0.565,-0.395 0.144,-0.254 0.192,-0.552 0.136,-0.839 a 5.22,5.22 0 0 0 -0.21,-0.944 5.007,5.007 0 0 1 -0.135,-1.048 2.25,2.25 0 0 1 0.345,-1.573 c 0.211,-0.279 0.497,-0.491 0.825,-0.612 0.147,0.136 -0.057,0.502 -0.033,0.822 a 3.83,3.83 0 0 0 0.288,1.153 c 0.202,0.563 0.479,0.809 0.703,1.363 a 3.58,3.58 0 0 1 0.42,1.363 2.29,2.29 0 0 1 -0.21,1.154 2.007,2.007 0 0 1 -0.61,0.839 1.85,1.85 0 0 1 -0.796,0.419 1.15,1.15 0 0 1 -0.628,-0.108 z"
     fill="#005eb8"
     id="path114" />
  <path
     d="m 412.66,199.25 h 82.179 v 82.023 H 412.66 Z m 90.94,0 h 82.179 v 82.023 H 503.6 Z m -90.63,153.16 a 20.76,20.76 0 0 0 2.163,6.609 c 1.477,2.332 0.932,2.269 4.276,6 a 23.918,23.918 0 0 0 6.227,4.495 26.955,26.955 0 0 0 6.842,2.496 50.943,50.943 0 0 0 16.574,1.598 98.46,98.46 0 0 0 10.249,-1.062 108.8,108.8 0 0 1 11.118,-1.01 c 2.133,-0.09 4.149,-0.11 6.142,0 2.457,0.162 4.899,0.499 7.308,1.01 a 79.67,79.67 0 0 1 10.962,3.188 l 0.014,-85.655 -82.193,-0.023 V 348.6 c 0,0 0.168,2.86 0.318,3.81 z m 172.51,-0.02 a 20.728,20.728 0 0 1 -2.163,6.608 c -1.477,2.333 -0.932,2.27 -4.275,6.001 a 23.963,23.963 0 0 1 -6.228,4.495 26.91,26.91 0 0 1 -6.841,2.495 50.95,50.95 0 0 1 -16.574,1.599 98.69,98.69 0 0 1 -10.25,-1.062 108.633,108.633 0 0 0 -11.117,-1.01 c -2.133,-0.09 -4.15,-0.11 -6.142,0 a 51.47,51.47 0 0 0 -7.309,1.01 82.42,82.42 0 0 0 -11.033,3.188 l 0.057,-85.655 82.193,-0.023 v 58.543 c 0,0 -0.168,2.86 -0.318,3.81 z"
     stroke-width="0.797"
     class="C H"
     id="path115" />
  <defs
     id="defs115">
    <path
       id="B"
       d="m 524.62,346.91 -0.594,0.281 a 8.45,8.45 0 0 1 -0.781,0.813 12.25,12.25 0 0 1 -1.25,0.843 c -0.22,0.113 -0.421,0.261 -0.594,0.438 -0.252,0.32 -0.079,0.63 -0.25,1 a 3.68,3.68 0 0 1 -0.656,0.938 c -0.332,0.356 -0.687,0.69 -1.063,1 a 4.973,4.973 0 0 1 -1.093,1 1.77,1.77 0 0 1 -0.344,0.187 c -0.216,0.067 -0.35,-0.011 -0.563,0.062 -0.388,0.134 -0.51,0.563 -0.78,0.719 0.111,0.218 0.106,0.372 0.218,0.594 0.158,0.323 0.705,1.215 0.812,1.437 0.21,0.305 0.27,0.7 0.532,0.781 a 3.1,3.1 0 0 0 1.312,0.125 10.76,10.76 0 0 1 2.031,0.469 c 0.613,0.254 0.863,0.575 1.47,0.844 0.406,0.201 0.836,0.348 1.28,0.437 0.326,0.087 0.664,0.119 1,0.094 0.25,-0.024 0.377,-0.12 0.625,-0.156 a 0.52,0.52 0 0 1 0.125,0 l -0.03,0.375 c -0.006,0 0.004,0.028 0,0.031 v 0.062 h 0.062 l 2.062,0.906 c -0.24,0.358 -0.33,0.796 -0.25,1.219 0.63,1.888 1.16,3.069 1.469,3.188 0.615,0.236 0.806,0.865 1.156,1.5 -0.123,0.132 -0.227,0.2 -0.344,0.312 a 8.998,8.998 0 0 0 -1.656,1.813 c -0.745,1.188 -1.248,1.203 -0.312,2.78 0.549,0.926 0.814,1.1 1.53,2.407 a 8.16,8.16 0 0 1 0.782,1.969 7.64,7.64 0 0 1 0.313,1.969 l 0.968,0.375 0.657,-0.657 0.625,-1.187 0.03,-0.906 a 0.775,0.775 0 0 1 -0.25,-0.782 c 0.07,-0.368 0.515,-0.29 0.72,-0.625 0.283,-0.461 -0.332,-0.734 -0.657,-1.093 -0.605,-0.67 -1.43,-0.833 -1.625,-1.844 -0.052,-0.273 0.078,-0.427 0.375,-0.719 l 1.97,-1.812 a 1.46,1.46 0 0 0 0.968,0.125 c 0.28,-0.053 0.53,0.125 1.406,0.375 a 2.21,2.21 0 0 0 1.219,0.03 l 0.375,-0.093 a 3.5,3.5 0 0 1 0.125,0.687 c 0.053,1.06 -0.155,2.995 0.156,3.5 a 3.29,3.29 0 0 1 0.281,0.563 1.69,1.69 0 0 1 0.22,0.656 v 1.875 a 15.2,15.2 0 0 1 -0.22,1.75 2.02,2.02 0 0 1 -0.437,1.062 c -0.283,0.364 -0.595,0.418 -0.969,0.688 l -0.093,1 1.125,0.469 1.28,0.312 0.688,-0.281 a 1.18,1.18 0 0 1 0.156,-0.625 c 0.128,-0.247 0.232,-0.439 0.47,-0.531 0.362,-0.143 0.759,0.129 0.905,-0.094 0.16,-0.242 0.06,-0.338 0.032,-0.75 -0.046,-0.662 -0.184,-0.99 -0.282,-1.657 a 11.8,11.8 0 0 1 -0.156,-2.75 9.4,9.4 0 0 1 0.156,-1.562 c 0.172,-0.883 0.486,-1.311 0.688,-2.188 a 21.53,21.53 0 0 0 0.375,-2.468 c 3.11,0.48 6.283,0.353 9.344,-0.375 0.169,-0.037 0.75,-0.25 0.75,-0.25 a 8.64,8.64 0 0 0 2.718,1.625 c -0.006,0.101 -0.015,0.845 0,0.968 0.037,0.288 -0.04,0.482 0.125,0.72 a 0.583,0.583 0 0 0 0.375,0.28 0.66,0.66 0 0 0 0.657,-0.156 c 0.226,-0.201 0.184,-0.454 0.25,-0.75 a 3.94,3.94 0 0 0 0,-0.687 c 0.289,0.049 0.582,0.069 0.875,0.062 0.292,0.012 0.585,0.002 0.875,-0.031 l 0.03,0.468 c 0.028,0.245 -0.075,0.435 0.032,0.657 0.082,0.215 0.273,0.37 0.5,0.406 a 0.66,0.66 0 0 0 0.531,-0.094 c 0.296,-0.185 0.264,-0.498 0.313,-0.844 0.015,-0.11 0.011,-0.692 0,-0.781 l 1.031,-0.375 a 5.12,5.12 0 0 1 -0.094,0.812 5.01,5.01 0 0 1 -0.25,0.938 7.2,7.2 0 0 1 -0.75,1.375 c -0.301,0.547 -0.646,1.07 -1.03,1.562 l -0.563,0.657 c -0.256,0.337 -0.342,0.566 -0.594,0.906 a 4.67,4.67 0 0 1 -0.938,1.062 c -0.693,0.55 -1.15,0.11 -2.093,0.844 l -0.22,1.031 1.438,0.532 1.282,0.25 0.437,-0.25 a 1.01,1.01 0 0 1 0.219,-0.75 c 0.191,-0.24 0.475,-0.388 0.781,-0.407 0.361,-0.059 0.747,0.034 1.031,-0.218 0.35,-0.311 0.349,-0.914 0.625,-1.47 a 12.671,12.671 0 0 1 3,-3.905 c 0.613,-0.597 1.138,-0.758 1.657,-1.438 0.246,-0.322 0.52,-0.469 0.53,-0.875 0.009,-0.283 -0.143,-0.415 -0.218,-0.687 a 9.62,9.62 0 0 1 -0.187,-1 c 1.521,0.744 0.97,0.646 1.25,1.406 0.225,0.615 -0.033,1.04 0.062,1.687 0.111,0.756 0.466,1.114 0.531,1.875 a 7.42,7.42 0 0 1 -0.312,2.313 7.14,7.14 0 0 1 -0.469,2 3.84,3.84 0 0 1 -1.156,1.562 c -0.211,0.175 -0.369,0.25 -0.594,0.407 l -0.125,1.03 1.125,0.376 1.625,0.437 0.375,-0.343 c 0.164,-0.655 -0.055,-1.617 0.406,-1.688 0.406,-0.062 0.693,0 0.782,-0.312 a 5.01,5.01 0 0 0 0.093,-0.625 l 0.625,-4.5 0.407,-1.907 c 0.06,-0.578 0.197,-1.145 0.406,-1.687 0.734,-2.097 -0.208,-2.375 -1.063,-3.656 a 2.992,2.992 0 0 1 -0.687,-1.5 c -0.097,-0.817 0.164,-1.495 0.125,-2.75 v -2.875 c 0.115,-0.053 0.222,-0.121 0.344,-0.188 a 4.08,4.08 0 0 0 2.375,-2.469 3.43,3.43 0 0 0 0.312,-1.468 c -0.005,-0.332 -0.065,-0.652 -0.094,-1.032 a 2.76,2.76 0 0 0 -0.312,-0.937 3.192,3.192 0 0 0 -0.563,-0.844 5.443,5.443 0 0 0 -2.718,-1.469 13.91,13.91 0 0 0 -4.125,-0.562 26.85,26.85 0 0 0 -4.282,-0.062 c -2.006,0.114 -3.128,0.519 -5.125,0.75 a 43.35,43.35 0 0 1 -4.906,0.406 c -2.26,0.042 -4.42,-0.46 -5.781,-0.344 -2.451,0.21 -2.493,0.762 -6.188,1.063 l -3.843,0.187 -2.157,-0.687 a 2.425,2.425 0 0 0 1.47,-1.031 c 0.271,-0.366 0.232,-0.679 0.562,-1.063 0.266,-0.312 0.443,-0.622 0.78,-0.969 a 2.2,2.2 0 0 0 -0.937,-0.437 2.502,2.502 0 0 0 -0.937,0 c -0.425,0.031 -0.84,0.148 -1.219,0.344 a 2.77,2.77 0 0 0 -0.844,0.593 19.624,19.624 0 0 0 -2.187,-1.218 9.178,9.178 0 0 0 -3,-0.907 z m 1.969,11.906 h 0.062 c -0.012,0.01 -0.019,0.022 -0.03,0.031 z" />
    <path
       id="C"
       d="m 568.77,359.52 -0.763,0.244 a 6.792,6.792 0 0 1 -2.6,0.496 c -2.644,0.202 -4.272,-1.057 -6.998,-0.847 -1.404,0.108 -2.025,1.19 -3.46,1.548 a 9.237,9.237 0 0 1 -1.701,0.282 l 0.512,-1.034 c -0.697,0.143 -1.404,0.231 -2.115,0.264 a 7.55,7.55 0 0 1 -1.523,-0.13 l 1.018,-0.95 a 7.219,7.219 0 0 1 -1.294,-0.336 3.923,3.923 0 0 1 -1.06,-0.63 l 1.69,-0.353 c 1.556,-0.385 2.04,-1.147 3.89,-1.325 1.15,-0.111 3.032,-0.046 7.643,0.717 3.036,0.502 4.382,0.267 5.536,-0.258 a 2,2 0 0 0 1.103,-1.788 2.14,2.14 0 0 0 -0.874,-1.81 1.74,1.74 0 0 0 -1.113,-0.363" />
    <path
       id="D"
       d="m 524.8,350.61 a 1.84,1.84 0 0 0 -1.34,0.291 c -0.48,0.296 -0.541,0.697 -0.888,1.142 0.445,0.1 0.699,0.361 1.142,0.254 0.306,-0.074 0.575,-0.253 0.761,-0.507 a 1.55,1.55 0 0 0 0.428,-1.156 z" />
    <path
       id="E"
       d="m 536.04,363.79 0.407,0.8 c 0.224,0.47 0.4,0.961 0.524,1.467 0.117,0.695 0.197,1.395 0.24,2.098 l 0.077,0.376 -0.05,1.129 m 6.802,-6.95 -0.354,1.333 -0.944,3.46 -0.103,0.644 M 531.78,364.17 c 0.79,0.176 0.544,3.36 1.789,4.09" />
    <path
       id="F"
       d="m 555.97,363.61 a 8.14,8.14 0 0 0 0.83,-0.068 c 1.467,-0.21 1.703,0.687 2.725,1.258 1.857,1.039 2.098,2.307 4.3,3.356 l 0.32,0.155 0.848,0.429" />
    <path
       id="G"
       d="m 517.7,354.53 c 0.23,0.064 0.47,0.083 0.707,0.054 0.332,-0.031 0.484,-0.238 0.817,-0.249 a 0.965,0.965 0 0 1 0.684,0.125 0.83,0.83 0 0 1 0.28,0.342 c 0.101,0.133 0.145,0.3 0.124,0.466 a 0.576,0.576 0 0 1 -0.614,0.42 0.55,0.55 0 0 1 -0.544,-0.272 0.47,0.47 0 0 1 -0.039,-0.389 1.167,1.167 0 0 1 -1.415,-0.497 z" />
  </defs>
</svg>
