<?xml version="1.0" encoding="UTF-8" standalone="no"?>
<svg
   width="900"
   height="540"
   version="1.1"
   id="svg5"
   xmlns="http://www.w3.org/2000/svg"
   xmlns:svg="http://www.w3.org/2000/svg">
  <defs
     id="defs5" />
  <path
     d="M 0,0 H 900 V 540 H 0 Z"
     id="path1"
     style="stroke-width:0.948684" />
  <path
     fill="#cc092f"
     d="M 0,0 H 900 V 270 H 0 Z"
     id="path2"
     style="stroke-width:0.948683" />
  <path
     d="m 390.858,175.797 h 36.644 l 11.112,-34.537 11.41,34.537 h 36.64 l -29.433,21.926 11.409,35.135 -30.026,-21.324 -29.731,21.324 11.41,-35.135 z"
     fill="#ffcb00"
     fill-rule="evenodd"
     id="path3" />
  <path
     d="m 524.801,364.706 -28.827,-22.53 c 29.127,-23.724 48.052,-60.064 48.052,-100.605 0,-61.866 -44.144,-113.824 -102.411,-126.137 l 4.504,-21.025 c 8.11,1.803 17.624,5.217 25.432,7.916 l 7.51,-12.608 c 8.1,3.9 17.118,7.803 24.621,12.608 l -5.703,13.518 c 7.51,4.808 16.575,12.251 21.616,18.112 l 11.277,-8.809 c 6.008,6.604 13.218,13.507 18.323,20.721 l -10.211,10.512 c 6.594,9.68 9.143,14.135 14.004,25.287 l 14.327,-3.36 c 2.706,8.408 6.814,18.702 8.32,27.408 l -13.566,5.332 c 1.62,6.766 3.718,18.584 3.583,28.525 -0.011,0.598 -0.056,1.276 -0.056,1.878 l 14.167,2.021 c -0.6,8.712 -0.897,18.625 -2.704,27.333 h -14.714 c -2.1,9.005 -4.81,20.02 -8.11,28.425 l 12.308,7.213 c -3.901,7.805 -7.8,17.117 -12.908,24.626 l -13.514,-5.703 c -5.11,7.505 -10.81,14.71 -17.118,21.321 l 8.706,11.41 c -2.398,2.1 -4.502,4.205 -6.908,6.61 m -63.362,-2.704 21.772,13.12 c -2.03,1.857 -8.112,5.006 -9.724,5.644 l 3.56,13.666 c -8.407,2.708 -17.42,6.608 -26.724,8.412 l -5.405,-13.513 c -8.71,1.8 -17.416,3 -26.427,3 l -1.807,14.114 c -8.406,-0.598 -18.617,0 -27.928,-2.102 v -14.11 c -8.411,-1.506 -16.519,-3.606 -24.324,-6.312 l -6.91,12.322 c -7.207,-3.01 -16.816,-6.615 -24.628,-11.416 l 5.108,-13.514 c -6.31,-3.307 -12.015,-7.509 -17.42,-11.72 l 13.515,-17.118 c 22.226,17.722 50.153,28.228 80.787,28.228 16.221,0 32.132,-2.697 46.555,-8.7"
     fill="#ffcb00"
     fill-rule="evenodd"
     id="path4" />
  <path
     d="m 552.192,396.811 -143.73,-109.381 -1.31,1.866 143.36,109.573 -8.509,10.647 -139.753,-89.64 C 364.411,296.15 365.913,277.532 373.722,257.41 l 6.608,-16.217 c 3.605,21.023 25.223,36.944 47.748,54.658 l 126.914,97.497 z m 36.084,32.6 a 2.23,2.23 0 0 1 -2.23,-2.238 2.23,2.23 0 0 1 2.23,-2.232 c 1.237,0 2.24,1 2.24,2.232 a 2.238,2.238 0 0 1 -2.24,2.239 m -8.59,-6.308 a 2.24,2.24 0 0 1 -2.237,-2.235 2.236,2.236 0 1 1 2.237,2.235 m -8.79,-7.006 c -1.232,0 -2.236,-1 -2.236,-2.231 a 2.236,2.236 0 0 1 4.47,0 c 0,1.231 -1,2.231 -2.234,2.231 m 29.554,12.4 -43.065,-33.365 -12.514,16.127 37.41,26.235 c 3.005,2.1 3.3,11.718 14.407,13.222 4.513,0.596 7.508,-2.71 7.508,-2.71 4.84,-5.892 3.521,-14.003 -3.746,-19.51"
     fill="#ffcb00"
     fill-rule="evenodd"
     id="path5" />
</svg>
