<?xml version="1.0" encoding="UTF-8" standalone="no"?>
<svg
   width="1000"
   height="600"
   xml:space="preserve"
   version="1.1"
   id="svg2"
   xmlns="http://www.w3.org/2000/svg"
   xmlns:svg="http://www.w3.org/2000/svg"><defs
     id="defs2" /><path
     fill="#009edb"
     d="M 0,0 H 1000 V 600 H 0 Z"
     id="path1"
     style="stroke-width:1.05409" /><path
     d="m 485.583,51.758 c -0.47,-0.08 -0.957,0.322 -1.474,1.318 -2.452,4.904 -3.45,8.81 -4.142,11.8 -0.655,2.901 -5.053,2.911 -6.892,3.524 -1.839,0.613 -2.169,6.417 -3.983,4.062 -5.75,-7.433 -9.504,-7.74 -14.408,-7.126 -2.913,1.456 4.522,5.287 2.453,9.807 -14.711,0 -17.163,4.904 -19.615,19.615 -4.597,-4.444 -8.888,6.283 -22.067,9.807 0.23,3.142 1.532,11.265 0,14.713 -0.172,0.86 2.806,2.67 1.852,6.28 -0.95,3.61 -8.054,4.652 -9.236,9.034 -1.184,4.382 3.018,3.291 2.153,6.47 -0.866,3.178 -4.728,3.345 -2.66,14.15 -0.46,1.991 -4.37,5.747 -4.37,5.747 0,0 -2.827,3.17 1.39,7.594 -6.943,5.393 -6.483,17.347 -6.292,21.829 -7.048,-1.84 -12.26,2.45 -12.26,2.45 l 2.45,9.81 c -19.614,7.354 -26.587,1.913 -29.497,5.36 -2.873,4.33 -10.228,6.188 -24.643,6.927 -2.554,0.286 -4.09,4.875 -12.059,4.875 -7.356,-2.452 -12.26,-12.26 -22.067,-19.615 l -22.067,-7.357 c -7.356,-4.904 -9.808,-9.806 -19.615,-14.71 l -17.162,-7.358 c -12.26,-7.354 -20.763,-32.716 -26.97,-26.97 0,17.164 4.903,41.682 14.71,53.942 7.356,4.904 9.809,7.356 17.165,9.808 4.903,7.356 4.901,7.356 12.257,12.26 -12.258,4.902 -12.258,2.45 -17.162,14.71 7.586,2.681 2.758,6.301 6.743,9.462 3.984,3.16 6.283,1.953 9.425,4.253 2.22,-0.767 0.994,-3.908 0.994,-3.908 0,0 2.836,-5.133 4.905,-2.45 4.215,10.265 9.808,7.355 9.808,7.355 0.613,2.452 -1.151,8.043 0.267,8.966 4.405,2.834 0.344,9.653 1.11,10.573 4.598,1.84 5.134,-7.586 6.552,-7.204 1.417,0.386 1.878,-0.075 4.33,-0.075 0,9.806 0,9.806 4.903,19.614 0,0 -5.515,0.076 -7.393,0.766 2.95,7.74 -12.298,15.86 -12.068,19.078 -0.536,1.609 2.453,25.516 4.751,29.193 1.457,2.3 -14.712,0 -14.712,0 0,19.615 4.905,24.518 24.52,26.97 0,0 -3.526,-6.742 -2.453,-7.355 5.286,-4.828 4.905,9.807 4.905,9.807 20.993,8.888 -2.452,6.36 7.355,19.615 l 9.807,-2.45 c 2.452,26.97 7.355,12.259 2.453,41.682 h 12.257 v 14.71 c 24.519,-7.356 17.164,4.903 31.875,9.807 l 17.162,4.902 19.615,9.81 v -4.905 c 0,0 30.19,1.762 33.178,2.758 6.59,0.307 2.835,-7.277 12.643,-7.277 0.65,0 11.186,7.106 14.05,-2.184 -0.723,9.554 18.437,5.094 22.573,5.016 4.522,0 30.496,17.317 45.207,12.414 7.204,-2.607 7.204,-12.105 12.107,-10.727 1.608,0 9.807,22.067 9.807,22.067 2.758,6.82 2.74,8.706 -0.562,16.435 -1.846,5.353 4.205,8.039 -6.325,15.161 -8.08,4.823 -4.008,6.722 -5.999,11.721 -2.604,3.465 -10.656,3.441 -9.41,8.555 1.531,4.903 17.24,2.836 19.843,14.33 3.18,1.648 2.876,-3.87 8.71,-4.035 2.915,-0.08 3.214,5.1 6.492,4.255 5.138,-1.347 4.262,-2.903 9.318,-0.22 3.754,-14.251 7.587,11.032 31.723,2.526 4.693,-0.804 10.166,4.951 11.547,4.71 1.38,-0.24 5.181,-9.312 7.13,-9.582 1.95,-0.27 2.667,2.826 4.929,2.55 2.265,-0.278 8.911,-9.135 11.234,-9.4 2.324,-0.262 2.067,6.99 3.031,6.895 a 381.5,381.5 0 0 1 1.51,-0.151 l 12.26,-2.453 c 0,0 -2.145,6.13 -2.299,7.818 0.671,0.247 5.67,-5.556 9.382,-7.891 3.715,-2.331 6.753,-8.398 8.865,-2.389 4.77,-6.308 7.738,-5.559 14.027,-7.634 5.73,-9.67 11.707,-8.905 14.16,-9.519 4.902,0 6.666,0.153 9.807,2.453 0.995,-2.528 -4.905,-4.905 -4.905,-4.905 0,0 5.056,-14.098 16.55,-16.319 0.612,-3.064 -9.501,-9.502 -6.743,-15.556 10.573,-0.307 24.136,-8.044 24.52,-9.807 -0.69,-4.443 -5.136,-5.593 -4.905,-9.807 2.758,0.306 12.26,0 12.26,0 -7.355,-12.26 -2.452,-14.711 0,-26.97 l 7.354,2.452 c 4.905,-7.356 4.906,-7.357 14.713,-9.81 2.528,-14.173 -4.14,-15.4 -4.905,-29.421 13.024,2.375 5.21,-19.997 24.52,-19.615 -2.453,-29.423 4.902,-22.067 7.354,-41.682 -9.042,0 -15.476,-9.884 -14.863,-10.65 9.807,-12.26 -4.6,-15.246 10.112,-25.054 -7.356,-17.163 -9.96,-15.785 -2.604,-32.948 -29.421,7.356 -12.259,-7.356 -49.036,-14.712 4.902,-7.356 14.71,-19.613 4.902,-26.97 2.452,-4.902 6.36,-7.432 6.36,-12.335 0,-3.678 -8.026,-18.217 -6.627,-26.856 -5.268,-8.41 -5.862,-12.299 -7.088,-17.203 -2.452,-14.71 0,-24.518 0,-26.97 -2.452,-4.903 -7.356,-9.807 -12.26,-12.259 -4.902,-2.452 -6.512,0.23 -11.416,2.682 -2.376,-0.23 0.56,-3.77 -3.464,-6.472 -4.869,0.822 -7.197,-1.43 -9.599,-5.826 -5.164,-2.327 -11.936,-3.351 -25.23,-7.894 -4.946,-0.864 -6.682,-1.414 -10.973,-2.027 -1.8,-0.114 -3.66,4.732 -5.68,6.618 -2.022,1.887 -4.205,0.813 -4.205,0.813 0,-6.36 -8.966,-16.166 -7.892,-24.671 -4.023,-1.264 -2.72,1.877 -7.326,2.653 -2.834,0.251 -7.233,-9.854 -10.833,-9.854 -2.145,-0.384 -30.34,14.863 -38.54,-7.74 -1.38,-1.763 -7.753,3.695 -11.647,-2.3 -2.758,-11.11 -7.662,-7.203 -12.872,-12.413 -7.049,0.767 -11.954,4.6 -19.31,2.684 -9.807,-2.681 -33.175,-4.982 -43.52,-5.365 -1.379,-5.862 -2.629,-10.428 -4.04,-10.665 z M 214.095,164.099 c -2.068,0.078 -4.597,-0.305 -3.754,2.99 1.227,-2.53 3.678,-2.836 3.754,-2.99 z m -1.417,7.644 c -1.017,0.025 -2.97,0.382 -2.337,2.854 1.227,-2.53 2.835,-2.682 2.91,-2.836 0,0 -0.234,-0.027 -0.573,-0.018 z m 15.546,36.262 c 0.077,0.153 1.148,0.534 2.374,3.064 0.844,-3.295 -2.374,-3.064 -2.374,-3.064 z m 560.834,144.504 c -0.716,1.611 -0.589,3.222 0.152,4.37 1.329,-1.993 0.206,-2.914 -0.152,-4.37 z"
     fill="#ffffff"
     stroke="#ffffff"
     stroke-width="2"
     stroke-linejoin="round"
     id="path2" /></svg>
