<?xml version="1.0" encoding="UTF-8" standalone="no"?>
<svg
   width="700"
   version="1.0"
   height="420"
   id="svg16"
   xmlns:xlink="http://www.w3.org/1999/xlink"
   xmlns="http://www.w3.org/2000/svg"
   xmlns:svg="http://www.w3.org/2000/svg">
  <defs
     id="defs16" />
  <path
     fill="#74acdf"
     d="M 0,0 H 700 V 420 H 0 Z"
     id="path1"
     style="stroke-width:0.857322" />
  <path
     fill="#ffffff"
     d="M 0,133 H 700 V 288 H 0 Z"
     id="path2"
     style="stroke-width:0.902071" />
  <g
     id="c"
     transform="translate(-50,-39.739414)">
    <path
       id="a"
       stroke-width="1.112"
       stroke="#85340a"
       fill="#f6b40e"
       d="m 396.84,251.31 28.454,61.992 c 0,0 0.49,1.185 1.28,0.859 0.79,-0.327 0.299,-1.512 0.299,-1.512 l -23.715,-63.956 m -0.68,24.12 c -0.347,9.428 5.452,14.613 4.694,23.032 -0.757,8.42 3.867,13.18 4.94,16.454 1.073,3.274 -1.16,5.232 -0.198,5.698 0.963,0.466 3.07,-2.12 2.383,-6.775 -0.687,-4.655 -4.22,-6.037 -3.39,-16.32 0.83,-10.283 -4.206,-12.678 -2.98,-22.058" />
    <use
       xlink:href="#a"
       transform="rotate(22.5,400,250)"
       id="use2" />
    <use
       xlink:href="#a"
       transform="rotate(45,400,250)"
       id="use3" />
    <use
       xlink:href="#a"
       transform="rotate(67.5,400,250)"
       id="use4" />
    <path
       id="b"
       fill="#85340a"
       d="m 404.31,274.41 c 0.453,9.054 5.587,13.063 4.579,21.314 2.213,-6.525 -3.124,-11.583 -2.82,-21.22 m -7.649,-23.757 19.487,42.577 -16.329,-43.887" />
    <use
       xlink:href="#b"
       transform="rotate(22.5,400,250)"
       id="use5" />
    <use
       xlink:href="#b"
       transform="rotate(45,400,250)"
       id="use6" />
    <use
       xlink:href="#b"
       transform="rotate(67.5,400,250)"
       id="use7" />
  </g>
  <use
     xlink:href="#c"
     transform="rotate(90,350,210.26058)"
     id="use8" />
  <use
     xlink:href="#c"
     transform="rotate(180,350,210.26058)"
     id="use9" />
  <use
     xlink:href="#c"
     transform="rotate(-90,350,210.26058)"
     id="use10" />
  <circle
     r="27.778"
     stroke="#85340a"
     cy="210.26059"
     cx="350"
     stroke-width="1.5"
     fill="#f6b40e"
     id="circle10" />
  <path
     id="h"
     fill="#843511"
     d="m 359.47,204.32059 c -1.897,0 -3.713,0.822 -4.781,2.531 2.136,1.923 6.856,2.132 10.062,-0.219 a 7.333,7.333 0 0 0 -5.281,-2.312 z m -0.031,0.438 c 1.846,-0.034 3.571,0.814 3.812,1.656 -2.136,2.35 -5.55,2.146 -7.687,0.437 0.935,-1.495 2.439,-2.067 3.875,-2.094 z" />
  <use
     xlink:href="#d"
     transform="matrix(-1,0,0,1,700.25,0)"
     id="use11" />
  <use
     xlink:href="#e"
     transform="matrix(-1,0,0,1,700.25,0)"
     id="use12" />
  <use
     xlink:href="#f"
     transform="translate(18.862)"
     id="use13" />
  <use
     xlink:href="#g"
     transform="matrix(-1,0,0,1,700.25,0)"
     id="use14" />
  <path
     d="m 345.75,214.10059 c -0.913,0.167 -1.563,0.977 -1.563,1.906 0,1.062 0.878,1.906 1.938,1.906 a 1.89,1.89 0 0 0 1.563,-0.812 c 0.739,0.556 1.764,0.615 2.312,0.625 0.084,0.002 0.193,0 0.25,0 0.548,-0.01 1.573,-0.069 2.313,-0.625 0.36,0.516 0.935,0.812 1.562,0.812 1.06,0 1.938,-0.844 1.938,-1.906 0,-0.929 -0.65,-1.74 -1.563,-1.906 0.513,0.18 0.844,0.676 0.844,1.219 a 1.28,1.28 0 0 1 -1.281,1.281 c -0.68,0 -1.242,-0.54 -1.282,-1.219 -0.208,0.417 -1.034,1.655 -2.656,1.719 -1.622,-0.064 -2.447,-1.302 -2.656,-1.719 -0.04,0.679 -0.6,1.219 -1.281,1.219 a 1.28,1.28 0 0 1 -1.281,-1.281 c 0,-0.542 0.33,-1.038 0.843,-1.219 z m 2.09,5.69 c -2.138,0 -2.983,1.937 -4.906,3.219 1.068,-0.427 1.91,-1.27 3.406,-2.125 1.496,-0.855 2.772,0.187 3.625,0.187 h 0.031 c 0.853,0 2.13,-1.041 3.625,-0.187 1.497,0.856 2.369,1.698 3.438,2.125 -1.924,-1.282 -2.8,-3.219 -4.938,-3.219 -0.426,0 -1.271,0.23 -2.125,0.656 h -0.031 c -0.853,-0.426 -1.698,-0.656 -2.125,-0.656 z"
     fill="#85340a"
     id="path14" />
  <path
     d="m 347.12,222.32059 c -0.844,0.037 -1.96,0.207 -3.563,0.688 3.848,-0.855 4.697,0.437 6.407,0.437 h 0.03 c 1.71,0 2.56,-1.292 6.407,-0.438 -4.274,-1.282 -5.124,-0.437 -6.406,-0.437 h -0.031 c -0.802,0 -1.437,-0.312 -2.844,-0.25 z"
     fill="#85340a"
     id="path15" />
  <path
     d="m 343.75,222.98059 c -0.248,0.003 -0.519,0.005 -0.813,0.031 4.488,0.428 2.331,3 7.032,3 h 0.03 c 4.702,0 2.575,-2.572 7.063,-3 -4.7,-0.426 -3.214,2.344 -7.062,2.344 h -0.031 c -3.608,0 -2.496,-2.421 -6.22,-2.375 z m 10.1,6.94 a 3.848,3.848 0 0 0 -3.846,-3.846 3.848,3.848 0 0 0 -3.847,3.846 3.955,3.955 0 0 1 3.847,-3.04 3.952,3.952 0 0 1 3.846,3.04 z"
     fill="#85340a"
     id="path16" />
  <path
     id="e"
     fill="#85340a"
     d="m 332.73,204.28059 c 4.915,-4.273 11.11,-4.915 14.53,-1.709 0.837,1.121 1.373,2.32 1.593,3.57 0.43,2.433 -0.33,5.062 -2.236,7.756 0.215,-0.001 0.643,0.212 0.856,0.427 1.697,-3.244 2.297,-6.577 1.74,-9.746 a 13.815,13.815 0 0 0 -0.67,-2.436 c -4.7,-3.845 -11.11,-4.272 -15.81,2.138 z" />
  <path
     id="d"
     fill="#85340a"
     d="m 340.42,203.00059 c 2.777,0 3.419,0.642 4.7,1.71 1.284,1.068 1.924,0.854 2.137,1.068 0.213,0.215 0,0.854 -0.426,0.64 -0.426,-0.214 -1.284,-0.64 -2.564,-1.708 -1.283,-1.07 -2.563,-1.069 -3.846,-1.069 -3.846,0 -5.983,3.205 -6.41,2.991 -0.426,-0.214 2.137,-3.632 6.41,-3.632 z" />
  <use
     xlink:href="#h"
     transform="translate(-19.181)"
     id="use16" />
  <circle
     id="f"
     cy="206.41058"
     cx="340.54001"
     r="1.923"
     fill="#85340a" />
  <path
     id="g"
     fill="#85340a"
     d="m 335.29,207.70059 c 3.633,2.778 7.265,2.564 9.402,1.282 2.136,-1.282 2.136,-1.709 1.71,-1.709 -0.427,0 -0.853,0.427 -2.564,1.281 -1.71,0.856 -4.273,0.856 -8.546,-0.854 z" />
</svg>
