<?xml version="1.0" encoding="UTF-8" standalone="no"?>
<svg
   width="1000"
   height="600"
   viewBox="0 0 7875 4725"
   version="1.1"
   id="svg12"
   xmlns:xlink="http://www.w3.org/1999/xlink"
   xmlns="http://www.w3.org/2000/svg"
   xmlns:svg="http://www.w3.org/2000/svg">
  <defs
     id="defs2">
    <clipPath
       id="a">
      <path
         d="M 0,0 H 6 V 3 H 0 Z"
         id="path1" />
    </clipPath>
    <clipPath
       id="b">
      <path
         d="M 0,0 V 1.5 H 6 V 3 Z M 6,0 H 3 V 3 H 0 Z"
         id="path2" />
    </clipPath>
    <path
       id="c"
       d="M 0,-360 69.421,-144.155 281.459,-224.456 155.99,-35.603 350.975,80.107 125.094,99.758 156.199,324.348 0,160 l -156.198,164.349 31.105,-224.59 -225.881,-19.651 194.986,-115.711 -125.471,-188.853 212.038,80.301 z" />
    <path
       id="d"
       d="M 0,-210 54.86,-75.508 199.722,-64.894 88.765,28.842 123.435,169.894 0,93.334 -123.435,169.894 -88.765,28.842 -199.722,-64.894 -54.86,-75.508 Z" />
    <clipPath
       id="a-4">
      <path
         d="M 0,0 V 30 H 60 V 0 Z"
         id="path1-0" />
    </clipPath>
    <clipPath
       id="b-1">
      <path
         d="m 30,15 h 30 v 15 z m 0,0 V 30 H 0 Z m 0,0 H 0 V 0 Z m 0,0 V 0 h 30 z"
         id="path2-0" />
    </clipPath>
  </defs>
  <path
     fill="#012169"
     d="M 0,0 H 7875 V 4725 H 0 Z"
     id="path3"
     style="stroke-width:0.855815" />
  <g
     fill="#ffffff"
     id="g12"
     transform="matrix(0.93750001,0,0,0.93750001,-960.75,0)">
    <use
       xlink:href="#c"
       transform="matrix(2.1,0,0,2.1,3240.2454,3780)"
       id="use7" />
    <use
       xlink:href="#c"
       x="7560"
       y="4200"
       id="use8" />
    <use
       xlink:href="#c"
       x="6300"
       y="2205"
       id="use9" />
    <use
       xlink:href="#c"
       x="7560"
       y="840"
       id="use10" />
    <use
       xlink:href="#c"
       x="8680"
       y="1869"
       id="use11" />
    <use
       xlink:href="#d"
       x="8064"
       y="2730"
       id="use12" />
  </g>
  <g
     clip-path="url(#a-4)"
     id="g7"
     transform="scale(69.5625,78.75)">
    <path
       d="M 0,0 V 30 H 60 V 0 Z"
       fill="#012169"
       id="path3-8" />
    <path
       d="M 0,0 60,30 M 60,0 0,30"
       stroke="#ffffff"
       stroke-width="6"
       id="path4" />
    <path
       d="M 0,0 60,30 M 60,0 0,30"
       clip-path="url(#b-1)"
       stroke="#c8102e"
       stroke-width="4"
       id="path5" />
    <path
       d="M 30,0 V 30 M 0,15 h 60"
       stroke="#ffffff"
       stroke-width="10"
       id="path6" />
    <path
       d="M 30,0 V 30 M 0,15 h 60"
       stroke="#c8102e"
       stroke-width="6"
       id="path7" />
  </g>
</svg>
