<?xml version="1.0" encoding="UTF-8" standalone="no"?>
<svg
   width="1500"
   height="900"
   viewBox="0 0 24000 14400"
   version="1.1"
   id="svg2"
   xmlns:xlink="http://www.w3.org/1999/xlink"
   xmlns="http://www.w3.org/2000/svg"
   xmlns:svg="http://www.w3.org/2000/svg">
  <defs
     id="defs2" />
  <path
     fill="#00267f"
     d="M 0,0 H 24000 V 14400 H 0 Z"
     id="path1"
     style="stroke-width:0.948684" />
  <path
     fill="#ffc726"
     d="m 8000,0 h 8000 V 14400 H 8000 Z"
     id="path2"
     style="stroke-width:0.948684" />
  <path
     id="a"
     fill="#000000"
     d="m 12000,3292 c -260,709 -525,1447 -1092,2012 176,-58 484,-110 682,-105 v 2982 l -842,125 c -30,-3 -40,-50 -40,-114 -81,-926 -300,-1704 -552,-2509 -18,-110 -337,-530 -91,-456 30,4 359,138 307,74 -448,-464 -1103,-798 -1739,-897 -56,-14 -89,14 -39,79 844,1299 1550,2832 1544,4651 328,0 1123,-194 1452,-194 v 2104 h 415 l 95,-5876 z" />
  <use
     xlink:href="#a"
     transform="matrix(-1,0,0,1,24000,0)"
     id="use2" />
</svg>
