<?xml version="1.0" encoding="UTF-8" standalone="no"?>
<svg
   width="500"
   height="300"
   viewBox="0 0 1041.6667 625"
   version="1.1"
   id="svg100"
   xmlns:xlink="http://www.w3.org/1999/xlink"
   xmlns="http://www.w3.org/2000/svg"
   xmlns:svg="http://www.w3.org/2000/svg">
  <defs
     id="defs100" />
  <path
     fill="#ffffff"
     d="M 0,625 H 1041.6667 V 0 H 0 Z"
     id="path1"
     style="display:inline;stroke-width:1.05409" />
  <g
     fill="none"
     id="g18"
     style="display:inline"
     transform="translate(52.083333)">
    <path
       fill="#ce0f25"
       d="m 659.049,394.35 c 10.735,25.244 6.121,45.149 0,64.53 15.479,-5.609 48.359,-21.014 44.419,-40.226 -6.894,-16.818 -28.349,-20.938 -44.419,-24.304"
       id="path2" />
    <path
       stroke="#221b0f"
       d="m 659.049,394.35 c 10.735,25.244 6.121,45.149 0,64.53 15.479,-5.609 48.359,-21.014 44.419,-40.226 -6.894,-16.818 -28.349,-20.938 -44.419,-24.304 z"
       id="path3" />
    <path
       fill="#faf8f0"
       d="m 604.198,503.635 c 9.756,-3.152 16.456,-6.744 32.61,-8.985 6.658,-0.923 24.596,0.161 34.996,-3.075 10.015,-3.12 15.813,-6.081 16.099,-11.106 0.509,-9.006 3.43,-19.321 6.961,-28.685 5.036,-13.362 11.151,-24.134 12.095,-27.744 0.891,-3.404 -0.64,-6.816 -2.896,-9.945 -8.792,-12.194 -28.496,-21.087 -46.054,-21.066 l 0.746,2.989 c 13.518,0.245 40.244,10.371 41.851,23.915 2.423,20.399 -66.544,23.491 -104.855,31.064 0,0 -9.878,2.456 -13.244,5.93 -2.384,2.456 -3.599,8.816 -1.119,11.172 17.52,16.648 22.81,35.536 22.81,35.536"
       id="path4" />
    <path
       stroke="#221b0f"
       d="m 604.198,503.635 c 9.756,-3.152 16.456,-6.744 32.61,-8.985 6.658,-0.923 24.596,0.161 34.996,-3.075 10.015,-3.12 15.813,-6.081 16.099,-11.106 0.509,-9.006 3.43,-19.321 6.961,-28.685 5.036,-13.362 11.151,-24.134 12.095,-27.744 0.891,-3.404 -0.64,-6.816 -2.896,-9.945 -8.792,-12.194 -28.496,-21.087 -46.054,-21.066 l 0.746,2.989 c 13.518,0.245 40.244,10.371 41.851,23.915 2.423,20.399 -66.544,23.491 -104.855,31.064 0,0 -9.878,2.456 -13.244,5.93 -2.384,2.456 -3.599,8.816 -1.119,11.172 17.52,16.648 22.81,35.536 22.81,35.536 z"
       id="path5" />
    <path
       fill="#f6e4be"
       d="m 700.591,432.568 c -25.791,16.68 -60.626,17.901 -91.055,20.664 l -19.374,19.696 17.76,26.156 c 0,0 19.784,-6.49 30.028,-8.074 7.24,-1.117 15.374,-0.115 22.601,-1.29 6.188,-1.007 11.685,-0.457 15.823,-5.167 4.81,-5.48 4.564,-15.445 7.103,-22.28 1.62,-4.356 4.209,-7.956 7.579,-13.121 5.401,-8.283 9.535,-16.584 9.535,-16.584"
       id="path6" />
    <path
       fill="#ce0f25"
       d="m 594.856,514.846 c 4.751,-22.985 -10,-32.042 -17.935,-45.961 0,0 8.549,3.504 13.076,4.109 8.494,1.134 13.394,0.96 25.681,-1.019 10.059,-1.621 18.512,-6.689 25.515,-3.465 0.973,0.448 1.72,1.554 1.867,2.617 0.454,3.278 -1.45,6.64 -3.362,9.341 -10.493,14.808 -44.842,34.378 -44.842,34.378"
       id="path7" />
    <path
       stroke="#221b0f"
       d="m 594.856,514.846 c 4.751,-22.985 -10,-32.042 -17.935,-45.961 0,0 8.549,3.504 13.076,4.109 8.494,1.134 13.394,0.96 25.681,-1.019 10.059,-1.621 18.512,-6.689 25.515,-3.465 0.973,0.448 1.72,1.554 1.867,2.617 0.454,3.278 -1.45,6.64 -3.362,9.341 -10.493,14.808 -44.842,34.378 -44.842,34.378 z"
       id="path8" />
    <path
       fill="#ce0f25"
       d="m 278.37,394.35 c -10.736,25.244 -6.121,45.149 0,64.53 -15.479,-5.609 -48.36,-21.014 -44.417,-40.226 6.894,-16.818 28.347,-20.938 44.417,-24.304"
       id="path9" />
    <path
       stroke="#221b0f"
       d="m 278.37,394.35 c -10.736,25.244 -6.121,45.149 0,64.53 -15.479,-5.609 -48.36,-21.014 -44.417,-40.226 6.894,-16.818 28.347,-20.938 44.417,-24.304 z"
       id="path10" />
    <path
       fill="#faf8f0"
       d="m 333.22,503.635 c -9.757,-3.152 -16.455,-6.744 -32.608,-8.985 -6.66,-0.923 -24.596,0.161 -34.996,-3.075 -10.016,-3.12 -15.816,-6.081 -16.1,-11.106 -0.51,-9.006 -3.431,-19.321 -6.961,-28.685 -5.039,-13.362 -11.154,-24.134 -12.096,-27.744 -0.89,-3.404 0.64,-6.816 2.898,-9.945 8.792,-12.194 28.499,-21.087 46.054,-21.066 l -0.747,2.989 c -13.516,0.245 -40.242,10.371 -41.851,23.915 -2.423,20.399 66.544,23.491 104.856,31.064 0,0 9.876,2.456 13.244,5.93 2.384,2.456 3.599,8.816 1.117,11.172 -17.517,16.648 -22.81,35.536 -22.81,35.536"
       id="path11" />
    <path
       stroke="#221b0f"
       d="m 333.22,503.635 c -9.757,-3.152 -16.455,-6.744 -32.608,-8.985 -6.66,-0.923 -24.596,0.161 -34.996,-3.075 -10.016,-3.12 -15.816,-6.081 -16.1,-11.106 -0.51,-9.006 -3.431,-19.321 -6.961,-28.685 -5.039,-13.362 -11.154,-24.134 -12.096,-27.744 -0.89,-3.404 0.64,-6.816 2.898,-9.945 8.792,-12.194 28.499,-21.087 46.054,-21.066 l -0.747,2.989 c -13.516,0.245 -40.242,10.371 -41.851,23.915 -2.423,20.399 66.544,23.491 104.856,31.064 0,0 9.876,2.456 13.244,5.93 2.384,2.456 3.599,8.816 1.117,11.172 -17.517,16.648 -22.81,35.536 -22.81,35.536 z"
       id="path12" />
    <path
       fill="#f6e4be"
       d="m 236.83,432.568 c 25.79,16.68 60.625,17.901 91.054,20.664 l 19.372,19.696 -17.759,26.156 c 0,0 -19.785,-6.49 -30.029,-8.074 -7.239,-1.117 -15.37,-0.115 -22.601,-1.29 -6.188,-1.007 -11.686,-0.457 -15.821,-5.167 -4.81,-5.48 -4.564,-15.445 -7.104,-22.28 -1.617,-4.356 -4.207,-7.956 -7.579,-13.121 -5.399,-8.283 -9.533,-16.584 -9.533,-16.584"
       id="path13" />
    <path
       fill="#ce0f25"
       d="m 342.561,514.846 c -4.749,-22.985 10,-32.042 17.938,-45.961 0,0 -8.55,3.504 -13.08,4.109 -8.49,1.134 -13.391,0.96 -25.679,-1.019 -10.057,-1.621 -18.513,-6.689 -25.514,-3.465 -0.974,0.448 -1.722,1.554 -1.869,2.617 -0.454,3.278 1.45,6.64 3.362,9.341 10.496,14.808 44.842,34.378 44.842,34.378"
       id="path14" />
    <path
       stroke="#221b0f"
       d="m 342.561,514.846 c -4.749,-22.985 10,-32.042 17.938,-45.961 0,0 -8.55,3.504 -13.08,4.109 -8.49,1.134 -13.391,0.96 -25.679,-1.019 -10.057,-1.621 -18.513,-6.689 -25.514,-3.465 -0.974,0.448 -1.722,1.554 -1.869,2.617 -0.454,3.278 1.45,6.64 3.362,9.341 10.496,14.808 44.842,34.378 44.842,34.378 z"
       id="path15" />
    <path
       fill="#faf8f0"
       d="m 305.291,543.188 c -4.464,-2.861 -9.549,-5.693 -12.377,-9.996 -1.949,-2.965 -2.796,-7.039 -1.904,-10.474 5.216,-20.094 4.106,-30.854 0.49,-46.069 -1.167,-4.917 -2.358,-12.341 3.794,-12.01 15.78,0.851 33.471,5.886 46.178,5.431 5.191,-0.189 12.95,-1.221 13.616,-6.881 0.791,-6.723 -16.472,-12.695 -16.472,-12.695 10.261,1.178 18.752,5.424 21.666,11.428 1.184,2.441 0.635,5.897 -0.894,8.141 -3.009,4.423 -8.734,5.621 -14.034,6.331 -10.558,1.425 -28.455,-1.47 -38.575,-3.412 -4.577,-0.878 -6.177,-1.598 -6.976,-0.971 -2.002,1.577 0.731,4.762 7.103,10.72 12.891,12.055 27.917,21.872 43.424,30.307 42.229,22.967 74.524,30.305 118.381,30.305 43.855,0 76.149,-7.337 118.38,-30.305 15.506,-8.435 30.531,-18.253 43.423,-30.307 6.372,-5.957 9.108,-9.143 7.1,-10.72 -0.794,-0.626 -2.395,0.094 -6.974,0.971 -10.12,1.943 -28.017,4.837 -38.576,3.413 -5.296,-0.71 -11.024,-1.909 -14.033,-6.331 -1.529,-2.244 -2.077,-5.7 -0.891,-8.141 2.914,-6.004 11.402,-10.25 21.664,-11.427 0,0 -17.262,5.973 -16.471,12.695 0.665,5.66 8.424,6.693 13.615,6.881 12.709,0.455 30.396,-4.58 46.179,-5.431 6.152,-0.331 4.962,7.092 3.792,12.01 -3.616,15.215 -4.728,25.975 0.491,46.069 0.89,3.435 0.042,7.509 -1.905,10.474 -2.827,4.304 -7.911,7.135 -12.378,9.996 -51.901,33.279 -110.235,50.366 -163.416,50.366 -53.183,-0.001 -111.518,-17.089 -163.42,-50.368"
       id="path16" />
    <path
       stroke="#221b0f"
       d="m 305.291,543.188 c -4.464,-2.861 -9.549,-5.693 -12.377,-9.996 -1.949,-2.965 -2.796,-7.039 -1.904,-10.474 5.216,-20.094 4.106,-30.854 0.49,-46.069 -1.167,-4.917 -2.358,-12.341 3.794,-12.01 15.78,0.851 33.471,5.886 46.178,5.431 5.191,-0.189 12.95,-1.221 13.616,-6.881 0.791,-6.723 -16.472,-12.695 -16.472,-12.695 10.261,1.178 18.752,5.424 21.666,11.428 1.184,2.441 0.635,5.897 -0.894,8.141 -3.009,4.423 -8.734,5.621 -14.034,6.331 -10.558,1.425 -28.455,-1.47 -38.575,-3.412 -4.577,-0.878 -6.177,-1.598 -6.976,-0.971 -2.002,1.577 0.731,4.762 7.103,10.72 12.891,12.055 27.917,21.872 43.424,30.307 42.229,22.967 74.524,30.305 118.381,30.305 43.855,0 76.149,-7.337 118.38,-30.305 15.506,-8.435 30.531,-18.253 43.423,-30.307 6.372,-5.957 9.108,-9.143 7.1,-10.72 -0.794,-0.626 -2.395,0.094 -6.974,0.971 -10.12,1.943 -28.017,4.837 -38.576,3.413 -5.296,-0.71 -11.024,-1.909 -14.033,-6.331 -1.529,-2.244 -2.077,-5.7 -0.891,-8.141 2.914,-6.004 11.402,-10.25 21.664,-11.427 0,0 -17.262,5.973 -16.471,12.695 0.665,5.66 8.424,6.693 13.615,6.881 12.709,0.455 30.396,-4.58 46.179,-5.431 6.152,-0.331 4.962,7.092 3.792,12.01 -3.616,15.215 -4.728,25.975 0.491,46.069 0.89,3.435 0.042,7.509 -1.905,10.474 -2.827,4.304 -7.911,7.135 -12.378,9.996 -51.901,33.279 -110.235,50.366 -163.416,50.366 -53.183,-0.001 -111.518,-17.089 -163.42,-50.368 z"
       id="path17" />
    <path
       fill="#f6e4be"
       d="m 637.419,535.408 c 0,0 3.499,-3.49 4.145,-6.447 1.611,-7.385 -2.131,-15.006 -2.303,-22.563 -0.185,-8.148 1.383,-24.404 1.383,-24.404 -20.186,19.274 -75.825,68.013 -171.934,68.013 -93.4,0 -151.749,-48.739 -171.935,-68.013 0,0 1.565,16.256 1.381,24.404 -0.17,7.556 -3.915,15.178 -2.301,22.563 0.645,2.958 4.143,6.448 4.143,6.448 52.923,33.996 109.461,54.795 168.712,54.795 59.249,-10e-4 115.788,-20.8 168.709,-54.796"
       id="path18" />
  </g>
  <path
     d="m 417.92833,550.515 c 1.832,-5.256 7.756,-10.813 17.201,-7.524 7.839,2.731 11.168,8.888 8.714,15.929 -2.452,7.039 -9.43,10.85 -17.426,8.066 -9.036,-3.147 -10.385,-11.03 -8.489,-16.471 m 21.111,8.006 c 2.399,-6.886 -0.174,-12.572 -5.338,-14.371 -3.62,-1.261 -8.43,-0.731 -11.098,6.925 -2.227,6.395 -0.374,12.729 5.671,14.831 2.205,0.77 7.669,1.502 10.765,-7.385 m 11.179,-0.254 c 1.155,-4.813 1.368,-5.697 1.545,-6.727 0.195,-1.091 0.056,-1.659 -0.961,-2.138 -0.245,-0.126 -0.787,-0.29 -1.241,-0.399 -0.356,-0.085 -0.536,-0.193 -0.484,-0.418 0.054,-0.22 0.296,-0.23 0.783,-0.11 1.719,0.41 3.737,0.996 4.71,1.229 0.779,0.188 2.844,0.583 4.011,0.859 0.487,0.117 0.699,0.236 0.646,0.456 -0.054,0.224 -0.264,0.24 -0.589,0.16 -0.355,-0.082 -0.557,-0.1 -0.961,-0.128 -0.915,-0.052 -1.304,0.423 -1.634,1.515 -0.307,0.997 -0.521,1.884 -1.675,6.696 l -1.064,4.431 c -1.101,4.59 -0.624,6.745 0.661,8.395 1.178,1.519 2.639,2.004 3.741,2.269 1.428,0.341 3.284,0.319 4.885,-0.639 2.201,-1.311 2.982,-4.137 3.764,-7.397 l 0.95,-3.958 c 1.154,-4.811 1.366,-5.697 1.545,-6.726 0.194,-1.092 0.056,-1.661 -0.961,-2.138 -0.245,-0.125 -0.789,-0.29 -1.144,-0.375 -0.357,-0.086 -0.537,-0.198 -0.484,-0.418 0.053,-0.223 0.295,-0.23 0.75,-0.12 1.653,0.396 3.673,0.981 3.705,0.989 0.389,0.095 2.455,0.489 3.72,0.79 0.454,0.109 0.665,0.226 0.612,0.448 -0.054,0.223 -0.264,0.24 -0.652,0.145 -0.356,-0.085 -0.559,-0.1 -0.964,-0.13 -0.912,-0.051 -1.301,0.424 -1.632,1.516 -0.307,0.999 -0.52,1.884 -1.675,6.695 l -0.813,3.388 c -0.842,3.516 -2.096,7.164 -5.366,8.79 -2.765,1.38 -5.184,1.167 -7.291,0.664 -1.719,-0.413 -4.809,-1.255 -6.673,-3.913 -1.305,-1.852 -1.975,-4.491 -0.874,-9.081 z m 28.994,13.257 c -0.165,-0.025 -0.24,0.031 -0.334,0.215 l -2.416,4.159 c -0.445,0.759 -0.72,1.509 -0.776,1.897 -0.084,0.579 0.153,1.04 1.176,1.188 l 0.495,0.07 c 0.396,0.056 0.485,0.135 0.459,0.329 -0.037,0.258 -0.245,0.294 -0.607,0.241 -1.056,-0.153 -2.463,-0.45 -3.485,-0.598 -0.363,-0.052 -2.191,-0.216 -3.908,-0.462 -0.429,-0.061 -0.618,-0.153 -0.581,-0.412 0.029,-0.194 0.169,-0.239 0.434,-0.201 a 9.5,9.5 0 0 0 1.031,0.083 c 1.548,0.025 2.331,-0.981 3.222,-2.497 l 11.15,-18.791 c 0.53,-0.879 0.779,-1.204 1.107,-1.156 0.298,0.042 0.454,0.361 0.679,1.15 0.537,1.886 3.967,15.532 5.378,20.734 0.838,3.081 1.73,3.668 2.399,3.929 0.481,0.167 0.972,0.27 1.369,0.326 0.264,0.038 0.424,0.095 0.391,0.321 -0.036,0.258 -0.343,0.28 -1.564,0.102 -1.189,-0.17 -3.598,-0.515 -6.229,-0.959 -0.589,-0.115 -0.985,-0.172 -0.952,-0.399 0.027,-0.193 0.169,-0.239 0.504,-0.224 0.24,-0.031 0.513,-0.288 0.403,-0.698 l -1.688,-7.019 c -0.043,-0.169 -0.132,-0.25 -0.298,-0.271 z m 6.962,-0.647 c 0.166,0.025 0.214,-0.066 0.192,-0.169 l -1.832,-8.354 c -0.014,-0.134 -0.022,-0.3 -0.123,-0.315 -0.097,-0.014 -0.187,0.138 -0.239,0.265 l -4.17,7.46 c -0.051,0.122 -0.033,0.225 0.1,0.244 z m 17.258,7.42 c -0.025,2.54 0.378,3.401 1.036,3.654 0.559,0.214 1.191,0.27 1.724,0.288 0.366,0.016 0.565,0.089 0.557,0.282 -0.01,0.259 -0.311,0.315 -0.777,0.299 -2.166,-0.079 -3.495,-0.225 -4.129,-0.246 -0.3,-0.011 -1.869,0.028 -3.601,-0.034 -0.434,-0.015 -0.732,-0.057 -0.721,-0.351 0.006,-0.195 0.21,-0.254 0.542,-0.241 0.433,0.016 1.034,0.005 1.505,-0.109 0.876,-0.23 1.043,-1.167 1.179,-3.996 l 0.991,-19.151 c 0.024,-0.65 0.14,-1.101 0.472,-1.089 0.366,0.014 0.653,0.446 1.196,1.05 0.385,0.441 5.261,5.826 9.955,10.719 2.186,2.295 6.515,7.141 7.063,7.683 l 0.167,0.005 0.193,-14.619 c 0.039,-1.985 -0.239,-2.614 -1.026,-2.969 -0.493,-0.211 -1.292,-0.242 -1.757,-0.259 -0.401,-0.013 -0.531,-0.115 -0.524,-0.311 0.01,-0.26 0.378,-0.28 0.878,-0.26 1.731,0.063 3.329,0.219 4.025,0.244 0.368,0.014 1.639,-0.039 3.27,0.017 0.435,0.015 0.768,0.06 0.757,0.321 -0.007,0.194 -0.211,0.286 -0.61,0.27 -0.334,-0.012 -0.601,-0.022 -1.005,0.063 -0.943,0.226 -1.232,0.901 -1.333,2.721 l -1.107,20.513 c -0.026,0.716 -0.167,1.005 -0.469,0.994 -0.366,-0.013 -0.754,-0.386 -1.107,-0.758 -2.029,-2.028 -6.139,-6.443 -9.482,-9.917 -3.506,-3.644 -7.06,-7.746 -7.638,-8.386 l -0.1,-0.003 z m 31.832,-3.734 c -0.169,0.014 -0.229,0.081 -0.281,0.283 l -1.472,4.578 c -0.273,0.836 -0.383,1.627 -0.353,2.019 0.041,0.584 0.371,0.984 1.404,0.907 l 0.499,-0.035 c 0.396,-0.028 0.503,0.027 0.516,0.224 0.019,0.259 -0.175,0.339 -0.541,0.365 -1.064,0.078 -2.502,0.084 -3.533,0.161 -0.365,0.024 -2.189,0.255 -3.916,0.381 -0.431,0.033 -0.636,-0.018 -0.656,-0.279 -0.013,-0.194 0.114,-0.269 0.381,-0.29 0.3,-0.02 0.762,-0.085 1.025,-0.138 1.516,-0.307 2.066,-1.456 2.614,-3.128 l 6.88,-20.739 c 0.331,-0.971 0.505,-1.342 0.837,-1.367 0.3,-0.022 0.52,0.256 0.908,0.98 0.926,1.727 7.195,14.326 9.681,19.106 1.479,2.83 2.475,3.215 3.185,3.328 a 7.58,7.58 0 0 0 1.406,0.028 c 0.268,-0.02 0.435,0 0.452,0.227 0.018,0.261 -0.276,0.346 -1.509,0.438 -1.195,0.086 -3.623,0.264 -6.288,0.39 -0.6,0.014 -1.002,0.041 -1.016,-0.185 -0.015,-0.195 0.114,-0.269 0.444,-0.328 0.228,-0.081 0.44,-0.39 0.244,-0.768 l -3.147,-6.495 c -0.079,-0.159 -0.184,-0.214 -0.349,-0.204 z m 6.665,-2.116 c 0.166,-0.014 0.191,-0.113 0.152,-0.208 l -3.575,-7.769 c -0.043,-0.128 -0.09,-0.289 -0.189,-0.281 -0.099,0.008 -0.155,0.174 -0.176,0.306 l -2.481,8.178 c -0.024,0.134 0.018,0.229 0.15,0.219 z m 19.683,-1.839 c 0.65,4.115 0.999,6.334 1.781,6.804 0.635,0.396 1.527,0.486 4.095,0.081 1.746,-0.274 3.027,-0.509 3.714,-1.506 0.329,-0.481 0.583,-1.445 0.551,-2.066 -0.011,-0.291 0.024,-0.497 0.289,-0.537 0.229,-0.039 0.286,0.119 0.347,0.503 0.056,0.355 0.206,2.804 0.088,3.78 -0.085,0.737 -0.225,0.925 -1.939,1.194 -2.37,0.371 -4.094,0.576 -5.58,0.781 a 81.923,81.923 0 0 0 -4.034,0.534 c -0.363,0.056 -1.088,0.173 -1.872,0.328 -0.757,0.119 -1.604,0.319 -2.263,0.422 -0.429,0.068 -0.675,0.006 -0.711,-0.217 -0.024,-0.162 0.091,-0.279 0.488,-0.341 a 5.664,5.664 0 0 0 1.166,-0.315 c 0.639,-0.232 0.691,-0.968 0.676,-1.919 -0.049,-1.378 -0.448,-3.917 -0.912,-6.876 l -0.891,-5.661 c -0.768,-4.889 -0.909,-5.79 -1.137,-6.807 -0.236,-1.083 -0.581,-1.556 -1.704,-1.609 -0.275,-0.025 -0.674,0.005 -1.103,0.074 -0.363,0.054 -0.569,0.023 -0.605,-0.201 -0.035,-0.225 0.185,-0.325 0.679,-0.405 1.549,-0.244 3.638,-0.474 4.528,-0.612 0.791,-0.126 3.179,-0.601 4.466,-0.802 0.46,-0.073 0.701,-0.045 0.735,0.181 0.037,0.225 -0.151,0.321 -0.545,0.384 a 8.714,8.714 0 0 0 -1.271,0.299 c -0.864,0.299 -1.041,0.888 -0.93,2.024 0.096,1.04 0.237,1.941 1.006,6.83 z m 18.356,-2.288 c -0.16,0.04 -0.209,0.119 -0.23,0.324 l -0.699,4.759 c -0.132,0.87 -0.11,1.667 -0.018,2.046 0.137,0.57 0.529,0.91 1.534,0.667 l 0.486,-0.117 c 0.389,-0.096 0.502,-0.054 0.547,0.134 0.061,0.254 -0.119,0.364 -0.474,0.451 -1.037,0.251 -2.452,0.493 -3.459,0.738 -0.356,0.086 -2.116,0.611 -3.802,1.02 -0.42,0.103 -0.631,0.086 -0.691,-0.167 -0.045,-0.189 0.069,-0.284 0.327,-0.347 a 9.52,9.52 0 0 0 0.99,-0.306 c 1.445,-0.55 1.8,-1.775 2.064,-3.515 l 3.381,-21.584 c 0.166,-1.01 0.276,-1.409 0.6,-1.486 0.291,-0.069 0.555,0.166 1.055,0.816 1.2,1.552 9.452,12.95 12.69,17.258 1.923,2.55 2.969,2.766 3.69,2.759 0.506,-0.024 1,-0.109 1.39,-0.204 0.26,-0.061 0.43,-0.071 0.484,0.151 0.059,0.254 -0.215,0.388 -1.415,0.677 -1.166,0.282 -3.531,0.855 -6.14,1.421 -0.591,0.109 -0.98,0.203 -1.034,-0.019 -0.048,-0.189 0.069,-0.285 0.384,-0.395 0.212,-0.119 0.37,-0.459 0.116,-0.799 l -4.173,-5.889 c -0.103,-0.141 -0.216,-0.182 -0.376,-0.143 z m 6.229,-3.183 c 0.162,-0.039 0.171,-0.141 0.116,-0.228 l -4.804,-7.075 c -0.06,-0.119 -0.134,-0.27 -0.23,-0.246 -0.096,0.025 -0.125,0.198 -0.128,0.33 l -1.1,8.472 c -0.004,0.134 0.054,0.222 0.183,0.19 z m 10.89,-5.111 c -1.8,-5.266 -0.558,-13.291 8.909,-16.526 7.857,-2.681 14.272,0.115 16.683,7.17 2.409,7.055 -0.735,14.355 -8.75,17.09 -9.056,3.096 -14.98,-2.279 -16.842,-7.734 m 21.562,-6.706 c -2.358,-6.901 -7.889,-9.794 -13.064,-8.025 -3.629,1.237 -7.089,4.621 -4.47,12.291 2.188,6.409 7.553,10.253 13.611,8.184 2.209,-0.754 6.966,-3.546 3.923,-12.45"
     id="path19" />
  <path
     fill="#666666"
     d="m 653.07333,134.593 h -264.476 v 18.726 h 264.476 z"
     id="path20" />
  <path
     fill="none"
     stroke="#552200"
     d="m 653.07333,134.593 h -264.476 v 18.726 h 264.476 z"
     id="path21" />
  <g
     fill="#5e520e"
     stroke="#552200"
     id="g24"
     transform="translate(52.083333)">
    <path
       fill="#eace24"
       stroke="#806600"
       stroke-width="2"
       d="m 336.514,153.318 -29.936,-70.443 -5.031,1.529 -10.99,-25.175 20.187,-5.964 4.571,11.818 9.746,-2.889 -4.171,-11.585 20.56,-4.742 3.655,12.07 10.121,-1.949 -3.503,-12.188 20.62,-3.595 2.823,12.279 13.641,-1.932 1.185,6.206 5.063,-0.641 -1.04,-6.175 10.45,-1.36 1.066,6.281 5.11,-0.515 -0.769,-6.331 10.382,-0.948 0.872,6.326 10.099,-0.775 -1.841,-18.731 20.92,-1.069 0.684,12.324 9.976,-0.152 -0.18,-12.441 21.006,10e-4 -0.323,12.592 10.155,0.208 0.739,-12.533 20.871,0.917 -1.906,18.997 10.095,0.699 0.876,-6.261 10.35,0.95 -0.821,6.271 5.219,0.511 0.944,-6.116 10.415,1.115 -1,6.25 5.158,0.716 1.247,-6.245 13.487,1.995 2.859,-12.379 20.592,3.594 -3.194,12.415 9.72,1.908 3.766,-12.221 20.524,4.649 -4.271,12.059 9.779,2.671 4.725,-12.066 20.263,5.779 -10.989,25.176 -8.674,-2.857 -30.483,71.973 C 517.724,129.097 417.809,128.996 336.514,153.318"
       id="path22" />
    <path
       d="M 462.536,95.047 V 72.721 c 0,-8.93 16.066,-8.93 16.066,0 v 22.326 m -133.352,15.17 -6.93,-21.565 c -2.771,-8.625 12.746,-12.092 15.519,-3.466 l 6.929,21.565 m 218.296,-0.822 6.929,-21.564 c 2.775,-8.626 18.29,-5.16 15.519,3.465 l -6.931,21.565"
       id="path23" />
    <path
       fill="none"
       stroke="#806600"
       d="m 514.974,119.629 -0.915,7.759 m -180.992,17.585 c 88.135,-25.836 184.129,-26.221 272.559,-1.09 M 329.87,137.896 c 90.111,-26.456 188.276,-26.865 278.703,-1.165 m -281.552,-6.015 c 92.091,-27.003 192.401,-27.375 284.776,-1.056 M 324.11,124.146 c 93.783,-27.525 195.94,-27.951 290.05,-1.212 m -64.204,0.807 -1.609,7.573 m 47.759,2.274 -2.605,7.077 m -16.872,-11.816 -2.204,7.189 m -25.601,-20.042 -1.526,7.467 m 17.573,-4.766 -1.971,7.166 m 20.266,-3.454 -2.198,7.155 m 22.742,-2.061 -2.72,7.089 m -22.142,-20.316 -1.96,6.535 m 25.408,-1.22 -2.536,6.84 m -6.342,-8.928 -2.266,6.595 m -33.02,-13.54 -1.626,6.79 m -10.438,-9.068 -1.464,7.136 m -40.835,3.524 -0.689,7.505 m 27.589,-5.137 -1.236,7.325 m -31.647,-17.767 -0.525,7.583 m 14.328,-6.814 -0.804,7.483 m 24.235,-4.805 -1.284,7.229 m -3.831,-15.16 -1.091,6.825 m -12.795,-8.075 -0.854,7.013 m -20.546,-8.799 -0.442,7 m -129.146,18.778 2.147,6.95 m 121.167,-18.048 -0.356,7.741 m -136.884,6.596 2.505,7.096 m 79.461,-20.279 0.79,7.59 m 18.186,-8.426 0.397,7.355 m -41.808,-4.455 1.295,7.516 m 52.895,-10.734 0.135,7.47 m -81.654,-0.092 1.8,7.411 m -27.173,-10.098 2.351,7.265 m 15.617,-10.97 1.938,7.189 m 9.263,-9.159 1.699,7.427 m 14.613,-9.89 1.386,7.331 m 21.084,-9.548 0.944,7.518 m 16.71,-8.856 0.589,7.699 m 15.14,-8.234 0.246,7.474 m 21.902,-7.933 -0.21,7.471 m -140.382,9.467 2.734,7.245 m 133.758,-31.169 -0.118,7.185 m -15.818,-6.994 0.184,6.9 m -14.752,-6.331 0.457,6.908 m -27.547,-4.82 0.981,7 m -22.152,-4.612 1.342,6.74 m -16.139,-4.562 1.655,6.865 m -19.03,-3.658 1.927,6.596 m -27.806,-1.049 2.599,7.026 M 556.506,101.82 564.542,64.514 M 321.068,116.431 C 416.992,88.317 521.472,87.94 617.683,115.356 M 506.806,67.845 c 18.643,1.164 37.333,3.221 55.693,6.163 m -48.753,-21.106 -0.69,5.793 a 602.147,602.147 0 0 0 -82.977,-0.013 l -0.737,-5.916 m -50.095,21.258 c 18.179,-2.916 37.099,-4.966 55.557,-6.138 m -57.913,-3.206 8.567,37.223 m 52.087,-5.791 -3.638,-37.683 m 73.407,-0.076 -2.018,37.784 M 377.7,52.127 l 2.61,12.115 c -26.975,4.16 -52.976,12.363 -78.764,20.163 m 260.99,-32.49 c 0,0 -2.528,11.995 -2.527,11.996 27.659,4.176 54.641,12.294 81.062,20.292"
       id="path24" />
  </g>
  <path
     fill="#1353b4"
     stroke="#554400"
     stroke-width="2"
     d="m 388.59733,153.317 c -0.704,45.093 -0.662,90.191 0,135.284 0.636,43.444 2.766,77.346 21.895,103.856 23.042,31.931 61.427,54.975 110.806,77.616 49.376,-22.641 87.764,-45.685 110.806,-77.616 19.126,-26.51 21.258,-60.413 21.894,-103.856 0.664,-45.092 0.704,-90.191 0,-135.284 z"
     id="path25" />
  <path
     fill="#ce0f25"
     d="m 650.29933,344.999 c 0.088,-11.274 2.433,-16.629 2.434,-27.901 1.169,-22.626 1.618,-45.096 1.265,-67.644 h -265.401 c -0.354,22.548 0.094,44.817 1.262,67.644 0.004,11.272 2.416,16.628 2.501,27.901 z"
     id="path26" />
  <path
     fill="none"
     stroke="#554400"
     stroke-width="2"
     d="m 388.21833,248.863 h 266.159 m -262.188,96.136 h 258.111"
     id="path27" />
  <path
     fill="#ffffff"
     stroke="#000000"
     stroke-width="0.805"
     d="m 488.22333,311.056 32.228,-13.13 -13.13,32.229 14.324,-9.548 14.325,9.548 -13.131,-32.229 32.229,13.13 -9.55,-14.323 9.55,-14.324 -32.229,13.13 13.131,-32.228 -14.325,9.549 -14.324,-9.549 13.13,32.228 -32.228,-13.13 9.549,14.324 z"
     id="path28" />
  <g
     id="a"
     fill="#ffffff"
     stroke="#000000"
     transform="translate(52.083333)">
    <path
       fill="#eace24"
       stroke="none"
       d="m 256.42,398.03 c -0.345,39.061 -0.69,40.443 -0.69,40.443 17.109,16.765 19.139,22.906 24.195,28.346 6.567,-9.507 16.764,-5.705 16.764,-5.705 2.075,-8.986 12.964,-16.764 12.964,-16.764 -15.209,-1.209 -41.48,-8.989 -43.554,-12.099 -6.888,-10.332 2.592,-41.651 2.592,-41.651 z"
       id="path29" />
    <path
       fill="none"
       stroke="#806600"
       d="m 256.42,398.03 c -0.345,39.061 -0.69,40.443 -0.69,40.443 17.109,16.765 19.139,22.906 24.195,28.346 6.567,-9.507 16.764,-5.705 16.764,-5.705 2.075,-8.986 12.964,-16.764 12.964,-16.764 -15.209,-1.209 -41.48,-8.989 -43.554,-12.099 -6.888,-10.332 2.592,-41.651 2.592,-41.651 z"
       id="path30" />
    <path
       fill="#eace24"
       stroke="none"
       d="m 293.936,459.211 -16.865,-12.953 20.042,11.975"
       id="path31" />
    <path
       fill="none"
       stroke="#806600"
       d="m 293.936,459.211 -16.865,-12.953 20.042,11.975"
       id="path32" />
    <path
       fill="#eace24"
       d="m 268.904,379.505 c 0,0 21.131,-8.626 42.788,6.57 2.069,0.604 3.581,0.427 5.227,0.141 4.186,-4.489 13.681,-17.685 21.014,-15.974 0.54,-11.15 -0.734,-55.728 -0.734,-55.728 -3.176,-0.124 -4.277,6.11 -4.277,6.11 1.834,12.709 -5.5,89.948 -35.563,38.862 l -21.265,2.2 z"
       id="path33" />
    <path
       fill="none"
       stroke="#806600"
       d="m 268.904,379.505 c 0,0 21.131,-8.626 42.788,6.57 2.069,0.604 3.581,0.427 5.227,0.141 4.186,-4.489 13.681,-17.685 21.014,-15.974 0.54,-11.15 -0.734,-55.728 -0.734,-55.728 -3.176,-0.124 -4.277,6.11 -4.277,6.11 1.834,12.709 -5.5,89.948 -35.563,38.862 l -21.265,2.2 z"
       id="path34" />
    <path
       fill="#eace24"
       stroke="none"
       d="m 257.333,200.842 c 18.148,6.567 18.375,10.037 36.347,25.937 14.345,5.705 35.71,19.692 36.92,22.804 l -1.164,4.543 c 2.766,1.727 5.378,-4.644 5.378,-4.644 -2.765,-15.729 -53.276,-63.103 -53.276,-63.103 l -22.249,4.685 z"
       id="path35" />
    <path
       fill="none"
       stroke="#806600"
       d="m 257.333,200.842 c 18.148,6.567 18.375,10.037 36.347,25.937 14.345,5.705 35.71,19.692 36.92,22.804 l -1.164,4.543 c 2.766,1.727 5.378,-4.644 5.378,-4.644 -2.765,-15.729 -53.276,-63.103 -53.276,-63.103 l -22.249,4.685 z"
       id="path36" />
    <path
       fill="none"
       d="m 274.395,193.804 56.861,52.195 1.211,3.802 m -45.629,-36.64 c 5.704,10.025 16.248,13.654 16.248,13.654"
       id="path37" />
    <path
       d="m 263.87,180.412 c -0.244,-18.82 21.999,-31.285 21.999,-32.996 -2.201,-13.415 -33.976,18.575 -35.688,22.731 -1.964,6.064 2.445,13.443 2.445,13.443"
       id="path38" />
    <path
       d="m 269.981,155.725 c -6.6,5.377 -11.976,22.976 -11.976,22.976 m -4.401,1.467 c -2.688,-18.088 11,-33.73 10.022,-34.219 -8.411,-4.205 -19.311,18.086 -22.487,25.42 l 4.155,24.93"
       id="path39" />
    <path
       d="m 249.205,165.258 c -3.423,8.799 0.244,20.775 0.244,20.775 m -2.933,3.667 c -4.4,-4.399 -0.245,-35.929 -1.467,-35.929 -9.288,0 -14.175,30.307 -12.22,36.663 6.342,20.614 11.487,24.197 11.487,24.197"
       id="path40" />
    <path
       d="m 238.206,178.946 c -0.734,9.289 6.599,20.776 6.599,20.776 m -0.489,13.198 c -11.731,-10.999 -13.766,-40.511 -15.397,-43.506 -12.553,2.445 -6.11,33.73 -6.11,33.73 0.244,2.444 16.62,21.998 16.62,21.998"
       id="path41" />
    <path
       d="m 227.451,188.967 c -4.155,8.31 14.665,32.998 14.665,32.998"
       id="path42" />
    <path
       d="m 258.982,282.823 c 0,0 -3.178,-42.528 2.199,-48.882 l -15.886,-23.465 -20.531,40.817 18.575,33.975 z"
       id="path43" />
    <path
       fill="none"
       d="m 258.982,282.823 c 0,0 -3.178,-42.528 2.199,-48.882 l -15.886,-23.465 -20.531,40.817 18.575,33.975 z"
       id="path44" />
    <path
       d="m 244.026,375.503 c 6.966,8.92 10.37,29.036 10.37,29.036 l 2.074,-6.569 c 0.978,0.611 1.571,5.705 2.938,5.705 0.611,0 0.504,-5.251 1.901,-5.533 0.611,-0.12 0.206,7.26 1.556,7.26 1.1,0 1.188,-5.256 1.555,-5.013 0.864,0.575 1.035,6.978 1.729,3.63 -0.977,-34.341 66.34,-62.443 64.985,-100.936 1.711,-39.839 -41.135,-54.959 -67.405,-88.488 0,0 -7.381,-21.987 6.221,-12.271 11,-1.711 10.025,-12.616 10.025,-12.616 h 6.049 c 2.69,-23.464 -20.912,-17.974 -20.912,-17.974 -21.875,0 -23.85,22.64 -23.85,22.64 -5.622,29.454 32.542,64.53 32.542,64.53 5.621,12.221 -0.05,33.295 -0.05,33.295 l -53.114,50.04"
       id="path45" />
    <path
       d="m 221.253,341.843 c -2.934,3.545 -18.003,21.403 -21.669,27.635 -5.191,5.723 4.9,4.113 4.9,4.113 0,0 -14.922,15.775 -22.17,20.389 2.225,6.675 16.536,-2.994 16.536,-2.994 0,0 -13.933,8.555 -13.198,10.266 4.251,3.244 16.619,-5.865 16.619,-5.865 0,0 -2.954,4.154 -0.489,5.621 4.156,0 13.687,-7.576 13.687,-7.576 0,0 -1.955,4.399 0.245,5.131 3.974,-2.505 28.843,-23.221 28.843,-23.221"
       id="path46" />
    <path
       fill="none"
       d="m 230.855,331.268 c 0,0 -7.432,9.851 -2.42,8.296"
       id="path47" />
    <path
       d="m 229.809,305.698 c -6.049,11.753 -13.77,31.131 -5.359,39.75 2.766,0.865 10.145,-27.608 15.901,-30.245 0.864,-2.936 4.666,-15.899 4.666,-15.899"
       id="path48" />
    <path
       d="m 239.184,304.332 c 3.173,0 -6.347,6.356 -9.778,15.154 m 12.328,-12.922 c -4.666,21.949 -0.345,26.615 1.556,26.789 2.765,-1.385 7.605,-21.434 13.135,-22.643 M 218.056,204.938 c -19.356,-18.148 -21.95,-38.886 -24.024,-39.061 -9.135,-0.76 3.111,36.815 3.111,36.815 l 23.159,18.492"
       id="path49" />
    <path
       d="m 214.986,209.499 c 0,0 -9.286,-7.089 -14.176,-16.621 m 17.246,25.196 c -28.69,-15.901 -32.147,-41.825 -34.566,-40.962 -8.834,3.489 2.419,27.309 2.419,27.309 1.556,6.567 24.37,27.134 24.37,27.134"
       id="path50" />
    <path
       d="m 212.542,225.63 c 0,0 -12.22,-9.044 -21.997,-23.954 m 18.697,27.977 c -34.393,-19.01 -35.085,-40.789 -38.887,-39.405 -8.168,22.139 21.776,43.034 42.862,58.762"
       id="path51" />
    <path
       d="m 211.076,239.073 c 0,0 -15.644,-5.621 -25.421,-20.531 m 26.871,29.949 c -29.9,-9.505 -44.336,-37.371 -48.048,-35.949 -8.641,3.284 9.506,26.616 9.506,26.616 14.69,13.654 38.887,23.678 38.887,23.678"
       id="path52" />
    <path
       d="m 213.276,252.761 c 0,0 -20.776,-3.911 -32.02,-15.4 m 31.443,23.747 c -47.874,-15.383 -49.775,-30.418 -54.269,-29.209 -8.525,6.483 18.839,27.999 18.839,27.999 3.455,5.184 38.369,14.691 38.369,14.691"
       id="path53" />
    <path
       d="m 216.453,263.516 c 0,0 -24.198,0.489 -34.463,-7.822 m 32.955,18.723 c -45.8,-9.68 -52.54,-23.16 -56.171,-22.295 -5.724,7.781 21.951,24.713 21.951,24.713 17.11,9.852 40.269,11.234 40.269,11.234"
       id="path54" />
    <path
       d="m 220.119,279.89 c 0,0 -16.131,0.489 -26.398,-5.132 m 19.841,29.729 c -12.788,11.753 -20.047,33.695 -13.48,35.086 3.629,0.171 13.48,-25.581 27.826,-29.208 l 9.159,-7.952"
       id="path55" />
    <path
       d="m 231.851,301.155 c 3.171,0 -16.614,6.112 -20.043,14.911 m -4.986,-22.293 c -18.665,13.999 -24.637,30.557 -21.948,31.455 4.147,1.383 20.745,-15.871 26.789,-16.939 2.938,-0.518 20.394,-9.85 20.394,-9.85"
       id="path56" />
    <path
       d="m 218.164,295.533 c 3.171,0 -12.948,5.621 -16.376,14.423"
       id="path57" />
    <path
       d="m 220.131,287.724 c -20.394,2.419 -56.17,-19.357 -56.861,-17.456 -8.879,10.401 29.554,27.826 38.022,26.961 l 30.072,1.901"
       id="path58" />
    <path
       d="m 228.184,293.577 c 0,0 -24.686,0.246 -35.93,-4.886"
       id="path59" />
    <path
       d="m 284.156,290.157 c 0,0 0,-11.488 -5.621,-11.977 0,0 -12.71,-0.976 -26.886,1.467 -32.424,-19.357 -7.024,-44.221 -11.489,-52.795 -1.466,-13.198 -23.219,-32.997 -23.219,-32.997 -2.2,1.957 0.443,14.277 -1.223,13.444 -4.399,-2.199 -1.686,7.485 -2.933,10.021 -4.155,-1.466 -3.942,4.823 -2.933,9.532 -3.422,0.49 -2.201,6.355 -1.467,10.511 -6.71,-3.691 2.031,10.464 -0.245,10.02 -10.265,-1.467 1.467,9.778 1.467,9.778 -5.866,2.2 -3.126,6.563 0.979,8.31 -5.134,3.666 0.121,9.519 1.954,9.778 -4.644,2.443 0.524,5.976 3.177,8.554 -4.155,3.911 3.422,5.581 7.09,7.087 -2.934,4.644 0.515,5.648 3.665,7.088 -1.955,3.666 2.856,3.394 5.865,2.935 -3.665,3.91 2.445,5.621 4.889,5.13 0,0 1.304,5.074 5.623,3.179 -1.221,3.913 7.578,3.423 7.578,3.423 0,3.914 12.954,2.445 12.954,2.445"
       id="path60" />
    <g
       fill="none"
       id="g61">
      <path
         d="m 221.087,223.77 c 0,0 2.689,7.088 5.866,7.088 m -10.744,-23.804 c 0,0 3.421,11.978 6.599,11.978 m -9.532,-2.69 c 0,0 0.978,7.821 4.154,7.821 m -7.576,2.2 c 0,0 2.689,7.088 5.865,7.088 m -7.577,3.177 c 0,0 2.934,6.355 6.111,6.355 m -5.866,3.911 c 0,0 4.889,7.821 8.065,7.821 m -7.087,2.69 c 0,0 5.132,4.4 8.31,4.4 m -7.089,3.909 c 0,0 5.132,4.4 8.31,4.4 m -7.087,4.644 c 0,0 7.576,3.666 10.754,3.666 m -7.333,4.889 c 0,0 8.555,0.734 11.732,0.734 m -4.757,6.283 c 0,0 7.173,-0.304 10.349,-0.304 m -6.2,7.218 c 0,0 6.136,-1.688 10.004,-0.304 m -4.301,4.278 c 0,0 6.134,-1.689 10.004,-0.304 m -5.511,4.97 c 0,0 5.963,-0.82 10.176,-2.551 m -4.126,5.663 c 0,0 2.504,0.732 6.719,-0.994 m 0.54,4.103 c 0,0 2.16,-0.13 6.375,-1.856 M 280.26,189.816 c -5.011,-9.505 -10.198,-8.468 -10.198,-8.468 -2.591,0 -3.456,1.728 -6.394,1.728 -3.63,0 -2.765,-3.803 -2.765,-3.803"
         id="path61" />
    </g>
    <path
       fill="#000000"
       stroke="none"
       d="m 272.137,181.521 c -1.037,4.494 -4.338,5.366 -4.338,5.366 0,0 0.716,4.289 3.474,4.485 5.065,0.907 6.719,-3.649 4.32,-7.605 -0.862,-1.037 -3.456,-2.246 -3.456,-2.246"
       id="path62" />
    <path
       stroke="none"
       d="m 275.279,186.708 c 0.164,0.554 -0.675,1.33 -1.875,1.731 -1.2,0.404 -2.306,0.279 -2.47,-0.276 l -0.001,-0.003 c -0.164,-0.555 0.676,-1.33 1.875,-1.732 1.201,-0.401 2.306,-0.277 2.471,0.277 v 0.003"
       id="path63" />
    <path
       fill="none"
       d="m 206.061,373.022 c -1.589,2.566 5.745,3.248 7.7,0.244 0,4.156 5.665,4.314 7.699,2.322 0.855,2.689 4.813,2.003 7.333,-0.489 0.428,1.16 4.014,3.647 5.339,3.17 2.59,-0.934 12.71,-15.254 14.909,-16.475 m -53.271,31.175 c 0,0 11.623,-11.319 19.226,-17.367 m -15.251,21.515 c 0,0 15.289,-14.13 22.894,-20.179 m -8.203,17.414 c 0,0 10.156,-10.464 17.76,-16.512 m -27.871,-4.548 c 0,0 11.356,-13.535 18.961,-19.584 m -10.099,19.944 c 0,0 9.546,-10.953 20.45,-18.711 m -11.747,20.345 c 0,0 4.499,-8.628 18.214,-19.196 m -11.248,19.075 c 0,0 5.22,-9.049 14.658,-15.831 m -15.253,17.043 c -7.778,7.95 -14,13.309 -14,13.309 m 2.768,-12.617 c -7.779,7.95 -15.727,14.345 -15.727,14.345 m 8.121,-16.592 c -7.778,7.95 -9.851,8.643 -9.851,8.643 m 17.488,-35.853 c -1.59,2.566 2.004,8.781 9.663,5.086 -2.42,6.402 1.171,4.66 6.145,2.324 -1.392,5.452 4.813,2 7.331,-0.49 0.427,1.161 0.557,3.995 2.919,4.21 2.743,0.249 5.623,-7.651 7.824,-8.871 m -24.471,2.943 13.889,-12.731 m -21.279,13.4 6.761,-10.289 m 6.872,11.744 8.338,-9.151 m -1.109,8.957 4.392,-4.809 m -17.801,6.22 c -1.729,1.902 -5.704,4.84 -5.704,4.84 m 13.135,-2.937 c -3.803,2.938 -7.085,6.05 -7.085,6.05 m 19.184,-3.113 c -7.778,7.95 -6.049,5.876 -6.049,5.876 m 1.9,-9.16 c -3.803,2.939 -6.049,5.185 -6.049,5.185 m 13.826,-24.542 c -11.061,13.827 4.84,2.765 4.84,2.765 m -19.092,3.824 c 0,0 -6.486,1.188 0.945,-7.799 m 11.58,-6.567 -2.074,3.284 m -0.352,-94.299 c -1.955,5.621 3.423,11.244 3.423,11.244 m -7.578,-8.066 c -1.956,5.621 7.086,14.909 7.086,14.909 m -8.799,-5.378 c -1.954,5.623 8.066,10.266 8.066,10.266 m -3.665,3.911 c 0.489,4.155 7.821,3.177 7.821,3.177 m -18.282,-48.787 c 0,0 0.624,4.735 2.939,11.235 -3.63,3.629 -4.32,9.159 -4.32,9.159 M 221.087,223.77 c 0,0 2.689,7.088 5.866,7.088 m -7.421,1.728 c 0,0 2.689,7.088 5.866,7.088 m -8.804,0.343 c 0,0 3.38,4.669 6.557,4.669 m -5.348,4.664 c 0,0 3.381,4.669 6.559,4.669 m -4.139,5.182 c 0,0 3.726,0.866 6.903,0.866 m -4.656,6.047 c 0,0 0.787,0.175 3.965,0.175 m -0.163,-48.912 c 0,0 -0.423,3.978 2.756,3.978 m 0.948,59.408 c 0,0 3.972,-0.463 3.272,-3.561 m -9.148,-1.968 c 0,0 6.91,-2.019 6.213,-5.117 m 8.305,18.596 c 0,0 1.208,-8.066 0.509,-11.166 m 8.997,17.562 c 0,0 -1.213,-10.66 -3.639,-12.031 m 14.181,14.622 c -2.591,-8.986 -6.051,-13.079 -8.478,-13.932 m 18.676,13.415 c -2.592,-8.987 -9.509,-12.387 -11.936,-13.241 m 24.033,13.584 c -2.592,-8.986 -9.506,-12.387 -11.934,-13.238 m 3.471,25.212 c -9.333,3.456 -13.653,11.925 -13.653,11.925 m 1.102,-125.862 c -2.445,0 -3.178,1.466 -3.178,1.466 m -4.888,12.954 c -1.037,2.938 2.23,6.975 1.711,6.111 m -1.55,-29.802 c -2.421,0 -2.594,4.666 -2.594,4.666 m 15.73,35.776 3.456,4.494 m -1.729,8.641 3.629,4.147 m 11.58,9.852 4.321,4.667"
       id="path64" />
    <path
       fill="#000000"
       stroke="none"
       d="m 304.346,270.347 c 0,0 2.054,5.674 3.519,6.162 0,0 1.666,0.56 2.766,-0.172 1.001,-0.668 0,-2.075 0,-2.075 -1.342,-1.955 -6.285,-3.915 -6.285,-3.915 m -8.745,2.846 c 0,0 -0.339,6.024 0.819,7.049 0,0 1.313,1.17 2.611,0.926 1.184,-0.221 0.815,-1.908 0.815,-1.908 -0.47,-2.326 -4.245,-6.067 -4.245,-6.067 m 5.988,21.264 c 0,0 -0.338,6.024 0.82,7.05 0,0 1.313,1.167 2.611,0.926 1.181,-0.222 0.814,-1.909 0.814,-1.909 -0.47,-2.326 -4.245,-6.067 -4.245,-6.067 m 14.788,6.038 -0.13,0.301 h -0.329 a 0.697,0.697 0 0 1 -0.527,-0.246 c -0.636,-0.721 -0.359,-3.964 -0.116,-5.977 -0.627,-0.818 -2.075,-2.852 -1.885,-3.942 a 0.943,0.943 0 0 1 0.43,-0.658 l 0.317,-0.198 0.28,0.248 c 0.368,0.326 3.603,3.232 3.83,4.825 0.133,0.922 -1.398,4.555 -1.87,5.647 z m -32.675,17.667 c -1.099,0 -2.07,3.32 -1.346,4.689 0,0 0.816,1.555 2.118,1.785 1.185,0.209 1.434,-1.5 1.434,-1.5 0.377,-2.343 -0.002,-4.974 -2.206,-4.974 m -6.604,48.563 c -0.472,0.821 -2.362,1.968 -2.735,2.189 l -0.294,0.174 -0.27,-0.211 c -0.673,-0.529 -0.293,-1.921 1.128,-4.138 0.006,-0.99 0.106,-3.571 0.945,-4.327 a 0.947,0.947 0 0 1 0.745,-0.253 l 0.372,0.039 0.067,0.367 c 0.089,0.485 0.845,4.767 0.042,6.16 z m -15.52,4.521 c -0.273,0.477 -0.762,0.633 -1.26,0.633 -0.436,0 -0.878,-0.119 -1.191,-0.249 l -0.116,-0.068 c -0.819,-0.641 -0.438,-2.657 -0.216,-3.561 10e-4,-0.916 0.081,-3.635 0.945,-4.413 a 0.948,0.948 0 0 1 0.744,-0.253 l 0.349,0.037 0.083,0.341 c 0.25,1.016 1.454,6.154 0.662,7.533 z M 274.41,347.66 c -0.285,0.494 -0.774,0.637 -1.241,0.637 -0.569,0 -1.107,-0.211 -1.208,-0.253 l -0.118,-0.068 c -0.839,-0.658 -0.42,-2.752 -0.201,-3.622 0.176,-0.507 1.055,-2.805 2.531,-2.649 l 0.384,0.041 0.058,0.382 c 0.062,0.419 0.592,4.144 -0.205,5.532 z m 20.046,-17.399 c 0,0 -2.435,5.519 -1.714,6.886 0,0 0.817,1.558 2.119,1.786 1.185,0.209 1.433,-1.5 1.433,-1.5 0.38,-2.342 -1.838,-7.172 -1.838,-7.172 m -7.096,14.258 c -3.62,1.194 -4.38,5.486 -4.112,7.005 0,0 0.3,1.732 1.467,2.351 1.064,0.565 1.825,-0.986 1.825,-0.986 1.08,-2.114 3.386,-6.414 0.82,-8.37 m -19.551,-21.318 c -2.441,1.646 -2.449,3.084 -2.465,4.629 0,0 -0.022,1.756 1.013,2.58 0.943,0.747 4.174,-0.638 4.174,-0.638 1.448,-1.879 -2.6,-1.928 -2.722,-6.571 m 26.152,-23.586 c -2.441,1.646 -2.448,1.371 -2.464,4.626 0,0 0.832,2.614 1.869,3.436 0.94,0.748 1.974,-1.614 1.974,-1.614 1.449,-1.877 0.699,-5.838 -1.379,-6.448 m 17.972,13.049 c -1.1,0 -2.07,3.32 -1.347,4.686 0,0 0.818,1.556 2.119,1.786 1.185,0.21 1.434,-1.499 1.434,-1.499 0.376,-2.343 -0.003,-4.973 -2.206,-4.973 m -7.578,9.409 c -1.571,5.08 -3.413,6.621 -2.691,7.988 0,0 1.794,0.455 3.096,0.684 1.185,0.211 1.432,-1.497 1.432,-1.497 0.381,-2.344 -1.471,-1.676 -1.837,-7.175 m -42.775,59.174 c -1.1,0 -2.07,3.319 -1.347,4.686 0,0 0.816,1.555 2.119,1.785 1.185,0.209 1.432,-1.499 1.432,-1.499 0.38,-2.341 -10e-4,-4.972 -2.204,-4.972"
       id="path65" />
  </g>
  <use
     xlink:href="#a"
     transform="matrix(-1,0,0,1,1042.6667,0)"
     id="use65" />
  <g
     id="b"
     fill="#eace24"
     stroke="#806600"
     transform="translate(52.083333)">
    <path
       d="m 462.575,214.875 c 0.309,-2.981 0.144,-8.604 -1.376,-11.159 -0.514,-0.862 -1.772,-1.869 -2.755,-1.826 -0.966,0.043 -2.298,0.336 -2.753,1.216 -0.417,0.808 -0.689,2.541 -0.59,3.45 0.137,1.264 1.572,3.854 1.572,3.854 0,0 -5.142,-1.064 -6.884,-2.434 -1.721,-1.356 -3.581,-3.925 -4.13,-6.088 -0.189,-0.74 -0.924,-3.139 0.005,-6.017 0.539,-1.67 2.159,-3.905 3.415,-5.018 3.276,-2.909 9.636,-2.064 10.939,-1.341 1.719,0.957 3.816,2.991 4.522,4.87 0.549,1.459 1.689,5.766 1.967,7.305 0.568,3.137 0.734,4.323 0.983,7.506 0.171,2.185 0.645,4.146 0.196,6.29 -0.241,1.155 -0.541,3.804 -1.196,5.549 -0.658,1.754 -1.67,2.604 -2.541,3.379 -1.78,1.585 -7.473,2.435 -7.473,2.435 0,0 3.128,-4.073 3.933,-5.884 0.959,-2.153 1.924,-3.732 2.166,-6.087 m 13.947,0 c -0.308,-2.981 -0.144,-8.604 1.376,-11.159 0.514,-0.862 1.774,-1.869 2.755,-1.826 0.966,0.043 2.296,0.336 2.753,1.216 0.419,0.808 0.69,2.541 0.59,3.45 -0.139,1.264 -1.574,3.854 -1.574,3.854 0,0 5.144,-1.064 6.886,-2.434 1.721,-1.356 3.579,-3.925 4.129,-6.088 0.189,-0.74 0.924,-3.139 -0.005,-6.017 -0.539,-1.67 -2.161,-3.905 -3.414,-5.018 -3.277,-2.909 -9.639,-2.064 -10.94,-1.341 -1.721,0.957 -3.818,2.991 -4.524,4.87 -0.549,1.459 -1.688,5.766 -1.967,7.305 -0.568,3.137 -0.733,4.323 -0.983,7.506 -0.173,2.185 -0.646,4.146 -0.197,6.29 0.243,1.155 0.544,3.804 1.197,5.549 0.656,1.754 1.67,2.604 2.541,3.379 1.779,1.585 7.474,2.435 7.474,2.435 0,0 -3.129,-4.073 -3.934,-5.884 -0.955,-2.153 -1.919,-3.732 -2.163,-6.087"
       id="path66" />
    <path
       d="m 469.513,237.02 c 0,0 4.594,-3.887 5.356,-8.286 0.683,-3.958 -2.362,-8.591 -2.594,-10.455 -0.921,-7.454 1.034,-17.384 1.21,-18.195 0.701,-3.224 1.581,-4.604 2.051,-5.66 0.339,-0.76 1.304,-2.271 2.269,-3.735 0.554,-0.841 1.787,-2.406 2.416,-3.999 0.666,-1.687 0.71,-3.405 0.721,-4.321 0.016,-1.561 -0.271,-2.89 -0.673,-4.161 -0.381,-1.209 -1.626,-3.186 -3.429,-4.323 -1.944,-1.226 -3.515,-2.211 -4.114,-2.601 -1.975,-1.289 -3.191,-5.528 -3.215,-5.528 -0.024,0 -1.24,4.238 -3.215,5.528 -0.598,0.39 -2.098,1.375 -4.043,2.601 -1.802,1.136 -3.048,3.114 -3.427,4.323 -0.403,1.271 -0.689,2.6 -0.671,4.161 0.009,0.916 0.054,2.634 0.721,4.321 0.628,1.592 1.861,3.156 2.416,3.999 0.966,1.464 1.93,2.975 2.268,3.735 0.47,1.056 1.351,2.436 2.051,5.66 0.176,0.811 2.132,10.741 1.209,18.195 -0.231,1.864 -3.348,6.497 -2.664,10.455 0.762,4.398 5.357,8.286 5.357,8.286"
       id="path67" />
    <path
       d="m 479.837,213.11 -2.213,-3.16 h -16.145 l -2.218,3.16 2.218,3.144 h 16.146 z"
       id="path68" />
  </g>
  <use
     xlink:href="#b"
     x="-86.940002"
     id="use68" />
  <use
     xlink:href="#b"
     x="86.940002"
     id="use69" />
  <g
     id="c"
     transform="translate(52.083333)">
    <path
       fill="#eace24"
       stroke="#806600"
       stroke-miterlimit="10"
       d="m 445.151,439.394 h 48.684 v 11.395 h -48.684 z m -0.002,-2.479 c -0.081,-10.701 -1.586,-21.734 -6.15,-31.13 a 6.23,6.23 0 0 1 8.016,5.969 c 0,0.854 -0.169,1.663 -0.479,2.401 a 6.233,6.233 0 1 1 2.634,11.882 c -0.446,0 -0.882,-0.05 -1.302,-0.138 0.467,4.205 2.625,7.391 5.216,7.391 2,0 3.74,-1.897 4.647,-4.696 0.905,2.799 2.648,4.696 4.647,4.696 2.785,0 5.069,-3.681 5.291,-8.356 a 6.186,6.186 0 0 1 -3.533,1.103 6.2320462,6.2320462 0 0 1 -0.048,-12.464 6.23,6.23 0 0 1 5.405,-9.331 6.231,6.231 0 0 1 5.405,9.331 6.2320443,6.2320443 0 0 1 -0.047,12.464 6.19,6.19 0 0 1 -3.534,-1.103 c 0.221,4.675 2.506,8.356 5.293,8.356 2,0 3.741,-1.897 4.647,-4.696 0.906,2.799 2.646,4.696 4.646,4.696 2.593,0 4.749,-3.186 5.218,-7.391 a 6.232,6.232 0 0 1 -7.534,-6.092 6.232,6.232 0 0 1 8.864,-5.652 6.23,6.23 0 0 1 7.538,-8.37 c -4.565,9.396 -6.069,20.429 -6.151,31.13 z"
       id="path69" />
    <path
       fill="#806600"
       d="m 470.924,419.776 6.634,-1.04 -6.97,-1.095 -1.095,-6.969 -1.091,6.969 -6.971,1.095 6.635,1.04 z m -25.994,21.493 a 0.98,0.98 0 0 1 0.927,0.639 l 1.149,2.526 a 0.991,0.991 0 0 1 -10e-4,0.814 h 10e-4 l -1.173,2.579 a 0.989,0.989 0 0 1 -0.904,0.582 z m 0.573,-19.736 6.361,-2.151 -7.054,0.103 -2.26,-6.681 1.696,8.401 z"
       id="path70" />
    <path
       fill="#806600"
       d="m 443.709,418.248 h 0.067 c 0.063,0.004 0.115,0.01 0.158,0.014 a 0.701,0.701 0 0 1 0.351,0.141 l 0.003,0.004 0.005,0.004 c 0.119,0.087 0.231,0.18 0.334,0.276 l 0.034,0.038 c 0.109,0.102 0.206,0.202 0.286,0.301 l 0.034,0.042 c 0.489,0.613 0.783,1.391 0.783,2.235 h 0.004 v 0.009 h -0.004 c 0,0.325 -0.042,0.632 -0.121,0.92 l -0.009,0.03 -0.03,0.1 -0.019,0.056 -0.004,0.008 -0.004,0.009 a 3.512,3.512 0 0 1 -0.278,0.628 0.696,0.696 0 0 1 -0.252,0.256 h 10e-4 l -0.006,0.004 -0.004,0.001 -0.005,0.005 c -0.046,0.026 -0.1,0.057 -0.165,0.092 l -0.13,0.063 a 68.768,68.768 0 0 0 -1.16,-5.232 l 0.042,-0.003 v -0.001 h 0.005 c 0.029,0 0.055,0.001 0.084,0.004 z"
       id="path71" />
    <path
       fill="#ff8080"
       d="m 464.851,444.943 4.365,-2.579 4.365,2.579 -4.365,2.579 z"
       id="path72" />
    <path
       fill="none"
       stroke="#9e7800"
       stroke-linejoin="round"
       d="m 464.851,444.943 4.365,-2.579 4.365,2.579 -4.365,2.579 z"
       id="path73" />
    <path
       fill="#ff8080"
       d="m 464.851,444.943 4.365,-2.579 4.365,2.579 -4.365,2.579 z"
       id="path74" />
    <path
       fill="#ba0028"
       d="m 473.581,444.943 -4.289,2.534 -0.076,0.045 v -2.579 z"
       id="path75" />
    <path
       fill="#cf1e45"
       d="m 469.216,444.943 v 2.579 l -4.366,-2.579 z"
       id="path76" />
    <path
       fill="#ff083c"
       d="m 469.216,442.361 v 2.581 h 4.365 l -0.103,-0.061 -3.95,-2.334 z"
       id="path77" />
    <path
       fill="#ff99cc"
       d="m 442.574,444.852 2.577,-2.578 1.174,2.578 -1.174,2.579 z"
       id="path78" />
    <path
       fill="#ff0000"
       d="m 442.574,444.852 h 3.751 l -1.174,2.579 z"
       id="path79" />
    <path
       fill="#cccccc"
       d="m 443.626,418.944 c 0.077,0 0.153,0.004 0.229,0.014 a 2.876,2.876 0 0 1 0.837,3.76 2.03,2.03 0 0 1 -1.066,0.304 2.04,2.04 0 1 1 0,-4.078"
       id="path80" />
    <path
       fill="none"
       stroke="#9e7800"
       d="m 443.626,418.944 c 0.077,0 0.153,0.004 0.229,0.014 a 2.876,2.876 0 0 1 0.837,3.76 2.03,2.03 0 0 1 -1.066,0.304 2.04,2.04 0 1 1 0,-4.078 z"
       id="path81" />
    <path
       fill="#ffffff"
       d="m 442.649,419.753 a 0.975,0.975 0 0 1 0,1.948 0.974,0.974 0 1 1 0,-1.948"
       id="path82" />
    <path
       fill="#806600"
       d="m 493.485,421.533 -6.36,-2.151 7.051,0.103 2.26,-6.681 -1.695,8.401 z"
       id="path83" />
    <path
       fill="#806600"
       d="m 495.281,418.248 h -0.07 c -0.06,0.004 -0.114,0.01 -0.156,0.014 a 0.694,0.694 0 0 0 -0.35,0.141 l -0.004,0.004 -0.004,0.004 c -0.119,0.087 -0.231,0.18 -0.334,0.276 l -0.037,0.038 a 2.998,2.998 0 0 0 -0.284,0.301 l -0.034,0.042 a 3.571,3.571 0 0 0 -0.785,2.235 h -0.001 v 0.009 h 0.001 c 10e-4,0.325 0.045,0.632 0.124,0.92 l 0.011,0.03 0.028,0.1 c 0.005,0.02 0.012,0.038 0.019,0.056 l 0.004,0.008 0.004,0.009 c 0.074,0.219 0.166,0.434 0.279,0.628 0.06,0.11 0.149,0.194 0.251,0.256 l 0.004,0.004 0.006,0.001 0.004,0.005 c 0.046,0.026 0.1,0.057 0.165,0.092 l 0.129,0.063 a 68.772,68.772 0 0 1 1.161,-5.232 l -0.042,-0.003 v -0.001 h -0.006 a 0.813,0.813 0 0 0 -0.084,0.004 z"
       id="path84" />
    <path
       fill="#cccccc"
       d="m 495.365,418.944 c -0.079,0 -0.158,0.004 -0.232,0.014 a 2.876,2.876 0 0 0 -0.837,3.76 2.038,2.038 0 0 0 3.105,-1.735 2.039,2.039 0 0 0 -2.036,-2.039"
       id="path85" />
    <path
       fill="none"
       stroke="#9e7800"
       d="m 495.365,418.944 c -0.079,0 -0.158,0.004 -0.232,0.014 a 2.876,2.876 0 0 0 -0.837,3.76 2.038,2.038 0 0 0 3.105,-1.735 2.039,2.039 0 0 0 -2.036,-2.039 z"
       id="path86" />
    <path
       fill="#ffffff"
       d="m 495.723,419.368 a 0.974,0.974 0 1 0 0,1.947 0.974,0.974 0 0 0 0,-1.947"
       id="path87" />
    <path
       fill="#806600"
       d="m 494.059,441.269 a 0.988,0.988 0 0 0 -0.929,0.639 l -1.149,2.526 a 0.987,0.987 0 0 0 0.003,0.814 h -0.003 l 1.173,2.579 a 0.99,0.99 0 0 0 0.905,0.582 z"
       id="path88" />
    <path
       fill="#ff083c"
       d="m 496.415,444.852 -2.579,-2.578 -1.174,2.578 1.174,2.579 z"
       id="path89" />
    <path
       fill="#ba0028"
       d="m 496.415,444.852 h -3.753 l 1.174,2.579 z"
       id="path90" />
    <circle
       fill="#cccccc"
       stroke="#9e7800"
       stroke-width="0.5"
       cx="469.496"
       cy="418.74701"
       r="2.2869999"
       id="circle90" />
    <circle
       fill="#ffffff"
       cx="469.08499"
       cy="418.04099"
       r="0.97500002"
       id="circle91" />
    <circle
       fill="#cccccc"
       stroke="#9e7800"
       stroke-width="0.5"
       cx="458.07901"
       cy="442.66501"
       r="1.668"
       id="circle92" />
    <circle
       fill="#ffffff"
       cx="457.793"
       cy="442.17401"
       r="0.67699999"
       id="circle93" />
    <circle
       fill="#cccccc"
       stroke="#9e7800"
       stroke-width="0.5"
       cx="458.07901"
       cy="447.51801"
       r="1.668"
       id="circle94" />
    <circle
       fill="#ffffff"
       cx="457.793"
       cy="447.026"
       r="0.67699999"
       id="circle95" />
    <circle
       fill="#cccccc"
       stroke="#9e7800"
       stroke-width="0.5"
       cx="481.16"
       cy="442.66501"
       r="1.668"
       id="circle96" />
    <circle
       fill="#ffffff"
       cx="480.87399"
       cy="442.17401"
       r="0.67699999"
       id="circle97" />
    <circle
       fill="#cccccc"
       stroke="#9e7800"
       stroke-width="0.5"
       cx="481.16"
       cy="447.51801"
       r="1.668"
       id="circle98" />
    <circle
       fill="#ffffff"
       cx="480.87399"
       cy="447.026"
       r="0.67699999"
       id="circle99" />
  </g>
  <use
     xlink:href="#c"
     x="-49.151001"
     y="-55.104"
     id="use99" />
  <use
     xlink:href="#c"
     x="49.151001"
     y="-55.104"
     id="use100" />
</svg>
