<?xml version="1.0" encoding="UTF-8" standalone="no"?>
<svg
   height="501"
   width="835"
   version="1.1"
   id="svg98"
   xmlns="http://www.w3.org/2000/svg"
   xmlns:svg="http://www.w3.org/2000/svg">
  <defs
     id="defs98">
    <clipPath
       id="a">
      <path
         d="M 0,0 V 30 H 60 V 0 Z"
         id="path1-4" />
    </clipPath>
    <clipPath
       id="b">
      <path
         d="m 30,15 h 30 v 15 z m 0,0 V 30 H 0 Z m 0,0 H 0 V 0 Z m 0,0 V 0 h 30 z"
         id="path2" />
    </clipPath>
  </defs>
  <path
     d="M 0,0 H 835 V 501 H 0 Z"
     fill="#c8102e"
     id="path1"
     style="stroke-width:0.914697" />
  <path
     d="m 750.11677,106.664 v 211.737 c 0,56.557 -113.062,74.933 -113.062,74.933 0,0 -113.062,-18.376 -113.062,-74.933 V 106.664 Z"
     fill="#ffffff"
     id="path6" />
  <path
     d="m 750.11677,318.401 c 0,56.557 -113.062,74.933 -113.062,74.933 0,0 -113.062,-18.376 -113.062,-74.933 0,0 0,-4.555 2.301,-7.145 0,0 -1.246,9.407 5.981,16.522 0,0 -5.669,-10.037 -0.125,-19.901 0,0 -2.056,12.691 5.856,19.979 0,0 -4.361,-10.367 0.561,-21.927 0,0 -2.43,18.911 6.168,22.681 0,0 2.367,-10.869 -1.059,-17.843 0,0 5.919,2.387 5.607,18.157 0,0 1.869,-2.325 2.367,-13.697 0,0 0.249,13.005 4.735,16.021 0,0 1.371,-1.319 -0.498,-7.225 -1.869,-5.906 0.81,-7.979 1.246,-7.854 0,0 -0.983,6.534 4.493,11.435 0,0 -2.374,-10.241 0.928,-11.623 0,0 -0.685,8.67 6.168,10.618 0,0 0.498,-2.513 -0.997,-5.34 0,0 -1.308,-3.353 -0.312,-5.918 0,0 2.181,7.865 5.171,9.185 0,0 -1.807,-4.61 -0.125,-9.185 0,0 0.374,6.546 6.23,9.247 0,0 -3.858,-5.067 -2.334,-10.639 l 37.659,1.843 19.501,0.93 58.502,-4.134 10.093,-8.67 c 0,0 3.987,5.529 -2.305,14.262 0,0 6.23,-1.131 8.224,-10.869 0,0 2.554,5.403 -0.935,11.372 0,0 6.916,-6.911 7.912,-14.765 0,0 2.679,7.602 -3.863,15.77 0,0 5.856,-1.948 8.349,-10.618 0,0 1.994,5.222 -3.676,12.601 0,0 10.591,-5.627 10.28,-17.25 0,0 4.423,6.408 -0.623,15.204 0,0 5.42,-4.838 5.919,-12.063 0,0 2.991,3.267 -0.249,12.251 0,0 6.604,-6.22 7.601,-12.943 0,0 1.433,6.22 -4.237,14.073 0,0 3.863,-0.942 7.539,-8.607 0,0 0.997,3.016 -2.367,8.545 0,0 3.614,-0.628 6.043,-7.539 0,0 0.436,4.147 -0.623,7.854 0,0 2.804,-1.822 3.427,-9.676 0,0 1.566,2.576 1.593,5.78 0.025,3.205 -0.002,1.101 -0.002,1.101 z"
     fill="#2f8f22"
     id="path7" />
  <g
     stroke="#000000"
     id="g10"
     transform="translate(-115.24423)">
    <path
       d="m 807.139,195.999 c 0,0 -3.929,0.668 -8.975,-0.87 -5.046,-1.537 -7.086,-0.913 -8.652,0 0,0 2.048,-4.055 -2.936,-7.257 0,0 1.62,4.094 -0.623,6.006 0,0 -0.997,0.938 -2.181,-0.475 0,0 -1.744,-1.791 -3.582,-3.173 0,0 4.237,-1.476 3.458,-5.78 -0.779,-4.304 -3.084,-4.869 -4.33,-5.403 0,0 0.436,1.948 0,3.267 0,0 -4.61,-2.576 1.651,-6.22 6.261,-3.644 5.109,-5.78 3.987,-7.634 -1.121,-1.853 -3.52,-3.895 -4.704,-4.618 0,0 1.246,1.948 1.028,3.613 -0.218,1.665 -3.053,2.733 -2.492,-0.188 0.561,-2.922 -0.031,-2.419 -0.094,-5.529 0,0 5.576,1.885 7.757,-3.55 0,0 2.149,-5.623 -4.891,-8.419 0,0 1.713,2.293 0.872,4.021 0,0 -1.495,2.827 -3.271,0.534 -1.776,-2.293 -2.897,-2.733 -2.71,-5.435 0,0 6.386,0.88 4.642,-6.063 0,0 -1.028,4.618 -9.314,-1.602 0,0 5.389,-5.529 3.302,-9.99 0,0 -0.654,-2.042 -6.511,-0.848 0,0 5.078,-3.204 2.928,-5.937 0,0 -1.09,-1.822 -5.825,0.565 0,0 1.838,-3.173 -2.804,-6.597 0,0 -3.115,1.634 -4.766,3.141 0,0 -3.177,-4.021 -5.202,-5.623 0,0 -3.676,1.414 -4.61,5.623 0,0 -1.713,-2.042 -5.607,-2.984 0,0 -1.869,3.456 0.561,6.471 0,0 -1.807,-0.063 -5.109,-1.508 0,0 -3.769,-1.791 -3.209,1.445 0.56,3.236 0.841,3.958 1.589,5.466 0,0 -8.458,-1.964 -8.099,2.607 0.249,3.173 1.433,5.906 4.05,8.199 0,0 -4.735,6.189 -8.785,1.539 0,0 -1.402,1.508 1.62,5.466 0,0 3.022,3.33 0.53,5.435 0,0 -3.333,2.67 -4.953,-2.513 0,0 -5.389,5.372 0.966,9.487 0,0 4.081,2.325 8.255,-1.257 0,0 -1.277,10.304 -5.265,8.325 0,0 -2.399,-1.759 1.9,-3.864 0,0 -6.199,-0.785 -7.196,5.215 0,0 -0.765,4.774 4.641,6.503 0,0 4.174,1.508 -0.156,4.744 0,0 -3.053,2.325 -1.059,5.78 0,0 2.399,3.801 -3.676,4.178 0,0 -3.302,-0.031 -4.486,-0.471 0,0 -1.332,2.477 -0.401,5.307 0,0 -3.025,-2.254 -9.91,0.24 -6.884,2.495 -6.355,0.736 -6.916,1.49 -0.561,0.754 -1.9,3.298 -1.9,3.298 0,0 3.614,4.398 3.676,4.304 0.062,-0.094 -0.685,5.026 -0.685,5.026 l 1.776,0.848 14.174,-6.314 14.392,-7.5 11.571,0.709 7.338,1.747 9.639,0.702 6.903,-3.682 h 9.999 l 10.998,5.48 12.552,7.489 6.542,1.147 5.04,-0.269 v -10.166 z"
       fill="#c8102e"
       stroke-linejoin="round"
       stroke-width="0.831"
       id="path8" />
    <path
       d="m 692.974,207.886 c 0,0 5.483,2.796 7.772,-0.597 0,0 2.991,-5.702 -3.575,-7.681 0,0 3.575,-4.288 -0.257,-8.246 0,0 -2.009,-2.12 -5.514,-0.565 0,0 -1.449,-3.016 -4.86,-2.922 0,0 -2.99,-0.047 -4.018,3.251 0,0 -4.112,-1.696 -6.402,0.754 0,0 -3.785,4.241 1.495,7.587 l 3.8,0.346 3.738,-1.728 4.174,1.194 c 0.003,-0.001 -1.072,4.225 3.647,8.607 z"
       fill="#c8102e"
       stroke-linejoin="round"
       stroke-width="0.831"
       id="path9" />
    <path
       d="m 815.359,197.859 c 6.605,-0.622 8.937,4.952 8.937,4.952 3.462,8.122 -3.89,12.458 -3.89,12.458 0.561,1.822 0.623,4.209 0.623,4.209 10.342,1.257 8.534,12.88 8.534,12.88 l -3.425,-2.827 c -5.981,-2.325 -12.149,2.764 -16.572,11.309 -4.423,8.545 -2.305,12.566 -1.558,22.681 0.748,10.115 17.195,16.147 17.195,16.147 0,0 -7.788,20.042 -12.834,32.922 -5.046,12.88 -15.576,7.539 -18.628,4.826 -3.053,-2.713 -3.816,-1.206 -5.358,0 -1.542,1.206 6.916,7.802 -8.473,14.022 -15.389,6.22 -18.068,10.995 -20.622,12.566 -2.554,1.571 -13.208,0.503 -14.267,-0.817 -1.059,-1.319 -0.436,-1.319 -4.423,-3.77 -3.987,-2.45 -10.716,-4.586 -18.068,-8.168 -7.352,-3.581 -7.165,-8.168 -7.102,-9.11 0.062,-0.942 2.554,-8.607 -6.056,-2.513 -8.61,6.094 -15.937,-2.902 -15.937,-2.902 -1.682,-2.211 -8.847,-21.412 -8.847,-21.412 -1.931,-7.162 -5.732,-15.519 -5.732,-15.519 0.187,-0.063 -0.374,0.88 5.981,-2.764 6.355,-3.644 9.201,-9.707 11.401,-15.707 2.2,-6 0.062,-16.272 -0.748,-18.346 -0.81,-2.073 -5.545,-11.579 -11.408,-13.571 -5.863,-1.992 -9.795,2.953 -9.795,2.953 0,0 -1.809,-11.623 8.534,-12.88 0,0 0.062,-2.387 0.623,-4.209 0,0 -7.352,-4.335 -3.89,-12.458 0,0 2.332,-5.574 8.937,-4.952 l -1.598,3.022 c 0,0 -1.663,16.587 22.616,5.466 24.279,-11.121 23.55,-13.194 37.381,-6.22 l 10.093,-0.188 c 0,0 14.579,-6.744 19.251,-3.843 4.673,2.901 21.494,12.325 21.494,12.325 0,0 16.261,6.098 19.438,-5.15 z"
       fill="#64b4d1"
       stroke-width="0.623"
       id="path10" />
  </g>
  <path
     d="m 627.06577,269.772 c 0,0 -0.844,-5.091 -1.731,-8.388 0,0 -1.802,-5.174 1.272,-8.806 l 3.812,-4.387 c 0,0 2.369,-3.187 5.302,-3.62 0,0 2.933,-0.087 3.213,-0.684 0.28,-0.597 3.489,-5.877 11.121,0 0,0 2.43,-3.895 6.168,-4.555 0,0 4.038,-1.225 5.991,1.791 0,0 4.538,-3.441 8.432,2.097 0,0 5.389,-3.031 9.314,2.996 0,0 5.327,-2.598 8.598,2.94 3.271,5.538 2.617,7.8 2.617,7.8 l 2.428,8.796 8.6,10.618 -19.999,7.539 h -8.971 l -17.943,4.806 -31.867,2.45 -8.878,-10.461 z"
     fill="#ffffff"
     stroke="#012169"
     stroke-miterlimit="10"
     stroke-width="0.831"
     id="path11" />
  <g
     stroke="#000000"
     stroke-width="0.831"
     id="g14"
     transform="translate(-115.24423)">
    <path
       d="m 715.374,322.736 c 0,0 -4.766,0.283 -7.196,1.508 -2.43,1.225 -4.299,2.545 -7.102,4.335 0,0 -1.308,1.743 -6.822,0.683 0,0 -9.532,-2.285 -9.532,5.16 0,0 -11.401,0.942 -6.729,10.932 0,0 3.177,7.822 9.719,2.262 0,0 -4.205,6.031 3.925,8.388 0,0 5.794,1.414 7.476,-4.524 0,0 0.935,-2.356 -1.308,-5.278 0,0 2.804,-0.565 4.766,-3.581 0,0 -5.981,7.559 0.561,10.282 0,0 8.221,2.063 8.69,-6.513 0,0 -0.671,-3.958 2.515,-5.372 0,0 6.551,-1.508 9.541,-8.812 10e-4,10e-4 -9.419,-5.016 -8.504,-9.47 z m -19.247,-75.168 c 0,0 -7.352,-3.386 -10.841,0 0,0 -4.86,-3.009 -9.968,0 0,0 -4.86,3.176 -8.224,6.674 0,0 -2.367,2.027 -1.495,8.417 0,0 1.246,4.505 0.498,6.767 0,0 -1.62,-0.321 -4.86,3.518 0,0 -4.112,4.762 -7.725,0.559 0,0 1.121,5.85 7.912,4.907 0,0 -3.302,2.576 -0.436,9.236 0,0 2.118,4.712 -1.246,10.618 0,0 5.919,-2.387 5.669,-9.361 0,0 -0.498,-4.712 1.246,-8.042 0,0 -1.744,3.028 2.305,9.487 0,0 3.115,4.649 0.561,9.487 0,0 5.856,-2.136 5.296,-9.236 -0.56,-7.1 -4.112,-4.147 -1.807,-10.681 0,0 0.561,3.347 2.305,5.035 1.744,1.688 3.987,4.515 3.053,9.227 0,0 3.489,-4.335 2.679,-8.796 -0.81,-4.461 -1.682,-5.81 -1.682,-5.81 l 11.027,-6.253 5.483,-9.927 z"
       fill="#c8102e"
       stroke-linejoin="round"
       id="path12" />
    <g
       fill="none"
       stroke-miterlimit="10"
       id="g13">
      <path
         d="m 679.368,275.583 c 0,0 -4.548,-0.314 -5.296,-3.833 m -7.975,-2.324 c 0,0 1.585,-0.063 3.018,1.382 0,0 1.094,1.634 2.652,1.445"
         id="path13" />
    </g>
  </g>
  <path
     d="m 570.85177,262.201 c 0,0 -2.367,0 -3.676,-1.131 0,0 -1.371,-0.942 -2.181,0.565 0,0 -1.246,2.136 1.059,3.079 0,0 2.866,1.445 -1.682,4.335 0,0 5.42,-1.948 3.24,-4.586 0,0 -2.367,-1.696 -1.495,-2.325 0,0 0.249,-0.503 1.184,0.126 0.935,0.628 2.804,0.377 3.551,-0.063 z"
     id="path14" />
  <path
     d="m 645.16377,274.204 -18.218,-62.913 -0.667,0.179 16.098,63.676 z"
     fill="#784421"
     stroke="#000000"
     stroke-width="0.623"
     id="path15" />
  <path
     d="m 581.71977,344.785 c 0,0 -4.299,-2.415 -7.85,0.412 0,0 0.363,-1.571 3.079,-2.262 0,0 1.47,-4.147 5.581,-3.77 0,0 -1.682,2.01 -3.925,3.707 0,0 2.368,0.245 3.115,1.913 z"
     id="path16" />
  <path
     d="m 566.58077,354.778 c 0,0 -6.822,-4.288 -3.131,-11.498 0,0 1.075,-2.073 3.131,-1.649 0,0 4.252,1.319 0.935,7.21 -10e-4,0 -1.683,3.817 -0.935,5.937 z m 13.831,6.786 c 0,0 -9.719,-4.429 -6.729,-11.969 0,0 0.924,-2.545 3.079,-2.356 0,0 3.748,0.188 2.998,5.183 0,0 -1.124,4.901 0.652,9.142 z"
     fill="#64b4d1"
     stroke="#012169"
     stroke-miterlimit="2.613"
     stroke-width="0.623"
     id="path17" />
  <path
     d="m 578.35577,333.427 c 0,0 -2.92,2.157 -4.108,3.602 0,0 -1.188,-1.476 -2.745,-2.372 0,0 1.793,-0.236 2.745,0.571 0,0 1.491,-1.445 4.108,-1.801 z"
     id="path18" />
  <path
     d="m 586.99977,359.679 c 0,0 7.616,-1.932 6.215,-9.801 0,0 -0.748,-3.44 -3.972,-2.969 0,0 -3.885,0.992 -1.355,5.994 0,0 1.495,3.572 -0.888,6.776 z"
     fill="#64b4d1"
     stroke="#012169"
     stroke-miterlimit="2.613"
     stroke-width="0.623"
     id="path19" />
  <path
     d="m 621.41177,193.201 c 0,0 4.906,1.504 7.57,2.59 0,0 7.102,3.204 16.121,0 0,0 6.099,-2.415 6.912,-2.59 l -4.67,7.114 -0.234,3.675 2.922,4.288 c 0,0 -1.753,0.707 -6.987,-2.498 0,0 -5.794,-4.476 -12.71,0 0,0 -3.785,2.564 -6.962,2.498 l 4.486,-5.009 -1.729,-4.51 z"
     fill="#f5ce00"
     stroke="#000000"
     stroke-miterlimit="2.613"
     stroke-width="0.831"
     id="path20" />
  <path
     d="m 589.94377,350.278 c 0,0 0.28,-0.377 -0.047,-0.542 0,0 -0.327,-0.141 -0.561,0.318 0,0 -0.794,1.26 -0.122,2.986 0,0 0.636,1.196 0.327,2.445 0,0 -0.042,0.353 0.239,0.401 0,0 0.269,-0.094 0.321,-0.353 0,0 0.38,-1.219 -0.274,-2.412 10e-4,-10e-4 -0.794,-1.853 0.117,-2.843 z"
     fill="#ffffff"
     id="path21" />
  <g
     stroke="#000000"
     id="g26"
     transform="translate(-115.24423)">
    <path
       d="m 810.687,207.886 c 0,0 -5.483,2.796 -7.772,-0.597 0,0 -2.99,-5.702 3.575,-7.681 0,0 -3.575,-4.288 0.257,-8.246 0,0 2.009,-2.12 5.514,-0.565 0,0 1.449,-3.016 4.86,-2.922 0,0 2.99,-0.047 4.018,3.251 0,0 4.112,-1.696 6.401,0.754 0,0 3.785,4.241 -1.495,7.587 l -3.8,0.346 -3.738,-1.728 -4.174,1.194 c -0.002,-0.001 1.073,4.225 -3.646,8.607 z"
       fill="#c8102e"
       stroke-linejoin="round"
       stroke-width="0.831"
       id="path22" />
    <path
       d="m 767.262,203.457 c 0,0 -0.138,1.131 -1.26,1.257 0,0 -1.17,0.377 -1.852,-1.08 0,0 -0.079,-0.33 -0.097,-0.491 -0.078,-0.681 -0.311,-2.639 1.807,-4.241 0,0 3.458,-2.827 10.062,0.597 0,0 5.233,2.513 8.847,4.649 0,0 9.345,5.026 10.467,5.403 0,0 4.112,2.073 10.404,2.325 0,0 8.598,0.628 12.242,-5.403 0,0 2.772,-4.586 0,-7.508 0,0 -1.121,-1.319 -2.965,-1.076 -0.774,0.102 -1.629,0.458 -2.455,1.422 0,0 -1.339,1.948 0.218,3.393 0,0 2.025,1.241 2.741,-1.382 0,0 0.031,-0.188 0.093,0.047 0.04,0.152 0.498,2.152 -0.576,3.848 0,0 -5.187,7.849 -19.454,-0.285 l -18.815,-10.553 c 0,0 -9.439,-4.838 -15.077,2.733 0,0 -4.548,6.283 1.308,10.398 0,0 4.361,2.607 7.102,-1.539 0,0 2.274,-4.084 -1.308,-5.874 0,0 -3.146,-1.476 -4.392,1.665 -1.246,3.141 2.43,3.958 2.772,1.728 0.001,-0.002 0.095,-0.536 0.188,-0.033 z"
       fill="#f5ce00"
       stroke-miterlimit="2.613"
       stroke-width="0.831"
       id="path23" />
    <g
       stroke-width="0.623"
       id="g25">
      <path
         d="m 692.68,235.844 v -11.78 c 0,-0.925 0.007,-1.696 1.408,-2.827 1.401,-1.131 2.897,-2.922 5.046,2.168 0,0 4.205,-4.429 5.607,-5.089 0,0 2.43,-2.073 4.112,0.942 0,0 2.243,-3.393 4.018,-4.241 0,0 4.205,-2.733 4.392,5.466 l 3.271,-3.016 c 0,0 2.523,-2.073 5.327,0.754 0,0 4.766,4.618 5.42,5.937 0,0 1.052,1.429 1.133,3.683 0,0 -0.012,2.537 1.296,3.95 0,0 1.494,1.319 2.943,1.602 0,0 3.411,0.094 4.626,3.298 0,0 0.561,-0.555 2.243,14.801 v 27.985 l -18.878,22.524 -30.279,-8.67 -12.055,-4.995 -2.71,-8.859 11.682,-7.539 6.355,-17.152 -2.056,-12.063 z"
         fill="#e4cb5e"
         stroke-miterlimit="2.613"
         id="path24" />
      <path
         d="m 776.109,250.703 1.433,-2.136 3.427,-2.639 c 0,0 5.233,13.734 5.483,16.731 v 4.262 c 0,0 7.85,2.003 9.221,14.066 l -6.479,11.937 -10.155,-5.655 -2.928,-2.136 v -34.43 z"
         fill="#784421"
         id="path25" />
    </g>
  </g>
  <path
     d="m 564.68777,345.001 c 0,0 0.374,-0.495 0.117,-0.707 0,0 -0.164,-0.236 -0.607,0.33 0,0 -2.064,2.307 -0.421,5.855 0,0 0.187,0.506 0.514,0.341 0,0 0.28,-0.141 0.023,-0.565 10e-4,0 -1.471,-2.922 0.374,-5.254 z"
     fill="#ffffff"
     id="path26" />
  <g
     stroke="#000000"
     id="g34"
     transform="translate(-115.24423)">
    <path
       d="m 710.546,342.684 c 0,0 0.311,-1.068 -0.436,-2.199 0,0 -0.498,-0.817 -0.312,-1.885"
       fill="none"
       stroke-miterlimit="10"
       stroke-width="0.831"
       id="path27" />
    <path
       d="m 717.265,220.483 c 0,0 0.028,2.946 0.869,5.114 0.841,2.168 3.681,5.917 3.868,7.943"
       fill="none"
       stroke-miterlimit="10"
       stroke-width="0.623"
       id="path28" />
    <path
       d="m 788.476,322.736 c 0,0 4.766,0.283 7.196,1.508 2.43,1.225 4.299,2.545 7.102,4.335 0,0 1.308,1.743 6.822,0.683 0,0 9.532,-2.285 9.532,5.16 0,0 11.401,0.942 6.729,10.932 0,0 -3.177,7.822 -9.719,2.262 0,0 4.205,6.031 -3.925,8.388 0,0 -5.794,1.414 -7.476,-4.524 0,0 -0.935,-2.356 1.308,-5.278 0,0 -2.804,-0.565 -4.766,-3.581 0,0 5.981,7.559 -0.561,10.282 0,0 -8.221,2.063 -8.69,-6.513 0,0 0.671,-3.958 -2.515,-5.372 0,0 -6.551,-1.508 -9.541,-8.812 0,10e-4 9.419,-5.016 8.504,-9.47 z"
       fill="#c8102e"
       stroke-linejoin="round"
       stroke-width="0.831"
       id="path29" />
    <g
       stroke-width="0.623"
       id="g33">
      <g
         fill="none"
         stroke-miterlimit="10"
         id="g30">
        <path
           d="m 713.505,233.536 7.778,62.78 m -5.981,-62.916 8.723,58.519 m -7.088,-58.791 10.047,58.037"
           id="path30" />
      </g>
      <path
         d="m 735.613,285.227 -18.219,-62.913 -0.667,0.179 16.099,63.677 z"
         fill="#784421"
         id="path31" />
      <g
         fill="none"
         stroke-miterlimit="10"
         id="g32">
        <path
           d="m 722.511,230.823 18.398,46.488 m -19.626,-45.736 17.756,48.563"
           id="path32" />
      </g>
    </g>
  </g>
  <path
     d="m 576.89177,357.103 c 0,0 -2.135,-2.047 -1.838,-5.717 0,0 0.125,-0.785 -0.267,-0.894 0,0 -0.418,-0.174 -0.48,0.737 0,0 -0.592,3.833 1.994,6.031 0,0 0.176,0.22 0.462,0.157 -0.001,0 0.305,-0.068 0.129,-0.314 z"
     fill="#ffffff"
     id="path34" />
  <g
     stroke="#000000"
     id="g40"
     transform="translate(-115.24423)">
    <path
       d="m 723.341,230.192 18.969,42.407 m -24.157,-39.772 11.635,57.112"
       fill="none"
       stroke-miterlimit="10"
       stroke-width="0.623"
       id="path35" />
    <path
       d="m 813.327,275.146 c -8.31,-4.715 -10.132,-15.176 -10.132,-15.176 -2.009,-10.414 2.056,-18.66 2.056,-18.66 5.374,-11.356 14.582,-13.469 14.582,-13.469 0,0 -9.021,6.259 -11.544,14.694 0,0 -1.963,7.115 -0.841,14.136 1.121,7.021 0.701,5.23 2.43,10.649 z"
       fill="#f5ce00"
       stroke-miterlimit="2.613"
       stroke-width="0.831"
       id="path36" />
    <path
       d="m 777.542,248.567 -34.917,11.025 -1.904,15.554 c -8.286,12.003 -25.124,14.133 -25.124,14.133 l 13.1,13.948 25.17,5.278 13.208,-10.178 11.962,-11.058 c -1.246,-5.906 -0.561,-14.67 -0.561,-14.67 0,-1.476 0.561,-4.932 0.561,-4.932 0,0 -2.056,-14.199 -1.495,-19.1 z"
       fill="#784421"
       stroke-width="0.38"
       id="path37" />
    <g
       fill="none"
       stroke-miterlimit="10"
       stroke-width="0.623"
       id="g39">
      <path
         d="m 741.2,271.238 c 0,0 22.997,-7.181 36.71,-12.947 m -47.749,26.056 c 0,0 28.69,-5.183 48.876,-16.68 l 7.414,-5.008"
         id="path38" />
      <path
         d="m 786.451,266.921 -7.975,5.678 c 0,0 -32.086,14.796 -56.516,15.191 m 56.51,-4.677 c 0,0 -24.665,12.701 -38.808,12.89"
         id="path39" />
    </g>
    <path
       d="m 807.883,247.568 c 0,0 7.352,-3.386 10.841,0 0,0 4.86,-3.009 9.968,0 0,0 4.86,3.176 8.224,6.674 0,0 2.367,2.027 1.495,8.417 0,0 -1.246,4.505 -0.498,6.767 0,0 1.62,-0.321 4.86,3.518 0,0 4.112,4.762 7.725,0.559 0,0 -1.121,5.85 -7.912,4.907 0,0 3.302,2.576 0.436,9.236 0,0 -2.118,4.712 1.246,10.618 0,0 -5.919,-2.387 -5.669,-9.361 0,0 0.498,-4.712 -1.246,-8.042 0,0 1.744,3.028 -2.305,9.487 0,0 -3.115,4.649 -0.561,9.487 0,0 -5.856,-2.136 -5.296,-9.236 0.561,-7.1 4.112,-4.147 1.807,-10.681 0,0 -0.561,3.346 -2.305,5.035 -1.744,1.688 -3.987,4.515 -3.053,9.227 0,0 -3.489,-4.335 -2.679,-8.796 0.81,-4.461 1.682,-5.81 1.682,-5.81 l -11.027,-6.253 -5.483,-9.927 z"
       fill="#c8102e"
       stroke-linejoin="round"
       stroke-width="0.831"
       id="path40" />
  </g>
  <path
     d="m 567.72377,287.301 c 0,0 1.028,-4.87 5.701,-2.954 0,0 1.589,-7.979 10.093,-8.261 8.504,-0.283 8.971,8.293 8.971,8.859 0,0 2.498,-3.682 6.669,-3.255 0,0 7.191,-0.424 4.513,11.122 l 1.36,1.448 c 0,0 5.494,-12.897 16.802,-9.504 0,0 11.027,3.361 3.832,14.042 0,0 5.442,7.068 10.057,6.408 4.615,-0.66 8.727,-2.073 13.306,-10.178 4.579,-8.105 15.233,-9.33 17.943,-8.859 2.71,0.471 4.851,2.231 5.293,4.147 0,0 5.641,-18.827 25.92,-15.869 l 8.13,4.089 3.084,1.414 -4.597,12.974 -11.199,25.314 -8.502,2.614 -8.878,-5.089 -3.084,1.653 -0.252,7.582 -11.71,8.429 -8.13,3.351 -8.971,6.126 -2.087,5.476 c 0,0 -4.955,-2.087 -10.547,0 l -1.851,-4.533 -5.233,-4.995 -20.33,-9.59 -3.673,-11.846 -3.711,-1.653 -4.154,4.758 -6.074,0.708 -9.065,-6.126 z"
     fill="#ffffff"
     stroke="#012169"
     stroke-miterlimit="10"
     stroke-width="0.831"
     id="path41" />
  <g
     stroke="#000000"
     id="g56"
     transform="translate(-115.24423)">
    <g
       stroke-miterlimit="2.613"
       id="g53">
      <g
         stroke-width="0.831"
         id="g51">
        <path
           d="m 771.499,195.132 c 0,0 -7.759,-0.345 -7.478,7.697"
           fill="none"
           id="path42" />
        <path
           d="m 822.54,280.562 c -13.504,-4.147 -17.195,-18.66 -17.195,-18.66 -2.757,-10.885 1.682,-20.403 1.682,-20.403 6.168,-14.485 16.604,-14.482 16.604,-14.482 5.233,-0.141 5.861,4.335 5.861,4.335 0.494,3.173 -1.733,4.319 -1.733,4.319 -3.582,1.948 -5.841,-0.691 -5.841,-0.691 -1.495,-1.948 -0.343,-3.675 -0.343,-3.675 0.919,-1.288 2.679,-0.723 2.679,-0.723 1.394,0.432 1.246,2.175 1.246,2.175 0.008,0.047 0.039,0.047 0.039,0.047 0.062,-0.016 0.039,-0.039 0.039,-0.039 0,0 0.311,-2.136 -1.776,-2.356 0,0 -4.065,-0.88 -8.831,5.058 0,0 -6.276,8.011 -6.261,18.377 0,0 -0.794,19.461 19.485,24.503 0,0 -2.196,3.157 -6.074,14.56 0,0 -4.392,14.655 -8.585,22.578 0,0 -5.574,11.302 -18.003,6.684 0,0 -7.401,-3.251 -7.383,-8.623 0,0 -0.514,-4.901 3.925,-5.278 0,0 4.346,-0.33 4.299,3.393 0,0 0.117,4.029 -4.626,3.11 0,0 -1.659,-0.353 -1.355,-1.979 0,0 0.265,-1.461 2.266,-0.825 0,0 0.062,0.008 0.07,-0.024 0,0 0.023,-0.035 -0.047,-0.055 0,0 -0.774,-0.346 -1.592,-0.06 0,0 -0.733,0.244 -0.791,1.387 0,0 -0.047,0.919 0.935,1.437 0,0 1.192,0.424 2.126,0.33 0,0 1.257,2.537 4.101,3.397 3.959,1.197 7.22,0.044 9.216,-1.548 2.171,-1.732 3.575,-4.759 3.995,-5.501 0.42,-0.742 4.065,-8.906 6.806,-17.686 0,0 2.399,-7.571 4.314,-11.529 z"
           fill="#f5ce00"
           id="path43" />
        <path
           d="m 784.434,317.458 c 0,0 2.523,-0.342 2.523,1.908 0,0 -0.154,3.287 -4.159,2.568 0,0 -3.948,-0.864 -2.547,-5.278 0,0 0.935,-3.11 4.673,-2.662 0,0 3.621,0.165 5.21,5.113 0,0 1.215,4.171 -0.864,7.751 -2.321,3.996 -8.193,6.621 -11.027,7.783 0,0 -11.355,4.461 -14.742,7.013 0,0 -5.194,3.856 -2.897,7.445 0,0 0.888,1.367 2.22,1.367 0,0 1.519,0.071 1.776,-1.484 0,0 0.008,-0.031 -0.016,-0.071 0,0 -0.023,0 -0.031,0.039 0,0 -0.109,0.95 -0.935,1.304 0,0 -1.106,0.558 -2.266,-0.424 0,0 -1.23,-1.178 -0.202,-3.008 0,0 1.347,-2.254 4.486,-0.919 0,0 2.765,1.367 1.628,4.304 0,0 -1.012,2.703 -4.346,2.696 0,0 -2.51,-0.083 -4.115,-1.766 -2.505,-2.626 -2.641,-7.741 -0.433,-10.386 0,0 2.087,-2.812 6.277,-4.524 2.427,-0.992 7.009,-2.984 11.775,-4.853 3.35,-1.314 6.418,-2.887 8.411,-5.246 0,0 1.776,-1.979 2.29,-5.372 0,0 0.491,-2.545 -1.059,-3.102 0,0 -0.787,-0.353 -1.651,-0.236 0,0 -0.023,10e-4 -0.029,0.016 -0.002,10e-4 -0.037,0.039 0.05,0.024 z"
           fill="#f5ce00"
           id="path44" />
        <path
           d="m 784.645,317.442 c 0,0 2.788,-0.503 4.532,2.812 0,0 1.028,2.136 1.194,3.372 m 0.908,-11.85 c 0,0 -2.792,0.484 -1.354,4.434 1.355,3.723 3.872,4.944 4.619,5.462"
           fill="none"
           id="path45" />
        <path
           d="m 736.653,203.456 c 0,0 0.138,1.131 1.26,1.257 0,0 1.17,0.377 1.852,-1.08 0,0 0.079,-0.33 0.097,-0.491 0.078,-0.681 0.311,-2.639 -1.807,-4.241 0,0 -3.458,-2.827 -10.062,0.597 0,0 -5.233,2.513 -8.847,4.649 0,0 -9.345,5.026 -10.467,5.403 0,0 -4.112,2.073 -10.404,2.325 0,0 -8.598,0.628 -12.242,-5.403 0,0 -2.772,-4.586 0,-7.508 0,0 1.121,-1.319 2.965,-1.076 0.774,0.102 1.629,0.458 2.455,1.422 0,0 1.339,1.948 -0.218,3.393 0,0 -2.025,1.241 -2.741,-1.382 0,0 -0.031,-0.188 -0.094,0.047 -0.04,0.152 -0.498,2.152 0.576,3.848 0,0 5.187,7.849 19.454,-0.285 l 18.815,-10.553 c 0,0 9.439,-4.838 15.077,2.733 0,0 4.548,6.283 -1.308,10.398 0,0 -4.361,2.607 -7.102,-1.539 0,0 -2.274,-4.084 1.308,-5.874 0,0 3.146,-1.476 4.392,1.665 1.246,3.141 -2.43,3.958 -2.772,1.728 0,-0.001 -0.094,-0.535 -0.187,-0.033 z m -46.065,71.69 c 8.31,-4.715 10.132,-15.176 10.132,-15.176 2.009,-10.414 -2.056,-18.66 -2.056,-18.66 -5.374,-11.356 -14.582,-13.469 -14.582,-13.469 0,0 9.021,6.259 11.544,14.694 0,0 1.963,7.115 0.841,14.136 -1.121,7.021 -0.701,5.23 -2.43,10.649 z"
           fill="#f5ce00"
           id="path46" />
        <path
           d="m 732.416,195.132 c 0,0 7.759,-0.345 7.478,7.697"
           fill="none"
           id="path47" />
        <path
           d="m 681.375,280.562 c 13.504,-4.147 17.195,-18.66 17.195,-18.66 2.757,-10.885 -1.682,-20.403 -1.682,-20.403 -6.168,-14.485 -16.604,-14.482 -16.604,-14.482 -5.233,-0.141 -5.861,4.335 -5.861,4.335 -0.494,3.173 1.733,4.319 1.733,4.319 3.582,1.948 5.841,-0.691 5.841,-0.691 1.495,-1.948 0.343,-3.675 0.343,-3.675 -0.919,-1.288 -2.679,-0.723 -2.679,-0.723 -1.394,0.432 -1.246,2.175 -1.246,2.175 -0.008,0.047 -0.039,0.047 -0.039,0.047 -0.062,-0.016 -0.039,-0.039 -0.039,-0.039 0,0 -0.312,-2.136 1.776,-2.356 0,0 4.065,-0.88 8.831,5.058 0,0 6.276,8.011 6.261,18.377 0,0 0.794,19.461 -19.485,24.503 0,0 2.196,3.157 6.074,14.56 0,0 4.392,14.655 8.585,22.578 0,0 5.574,11.302 18.003,6.684 0,0 7.401,-3.251 7.383,-8.623 0,0 0.514,-4.901 -3.925,-5.278 0,0 -4.346,-0.33 -4.299,3.393 0,0 -0.117,4.029 4.626,3.11 0,0 1.659,-0.353 1.355,-1.979 0,0 -0.265,-1.461 -2.266,-0.825 0,0 -0.062,0.008 -0.07,-0.024 0,0 -0.023,-0.035 0.047,-0.055 0,0 0.774,-0.346 1.592,-0.06 0,0 0.733,0.244 0.791,1.387 0,0 0.047,0.919 -0.935,1.437 0,0 -1.192,0.424 -2.126,0.33 0,0 -1.257,2.537 -4.101,3.397 -3.959,1.197 -7.22,0.044 -9.216,-1.548 -2.171,-1.732 -3.575,-4.759 -3.995,-5.501 -0.42,-0.742 -4.065,-8.906 -6.806,-17.686 0,0 -2.399,-7.571 -4.314,-11.529 z"
           fill="#f5ce00"
           id="path48" />
        <path
           d="m 719.481,317.458 c 0,0 -2.523,-0.342 -2.523,1.908 0,0 0.154,3.287 4.159,2.568 0,0 3.948,-0.864 2.547,-5.278 0,0 -0.935,-3.11 -4.673,-2.662 0,0 -3.621,0.165 -5.21,5.113 0,0 -1.215,4.172 0.864,7.751 2.321,3.996 8.193,6.621 11.027,7.783 0,0 11.355,4.461 14.742,7.013 0,0 5.194,3.856 2.897,7.445 0,0 -0.888,1.367 -2.22,1.367 0,0 -1.519,0.071 -1.776,-1.484 0,0 -0.008,-0.031 0.016,-0.071 0,0 0.023,0 0.031,0.039 0,0 0.109,0.95 0.935,1.304 0,0 1.106,0.558 2.266,-0.424 0,0 1.23,-1.178 0.202,-3.008 0,0 -1.347,-2.254 -4.486,-0.919 0,0 -2.765,1.367 -1.628,4.304 0,0 1.012,2.703 4.346,2.696 0,0 2.51,-0.083 4.115,-1.766 2.505,-2.626 2.641,-7.741 0.433,-10.386 0,0 -2.087,-2.812 -6.277,-4.524 -2.427,-0.992 -7.009,-2.984 -11.775,-4.853 -3.35,-1.314 -6.418,-2.887 -8.411,-5.246 0,0 -1.776,-1.979 -2.29,-5.372 0,0 -0.491,-2.545 1.059,-3.102 0,0 0.787,-0.353 1.651,-0.236 0,0 0.023,10e-4 0.029,0.016 0.002,0 0.037,0.039 -0.05,0.024 z"
           fill="#f5ce00"
           id="path49" />
        <g
           fill="none"
           id="g50">
          <path
             d="m 719.27,317.442 c 0,0 -2.788,-0.503 -4.532,2.812 0,0 -1.028,2.136 -1.194,3.372 m -0.908,-11.851 c 0,0 2.792,0.484 1.354,4.434 -1.355,3.723 -3.872,4.944 -4.619,5.462 m 35.836,-119.296 c 0,0 6.75,-4.227 13.644,0.454"
             id="path50" />
        </g>
      </g>
      <g
         fill="none"
         stroke-width="0.623"
         id="g52">
        <path
           d="m 706.798,243.667 c 0,0 0.935,-3.77 -3.364,-10.367 0,0 -2.804,-6.031 -4.299,-9.895 m 9.719,-4.147 c 0,0 2.434,5.929 3.271,8.584 0,0 3.019,7.437 3.659,8.945"
           id="path51" />
      </g>
    </g>
    <g
       stroke-width="0.623"
       id="g55">
      <g
         fill="none"
         stroke-miterlimit="10"
         id="g54">
        <path
           d="m 710.069,247.813 c 0,0 2.538,2.733 2.25,7.351 m -10.661,-10.272 c 0,0 2.804,1.351 2.619,8.796 0,0 -0.282,5.435 3.923,8.168 m -6.922,1.916 c 0,0 8.775,-0.958 9.258,4.445 0,0 0.187,5.183 3.177,5.749 0,0 4.479,0.424 5.367,4.571 m -15.039,-8.765 c 0,0 1.542,2.309 3.037,3.298 m 8.224,-9 c 0,0 2.229,3.377 2.649,5.356 m 7.008,-46.022 c 0,0 2.056,2.796 4.05,4.115 m 4.174,12.441 c 0,0 4.361,2.136 3.614,13.131 0,0 -0.561,6.448 1.246,9.967"
           id="path53" />
      </g>
      <path
         d="m 712.639,232.499 0.28,1.037 c 0,0 7.819,0.33 12.04,-4.995 l -0.452,-1.021 c 0,0 -6.822,-0.346 -11.868,4.979 z"
         fill="#784421"
         id="path54" />
      <path
         d="m 740.807,274.447 c 0,0 27.042,-8.062 37.464,-12.762"
         fill="none"
         stroke-miterlimit="10"
         id="path55" />
    </g>
    <path
       d="m 737.591,223.687 13.375,-5.089 0.316,0.895 -13.378,5.081 z"
       fill="#784421"
       stroke-width="0.38"
       id="path56" />
  </g>
  <g
     fill="none"
     stroke-miterlimit="10"
     id="g65"
     transform="translate(-115.24423)">
    <g
       stroke="#000000"
       stroke-width="0.623"
       id="g57">
      <path
         d="m 739.039,224.143 8.878,43.524 m -7.337,-44.109 10.168,43.324 m -8.438,-43.981 11.121,43.007 m -6.761,-44.663 15.161,32.283 m -13.155,-33.045 16.167,32.094 m -14.682,-32.658 17.488,31.772 m -20.332,16.321 6.862,-2.261 m -12.057,-2.045 c 0,0 20.114,-5.875 35.337,-12.015 m -35.607,14.217 c 0,0 25.492,-6.745 35.606,-11.666 m -27.827,32.399 1.335,4.084 3.649,-1.168 -1.246,-4.047 m 6.558,-1.803 1.335,4.083 3.65,-1.167 -1.247,-4.047 m -21.04,-22.984 -0.315,-5.525 33.425,-10.149 1.807,4.649 m -21.057,1.196 1.821,4.878 m 9.864,-8.426 2.129,4.639 m 0.642,-5.48 1.991,4.389 m 0.655,-5.193 2.093,4.585 m 0.055,-5.237 3.676,-2.073 1.558,4.083 m -3.427,-3.029 1.872,4.227"
         id="path57" />
    </g>
    <g
       stroke="#012169"
       stroke-width="0.831"
       id="g64">
      <path
         d="m 694.649,306.526 c 0,0 -6.542,-6.625 0,-13.114 0,0 -7.102,-3.473 -5.981,-9.065 m 17.663,27.428 c 0,0 -6.775,0.923 -4.766,-12.27 0,0 -2.804,5.23 -3.77,7.918 -0.723,2.012 -0.245,5.26 2.623,7.016 1.146,0.702 7.221,2.284 9.183,-1.74 m -10.84,-21.11 c 0,0 -2.757,2.545 -0.794,7.21 m 3.644,-6.598 c 0,0 0.327,4.524 2.57,7.068 m -0.632,-8.858 c 0,0 -0.021,5.325 3.81,8.623 m -1.905,-10.461 c 0,0 0.036,5.984 4.475,9.66 m 17.569,-0.896 c 0,0 2.243,-4.901 6.962,-4.665 0,0 -2.29,1.037 -2.243,3.33 0,0 -0.28,3.785 3.785,4.162 0,0 3.271,0.424 4.906,-1.367"
         id="path58" />
      <path
         d="m 738.666,319.72 c 0,0 -11.635,-5.466 -10.42,-13.335 0,0 0.467,-4.806 5.166,-7.068"
         id="path59" />
      <path
         d="m 730.956,304.311 c 0,0 -1.028,3.393 1.262,5.749 m 1.354,-8.058 c 0,0 -1.402,3.723 0.935,6.503 m 1.867,-8.31 c 0,0 -1.68,3.079 0.329,5.859 m -10.934,14.466 c 0,0 6.355,5.514 11.308,5.561 m -13.317,-3.817 c 0,0 5.939,4.806 9.651,5.513 m -11.894,-4.152 c 0,0 7.341,6.461 11.894,6.932 m 17.964,5.938 c 0,0 -7.216,3.888 -1.622,7.999 m -2.957,-12.287 c 0,0 8.177,-4.288 11.728,-5.89 m -8.784,8.105 c 0,0 11.822,-7.21 15.326,-8.764 m -9.252,9.235 c 0,0 10.093,-6.738 15.513,-9.66 m -8.831,9.424 c 0,0 6.962,-5.466 13.691,-9.424 m 2.383,-6.832 c 0,0 -3.411,-4.995 -14.625,0 0,0 4.112,-3.732 12.242,-6.625 m 11.321,-21.46 c 0,0 0.919,4.052 -0.062,6.503"
         id="path60" />
      <path
         d="m 769.318,309.966 c 0,0 2.336,-3.44 8.271,-5.136 0,0 1.6,4.005 6.215,3.11 0,0 6.962,-1.367 4.86,-9 0,0 -1.448,-5.702 -9.4,-6.267 m 23.651,-9.56 c 0,0 8.084,1.455 7.944,8.052 0,0 0.654,9.895 -9.766,11.827"
         id="path61" />
      <path
         d="m 809.711,287.176 c 0,0 2.221,-4.823 7.174,-6.803"
         id="path62" />
      <path
         d="m 810.866,277.547 c 0,0 2.208,3.54 3.717,4.055 m -4.872,-1.228 c 0,0 2.081,2.543 2.782,2.968 m -3.457,-0.518 c 0,0 1.096,1.619 2.067,2.129 M 767.449,244.57 c 0,0 1.573,-2.553 5.483,-1.469 m 15.965,20.605 c 0,0 2.477,-10.332 11.121,-6.516"
         id="path63" />
      <path
         d="m 796.513,256.344 c 0,0 0.888,-4.763 -1.262,-7.189 m -4.626,6.857 c 0,0 1.101,1.97 0.159,3.58"
         id="path64" />
    </g>
  </g>
  <path
     d="m 692.95077,361.563 c 0,0 9.719,-4.429 6.729,-11.969 0,0 -0.924,-2.545 -3.079,-2.356 0,0 -3.748,0.188 -2.998,5.183 0,0.001 1.123,4.902 -0.652,9.142 z"
     fill="#64b4d1"
     stroke="#012169"
     stroke-miterlimit="2.613"
     stroke-width="0.623"
     id="path65" />
  <path
     d="m 696.47077,357.103 c 0,0 2.136,-2.047 1.838,-5.717 0,0 -0.125,-0.785 0.267,-0.894 0,0 0.418,-0.175 0.48,0.736 0,0 0.592,3.833 -1.994,6.031 0,0 -0.176,0.22 -0.462,0.157 10e-4,10e-4 -0.306,-0.067 -0.129,-0.313 z"
     fill="#ffffff"
     id="path66" />
  <path
     d="m 706.78177,354.778 c 0,0 6.822,-4.288 3.131,-11.498 0,0 -1.075,-2.073 -3.131,-1.649 0,0 -4.252,1.319 -0.935,7.21 0,0 1.682,3.817 0.935,5.937 z"
     fill="#64b4d1"
     stroke="#012169"
     stroke-miterlimit="2.613"
     stroke-width="0.623"
     id="path67" />
  <path
     d="m 708.48677,345 c 0,0 -0.374,-0.495 -0.117,-0.707 0,0 0.164,-0.236 0.607,0.33 0,0 2.064,2.307 0.421,5.855 0,0 -0.187,0.506 -0.514,0.341 0,0 -0.28,-0.141 -0.023,-0.565 0,0 1.472,-2.921 -0.374,-5.254 z"
     fill="#ffffff"
     id="path68" />
  <path
     d="m 686.36177,359.679 c 0,0 -7.616,-1.932 -6.215,-9.801 0,0 0.748,-3.44 3.972,-2.969 0,0 3.885,0.992 1.355,5.994 0,0 -1.495,3.571 0.888,6.776 z"
     fill="#64b4d1"
     stroke="#012169"
     stroke-miterlimit="2.613"
     stroke-width="0.623"
     id="path69" />
  <path
     d="m 683.41777,350.278 c 0,0 -0.28,-0.377 0.047,-0.542 0,0 0.327,-0.141 0.561,0.318 0,0 0.794,1.26 0.122,2.986 0,0 -0.636,1.196 -0.327,2.445 0,0 0.042,0.353 -0.239,0.401 0,0 -0.269,-0.094 -0.321,-0.353 0,0 -0.38,-1.219 0.274,-2.412 0,-10e-4 0.795,-1.853 -0.117,-2.843 z"
     fill="#ffffff"
     id="path70" />
  <path
     d="m 691.82877,344.785 c 0,0 4.299,-2.415 7.85,0.412 0,0 -0.363,-1.571 -3.079,-2.262 0,0 -1.469,-4.147 -5.581,-3.77 0,0 1.682,2.01 3.925,3.707 0,0 -2.367,0.245 -3.115,1.913 z m 3.178,-11.358 c 0,0 2.92,2.157 4.108,3.602 0,0 1.188,-1.476 2.745,-2.372 0,0 -1.793,-0.236 -2.745,0.571 0,0 -1.492,-1.445 -4.108,-1.801 z"
     id="path71" />
  <g
     fill="none"
     stroke="#000000"
     stroke-miterlimit="10"
     stroke-width="0.831"
     id="g72"
     transform="translate(-115.24423)">
    <path
       d="m 793.305,342.684 c 0,0 -0.312,-1.068 0.436,-2.199 0,0 0.498,-0.817 0.312,-1.885 m 30.589,-63.017 c 0,0 4.548,-0.314 5.296,-3.833 m 7.975,-2.324 c 0,0 -1.585,-0.063 -3.018,1.382 0,0 -1.094,1.634 -2.652,1.445"
       id="path72" />
  </g>
  <path
     d="m 702.66977,262.201 c 0,0 2.367,0 3.676,-1.131 0,0 1.371,-0.942 2.181,0.565 0,0 1.246,2.136 -1.059,3.079 0,0 -2.866,1.445 1.682,4.335 0,0 -5.42,-1.948 -3.24,-4.586 0,0 2.367,-1.696 1.495,-2.325 0,0 -0.249,-0.503 -1.184,0.126 -0.935,0.628 -2.804,0.377 -3.551,-0.063 z"
     id="path73" />
  <path
     d="m 705.88977,204.987 c 0,0 1.069,-1.455 0.632,-5.821 -0.437,-4.366 3.354,-4.868 4.812,-3.613 0,0 1.507,1.305 0.121,4.074 -0.8,1.598 -2.077,3.667 -5.565,5.36 z"
     fill="#64b4d1"
     stroke="#012169"
     stroke-miterlimit="2.613"
     stroke-width="0.623"
     id="path74" />
  <path
     d="m 707.31477,201.727 c 0,0 1.421,-1.528 0.743,-4.845 0,0 -0.005,-0.327 0.183,-0.349 0,0 0.345,-0.087 0.403,0.24 0,0 0.763,3.536 -0.841,5.457 0,0 -0.293,0.284 -0.489,0 10e-4,-10e-4 -0.215,-0.204 10e-4,-0.503 z"
     fill="#ffffff"
     id="path75" />
  <path
     d="m 704.67877,203.399 c 0,0 -0.112,-1.76 -3.154,-4.751 -3.042,-2.991 -0.541,-5.747 1.322,-5.724 0,0 1.93,0.03 2.625,2.971 0.401,1.699 0.741,4.048 -0.793,7.504 z"
     fill="#64b4d1"
     stroke="#012169"
     stroke-miterlimit="2.613"
     stroke-width="0.623"
     id="path76" />
  <path
     d="m 704.20577,199.572 c 0,0 0.054,-2.156 -2.7,-4.406 0,0 -0.224,-0.262 -0.096,-0.401 0,0 0.204,-0.293 0.47,-0.066 0,0 2.966,2.373 3.038,4.965 0,0 -0.033,0.419 -0.373,0.316 -10e-4,-0.002 -0.303,-0.026 -0.339,-0.408 z"
     fill="#ffffff"
     id="path77" />
  <path
     d="m 700.54777,202.076 c 0,0 -0.795,-1.434 -4.552,-2.767 -3.757,-1.333 -2.742,-4.615 -1.161,-5.317 0,0 1.641,-0.722 3.397,1.477 1.015,1.272 2.236,3.112 2.316,6.607 z"
     fill="#64b4d1"
     stroke="#012169"
     stroke-miterlimit="2.613"
     stroke-width="0.623"
     id="path78" />
  <path
     d="m 698.90177,199.44 c 0,0 -0.854,-1.977 -4.294,-2.843 0,0 -0.313,-0.142 -0.255,-0.323 0,0 0.062,-0.353 0.398,-0.26 0,0 3.683,0.886 4.834,3.205 0,0 0.146,0.394 -0.206,0.445 0,0.001 -0.284,0.108 -0.477,-0.224 z"
     fill="#ffffff"
     id="path79" />
  <path
     d="m 702.90177,203.512 c 0,0 -1.752,0.492 -5.775,-1.449 -4.023,-1.941 -5.785,1.437 -5.08,3.244 0,0 0.737,1.87 3.851,1.542 1.798,-0.19 4.206,-0.661 7.004,-3.337 z"
     fill="#64b4d1"
     stroke="#012169"
     stroke-miterlimit="2.613"
     stroke-width="0.623"
     id="path80" />
  <path
     d="m 693.54677,204.794 c 0,0 1.824,1.125 5.134,-0.155 0,0 0.337,-0.065 0.392,0.117 0,0 0.15,0.325 -0.178,0.443 0,0 -3.521,1.404 -5.783,0.171 0,0 -0.344,-0.238 -0.085,-0.484 10e-4,0 0.174,-0.252 0.52,-0.092 z"
     fill="#ffffff"
     id="path81" />
  <path
     d="m 697.01577,190.797 c 0,0 2.009,0.974 1.542,3.33"
     fill="none"
     stroke="#000000"
     stroke-miterlimit="2.613"
     stroke-width="0.831"
     id="path82" />
  <path
     d="m 705.89377,191.127 c 0,0 0.786,2.488 -0.082,3.828"
     fill="none"
     stroke="#000000"
     stroke-miterlimit="10"
     stroke-width="0.831"
     id="path83" />
  <path
     d="m 567.28377,204.987 c 0,0 -1.069,-1.455 -0.632,-5.821 0.437,-4.366 -3.354,-4.868 -4.812,-3.613 0,0 -1.507,1.305 -0.121,4.074 0.8,1.598 2.076,3.667 5.565,5.36 z"
     fill="#64b4d1"
     stroke="#012169"
     stroke-miterlimit="2.613"
     stroke-width="0.623"
     id="path84" />
  <path
     d="m 565.85777,201.727 c 0,0 -1.421,-1.528 -0.743,-4.845 0,0 0.005,-0.327 -0.183,-0.349 0,0 -0.345,-0.087 -0.403,0.24 0,0 -0.763,3.536 0.841,5.457 0,0 0.293,0.284 0.489,0 -0.001,-10e-4 0.216,-0.204 -0.001,-0.503 z"
     fill="#ffffff"
     id="path85" />
  <path
     d="m 568.49377,203.399 c 0,0 0.112,-1.76 3.154,-4.751 3.042,-2.991 0.541,-5.747 -1.322,-5.724 0,0 -1.93,0.03 -2.625,2.971 -0.401,1.699 -0.741,4.048 0.793,7.504 z"
     fill="#64b4d1"
     stroke="#012169"
     stroke-miterlimit="2.613"
     stroke-width="0.623"
     id="path86" />
  <path
     d="m 568.96777,199.572 c 0,0 -0.054,-2.156 2.7,-4.406 0,0 0.224,-0.262 0.096,-0.401 0,0 -0.204,-0.293 -0.47,-0.066 0,0 -2.966,2.373 -3.038,4.965 0,0 0.033,0.419 0.373,0.316 0,-0.002 0.302,-0.026 0.339,-0.408 z"
     fill="#ffffff"
     id="path87" />
  <path
     d="m 572.62477,202.076 c 0,0 0.795,-1.434 4.552,-2.767 3.757,-1.333 2.742,-4.615 1.161,-5.317 0,0 -1.641,-0.722 -3.397,1.477 -1.015,1.272 -2.236,3.112 -2.316,6.607 z"
     fill="#64b4d1"
     stroke="#012169"
     stroke-miterlimit="2.613"
     stroke-width="0.623"
     id="path88" />
  <path
     d="m 574.27077,199.44 c 0,0 0.854,-1.977 4.294,-2.843 0,0 0.313,-0.142 0.255,-0.323 0,0 -0.062,-0.353 -0.398,-0.26 0,0 -3.683,0.886 -4.834,3.205 0,0 -0.146,0.394 0.206,0.445 0,0.001 0.284,0.108 0.477,-0.224 z"
     fill="#ffffff"
     id="path89" />
  <path
     d="m 570.27077,203.512 c 0,0 1.752,0.492 5.775,-1.449 4.023,-1.941 5.785,1.437 5.08,3.244 0,0 -0.737,1.87 -3.851,1.542 -1.798,-0.19 -4.206,-0.661 -7.004,-3.337 z"
     fill="#64b4d1"
     stroke="#012169"
     stroke-miterlimit="2.613"
     stroke-width="0.623"
     id="path90" />
  <path
     d="m 579.62577,204.794 c 0,0 -1.824,1.125 -5.134,-0.155 0,0 -0.337,-0.065 -0.392,0.117 0,0 -0.15,0.325 0.178,0.443 0,0 3.521,1.404 5.783,0.171 0,0 0.344,-0.238 0.085,-0.484 -10e-4,0 -0.173,-0.252 -0.52,-0.092 z"
     fill="#ffffff"
     id="path91" />
  <path
     d="m 576.15677,190.797 c 0,0 -2.009,0.974 -1.542,3.33"
     fill="none"
     stroke="#000000"
     stroke-miterlimit="2.613"
     stroke-width="0.831"
     id="path92" />
  <path
     d="m 567.27877,191.127 c 0,0 -0.786,2.488 0.082,3.828"
     fill="none"
     stroke="#000000"
     stroke-miterlimit="10"
     stroke-width="0.831"
     id="path93" />
  <path
     d="m 654.49477,168.273 c 0,0 1.273,3.634 0.724,6.927 -0.491,2.945 0.179,3.706 1.243,4.289 0.921,0.504 3.055,-0.378 3.312,-2.687 0,0 2.523,4.924 -2.383,8.246 0,0 -3.528,2.168 -6.518,-0.73 -1.054,-1.021 -1.519,-3.84 -1.005,-6.456 0,0 0.772,-3.546 -0.514,-7.186 0,0 2.009,2.144 1.495,6.419 0,0 -1.028,7.67 4.649,7.293 0,0 3.925,-0.047 4.042,-4.806 0,0 -1.472,1.696 -3.294,1.131 -1.291,-0.4 -2.477,-1.649 -2.266,-3.618 0.221,-2.065 0.795,-5.665 0.515,-8.822 z m -6.433,12.597 c 0,0 -0.312,6.063 -5.856,7.539 0,0 0.779,-1.099 -0.467,-4.115 0,0 -1.215,-1.759 -1.121,-4.492 0,0 -1.765,1.381 0.249,5.026 1.215,2.199 0.156,4.838 -0.218,4.932 -0.375,0.094 9.158,-1.257 7.413,-8.89 z m -7.196,-6.032 c 0,0 -1.339,-1.508 -1.433,-4.995 -0.093,-3.487 -0.748,-4.335 -1.215,-4.744 0,0 0.685,3.016 0.498,4.869 -0.187,1.853 0.125,2.922 0.374,3.801 0,0 -3.022,0.471 -4.922,-3.927 -1.816,-4.204 -3.645,-3.864 -4.548,-3.833 0,0 1.053,0.117 3.177,3.958 2.122,3.838 2.711,4.62 8.069,4.871 z m -14.142,-9.11 c 0,0 1.745,4.178 1.807,6.377 0,0 -4.05,-1.351 -5.14,-4.869 0,0 -4.33,1.476 -2.741,6.471 0,0 -3.738,-1.319 -5.42,-4.367 0,0 2.087,1.571 4.018,2.262 0,0 -0.218,-4.021 4.828,-5.529 0,0 0.751,3.602 3.271,4.461 0,0.001 -0.187,-2.261 -0.623,-4.806 z m 6.666,-7.162 c 0,0 1.402,2.042 4.268,2.136 1.37,0.045 2.844,-0.264 4.268,-2.136 0,0 -0.187,3.55 -4.268,3.581 0,0 -4.268,0.157 -4.268,-3.581 z m -17.655,24.267 c 0,0 2.126,1.932 2.57,2.568 0,0 1.495,1.461 2.779,-0.428 0,0 1.637,-3.021 3.646,-2.941 0,0 -1.425,0.99 -3.027,3.846 0,0 -0.431,1.054 -1.623,1.172 -0.558,0.055 -1.262,0.236 -2.327,-0.877 0,0 -0.92,-1.125 -2.018,-3.34 z m 21.923,-38.498 c -4.268,-0.002 -0.67,3.298 -0.67,3.298 0.093,5.23 -4.104,6.84 -6.962,5.325 -2.858,-1.516 -0.623,-5.325 -0.623,-5.325 0,0 -3.224,2.12 -1.168,5.183 2.056,3.063 7.445,1.696 9.423,-1.131 1.978,2.827 7.367,4.194 9.423,1.131 2.056,-3.063 -1.168,-5.183 -1.168,-5.183 0,0 2.235,3.809 -0.623,5.325 -2.858,1.515 -7.056,-0.094 -6.962,-5.325 -10e-4,10e-4 3.597,-3.3 -0.67,-3.298 z m 2.585,-5.654 c 0,0 1.495,2.545 1.168,6.408 0,0 1.355,-3.864 -1.168,-6.408 z m -13.083,5.984 c 0,0 -0.327,-2.78 -3.037,-3.016 0,0 2.289,1.65 3.037,3.016 z m 21.027,0 c 0,0 0.327,-2.78 3.037,-3.016 0,0 -2.29,1.65 -3.037,3.016 z m -25.326,4.241 c 0,0 2.149,0.66 3.458,-0.942 0,0 -2.477,0.659 -3.458,0.942 z m -6.962,-17.058 c 0,0 2.5,-0.283 5,3.44 0,0 -2.477,1.319 -3.084,2.12 0,0 0,-1.225 1.215,-2.309 -10e-4,0.001 -0.468,-1.884 -3.131,-3.251 z m 41.867,0 c 0,0 -2.5,-0.283 -5,3.44 0,0 2.477,1.319 3.084,2.12 0,0 0,-1.225 -1.215,-2.309 0,0.001 0.467,-1.884 3.131,-3.251 z m -19.298,2.778 c 0,0 2.243,0.615 5.046,-0.94 0,0 3.458,-1.838 5.654,0 0,0 -1.916,-0.853 -5.607,0.94 0,0 -3.692,2.024 -5.093,0 z"
     id="path94" />
  <path
     d="m 640.80377,136.89 c 0,0 1.916,-3.36 7.757,-2.693 0,0 -1.589,4.672 -7.757,2.693 z"
     fill="#ffffff"
     id="path95" />
  <ellipse
     cx="644.83282"
     cy="135.84801"
     fill="#784421"
     rx="1.155"
     ry="1.464"
     id="ellipse95" />
  <ellipse
     cx="644.83282"
     cy="135.84801"
     rx="0.68599999"
     ry="0.898"
     id="ellipse96" />
  <path
     d="m 628.28077,129.728 c 0,0 3.691,0.236 5.934,1.649 0,0 2.383,1.414 5.093,-0.613 0,0 2.947,-1.696 4.838,-4.052 0,0 -4.511,3.11 -6.193,3.581 0,0 -1.542,-1.178 -2.149,-2.874 0,0 0.234,-1.272 2.663,-3.628 0,0 -3.271,0.99 -3.925,3.77 0,0 0.607,1.696 1.869,3.016 0,0 -0.607,0.283 -2.196,-0.707 0,-0.001 -3.457,-1.179 -5.934,-0.142 z m 9.377,22.17 c -3.193,2.757 0,2.474 0,2.474 0,0 3.193,0.283 0,-2.474 z m -1.848,-17.272 c 0,0 -2.243,0.615 -5.047,-0.94 0,0 -3.458,-1.838 -5.654,0 0,0 1.916,-0.853 5.607,0.94 10e-4,0 3.692,2.024 5.094,0 z"
     id="path96" />
  <path
     d="m 633.47377,136.89 c 0,0 -1.916,-3.36 -7.757,-2.693 0,0 1.589,4.672 7.757,2.693 z"
     fill="#ffffff"
     id="path97" />
  <ellipse
     cx="629.44482"
     cy="135.84801"
     fill="#784421"
     rx="1.155"
     ry="1.464"
     id="ellipse97" />
  <ellipse
     cx="629.44482"
     cy="135.84801"
     rx="0.68599999"
     ry="0.898"
     id="ellipse98" />
  <path
     d="m 750.47877,106.664 v 211.737 c 0,56.557 -113.062,74.933 -113.062,74.933 0,0 -113.062,-18.376 -113.062,-74.933 V 106.664 Z"
     fill="none"
     stroke="#000000"
     stroke-width="2"
     id="path98" />
  <g
     clip-path="url(#a)"
     id="g7"
     transform="scale(7.3333333,8.2551364)">
    <path
       d="M 0,0 V 30 H 60 V 0 Z"
       fill="#012169"
       id="path3" />
    <path
       d="M 0,0 60,30 M 60,0 0,30"
       stroke="#ffffff"
       stroke-width="6"
       id="path4" />
    <path
       d="M 0,0 60,30 M 60,0 0,30"
       clip-path="url(#b)"
       stroke="#c8102e"
       stroke-width="4"
       id="path5" />
    <path
       d="M 30,0 V 30 M 0,15 h 60"
       stroke="#ffffff"
       stroke-width="10"
       id="path6-6" />
    <path
       d="M 30,0 V 30 M 0,15 h 60"
       stroke="#c8102e"
       stroke-width="6"
       id="path7-4" />
  </g>
</svg>
