<?xml version="1.0" encoding="UTF-8" standalone="no"?>
<svg
   width="1200"
   height="720"
   version="1.1"
   id="svg27"
   xmlns:xlink="http://www.w3.org/1999/xlink"
   xmlns="http://www.w3.org/2000/svg"
   xmlns:svg="http://www.w3.org/2000/svg">
  <defs
     id="defs27" />
  <path
     fill="#f7e017"
     d="M 0,0 H 1200 V 720 H 0 Z"
     id="path1"
     style="stroke-width:0.912871" />
  <path
     d="M 0,50 V 370 L 1200,520 V 350 Z"
     fill="#ffffff"
     id="path2"
     style="stroke-width:0.912871" />
  <path
     d="M 0,220 V 370 L 1200,670 V 520 Z"
     id="path3"
     style="stroke-width:0.912871" />
  <g
     fill="#cf1126"
     id="g21"
     transform="translate(-120)">
    <path
       d="m 695.74,569.72 c -19.36,-2.57 -37.11,-8.73 -49.44,-17.17 -2.39,-1.64 -4.64,-2.98 -4.99,-2.98 -0.36,0 -0.65,1.82 -0.65,4.07 0,6.37 -2.56,9.58 -9,11.25 -6.16,1.6 -15.56,-1.63 -23.18,-7.95 -7.89,-6.55 -17,-11.55 -24.71,-13.55 -6.35,-1.66 -14.78,-1.39 -20.87,0.65 -2.83,0.95 -6.05,2.29 -7.17,2.98 -1.11,0.69 -2.36,1.25 -2.76,1.25 -1.08,0 -0.93,-6.85 0.2,-9.04 1.49,-2.87 5.16,-5.7 9.44,-7.26 2.16,-0.79 3.93,-1.8 3.93,-2.25 0,-0.45 -0.73,-2.1 -1.62,-3.65 -2.9,-5.08 -1.71,-10 3.35,-13.87 5.18,-3.96 13.95,-4.64 21.7,-1.69 1.95,0.74 3.77,1.35 4.04,1.35 1.02,0 0.4,-1.43 -2.41,-5.52 -3.24,-4.74 -3.88,-7.08 -3.48,-12.72 0.52,-7.14 6.34,-12.98 13.47,-13.5 5.82,-0.42 9.44,1.54 18.03,9.72 25.65,24.46 53.54,37.94 86.07,41.59 8.21,0.92 24.73,0.43 34.42,-1.03 29.27,-4.41 58.76,-19.13 81.79,-40.82 6.38,-6.01 9.45,-7.6 14.68,-7.62 4.55,-0.02 7.74,1.45 11,5.05 2.97,3.3 3.98,6.43 3.66,11.44 -0.21,3.21 -0.73,4.79 -2.64,7.9 -2.82,4.59 -2.34,5.01 3.24,2.85 7.54,-2.94 16.83,-1.58 21.84,3.18 4.41,4.19 4.83,8.38 1.4,14.06 -1.25,2.08 -2.27,4.03 -2.27,4.34 0,0.57 0.95,0.84 5.53,1.58 5.99,0.96 9.42,5.41 9.42,12.21 0,2.04 -0.25,3.7 -0.56,3.7 -0.3,0 -2.57,-0.83 -5.04,-1.85 -6.98,-2.88 -10.95,-3.62 -19.11,-3.57 -6.21,0.04 -8.35,0.33 -12.68,1.74 -6.63,2.17 -13.72,6.35 -19.5,11.5 -6.37,5.68 -10.38,7.47 -16.58,7.42 -5.76,-0.06 -9.7,-1.73 -11.78,-5.02 -1.11,-1.76 -1.27,-2.83 -1,-6.81 0.18,-2.59 0.14,-4.71 -0.07,-4.71 -0.22,0 -2.46,1.42 -4.99,3.17 -6.64,4.56 -10.87,6.82 -18.47,9.83 -23.18,9.17 -56.63,13.14 -82.24,9.75 z"
       id="path4" />
    <path
       d="m 706.34,525.17 c -38.58,-3.703 -75.494,-23.798 -97.939,-55.657 -24.37,-33.235 -32.05,-77.117 -24.611,-117.24 3.954,-18.267 11.929,-36.546 25.544,-49.554 -10.85,23.003 -14.516,49.369 -8.73,74.29 8.99,49.753 51.036,91.87 101.34,99.156 19.9,5.761 40.487,-0.324 59.496,-6.493 41.935,-14.78 73.88,-54.583 77.777,-99.08 3.336,-24.077 -0.36,-49.113 -11.207,-70.915 6.183,3.269 13.987,16.087 18.59,24.707 16.002,31.003 16.733,68.155 7.312,101.24 -12.78,42.097 -44.965,78.978 -87.511,92.382 -19.308,6.308 -39.842,8.231 -60.058,7.167 z"
       id="path5" />
    <g
       id="a">
      <path
         d="m 512.02,469.9 c -2.528,-0.396 -5.316,2.092 -4.363,4.697 1.823,2.633 4.964,3.92 7.798,5.18 6.792,2.722 14.18,3.782 21.471,3.605 -2.513,-0.006 0.863,0.026 1.802,0 5.774,0.017 11.516,-1.024 16.944,-2.98 3.018,-1.062 6.864,-2.025 8.1,-5.363 1.207,-2.175 -0.98,-4.347 -3.185,-3.911 -3.072,0.67 -5.944,2.064 -8.99,2.857 -6.572,1.854 -13.494,2.57 -20.303,2.012 -4.98,-0.608 -9.804,-2.2 -14.41,-4.143 -1.597,-0.705 -3.096,-1.733 -4.865,-1.954 z"
         id="path6" />
      <path
         d="m 514.83,459.52 c -2.556,-0.38 -4.758,2.56 -3.692,4.908 1.965,2.848 5.267,4.365 8.356,5.699 5.37,2.148 11.204,3.047 16.975,2.875 -2.191,-0.006 0.753,0.026 1.565,0 a 37.592,37.592 0 0 0 14.325,-2.832 c 2.774,-1.078 6.17,-2.124 7.325,-5.177 0.896,-1.677 0.212,-4.116 -1.9,-4.247 -1.929,-0.096 -3.593,1.132 -5.378,1.683 -6.485,2.681 -13.622,3.818 -20.614,3.214 -4.357,-0.56 -8.52,-2.168 -12.47,-4.03 -1.485,-0.718 -2.82,-1.836 -4.491,-2.093 z"
         id="path7" />
      <path
         d="m 518.28,449.57 c -2.19,-0.263 -3.698,2.209 -3.329,4.182 0.327,1.733 1.883,2.898 3.17,3.96 5.328,3.898 12.082,5.558 18.625,5.34 -2.541,-0.009 3.41,0.042 1.595,-0.007 4.144,-0.017 8.238,-1.03 11.966,-2.825 2.489,-1.082 5.411,-2.336 6.25,-5.177 0.401,-1.324 0.652,-3.227 -0.841,-3.97 -1.564,-0.874 -3.117,0.47 -4.539,1.016 -4.789,2.437 -10.125,3.793 -15.507,3.768 -4.65,0.157 -9.033,-1.8 -13.068,-3.907 -1.464,-0.746 -2.67,-2.043 -4.321,-2.38 z"
         id="path8" />
      <path
         d="m 481.53,302.7 c -3.257,3.26 -0.77,9.271 -0.946,13.543 1.688,13.158 3.785,26.484 8.697,38.87 6.015,12.102 18.79,18.573 26.533,29.268 2.767,5.155 1.785,11.355 2.368,16.994 0.458,15.366 0.316,30.743 0.047,46.111 6.939,3.482 14.474,6.986 22.456,5.647 4.73,-1.13 13.512,-1.832 14.496,-6.543 -0.383,-26.5 -0.63,-53.01 -0.983,-79.506 -2.69,-8.119 -10.951,-12.32 -17.129,-17.515 A 155.468,155.468 0 0 1 522.881,333.47 c -2.622,-4.417 -12.868,-6.009 -9.161,1.677 2.173,6.654 7.72,11.61 9.109,18.602 0.303,3.831 4.877,10.879 0.973,13.114 -2.484,-4.222 -6.082,-7.815 -10.682,-9.958 -4.432,-3.304 -11.759,-4.68 -13.359,-10.517 -1.175,-8.28 -5.415,-15.782 -10.887,-21.986 1.41,-7.436 0.005,-16.737 -6.423,-21.49 z"
         id="path9" />
      <path
         d="m 491.44,304.19 c -2.963,0.478 -2.862,4.254 -1.491,6.239 1.458,4.288 1.855,8.945 1.066,13.409 5.267,6.166 9.347,13.543 10.576,21.64 0.03,3.044 3.233,4.051 5.309,5.555 4.871,3.102 10.348,5.351 14.686,9.233 0.913,0.976 1.602,2.027 0.957,0.035 -0.677,-2.547 -1.026,-5.358 -3.021,-7.285 -2.735,-2.94 -6.15,-5.563 -10.133,-6.46 -0.332,-4.114 -2.292,-7.893 -4.102,-11.532 -2.006,-3.479 -4.102,-7.206 -7.54,-9.462 0.138,-6.098 0.038,-12.495 -2.586,-18.122 -0.77,-1.446 -1.903,-3.163 -3.72,-3.25 z"
         id="path10" />
      <path
         d="m 499.73,306.62 c -2.064,0.613 -1.67,3.159 -1.016,4.716 0.989,4.316 1.144,8.774 1.063,13.184 3.791,3 6.163,7.35 8.322,11.587 1.353,2.83 2.636,5.751 3.155,8.865 3.076,1.018 5.768,2.946 8.171,5.077 -0.952,-2.882 -3.076,-5.113 -4.504,-7.744 -1.551,-2.737 -3.033,-5.592 -3.69,-8.693 -2.958,-3.157 -4.587,-7.63 -3.941,-11.952 0.133,-4.776 -1.41,-9.71 -4.606,-13.31 -0.805,-0.793 -1.766,-1.67 -2.954,-1.73 z"
         id="path11" />
      <path
         d="m 509.16,307.97 c -1.122,0.198 -1.805,1.266 -2.406,2.137 -0.233,0.873 0.837,1.812 1.008,2.76 a 21.771,21.771 0 0 1 1.416,10.426 c -0.086,2.502 0.809,4.946 2.084,7.065 0.368,-1.563 1.816,-2.687 3.386,-2.84 0.571,-0.101 1.411,0.188 1.078,-0.683 -0.399,-4.786 -1.128,-9.598 -2.8,-14.12 -0.649,-1.614 -1.385,-3.314 -2.784,-4.42 -0.284,-0.201 -0.623,-0.374 -0.982,-0.325 z"
         id="path12" />
    </g>
    <use
       xlink:href="#a"
       transform="matrix(-1,0,0,1,1440,0)"
       id="use12" />
    <path
       d="m 715.67,475.98 c -13.493,-1.285 -25.667,-11.12 -29.829,-24 0.224,-2.219 2.987,1.241 4.292,1.474 2.45,1.36 5.1,2.48 7.92,2.654 3.558,1.529 5.757,5.035 9.152,6.863 1.577,1.228 7.155,3.64 6.119,-0.264 -1.307,-2.04 -2.206,-4.625 -1.081,-6.962 1.892,-4.15 4.802,-7.763 7.73,-11.226 2.153,-0.72 3.595,3.527 5.134,4.957 2.131,3.279 4.7,7.28 3.447,11.352 -1.22,1.509 -2.021,6.047 1.241,4.522 4.022,-1.77 7.316,-4.742 10.651,-7.517 2.919,-2.039 6.654,-2.183 9.713,-3.97 1.417,-0.36 4.37,-3.195 4.986,-1.623 -1.676,4.488 -4.482,8.507 -7.482,12.211 -4.86,5.55 -11.432,9.725 -18.786,10.902 -4.346,0.796 -8.806,0.964 -13.207,0.628 z"
       id="path13" />
    <path
       d="m 731.53,460.22 c 0.297,-2.708 -0.32,-5.473 -1.703,-7.935 -2.123,-4.326 -5.121,-8.166 -8.046,-11.96 -2.757,-1.616 -4.287,3.657 -6.12,5.17 -2.857,4.277 -6.443,8.657 -6.617,14.036 -1.607,2.502 -4.604,-2.04 -5.896,-3.535 -2.468,-3.491 -4.336,-7.62 -4.03,-11.987 -0.292,-7.036 1.057,-14.041 3.62,-20.581 1.935,-5.583 5.076,-11.006 4.757,-17.105 0.224,-4.59 -0.708,-9.658 -4.426,-12.745 -3.538,-2.776 2.291,-3.368 4.143,-1.928 3.168,0.212 4.882,5.448 7.777,4.152 1.153,-2.735 1.382,-5.997 3.76,-8.13 2.333,-3.196 4.772,1.356 5.57,3.488 1.648,1.873 -0.092,6.507 2.583,6.628 3.206,-2.247 5.492,-6.022 9.591,-6.844 1.663,-0.949 4.504,-0.127 2.312,1.785 -3.034,2.844 -5.626,6.4 -6.179,10.63 -0.928,5.308 0.4,10.69 2.713,15.47 4.446,9.39 7.885,19.997 5.636,30.445 -1.043,4.644 -4.198,8.645 -8.032,11.34 -0.484,0.293 -1.25,0.273 -1.413,-0.394 z"
       id="path14" />
    <path
       d="m 726.73,389.63 c -1.456,-2.624 -3.224,-5.21 -5.673,-6.995 -2.381,-0.005 -3.85,2.999 -5.468,4.573 -1.134,2.11 -2.512,5.638 -5.305,2.88 -4.444,-2.594 -5.23,-8.276 -5.202,-12.959 -0.28,-7.59 2.777,-14.674 5.492,-21.587 1.728,-4.328 1.302,-9.199 0.248,-13.634 -1.327,-5.092 -5.414,-8.623 -8.56,-12.595 0.214,-1.536 4.235,-0.697 5.748,-0.405 3.36,0.852 5.367,3.825 7.87,5.926 1.782,-0.54 1.055,-4.14 1.884,-5.833 0.062,-2.382 3.233,-5.522 4.541,-2.112 1.959,2.168 -0.062,6.465 2.469,7.815 2.411,-0.893 3.6,-3.529 5.866,-4.72 2.23,-1.52 5.378,-1.69 7.778,-0.497 0.845,2.213 -2.64,4.055 -3.65,5.977 -4.051,5.006 -5.475,11.91 -3.74,18.112 1.377,4.865 3.814,9.406 4.655,14.434 1.013,5.653 0.98,11.59 -0.484,17.16 -0.874,3.38 -3.802,5.64 -6.825,7.044 -0.746,-0.694 -1.14,-1.714 -1.644,-2.583 z"
       id="path15" />
    <path
       d="m 711.61,326.89 c -3.36,-2.46 -4.47,-4.81 -4.47,-9.46 0,-2.38 0.44,-3.67 2.01,-5.83 2.31,-3.2 1.89,-4.21 -1.38,-3.27 -5.26,1.51 -7.77,0.13 -7.95,-4.35 -0.08,-2.19 0.38,-3.12 3.33,-6.66 2.36,-2.84 3.22,-4.33 2.75,-4.8 -0.46,-0.46 -3.25,1.96 -8.98,7.79 -4.57,4.65 -9.71,9.4 -11.42,10.56 -9.84,6.64 -19.24,7.67 -23.53,2.56 -2.2,-2.61 -2.08,-4.08 0.46,-5.66 1.17,-0.72 3.14,-2.38 4.39,-3.69 2.95,-3.07 11.74,-9.41 16.1,-11.61 3.54,-1.79 4.38,-3 2.08,-3 -2.98,0 -12.54,6.22 -19.79,12.88 -2.13,1.97 -5.2,4.16 -6.81,4.87 -3.62,1.6 -10.73,2.19 -13.89,1.15 -2.23,-0.74 -6.3,-4.58 -6.3,-5.95 0,-0.36 0.93,-1.16 2.06,-1.77 1.13,-0.6 3.16,-2.07 4.5,-3.24 5.8,-5.09 16.79,-10.33 25.51,-12.16 2.77,-0.58 1.75,-1.98 -1.34,-1.84 -5.99,0.26 -17.88,5.83 -24.98,11.69 -8.32,6.86 -20.87,6.21 -24.91,-1.29 -0.7,-1.29 -1.11,-2.5 -0.91,-2.69 0.19,-0.19 2.66,-0.93 5.49,-1.65 3.06,-0.77 9.12,-3.28 14.91,-6.17 9.11,-4.54 11.81,-5.51 18.08,-6.52 2.82,-0.45 2.97,-1.83 0.23,-2.15 -3.53,-0.42 -8.94,1.35 -18.5,6.05 -12.28,6.04 -15.72,7.08 -22.19,6.7 -5.9,-0.36 -9.23,-1.87 -14.02,-6.4 -3.13,-2.97 -7.57,-10.51 -6.7,-11.38 0.21,-0.21 1.65,0 3.2,0.45 1.72,0.51 6.65,0.85 12.59,0.86 8.31,0.02 10.52,-0.2 14.95,-1.48 7.41,-2.14 17.26,-7.15 24,-12.18 12.89,-9.64 23.4,-13.51 36.8,-13.57 12.37,-0.05 20.24,2.81 27.21,9.88 2.36,2.39 4.37,3.94 4.7,3.61 0.31,-0.31 0.65,-4.49 0.75,-9.29 0,0 3.64,-0.35 4.41,0.67 0,7.79 0.09,8.4 1.22,8.4 0.74,0 1.53,-0.76 2.02,-1.94 1.06,-2.55 4.98,-6.04 9.17,-8.16 9.05,-4.59 24.71,-4.73 37.29,-0.34 5.3,1.86 11.18,5.18 16.78,9.5 5.62,4.32 17.11,10.1 23.9,12.03 6.87,1.95 18.98,2.44 25.19,1.03 2.56,-0.58 4.96,-1.06 5.34,-1.06 2.29,0 -1.61,7.63 -6.19,12.1 -8.37,8.18 -19.26,8.14 -34.58,-0.12 -9.55,-5.14 -20.97,-7.95 -20.97,-5.15 0,0.58 0.6,0.97 1.49,0.97 3.32,0 9.73,2.23 18.67,6.47 9.67,4.6 15.1,6.54 18.32,6.54 2.34,0 2.41,1.45 0.23,4.65 -2.31,3.41 -6.23,5.1 -11.77,5.09 -5.29,-0.02 -8.23,-1.18 -12.96,-5.11 -7.91,-6.58 -27.62,-13.92 -26.86,-10 0.15,0.78 1.1,1.26 3.13,1.57 6.86,1.05 14.91,4.89 23.15,11.06 2.54,1.91 5.18,3.79 5.85,4.19 1.13,0.66 1.15,0.86 0.26,2.53 -1.48,2.76 -5.21,4.9 -9.25,5.32 -5.23,0.54 -9.78,-1.02 -14.49,-4.96 -9.94,-8.32 -19.31,-14.34 -22.31,-14.34 -2.45,0 -1.35,1.35 2.97,3.64 5.68,3.01 11.52,7.08 15.82,11.03 2.03,1.88 4.32,3.74 5.08,4.15 1.8,0.96 1.73,2.37 -0.25,4.96 -2.02,2.64 -5.36,3.8 -9.69,3.34 -8.64,-0.91 -15.38,-5.08 -25.97,-16.07 -4.14,-4.29 -7.83,-7.8 -8.21,-7.8 -1.41,0 -0.58,1.91 2.15,4.97 3.38,3.78 4.03,5.91 2.75,8.98 -1.13,2.72 -3.01,3.35 -6.87,2.31 -3.95,-1.07 -4.57,-0.1 -1.98,3.12 3.86,4.81 3.29,10.7 -1.44,14.75 -1.47,1.25 -3.01,2.28 -3.43,2.28 -0.41,0 -1.45,-1.07 -2.32,-2.38 -3.04,-4.62 -5.71,-4.59 -8.67,0.08 -1.03,1.63 -1.9,2.95 -1.93,2.94 -0.04,-0.01 -1.43,-1.01 -3.08,-2.23 z"
       id="path16" />
    <path
       d="m 726.67,233.03 -5.13,4.06 -4.6,-3.47 v 27.74 l 9.73,0.12 z"
       id="path17" />
    <path
       d="m 694.89,204.25 c -1.02,13.11 -4.35,22.26 -8.98,32.35 l 11.1,-10.29 7.72,9.17 8.36,-9.33 8.53,7.88 8.2,-8.2 8.52,9.97 7.4,-8.2 12.54,9 c -4.55,-10.09 -10.71,-18.64 -9.94,-32.84 -12.15,9.03 -41.02,10.66 -53.45,0.49 z"
       id="path18" />
    <path
       d="m 716.95,197.56 c -4.46,0.08 -9.16,0.14 -13.39,0.97 -2.93,0.58 -5.59,1.53 -7.81,3.1 0.36,8.53 41,12.09 51.9,0.16 -2.29,-1.67 -5.09,-2.66 -8.17,-3.26 -4.07,-0.79 -8.57,-0.87 -12.84,-0.94 0,2.34 0.02,4.69 0.02,7.04 l -9.71,-0.03 z"
       id="path19" />
    <path
       d="m 724.9,153.97 -6.31,0.05 v 49.38 l 6.44,0.03 z"
       id="path20" />
    <path
       d="m 724.89,155.24 -2.41,23.64 24.32,11.88 -12.31,-16.46 16.81,-5.45 z m -2.71,-6.16 c -3.69,0 -6.42,1.38 -6.42,3.02 0,1.64 2.73,3.03 6.42,3.03 3.69,0 6.4,-1.39 6.4,-3.03 0,-1.64 -2.71,-3.02 -6.4,-3.02 z"
       id="path21" />
  </g>
  <g
     fill="#f7e017"
     id="g27"
     transform="translate(-120)">
    <path
       d="m 711.05,563.82 c 3.99,-1.32 6.26,-3.74 7.89,-8.4 0.81,-2.32 1.36,-4.73 1.22,-5.36 -0.34,-1.49 -2.06,-1.41 -3.96,0.17 -1.3,1.09 -1.46,1.64 -1.09,3.86 0.95,5.6 -1.04,6.99 -11.64,8.13 -1.05,0.11 -4.09,-0.07 -6.77,-0.4 -5.04,-0.63 -6.84,-0.13 -5.01,1.39 0.55,0.46 1.95,1.08 3.11,1.37 2.83,0.73 13.22,0.24 16.25,-0.76 z m 21.97,-0.93 c 0.6,-0.55 2.66,-1.5 4.58,-2.12 2.56,-0.82 3.88,-1.7 4.96,-3.31 3.11,-4.63 2.53,-8.62 -2.04,-14 -2.48,-2.92 -3.58,-2.84 -5.56,0.4 -1.71,2.8 -1.67,2.98 0.79,3.62 1.29,0.33 2.53,1.28 3.21,2.45 2.68,4.64 1.89,7.51 -2.08,7.54 -3.6,0.03 -4.59,0.54 -5.56,2.87 -0.51,1.21 -0.92,2.5 -0.92,2.87 0,0.98 1.36,0.81 2.62,-0.32 z m -7.21,-5.24 c 0.68,-1.84 0.92,-5.15 0.84,-11.9 -0.05,-5.14 -0.25,-9.5 -0.45,-9.7 -0.6,-0.6 -3.56,1.31 -3.95,2.54 -0.2,0.64 0.13,2.12 0.73,3.28 0.92,1.79 1.04,3.46 0.76,10.47 -0.36,8.86 0.22,10.35 2.07,5.31 z"
       id="path22" />
    <path
       d="m 708.89,553.43 c 0.36,-1.65 0.82,-5.03 1.03,-7.5 0.21,-2.47 0.72,-5.59 1.12,-6.94 1.02,-3.46 -0.01,-4.37 -2.74,-2.43 l -2.03,1.45 0.42,4.97 c 0.39,4.48 -0.32,12.83 -1.35,16.07 -0.28,0.86 0.12,0.64 1.25,-0.68 0.91,-1.06 1.95,-3.29 2.3,-4.94 z m -15.01,2.41 c 3.651,-3.055 3.232,-8.27 4.04,-12.52 -0.084,-2.825 1.804,-6.212 0.586,-8.683 -3.412,0.624 -5.515,3.856 -3.769,7.075 0.146,3.738 0.013,7.807 -1.908,11.113 -1.57,2.162 -6.542,1.623 -6.314,-1.44 1.248,-4.607 -4.271,-2.366 -6.426,-1.158 -1.666,1.16 -5.182,1.245 -3.96,-1.657 -0.807,-3.866 -5.78,-1.448 -8.482,-1.465 -2.552,-0.046 -0.21,-5.17 -3.873,-4.27 -6.806,-0.538 -14.32,0.06 -20.21,-4.052 -3.449,-1.658 -2.937,-5.806 -1.142,-8.49 2.144,-3.664 2.756,-8.248 6.16,-11.092 3.368,-3.231 -3.178,-1.867 -4.653,-0.778 -3.282,1.796 -0.233,6.423 -2.919,8.989 -1.57,2.66 -3.636,6.336 -7.27,5.83 -5.24,-0.992 -8.26,-5.866 -12.017,-9.133 -3.218,-0.642 -1.408,5.222 0.253,6.455 3.288,2.462 7.13,4.256 11.092,5.318 3.944,-0.63 4.072,4.534 7.445,5.344 6.187,2.883 13.083,3.747 19.833,4.099 2.65,0.22 1.16,4.942 4.645,4.01 1.948,0.504 6.348,-0.726 6.569,1.537 -2.953,3.506 2.834,3.428 4.975,2.8 2.742,-0.419 6.246,-1.466 6.971,2.293 2.29,2.413 6.492,2.057 9.28,0.676 0.391,-0.227 0.76,-0.495 1.093,-0.8 z"
       id="path23" />
    <path
       d="m 634.12,525.57 c 1.11,-1.41 2.77,-4.26 3.69,-6.34 0.91,-2.09 2.28,-4.46 3.03,-5.27 1.76,-1.9 0.78,-3.07 -2.06,-2.44 -1.5,0.33 -2.11,0.88 -2.36,2.18 -0.85,4.24 -2.39,8.58 -3.76,10.6 -2.48,3.66 -2.54,3.81 -1.52,3.81 0.53,0 1.87,-1.14 2.98,-2.54 z m -37.46,-23.48 c -2.8,0 -2.92,1.77 -0.19,2.72 1.32,0.46 2.44,1.57 3.34,3.38 2.66,5.29 4.22,6.23 11.28,6.84 l 4.53,0.41 0.22,2.75 c 0.11,1.52 0.47,2.78 0.82,2.78 0.35,0 2.1,-0.76 3.87,-1.66 3.32,-1.68 6.47,-5.6 6.47,-8.03 0,-1.59 -2.65,-3.31 -5.06,-3.31 -1.07,0 -3.11,0.86 -4.72,2.03 -5.04,3.65 -10.43,2.91 -13.38,-1.84 -2.42,-3.92 -4.95,-6.07 -7.18,-6.07 z m 24.46,9.75 c 1.34,0 1.67,0.99 0.94,2.88 -0.5,1.3 -2.13,1.34 -2.62,0.06 -0.58,-1.51 0.23,-2.94 1.68,-2.94 z m 189.72,-6.15 c -1.83,0.07 -2.37,0.47 -3.53,2.19 -1.9,2.82 -2.09,8.93 -0.34,11.09 1.09,1.34 1.25,1.37 3.56,0.41 3.22,-1.35 3.76,-1.3 3.75,0.43 -0.02,4.42 -6.36,12.94 -13,17.47 -1.79,1.22 -3.39,2.58 -3.56,3.03 -0.48,1.26 1.98,0.98 5,-0.56 4.12,-2.1 9.53,-7.62 11.75,-11.97 1.76,-3.47 2.01,-4.65 2.22,-10.72 0.19,-5.59 0.04,-7.23 -0.91,-9.09 -1.06,-2.09 -1.4,-2.28 -4.06,-2.28 -0.32,0 -0.61,-0.01 -0.88,0 z m 0.22,3.9 c 1.38,0 1.62,0.31 1.78,2.29 0.14,1.64 -0.15,2.64 -1.06,3.46 -1.24,1.12 -1.34,1.11 -2.44,-0.56 -1.54,-2.36 -0.59,-5.19 1.72,-5.19 z m -30.36,42.68 c 5.85,-2.88 9.3,-6.12 11.52,-10.81 1.05,-2.23 1.91,-4.33 1.91,-4.69 0,-0.81 -2.88,-2.15 -4.61,-2.15 -1.72,0 -2.07,-1.19 -1.33,-4.48 0.72,-3.21 -0.15,-7.23 -1.56,-7.23 -0.51,0 -1.41,0.75 -2.01,1.66 -0.92,1.41 -0.97,2.01 -0.29,4.06 1,3.04 0.21,5.31 -2.51,7.25 -1.29,0.92 -2,1.98 -2,3.01 0,0.87 0.11,1.58 0.24,1.58 0.14,0 1.56,-0.74 3.16,-1.63 l 2.92,-1.63 1.72,1.35 c 0.94,0.74 1.72,1.95 1.72,2.69 0,3.56 -10.15,9.54 -17.12,10.1 -3.71,0.3 -4.34,0.17 -5.63,-1.11 -1.05,-1.05 -1.35,-1.93 -1.09,-3.17 0.2,-0.95 0.56,-2.68 0.8,-3.84 0.64,-3.1 -0.69,-2.68 -2.99,0.94 -1.89,2.99 -2.45,6.18 -1.39,7.86 0.87,1.37 6.65,2.68 10.74,2.43 2.57,-0.15 5.11,-0.87 7.8,-2.19 z m 39.04,-21.78 c 3.68,-3.67 5.24,-8.14 5.26,-15.05 l 0.01,-5.19 3.04,-1.44 c 3.95,-1.88 7.69,-5.62 7.69,-7.7 0,-2.14 -0.95,-2.03 -2.67,0.3 -1.25,1.69 -2.92,2.71 -9.03,5.52 -1.54,0.71 -1.64,1.09 -1.99,7.55 -0.41,7.45 -1.42,10.24 -5.58,15.33 -2.55,3.1 -2.64,3.51 -0.87,3.51 0.73,0 2.59,-1.27 4.14,-2.83 z m -40.08,-4.16 c 0.35,-1.07 -1.68,-1.83 -2.56,-0.96 -0.37,0.37 -0.47,1.01 -0.22,1.42 0.58,0.93 2.42,0.62 2.78,-0.46 z m 55.27,-14.31 c 0.36,-1.07 -1.68,-1.83 -2.55,-0.96 -0.38,0.38 -0.48,1.02 -0.23,1.43 0.58,0.93 2.42,0.62 2.78,-0.47 z m -66.52,-38.74 c -1.43,0.68 -2.171,2.224 -3.165,3.403 -0.715,0.486 -0.142,0.94 0.27,1.399 2.522,2.717 3.59,6.386 4.788,9.808 1.177,4.04 2.66,8.379 1.428,12.588 -0.484,1.613 -1.752,3.282 -3.646,2.746 -3.03,-0.189 -6.012,-0.993 -9.051,-0.961 -2.705,0.14 -4.796,2.602 -7.562,2.334 -1.767,0.116 -1.692,-3.618 -3.334,-2.62 -0.813,1.948 -0.412,4.12 -0.51,6.18 0.307,0.294 1.166,0.037 1.68,0.123 h 5.446 c 0.385,1.88 0.337,4.036 1.687,5.532 1.89,0.672 4.016,0.091 5.812,-0.643 1.925,-0.896 2.183,-3.212 2.727,-5.016 0.579,-1.938 3.117,-1.43 4.615,-2.191 3.665,-1.07 6.067,-4.879 5.852,-8.627 -0.237,-5.722 -2.42,-11.105 -4.076,-16.52 -0.833,-2.387 -1.41,-4.876 -2.377,-7.205 -0.113,-0.2 -0.345,-0.37 -0.584,-0.33 z M 759.34,506 c 2.036,-0.133 2.921,2.37 2.49,4.03 -0.762,2.255 -3.535,0.809 -4.096,-0.817 -1.03,-1.451 -0.393,-3.404 1.606,-3.213 z"
       id="path24" />
    <path
       d="m 683.94,487.22 c -0.91,-0.02 -1.93,0.32 -2.94,1.03 -5.31,3.72 -6.67,8.12 -3.06,9.84 2.65,1.27 1.98,2.76 -2.19,4.85 -5.97,2.98 -11.24,2.61 -21.25,-1.53 -2.46,-1.02 -3.1,-0.63 -2.53,1.62 0.55,2.21 2.57,3.42 7.59,4.56 5.4,1.24 11.93,0.84 16.13,-0.97 2.05,-0.88 4.48,-2.73 6.53,-4.96 l 3.25,-3.57 3.78,0.47 c 4.66,0.57 4.75,0.62 4.75,2.85 0,1.77 0.1,1.81 4.38,2.21 2.41,0.23 5.58,0.44 7.06,0.44 1.89,0.01 2.96,0.34 3.59,1.22 0.84,1.17 1.34,1.23 8.38,0.6 6.58,-0.6 7.87,-0.55 10.84,0.46 2.11,0.72 4.43,1.01 6.19,0.82 5.04,-0.57 11.99,-4.69 13,-7.72 0.12,-0.37 1.95,-1.02 4.06,-1.44 5.09,-1.02 5.31,-2.13 0.56,-2.72 -2.06,-0.26 -5.15,-1.01 -6.87,-1.69 -1.73,-0.68 -4.09,-1.25 -5.25,-1.25 -2.56,0 -4.97,1.6 -4.97,3.25 0,1.08 0.38,1.19 3.41,0.88 2.85,-0.29 3.68,-0.13 5.18,1.06 0.99,0.78 1.65,1.7 1.44,2.03 -0.67,1.09 -6.62,3.8 -9.25,4.22 -1.76,0.28 -3.18,0.09 -4.56,-0.62 -2.31,-1.2 -5.71,-1.38 -6.35,-0.35 -0.27,0.45 -1,0.16 -2,-0.78 l -1.56,-1.47 -3.53,1.47 c -3.59,1.49 -4.91,1.43 -4.91,-0.28 0,-0.78 -1.05,-0.87 -6.34,-0.53 -5.83,0.38 -6.44,0.28 -7.53,-0.94 -1.01,-1.12 -1.03,-1.51 -0.31,-2.66 0.66,-1.06 0.66,-1.52 0.03,-2.15 -0.63,-0.63 -1.45,-0.62 -3.75,0 -5.8,1.55 -7.44,0.68 -7.44,-3.85 0,-2.72 -1.56,-4.37 -3.56,-4.4 z m -1.44,4.16 c 0.31,0 0.57,0.19 0.97,0.59 0.51,0.51 0.78,1.4 0.56,1.97 -0.52,1.35 -2.98,1.3 -3.5,-0.06 -0.25,-0.66 0.07,-1.4 0.81,-1.94 0.52,-0.38 0.85,-0.57 1.16,-0.56 z"
       id="path25" />
    <path
       d="m 672.1,495.6 c 3.53,-2.24 3.45,-2.07 3.96,-8.29 0.35,-4.39 0.29,-4.72 -0.9,-4.72 -1.73,0 -2.63,1.9 -2.63,5.52 0,2.32 -0.36,3.36 -1.6,4.59 -2.94,2.94 -10.24,1.6 -11.16,-2.05 -0.31,-1.25 0.09,-2.38 1.62,-4.55 3.19,-4.53 2.47,-5.64 -1.44,-2.2 -2.69,2.35 -3.17,2.42 -2.66,0.39 0.47,-1.87 -0.51,-2.61 -2.7,-2.06 -1.12,0.28 -1.73,0.98 -2,2.34 -0.26,1.33 -0.87,2.07 -1.93,2.33 -1.77,0.45 -4.79,-1.23 -4.79,-2.66 0,-1.06 4.52,-6.58 10.32,-12.6 2.19,-2.28 3.98,-4.4 3.98,-4.72 0,-0.32 -1.17,-0.58 -2.6,-0.58 -2.09,0 -2.6,0.23 -2.6,1.2 0,0.66 -2.92,4.49 -6.5,8.52 -7.46,8.4 -8.08,10.15 -4.39,12.39 2.97,1.82 6.78,1.68 9.77,-0.35 l 2.42,-1.65 v 2.99 c 0,3.82 0.76,5.19 3.76,6.78 3.77,1.99 8.33,1.75 12.07,-0.62 z m 156.56,-51.91 c -2.767,1.652 -0.602,5.124 -0.183,7.429 -1.13,3.146 -5.171,3.993 -8.118,4.577 -4.173,0.692 -7.13,4.183 -8.718,7.892 -0.86,2.41 -2.937,6.145 -5.2,2.477 -1.966,-1.993 -5.582,-3.573 -7.908,-1.246 -1.766,1.682 -2.214,4.157 -2.873,6.402 -1.043,-1.726 -1.51,-4.296 -3.72,-4.842 -3.528,0.496 -2.253,4.944 -0.594,6.778 1.507,2.138 2.956,4.958 1.478,7.497 -1.303,3.051 -5.81,5.11 -8.457,2.5 -2.472,-1.306 -0.819,-5.966 -3.254,-6.222 -1.204,0.87 -1.303,5.746 -3.23,3.103 -1.39,-2.259 -0.653,-5.353 -2.355,-7.385 -2.01,0.25 -3.627,3.712 -2.958,5.571 2.682,3.618 3.785,8.156 4.831,12.467 0.652,1.727 -0.095,5.227 1.52,5.91 1.12,-2.778 0.08,-5.93 0.96,-8.735 2.619,-0.329 5.531,0.866 8.277,0.23 3.928,-0.509 6.964,-3.824 8.342,-7.355 0.417,-2.654 -0.079,-5.347 -0.153,-8.017 3.104,0.481 6.329,0.471 9.314,1.48 1.48,2.27 -0.47,5.448 -0.88,7.929 -1.558,5.052 -5.515,8.72 -9.365,12.097 -1.61,0.953 -1.827,3.478 0.551,2.118 5.174,-2.212 9.03,-6.898 11.248,-11.97 1.62,-3.901 0.318,-8.247 1.375,-12.237 1.562,-2.996 5.321,-2.365 8.103,-2.356 2.88,-0.11 5.337,-3.464 4.375,-6.261 -0.916,-3.247 2.519,-4.811 4.866,-5.972 3.112,-1.57 5.498,-4.759 5.257,-8.358 -0.128,-1.84 -0.037,-5.332 -2.531,-5.5 z m -11.031,18.75 c 3.334,0.886 -0.603,7.252 -2.375,3.219 -0.545,-1.54 0.75,-3.274 2.375,-3.219 z m -15.47,4.56 c 4.338,-0.253 2.78,6.081 -0.885,3.205 -1.9,-0.955 -1.272,-3.323 0.885,-3.205 z M 645.1,491.48 c 0.12,-0.63 -0.2,-1.08 -0.77,-1.08 -1.21,0 -1.94,1.06 -1.37,1.98 0.59,0.95 1.89,0.41 2.14,-0.9 z m 50.84,-5.68 c 0,-0.93 -0.35,-1.28 -1.13,-1.13 -1.7,0.32 -1.89,2.48 -0.22,2.48 0.93,0 1.35,-0.42 1.35,-1.35 z m -62.91,-30.52 c -2.029,-0.417 -3.305,1.3 -4,2.938 -1.517,2.55 -3.37,5.158 -6.093,6.509 -1.958,0.544 -4.094,-0.2 -5.782,-1.21 -2.015,-1.004 -1.557,-3.427 -2.42,-5.101 -1.457,-1.144 -4.04,0.492 -3.984,2.271 -0.16,2.386 2.072,3.764 3.925,4.687 1.574,0.965 3.857,1.501 4.487,3.453 -0.044,1.659 0.623,3.557 2.643,2.917 2.26,-0.038 2.845,2.715 1.933,4.367 -0.93,1.861 -1.557,4.041 -1.112,6.115 1.08,0.91 2.183,-1.53 2.965,-2.227 l 1.594,-2.125 c 3.999,0.217 7.993,0.727 12.001,0.584 2.85,-0.051 5.278,-1.81 7.09,-3.875 2.564,-2.68 4.67,-5.829 7.598,-8.142 2.084,-0.508 0.964,-4.433 -1.213,-3.3 -1.96,0.736 -2.578,2.952 -3.936,4.364 -2.315,2.802 -4.677,5.647 -7.594,7.843 -2.125,0.881 -4.571,0.497 -6.754,0 -0.91,-0.796 1.809,-1.445 2.188,-2.33 1.252,-1.25 2.739,-2.438 3.464,-4.082 -0.694,-1.514 -2.816,-1.637 -4.312,-1.667 -3.686,0.442 -6.501,3.536 -10.223,3.827 -2.826,0.1 -1.355,-2.96 -0.082,-4.004 2.492,-2.96 5.185,-5.746 7.786,-8.608 0.738,-0.888 3.409,-1.732 1.7,-2.98 -0.597,-0.215 -1.242,-0.215 -1.869,-0.224 z m 1.813,14.969 c 1.858,1.045 -1.186,2.757 -2.469,2.523 -1.682,0.504 -1.712,-1.212 -0.218,-1.553 0.84,-0.438 1.727,-0.894 2.686,-0.97 z m -5.72,3.906 c 1.059,-0.02 3.275,0.996 1.194,1.647 -1.45,1.123 -3.087,-1.143 -1.193,-1.647 z"
       id="path26" />
    <path
       d="m 674.15,476.74 c 0,-1.41 -2.53,-1.21 -2.81,0.22 -0.18,0.92 0.11,1.14 1.29,0.97 0.84,-0.12 1.52,-0.65 1.52,-1.19 z m 112.05,-9.92 c 0.26,-1.35 -1.62,-2.25 -2.61,-1.26 -0.99,0.99 -0.08,2.87 1.26,2.61 0.62,-0.12 1.23,-0.73 1.35,-1.35 z M 611.82,453.09 c 1.76,-1.51 1.78,-1.61 1.02,-4.93 -1.08,-4.65 -1.01,-5.15 0.76,-5.59 2.24,-0.57 7.93,2.48 9.19,4.92 0.98,1.89 0.95,2.02 -0.71,3.56 -1.79,1.65 -1.78,3.58 0.01,3.58 1.48,0 5.57,-3.87 5.57,-5.26 0,-1.93 -4.54,-6.49 -8.13,-8.16 -2.22,-1.04 -4.44,-1.52 -7.01,-1.53 -4.6,0 -5.22,0.99 -3.98,6.34 1.46,6.27 -0.52,7.12 -5.57,2.39 -3.75,-3.51 -5.23,-7.16 -5.21,-12.91 0.01,-6.17 2.37,-9.22 7.69,-9.94 3.53,-0.47 3.44,-1.3 -0.19,-1.84 -5.3,-0.8 -9.78,2.74 -11.48,9.06 -1.89,7.01 2.44,15.55 10.1,19.95 4.01,2.3 5.61,2.37 7.94,0.36 z m 208.84,-7.69 c 0.43,-0.43 0.78,-1.4 0.78,-2.15 0,-0.75 0.73,-2.36 1.62,-3.57 0.9,-1.21 1.63,-2.45 1.63,-2.75 0,-1.23 -2.03,-1.19 -3.63,0.08 -1.64,1.28 -2.87,1.31 -2.87,0.06 0,-0.31 0.78,-0.95 1.74,-1.42 2.38,-1.16 2.58,-2.31 0.57,-3.23 -2.58,-1.17 -5.17,0.97 -5.44,4.5 -0.17,2.36 0.02,2.77 1.84,3.84 1.66,0.98 1.97,1.5 1.69,2.9 -0.48,2.43 0.53,3.28 2.07,1.74 z m 19.63,-2.22 c 1.44,-1.29 2.61,-2.76 2.61,-3.25 0,-0.49 1.24,-1.79 2.76,-2.88 4.31,-3.1 5.26,-6.23 3.33,-11.04 -0.75,-1.89 -3.11,-4.5 -8.24,-9.12 -3.94,-3.56 -7.57,-6.47 -8.04,-6.47 -1.4,0 -1.15,5.15 0.27,5.6 2.56,0.82 4.11,1.87 8.14,5.5 4.68,4.23 6.84,8.18 5.66,10.38 -1.13,2.13 -2.63,1.47 -6.76,-2.96 -2.17,-2.33 -4.32,-4.23 -4.76,-4.23 -0.48,0.01 -0.82,0.85 -0.82,2.03 0,1.48 0.79,2.89 2.93,5.27 3.49,3.88 3.83,6.21 1.21,8.27 -0.94,0.74 -1.91,1.35 -2.15,1.35 -0.23,0 -1,-1.16 -1.7,-2.57 -1.46,-2.96 -10.39,-12.39 -11.73,-12.39 -0.61,0 -0.91,0.76 -0.91,2.26 0,1.81 0.36,2.45 1.8,3.19 1.77,0.92 6.15,5.33 10.55,10.65 1.26,1.52 2.5,2.75 2.77,2.76 0.26,0 1.65,-1.06 3.08,-2.35 z m 8.76,-25.07 c -0.58,-1.87 -12.56,-14.2 -13.79,-14.2 -0.64,0 -0.84,0.76 -0.69,2.72 0.17,2.38 0.43,2.79 2.07,3.22 1.02,0.27 4.18,2.75 7.01,5.5 2.82,2.75 5.3,4.84 5.5,4.63 0.2,-0.2 0.16,-1.04 -0.1,-1.87 z M 777.5,556.89 a 1.7805,1.6324584 0 1 1 -3.561,0 1.7805,1.6324584 0 1 1 3.561,0 z m 6.29,-2.1 a 1.7805,1.6324584 0 1 1 -3.561,0 1.7805,1.6324584 0 1 1 3.561,0 z"
       id="path27" />
  </g>
</svg>
