<?xml version="1.0" encoding="UTF-8" standalone="no"?>
<svg
   width="1200"
   height="720"
   viewBox="-2100 -1470 4754.717 2852.8302"
   version="1.1"
   id="svg51"
   xmlns:xlink="http://www.w3.org/1999/xlink"
   xmlns="http://www.w3.org/2000/svg"
   xmlns:svg="http://www.w3.org/2000/svg">
  <defs
     id="defs8">
    <path
       id="i"
       d="m -31.5,0 h 33 a 30,30 0 0 0 30,-30 v -10 a 30,30 0 0 0 -30,-30 h -33 z m 13,-13 h 19 a 19,19 0 0 0 19,-19 v -6 a 19,19 0 0 0 -19,-19 h -19 z"
       fill-rule="evenodd" />
    <path
       id="j"
       transform="translate(-31.5)"
       d="M 0,0 H 63 V -13 H 12 V -31 H 52 V -43 H 12 V -57 H 60 V -70 H 0 Z" />
    <path
       id="l"
       d="m -26.25,0 h 52.5 v -12 h -40.5 v -16 h 33 v -12 h -33 V -51 H 25 v -12 h -51.25 z" />
    <path
       id="k"
       d="m -31.5,0 h 12 v -48 l 14,48 h 11 l 14,-48 V 0 h 12 V -70 H 14 L 0,-22 -14,-70 h -17.5 z" />
    <path
       id="b"
       d="M 0,0 A 31.5,35 0 0 0 0,-70 31.5,35 0 0 0 0,0 m 0,-13 a 18.5,22 0 0 0 0,-44 18.5,22 0 0 0 0,44"
       fill-rule="evenodd" />
    <path
       id="c"
       d="m -31.5,0 h 13 v -26 h 28 a 22,22 0 0 0 0,-44 h -40 z m 13,-39 h 27 a 9,9 0 0 0 0,-18 h -27 z"
       fill-rule="evenodd" />
    <path
       id="n"
       d="m -15.75,-22 c 0,7 6.75,10.5 16.75,10.5 10,0 14.74,-3.25 14.75,-7.75 C 15.75,-33.5 -31,-24.5 -30.75,-49.5 -30.5,-71 -6,-70 3,-70 c 9,0 26,4 25.75,21.25 H 13.5 c 0,-7.5 -7,-10.25 -15,-10.25 -7.75,0 -13.25,1.25 -13.25,8.5 -0.25,11.75 46.25,4 46.25,28.75 C 31.5,-3.5 13.5,0 0,0 -11.5,0 -31.55,-4.5 -31.5,-22 Z" />
    <use
       transform="scale(31.5)"
       width="100%"
       height="100%"
       xlink:href="#f"
       id="o" />
    <use
       transform="scale(26.25)"
       width="100%"
       height="100%"
       xlink:href="#f"
       id="p" />
    <use
       transform="scale(21)"
       width="100%"
       height="100%"
       xlink:href="#f"
       id="r" />
    <use
       transform="scale(15)"
       width="100%"
       height="100%"
       xlink:href="#f"
       id="q" />
    <use
       transform="scale(10.5)"
       width="100%"
       height="100%"
       xlink:href="#f"
       id="s" />
    <g
       id="m">
      <clipPath
         id="a">
        <path
           d="m -31.5,0 v -70 h 63 V 0 Z M 0,-47 v 12 h 31.5 v -12 z"
           id="path1" />
      </clipPath>
      <use
         width="100%"
         height="100%"
         clip-path="url(#a)"
         xlink:href="#b"
         id="use1" />
      <path
         d="m 5,-35 h 26.5 v 10 H 5 Z"
         id="path2" />
      <path
         d="m 21.5,-35 h 10 V 0 h -10 z"
         id="path3" />
    </g>
    <g
       id="h">
      <use
         width="100%"
         height="100%"
         xlink:href="#c"
         id="use3" />
      <path
         d="m 28,0 c 0,-10 0,-32 -15,-32 H -6 c 22,0 22,22 22,32"
         id="path4" />
    </g>
    <g
       id="f"
       fill="#ffffff">
      <g
         id="e">
        <path
           id="d"
           transform="rotate(18,0,-1)"
           d="M 0,-1 V 0 H 0.5" />
        <use
           transform="scale(-1,1)"
           width="100%"
           height="100%"
           xlink:href="#d"
           id="use4" />
      </g>
      <use
         transform="rotate(72)"
         width="100%"
         height="100%"
         xlink:href="#e"
         id="use5" />
      <use
         transform="rotate(-72)"
         width="100%"
         height="100%"
         xlink:href="#e"
         id="use6" />
      <use
         transform="rotate(144)"
         width="100%"
         height="100%"
         xlink:href="#e"
         id="use7" />
      <use
         transform="rotate(-144)"
         width="100%"
         height="100%"
         xlink:href="#e"
         id="use8" />
    </g>
  </defs>
  <clipPath
     id="g">
    <circle
       r="735"
       id="circle8"
       cx="0"
       cy="0" />
  </clipPath>
  <path
     d="M -2100,-1470 H 2654.717 V 1382.8302 H -2100 Z"
     fill="#009b3a"
     id="path8"
     style="stroke-width:1.0481" />
  <path
     d="m -1465.6415,-39.6226 1743,1113 1743,-1113 -1743,-1113 z"
     fill="#fedf00"
     id="path9" />
  <circle
     r="735"
     fill="#002776"
     id="circle9"
     cx="277.35849"
     cy="-39.622601" />
  <path
     d="m -2205,1470 a 1785,1785 0 0 1 3570,0 h -105 a 1680,1680 0 1 0 -3360,0 z"
     clip-path="url(#g)"
     fill="#ffffff"
     id="path10"
     transform="translate(277.3585,-39.6226)" />
  <g
     transform="translate(-142.6415,1430.3774)"
     fill="#009b3a"
     id="g24">
    <use
       transform="rotate(-7)"
       y="-1697.5"
       width="100%"
       height="100%"
       xlink:href="#b"
       id="use10" />
    <use
       transform="rotate(-4)"
       y="-1697.5"
       width="100%"
       height="100%"
       xlink:href="#h"
       id="use11" />
    <use
       transform="rotate(-1)"
       y="-1697.5"
       width="100%"
       height="100%"
       xlink:href="#i"
       id="use12" />
    <use
       transform="rotate(2)"
       y="-1697.5"
       width="100%"
       height="100%"
       xlink:href="#j"
       id="use13" />
    <use
       transform="rotate(5)"
       y="-1697.5"
       width="100%"
       height="100%"
       xlink:href="#k"
       id="use14" />
    <use
       transform="rotate(9.75)"
       y="-1697.5"
       width="100%"
       height="100%"
       xlink:href="#l"
       id="use15" />
    <use
       transform="rotate(14.5)"
       y="-1697.5"
       width="100%"
       height="100%"
       xlink:href="#c"
       id="use16" />
    <use
       transform="rotate(17.5)"
       y="-1697.5"
       width="100%"
       height="100%"
       xlink:href="#h"
       id="use17" />
    <use
       transform="rotate(20.5)"
       y="-1697.5"
       width="100%"
       height="100%"
       xlink:href="#b"
       id="use18" />
    <use
       transform="rotate(23.5)"
       y="-1697.5"
       width="100%"
       height="100%"
       xlink:href="#m"
       id="use19" />
    <use
       transform="rotate(26.5)"
       y="-1697.5"
       width="100%"
       height="100%"
       xlink:href="#h"
       id="use20" />
    <use
       transform="rotate(29.5)"
       y="-1697.5"
       width="100%"
       height="100%"
       xlink:href="#j"
       id="use21" />
    <use
       transform="rotate(32.5)"
       y="-1697.5"
       width="100%"
       height="100%"
       xlink:href="#n"
       id="use22" />
    <use
       transform="rotate(35.5)"
       y="-1697.5"
       width="100%"
       height="100%"
       xlink:href="#n"
       id="use23" />
    <use
       transform="rotate(38.5)"
       y="-1697.5"
       width="100%"
       height="100%"
       xlink:href="#b"
       id="use24" />
  </g>
  <use
     x="-600"
     y="-132"
     width="100%"
     height="100%"
     xlink:href="#o"
     id="use25"
     transform="translate(277.3585,-39.6226)" />
  <use
     x="-535"
     y="177"
     width="100%"
     height="100%"
     xlink:href="#o"
     id="use26"
     transform="translate(277.3585,-39.6226)" />
  <use
     x="-625"
     y="243"
     width="100%"
     height="100%"
     xlink:href="#p"
     id="use27"
     transform="translate(277.3585,-39.6226)" />
  <use
     x="-463"
     y="132"
     width="100%"
     height="100%"
     xlink:href="#q"
     id="use28"
     transform="translate(277.3585,-39.6226)" />
  <use
     x="-382"
     y="250"
     width="100%"
     height="100%"
     xlink:href="#p"
     id="use29"
     transform="translate(277.3585,-39.6226)" />
  <use
     x="-404"
     y="323"
     width="100%"
     height="100%"
     xlink:href="#r"
     id="use30"
     transform="translate(277.3585,-39.6226)" />
  <use
     x="228"
     y="-228"
     width="100%"
     height="100%"
     xlink:href="#o"
     id="use31"
     transform="translate(277.3585,-39.6226)" />
  <use
     x="515"
     y="258"
     width="100%"
     height="100%"
     xlink:href="#o"
     id="use32"
     transform="translate(277.3585,-39.6226)" />
  <use
     x="617"
     y="265"
     width="100%"
     height="100%"
     xlink:href="#r"
     id="use33"
     transform="translate(277.3585,-39.6226)" />
  <use
     x="545"
     y="323"
     width="100%"
     height="100%"
     xlink:href="#p"
     id="use34"
     transform="translate(277.3585,-39.6226)" />
  <use
     x="368"
     y="477"
     width="100%"
     height="100%"
     xlink:href="#p"
     id="use35"
     transform="translate(277.3585,-39.6226)" />
  <use
     x="367"
     y="551"
     width="100%"
     height="100%"
     xlink:href="#r"
     id="use36"
     transform="translate(277.3585,-39.6226)" />
  <use
     x="441"
     y="419"
     width="100%"
     height="100%"
     xlink:href="#r"
     id="use37"
     transform="translate(277.3585,-39.6226)" />
  <use
     x="500"
     y="382"
     width="100%"
     height="100%"
     xlink:href="#p"
     id="use38"
     transform="translate(277.3585,-39.6226)" />
  <use
     x="365"
     y="405"
     width="100%"
     height="100%"
     xlink:href="#r"
     id="use39"
     transform="translate(277.3585,-39.6226)" />
  <use
     x="-280"
     y="30"
     width="100%"
     height="100%"
     xlink:href="#p"
     id="use40"
     transform="translate(277.3585,-39.6226)" />
  <use
     x="200"
     y="-37"
     width="100%"
     height="100%"
     xlink:href="#r"
     id="use41"
     transform="translate(277.3585,-39.6226)" />
  <use
     y="330"
     width="100%"
     height="100%"
     xlink:href="#o"
     id="use42"
     transform="translate(277.3585,-39.6226)" />
  <use
     x="85"
     y="184"
     width="100%"
     height="100%"
     xlink:href="#p"
     id="use43"
     transform="translate(277.3585,-39.6226)" />
  <use
     y="118"
     width="100%"
     height="100%"
     xlink:href="#p"
     id="use44"
     transform="translate(277.3585,-39.6226)" />
  <use
     x="-74"
     y="184"
     width="100%"
     height="100%"
     xlink:href="#r"
     id="use45"
     transform="translate(277.3585,-39.6226)" />
  <use
     x="-37"
     y="235"
     width="100%"
     height="100%"
     xlink:href="#q"
     id="use46"
     transform="translate(277.3585,-39.6226)" />
  <use
     x="220"
     y="495"
     width="100%"
     height="100%"
     xlink:href="#p"
     id="use47"
     transform="translate(277.3585,-39.6226)" />
  <use
     x="283"
     y="430"
     width="100%"
     height="100%"
     xlink:href="#r"
     id="use48"
     transform="translate(277.3585,-39.6226)" />
  <use
     x="162"
     y="412"
     width="100%"
     height="100%"
     xlink:href="#r"
     id="use49"
     transform="translate(277.3585,-39.6226)" />
  <use
     x="-295"
     y="390"
     width="100%"
     height="100%"
     xlink:href="#o"
     id="use50"
     transform="translate(277.3585,-39.6226)" />
  <use
     y="575"
     width="100%"
     height="100%"
     xlink:href="#s"
     id="use51"
     transform="translate(277.3585,-39.6226)" />
</svg>
