<?xml version="1.0" encoding="UTF-8" standalone="no"?>
<svg
   width="1000"
   height="600"
   viewBox="0 0 315 189"
   version="1.1"
   id="svg5"
   xmlns:xlink="http://www.w3.org/1999/xlink"
   xmlns="http://www.w3.org/2000/svg"
   xmlns:svg="http://www.w3.org/2000/svg">
  <defs
     id="defs1">
    <clipPath
       id="a">
      <path
         d="m 0,0 h 200 v 608 h 8 v 284 l -8,8 H 0 Z"
         id="path1" />
    </clipPath>
  </defs>
  <path
     fill="#ce1720"
     d="M 0,0 H 315 V 189 H 0 Z"
     id="path2"
     style="stroke-width:0.912871" />
  <g
     transform="matrix(0.21,0,0,0.21,2,0)"
     clip-path="url(#a)"
     fill="#ffffff"
     id="g4">
    <g
       id="c">
      <path
         id="b"
         d="M 36,0 V 14 H 27 V 28 H 16 V 44 H 8 V 57 H -8 V 24 H 8 V 6 H -8 V 0 Z m 26,77 v 15 h -8 v 12 H 46 V 92 H 38 V 77 H 30 V 57 h 8 V 42 h 8 V 30 h 8 v 12 h 8 v 15 h 8 V 77 Z M 45,76 H 55 V 58 H 45 Z M 19,183 h 8 v -18 h -8 z m 54,0 h 8 V 165 H 73 Z M -8,305 H 6 v 13 h 6 v 16 h 9 v 15 h 12 v -15 h 9 v -16 h 8 V 305 H 38 v -15 h 21 v 10 h 13 v 17 h 11 v 19 h -8 v 14 h -7 v 13 h -6 v 14 h -9 v 12 h -7 v 11 h -9 v 14 H 24 V 399 H 15 V 385 H 8 v -9 H -8 V 353 H 8 V 333 H -8 Z" />
      <use
         xlink:href="#b"
         transform="matrix(-1,0,0,1,200,0)"
         id="use2" />
      <path
         d="m 96,0 v 32 h 8 V 0 h 32 v 14 h -8 v 14 h -12 v 16 h -8 V 57 H 92 V 44 H 84 V 28 H 72 V 14 H 64 V 0 Z M 94,274 V 263 H 88 V 250 H 81 V 236 H 73 V 222 H 65 V 212 H 56 V 198 H 44 v 14 h -9 v 10 h -7 v 14 h -8 v 14 h -6 v 13 H 8 v 17 H -8 V 236 H 8 V 216 H -8 V 183 H 8 v 14 h 10 v 14 h 10 v -14 h 10 v -14 h 8 V 165 H 38 V 151 H 28 V 137 H 18 v 14 H 8 v 14 H -8 V 124 H 8 V 105 H -8 V 77 H 8 v 13 h 8 v 16 h 11 v 13 h 9 v 15 h 7 v 12 h 14 v -12 h 7 v -15 h 9 V 106 H 84 V 90 h 8 V 77 h 16 v 13 h 8 v 16 h 11 v 13 h 9 v 15 h 7 v 12 h 14 v -12 h 7 v -15 h 9 v -13 h 11 V 90 h 8 V 77 h 16 v 28 h -16 v 19 h 16 v 41 h -16 v -14 h -10 v -14 h -10 v 14 h -10 v 14 h -8 v 18 h 8 v 14 h 10 v 14 h 10 v -14 h 10 v -14 h 16 v 33 h -16 v 20 h 16 v 44 h -16 v -17 h -6 v -13 h -6 v -14 h -8 v -14 h -7 v -10 h -9 v -14 h -12 v 14 h -9 v 10 h -8 v 14 h -8 v 14 h -7 v 13 h -6 v 11 z m 2,-167 v 27 h 8 v -27 z m -4,58 V 151 H 82 V 137 H 72 v 14 H 62 v 14 h -8 v 18 h 8 v 14 h 10 v 14 h 10 v -14 h 10 v -14 h 16 v 14 h 10 v 14 h 10 v -14 h 10 v -14 h 8 v -18 h -8 v -14 h -10 v -14 h -10 v 14 h -10 v 14 z m 4,46 v 27 h 8 v -27 z"
         id="path3" />
    </g>
    <use
       xlink:href="#c"
       transform="matrix(1,0,0,-1,0,900)"
       id="use3" />
    <path
       d="M -8,408 H 8 v 14 h 7 v 8 h 8 v 14 h 7 v 12 h -7 v 14 h -8 v 8 H 8 v 14 H -8 Z m 216,0 v 84 h -16 v -14 h -7 v -8 h -8 v -14 h -7 v -12 h 7 v -14 h 8 v -8 h 7 V 408 Z M 62,459 h 8 v -18 h -8 z m 76,0 v -18 h -8 v 18 z M 96,400 h 8 v -18 h -8 z m 0,100 v 18 h 8 V 500 Z M 46,425 h 14 v -11 h 10 v -10 h 5 v -10 h 6 v -14 h 8 v -14 h 4 v -13 h 14 v 13 h 4 v 14 h 8 v 14 h 6 v 10 h 5 v 10 h 10 v 11 h 14 v 50 h -14 v 11 h -10 v 10 h -5 v 10 h -6 v 14 h -8 v 14 h -4 v 13 H 93 V 534 H 89 V 520 H 81 V 506 H 75 V 496 H 70 V 486 H 60 V 475 H 46 Z m 50,9 v -15 h -8 v -10 h -8 v 25 h 8 v 9 h 5 v 14 h -5 v 9 h -8 v 25 h 8 v -10 h 8 v -15 h 8 v 15 h 8 v 10 h 8 v -25 h -8 v -9 h -5 v -14 h 5 v -9 h 8 v -25 h -8 v 10 h -8 v 15 z"
       id="path4" />
  </g>
  <path
     fill="#007c30"
     d="m 44,126 h 271 v 63 H 44 Z"
     id="path5" />
</svg>
