<?xml version="1.0" encoding="UTF-8" standalone="no"?>
<svg
   width="1085"
   height="651"
   viewBox="0 0 8680 5208"
   version="1.1"
   id="svg2"
   xmlns="http://www.w3.org/2000/svg"
   xmlns:svg="http://www.w3.org/2000/svg">
  <defs
     id="defs2" />
  <rect
     style="fill:#ff0000;fill-opacity:1;stroke-width:3.54296"
     id="rect2"
     width="8680"
     height="5208"
     x="0"
     y="0" />
  <path
     fill="#ffffff"
     d="M 2016,0 H 6208 V 5208 H 2016 Z m 2186,4634 -45,-863 c -2.7943,-60.622 51.1916,-108.2852 111,-98 l 859,151 -116,-320 c -9.6496,-26.1057 -1.6079,-55.458 20,-73 l 941,-762 -212,-99 c -29.6253,-13.9995 -44.1986,-47.8611 -34,-79 l 186,-572 -542,115 c -30.2748,6.3122 -60.8049,-9.5802 -73,-38 l -105,-247 -423,454 c -19.8668,20.9549 -51.1759,26.2915 -76.8627,13.101 C 4666.4506,2202.9105 4652.5451,2174.3556 4658,2146 l 204,-1052 -327,189 c -32.4337,19.0091 -74.1821,6.6222 -91,-27 l -332,-652 -332,652 c -16.8179,33.6222 -58.5663,46.0091 -91,27 l -327,-189 204,1052 c 5.4549,28.3556 -8.4506,56.9105 -34.1373,70.101 -25.6868,13.1905 -56.9959,7.8539 -76.8627,-13.101 l -423,-454 -105,247 c -12.1951,28.4198 -42.7252,44.3122 -73,38 l -542,-115 186,572 c 10.1986,31.1389 -4.3747,65.0005 -34,79 l -212,99 941,762 c 21.6079,17.542 29.6496,46.8943 20,73 l -116,320 859,-151 c 59.8084,-10.2852 113.7943,37.378 111,98 l -45,863 z"
     id="path2" />
</svg>
