<?xml version="1.0" encoding="UTF-8" standalone="no"?>
<svg
   width="1000"
   height="600"
   viewBox="0 0 8000 4800"
   version="1.1"
   id="svg13"
   xmlns:xlink="http://www.w3.org/1999/xlink"
   xmlns="http://www.w3.org/2000/svg"
   xmlns:svg="http://www.w3.org/2000/svg">
  <defs
     id="defs2">
    <clipPath
       id="a">
      <path
         d="M 0,0 H 12 V 6 H 0 Z"
         id="path1" />
    </clipPath>
    <clipPath
       id="b">
      <path
         d="M 0,0 V 1.5 H 8 V 4 Z M 6,0 H 3 v 4 h -5 z"
         id="path2" />
    </clipPath>
  </defs>
  <g
     transform="scale(666.66667,800)"
     stroke-width="0.6"
     fill="#012169"
     clip-path="url(#a)"
     id="g8"
     style="display:inline">
    <path
       d="M 0,0 H 12 V 6 H 0 Z"
       id="path3" />
    <path
       stroke="#ffffff"
       d="M 0,0 6,3 M 0,3 6,0"
       id="path4" />
    <path
       stroke="#c8102e"
       stroke-width="0.4"
       clip-path="url(#b)"
       d="M 0,0 6,3 M 0,3 6,0"
       id="path5" />
    <path
       stroke="#ffffff"
       stroke-width="1"
       d="M 3,0 V 4 M 0,1.5 h 7"
       id="path6" />
    <path
       stroke="#c8102e"
       d="M 3,0 V 4 M 0,1.5 h 7"
       id="path7" />
    <path
       d="M 0,3 H 6 V 0 h 6 V 6 H 0 Z"
       id="path8" />
  </g>
  <g
     transform="translate(5984,2400)"
     id="g13">
    <g
       id="d">
      <path
         id="c"
         fill="#ffffff"
         d="m 0,-1992 81,249 h 261 l -211,153 81,249 -212,-153 -212,153 81,-249 -211,-153 h 261 z" />
      <use
         transform="rotate(24)"
         xlink:href="#c"
         id="use8" />
      <use
         transform="rotate(48)"
         xlink:href="#c"
         id="use9" />
    </g>
    <use
       transform="rotate(72)"
       xlink:href="#d"
       id="use10" />
    <use
       transform="rotate(144)"
       xlink:href="#d"
       id="use11" />
    <use
       transform="rotate(-144)"
       xlink:href="#d"
       id="use12" />
    <use
       transform="rotate(-72)"
       xlink:href="#d"
       id="use13" />
  </g>
</svg>
