<?xml version="1.0" encoding="UTF-8" standalone="no"?>
<svg
   width="1000"
   height="600"
   version="1.1"
   id="svg7"
   xmlns:xlink="http://www.w3.org/1999/xlink"
   xmlns="http://www.w3.org/2000/svg"
   xmlns:svg="http://www.w3.org/2000/svg">
  <path
     d="M 9.7905795e-4,600 H 998.61267 V 0 H 9.7905795e-4 Z"
     fill="#003893"
     id="path1"
     style="stroke-width:0.989412" />
  <g
     fill="#ffffff"
     id="g3"
     transform="translate(10e-4)">
    <path
       d="M -2.094205e-5,453.36 H 999.53786 V 402.32 H -2.094205e-5 Z"
       id="path2"
       style="stroke-width:0.989474" />
    <path
       d="M -2.094205e-5,425.999 H 999.90893 V 300.23 H -2.094205e-5 Z"
       id="path3"
       style="stroke-width:0.989474" />
  </g>
  <path
     d="M 9.7905795e-4,402.295 H 1000 v -51.04 H 0 Z"
     fill="#cf2027"
     id="path4"
     style="stroke-width:0.989474" />
  <g
     fill="#f7d116"
     transform="matrix(1.33333,0,0,-1.33333,-409.398,401.36)"
     id="g7">
    <path
       d="m 487.011,-0.701 4.764,-14.636 h 15.426 l -12.477,-9.05 4.767,-14.639 -12.48,9.047 -12.482,-9.047 4.769,14.639 -12.48,9.05 h 15.423 m 3.492,91.24 4.767,-14.633 h 15.426 l -12.48,-9.045 4.767,-14.636 -12.48,9.045 -12.48,-9.045 4.767,14.636 -12.477,9.045 h 15.423 m 222.873,14.585 4.767,-14.604 h 15.426 l -12.48,-9.029 4.767,-14.604 -12.48,9.026 -12.48,-9.026 4.767,14.604 -12.48,9.029 h 15.423 m 3.344,-61.993 4.767,-14.607 h 15.429 l -12.48,-9.029 4.767,-14.607 -12.482,9.026 -12.477,-9.026 4.764,14.607 -12.477,9.029 h 15.423"
       id="path5" />
    <use
       xlink:href="#a"
       id="use5" />
    <path
       d="m 594.818,-75.184 4.764,-14.671 h 15.426 l -12.477,-9.066 4.767,-14.671 -12.48,9.066 -12.482,-9.066 4.769,14.671 -12.48,9.066 h 15.423"
       id="path6" />
    <use
       xlink:href="#a"
       x="-67.424004"
       y="-21.877001"
       id="use6" />
    <path
       d="m 662.105,-53.358 4.764,-14.671 h 15.429 l -12.48,-9.066 4.769,-14.673 -12.482,9.066 -12.48,-9.066 4.767,14.673 -12.48,9.066 h 15.423 m -127.64,12.933 4.767,-14.671 h 15.426 l -12.48,-9.066 4.767,-14.673 -12.48,9.069 -12.48,-9.069 4.767,14.673 -12.48,9.066 h 15.426 m 135.224,204.247 4.767,-14.671 h 15.426 l -12.477,-9.066 4.767,-14.671 -12.482,9.066 -12.48,-9.066 4.767,14.671 -12.477,9.066 h 15.423"
       id="path7" />
  </g>
  <defs
     id="defs7">
    <path
       id="a"
       d="m 594.762,154.675 4.767,-14.671 h 15.429 l -12.482,-9.066 4.769,-14.671 -12.482,9.066 -12.48,-9.066 4.767,14.671 -12.477,9.066 h 15.421" />
  </defs>
</svg>
