<?xml version="1.0" encoding="UTF-8" standalone="no"?>
<svg
   width="900"
   height="540"
   version="1.1"
   id="svg2"
   xmlns:xlink="http://www.w3.org/1999/xlink"
   xmlns="http://www.w3.org/2000/svg"
   xmlns:svg="http://www.w3.org/2000/svg">
  <defs
     id="defs2" />
  <path
     fill="#ffffff"
     d="M 0,0 H 900 V 540 H 0 Z"
     id="path1"
     style="stroke-width:0.948683" />
  <path
     id="a"
     d="m 463.1,476.741 a 1.01,1.01 0 0 1 -0.347,-0.245 l -0.125,-0.117 a 21.523,21.523 0 0 1 -1.582,-1.643 c -1.332,-1.513 -3.119,-3.728 -4.69,-5.685 -3.115,-3.883 -5.689,-7.228 -6.174,-7.858 l -0.793,-1.032 -7.767,-2.395 -5.671,-2.644 3.03,-3.406 10.408,4.456 7.767,1.594 14.363,10.564 -0.011,0.009 c -0.029,0.024 -2.089,1.738 -4.136,3.6 -0.913,0.83 -2.064,1.9 -2.877,2.783 -0.335,0.359 -0.646,0.74 -0.93,1.14 a 9.004,9.004 0 0 0 -0.465,0.88 m -53.34,-16.02 a 39.63,39.63 0 0 1 -19.895,-5.567 h -0.007 v -0.008 a 10.24,10.24 0 0 1 2.878,-3.1 c 1.941,-1.425 5.442,-3.128 11.1,-3.15 h 0.117 c 6.7,0 14.9,2.278 24.373,6.771 a 36.022,36.022 0 0 1 -18.566,5.054 l 0.01,0.01 z m -29.37,-6.51 a 4.241,4.241 0 0 1 -3.17,-1.333 6.439,6.439 0 0 1 -1.42,-2.879 14.656,14.656 0 0 1 -0.351,-4.217 4.336,4.336 0 0 1 1.562,-0.354 h 0.112 c 2.511,0 4.49,2.178 5.338,4.337 a 4.35,4.35 0 0 1 0.274,3.067 2.417,2.417 0 0 1 -2.34,1.37 z m 51.68,-5.99 c -17.359,-2.479 -24.717,-8.755 -27.833,-13.583 a 15.705,15.705 0 0 1 -2.634,-9.96 v -0.014 h 0.013 c 0.872,-0.2 1.764,-0.299 2.658,-0.293 4.618,0 16.43,2.323 27.8,23.842 l 0.007,0.014 -0.02,-0.01 z m -35.58,-3.44 c -7.416,0 -13.062,-1.28 -16.782,-3.8 a 10.304,10.304 0 0 1 -3.686,-4.125 6.75,6.75 0 0 1 -0.594,-2.023 22.704,22.704 0 0 1 7.765,-1.65 c 0.383,-0.018 0.769,-0.029 1.174,-0.03 5.732,0 14.448,1.87 23.646,10.78 l 0.009,0.009 h -0.011 a 90.034,90.034 0 0 1 -11.53,0.84 z m -35.91,-1.38 c -7.82,0 -18.563,-2.388 -25.263,-9.087 l -0.007,-0.008 h 0.02 a 78.487,78.487 0 0 1 15.523,-2.062 c 0.488,-0.012 0.98,-0.018 1.475,-0.019 7.332,0 12.944,1.422 16.682,4.225 a 4.942,4.942 0 0 1 2.178,2.783 2.28,2.28 0 0 1 -1.056,2.15 c -1.683,1.271 -4.692,1.949 -8.945,2.017 l -0.6,0.02 z m -25.34,-13 a 3.206,3.206 0 0 1 -2.479,-1.167 5.87,5.87 0 0 1 -1.108,-2.522 14.298,14.298 0 0 1 -0.291,-3.674 v -0.018 c 0.382,-0.176 0.797,-0.27 1.217,-0.275 a 3.784,3.784 0 0 1 2.589,1.158 6.956,6.956 0 0 1 1.688,2.645 4.03,4.03 0 0 1 0.18,2.635 1.915,1.915 0 0 1 -1.8,1.21 z m 58.53,-1.32 a 4.241,4.241 0 0 1 -3.17,-1.333 6.45,6.45 0 0 1 -1.422,-2.878 14.656,14.656 0 0 1 -0.351,-4.217 4.336,4.336 0 0 1 1.562,-0.354 h 0.112 c 2.511,0 4.49,2.178 5.338,4.337 a 4.35,4.35 0 0 1 0.274,3.067 2.413,2.413 0 0 1 -2.34,1.37 z m -28.51,-1.18 c -15.737,-0.554 -23.9,-5.027 -27.984,-8.683 a 18.3,18.3 0 0 1 -4.24,-5.447 11.649,11.649 0 0 1 -0.908,-2.438 l 0.021,-0.009 a 13.461,13.461 0 0 1 3.885,-0.579 h 0.368 c 5.307,0 16.111,2.229 28.852,17.153 v 0.01 z m 17.09,-1.59 c -12.661,-1.928 -19.834,-7.363 -23.622,-11.585 a 24.177,24.177 0 0 1 -5.213,-8.738 18.622,18.622 0 0 1 3.9,-0.469 c 0.169,0 0.345,-0.007 0.524,-0.007 0.179,0 0.365,0 0.553,0.007 6.368,0.139 17.934,3.023 23.855,20.785 h 0.01 z m -65,-6.08 A 49.336,49.336 0 0 1 305.39,418.8 c -6.629,-1.658 -9.473,-4.189 -10.691,-6.021 a 6.318,6.318 0 0 1 -1.031,-2.534 4.282,4.282 0 0 1 -0.031,-1.073 l 0.031,-0.011 a 45.238,45.238 0 0 1 10.464,-1.328 c 0.239,0 0.48,-0.006 0.725,-0.006 a 43.806,43.806 0 0 1 8.564,0.83 27.146,27.146 0 0 1 16.053,10.14 v 0.009 h -0.013 a 49.635,49.635 0 0 1 -12.12,1.42 z m 29.39,-10.68 a 4.244,4.244 0 0 1 -3.172,-1.3 6.49,6.49 0 0 1 -1.42,-2.908 14.4,14.4 0 0 1 -0.351,-4.185 4.336,4.336 0 0 1 1.562,-0.354 h 0.112 c 2.506,0 4.488,2.179 5.339,4.338 a 4.25,4.25 0 0 1 0.243,3.034 2.356,2.356 0 0 1 -2.31,1.38 z m -22.1,-3.03 a 48.225,48.225 0 0 1 -11.967,-5.225 c -5.544,-3.413 -12.326,-9.45 -13.153,-18.83 h 0.014 a 7.14,7.14 0 0 1 1.278,-0.154 c 0.1,0 0.217,-0.006 0.334,-0.006 1.656,0 5.046,0.466 9.147,3.584 5.22,3.98 10.04,10.92 14.35,20.65 z m 14.43,-0.53 a 39.027,39.027 0 0 1 -9.469,-6.084 60.759,60.759 0 0 1 -16.716,-23.33 7.698,7.698 0 0 1 3.655,-0.718 c 2.411,0.068 6.083,1.07 10.154,5.463 4.676,5.047 8.85,13.34 12.4,24.651 l 0.01,0.032 -0.03,-0.01 z m -37.39,-1.09 c -4.821,0 -6.471,-2.615 -6.957,-3.74 a 7.783,7.783 0 0 1 -0.554,-3.707 v -0.02 a 10.615,10.615 0 0 1 2.4,-0.314 h 0.165 a 9.918,9.918 0 0 1 8.084,3.841 c 0.255,0.379 1.037,1.694 0.39,2.721 -0.52,0.81 -1.7,1.22 -3.53,1.22 z M 291,391.431 a 63.914,63.914 0 0 1 -11.141,-0.952 c -4.294,-0.781 -6.728,-4.432 -8.013,-7.356 a 25.55,25.55 0 0 1 -1.8,-6.254 h 0.012 c 13.282,0.39 19.555,4.271 22.478,7.457 a 11.713,11.713 0 0 1 3.206,6.922 h -0.009 c -0.02,0 -1.89,0.18 -4.74,0.18 z m 13.83,-13.82 a 53.867,53.867 0 0 1 -3.033,-4.228 c -1.573,-2.445 -3.028,-5 -3.028,-7.084 0,-2.016 -0.474,-6.266 -0.757,-8.619 -0.358,-2.985 -0.72,-5.54 -0.75,-5.757 h 0.013 c 0.337,0.123 8.308,3.114 8.308,10.591 0,7.477 -0.738,15.014 -0.745,15.089 v 0.011 h -0.01 z m -10.33,-0.71 c -0.084,0 -0.167,-0.008 -0.25,-0.021 -2.356,-0.393 -6.5,-2.194 -11.073,-4.818 -5.082,-2.914 -9.209,-6.036 -11.62,-8.791 -2.2,-2.512 -3.5,-6.457 -3.88,-11.726 a 43.595,43.595 0 0 1 0.087,-7.163 4.135,4.135 0 0 1 1.315,-0.2 c 1.764,0.029 3.647,0.823 6.189,2.574 a 49.763,49.763 0 0 1 6.49,5.514 99.384,99.384 0 0 1 7.2,7.971 l 0.032,0.04 c 0.265,0.475 2.537,4.571 4.307,8.558 a 27.554,27.554 0 0 1 2.024,5.746 c 0.174,0.581 0.174,1.2 0,1.781 a 0.902,0.902 0 0 1 -0.385,0.448 c -0.139,0.06 -0.289,0.091 -0.44,0.09 z"
     fill="#4e5b31" />
  <use
     xlink:href="#a"
     transform="matrix(-1,0,0,1,900,0)"
     id="use1" />
  <path
     d="m 727.132,73.967 -2.355,0.938 -0.923,0.368 -2.854,-0.157 -2.673,1.283 -4.74,3.239 -0.209,0.15 -1.767,0.461 -1.641,-0.708 -0.932,0.424 -0.321,1.92 -0.887,1.379 -1.092,0.767 -3.783,0.387 -3.19,1.645 -4.15,-1.111 -1.928,0.755 -4.1,3.692 -2.095,0.992 -0.732,-0.042 -2.778,-0.143 -1.173,0.384 -1.752,1.693 -3.315,0.258 -1.033,0.715 -1.618,3.26 -1.753,1.808 -1,0.212 -1.087,-0.4 -0.817,0.144 -0.37,2.086 -0.793,0.874 -2.219,0.764 -1.773,1.477 -1.556,0.8 -2.084,-0.052 h -0.479 l -2.076,1.146 -3.9,0.342 -1.624,1.549 -0.358,0.331 -0.758,0.458 -1.24,0.74 -0.3,0.184 -1.5,-0.267 -1.75,0.693 -0.708,-1.089 -1.211,0.727 -1.6,0.069 -2,-0.889 -1.522,-0.678 -1.113,0.161 -0.387,1.94 -0.039,0.206 -1.17,1.557 -2.184,1.323 -0.3,0.387 -2.485,3.208 -4.722,4.966 -3.993,2.028 -4.139,1.259 -2.9,2.38 -7.6,3.767 -11.995,5.973 -2.453,0.786 -3.52,0.562 -6.278,2.312 -5.539,1.671 -0.308,0.094 -1.1,0.332 -7.81,2.363 -3.635,-0.384 -2.153,0.782 -5.605,-0.622 -3.9,0.077 -2.467,0.513 -4.637,2.224 -7.827,3.762 -2.586,2.366 -4.027,2.1 -4.715,1.493 0.011,-1.981 -0.028,-0.084 -1.636,0.517 -1.181,0.373 -3.825,0.59 h -2.128 l -1.321,-0.384 -0.2,0.069 -7.818,2.569 -8.719,0.842 -4.363,1.4 -3.26,-0.052 -2.038,0.606 -4,0.489 -1.428,-0.381 -0.322,-0.088 -11.75,0.51 -5.372,-0.607 -2.564,0.583 -4.3,-1.446 -6.269,-0.727 -1.465,-0.439 -3.3,-0.978 -1.491,0.859 -1.116,0.119 -2.667,-0.967 -0.96,-0.024 -2.2,0.8 -1.267,-0.325 -1.177,-0.938 -2.761,-0.411 -1.682,-1.414 -9.4,1.246 -2.551,-0.75 -8.554,-2.492 -1.361,0.069 -1.7,1.271 -2.548,0.929 -2.212,0.575 -3.012,0.1 -3.5,-0.918 -3.606,-1.748 -1.333,-0.317 -2.974,0.3 -0.91,0.082 -5.466,-2.932 -7.042,-4.4 -4.778,-2.3 -1.794,-0.291 -0.241,0.853 0.89,2.8 0.3,2.774 -0.091,2.563 -0.049,1.587 0.446,1.425 1.725,1.912 0.719,1.92 0.526,5.284 -0.006,5.362 -0.839,8.551 -0.283,1.3 -1,4.43 -0.914,4.069 -3.546,10.833 -0.974,1.343 -2.391,1.631 -5.419,3.688 -3.99,2.3 -1.263,0.523 -3.239,0.245 -2.018,-0.1 -2.513,-1.361 -2.467,-0.635 -3.232,-2.324 -3.6,-0.744 -3.941,-2.278 -1.026,-1.233 -2.146,-0.2 -2.976,-0.893 v -0.005 l -1.093,-0.327 -0.755,-0.22 -3.8,-0.1 -3.54,-1.634 -1.864,-0.45 -2.547,-0.129 -2.666,1.239 -1.351,0.629 -1.707,-0.678 -1.235,0.077 -1.4,2.115 -0.172,0.323 -0.964,0.51 -1.2,-0.017 -0.939,-0.025 -1.016,0.444 -1.368,0.593 -1.208,0.527 -0.59,0.255 -0.01,-0.01 -0.363,0.073 -0.645,0.112 -0.8,0.153 -1.41,-0.824 -0.75,-0.442 -1.257,-0.256 -0.677,0.489 -0.133,2.3 -0.618,1.378 -1.961,1.734 -1.993,1.755 -1.389,2.047 -3.676,8.39 -2.3,3.385 -0.715,0.789 -2.418,2.66 -2.136,1.657 -4.922,3.815 -4.659,1.741 -4.013,0.82 -1.951,0.008 -3.7,-0.492 -3.323,-1.02 -3.65,-2.282 -4,-3.217 -5.794,-5.724 -0.82,-0.493 -0.171,-0.114 -1.825,-1.167 -1.354,0.035 -0.53,0.874 -0.29,1.263 -0.245,1.12 -0.664,6.367 0.049,0.369 0.349,2.622 4.4,6.15 1.358,3.267 0.223,0.373 0.908,1.525 0.691,1.163 0.069,0.118 1.5,4.488 -1.057,2.534 0.534,1.7 -1.336,1.037 -0.245,1.465 3.951,4.953 0.862,2.185 -0.963,3.029 -1.536,1.671 -0.429,0.457 0.216,1.28 1.818,1.635 3.089,2.75 1.647,4.086 1.253,1.1 1.456,-0.31 0.81,0.618 1.228,-0.021 1.208,1.208 0.782,0.379 1.236,0.616 0.977,1.272 0.216,3.911 1.822,4.86 0.028,2.635 0.01,0.374 1.134,1.948 0.356,1.538 -0.6,4.069 1.445,1.306 1.567,-0.32 1.012,0.16 1.626,1.354 1.969,3 1.926,-0.282 1.222,0.589 5.9,5.334 1.339,0.676 0.074,0.042 0.963,0.483 1.2,1.208 1.856,-1.232 0.206,-0.021 2.018,-0.178 0.886,0.6 1.7,1.149 2.234,-0.029 4.844,1.485 2.119,0.543 4.261,2.648 1.811,1.12 1.072,0.871 1.424,1.161 2.845,1.224 2.44,0.584 1.322,0.314 1,0.384 0.025,-0.062 h 0.014 l -0.024,0.063 5.284,2.023 2.862,0.668 2.648,0.975 1.927,0.7 1.414,0.023 2,-1.682 1.937,-0.112 1.609,0.4 1.57,-0.263 2.485,-1.531 0.485,-0.719 1.762,-0.839 5.944,-0.738 1.737,0.564 4.46,-1.94 2.988,0.831 2.645,-0.938 5.779,1.284 1.536,1.081 1.717,1.965 0.21,0.009 1.912,0.037 -0.8,1.331 2.523,2.647 2.279,3.445 0.154,0.455 1.657,4.864 1.232,1.723 0.862,2.405 0.042,1.568 -1.34,1.022 -0.22,0.583 -0.076,0.216 0.272,0.655 0.506,-0.276 0.963,-0.533 1.172,-0.182 2.066,0.22 1.364,0.143 2.154,-1.069 1.427,-0.71 2.293,0.987 2.52,-0.028 1.058,0.471 3,1.358 1.529,0.144 0.565,-0.371 0.36,-0.856 -0.185,-1 -1.151,-1.319 -2.531,-2.938 -1.036,-1.51 -0.789,-2.186 -0.244,-2.796 -0.174,-1.885 0.314,-2.477 0.68,-0.884 0.5,-1.968 h 0.009 l 0.129,-0.515 1.406,-1.866 3.724,-2.393 4,-3.582 3.162,-2.085 3.26,-1.412 0.087,-0.4 0.363,0.146 8.292,-2.819 0.137,-0.016 3.692,-0.643 24.92,1.755 0.924,-0.279 v -0.006 l 0.83,-2.33 0.447,-0.432 0.3,-0.282 2.74,-1.206 1.281,-0.183 3.556,0.878 1.456,0.359 2.332,-1.307 1.654,0.028 3.417,-1.866 2.111,0.053 0.8,-0.321 4.112,-2.955 3.961,-1.135 1.03,-0.548 0.363,-0.2 4.06,-2.144 2.579,-1.981 2.226,-1.183 2.438,-0.629 6.38,-0.449 1.283,-2.138 2.744,-0.366 1.657,-1.87 1.9,-0.771 1.359,-1.958 1.139,-1.641 1.591,-0.921 5.1,-0.32 6.045,0.749 0.8,-0.485 1.366,-4.875 1.43,-0.915 3.851,-5.612 0.013,-2.045 v -1.708 l 0.633,-2.432 -0.43,-4.391 0.51,-4.446 2.394,-5.65 2.109,-2.279 3.4,-2.3 1.729,-0.753 2.449,-0.412 v 0.001 l 0.36,-0.061 0.624,-0.107 8.433,-0.116 c 0.117,-0.087 3.067,-0.042 3.067,-0.042 l 2.812,-0.038 7.116,1.264 0.506,0.088 2.4,0.779 2.774,2.157 2.938,2.869 0.551,0.535 1.9,0.8 0.575,0.251 1.571,-0.251 2.237,-1.165 1.688,-1.427 2.3,-1.257 0.056,-0.08 1.295,-1.948 0.039,-0.04 0.028,0.007 v -0.011 h -0.022 l 0.511,-0.775 4.447,-1.733 5.23,-0.3 0.588,-0.318 0.327,-0.175 1.382,-1.623 1.295,-0.01 3.135,1.134 2.2,-0.438 1.75,0.7 1.36,-0.161 2.565,-0.3 2.754,1.937 1.605,0.2 5.658,3.31 0.294,0.048 0.152,0.028 0.324,0.054 0.671,-0.2 1,-0.289 0.132,-0.039 0.126,0.175 0.643,0.907 0.882,0.126 1.044,-1.393 -0.415,-0.632 -0.157,-0.23 -2.021,-0.411 -1.815,-3.1 1.728,-1.861 -2.711,-3.326 -0.45,-0.551 -0.153,-0.234 -0.937,-1.423 -4.746,-7.235 -6.182,-4.935 -2.165,-1.732 -0.014,-0.01 -0.758,-0.6 -3.3,-3.358 -2.358,-3.13 -0.309,-0.674 -0.487,-1.062 -1.413,-3.078 -2.462,-1.9 -2.006,-2.191 -0.1,-0.129 -4.14,-5.626 -0.68,-0.943 -0.978,-0.565 -2.066,-0.014 -0.2,-0.2 -0.116,-0.121 0.07,-0.074 0.991,-0.985 1.105,-0.278 0.476,-1.089 -2.108,-6.1 -0.014,-0.213 -0.157,-1.95 1.718,-8.855 0.22,-1.079 2.928,-5.958 1.814,-1.486 1.98,-3.892 1.7,-2.488 1.625,-1.582 0.284,-0.168 2.934,-1.776 2.465,-0.347 2.348,-0.331 4.1,1.264 3.9,-0.076 0.761,-0.081 1.77,-0.2 2.911,-0.917 1.374,-0.848 0.713,-1.093 1.487,-4.987 0.478,-1.587 0.917,-1.724 5.306,-6.108 4.011,-3.71 9.019,-6.613 4.415,-2.639 2.254,-1.347 20.126,-8.946 5.23,-5.3 2.725,-2.758 4.821,-3.235 5.641,-2.311 4.854,-3.842 1.06,-1.334 1.336,-4.3 1.113,-0.269 1,-2.174 0.286,-0.618 3.961,-2.792 0.448,-0.223 15.388,-7.71 2.236,0.307 1.2,-1.793 4.477,-0.751 0.824,-0.14 1.1,-0.551 0.939,-1.6 v -0.316 l 0.129,-4.273 0.956,-1.155 0.521,-2.816 0.491,-0.65 0.513,-0.676 1.268,-0.891 -0.22,-0.531 z"
     fill="#d57800"
     id="path2" />
</svg>
