<?xml version="1.0" encoding="UTF-8" standalone="no"?>
<svg
   width="1000"
   height="600"
   viewBox="-7200 -3600 12000 7200"
   fill="#046a38"
   stroke="#000000"
   stroke-width="7"
   version="1.1"
   id="svg51"
   xmlns:xlink="http://www.w3.org/1999/xlink"
   xmlns="http://www.w3.org/2000/svg"
   xmlns:svg="http://www.w3.org/2000/svg">
  <defs
     id="defs51" />
  <g
     transform="matrix(300,0,0,300,-1200,0)"
     stroke="none"
     id="g4"
     style="display:inline">
    <path
       d="M -20,-12 H 20 V 12 H -20 Z"
       id="path1"
       style="display:inline" />
    <path
       fill="#ffcd00"
       d="m -20,-3 h 40 v 3 h -40 z m 17,-9 h 3 v 24 h -3 z"
       id="path2" />
    <path
       fill="#ffffff"
       d="M -20,0 H 20 V 3 H -20 Z M 0,-12 H 3 V 12 H 0 Z"
       id="path3" />
    <path
       fill="#000000"
       d="M -20,-1 H 20 V 1 H -20 Z M -1,-12 H 1 V 12 H -1 Z"
       id="path4" />
    <circle
       r="6"
       fill="#d50032"
       id="circle4"
       cx="0"
       cy="0" />
  </g>
  <g
     id="c"
     style="display:inline"
     transform="translate(-1200)">
    <g
       id="b">
      <path
         id="a"
         stroke-width="12"
         d="m 0,-1600.6 56.3,173.2 h 182 l -147.3,107 56.3,173.1 -147.3,-107 -147.3,107 56.3,-173.1 -147.3,-107 h 182 z" />
      <use
         xlink:href="#a"
         transform="rotate(36)"
         id="use4" />
    </g>
    <use
       xlink:href="#a"
       transform="rotate(72)"
       id="use5" />
    <use
       xlink:href="#b"
       transform="rotate(108)"
       id="use6" />
  </g>
  <use
     xlink:href="#c"
     transform="rotate(180,-1200,0)"
     id="use7" />
  <g
     transform="rotate(86,-600,-643.42123)"
     id="g9">
    <ellipse
       cx="492"
       cy="-213"
       rx="530"
       ry="108"
       id="ellipse7" />
    <ellipse
       cx="498"
       cy="-318"
       rx="530"
       ry="114"
       id="ellipse8" />
    <ellipse
       cx="523"
       cy="-267"
       rx="586"
       ry="91"
       id="ellipse9" />
  </g>
  <path
     fill="#9c4a00"
     d="m -761,868 c -161,17 -865,25 -895,3 -30,-22 -75,-115 -75,-120 92,-4 52,-53 99,-79 46,-27 112,-9 132,23 20,33 4,65 29,66 26,0 526,-24 710,-11 30,2 53,29 53,59 0,30 -23,56 -53,59 z"
     id="path9" />
  <path
     id="d"
     fill="#ffcd00"
     d="m -1241,818 c -1,70 101,50 103,108 -3,61 -172,4 -174,-109 7,-112 172,-167 174,-103 2,53 -101,35 -103,104 z" />
  <use
     xlink:href="#d"
     x="60"
     id="use9" />
  <use
     xlink:href="#d"
     x="125"
     id="use10" />
  <use
     xlink:href="#d"
     x="186"
     id="use11" />
  <g
     transform="matrix(0.85,0,0,1.8,-1200,0)"
     id="g17">
    <g
       transform="rotate(48.1)"
       id="g13">
      <ellipse
         cx="317"
         cy="154"
         rx="68"
         ry="58"
         id="ellipse11" />
      <ellipse
         cx="245"
         cy="229"
         rx="68"
         ry="58"
         id="ellipse12" />
      <ellipse
         cx="148"
         cy="242"
         rx="68"
         ry="58"
         id="ellipse13" />
    </g>
    <ellipse
       transform="rotate(63.2)"
       cx="251"
       cy="100"
       rx="73"
       ry="57"
       id="ellipse14" />
    <g
       transform="rotate(57.7)"
       id="g16">
      <ellipse
         cx="175"
         cy="124"
         rx="69"
         ry="57"
         id="ellipse15" />
      <ellipse
         cx="109"
         cy="192"
         rx="69"
         ry="57"
         id="ellipse16" />
    </g>
  </g>
  <path
     fill="#9063cd"
     d="m -1377,-632 c 0,0 -176,152 -156,565 22,416 389,611 389,611 h 58 V -632 Z"
     id="path17" />
  <g
     transform="matrix(0.85,0,0,1.8,-1200,0)"
     id="g25">
    <g
       transform="rotate(40.6)"
       id="g19">
      <ellipse
         cx="421"
         cy="95"
         rx="58"
         ry="68"
         id="ellipse17" />
      <ellipse
         cx="337"
         cy="151"
         rx="58"
         ry="68"
         id="ellipse18" />
      <ellipse
         cx="255"
         cy="132"
         rx="58"
         ry="68"
         id="ellipse19" />
    </g>
    <ellipse
       transform="rotate(24.1)"
       cx="305"
       cy="161"
       rx="58"
       ry="73"
       id="ellipse20" />
    <g
       transform="rotate(29.9)"
       id="g24">
      <ellipse
         cx="450"
         cy="70"
         rx="57"
         ry="69"
         id="ellipse21" />
      <ellipse
         cx="375"
         cy="79"
         rx="57"
         ry="69"
         id="ellipse22" />
      <ellipse
         cx="279"
         cy="87"
         rx="57"
         ry="69"
         id="ellipse23" />
      <ellipse
         cx="192"
         cy="106"
         rx="57"
         ry="69"
         id="ellipse24" />
    </g>
  </g>
  <ellipse
     transform="rotate(66.5)"
     fill="#d50032"
     stroke-width="4"
     cx="-329.49887"
     cy="951.47211"
     rx="456"
     ry="148"
     id="ellipse25" />
  <g
     transform="matrix(1.25,0,0,0.85,-1200,0)"
     id="g35">
    <ellipse
       cx="56"
       cy="-579"
       rx="49"
       ry="63"
       id="ellipse26" />
    <ellipse
       cx="50"
       cy="-658"
       rx="49"
       ry="63"
       id="ellipse27" />
    <ellipse
       cx="-18"
       cy="-563"
       rx="46"
       ry="67"
       id="ellipse28" />
    <ellipse
       cx="-4"
       cy="-649"
       rx="46"
       ry="66"
       id="ellipse29" />
    <ellipse
       cx="-80"
       cy="-647"
       rx="52"
       ry="67"
       id="ellipse30" />
    <ellipse
       cx="15"
       cy="-758"
       rx="49"
       ry="63"
       id="ellipse31" />
    <ellipse
       cx="-50"
       cy="-746"
       rx="46"
       ry="66"
       id="ellipse32" />
    <ellipse
       cx="-148"
       cy="-643"
       rx="46"
       ry="67"
       id="ellipse33" />
    <ellipse
       cx="-132"
       cy="-693"
       rx="46"
       ry="66"
       id="ellipse34" />
    <ellipse
       cx="-113"
       cy="-749"
       rx="46"
       ry="66"
       id="ellipse35" />
  </g>
  <g
     transform="rotate(66.2,-600,-920.39814)"
     id="g37">
    <ellipse
       cx="103"
       cy="-216"
       rx="543"
       ry="188"
       id="ellipse36" />
    <ellipse
       cx="245"
       cy="-323"
       rx="114"
       ry="36"
       id="ellipse37" />
  </g>
  <path
     d="m -822,94 c 153,187 134,306 118,406 L -921,267 V 33 Z"
     id="path37" />
  <path
     d="m -809,245 c 154,187 135,306 119,406 L -985,194 v -307 c 23,60 23,171 176,358 z"
     id="path38" />
  <path
     d="m -804,367 c 157,183 140,303 126,404 -50,-115 -78,-188 -236,-372 -157,-184 -83,-317 -74,-386 25,59 27,170 184,354 z"
     id="path39" />
  <ellipse
     transform="rotate(65)"
     cx="-461.14191"
     cy="792.56934"
     rx="202"
     ry="66"
     id="ellipse39" />
  <ellipse
     transform="rotate(65.7)"
     cx="-381.81723"
     cy="896.68396"
     rx="166"
     ry="58"
     id="ellipse40" />
  <ellipse
     transform="rotate(66.8)"
     cx="-327.73029"
     cy="998.9624"
     rx="166"
     ry="58"
     id="ellipse41" />
  <ellipse
     transform="rotate(62)"
     cx="-608.36591"
     cy="794.53711"
     rx="127"
     ry="46"
     id="ellipse42" />
  <ellipse
     transform="rotate(65.6)"
     cx="-539.72534"
     cy="906.82037"
     rx="127"
     ry="46"
     id="ellipse43" />
  <g
     stroke-linecap="round"
     id="g47"
     transform="translate(-1200)">
    <path
       fill="none"
       d="m 439,750 a 59,59 0 1 0 0,118"
       id="path43" />
    <path
       d="m 21,-146 a 217.37168,46.078789 68 1 0 82,-43"
       id="path44" />
    <ellipse
       transform="rotate(65.6)"
       cx="-166"
       cy="-233"
       rx="127"
       ry="46"
       id="ellipse44" />
    <ellipse
       transform="rotate(66.8)"
       cx="-167"
       cy="-145"
       rx="127"
       ry="46"
       id="ellipse45" />
    <path
       d="m -30,-299 a 158.12673,33.66569 59.7 1 0 54,-41"
       id="path45" />
    <path
       d="m 1,-349 a 146.17761,33.412025 59.8 1 0 65,-21 m 51,47 a 216.56673,46.551728 59.3 1 0 75,-56"
       id="path46" />
    <path
       d="m 48,-388 a 161,34 62.4 1 0 53,-45"
       id="path47" />
  </g>
  <g
     fill="#9063cd"
     id="g49"
     transform="translate(-1200)">
    <path
       id="e"
       d="m 97,-553 c -29,30 1,84 27,106 31,26 201,207 321,56 -96,-2 -276,-228 -348,-162 z" />
    <use
       xlink:href="#e"
       x="-21"
       y="-89"
       id="use47" />
    <use
       xlink:href="#e"
       x="-48"
       y="-174"
       id="use48" />
    <use
       xlink:href="#e"
       x="-107"
       y="-271"
       id="use49" />
    <path
       d="m -219,-917 c 61,-46 173,-59 260,-15 73,36 194,181 285,216 -64,11 -103,1 -144,-18 -81,58 -110,67 -192,79 -115,16 -210,-14 -244,-73 -34,-57 -19,-147 35,-189 z"
       id="path49" />
  </g>
  <g
     transform="matrix(1.4,0,0,0.7,-1200,0)"
     id="g50">
    <ellipse
       fill="#d50032"
       cx="-64"
       cy="-1181"
       rx="38"
       ry="44"
       id="ellipse49" />
    <ellipse
       fill="#000000"
       cx="-66"
       cy="-1184"
       rx="13"
       ry="23"
       stroke="none"
       id="ellipse50" />
  </g>
  <g
     fill="#ffcd00"
     id="g51"
     transform="translate(-1200)">
    <ellipse
       transform="rotate(69.6)"
       cx="-747"
       cy="-11"
       rx="45"
       ry="73"
       id="ellipse51" />
    <path
       d="m -206,-786 c 5,23 -12,55 -50,66 -38,16 -67,52 -84,111 -58,-134 -21,-191 41,-205 53,-17 85,-15 93,28 z"
       id="path51" />
  </g>
  <circle
     fill="#000000"
     cx="-1462"
     cy="-756"
     r="13"
     stroke="none"
     id="circle51" />
</svg>
