<?xml version="1.0" encoding="UTF-8" standalone="no"?>
<svg
   width="1000"
   height="600"
   version="1.1"
   id="svg89"
   xmlns="http://www.w3.org/2000/svg"
   xmlns:svg="http://www.w3.org/2000/svg">
  <defs
     id="defs89">
    <clipPath
       id="a">
      <path
         d="M 0,0 V 30 H 60 V 0 Z"
         id="path1-2" />
    </clipPath>
    <clipPath
       id="b">
      <path
         d="m 30,15 h 30 v 15 z m 0,0 V 30 H 0 Z m 0,0 H 0 V 0 Z m 0,0 V 0 h 30 z"
         id="path2-1" />
    </clipPath>
  </defs>
  <style
     id="style1">.B{stroke-miterlimit:4.8}.C{stroke:#000}.D{fill:#862633}.E{stroke-width:.78}.F{fill:#00ad50}.G{stroke-width:.48}.H{stroke-miterlimit:3}</style>
  <clipPath
     id="A">
    <path
       d="M 0,0 V 150 H 700 V 300 H 600 Z M 0,300 V 400 H 300 V 0 h 300 z"
       id="path1" />
  </clipPath>
  <path
     fill="#012169"
     d="M 0,0 H 1000 V 600 H 0 Z"
     id="path2"
     style="fill:#62b5e5;fill-opacity:1;stroke-width:0.912871" />
  <path
     fill="#ffffff"
     d="m 644.8,143.94 v 205.09 c 0,67.08 121.2,106.91 121.2,106.91 0,0 121.2,-39.833 121.2,-106.91 V 143.94 Z"
     id="path8" />
  <g
     fill="#c8102e"
     id="g10"
     transform="translate(-134)">
    <path
       d="m 883.2,216 v 92.344 H 778.8 v 33.6 h 104.4 v 107.6 l 16.8,6.396 16.8,-6.396 v -107.6 h 104.4 v -33.6 H 916.8 V 216 Z"
       id="path9" />
    <path
       d="m 778.8,143.94 h 242.4 v 79.2 H 778.8 Z"
       id="path10" />
  </g>
  <g
     class="C"
     id="g15"
     transform="translate(-134)">
    <g
       fill="#ffffff"
       id="g14">
      <ellipse
         cx="798.22998"
         cy="192.21201"
         stroke-width="0.803"
         rx="13.623"
         ry="10.962"
         id="ellipse10" />
      <g
         stroke-width="0.805"
         id="g13">
        <ellipse
           cx="798.22998"
           cy="186.52499"
           rx="12.114"
           ry="6.1230001"
           id="ellipse11" />
        <ellipse
           cx="798.22998"
           cy="198.769"
           rx="12.114"
           ry="6.1230001"
           id="ellipse12" />
        <ellipse
           cx="798.22998"
           cy="192.213"
           rx="12.114"
           ry="6.1230001"
           id="ellipse13" />
      </g>
    </g>
    <path
       fill="#fedd00"
       stroke-width="1.2"
       d="m 1015.2,207.43 -1.985,-5.476 c 0,0 -5.434,-2.216 -5.848,-5.102 -0.967,-7.694 -3.714,-10.578 -7.83,-11.678 -4.124,-1.099 -6.868,0.689 -6.868,0.689 -1.241,1.787 -7.426,1.787 -10.859,1.921 -3.434,0.14 -3.493,-1.492 -3.493,-1.492 -2.668,0.019 -3.79,-1.942 -3.79,-1.942 -1.746,-3.487 -3.046,-4.792 -3.908,-5.233 4.457,0.066 7.813,-1.991 12.844,-7.27 5.494,-5.772 9.415,-3.54 9.415,-3.54 -2.666,5.389 0.887,4.913 0.887,4.913 7.28,-3.706 0.96,-13.051 -1.237,-12.638 -2.197,0.413 -2.825,-1.069 -2.825,-1.069 0.067,1.678 -2.44,2.345 -2.44,2.345 1.88,-10.674 -4.489,-13.504 -4.489,-13.504 -0.964,0.961 -1.516,2.884 -1.516,2.884 -1.783,6.458 -7.691,5.497 -14.29,2.335 -6.593,-3.158 -24.179,3.3 -29.672,5.497 -5.501,2.198 -15.528,5.634 -24.596,0.55 -9.068,-5.084 -11.269,-4.124 -14.839,-3.161 -3.57,0.963 -9.888,2.476 -12.222,1.236 -2.334,-1.24 -5.003,-1.313 -5.003,-1.313 0.636,-0.355 -0.358,-1.847 -0.358,-1.847 -2.747,-3.708 0.358,-5.981 0.358,-5.981 0,0 -5.114,1.44 -3.08,10.169 l 0.935,1.309 c 0,0 0.685,2.746 2.201,3.571 l -0.055,0.601 c 0,0 1.294,-0.601 1.7,1.183 0.418,1.786 2.34,0.138 3.164,-1.372 0,0 -1.376,7.969 8.519,9.892 0,0 -1.106,-1.237 -0.692,-2.062 0.414,-0.825 -1.234,-1.517 -1.094,-2.749 0.14,-1.232 -2.47,-1.783 -0.414,-2.749 2.056,-0.966 3.025,-2.886 7.42,-0.275 4.395,2.611 7.834,2.064 7.834,2.064 0,0 -2.681,-5.502 -1.204,-5.498 1.477,0.004 8.123,8.23 11.394,7.823 3.271,-0.407 9.593,-4.114 12.754,-2.74 0,0 0.271,-1.649 12.36,-3.71 12.089,-2.061 27.006,-8.087 32.599,-2.807 0,0 0.654,4.182 2.987,5.282 0,0 -0.418,8.654 -15.385,3.842 l -5.43,-1.428 c 0,0 -0.834,-2.629 -29.304,4.693 0,0 -1.675,0.584 -2.774,1.411 -1.103,0.821 -2.615,-0.414 -8.248,1.645 -5.628,2.065 -26.654,8.935 -39.564,6.46 l -0.017,0.035 c -2.844,-0.85 -5.508,-0.41 -5.616,-0.859 -0.139,-0.55 1.513,0.139 1.513,0.139 -0.96,-1.102 -1.374,-1.19 -1.374,-1.19 -10.855,-1.19 -8.936,-6.094 -8.936,-6.094 l 0.553,1.512 c 1.787,-2.334 -0.692,-7.83 -0.692,-7.83 l -0.104,0.018 a 5.68,5.68 0 0 0 -0.101,-0.5 l 0.898,-0.619 c 5.222,-4.398 11.269,-5.222 11.269,-5.222 -3.575,-4.394 -11.134,-2.058 -11.134,-2.058 0.139,-5.358 -2.058,-11.542 -2.058,-11.542 -7.423,0.824 -11.678,7.006 -11.678,7.006 -0.275,-5.494 -7.284,-8.652 -7.284,-8.652 2.608,3.158 0.964,10.714 0.964,10.714 l 0.275,0.138 c -0.434,-0.011 -0.689,0 -0.689,0 l -0.156,1.62 -0.257,-0.108 c 0,0 -2.608,0.96 -5.629,7.83 0,0 -0.306,1.624 -1.475,3.088 -0.01,-0.19 0.011,-0.361 -0.013,-0.559 0,0 -3.376,4.423 -11.176,0 0,0 -10.598,-6.288 -14.323,-6.055 -3.725,0.233 -6.174,1.979 -5.936,3.026 0,0 -8.504,-0.7 -11.413,4.189 0,0 -6.403,2.329 -0.93,7.57 0,0 0.733,2.278 2.326,3.498 0,0 -0.226,-4.784 0.934,-3.378 0,0 0.301,0.472 0.874,0.802 0.152,0.671 0.666,2.534 1.804,3.484 l 0.82,-0.26 c 0.125,-1.193 0.383,-2.7 0.648,-3.334 l 0.27,0.035 c -0.036,0.035 -0.07,0.055 -0.104,0.086 l 1.513,2.329 1.745,-0.931 c 0.817,-0.119 1.864,0.7 1.864,0.7 l 1.98,-1.631 c -0.012,-0.018 -0.024,-0.022 -0.036,-0.041 1.95,0.326 2.483,-3.454 2.483,-3.454 1.752,0.461 3.39,-0.055 4.784,-0.9 0.85,3.134 7.792,6.496 7.792,6.496 l 0.299,-0.025 c -0.588,0.376 -0.937,0.658 -0.937,0.658 3.158,2.202 9.067,1.651 9.067,1.651 -2.471,0.964 -2.125,5.537 -2.125,5.537 -1.444,0.593 -1.585,2.018 -1.585,2.018 4.81,1.919 8.095,0.33 8.095,0.33 0.264,1.565 -0.125,1.732 -0.125,1.732 -1.922,4.121 -2.747,8.105 -2.747,8.105 0.042,0.018 0.091,0.028 0.132,0.042 -0.059,0.108 -0.132,0.212 -0.178,0.324 0,0 -8.383,2.91 -12.109,6.986 0,0 -0.35,-1.166 -1.399,-1.166 -1.049,0 -4.308,-2.675 -5.822,-3.143 -1.514,-0.468 -3.725,0.468 -4.308,-0.229 -0.527,-0.636 -0.29,-5.406 -1.298,-6.175 l -1.03,-2.906 c -0.698,1.512 -3.608,1.162 -3.608,1.162 -0.115,0.07 -0.563,0.396 -1.196,0.869 -0.581,0.031 -1.249,-0.169 -1.249,-0.169 -0.299,0.061 -0.594,0.9 -0.811,1.715 l -0.353,0.266 v -0.817 c -0.58,0.466 -1.745,-0.233 -2.213,-0.233 -0.228,0 -0.51,0.667 -0.739,1.352 -1.184,0.22 -2.754,0.278 -2.754,0.278 -0.466,0.233 -0.119,3.842 -0.119,3.842 -3.374,1.865 -1.746,4.657 -1.746,4.657 1.864,9.083 17.35,5.006 18.515,6.174 1.165,1.168 3.842,1.394 5.24,1.394 1.398,0 3.139,3.378 5.122,3.727 1.983,0.349 0,-2.677 9.182,-4.871 9.182,-2.194 12.239,-5.958 12.239,-5.958 2.875,-0.554 3.676,-4.049 3.89,-5.46 0.028,0.65 0.104,1.37 0.209,2.19 0.414,3.161 -1.77,4.312 -1.77,4.312 l 7.955,-2.388 c 3.157,-0.824 2.747,-3.575 2.747,-3.575 3.022,8.657 8.519,9.206 8.519,9.206 1.099,-3.299 0.964,-4.261 0.964,-4.261 l 2.472,-0.134 c 0.101,-1.864 -1.544,-3.226 -2.497,-3.859 l 3.87,2.347 1.508,-0.275 c 0,1.374 2.062,2.608 2.062,2.608 l 0.278,-1.782 c 1.787,2.335 5.083,1.51 5.083,1.51 a 11.04,11.04 0 0 0 -0.292,-1.283 c 7.04,4.345 18.286,-1.189 18.286,-1.189 3.022,0.686 3.434,-1.1 3.434,-1.1 3.434,0.41 4.231,-1.937 4.231,-1.937 8.083,-0.7 13.772,-6.446 13.772,-6.446 3.98,-0.275 4.11,-3.121 4.11,-3.121 0,0 3.991,0.787 7.84,-4.022 8.928,-12.775 22.28,-6.124 22.28,-6.124 l -7.72,0.488 c -20.194,-0.136 -11.822,13.598 -11.822,13.598 l 1.244,-0.132 c 1.924,0.412 8.515,5.633 6.085,9.522 -0.038,0.068 -0.091,0.131 -0.136,0.193 -4.117,5.636 -11.742,0.26 -13.915,-4.495 -2.201,-4.807 -6.599,-3.707 -6.599,-3.707 0,0 -11.401,1.924 -6.731,10.991 l 0.17,0.005 c 0.086,2.213 1.475,4.734 5.542,7.24 2.285,3.232 9.794,3.569 15.31,2.374 2.567,-0.56 16.112,-6.384 16.112,-6.384 0.994,-2.95 4.36,-2.27 7.381,-6.529 3.021,-4.259 -4.26,-5.772 -5.908,-8.105 -1.651,-2.339 0.414,-1.925 0.414,-1.925 6.592,3.572 7.141,-7.832 7.141,-7.832 0.689,6.593 6.457,8.38 6.457,8.38 3.575,-3.568 0.967,-10.852 0.967,-10.852 8.519,15.25 13.678,12.822 13.678,12.822 -4.586,-2.839 -2.278,-6.64 -2.278,-6.64 4.117,16.211 21.022,2.062 21.022,2.062 -0.824,2.333 0.004,3.706 1.513,5.218 1.509,1.512 3.296,2.2 2.476,4.948 -0.827,2.747 -8.653,2.2 -8.653,2.2 0,0 -7.698,-0.41 -7.007,6.047 0.403,1.508 5.49,2.058 7.414,1.648 0,0 -0.793,0.173 2.051,0.553 0.953,0.122 2.104,0.143 3.275,0.104 3.278,-0.101 6.77,-0.658 6.77,-0.658 4.391,-0.959 3.707,-2.476 3.707,-2.476 6.726,-1.24 7.417,-5.776 7.417,-5.776 z"
       class="H"
       id="path14" />
  </g>
  <path
     d="m 657.954,179.295 c 0.005,-0.007 0.361,-0.848 1.039,-0.949 0.523,-0.078 1.158,0.31 1.829,1.124 l 0.367,-0.276 c -0.016,-0.028 -1.813,-2.646 -1.097,-4.495 0.319,-0.824 1.114,-1.39 2.357,-1.669 l -0.101,-0.452 c -1.403,0.322 -2.305,0.98 -2.686,1.957 a 3.123,3.123 0 0 0 -0.202,1.136 c 0,0.904 0.318,1.819 0.644,2.522 -0.407,-0.256 -0.803,-0.361 -1.183,-0.304 -0.69,0.104 -1.026,0.601 -1.208,0.925 z M 870,215.28 c -4.59,0.728 -11.328,1.132 -11.864,-0.257 -0.094,-0.247 -0.11,-1.238 3.648,-3.685 l -0.438,-0.673 c -3.136,2.042 -4.398,3.518 -3.96,4.646 0.962,2.5 10.799,1.072 12.763,0.758 z m -87.8,2.65 c -1.046,-1.601 -0.576,-3.793 1.398,-6.523 l -0.65,-0.469 c -2.194,3.018 -2.671,5.524 -1.422,7.434 z"
     id="path15" />
  <path
     d="m 776,211.02 c 0.101,2.768 2.056,5.339 5.8,7.632 l 0.421,-0.686 c -3.505,-2.143 -5.323,-4.49 -5.418,-6.973 -0.138,-3.812 3.89,-6.752 3.929,-6.784 l -0.469,-0.654 c -0.181,0.128 -4.418,3.216 -4.262,7.465 z m 78.29,1.03 c -1.259,1.859 -0.838,4.11 -0.821,4.205 l 0.788,-0.155 c -0.007,-0.022 -0.372,-2.026 0.703,-3.604 0.646,-0.949 1.686,-1.565 3.097,-1.832 l -0.145,-0.79 c -1.634,0.31 -2.85,1.04 -3.623,2.176 z m -179.37,-35.16 -0.248,-0.062 -0.034,0.256 c -0.007,0.025 -0.358,2.464 -1.464,3.127 -0.31,0.185 -0.643,0.205 -1.028,0.065 l -1.878,-1.142 c -0.374,-0.33 -0.696,-0.572 -1.237,-0.414 -0.108,-0.139 -0.539,-0.724 -0.539,-1.662 0,-0.104 0.007,-0.216 0.023,-0.329 0.133,-1.1 0.901,-2.161 2.29,-3.151 l -0.264,-0.376 c -1.505,1.075 -2.338,2.243 -2.484,3.48 a 3.35,3.35 0 0 0 0.697,2.448 l 0.112,0.128 0.152,-0.07 c 0.418,-0.185 0.539,-0.076 0.946,0.284 l 2.027,1.232 c 0.515,0.19 0.991,0.155 1.422,-0.102 1.145,-0.685 1.546,-2.681 1.639,-3.235 4.877,1.049 8.802,-4.879 8.972,-5.135 l -0.39,-0.252 c -0.035,0.062 -4.04,6.134 -8.713,4.909 z"
     id="path16" />
  <path
     d="m 663.23,175.98 c -0.244,0.988 -0.077,1.957 0.487,2.882 0.539,0.877 1.069,1.344 1.622,1.417 0.674,0.094 1.213,-0.407 1.688,-0.845 0.346,-0.324 0.674,-0.625 0.944,-0.605 l 0.419,0.289 0.361,-0.287 -0.748,-0.461 c -0.472,-0.035 -0.868,0.332 -1.29,0.726 -0.421,0.386 -0.853,0.793 -1.314,0.73 -0.4,-0.055 -0.832,-0.462 -1.29,-1.206 -0.497,-0.815 -0.647,-1.669 -0.436,-2.531 0.526,-2.176 3.127,-3.774 3.155,-3.79 l -0.236,-0.392 c -0.116,0.067 -2.791,1.709 -3.364,4.072 z m -6.71,31.06 c 0.233,-0.841 0.88,-1.558 1.919,-2.135 -0.205,0.019 1.019,1.015 2.069,0.904 l 0.682,-0.368 c 0.278,0.24 2.096,1.895 2.096,3.991 a 3.38,3.38 0 0 1 -0.278,1.354 l 0.426,0.179 c 1.33,-3.15 -2.015,-5.944 -2.046,-5.974 l -0.122,-0.096 -0.206,0.133 -0.596,0.324 c -0.859,0.09 -1.979,-0.818 -1.987,-0.827 -1.411,0.616 -2.132,1.43 -2.4,2.399 z M 672.05,199 c -1.004,0.085 -3.802,0.619 -4.715,2.071 -0.33,0.527 -0.379,1.106 -0.139,1.733 l 0.367,0.977 c 0.871,2.344 1.776,4.765 2.762,5.312 l 0.223,-0.401 c -0.838,-0.464 -1.75,-2.912 -2.556,-5.071 l -0.365,-0.977 c -0.187,-0.494 -0.156,-0.929 0.095,-1.328 0.75,-1.19 3.265,-1.765 4.366,-1.856 0.641,-0.052 0.85,2.314 0.977,3.727 l 0.457,-0.042 c -0.184,-2.083 -0.377,-4.236 -1.472,-4.145 z"
     id="path17" />
  <path
     d="m 664.38,201.3 c -0.588,0.526 -0.469,1.318 -0.462,1.352 0.005,0.217 0.266,6.067 3.044,7.277 l 0.182,-0.421 c -2.514,-1.096 -2.767,-6.845 -2.771,-6.901 -0.001,-0.035 -0.083,-0.616 0.317,-0.966 0.421,-0.374 1.259,-0.403 2.42,-0.084 l 0.122,-0.442 c -1.34,-0.37 -2.3,-0.308 -2.854,0.185 z"
     id="path18" />
  <path
     d="m 662.18,201.78 c -1.229,0.856 -1.178,3.298 -1.177,3.4 l 0.46,-0.008 c 0,-0.025 -0.046,-2.303 0.98,-3.014 0.383,-0.264 0.887,-0.275 1.501,-0.028 l 0.17,-0.425 c -0.766,-0.312 -1.418,-0.287 -1.934,0.076 z m 66.15,-32.29 c 0.022,0.038 1.31,2.945 1.31,5.305 0,0.419 -0.198,0.716 -0.292,1.081 l -0.5,-1.367 -0.389,0.988 c -0.018,0.055 -0.526,1.384 0.382,2.882 1.2,1.978 4.187,3.244 8.884,3.758 h -0.002 c 0,0.004 0.059,0.055 0.066,0.065 -0.194,0.026 -0.341,0.08 -0.385,0.122 l -0.188,0.16 0.025,0.401 c 0.121,0.487 0.678,0.511 1.783,0.553 l 0.706,0.066 0.557,0.154 -0.094,-0.108 c 1.07,0.073 2.274,0.337 3.581,0.826 l -0.995,0.252 1.162,0.458 c 0.088,0.035 8.648,3.474 12.191,6.302 -1.006,0.872 -5.299,4.08 -12.736,2.248 l -1.246,-0.306 0.845,0.965 c 0.052,0.058 4.896,5.614 5.9,8.983 -1.687,0.017 -8.185,-0.042 -10.456,-1.972 l -0.588,0.535 c 0.031,0.049 3.115,4.576 3.804,8.105 -0.883,0.116 -3,0.203 -4.252,-1.433 l -0.577,-0.751 -0.313,2.038 c -0.605,-0.456 -1.367,-1.138 -1.367,-1.867 v -0.48 l -1.832,0.332 -3.766,-2.282 a 7.982,7.982 0 0 0 -0.605,-0.365 0.505,0.505 0 0 0 -0.035,-0.023 l -0.028,-0.016 -0.39,0.706 0.577,0.348 c 0.806,0.526 2.186,1.67 2.326,3.188 l -2.448,0.136 0.046,0.426 v 0.067 c 0,0.252 -0.079,1.304 -0.848,3.679 -1.158,-0.276 -5.369,-1.744 -7.858,-8.874 l -0.775,0.192 a 1.92,1.92 0 0 1 0.013,0.265 c 0,0.649 -0.229,2.279 -2.465,2.86 l -6.452,1.937 c 0.431,-0.616 0.824,-1.46 0.824,-2.684 a 7.23,7.23 0 0 0 -0.052,-0.838 c -0.139,-1.036 -0.223,-1.898 -0.223,-2.618 0,-1.501 0.368,-2.395 1.405,-3.031 l -0.361,-0.716 c -0.097,0.038 -9.618,3.82 -14.339,2.25 0.216,-0.922 1.015,-4.162 2.628,-7.615 l -0.209,0.198 c 0.31,-0.132 0.625,-0.616 0.365,-2.166 l -0.086,-0.528 -0.484,0.233 c -0.031,0.014 -3.053,1.363 -7.417,-0.236 0.089,-0.358 0.32,-1.001 1.235,-1.38 l 0.268,-0.108 -0.025,-0.292 c 0,-0.011 -0.011,-0.214 -0.011,-0.532 0,-1.178 0.185,-3.94 1.88,-4.602 l -0.18,-0.776 c -0.055,0.007 -5.161,0.415 -8.257,-1.307 0.812,-0.56 2.519,-1.592 4.505,-1.878 l 0.318,-0.046 0.023,-0.318 a 1.99,1.99 0 0 0 0.011,-0.259 c 0,-0.403 -0.156,-1.219 -0.511,-2.041 1.178,0.329 2.591,0.625 3.091,0.25 l 0.17,-0.128 -0.146,-3.098 -0.803,0.038 0.122,2.562 c -0.504,0.028 -1.788,-0.229 -3.035,-0.625 l -1.234,-0.392 0.794,1.024 c 0.646,0.829 0.727,1.859 0.737,2.332 -2.79,0.518 -4.975,2.251 -5.069,2.329 l -0.41,0.337 0.434,0.304 c 2.4,1.672 6.154,1.817 8.081,1.775 -1.136,1.279 -1.328,3.421 -1.328,4.492 0,0.22 0.007,0.278 0.011,0.386 a 3.13,3.13 0 0 0 -1.577,2.182 l -0.03,0.301 0.282,0.115 c 4.124,1.644 6.941,0.851 7.897,0.497 0.007,0.128 0.035,0.302 0.035,0.394 0,0.378 -0.07,0.493 -0.07,0.493 -2.027,4.248 -2.875,8.286 -2.886,8.324 l -0.066,0.334 0.313,0.125 c 3.828,1.53 10.705,-0.559 13.751,-1.634 -0.4,0.689 -0.632,1.464 -0.632,2.429 0,0.809 0.097,1.718 0.233,2.731 a 5.34,5.34 0 0 1 0.049,0.724 c 0,2.28 -1.541,3.143 -1.614,3.181 l 0.306,0.74 7.955,-2.389 c 1.84,-0.478 2.531,-1.565 2.824,-2.489 3.139,7.444 8.066,8.114 8.285,8.14 l 0.32,0.028 0.101,-0.302 c 0.766,-2.287 0.942,-3.449 0.977,-4.009 l 2.462,-0.132 0.02,-0.361 c 0.004,-0.062 0.004,-0.122 0.004,-0.181 0,-0.659 -0.205,-1.241 -0.49,-1.764 l 1.376,0.834 1.318,-0.24 c 0.344,1.33 1.924,2.374 2.128,2.498 l 0.511,0.307 0.268,-1.74 c 1.964,1.758 4.753,1.235 4.885,1.202 l 0.352,-0.09 -0.052,-0.358 c -0.4,-2.688 -2.204,-5.886 -3.265,-7.596 3.491,1.588 9.85,1.471 10.163,1.462 l 0.474,-0.017 -0.094,-0.464 c -0.564,-2.825 -4.093,-7.272 -5.57,-9.041 8.202,1.542 12.607,-2.713 12.796,-2.906 l 0.288,-0.306 -0.317,-0.278 c -2.758,-2.401 -9.113,-5.19 -11.665,-6.257 l 0.894,-0.226 -0.883,-0.494 c -2.135,-1.2 -4.398,-1.349 -5.928,-1.415 l -0.007,-0.012 c -0.971,-1.111 -1.464,-1.289 -1.589,-1.316 -5.546,-0.612 -7.579,-2.166 -8.317,-3.366 -0.062,-0.098 -0.031,-0.166 -0.077,-0.262 l 0.244,-0.318 c 0.535,-0.697 0.726,-1.63 0.726,-2.617 0,-2.546 -1.294,-5.456 -1.367,-5.624 l -0.738,0.334 z"
     id="path19" />
  <path
     d="m 702.8,167.86 c -0.017,0.079 -0.608,3.119 -3.196,4.543 -1.948,1.07 -4.52,0.982 -7.639,-0.266 l -0.352,-0.139 0.037,0.376 c 0.008,0.078 0.214,1.864 1.897,3.172 1.402,1.092 3.408,1.475 5.922,1.2 -0.841,0.998 -3.544,4.452 -3.544,7.802 0,0.176 0.011,0.354 0.028,0.528 0.344,0.247 4.579,1.394 6.544,-1.116 0.07,1.076 0.379,4.522 1.724,5.869 0.737,0.733 0.911,1.805 0.911,2.66 0,0.772 -0.146,1.367 -0.146,1.379 l -0.152,0.613 0.511,-0.372 c 0.163,-0.119 4.057,-2.971 5.302,-6.707 -0.004,0.01 0.623,-0.937 1.825,-1.325 -0.025,0.163 -0.046,0.33 -0.046,0.563 0,1.444 0.632,4.064 4.836,5.671 l 0.344,0.132 -0.031,-0.367 a 7.046,7.046 0 0 1 -0.028,-0.726 c 0,-1.055 0.146,-2.993 1.151,-3.997 0.661,-0.66 0.859,-1.404 0.859,-2.048 0,-0.508 -0.112,-0.918 -0.226,-1.22 0.848,0.215 2.855,0.862 3.672,2.39 1.186,2.222 5.338,0.454 5.515,0.379 l -0.143,-0.437 c -0.017,0.004 -1.746,0.391 -2.837,-0.358 -0.48,-0.33 -0.768,-0.838 -0.869,-1.511 l -0.192,-2.31 c -0.042,-1.046 -0.187,-1.711 -0.713,-2.27 0.55,-0.05 1.651,-0.031 2.118,1.001 0.733,1.616 3.251,1.774 3.355,1.782 l 0.862,0.046 -0.724,-0.468 c -0.024,-0.014 -2.197,-1.457 -1.822,-3.336 l 0.313,-1.376 c 0.595,-2.48 1.585,-6.632 0.779,-9.181 l -0.438,0.14 c 0.199,0.636 0.282,1.39 0.282,2.196 0,2.26 -0.64,4.944 -1.072,6.738 l -0.317,1.394 a 2.637,2.637 0 0 0 -0.052,0.539 c 0,1.217 0.79,2.146 1.405,2.705 -0.74,-0.16 -1.766,-0.512 -2.152,-1.37 -0.605,-1.326 -2.228,-1.387 -3.004,-1.23 l -0.542,0.109 0.462,0.307 c 0.73,0.487 0.751,1.054 0.803,2.293 l 0.194,2.358 c 0.115,0.804 0.473,1.418 1.061,1.824 0.515,0.35 1.116,0.4 1.666,0.439 -1.234,0.322 -2.924,0.522 -3.532,-0.619 -1.145,-2.132 -4.291,-2.702 -4.423,-2.728 l -0.48,-0.083 0.24,0.421 a 3.16,3.16 0 0 1 0.358,1.422 c 0,0.546 -0.167,1.171 -0.733,1.735 -1.116,1.126 -1.286,3.167 -1.286,4.296 l 0.014,0.386 c -3.595,-1.511 -4.231,-3.749 -4.231,-5.016 0,-0.539 0.104,-0.898 0.119,-0.944 l 0.104,-0.354 -0.365,0.061 c -1.746,0.288 -2.472,1.71 -2.503,1.77 -0.998,2.992 -3.709,5.359 -4.691,6.149 a 6.88,6.88 0 0 0 0.066,-0.895 c 0,-0.935 -0.202,-2.126 -1.05,-2.976 -1.429,-1.429 -1.624,-5.974 -1.624,-6.019 l -0.031,-0.821 -0.4,0.713 c -1.582,2.833 -6.199,1.472 -6.245,1.46 -0.194,-3.58 3.866,-8.16 3.908,-8.207 l 0.425,-0.472 -0.626,0.092 c -2.652,0.384 -4.711,0.029 -6.122,-1.061 a 4.63,4.63 0 0 1 -1.644,-2.498 c 3.076,1.146 5.656,1.21 7.642,0.113 2.774,-1.534 3.383,-4.675 3.407,-4.807 2.914,-6.606 5.459,-7.649 5.486,-7.656 l -0.16,-0.431 c -0.115,0.04 -2.74,1.073 -5.768,7.95 z"
     id="path20" />
  <path
     d="m 709.45,158.07 -0.194,0.007 -2.364,3.24 0.702,0.07 c 12.829,1.248 19.613,8.988 19.679,9.068 l 0.296,0.344 2.326,-2.527 -0.17,-0.26 c -6.505,-10.244 -20.135,-9.947 -20.274,-9.942 z m 0.22,0.804 c 1.585,0.004 13.271,0.365 19.189,9.331 l -1.279,1.397 c -1.387,-1.438 -7.962,-7.582 -19.237,-8.906 z"
     id="path21" />
  <path
     d="m 707.6,164.84 c -1.096,1.495 -2.114,3.707 -2.114,4.742 0,0.198 0.038,0.354 0.122,0.452 0.007,0.01 0.046,0.013 0.059,0.029 -1.336,1.198 -2.131,3.197 -2.131,5.456 0,1.243 0.22,2.538 0.682,3.773 l 0.257,0.695 c 1.259,3.425 2.344,6.384 7.788,4.642 5.244,-1.675 5.449,-2.011 6.77,-4.189 l 0.344,-0.564 c 0.72,-1.17 1.506,-1.404 2.344,-1.652 0.998,-0.3 2.034,-0.607 2.941,-2.4 l 0.883,-1.324 c 0.953,-1.313 2.142,-2.94 2.285,-5.023 l -0.46,-0.031 c -0.132,1.95 -1.279,3.518 -2.197,4.781 l -0.922,1.387 c -0.821,1.616 -1.715,1.884 -2.664,2.167 -0.883,0.263 -1.79,0.534 -2.604,1.853 l -0.348,0.566 c -1.27,2.096 -1.432,2.366 -6.512,3.994 -5.027,1.607 -5.946,-0.9 -7.218,-4.363 l -0.257,-0.702 c -1.433,-3.818 -0.313,-7.669 1.55,-9.049 l 0.64,-0.475 -0.887,0.101 c -0.01,-0.038 -0.02,-0.072 -0.02,-0.132 0,-0.624 0.682,-2.611 2.038,-4.464 1.158,-1.578 3.89,-3.142 3.919,-3.157 l -0.229,-0.398 c -0.115,0.068 -2.845,1.63 -4.058,3.287 z"
     id="path22" />
  <path
     d="m 705.16,178.65 c 0.9,0.624 2.166,0.581 3.692,0 0.007,0.544 0.128,1.699 1.078,2.538 1.116,0.988 2.965,1.178 5.5,0.574 l -0.108,-0.445 c -2.375,0.566 -4.088,0.407 -5.087,-0.469 -1.072,-0.946 -0.922,-2.45 -0.918,-2.464 l 0.042,-0.394 -0.365,0.155 c -1.537,0.662 -2.74,0.702 -3.575,0.125 -1.495,-1.039 -1.384,-3.755 -1.38,-3.786 l -0.46,-0.022 c -0.002,0.124 -0.127,3.002 1.58,4.188 z"
     id="path23" />
  <path
     d="m 708.07,174.99 c -0.656,0.156 -0.827,0.706 -0.827,1.13 0,0.102 0.011,0.197 0.024,0.278 0.115,1.182 1.398,1.969 2.563,2.306 1.133,0.328 2.527,0.349 3.077,-0.356 0.22,-0.282 0.379,-0.79 -0.101,-1.61 -1.75,-2.976 -4.58,-1.811 -4.736,-1.748 z m 1.888,3.271 c -1.019,-0.292 -2.142,-0.953 -2.232,-1.933 -0.022,-0.094 -0.132,-0.752 0.449,-0.89 l 0.046,-0.014 c 0.104,-0.047 2.611,-1.136 4.19,1.55 0.281,0.479 0.326,0.845 0.132,1.092 -0.338,0.44 -1.454,0.527 -2.585,0.196 z m -1.933,-3.254 c 0.004,-0.004 0.046,-0.018 0.046,-0.018 z m 1.625,5.973 c -0.295,2.514 -0.115,2.574 0.066,2.63 l 0.16,0.05 0.18,-0.212 1.457,-1.92 -1.829,-0.866 z m 0.421,0.376 0.737,0.348 -0.845,1.111 c 0.007,-0.379 0.053,-0.913 0.108,-1.459 z m -4.211,-2.396 -0.097,2.376 1.996,-2.413 -1.888,-0.209 z m 0.449,0.266 0.552,0.059 -0.584,0.707 z"
     id="path24" />
  <path
     d="m 704.53,178.2 c 0.017,0.031 1.484,2.9 1.745,3.947 0.167,0.665 1.015,1.422 2.027,1.798 1.012,0.376 1.954,0.318 2.659,-0.174 l 1.325,-1.102 c 0.442,-0.425 0.588,-0.544 0.946,-0.482 l 0.077,-0.454 c -0.601,-0.101 -0.894,0.179 -1.339,0.604 l -1.27,1.057 c -0.782,0.546 -1.739,0.313 -2.239,0.121 -0.946,-0.35 -1.631,-1.028 -1.742,-1.481 -0.275,-1.094 -1.721,-3.919 -1.78,-4.04 l -0.408,0.206 z m 1.91,-8.6 c -1.62,0.748 -2.305,2.713 -2.333,2.796 l 0.434,0.151 c 0.007,-0.019 0.654,-1.87 2.093,-2.531 0.702,-0.322 1.488,-0.311 2.344,0.025 l 0.17,-0.425 c -0.973,-0.392 -1.884,-0.396 -2.708,-0.017 z m 10.89,5.16 c 0.128,0.096 3.188,2.414 1.429,5.243 l 0.39,0.244 c 1.985,-3.188 -1.513,-5.831 -1.544,-5.858 l -0.275,0.372 z m -9.2,0.45 c 0,0 -0.476,1.729 1.957,2.34 0,0 -2.288,-0.019 -2.434,-0.611 -0.154,-0.59 0.013,-1.9 0.476,-1.729 z m 7.44,2.07 c 0,0.15 -0.122,0.274 -0.271,0.274 -0.149,0 -0.271,-0.124 -0.271,-0.274 0,-0.15 0.125,-0.271 0.271,-0.271 0.146,0 0.271,0.124 0.271,0.271 z m 0.27,1.08 c 0,0.15 -0.122,0.275 -0.271,0.275 -0.149,0 -0.268,-0.125 -0.268,-0.275 a 0.27,0.27 0 0 1 0.268,-0.27 c 0.149,0 0.271,0.125 0.271,0.27 z"
     id="path25" />
  <circle
     cx="714.01001"
     cy="177.825"
     r="0.27000001"
     id="circle25" />
  <path
     d="m 714.75,179.45 a 0.271,0.271 0 0 1 -0.271,0.268 0.27,0.27 0 0 1 -0.268,-0.268 c 0,-0.151 0.122,-0.275 0.268,-0.275 0.146,0 0.271,0.122 0.271,0.275 z m -7.1,-7.32 c 0,0.15 -0.121,0.272 -0.275,0.272 -0.146,0 -0.271,-0.124 -0.271,-0.272 0,-0.148 0.125,-0.271 0.271,-0.271 0.154,0 0.275,0.125 0.275,0.271 z"
     id="path26" />
  <circle
     cx="707.65002"
     cy="173.22"
     r="0.27000001"
     id="circle26" />
  <circle
     cx="706.09003"
     cy="172.67999"
     r="0.27000001"
     id="circle27" />
  <path
     d="m 706.83,174.3 a 0.277,0.277 0 0 1 -0.275,0.271 0.27,0.27 0 0 1 -0.268,-0.271 c 0,-0.146 0.122,-0.275 0.268,-0.275 a 0.28,0.28 0 0 1 0.275,0.275 z m 4.74,-9.55 c 0,0 3.518,2.165 0.132,6.228 0,0 1.666,-1.237 1.836,-3.362 0.178,-2.123 -1.207,-3.816 -1.968,-2.866 z m 13.5,5.84 c -1.133,0.582 -2.764,-0.496 -3.581,-1.514 -0.817,-1.018 -2.5,-1.279 -3.55,0.581 -1.05,1.86 -2.56,2.562 -2.56,2.562 0,0 1.477,-0.872 2.998,-2.503 1.512,-1.627 2.386,-0.32 3.87,0.466 1.484,0.786 1.717,0.959 2.764,0.552 l 0.059,-0.143 z"
     id="path27" />
  <path
     d="m 724.78,170.86 c -0.463,0.348 -1.312,0.64 -2.212,-0.09 -0.9,-0.73 -1.658,-1.715 -2.792,-1.134 -1.134,0.581 -3.293,2.212 -3.293,2.212 0,0 3.494,-2.417 4.165,-1.891 0.671,0.526 2.243,1.805 3.202,1.429 0.961,-0.383 0.93,-0.526 0.93,-0.526 z m -2.68,1.48 c -1.105,-0.844 -2.212,0.989 -3.143,0.76 -0.931,-0.236 -1.69,-1.778 -1.69,-1.778 0,0 0.876,1.631 2.096,1.252 1.22,-0.379 2.069,-1.135 2.824,-0.554 0.755,0.581 -0.088,0.322 -0.088,0.322 z"
     id="path28" />
  <path
     d="m 720.37,172.57 c -2.183,0.226 -2.399,-1.813 -2.399,-1.834 0,0 0.689,1.78 2.618,1.457 l -0.22,0.377 z m -0.07,-1.39 c 0.143,0.552 0.112,0.803 -0.473,0.803 -0.585,0 -0.988,-0.196 -0.988,-0.766 0,-0.57 1.374,-0.392 1.46,-0.037 z m -7.84,-3.03 c 0,0.379 -0.313,0.685 -0.7,0.685 -0.387,0 -0.462,-0.26 -0.462,-0.636 0,-0.376 0.076,-0.73 0.462,-0.73 0.386,0 0.7,0.306 0.7,0.68 z"
     id="path29" />
  <path
     d="m 710.05,165.71 c 0,0 3.74,0.04 1.888,4.72 0,0 1.426,-2.329 0.532,-4.006 -0.894,-1.677 -2.305,-1.252 -2.305,-1.252 0,0 -0.343,0.317 -0.114,0.538 z"
     id="path30" />
  <path
     d="m 709.94,167.58 c -0.011,0.938 0.616,1.907 1.856,2.876 l 0.286,-0.36 c -1.123,-0.876 -1.69,-1.721 -1.682,-2.507 0.008,-0.786 0.612,-1.253 0.619,-1.259 l -0.275,-0.371 c -0.032,0.026 -0.791,0.604 -0.804,1.62 z"
     id="path31" />
  <path
     d="m 710.77,168.37 c 0.16,0.539 0.577,0.946 1.244,1.212 l 0.17,-0.425 c -0.528,-0.21 -0.856,-0.518 -0.973,-0.913 -0.236,-0.796 0.403,-1.724 0.41,-1.732 l -0.372,-0.268 c -0.036,0.048 -0.779,1.121 -0.48,2.125 z m 5.13,2.6 c 0,0 0.696,1.512 -0.32,3.143 l -0.991,1.544 c 0,0 1.224,-2.242 0.758,-3.175 -0.466,-0.933 0.553,-1.512 0.553,-1.512 z m 14.55,15.79 c 3.842,0.724 12.51,7.52 12.6,7.59 l 0.498,-0.636 c -0.365,-0.282 -8.915,-6.985 -12.948,-7.744 z m 3.41,9.59 c 0.257,3.409 3.967,5.528 4.127,5.614 l 0.392,-0.7 c -0.038,-0.018 -3.491,-1.996 -3.72,-4.975 z m -9.21,0.71 c 0,3.824 3.584,8.45 3.738,8.647 l 0.632,-0.497 c -0.035,-0.043 -3.568,-4.602 -3.568,-8.15 h -0.803 z m -12.15,0.43 c 0.632,1.262 0.566,1.902 0.403,2.215 -0.191,0.353 -0.581,0.407 -0.594,0.41 l 0.094,0.8 a 1.65,1.65 0 0 0 1.2,-0.816 c 0.383,-0.701 0.253,-1.699 -0.383,-2.964 l -0.72,0.354 z"
     id="path32" />
  <g
     fill="#ffffff"
     class="C H"
     id="g36"
     transform="translate(-134)">
    <g
       stroke-width="0.36"
       id="g35">
      <path
         d="m 791.86,178.63 c 0,0 0.233,2.56 2.212,4.079 0,0 -0.233,-2.8 0.35,-3.96 0,-0.001 -1.046,-1.165 -2.562,-0.119 z m 3.95,1.63 c 0,0 0.468,2.326 1.865,3.376 l 0.82,-0.233 c 0,0 0.348,-2.914 0.814,-3.262 0.466,-0.348 -1.979,1.048 -3.498,0.119 z"
         id="path33" />
      <path
         d="m 799.31,180.14 1.513,2.329 1.745,-0.931 -0.348,-2.792 c 0,0 -1.046,-0.236 -2.91,1.394 z"
         id="path34" />
      <path
         d="m 806.41,180.61 -1.98,1.631 c 0,0 -1.046,-0.817 -1.864,-0.7 l 0.352,-2.562 c 0,0 1.397,-1.048 3.492,1.631 z m -14.09,24.1 c 0,0 -0.348,-3.61 0.119,-3.842 0,0 1.394,0.466 1.978,-0.119 0,0 0.816,2.914 0.582,4.078 -0.234,1.164 -1.628,0.701 -2.678,-0.116 z m 8.97,-3.73 c 0,0 -0.115,-3.028 0.466,-3.379 0,0 2.91,0.35 3.608,-1.162 l 1.049,2.91 c 0,0 -3.26,-0.35 -5.123,1.631 z"
         id="path35" />
    </g>
    <path
       stroke-width="0.35"
       d="m 798.15,201.56 c 0,0 0.581,-3.143 1.165,-3.259 0,0 1.513,0.464 1.979,-0.12 l -0.115,3.846 c 0,-10e-4 0.115,-1.632 -3.029,-0.467 z m -3.38,0.47 c 0,0 0.698,-2.795 1.165,-2.795 0.467,0 1.632,0.698 2.213,0.233 v 2.096 c 0,0 -2.566,-0.581 -2.911,2.91 z"
       id="path36" />
  </g>
  <g
     class="C"
     id="g62"
     transform="translate(-134)">
    <g
       class="F"
       id="g55">
      <g
         class="B E"
         id="g54">
        <path
           d="m 840.16,260 c 0,0 7.914,7.35 5.845,13.758 0,0 5.087,-10.932 -0.376,-14.137 -5.47,-3.203 -5.657,-0.748 -5.47,0.379 z"
           id="path37" />
        <path
           d="m 830.17,267.15 c 0,0 -2.07,2.833 0.188,4.906 0,0 -2.448,3.575 -0.56,6.595 0,0 -1.511,3.203 -1.133,6.596 0,0 -1.321,5.275 1.505,7.729 0,0 3.018,1.508 4.339,0.188 0,0 2.636,-3.956 0.938,-8.108 0,0 1.885,-3.39 -0.187,-7.726 0,0 0.566,-2.45 -1.13,-5.274 0,0 1.13,-1.888 0.186,-3.394 0,0 -3.767,-3.961 -4.146,-1.513 z"
           class="D"
           id="path38" />
        <path
           d="m 832.43,257.92 c 0,0 -9.422,-18.09 -16.02,-18.848 -6.598,-0.758 -6.972,-7.16 -6.972,-7.16 0,0 0.752,3.016 6.031,3.016 5.279,0 15.456,7.349 16.585,13.003 1.129,5.654 2.263,4.902 2.263,4.902 l -1.888,5.088 z"
           id="path39" />
        <path
           d="m 832.43,256.6 c 0,0 3.394,-22.805 18.286,-23.184 14.885,-0.379 9.989,1.13 13.567,-1.321 0,0 -9.985,5.281 -16.208,6.032 -6.217,0.754 -11.308,12.812 -11.119,15.079 0.187,2.26 -3.391,6.596 -5.088,5.09 -1.697,-1.506 0.563,-1.697 0.563,-1.697 z"
           id="path40" />
        <path
           d="m 835.82,265.09 c 0,0 3.391,-9.047 9.235,-6.029 0,0 -4.526,-8.674 -12.629,-1.134 0,0 3.582,4.9 3.394,7.163 z m -11.31,-9.06 c 0,0 4.902,20.17 -2.639,26.387 0,0 0.187,-10.361 -4.336,-16.582 -4.523,-6.221 4.523,-13.003 6.974,-9.805 z"
           id="path41" />
        <path
           d="m 825.08,259.62 c 0,0 8.861,8.484 9.427,11.31 0.566,2.826 2.636,-8.48 -1.508,-11.682 -4.147,-3.209 -8.67,-3.773 -8.67,-3.773 z"
           id="path42" />
        <path
           d="m 808.74,281.85 c 0,0 0.803,3.56 2.988,4.249 0,0 0.113,2.646 2.068,3.449 0,0 -1.037,2.184 0.691,3.56 0,0 -0.348,4.367 1.262,5.288 0,0 3.911,-0.229 5.285,-1.38 0,0 0.806,-2.868 -1.374,-5.747 0,0 0.341,-2.758 -1.843,-4.249 0,0 0.69,-3.682 -2.069,-5.058 0,0 -0.457,-2.99 -2.184,-4.482 0.001,-0.001 -3.33,4.71 -4.824,4.369 z"
           class="D"
           id="path43" />
        <path
           d="m 813.1,277.48 c 0,0 -11.606,-4.252 -18.042,1.84 0,0 9.881,1.38 11.147,3.334 1.266,1.954 7.352,-3.216 6.895,-5.173 z"
           id="path44" />
        <path
           d="m 809.54,284.72 c 0,0 -0.918,-0.803 -2.066,-1.609 -1.148,-0.806 -10.916,-3.446 -12.299,5.976 0,0 -3.564,-9.307 1.608,-10.573 5.172,-1.266 9.312,1.724 12.757,6.206 m -7.64,-19.26 c 0,0 3.577,7.726 4.9,8.108 1.319,0.372 2.26,-0.942 2.26,-0.942 0,0 -4.71,-6.974 -7.159,-7.166 z m -2.64,-11.87 c 0,0 -3.018,-9.988 -6.596,-7.35 -3.578,2.638 -2.639,9.798 -2.639,9.798 0,0 -7.163,-7.346 -3.018,-13.192 4.152,-5.842 12.253,0.566 12.253,10.744 z"
           id="path45" />
        <path
           d="m 807.37,274.13 c 0,0 0,1.885 1.32,2.448 1.32,0.563 3.769,1.505 3.769,0.379 0,-1.126 -1.883,-5.466 -2.641,-4.9 -0.758,0.566 -2.069,0.56 -2.448,2.072 z"
           class="D"
           id="path46" />
        <path
           d="m 805.11,262.45 c 0,0 -0.377,-8.668 5.274,-11.876 0,0 1.134,0.194 1.7,-1.501 0,0 -4.529,10.927 -3.208,16.393 l -0.187,0.755"
           id="path47" />
        <path
           d="m 806.24,251.89 c 0,0 10.177,-21.112 22.618,-13.762 0,0 -13.004,2.64 -17.714,11.876 l -4.715,6.967 -0.188,-5.082 z"
           id="path48" />
        <path
           d="m 800.77,259.62 c 0,0 -3.017,-14.134 -4.901,-16.016 -1.884,-1.882 -5.09,-3.959 -8.861,-0.756 0,0 6.599,-5.845 13.572,-0.942 6.973,4.903 5.464,12.628 5.464,12.628 l -0.751,9.802 L 800.58,260"
           id="path49" />
        <path
           d="m 811.7,276.39 c 0,0 -12.44,-23.552 -20.542,-6.78 0,0 -1.512,4.332 0.184,6.025 0,0 -4.524,-3.39 -2.449,-11.682 2.075,-8.292 15.828,-4.524 19.79,2.263 3.956,6.784 5.09,10.18 4.524,10.552 -0.568,0.379 -1.507,-0.378 -1.507,-0.378 z m 35.06,6.79 c 0,0 9.05,-18.66 14.324,-10.18 0,0 1.506,4.145 -0.757,5.845 0,0 -3.577,-4.336 -6.78,0.942 -3.203,5.278 -1.885,4.902 -1.885,4.902 0,0 -3.394,0.942 -4.902,-1.51 z"
           id="path50" />
        <path
           d="m 860.32,278.84 c 0,0 4.9,2.635 3.209,7.913 0,0 6.592,-12.625 -2.452,-13.758 10e-4,0 1.698,3.96 -0.757,5.845 z m 0.57,-12.81 c 0,0 11.876,3.39 12.252,8.484 0,0 2.076,-9.805 -4.711,-12.82 10e-4,10e-4 -8.107,1.322 -7.541,4.336 z"
           id="path51" />
        <path
           d="m 866.17,250.38 c 5.09,-9.989 11.498,3.204 11.498,3.204 0,0 2.26,-10.364 -4.145,-12.252 -6.412,-1.884 -10.556,22.05 -10.556,22.05 l -7.541,1.697 c 0,0 2.075,-20.917 13.382,-22.805 l 1.318,0.191"
           id="path52" />
        <path
           d="m 857.12,256.41 c 0,0 -7.159,-14.7 -12.061,-16.206 -4.902,-1.506 2.642,-3.77 5.657,-0.944 3.015,2.826 8.665,6.408 8.101,13.948 l -1.697,3.203 z m -7.35,20.17 c 0,0 2.072,-9.985 7.726,-13.003 5.654,-3.018 10.932,-1.884 10.932,-1.884 0,0 -6.787,1.505 -7.914,4.902 -1.133,3.39 -3.018,3.577 -3.018,3.577 z"
           id="path53" />
        <path
           d="m 846.76,283.18 c 0,0 -3.203,6.032 -2.452,6.972 0,0 -3.39,4.9 -2.072,7.35 0,0 3.394,2.639 4.902,1.506 0,0 3.953,-5.462 2.824,-8.48 0,0 2.639,-3.577 1.7,-5.838 0,0 -3.956,0.187 -4.902,-1.51 z"
           class="D"
           id="path54" />
      </g>
      <path
         fill="#000000"
         stroke="none"
         d="m 830.18,272.41 c 0.212,0.108 2.116,1.032 3.396,0.605 l 0.916,-0.782 -0.72,-0.358 c -0.469,0.931 -2.542,0.163 -3.234,-0.18 z m -0.31,5.85 -0.156,0.79 c 0.162,0.031 3.986,0.772 5.81,-0.848 l -0.535,-0.599 c -1.524,1.352 -5.081,0.668 -5.119,0.658 z m -0.97,6.66 -0.472,0.65 c 0.046,0.035 4.489,3.199 7.333,-0.257 l -0.623,-0.511 c -2.362,2.868 -6.08,0.233 -6.239,0.118 z m -17.26,0.96 0.167,0.431 c 0.16,-0.066 3.925,-1.578 4.164,-4.332 l -0.457,-0.042 c -0.215,2.472 -3.838,3.929 -3.874,3.943 z m 2.13,3.44 0.032,0.458 c 0.146,-0.011 3.623,-0.271 4.23,-2.701 l -0.449,-0.115 c -0.523,2.107 -3.78,2.354 -3.814,2.358 z m 0.72,3.56 -0.025,0.462 c 0.167,0.007 4.061,0.209 5.382,-1.948 l -0.392,-0.244 c -1.18,1.927 -4.926,1.733 -4.964,1.729 z m 29.53,-2.44 c 0.07,0.073 1.748,1.732 3.709,1.658 0.96,-0.035 1.812,-0.476 2.531,-1.303 l -0.608,-0.528 c -0.566,0.653 -1.224,1.001 -1.948,1.028 -1.606,0.059 -3.104,-1.408 -3.119,-1.426 l -0.565,0.57 z"
         id="path55" />
    </g>
    <g
       stroke-width="0.42"
       class="B D"
       id="g57">
      <path
         d="m 961.06,304.22 a 1.66,1.66 0 0 0 -0.608,0.403 z m 13.86,-3.47 c -0.134,-0.344 -0.222,-0.199 -0.4,-0.352 -0.253,-0.209 -0.4,-0.876 -0.623,-1.126 -0.132,-0.152 -0.284,-0.004 -0.427,-0.042 l -1.046,-2.152 a 0.601,0.601 0 0 0 0.094,-0.32 11.45,11.45 0 0 0 -0.17,-0.601 c -0.097,-0.152 -0.251,-0.062 -0.344,-0.299 -0.104,-0.236 -0.025,-0.702 -0.062,-0.98 -0.028,-0.233 -0.119,-0.361 -0.104,-0.689 0.014,-0.284 0.167,-0.616 0.149,-0.865 -0.007,-0.156 -0.191,-0.508 -0.246,-0.64 -0.223,-0.539 -0.41,-1.046 -0.438,-1.711 -0.028,-0.601 0.094,-0.97 0.138,-1.492 0.056,-0.625 -0.275,-0.929 -0.275,-1.506 0.004,-0.442 0.191,-0.938 0.244,-1.334 0.073,-0.542 0.079,-1.328 0.034,-1.884 -0.041,-0.532 -0.191,-0.852 -0.108,-1.45 0.022,-0.146 0.091,-0.264 0.108,-0.469 l -0.004,-0.431 v -0.858 l 0.004,-0.863 c -0.024,-0.226 -0.156,-0.458 -0.156,-0.636 0,-0.306 0.194,-0.451 0.152,-0.866 -0.026,-0.299 -0.07,-0.368 -0.138,-0.629 -0.132,-0.493 -0.042,-0.991 -0.122,-1.519 -0.038,-0.253 -0.119,-0.334 -0.143,-0.623 -0.034,-0.341 0.071,-0.458 0.104,-0.7 0.033,-0.242 0.071,-0.556 0.038,-0.81 -0.038,-0.306 -0.184,-0.522 -0.143,-0.856 l -0.112,3.782 -0.226,-6.355 -5.018,-2.357 c 0,0 -0.425,9.214 -0.317,10.496 0.101,1.286 0.532,10.076 0.317,11.147 -0.215,1.071 -0.744,6.428 -0.744,6.428 0,0 -2.454,1.715 -3.414,3.641 -0.96,1.926 -0.748,2.573 -1.072,2.573 l 2.384,-0.372 -1.776,1.186 a 1.084,1.084 0 0 1 1.106,0.172 c 0.041,0.034 0.306,0.26 0.34,0.26 0.094,0 0.223,-0.239 0.337,-0.281 0.37,-0.125 0.682,0.568 1.032,0.515 0.188,-0.028 0.445,-0.226 0.599,-0.427 0.127,-0.17 0.176,-0.469 0.31,-0.583 0.122,-0.104 0.421,0.017 0.55,0.017 0.35,0 0.706,0.011 1.056,0 0.467,-0.013 0.845,-0.671 1.276,-1.043 0.401,-0.337 0.696,-0.456 1.124,-0.431 0.469,0.035 0.893,0.473 1.37,0.5 0.361,0.018 0.612,0.062 0.904,-0.317 0.202,-0.264 0.344,-0.656 0.535,-0.931 l 1.186,-0.184 c 0.235,0.097 0.475,0.205 0.677,0.198 0.302,-0.014 0.616,-0.052 0.916,-0.004 0.114,0.014 0.34,0.282 0.433,0.216 0.064,-0.049 0.172,-0.41 0.236,-0.518 -0.026,-0.145 -0.071,-0.506 -0.124,-0.628 z"
         id="path56" />
      <path
         d="m 964.77,304.05 c 0.302,0 0.58,-0.07 0.834,0.152 l 0.119,0.233 a 0.26,0.26 0 0 0 0.251,0.035 c 0.17,0.115 0.205,0.18 0.392,0.223 0.174,0.037 0.365,-0.007 0.539,-0.004 0.22,0.007 0.326,0.083 0.532,0.167 0.358,0.146 0.594,0.007 0.904,-0.216 0.359,-0.264 0.49,-0.062 0.834,0.269 0.258,0.246 0.205,0.223 0.438,0.055 0.035,-0.079 0.076,-0.156 0.115,-0.223 0.115,-0.048 0.233,-0.079 0.35,-0.101 0.192,-0.09 0.383,-0.079 0.564,-0.149 0.191,-0.074 0.33,-0.286 0.532,-0.247 0.174,0.035 0.373,0.176 0.539,0.229 0.16,0.055 0.229,0.086 0.362,0.184 0.239,-0.493 0.768,-0.64 1.105,-0.878 0.352,-0.244 0.678,0.052 1.064,0.055 0.205,0 0.288,-0.119 0.434,-0.167 0.163,-0.06 0.35,0.026 0.508,-0.038 0.167,-0.062 0.198,-0.223 0.382,-0.244 0.341,-0.042 0.72,0.514 1.061,0.618 0.191,0.064 1.075,0.262 0.946,-0.389 -0.125,-0.619 -0.68,-0.191 -0.799,-0.625 -0.064,-0.247 0.066,-0.599 -0.011,-0.876 -0.066,-0.253 -0.344,-0.546 -0.511,-0.601 -0.209,-0.066 -0.33,0.152 -0.508,-0.018 -0.146,-0.136 -0.202,-0.643 -0.33,-0.845 -0.172,0.125 -0.278,0.24 -0.504,0.194 -0.258,-0.062 -0.233,-0.15 -0.425,-0.394 -0.418,-0.522 -0.658,0.313 -1.043,0.181 -0.293,-0.094 -0.564,-0.83 -0.793,-1.13 -0.122,-0.16 -0.467,-0.678 -0.643,-0.563 -0.299,0.194 -0.028,0.758 -0.184,1.008 -0.112,0.174 -0.508,-0.004 -0.65,0.024 -0.226,0.049 -0.268,0.108 -0.431,0.379 -0.33,0.546 -0.522,0.98 -1.036,0.918 -0.244,-0.028 -0.427,-0.275 -0.665,-0.185 -0.253,0.097 -0.396,0.368 -0.674,0.4 -0.202,0.017 -0.434,0.024 -0.632,-0.052 -0.194,-0.088 -0.414,-0.452 -0.592,-0.553 a 0.23,0.23 0 0 0 -0.239,-0.046 c -0.022,-0.011 -0.289,-0.167 -0.293,-0.167 -0.31,-0.09 -0.284,-0.079 -0.41,0.33 -0.073,0.253 -0.101,0.515 -0.194,0.755 -0.09,0.202 -0.288,0.451 -0.403,0.587 -0.216,0.233 -0.32,0.17 -0.601,0.254 -0.226,0.073 -0.526,0.425 -0.647,-0.028 -0.18,-0.682 0.5,-1.7 -0.258,-1.523 a 0.5,0.5 0 0 0 -0.438,0.376 c -0.134,0.337 -0.026,0.556 -0.086,0.925 -0.079,0.466 -0.967,1.248 -0.792,1.669 0.119,0.296 0.515,-0.16 0.623,-0.086 0.18,0.125 0.128,0.421 0.257,0.619 0.269,0.41 1.064,-0.636 1.11,-0.07 M 961.55,300.4 c -0.002,-0.059 -0.013,-0.115 -0.017,-0.176 -0.212,-0.038 -0.452,-0.264 -0.647,-0.268 -0.184,-0.011 -0.542,0.438 -0.668,0.653 -0.389,0.643 -0.281,1.519 -0.935,1.506 -0.16,-0.004 -0.535,-0.112 -0.676,-0.014 -0.246,0.174 -0.09,0.689 -0.09,1.039 0,0.33 0.15,0 -0.026,0.428 -0.053,0.118 -0.212,0.156 -0.254,0.313 -0.132,0.559 0.334,0.382 0.539,0.376 h 1.576 c 0.317,0.007 0.508,-0.104 0.803,-0.22 0.194,-0.066 0.608,-0.062 0.773,-0.236 0.059,-0.066 0.251,-0.508 0.277,-0.612 0.042,-0.216 -0.041,-0.476 0.011,-0.656 0.083,-0.317 0.366,-0.196 0.418,-0.623 0.136,-1.048 -0.983,-0.264 -0.806,-1.294"
         id="path57" />
    </g>
    <g
       class="B E"
       id="g61">
      <path
         d="m 974.21,271.28 c 0,1.356 -0.928,2.448 -2.078,2.448 -1.136,0 -2.072,-1.092 -2.072,-2.448 0,-1.356 0.935,-2.452 2.072,-2.452 1.15,0.001 2.078,1.099 2.078,2.452 z m -6.78,-3.02 c 0,1.352 -0.929,2.448 -2.074,2.448 -1.145,0 -2.078,-1.096 -2.078,-2.448 0,-1.352 0.931,-2.45 2.078,-2.45 1.147,0 2.074,1.098 2.074,2.45 z"
         id="path58" />
      <path
         d="m 971.01,269.2 c 0,1.356 -0.929,2.448 -2.074,2.448 -1.145,0 -2.072,-1.092 -2.072,-2.448 0,-1.356 0.928,-2.45 2.072,-2.45 1.144,0 2.074,1.096 2.074,2.45 z"
         id="path59" />
      <path
         d="m 967.54,271.44 c 0,1.356 -0.932,2.454 -2.076,2.454 -1.144,0 -2.072,-1.099 -2.072,-2.454 0,-1.355 0.928,-2.448 2.072,-2.448 1.144,0 2.076,1.094 2.076,2.448 z"
         id="path60" />
      <path
         d="m 970.76,273.31 c 0,1.352 -0.935,2.454 -2.075,2.454 -1.14,0 -2.076,-1.102 -2.076,-2.454 0,-1.352 0.932,-2.448 2.076,-2.448 1.144,0 2.075,1.096 2.075,2.448 z"
         id="path61" />
    </g>
    <path
       d="m 971.76,246.58 c 0,0 20.918,-29.209 43.348,1.134 0,0 0.187,3.018 -1.885,6.22 l -0.566,-2.448 -1.319,0.374 -0.376,-1.507 -2.455,-0.187 0.758,-3.205 -2.642,2.074 0.379,-2.263 -3.016,3.02 0.379,-6.412 -3.206,5.466 0.376,-3.767 -1.129,1.693 -0.68,-2.196 -1.013,2.196 -1.512,-1.128 v 1.507 l -2.635,-2.262 -0.942,3.014 -1.319,-3.202 -0.378,2.26 -1.322,-2.639 -0.184,2.828 -4.339,-1.886 0.942,2.639 -2.069,-1.505 0.376,1.505 -2.824,-0.563 0.185,1.694 -3.016,-0.566 0.568,1.506 -4.148,-0.562 1.502,1.696 -0.418,0.69 c 0,0 22.66,-7.472 24.168,20.796 l -4.147,2.072 1.133,-2.256 -1.133,-0.757 -3.39,-2.635 0.942,-3.584 -1.129,0.379 -0.191,-2.072 -0.564,0.376 -1.322,-2.072 -0.376,0.755 -0.942,-2.454 -0.942,1.7 -0.568,-4.148 -1.505,2.642 -0.192,-1.508 -0.566,0.942 -1.884,-2.263 -0.56,1.508 -0.758,-1.13 -0.563,1.318 -2.074,-1.888 v 1.513 l -1.318,-1.134 -0.571,0.755 -3.198,-1.697 -0.196,1.505 -1.692,-1.505 -0.568,1.505 c 0,0 20.549,11.689 14.137,30.725 l -1.134,2.448 -0.372,-6.404 -1.884,3.39 1.31,-7.35 -1.31,1.318 -0.194,-2.824 -1.69,2.824 -0.575,-3.202 -0.748,0.942 -1.136,-4.902 -0.942,2.076 -1.506,-5.466 -1.129,2.26 -0.755,-4.708 -0.755,2.826 -2.263,-4.148 -0.373,1.693 -1.318,-3.39 -0.758,1.134 c 0,0 -3.769,-0.192 -4.898,-1.134 -1.129,-0.942 -4.336,5.657 -4.336,5.657 l 0.378,-3.96 -1.318,2.635 v -2.635 l -2.452,7.914 -0.566,-5.653 -1.319,4.9 -0.568,-1.505 -0.376,2.075 -0.755,-0.757 -0.658,2.225 -1.23,-0.904 v 3.014 l -1.129,-1.508 -0.942,4.524 -0.564,-1.88 v 2.069 l -0.942,-1.126 -0.946,4.524 -1.318,-1.884 -0.185,3.199 0.56,2.454 -1.506,-0.755 0.568,3.953 c 0,0 -5.844,-10.927 1.133,-21.484 6.968,-10.549 16.393,-13.379 16.393,-13.379 l -0.946,-0.938 -0.187,-0.946 -5.653,2.826 0.191,-1.7 -1.51,1.321 -0.376,-1.884 -0.946,1.697 -0.184,-0.755 -1.322,2.076 -0.757,-3.018 -0.94,3.584 -0.889,-2.507 -1.937,5.329 v -3.956 l -1.508,4.148 -0.564,-4.524 -1.129,5.274 v -4.711 l -1.7,4.711 -1.129,-4.52 -0.755,4.332 -1.129,-3.39 -1.134,5.087 -1.693,-4.524 -0.942,6.787 -1.129,-2.642 -0.191,4.902 -1.315,-3.014 1.315,6.404 -1.697,-2.448 0.568,3.956 -2.448,-4.336 0.187,5.094 -1.321,-1.7 -0.568,1.885 c 0,0 -0.56,-19.6 12.816,-23.372 13.386,-3.768 22.055,1.133 22.055,1.133 l -5.087,-4.145 0.564,-1.321 h -1.884 l 0.754,-1.508 -3.956,0.191 1.129,-1.508 -3.018,0.376 v -0.941 l -1.884,1.504 0.755,-1.693 -2.639,1.693 -0.161,-2.507 -1.349,2.135 -0.748,-2.263 -6.035,6.028 1.696,-6.217 -1.129,1.321 -0.187,-1.321 -1.697,2.641 -0.378,-1.886 -0.755,2.26 -0.568,-2.636 -1.314,2.636 -1.322,-2.446 -0.563,3.205 -0.946,-1.7 -1.13,2.45 -1.505,-1.51 -0.191,1.51 -3.016,-1.32 0.755,2.263 -2.263,-1.884 -0.568,3.014 -1.315,-1.508 -0.942,3.773 -0.942,-3.583 -0.942,2.827 c 0,0 11.786,-30.286 41.605,-10.526 0,0 3.247,3.175 4.002,5.436 0.755,2.261 0.191,0.38 0.191,0.38 l -0.568,-20.921 1.13,9.047 0.754,-3.205 -0.187,4.712 3.012,-6.598 c 0,0 -3.577,10.933 -2.261,14.89 0,0 1.322,-12.626 5.849,-14.136 l -4.148,9.046 1.318,-0.19 -0.942,1.888 h 1.13 l -1.367,2.99 -0.707,1.534 0.751,1.506 1.139,-1.141 z"
       class="B E F"
       id="path62" />
  </g>
  <path
     d="m 834.66,258.87 0.594,0.535 c 0.08,-0.083 1.944,-2.069 5.074,0.574 l 0.518,-0.616 c -3.742,-3.164 -6.169,-0.522 -6.186,-0.493 z m -0.91,-10.26 -0.122,0.725 1.453,-0.62 -0.998,1.748 2.167,-0.721 -2.688,3.517 0.64,0.494 4.277,-5.602 -2.657,0.887 1.14,-2.005 -2.298,0.988 0.475,-2.874 -0.796,-0.133 z m -3.99,0.23 0.925,2.039 -1.475,-0.593 4.349,7.694 0.557,-0.713 -0.876,2.256 0.751,0.293 1.874,-4.823 -0.691,-0.392 -1.51,1.933 -2.626,-4.645 1.207,0.484 -1.204,-2.653 1.631,1.019 v -2.868 h -0.804 v 1.418 l -2.663,-1.662 0.553,1.213 z m -2.74,9.66 0.32,0.737 c 1.177,-0.504 2.148,-0.588 2.885,-0.236 0.863,0.414 1.123,1.303 1.126,1.31 l 0.775,-0.209 c -0.011,-0.052 -0.352,-1.248 -1.543,-1.822 -0.952,-0.458 -2.152,-0.385 -3.563,0.22 z m 3.376,8.149 -0.661,-4.214 0.797,-0.125 0.661,4.214 z m 5.789,-0.693 -1.073,-3.219 0.765,-0.255 1.073,3.219 z m 2.124,2.38 -0.806,-3.216 0.782,-0.196 0.806,3.216 z"
     id="path63" />
  <path
     d="m 677.41,365.04 c 0,0 -3.534,-1.606 -5.143,-0.431 -1.608,1.182 -1.388,2.893 -2.783,2.785 0,0 5.354,1.178 6.532,-0.216 1.177,-1.387 1.394,-1.819 1.394,-1.819 m 0.65,1.161 c 0,0 -2.326,3.109 -1.522,4.93 0.804,1.821 2.522,1.979 2.116,3.316 0,0 2.302,-4.974 1.196,-6.426 l -1.475,-1.745 m -4.235,-8.685 c 0,0 -3.71,1.151 -4.126,3.095 -0.426,1.946 0.878,3.086 -0.233,3.931 0,0 4.782,-2.68 4.738,-4.506 l -0.163,-2.284 m 1.964,1.044 c 0,0 1.759,-3.467 0.652,-5.118 -1.105,-1.663 -2.832,-1.52 -2.662,-2.904 0,0 -1.414,5.296 -0.073,6.536 l 1.763,1.468 m -3.32,-1.242 c 0,0 0.085,-3.876 -1.632,-4.889 -1.717,-1.013 -3.209,-0.142 -3.658,-1.468 0,0 1.026,5.389 2.773,5.928 l 2.227,0.557 m 6.63,6.332 c 0,0 4.068,-1.397 4.392,2.998 0.324,4.395 -0.216,2.893 -0.216,2.893 0,0 -2.142,-4.712 -4.496,-5.464 z"
     class="B C E F"
     id="path64" />
  <path
     d="m 677.99,366.59 a 340.31,340.31 0 0 0 0.426,3.414 l 0.572,-0.073 -0.431,-3.322 c 0.014,0.004 1.391,-7.301 1.391,-7.301 l -0.568,-0.104 -1.391,7.386 z"
     id="path65" />
  <path
     d="m 674.29,365.51 -0.19,0.542 c 1.945,0.684 4.661,-1.454 4.774,-1.544 l -0.36,-0.448 c -0.024,0.017 -2.578,2.034 -4.224,1.45 z m 5.098,-4.286 -9.103,-4.605 0.363,-0.717 9.103,4.605 z"
     id="path66" />
  <path
     d="m 672.789,360.19 -0.566,-0.567 1.821,-1.819 0.566,0.567 z m 3.186,-0.885 -1.928,-4.18 0.729,-0.336 1.928,4.18 z m 2.695,5.115 0.052,0.804 c 2.476,-0.168 3.08,1.435 3.084,1.453 l 0.79,-0.164 c -0.094,-0.458 -1.085,-2.284 -3.925,-2.093 z"
     id="path67" />
  <g
     fill="#ffffff"
     class="B C"
     id="g70"
     transform="translate(-134)">
    <path
       d="m 854.43,366.27 c 3.035,-1.7 3.643,-7.657 3.643,-7.657 -0.726,2.191 -6.311,4.375 -6.311,4.375 4.127,-2.556 9.102,-14.084 9.102,-14.084 -1.334,4.129 -12.138,7.526 -19.061,11.411 -6.923,3.885 -3.278,15.058 -3.278,15.058 -1.94,-1.337 -5.706,-7.283 -6.432,-12.509 -0.733,-5.219 -2.796,-7.28 -7.531,-7.889 -4.735,-0.609 -7.529,4.732 -7.529,4.732 l -7.04,3.647 7.159,0.24 c 0,0 5.106,1.704 5.106,5.71 0,4.006 -4.493,20.035 2.91,29.022 5.153,6.245 24.166,9.833 24.166,9.833"
       id="path68" />
    <path
       d="m 840.47,378.65 c 0,0 1.457,-7.165 6.192,-6.922 4.735,0.243 6.071,-5.34 8.863,-6.192 2.792,-0.852 17.242,-4.732 18.821,-11.656 0,0 -1.336,11.416 -14.568,17.122 0,0 10.681,-3.523 11.898,-5.831 0,0 -4.739,10.2 -16.272,11.778 0,0 10.806,-0.848 12.385,-3.761 0,0 -4.858,6.433 -12.869,7.285 0,0 7.405,3.035 9.349,0.484 0,0 -4.008,4.735 -8.988,5.096 l 1.339,0.366 c 0,0 -4.735,5.587 -9.958,1.822 -5.223,-3.765 -5.344,0.974 -5.344,0.974"
       id="path69" />
    <path
       d="m 851.25,389.45 c 0,0 6.098,10.202 6.707,15.665 0,0 11.658,12.872 16.028,13.595 0,0 -2.065,0.848 -5.831,-2.305 0,0 3.157,3.278 3.766,3.401 0.609,0.123 -2.551,-0.244 -3.038,-1.096 0,0 1.338,1.948 2.186,2.19 l -0.848,-0.242 c 0,0 -1.582,-0.244 -2.309,-0.852 -0.727,-0.608 -0.244,1.576 -0.244,1.576 0,0 -1.822,-0.486 -2.426,-1.092 -0.604,-0.606 0.244,1.339 0.244,1.339 l -1.578,-0.366 -1.092,0.726 c 0,0 -0.122,0.73 -0.856,0.122 -0.724,-0.601 -2.062,0 -2.062,0 0,0 -0.974,0.852 -1.457,0.244 -0.483,-0.608 -2.323,2.335 -2.323,2.335 l -7.645,-18.455"
       id="path70" />
  </g>
  <path
     d="m 724.505,422.928 -9.663,-18.392 1.015,-0.533 9.663,18.392 z m 8.442,-1.24 -16.531,-18.509 0.858,-0.767 16.531,18.509 z m 3.771,-1.632 -18.864,-17.58 0.783,-0.84 18.864,17.58 z M 689.44,360.84 c 0,0 -1.231,-2.204 -2.303,-1.376 -1.072,0.828 -1.685,0.977 -1.87,0.919 0,0 1.075,0.059 1.686,-0.522 0.611,-0.581 1.656,-0.216 2.486,0.979 z m -6.66,-1.01 0.685,1.422 c -0.068,0.004 -0.763,2.257 -0.763,2.257 l 0.553,0.17 0.75,-2.454 c -0.013,-0.212 -0.703,-1.642 -0.703,-1.642 l -0.522,0.246 z"
     id="path71" />
  <path
     d="m 689.16,360.5 c 0,0 -0.918,1.075 -2.176,0.766 l -1.253,-0.306 1.776,0.094 c 0.701,0.029 1.619,-0.337 1.652,-0.553 z"
     id="path72" />
  <path
     d="m 688.86,360.72 c 0,0 -1.132,-1.195 -1.9,-0.858 0,0 1.35,-0.431 2.116,0.73 z"
     id="path73" />
  <path
     d="m 688.67,360.5 c 0,0 -1.286,0.887 -2.699,-0.09 l -0.086,-0.066 0.184,-0.059 c 0.001,10e-4 1.777,0.734 2.602,0.215 z"
     id="path74" />
  <circle
     cx="687.573"
     cy="360.284"
     r="0.38299999"
     id="circle74" />
  <path
     d="m 688.61,394.2 c 0,0 -0.996,1.834 -0.475,2.939 0.528,1.103 2.891,1.675 3.205,3.146 0.314,1.471 1.105,1.471 2.208,1.266 l 1.314,-0.264 c 0,0 -4.625,-2.473 -5.834,-6.461 z"
     id="path75" />
  <g
     class="C B"
     id="g80"
     transform="translate(-134)">
    <g
       class="D"
       id="g79">
      <path
         d="m 972.09,356.85 c 0,0 8.418,-11.099 15.882,-8.184 7.464,2.915 12.316,4.321 12.316,4.321 0,0 0.142,7.475 -3.828,7.475 -3.96,0 -7.757,-7.465 -11.366,-5.246 -3.616,2.215 -6.584,5.25 -6.818,6.296 -0.234,1.046 -9.562,1.283 -6.185,-4.662 z"
         class="G"
         id="path76" />
      <g
         class="E"
         id="g78">
        <path
           d="m 940.14,410.37 c 0,0 -2.328,2.444 -1.278,3.031 1.054,0.581 3.146,-0.122 3.146,-0.935 -0.001,-0.821 -1.396,-2.329 -1.868,-2.096 z"
           id="path77" />
        <path
           d="m 938.28,412.7 c 0,0 -4.312,-2.455 -7.694,3.376 -3.382,5.831 -6.181,15.277 -8.164,16.561 -1.983,1.284 19.241,-9.329 19.475,-13.759 0,0 1.397,-5.716 -0.817,-5.602 -2.215,0.122 -2.333,0.356 -2.8,-0.576 z"
           id="path78" />
      </g>
      <path
         d="m 938.86,413.4 c 0,0 -4.429,1.043 -5.362,7.337 -0.932,6.304 -7.115,9.565 -7.463,9.797 M 1000.3,352.99 c 0,0 -6.738,2.344 -5.574,7.01"
         class="G"
         id="path79" />
    </g>
    <path
       fill="#fedd00"
       d="m 948.54,366.64 c 0,0 0.232,-15.976 13.284,-15.277 2.473,0.229 1.294,3.146 1.294,3.146 0,0 2.824,-1.978 4.114,1.165 0,0 4.117,-1.864 4.585,2.219 0,0 4.469,-0.581 3.88,3.031 0,0 3.056,-0.698 2.942,1.867 0,0 3.526,-1.4 3.17,2.215 0,0 3.881,-2.566 3.296,2.096 0,0 3.998,-2.795 5.404,1.868 1.411,4.662 -3.995,14.574 -9.287,17.138"
       class="G"
       id="path80" />
  </g>
  <path
     d="m 850.81,367.61 c 0.018,0.125 1.759,12.498 -5.257,17.026 l 0.247,0.39 c 7.27,-4.691 5.482,-17.356 5.466,-17.484 z m -8.45,13.55 0.324,0.33 c 4.444,-4.325 5.4,-15.976 5.434,-16.469 l -0.455,-0.038 c -0.011,0.122 -0.977,11.974 -5.303,16.177 z m -4.15,-2.77 0.458,0.037 c 0.571,-7.195 6.196,-15.425 6.256,-15.509 l -0.379,-0.258 c -0.059,0.082 -5.752,8.413 -6.335,15.73 z m -3.26,-2.1 0.458,0.046 c 0.8,-8.68 6.533,-15.196 6.589,-15.258 l -0.341,-0.307 c -0.06,0.064 -5.891,6.688 -6.707,15.52 z m -4.55,-2.9 0.458,0.017 c 0.456,-10.249 7.18,-15.28 7.247,-15.329 l -0.272,-0.372 c -0.065,0.052 -6.967,5.201 -7.433,15.684 z m -4.2,-2.55 0.462,-0.014 c -0.336,-9.328 6.835,-14.912 6.91,-14.969 l -0.278,-0.365 c -0.073,0.06 -7.434,5.78 -7.093,15.348 z m -7.57,-3.41 0.455,0.056 c 1.249,-10.097 10.236,-12.725 10.326,-12.75 l -0.125,-0.442 c -0.09,0.024 -9.373,2.729 -10.656,13.135 z"
     id="path81" />
  <path
     d="m 806.84,386 c 0,0 -2.212,-14.813 6.648,-19.472 0,0 1.637,-0.352 2.566,1.748 0,0 4.667,-1.981 4.784,1.978 0,0 2.329,-1.864 2.914,0.7 0,0 5.014,-1.046 4.081,2.683 0,0 4.196,-1.165 3.846,2.446 0,0 4.2,-1.514 3.497,1.634 0,0 4.429,-1.046 3.383,2.567 0,0 5.483,-0.581 3.85,3.265 0,0 4.081,-1.048 3.146,2.1 0,0 5.365,0.935 2.914,4.315 -2.451,3.38 -8.629,8.509 -14.686,10.724 m -31.723,0.232 c 0,0 -3.616,-12.355 3.269,-15.509 0,0 1.276,-0.352 1.51,0.935 0,0 1.519,-1.985 2.687,-0.233 0,0 3.494,-1.633 4.315,0.931 0,0 2.329,-1.985 3.498,0.928 0,0 2.215,-0.928 2.215,1.402 0,0 3.031,-1.283 3.031,1.517 0,0 2.91,-1.165 2.329,1.981 0,0 4.433,0.698 3.15,2.797 0,0 3.971,1.046 2.448,2.683 0,0 4.312,-0.466 1.981,2.448 0,0 3.265,-1.046 1.402,2.57 -1.863,3.616 -7.694,7.576 -11.776,8.041 M 806.37,410.71 c 0,0 -7.694,-7.462 -4.075,-9.676 0,0 1.626,0.462 2.212,2.096 0,0 1.864,-2.681 2.917,0.115 0,0 2.8,-0.931 2.8,0.938 l 2.212,1.633 c 0,0 2.569,-0.235 2.104,1.398 0,0 2.798,-0.352 2.68,1.165 0,0 2.452,0.115 2.219,1.745 0,0 4.193,0.7 2.329,2.803 0,0 -7.346,1.512 -12.475,-0.584 0,-0.001 -2.688,-0.936 -2.921,-1.634 z"
     class="B C F G"
     id="path82" />
  <path
     d="m 832.76,398.38 0.164,0.427 c 4.559,-1.756 12.478,-12.564 12.816,-13.024 l -0.372,-0.275 c -0.084,0.116 -8.174,11.164 -12.608,12.871 z m -2.59,-1.97 0.223,0.4 c 3.967,-2.213 11.867,-12.676 12.2,-13.121 l -0.366,-0.277 c -0.079,0.112 -8.174,10.834 -12.058,12.998 z m -2.25,-0.92 0.296,0.352 c 4.189,-3.478 10.291,-14.966 10.552,-15.452 l -0.407,-0.216 c -0.061,0.118 -6.32,11.896 -10.441,15.317 z m -2.06,-2.65 0.456,0.064 c 0.796,-5.807 8.953,-14.947 9.032,-15.037 l -0.341,-0.307 c -0.337,0.379 -8.334,9.336 -9.148,15.281 z m -16.33,-7.06 0.46,-0.041 c -0.685,-8.202 6.181,-17.237 6.251,-17.327 l -0.365,-0.277 c -0.073,0.089 -7.044,9.262 -6.346,17.645 z m 4.32,0.72 0.456,-0.079 c -1.136,-6.577 6.63,-15.929 6.71,-16.02 l -0.352,-0.299 c -0.326,0.389 -7.984,9.605 -6.815,16.398 z m 6.64,2.42 0.46,-0.013 c -0.226,-7.507 6.977,-15.032 7.051,-15.109 l -0.33,-0.32 c -0.073,0.077 -7.415,7.742 -7.181,15.443 z m -15.84,13.6 0.431,-0.161 c -2.616,-6.936 1.925,-15.818 1.972,-15.905 l -0.414,-0.212 c -0.046,0.091 -4.678,9.149 -1.988,16.278 z m 3.02,0.45 0.438,-0.142 c -2.281,-7.066 1.585,-16.535 1.626,-16.628 l -0.427,-0.176 c -0.037,0.092 -3.966,9.721 -1.637,16.946 z m 12.5,7.06 0.157,0.434 c 7.44,-2.676 12.305,-9.461 12.353,-9.526 l -0.376,-0.269 c -0.046,0.067 -4.825,6.738 -12.134,9.36 z m -1.53,-1.62 0.187,0.421 c 5.934,-2.677 11.467,-10.146 11.519,-10.223 l -0.368,-0.269 c -0.056,0.074 -5.515,7.442 -11.338,10.07 z m -1.44,-0.56 0.269,0.373 c 4.642,-3.362 10.604,-11.982 10.667,-12.07 l -0.378,-0.257 c -0.061,0.088 -5.977,8.638 -10.558,11.953 z m -7.44,-4.33 0.456,-0.066 c -1.026,-7.414 3.773,-16.208 3.824,-16.295 l -0.403,-0.223 c -0.052,0.091 -4.924,9.018 -3.877,16.584 z m 3.23,2.01 0.31,0.341 c 4.788,-4.322 6.419,-15.972 6.485,-16.465 l -0.456,-0.064 c -0.014,0.119 -1.673,11.981 -6.338,16.188 z m 3.28,1.38 0.269,0.372 c 6.758,-4.888 8.591,-14.274 8.605,-14.365 l -0.449,-0.086 c -0.018,0.09 -1.816,9.295 -8.425,14.08 z m 0.78,-20.23 0.062,1.318 c -0.007,-0.037 -5.125,16.583 -5.125,16.583 l 0.438,0.136 5.138,-16.674 c -0.793,-8.06 6.296,-16.859 6.366,-16.945 l -0.354,-0.288 c -0.071,0.079 -6.526,8.093 -6.526,15.871 z m 5.36,4.06 c -0.067,0.233 -1.627,11.618 -7.768,15.818 l 0.26,0.379 c 6.314,-4.319 7.848,-15.544 7.91,-16.018 2.725,-3.244 9.005,-14.614 9.068,-14.728 l -0.403,-0.222 c -0.064,0.114 -6.318,11.45 -9.068,14.77 z m -18.13,12.44 c 0.046,0.239 1.072,5.896 2.246,7.891 l 0.396,-0.232 c -1.136,-1.926 -2.176,-7.68 -2.186,-7.74 l -0.456,0.08 z m 2.91,0.07 -0.094,7.847 0.427,0.168 c 0.236,-0.592 0.146,-6.784 0.128,-8.018 l -0.462,0.004 z"
     id="path83" />
  <path
     d="m 807.45,411.32 0.418,0.187 c 1.972,-4.29 2.579,-7.249 2.586,-7.277 l -0.451,-0.09 c -0.007,0.024 -0.602,2.941 -2.552,7.18 z"
     id="path84" />
  <path
     d="m 807.89,411.45 0.233,0.396 c 3.658,-2.125 4.506,-5.821 4.536,-5.976 l -0.448,-0.101 c -0.011,0.037 -0.841,3.661 -4.321,5.681 z"
     id="path85" />
  <path
     d="m 808.57,411.77 0.046,0.455 c 3.584,-0.358 6.025,-4.711 6.13,-4.895 l -0.404,-0.223 c -0.023,0.046 -2.429,4.328 -5.771,4.663 z"
     id="path86" />
  <path
     d="m 808.93,412 0.028,0.458 c 5.754,-0.354 8.344,-3.793 8.448,-3.938 l -0.372,-0.272 c -0.024,0.032 -2.576,3.415 -8.104,3.752 z"
     id="path87" />
  <path
     d="m 809.34,412.12 -0.094,0.449 c 0.31,0.071 7.642,1.625 10.152,-2.197 l -0.385,-0.251 c -2.334,3.558 -9.601,2.014 -9.673,1.999 z"
     id="path88" />
  <path
     fill="none"
     stroke-width="4.2"
     d="m 644.8,143.94 v 205.09 c 0,67.08 121.2,106.91 121.2,106.91 0,0 121.2,-39.833 121.2,-106.91 V 143.94 Z"
     class="B C"
     id="path89" />
  <g
     clip-path="url(#a)"
     id="g7"
     transform="scale(8.7023258,9.6958861)">
    <path
       d="M 0,0 V 30 H 60 V 0 Z"
       fill="#012169"
       id="path3-4" />
    <path
       d="M 0,0 60,30 M 60,0 0,30"
       stroke="#ffffff"
       stroke-width="6"
       id="path4-5" />
    <path
       d="M 0,0 60,30 M 60,0 0,30"
       clip-path="url(#b)"
       stroke="#c8102e"
       stroke-width="4"
       id="path5-8" />
    <path
       d="M 30,0 V 30 M 0,15 h 60"
       stroke="#ffffff"
       stroke-width="10"
       id="path6-0" />
    <path
       d="M 30,0 V 30 M 0,15 h 60"
       stroke="#c8102e"
       stroke-width="6"
       id="path7" />
  </g>
</svg>
