<?xml version="1.0" encoding="UTF-8" standalone="no"?>
<svg
   width="835"
   height="501"
   viewBox="0 0 427.52 256.512"
   version="1.1"
   id="svg22"
   xmlns:xlink="http://www.w3.org/1999/xlink"
   xmlns="http://www.w3.org/2000/svg"
   xmlns:svg="http://www.w3.org/2000/svg">
  <defs
     id="defs22" />
  <path
     fill="#da000c"
     d="M 0,0 H 427.52 V 256.512 H 0 Z"
     id="path1"
     style="stroke-width:0.914697" />
  <path
     fill="#ffffff"
     d="M 0,0 H 427.52 V 171.5 H 0 Z"
     id="path2"
     style="stroke-width:0.913783" />
  <g
     stroke="#000000"
     id="g22"
     transform="translate(-42.24)">
    <g
       id="a"
       fill="#da000c"
       stroke-linecap="square">
      <path
         fill="#000000"
         stroke="none"
         d="m 196.571,116.303 h 64 v 43.993 h -64 z"
         id="path3" />
      <path
         d="M 229.819,153.865 H 190.75 l -8.66,5.7 v 6.04 h 47.729 m -16.35,-37.011 c 5.625,0 10.219,4.689 10.219,10.469 v 14.78 h 7.343 v -56 H 190.75 v 56 h 12.5 v -14.78 c 0,-5.554 4.515,-10.47 10.219,-10.47 z"
         id="path4" />
      <path
         fill="#000000"
         stroke="none"
         d="m 204.528,59.962 h 18.523 v 33.959 h -18.523 z"
         id="path5" />
      <path
         d="m 223,88.656 h -16.209 v -5.75 h -11.885 v 5.75 h -8.062 v -5.75 h -4.813 V 93.344 H 223 m -36.156,-0.038 h 34.97 v 4.538 h -34.97 z"
         id="path6" />
      <path
         d="m 200.719,47.625 v 35.281 h 6.072 V 73.22 c 0,-3.63 2.562,-6.6 6.147,-6.781 0.115,-0.006 0.226,0 0.343,0 a 6.78,6.78 0 0 1 6.781,6.78 v 9.688 h 5.782 V 47.625 Z m -2.188,-4.781 v 4.781 h 29.25 v -4.781 z m -3.75,-9.156 v 9.156 h 35.094 v -9.157 h -5.406 v 4.657 h -6.531 v -4.657 h -9.97 v 4.657 h -6.53 V 33.687 Z M 182.09,159.564 H 230 m 31,-2.751 h -32.438 l -9.78,4.718 v 7.031 H 261"
         id="path7" />
      <path
         stroke-linecap="butt"
         d="M 218.771,161.52 H 262"
         id="path8" />
    </g>
    <use
       xlink:href="#a"
       transform="matrix(-1,0,0,1,512,0)"
       id="use8" />
    <g
       fill="#f8d80e"
       id="g17">
      <g
         stroke-linecap="round"
         id="g12">
        <path
           stroke-width="0.768"
           d="m 273.297,150.031 c -2.654,0.883 -5.053,2.369 -7.469,3.753 -3.1,1.831 -6.107,3.827 -8.904,6.099 -0.985,0.649 -1.93,1.36 -2.69,2.273 -1.025,0.878 -2.064,2.055 -1.868,3.513 0.051,0.643 0.873,-0.755 1.414,-0.823 a 4.39,4.39 0 0 1 3.142,-0.471 c 1.271,-1.339 2.91,-2.236 4.325,-3.406 3.004,-2.243 6.236,-4.168 9.525,-5.961 1.148,-0.589 2.3,-1.186 3.525,-1.602 z"
           id="path9" />
        <path
           d="m 260.4,157.391 v 3.912 m 2.417,-5.618 v 3.883 m 2.416,-5.388 v 3.858 m 2.417,-5.344 v 3.981"
           id="path10" />
        <path
           stroke-width="0.768"
           d="m 238.891,150.156 -1.188,3.313 c 5.537,2.1 10.81,4.878 15.798,8.06 1.691,1.15 3.467,2.266 4.796,3.846 0.293,0.81 -0.514,1.489 -1.314,1.244 -0.732,-0.249 -1.453,-0.532 -2.226,-0.004 -1.107,0.503 -2.106,2.141 -0.426,2.69 2.315,1.556 6.082,0.88 7.195,-1.844 0.581,-1.402 0.618,-3.196 -0.508,-4.345 -2.063,-2.364 -4.797,-4.008 -7.421,-5.672 -4.69,-2.82 -9.573,-5.374 -14.706,-7.288 z"
           id="path11" />
        <path
           d="m 254.05,158.035 -0.313,3.34 m 3.095,-1.635 -0.862,3.269 m 3.834,-0.997 -1.808,2.537 m 2.719,3.631 -2.61,-1.4 m 3.423,-1.351 -2.995,0.28 m -0.868,4.056 -0.205,-2.633 m -0.892,-0.376 -2.473,1.822 m -9.418,-15.641 v 3.115 m 6.286,0.192 v 3.534 m -3.143,-5.185 v 3.32"
           id="path12" />
      </g>
      <path
         d="m 235.781,227.563 v 8.03 h 5.031 v -4.03 h 6.844 v 4.03 h 5.406 v -8.03 z m 0,11.062 v 8.063 h 17.281 v -8.063 h -5.406 v 4.031 h -6.844 v -4.031 z"
         id="path13" />
      <path
         d="m 253.052,193.651 h 4.99 v 58.115 h -4.99 z"
         id="path14" />
      <path
         d="m 253.052,198.679 h 4.99 v 50.06 h -4.99 z"
         id="path15" />
      <path
         stroke-width="1.024"
         d="m 255.547,179.406 10.625,6.188 -10.625,6.156 -10.625,-6.156 z m -14.219,3.969 h -2.781 v 4.438 h 2.781 l 14.219,8.25 14.219,-8.25 h 2.78 v -4.438 h -2.78 l -14.22,-8.25 z"
         id="path16" />
      <path
         stroke-width="1.024"
         d="m 255.344,164.281 c -2.419,0.34 -4.226,2.73 -4.094,5.134 0.01,3.738 -0.018,7.476 0.014,11.214 0.129,2.408 2.233,4.566 4.675,4.588 1.985,0.188 3.979,-0.972 4.811,-2.78 l -1.718,-1.031 c -0.444,1.184 -1.724,1.918 -2.97,1.781 -1.634,0.046 -2.958,-1.544 -2.812,-3.134 0.01,-3.713 -0.019,-7.428 0.015,-11.14 0.09,-1.516 1.535,-2.755 3.048,-2.6 0.626,-0.18 1.487,0.676 1.875,-0.063 0.583,-0.83 -0.415,-1.477 -0.97,-1.937 -0.613,-0.085 -1.253,-0.008 -1.874,-0.032 z m 5.781,3.906 c -0.396,0.746 -1.216,1.19 -1.875,1.58 v 7.514 l 2,1.156 c -0.008,-3.204 0.016,-6.408 -0.011,-9.611 -0.032,-0.197 -0.008,-0.499 -0.114,-0.639 z"
         id="path17" />
    </g>
    <g
       fill="#da000c"
       id="g21">
      <path
         fill="#000000"
         stroke="none"
         d="m 240.803,38.351 h 29.329 v 53.255 h -29.329 z"
         id="path18" />
      <path
         d="m 238.75,38.375 v 44.563 h 9.313 v -13.22 c 0,-3.048 1.952,-7.28 7.937,-7.28 5.985,0 7.938,4.232 7.938,7.28 v 13.22 h 9.312 V 38.374 Z m 15.813,5 h 2.875 v 15.25 h -2.875 z m -8.25,3 h 2.906 v 11.156 h -2.906 z m 16.468,0 h 2.906 v 11.156 h -2.906 z M 235.594,31.969 v 6.343 h 40.812 V 31.97 Z m -3.844,-7.375 v 7.375 h 48.5 v -7.375 h -6.094 v 4.062 h -6.875 v -4.062 h -7.844 v 4.062 h -6.875 v -4.062 h -7.843 v 4.062 h -6.875 v -4.062 z m -9,73.25 v 4.594 h 66.5 v -4.594 z"
         id="path19" />
      <path
         d="m 220.031,82.906 v 14.938 h 71.938 V 82.906 h -6.813 v 5.75 h -9.062 v -5.75 h -12.156 v 5.75 h -15.875 v -5.75 h -12.157 v 5.75 h -9.062 v -5.75 z"
         id="path20" />
      <path
         stroke-linejoin="round"
         d="m 228.688,102.438 v 54.343 h 12.843 v -20.344 c 0,-9.582 6.397,-14.093 14.469,-14.093 7.759,0 14.469,4.51 14.469,14.094 v 20.343 h 12.844 v -54.344 z"
         id="path21" />
    </g>
  </g>
</svg>
