<?xml version="1.0" encoding="UTF-8" standalone="no"?>
<svg
   width="625"
   height="375"
   version="1.1"
   id="svg119"
   xmlns:xlink="http://www.w3.org/1999/xlink"
   xmlns="http://www.w3.org/2000/svg"
   xmlns:svg="http://www.w3.org/2000/svg">
  <defs
     id="defs6">
    <linearGradient
       id="b">
      <stop
         stop-color="#d5dfff"
         offset="0"
         id="stop1" />
      <stop
         stop-color="#FFF"
         offset="1"
         id="stop2" />
    </linearGradient>
    <linearGradient
       id="a">
      <stop
         stop-color="#474747"
         offset="0"
         id="stop3" />
      <stop
         stop-color="#f50"
         offset="1"
         id="stop4" />
    </linearGradient>
    <linearGradient
       id="f"
       y2="102.99"
       xlink:href="#a"
       gradientUnits="userSpaceOnUse"
       x2="228.97"
       gradientTransform="matrix(0.46008027,0,0,0.8250606,397.55857,21.485726)"
       y1="102.99"
       x1="215.83" />
    <linearGradient
       id="c"
       y2="173.45"
       xlink:href="#a"
       gradientUnits="userSpaceOnUse"
       y1="218.47"
       gradientTransform="matrix(0.9377721,0,0,0.40479264,397.55857,21.485726)"
       x2="110.94"
       x1="109.34" />
    <linearGradient
       id="d"
       y2="337.23001"
       gradientUnits="userSpaceOnUse"
       y1="316.38"
       gradientTransform="matrix(0.7647615,0,0,0.49635288,397.55857,21.485726)"
       x2="126.02"
       x1="125.91">
      <stop
         stop-color="#b50000"
         offset="0"
         id="stop5" />
      <stop
         stop-color="#ffc500"
         offset="1"
         id="stop6" />
    </linearGradient>
    <linearGradient
       id="g"
       y2="1003.7"
       xlink:href="#b"
       gradientUnits="userSpaceOnUse"
       y1="1040.4"
       gradientTransform="matrix(1.5914367,0,0,0.23851989,397.55857,21.485726)"
       x2="78.221001"
       x1="117.6" />
    <linearGradient
       id="h"
       y2="226.38"
       xlink:href="#b"
       gradientUnits="userSpaceOnUse"
       y1="245.98"
       gradientTransform="matrix(0.55041714,0,0,0.6896205,397.55857,21.485726)"
       x2="255.03"
       x1="264.72" />
    <linearGradient
       id="e"
       y2="147.35001"
       xlink:href="#b"
       gradientUnits="userSpaceOnUse"
       y1="149.38"
       gradientTransform="matrix(0.34716384,0,0,1.0933947,397.55857,21.485726)"
       x2="456.39999"
       x1="407.87" />
  </defs>
  <path
     fill="#012169"
     d="M 0,0 H 625.00001 V 375 H 0 Z"
     id="path6"
     style="stroke-width:0.999999" />
  <path
     d="M 0,0 V 18.67203 L 275.00581,167.00881 H 309.6217 V 148.33678 L 34.615891,8.9071366e-4 H 0 Z M 309.6217,0 V 18.67114 L 34.615891,167.00881 H 0 V 148.33767 L 275.00581,0 Z"
     fill="#ffffff"
     id="path7"
     style="stroke-width:1" />
  <path
     d="m 129.00973,0 v 167.00792 h 51.60306 V 0 H 129.0089 Z M 0,55.669604 V 111.33921 H 309.6217 V 55.669604 Z"
     fill="#ffffff"
     id="path8"
     style="stroke-width:1" />
  <path
     d="M 0,66.803524 V 100.20529 H 309.6217 V 66.803524 Z M 139.33051,0 v 167.00792 h 30.9615 V 0 H 139.32968 Z M 0,167.00792 103.20778,111.33832 h 23.07726 L 23.077261,167.00792 Z M 0,0 103.20778,55.669604 H 80.13052 L 0,12.448614 Z M 183.33748,55.669604 286.54526,0 h 23.07726 L 206.41474,55.669604 Z M 309.62252,167.00792 206.41474,111.33832 H 229.492 l 80.13052,43.22188 v 12.44861 z"
     fill="#c8102e"
     id="path9"
     style="stroke-width:1" />
  <path
     d="m 463.668,265.56 c 0,0 -2.08,5.49 -3.266,5.49 -1.186,0 -5.49,-2.373 -5.49,-2.373 0,0 -3.117,5.049 -4.75,5.34 -1.634,0.299 -5.937,-0.738 -5.937,-0.738 0,0 -4.155,0 -4.304,-0.596 -0.149,-0.59 0.15,-1.776 0.15,-1.776 0,0 -5.936,4.744 -7.272,4.446 -1.336,-0.292 -5.788,-5.93 -5.788,-5.93 l -0.742,2.968 -8.458,-0.298 -7.42,-4.75 c 0,0 -4.156,6.824 -4.304,6.675 -0.148,-0.149 -7.272,1.633 -7.272,1.633 l -0.445,-1.335 -4.749,-2.82 c 0,0 3.71,-5.191 3.71,-5.34 0,-0.149 -1.78,-0.745 -1.78,-0.745 l -2.672,2.23 -5.49,3.558 -5.491,-2.522 2.374,-4.452 0.297,-3.267 4.304,-6.526 52.682,-51.202 25.97,47.935 z"
     stroke="#000000"
     stroke-width="0.828"
     fill="#6a4c2d"
     id="path10" />
  <path
     d="m 501.096,268.665 13.712,-0.497 -5.838,-2.881 52.251,-1.969 -7.383,-2.813 -6.54,-8.862 -27.075,-2.037 c 0,0 -2.037,-1.546 -5.347,-0.776 -0.137,-2.105 -2.67,-4.85 -2.67,-4.85 l -16.668,-1.267 -10.408,7.104 7.03,18.003 z"
     stroke="#000000"
     stroke-width="0.828"
     fill="#ffffff"
     id="path11" />
  <path
     d="m 447.73972,115.10396 1.37862,-4.69476 c 0,0 2.41569,-4.07376 2.41569,-5.87466 0,-1.79469 1.8009,-3.93093 1.8009,-3.93093 0,0 5.52069,-1.58976 6.69438,1.79469 5.94297,-8.97966 12.9168,-0.41607 12.9168,-0.41607 l 1.93131,-2.27907 3.93714,-4.83138 c 0,0 5.59521,5.24745 5.66352,6.14169 0.0683,0.90045 0.96255,0.27945 0.96255,0.27945 l 6.07959,-0.48438 c 0,0 2.88144,2.26044 2.27907,6.55776 2.14245,1.26684 4.07376,8.70021 4.07376,8.70021 z"
     stroke="#000000"
     stroke-width="1pt"
     fill="url(#c)"
     id="path12"
     style="fill:url(#c)" />
  <path
     d="m 501.102,170.97 c 1.05,-0.64 4.353,-1.69 3.95,-6.521 -0.403,-4.831 -4.59,-5.397 -6.924,-5.235 -2.342,0.161 -4.434,2.173 -4.434,2.173 l -7.732,-4.912 c 0,0 3.87,-24.405 7.974,-25.933 3.9,-2.813 4.59,-4.03 4.59,-4.67 0,-0.646 -1.448,-2.26 -1.448,-2.26 l -25.212,-2.981 -23.84,2.82 c 0,0 -1.851,2.819 -1.609,3.949 0.242,1.124 0.323,2.335 4.59,5.638 4.725,3.633 7.973,24.486 7.973,24.486 0,0 -6.682,3.298 -7.086,2.894 -0.403,-0.397 -2.415,-0.8 -3.465,-0.64 -1.043,0.162 -4.508,1.932 -4.508,6.521 0,4.596 3.465,7.253 3.465,7.253 0,0 22.79,-2.657 26.175,3.62 3.304,-7.57 24.964,-4.911 27.541,-6.203 z"
     stroke="#000000"
     stroke-width="0.828"
     fill="#656263"
     id="path13" />
  <path
     stroke-linejoin="round"
     d="m 525.657,145.601 c 0,0 0.254,-2.651 2.142,-3.912 1.894,-1.26 14.507,-1.894 17.537,0 3.024,1.894 4.16,11.228 4.16,11.228 0,0 1.895,3.279 2.019,5.676 0.124,2.397 0.379,4.036 0.379,4.036 0,0 10.091,13.122 10.215,24.977 1.137,8.073 0.882,29.64 -2.266,37.837 -0.13,10.222 -4.416,16.904 -4.416,16.904 0,0 1.006,1.763 0.882,3.658 -0.13,1.894 -1.136,3.657 -1.136,3.657 l 14.755,7.316 -5.422,-2.019 c 0,0 5.552,4.67 5.422,4.546 -0.125,-0.13 -6.18,-2.906 -6.18,-2.906 l 3.658,3.658 c -0.124,-0.125 -8.954,-4.037 -8.954,-4.037 0,0 4.16,3.912 3.912,3.788 -0.255,-0.124 -6.688,-3.155 -6.688,-3.155 0,0 4.036,4.292 3.912,4.037 -0.124,-0.255 -5.8,-2.521 -5.8,-2.521 l 0.248,2.142 c 0,0 -4.54,-0.254 -4.54,-3.658 -2.272,-1.26 -3.781,-3.03 -3.781,-3.03 l -10.47,-1.764 -11.861,-35.446 2.776,-59.914 0.757,-3.025 z"
     stroke-opacity="0.979"
     stroke="#000000"
     stroke-width="0.776"
     id="path14" />
  <path
     stroke-width="0.822"
     d="m 517.733,337.074 c 0,0 -6.074,-12.774 -9.098,-12.954 -2.732,-5.21 9.495,-47.792 33.149,-50.22 13.004,1.068 1.068,14.99 -7.483,10.706 1.068,3.745 5.34,9.104 5.34,9.104 0,0 -16.922,7.315 -21.908,43.364 z"
     stroke="#000000"
     fill="#ffbb00"
     id="path15" />
  <path
     d="m 436.307,338.937 c 0,0 5.03,-14.544 8.08,-14.724 3.055,-0.18 -8.08,-48.469 -32.313,-48.829 -13.105,1.08 -1.077,15.078 7.54,10.768 -1.077,3.776 -5.385,9.16 -5.385,9.16 0,0 17.054,7.359 22.078,43.625 z"
     stroke="#000000"
     stroke-width="0.828"
     fill="#ffbb00"
     id="path16" />
  <path
     d="m 458.539,248.104 c -0.062,-0.118 -6.018,1.869 -2.161,8.352 0.292,-2.509 2.974,-4.03 2.974,-4.03 0,0 -4.086,4.85 0.236,8.936 0.528,-3.857 2.981,-5.08 2.981,-5.08 0,0 -3.036,8.936 0.056,10.743 0.354,-3.564 2.627,-5.135 2.627,-5.135 0,0 -2.745,7.998 -0.292,9.805 0.292,-3.03 2.335,-4.378 2.335,-4.378 0,0 -1.223,8.297 1.987,8.88 0.062,-2.924 2.397,-5.78 2.397,-5.78 0,0 -1.055,6.768 3.968,7.066 0.063,-2.57 0.994,-5.49 0.994,-5.49 0,0 2.28,7.18 5.608,6.012 -0.056,-2.1 0.056,-6.074 0,-6.074 -0.062,0 2.099,6.831 6.073,5.552 -0.584,-1.931 0.23,-4.21 0.23,-4.21 0,0 2.105,4.266 5.9,2.862 0.645,-1.285 -0.175,-3.794 -0.175,-3.794 0,0 5.546,5.726 7.241,2.28 1.695,-3.446 -4.44,-4.615 -4.44,-4.615 h 4.148 c 0,0 -1.34,-3.502 -6.949,-4.266 1.926,-0.876 3.913,-0.23 3.913,-0.23 0,0 -1.168,-4.384 -6.893,-4.85 2.223,-0.757 4.676,-0.23 4.676,-0.23 0,0 -0.764,-4.148 -7.067,-5.315 0.993,-1.112 3.676,-0.758 3.676,-0.758 0,0 -2.509,-3.912 -5.372,-3.683 -2.862,0.236 -28.733,-2.626 -28.671,-2.57 z"
     stroke="#000000"
     stroke-width="0.828"
     fill="#00713d"
     id="path17" />
  <path
     d="m 484.056,269.186 c 0,0 2.279,1.112 2.223,2.106 m -0.876,-3.912 c 0,0 2.92,2.042 2.863,3.558 m -0.298,-4.614 c 0,0 2.341,1.459 2.453,3.738 m 1.459,-2.801 c 0,0 1.174,2.51 0.764,2.975 m 1.578,-1.633 c 0.173,1.987 -0.18,2.16 -0.18,2.16 m -28.616,-14.717 c 0,0 2.745,1.751 2.515,4.204 m -2.689,-2.099 c 0,0 1.285,1.224 0.994,2.043 m 2.397,-4.086 c 0,0 1.807,2.51 1.223,4.26 m 1.869,-2.627 c 0,0 0.82,1.578 0.062,2.453 m 1.398,-1.694 c 0,0 0.993,1.576 0.117,2.104 m -1.222,3.093 c 0,0 2.564,0.584 2.918,2.509 m -1.404,-4.26 c 0,0 2.69,0.173 2.981,3.036 m 0.584,-4.03 c 0.056,0 1.807,3.099 1.515,4.086 m 1.931,-3.794 c 0,0 0.696,2.98 0.174,3.912 m 2.043,-2.745 c 0,0.062 0.056,3.447 0.056,3.447 m -3.44,-8.117 c 0,0 1.69,0.64 1.571,2.28 m 10e-4,-3.801 c 0,0 2.16,1.23 1.93,3.565 m 0.584,-4.552 c 0,0 1.87,2.217 1.168,4.67 m 2.098,-4.149 c 0,0 -0.695,2.745 -0.41,3.857 m 2.398,-1.988 c 0,0 -1.224,0.938 -0.584,2.106 m -10.041,8.581 c 0,0 0.403,2.106 0,2.454 m -2.689,-3.677 c 0,0 1.34,2.335 0.875,3.503 m -3.739,-3.62 c 0,0 1.522,1.75 1.46,3.154 m -3.794,-2.807 c 0,0 1.403,1.348 1.285,2.105 m -2.509,-0.062 c 0,0 1.342,1.404 1.28,1.696"
     stroke-width="0.776"
     stroke-linecap="round"
     stroke="#3ec26d"
     fill="none"
     id="path18" />
  <path
     d="m 440.002,173.49 c 6.44,-0.118 12.88,-0.23 19.32,-0.347 0,0 12.76,0 14.14,4.142 2.415,-5.521 13.45,-5.173 13.45,-5.173 l 20.003,-0.69 c 0.118,16.097 0.23,32.193 0.348,48.29 -3.907,18.735 -17.475,31.962 -32.423,37.595 -17.823,-5.75 -29.087,-20.81 -32.764,-37.943 -0.695,-15.29 -1.385,-30.585 -2.074,-45.874 z"
     stroke="#000000"
     stroke-width="0.828"
     fill="#ffffff"
     id="path19" />
  <path
     d="m 446.883,173.31 28.137,74.98 25.418,-76.613 c -7.887,0.51 -24.803,-1.242 -26.902,5.95 -3.254,-6.434 -21.052,-3.839 -26.653,-4.317 z"
     stroke="#000000"
     stroke-width="0.828"
     fill="#006b00"
     id="path20" />
  <path
     d="m 466.034,213.905 c 1.087,0.565 1.056,-20.35 2.478,-20.996 0.404,-1.733 0.609,-2.49 1.118,-4.328 -1.223,-2.168 -6.7,-2.062 -8.731,-0.218 0.913,2.919 1.316,3.894 1.316,3.894 2.745,4.44 2.199,22.12 3.82,21.648 z"
     stroke="#006b00"
     stroke-linecap="round"
     stroke-width="0.428"
     fill="#ffc900"
     id="path21" />
  <path
     stroke-linejoin="round"
     d="m 458.495,52.251 c 0,0 1.994,-2.259 2.08,-2.8 0.094,-0.543 9.036,-0.904 14.365,-10.842 2.98,-5.24 0,-2.168 0,-2.168 l -0.18,-2.53 c 0,0 3.707,-3.523 2.353,-5.421 -1.36,-1.897 -0.907,2.44 -3.074,2.35 -2.167,-0.09 -0.994,-4.699 -0.994,-4.699 0,0 -0.18,-0.542 -0.813,-0.813 -0.907,0.09 -0.633,1.717 -1.447,1.897 -0.813,0.181 -1.534,-3.794 -1.534,-3.794 0,0 -1.354,-1.807 -2.534,3.885 0.634,6.053 4.521,4.878 4.521,8.854 0,3.975 -3.434,7.047 -4.427,7.137 -0.994,0.09 -0.634,-3.343 -0.634,-3.343 0,0 -0.54,-1.626 -0.9,-1.626 -0.36,0 1.987,-0.361 1.627,-4.879 -0.814,-5.42 -1.447,1.265 -2.894,0.994 -1.447,-0.27 -0.36,-4.969 0.18,-5.51 0.54,-0.541 -0.633,-2.802 -3.794,2.98 -0.274,2.801 -0.634,-0.722 -1.267,-0.542 -1.08,2.26 -0.9,3.885 0.633,5.963 2.26,2.078 3.708,4.156 3.615,5.24 -0.087,1.085 -1.267,3.524 -2.888,3.524 -1.627,0 0.087,-2.982 0,-3.976 -0.093,-0.993 -2.8,-4.607 -2.8,-4.607 0,0 -1.901,-3.072 -1.721,-3.162 0.18,-0.09 -0.18,-0.542 -1.08,2.62 -0.907,3.162 -1.994,-2.078 -1.994,-2.078 0,0 -1.26,3.884 1.447,6.234 -2.074,-0.271 -2.254,0.542 -2.254,0.542 0,1.084 2.8,1.536 3.16,3.433 0.36,1.897 -2.893,2.981 -2.893,2.981 0,0 1.36,1.897 5.148,-1.806 0.093,2.348 -1.44,3.975 -1.44,3.975 1.26,0.572 2.253,0.511 2.433,1.987 z"
     stroke="#000000"
     stroke-width="0.776"
     fill="#cdad56"
     id="path22" />
  <path
     stroke-linejoin="round"
     d="m 446.1,52.251 c 0,0 -1.689,-2.507 -1.763,-3 -0.081,-0.493 -8.31,0.623 -12.202,-9.413 -2.532,-4.769 0,-1.973 0,-1.973 l 0.154,-2.302 c 0,0 -2.695,-3.297 -1.544,-5.023 1.151,-1.726 0.677,2.22 2.157,2.227 1.84,-0.082 0.844,-4.275 0.844,-4.275 0,0 0.153,-0.493 0.69,-0.74 0.766,0.083 1.082,2.556 1.772,2.72 0.69,0.164 2.117,-2.91 2.564,-3.542 0.634,-0.09 0.61,-2.548 1.609,2.631 -0.534,5.508 -5.099,4.44 -5.099,8.057 0,3.617 2.913,6.412 3.758,6.494 0.844,0.082 0.54,-3.041 0.54,-3.041 0,0 0.46,-1.48 0.764,-1.48 0.31,0 -2.683,0.574 -2.373,-3.536 0.69,-3.848 2.217,0.248 3.447,0 1.23,-0.246 -0.143,-4.069 0.211,-4.653 0.08,-0.583 1.888,-3.09 2.59,2.442 0.23,2.549 1.62,-2.193 2.155,-2.029 0.925,2.055 -0.404,4.8 -1.708,6.691 -1.92,1.89 -2.789,3.962 -2.708,4.949 0.075,0.986 0.528,2.212 1.913,2.212 1.379,0 0.466,-1.72 0.54,-2.623 0.074,-0.903 2.379,-3.832 2.379,-3.832 0.453,-0.722 0.074,-2.072 0.552,-2.696 0.752,0.008 1.062,-1.035 1.826,1.842 0.77,2.877 1.69,-1.891 1.69,-1.891 0,0 1.073,3.535 -1.23,5.673 1.763,-0.247 1.918,0.493 1.918,0.493 0,0.986 -0.838,1.397 -1.148,3.123 -0.31,1.726 0.919,2.713 0.919,2.713 0,0 -1.15,1.727 -4.372,-1.644 -0.08,2.137 1.23,3.617 1.23,3.617 -1.081,0.521 -1.92,0.466 -2.075,1.81 z"
     stroke="#000000"
     stroke-width="0.682"
     fill="#cdad56"
     id="path23" />
  <path
     d="m 495.743,184.494 c -1.683,-1.527 -1.882,-0.192 -2.708,-0.534 -0.41,-0.167 -0.726,-0.546 -1.08,-0.894 -0.304,-0.317 -0.67,-0.447 -1.074,-0.615 -0.156,0.454 -0.305,0.9 -0.46,1.354 -0.155,0.454 0.429,1.205 0.416,1.882 -0.118,1.006 -0.528,1.844 -1.795,2.186 0.36,-0.714 0.566,-0.745 0.454,-1.621 -0.05,-0.435 -1.273,-1.211 -1.124,-1.62 0.223,-0.665 0.608,-1.43 0.323,-2.094 -0.516,0.354 -1.199,0.168 -1.714,0.385 -0.441,0.193 -0.466,1.006 -1.075,1.342 -0.62,0.292 -1.993,0.149 -3.142,-0.503 0.702,-0.528 1.28,-0.174 1.981,-0.702 0.348,-0.267 0.335,-1.403 0.683,-1.67 0.354,-0.268 1.193,-0.547 1.54,-0.814 -0.316,-0.36 -0.298,-0.925 -0.614,-1.285 -0.311,-0.36 -1.708,-0.286 -2.025,-0.64 -0.633,-0.72 -0.51,-1.664 -1.143,-2.379 1.634,0.584 1.398,1.38 1.808,1.317 0.77,-0.373 1.54,-0.44 1.943,-0.273 0.41,0.174 1.18,1.18 1.584,1.347 0.155,-0.453 0.379,-1.024 0.528,-1.478 0.155,-0.453 -0.683,-1.235 -0.534,-1.689 0.31,-0.9 1.068,-1.701 1.372,-2.608 0.112,0.876 0.255,1.608 0.366,2.478 0.056,0.434 0.913,0.664 0.97,1.099 0.055,0.44 -0.448,1.447 -0.398,1.888 0.472,-0.093 1.149,-0.031 1.614,-0.124 0.472,-0.094 0.783,-1.18 1.249,-1.273 0.937,-0.187 1.614,-0.13 2.564,0.05 -0.701,0.651 -1.242,0.608 -1.683,1.204 -0.347,0.267 0.137,1.143 -0.875,1.757 -0.38,0.224 -1.379,-0.043 -1.733,0.224 0.317,0.36 0.634,0.714 0.95,1.074 0.31,0.36 1.727,0.528 2.043,0.888 0.628,0.714 0.963,1.571 0.789,2.341 z m -43.265,0.739 c 1.683,-1.527 1.882,-0.192 2.714,-0.534 0.403,-0.173 0.72,-0.552 1.074,-0.894 0.304,-0.317 0.67,-0.447 1.074,-0.62 0.156,0.453 0.31,0.906 0.46,1.36 0.155,0.453 -0.422,1.198 -0.41,1.875 0.112,1.012 0.522,1.844 1.789,2.192 -0.36,-0.714 -0.566,-0.752 -0.454,-1.621 0.056,-0.435 1.273,-1.211 1.124,-1.627 -0.223,-0.658 -0.608,-1.428 -0.323,-2.093 0.522,0.36 1.199,0.174 1.72,0.385 0.435,0.199 0.466,1.012 1.069,1.348 0.627,0.292 2,0.149 3.142,-0.503 -0.702,-0.534 -1.28,-0.174 -1.981,-0.708 -0.348,-0.261 -0.33,-1.404 -0.683,-1.665 -0.348,-0.267 -1.186,-0.552 -1.54,-0.82 0.316,-0.353 0.298,-0.925 0.614,-1.285 0.317,-0.354 1.714,-0.28 2.025,-0.64 0.633,-0.713 0.515,-1.657 1.143,-2.378 -1.634,0.584 -1.391,1.379 -1.801,1.323 -0.777,-0.373 -1.547,-0.447 -1.95,-0.273 -0.404,0.167 -1.18,1.173 -1.584,1.347 -0.155,-0.453 -0.372,-1.024 -0.528,-1.478 -0.156,-0.454 0.69,-1.235 0.534,-1.689 -0.304,-0.906 -1.068,-1.701 -1.372,-2.608 -0.112,0.87 -0.255,1.602 -0.366,2.478 -0.056,0.434 -0.913,0.664 -0.97,1.099 -0.049,0.435 0.454,1.447 0.398,1.882 -0.472,-0.094 -1.149,-0.031 -1.614,-0.118 -0.466,-0.1 -0.777,-1.187 -1.249,-1.28 -0.937,-0.186 -1.608,-0.13 -2.564,0.05 0.701,0.658 1.242,0.609 1.683,1.211 0.347,0.267 -0.137,1.143 0.875,1.757 0.38,0.224 1.385,-0.043 1.733,0.224 a 73.93,73.93 0 0 0 -0.944,1.074 c -0.317,0.36 -1.733,0.528 -2.043,0.882 -0.634,0.72 -0.969,1.577 -0.795,2.347 z"
     fill="#ffc900"
     id="path24" />
  <path
     stroke-linejoin="round"
     d="m 494.234,189.326 c -1.528,1.186 -11.37,3.676 -11.476,12.227 -0.1,8.552 1.726,10.501 -0.1,10.719 -3.552,0 -4.06,-9.526 -3.961,-13.75 0.105,-4.222 0.204,-3.57 0.204,-3.57 0,0 2.435,0.646 2.236,2.708 -0.205,2.055 2.434,-5.093 1.522,-7.036 1.62,1.62 3.757,0.975 3.757,0.863 0,-0.106 -1.218,-1.404 -1.727,-2.378 -0.509,-0.974 1.826,0.54 1.826,0.54 0,0 0.1,-1.627 -1.931,-1.515 -2.64,0 0.41,-0.87 0.41,-0.87 0,0 1.521,1.41 2.54,-0.105 -1.118,-1.193 -2.745,-1.845 -2.745,-1.845 0,0 -1.423,-2.701 -3.348,-3.241 -2.235,-0.547 -1.93,0.968 -4.47,0.757 -0.504,0.969 -0.504,1.08 0.508,1.404 -1.726,1.192 -0.813,3.57 -0.813,3.57 0,0 2.745,-1.186 2.64,0.758 -0.1,1.95 -1.622,1.627 -2.64,0.435 -0.913,-0.54 -1.217,0.54 -1.217,0.54 l 1.422,1.515 c 0,0 -2.739,-0.105 -3.453,1.733 1.522,-0.106 2.335,0.329 2.335,0.329 0,0 -3.148,1.403 -3.453,2.161 -0.305,0.758 -0.403,-0.863 -0.503,-0.863 -0.105,0 -3.049,-1.087 -3.049,-1.087 l -1.018,4.682 c 0,0 2.037,2.031 3.148,1.38 1.118,-0.647 3.149,-2.597 4.366,-2.056 -3.552,2.707 -7.104,6.6 -9.036,7.147 -0.503,-0.434 -2.23,-2.167 -2.943,-1.304 -0.708,0.87 -0.199,1.95 0.714,1.845 0.913,-0.112 -2.944,0.863 -2.136,2.49 0.813,1.62 0.714,1.515 1.422,1.08 0.714,-0.434 -0.609,-0.54 2.03,-1.298 2.639,-0.758 2.54,-1.515 2.54,-1.515 0,0 -0.509,1.186 -1.931,1.515 -1.422,0.323 -2.534,0.323 -2.23,0.758 0.305,0.429 0.913,1.186 0.709,1.62 -0.204,0.434 2.943,-2.272 3.757,-0.105 2.13,-0.112 3.552,-2.707 2.54,-4.223 0.099,1.621 1.117,2.168 0.502,2.925 -0.608,0.758 4.776,-2.49 2.137,-4.44 0.708,1.621 0.813,2.925 0.813,2.925 0,0 1.217,-0.112 1.522,-0.546 0.304,-0.429 -0.609,1.192 -0.205,1.515 0.403,0.329 2.335,2.167 1.521,3.465 -0.503,-0.758 -0.608,-1.95 -1.217,-1.838 -0.609,0.105 -3.148,1.95 -4.67,2.055 -1.522,0.105 1.826,5.633 1.826,5.633 0,0 -2.335,-0.33 -2.64,-0.112 -0.305,0.218 -1.825,-1.95 -2.13,-0.646 -0.509,1.621 0.51,0.969 0.51,0.969 0,0 -1.323,-0.646 -2.03,0.112 -0.715,0.757 -1.423,1.515 -0.914,1.838 0.503,0.323 2.739,0.323 3.043,0.217 0.304,-0.106 -2.54,0.218 -2.738,0.54 -0.205,0.324 -0.609,1.516 0,1.95 0.609,0.434 2.13,-0.217 2.229,-0.54 0.105,-0.329 0.205,1.186 0.205,1.186 0,0 2.64,0.218 2.64,-2.484 0,-2.707 0.204,1.944 0.204,1.944 0,0 2.64,0.435 2.739,-2.273 0.105,-2.701 0.304,1.845 0.304,1.845 0,0 1.726,-0.547 1.726,-0.975 0,-0.435 -0.099,5.409 -1.316,7.036 -1.932,-1.305 -3.149,0.863 -3.149,0.863 0,0 0.1,3.136 -0.105,3.893 -0.199,0.758 1.322,-0.428 1.422,-0.757 0.105,-0.323 1.931,-1.186 2.03,-1.404 0.106,-0.217 0.61,-1.298 0.61,-1.298 0,0 -0.405,1.516 -1.112,1.733 -0.715,0.211 -1.423,0.969 -1.118,1.62 0.305,0.651 1.422,1.081 1.825,1.733 0.404,0.646 1.826,-3.788 1.826,-3.788 l 0.106,0.975 c 0,0 1.825,-0.434 2.03,-1.298 0.2,-0.869 -1.93,-1.627 -0.205,-3.03 1.727,-1.41 0,1.298 0,1.298 0,0 0.61,2.055 1.013,2.055 0.41,0 1.422,-3.9 0.41,-4.868 -1.019,-0.975 1.521,1.186 1.521,1.186 0,0 1.422,-4.006 -0.1,-4.546 -1.527,-0.54 -2.235,-0.758 -2.235,-0.758 0,0 0.814,-1.08 0.404,-1.186 -0.404,-0.111 2.136,2.379 2.54,1.727 0.41,-0.646 1.018,-2.596 -1.925,-3.677 -2.95,-1.08 -0.106,-4.117 -0.106,-4.117 0,0 1.832,2.167 3.148,0.975 1.317,-1.186 -0.099,-1.186 -0.099,-1.186 0,0 3.75,-2.385 3.856,-3.577 -0.714,-0.105 -1.93,0.112 -1.93,0.112 0,0 2.135,-1.41 1.626,-3.683 -0.813,1.193 -1.931,1.193 -1.931,1.193 0,0 1.832,-1.838 1.521,-3.571 -1.111,0.863 -1.012,1.515 -1.726,1.298 -0.708,-0.218 -1.925,-7.036 0.919,-7.47 2.838,-0.43 1.317,3.359 1.416,3.359 0.105,0 4.266,-1.733 0,-4.546 1.018,-0.33 3.148,1.62 3.148,1.62 0,0 -0.913,-4.762 -5.483,-1.837 1.118,-1.193 1.832,-1.95 2.745,-1.733 0.913,0.217 4.16,-0.112 4.16,-1.08 -0.807,-0.652 -2.533,0.323 -3.452,0 -0.913,-0.33 6.502,-0.87 5.893,-4.546 z"
     stroke="#006b00"
     stroke-linecap="round"
     stroke-width="0.428"
     fill="#ffc900"
     id="path25" />
  <path
     d="m 462.04908,192.13426 c 0,0 4.0621,-2.27313 6.09149,0.54442 m 1.62484,4.32709 c -0.10279,0 -1.42256,1.40701 -1.72763,1.40701 m 4.46996,3.13925 c 0,0 3.75372,0.32524 6.19098,-3.68014"
     stroke="#006b00"
     stroke-linecap="round"
     stroke-width="0.427981"
     fill="none"
     id="path26" />
  <path
     d="m 476.56653,200.36067 c 0,0 0.30507,2.16708 0.91521,2.16708 0.60683,0 -1.01469,0.54088 -1.62484,0.10605 0.70963,0.97572 1.1175,2.70797 0,3.35491"
     stroke="#006b00"
     stroke-linecap="round"
     stroke-width="0.427981"
     fill="none"
     id="path27" />
  <path
     d="m 474.63662,227.63827 c 0,0 -1.31977,1.51307 -2.94461,1.62266"
     stroke="#006b00"
     stroke-linecap="round"
     stroke-width="0.427981"
     fill="#e80000"
     id="path28" />
  <path
     d="m 476.16198,220.70928 c 0,0 -0.81242,-4.32708 -0.30508,-5.41239 0.30508,-1.40701 1.62484,-1.94789 2.63954,-3.7862"
     stroke="#006b00"
     stroke-linecap="round"
     stroke-width="0.427981"
     fill="none"
     id="path29" />
  <path
     d="m 475.75411,217.57002 c 0,0 -1.0147,2.59838 -5.48135,1.73225 m 6.70164,-8.22641 c 0,0 0.30175,3.4645 -3.75703,2.16708 m -1.22029,-17.75024 c 0,0 -1.62484,1.51307 -1.0147,3.57055"
     stroke="#006b00"
     stroke-linecap="round"
     stroke-width="0.427981"
     fill="none"
     id="path30" />
  <path
     d="m 478.087,191.703 c 0,0 2.132,-0.866 2.54,-1.3 0.404,-0.432 1.117,-1.298 1.32,-1.949 0.202,-0.647 -1.423,-1.623 -0.61,-3.03 0.507,-0.649 1.216,-0.757 2.437,0 1.216,0.757 -1.118,-2.38 -2.335,-2.488 -1.22,-0.109 -2.033,0.865 -2.334,0.649 -0.305,-0.217 0.1,0.866 -0.408,0.866 -0.508,0 1.014,0.866 0.915,1.408 -0.103,0.541 1.622,2.38 1.522,2.814 -0.103,0.432 -2.54,2.92 -3.047,3.03 z"
     fill="#006b00"
     id="path31" />
  <path
     stroke-linejoin="round"
     d="m 479.61393,184.55903 c 0.92517,-0.22483 1.07439,0.0247 0.9119,0.86577 -0.43439,-0.23332 -0.59356,-0.43023 -0.9119,-0.86577 z"
     stroke="#ffc900"
     stroke-linecap="round"
     stroke-width="0.427981"
     fill="#ffc900"
     id="path32" />
  <path
     stroke-linejoin="round"
     d="m 473.12784,232.78199 c 0,0 -0.34155,2.26606 0.49408,2.45343 -0.0431,-0.87673 0.17906,-1.47418 0.38466,-1.7075 -0.17907,-0.0884 -0.83895,-0.73179 -0.87874,-0.74593 z m -1.88349,-2.78927 c -0.76931,-0.11666 -2.06587,0.56209 -1.69448,1.38226 0.62673,-0.5727 1.20371,0.046 1.64142,-0.53735 0.13264,-0.16262 0.0962,-0.63987 0.0531,-0.84491 z m -0.007,-1.61912 c 0,0 -1.21034,-0.20505 -1.37946,0.68936 0.83563,-0.11313 1.08433,-0.20858 1.36288,-0.0212 0.0796,-0.1909 0.003,-0.6222 0.0166,-0.66815 z"
     stroke="#006b00"
     stroke-width="0.427981"
     fill="#e80000"
     id="path33" />
  <path
     stroke-linejoin="round"
     d="m 466.10786,215.60799 c 0,0 0.72621,0.28989 0.9318,1.08177 0.57698,-0.3818 0.85221,-2.06102 -0.9318,-1.08177 z m -1.79727,1.92668 c 0.0298,-0.0141 1.52205,-0.97925 1.67458,-0.0566 -0.31502,0.33584 -0.45429,0.55503 -0.69967,0.62927 -0.19233,0 -0.57699,-0.62927 -0.97491,-0.57271 z m -0.14922,3.12865 c 0.0265,-0.0141 0.95833,-0.89087 1.31645,-0.30756 0.35482,0.58685 -0.28849,0.55503 -0.28849,0.55503 0,0 -0.32828,-0.15909 -1.02796,-0.24747 z m -1.31645,-17.42146 c -0.0133,0 -1.19376,-0.48432 -1.68784,0.39241 0.78257,0.10252 1.0578,0.39594 1.41261,0.68936 -0.0962,-0.36766 -0.25865,-0.92269 0.27523,-1.08177 z m -2.28804,6.56133 c 0,0 0.0531,-1.47418 0.70962,-2.07516 0.3714,0.21918 0.48082,0.56917 0.72952,1.00753 -0.49408,0.11666 -1.15396,0.14848 -1.43914,1.06763 z m 3.1502,-1.05349 c 0,0 -1.29987,0.64341 -0.87542,1.34691 0.42444,-0.48432 0.892,-0.33584 0.892,-0.34998 0,-0.0141 0,-0.97925 -0.0166,-0.99693 z"
     stroke="#006b00"
     stroke-width="0.342385pt"
     fill="#e80000"
     id="path34" />
  <path
     stroke-linejoin="round"
     d="m 461.83022,194.63011 c -0.46755,0.55856 0.57699,1.77114 1.67127,1.59438 0.27523,-1.3151 -1.39604,-2.00093 -1.67127,-1.59438 z"
     stroke="#006b00"
     stroke-width="0.342385pt"
     fill="#ffc900"
     id="path35" />
  <path
     d="m 461.815,192.088 c -0.229,0.619 0.68,1.489 1.207,1.245 0.213,-0.637 -0.968,-1.736 -1.207,-1.245 z"
     fill="none"
     id="path36" />
  <path
     stroke-linejoin="round"
     d="m 463.03725,193.62258 c 0,0 0.20559,1.03935 1.15065,0.76007 -0.14922,-0.80249 -0.8091,-1.40348 -0.8091,-1.40348 -0.0398,0.23686 0.13595,0.60099 -0.34155,0.64341 z m 0.63004,3.01199 c 0,0 0.52061,0.59745 1.54857,-0.62927 -0.46424,0.14495 -1.28661,-0.29342 -1.28661,-0.29342 0,0 0,0.84845 -0.26196,0.92269 z"
     stroke="#006b00"
     stroke-width="0.342385pt"
     fill="#e80000"
     id="path37" />
  <path
     stroke-linejoin="round"
     d="m 461.77054,192.24739 c -0.46424,0.55502 0.19564,1.32923 1.28992,1.15601 0.27523,-1.3151 -1.0147,-1.56256 -1.28992,-1.15601 z"
     stroke="#006b00"
     stroke-width="0.342385pt"
     fill="#ffc900"
     id="path38" />
  <path
     d="m 462.20902,187.05302 c 0,0 4.37184,-1.24821 6.69438,0.62721 2.31633,1.86921 2.31633,0.17388 2.31633,0.17388 0,0 3.39066,1.24821 4.37184,0.98118 0.98118,-0.26703 -0.71415,0.0932 0.621,-0.71415 1.34136,-0.80109 -2.67651,0.18009 -3.03048,-1.51524 -0.62721,-1.06812 0.0869,-2.40948 -1.33515,-1.96236 -0.98118,-1.24821 0.621,-2.13624 0.26703,-3.4776 -0.98118,0.71415 -1.52145,-0.26703 -2.32254,1.51524 -1.86921,-0.35397 -0.26703,-2.94354 -2.31633,-3.21057 0,1.87542 -1.51524,1.96236 -1.60839,3.03669 -0.88803,0.621 -4.81275,2.94354 -3.65769,4.54572 z"
     fill="url(#d)"
     id="path39"
     style="fill:url(#d);stroke-width:0.621" />
  <path
     d="m 411.91,329.237 c 2.836,-0.683 18.2,3.397 24.124,9.744 -1.26,-11.309 -4.392,-19.972 -4.392,-19.972 0,0 -9.155,-2.614 -10.412,-1.353 -1.843,1.937 -7.38,7.756 -9.32,11.581 z m -4.683,-52.238 c -1.077,0.18 -2.154,0.9 -3.231,2.695 -1.257,3.049 -2.154,10.768 -3.95,12.563 -1.796,1.795 -3.41,1.974 -3.41,3.595 0,1.615 0.18,5.384 5.026,6.819 4.847,0.18 12.567,-7.72 12.567,-7.72 0,0 3.95,-4.309 5.564,-8.973 -9.334,3.23 -15.977,-5.39 -12.566,-8.98 z"
     stroke="#000000"
     stroke-width="0.828"
     fill="#c01500"
     id="path40" />
  <path
     stroke-width="0.822"
     d="m 542.237,327.436 c -2.813,-0.677 -18.35,3.379 -24.231,9.688 1.248,-11.24 4.36,-19.86 4.36,-19.86 1.086,-0.292 8.985,-2.595 10.233,-1.341 1.826,1.925 7.713,7.713 9.638,11.513 z m 4.353,-51.934 c 1.069,0.18 1.447,1.584 2.323,3.372 1.242,3.03 2.528,7.452 4.31,9.234 1.782,1.789 3.384,4.428 3.384,6.036 0,1.608 -0.372,3.776 -5.185,5.204 -4.807,0.18 -11.78,-5.998 -11.78,-5.998 0,0 -3.919,-4.28 -5.521,-8.924 9.265,3.217 15.264,-5.055 12.47,-8.924 z"
     stroke="#000000"
     fill="#c01500"
     id="path41" />
  <path
     d="m 401.842,319.37 c 0,0 9.693,6.638 9.874,9.693 26.032,-38.601 92.454,-50.63 130.329,-2.695 5.03,-6.645 10.234,-8.793 10.234,-8.793 -39.85,-52.065 -119.201,-45.6 -150.437,1.794 z"
     stroke="#000000"
     stroke-width="0.828"
     fill="#ffbb00"
     id="path42" />
  <g
     stroke-width="1pt"
     stroke="#000000"
     fill="#1e5aa6"
     id="g45"
     transform="translate(-89)">
    <path
       d="m 589.6,171.69 3.794,-0.094 -6.776,8.583 8.13,9.488 -15.991,20.146 15.09,18.158 c -1.658,4.067 -3.583,7.768 -6.148,11.116 l -8.67,-9.582 15.718,-19.6 -12.916,-14.636 7.768,-23.58 z m -54.208,1.713 -4.067,0.094 7.588,8.215 -8.036,10.03 16.712,18.164 -13.824,18.518 c 1.658,4.068 4.037,8.582 6.595,11.923 l 8.222,-10.39 -16.891,-18.79 12.377,-15.718 z"
       stroke-width="0.828"
       id="path43" />
    <path
       d="m 554.184,222.19 -5.962,7.948 21.319,24.666 c 3.763,-1.9 6.72,-4.067 9.942,-6.682 l -11.116,-12.83 4.521,-13.283 6.502,7.496 -20.325,25.933 c -3.403,-1.447 -7.167,-3.708 -10.57,-6.509 l 10.75,-13.637 -5.061,-13.103 z m -6.595,-12.377 3.887,4.88 -2.534,-6.594 z"
       stroke-width="0.828"
       id="path44" />
    <path
       stroke-width="0.802"
       d="m 575.416,214.129 c 0.08,-0.094 3.136,-4.161 3.136,-4.161 l -1.186,-1.62 -1.95,5.78 z"
       id="path45" />
  </g>
  <g
     stroke="#fff700"
     stroke-linecap="round"
     stroke-width="0.828"
     fill="none"
     id="g51"
     transform="translate(-89)">
    <path
       d="m 620.339,146.266 c 0,0 3.75,-3.21 6.42,-3.304"
       id="path46" />
    <path
       d="m 620.879,145.819 c 0.087,-0.087 22.387,-3.21 23.095,-3.925 m -23.008,4.105 c 0.087,-0.093 24.97,-2.143 24.97,-2.143 m -25.057,2.23 c 0,0 26.486,-1.249 28.094,0.093"
       id="path47" />
    <path
       d="m 620.786,145.999 c 0,0 25.958,0.18 26.405,0.8 m -26.312,-0.8 24.97,2.049 m -25.237,-1.869 c 0.087,0 25.418,2.23 27.914,5.44"
       id="path48" />
    <path
       d="m 649.861,156.164 c -0.087,-0.086 -8.65,-10.258 -29.342,-10.078"
       id="path49" />
    <path
       d="m 620.612,146.266 c 0,0 14.357,0.98 18.903,5.974"
       id="path50" />
    <path
       d="m 620.879,146.086 c 0,0 9.272,-1.783 18.996,9.905"
       id="path51" />
  </g>
  <path
     d="m 526.0354,156.69854 c 0,0 12.86712,0.50922 12.86712,1.76985 0,1.26063 -9.58824,3.65769 -9.71244,8.95482 -0.1242,5.29713 7.31538,5.67594 7.81839,12.3579 0.50301,6.68817 -5.80014,7.69419 -7.06077,9.46404 -1.26684,0.88182 -4.29111,10.33965 -3.9123,15.89139 0.37881,5.55174 2.01825,24.3432 4.91832,28.1313 2.27286,1.76364 5.67594,7.43958 9.33363,5.67594 3.65769,-1.76985 1.13643,-8.1972 0.75762,-9.96705 -0.37881,-1.76364 1.51524,-4.66371 1.51524,-7.31538 0,-2.65167 -1.39104,-4.79412 -1.26063,-5.42133 0.1242,-0.63342 10.21545,2.39706 9.58203,12.3579 -0.62721,9.96705 -4.66371,6.93657 -4.66371,6.93657 0,0 1.26063,12.23991 -1.89405,13.87935 -5.67594,3.02427 -9.83664,-0.63342 -9.83664,-0.63342 l 0.53406,2.49021 -4.31595,-2.2356 c 0,0 -5.55174,-7.9488 -6.81237,-11.48229 -1.26063,-3.52728 -2.77587,-19.29447 -2.27286,-22.70376 0.50301,-3.40308 0.88182,-23.33718 0.63342,-24.3432 -0.25461,-1.01223 -1.26063,-17.66124 -0.63342,-20.1825 0.63342,-2.52126 4.53951,-13.62474 4.41531,-13.62474 z"
     stroke="#000000"
     stroke-width="1pt"
     fill="url(#e)"
     id="path52"
     style="fill:url(#e)" />
  <path
     d="m 512.162,153.42 c 0,0 8.955,-8.7 14.128,-7.695 2.645,0 0.124,1.895 0.124,1.895 0,0 4.54,0.378 5.173,2.397 0.124,0.881 -2.149,1.136 -2.149,1.136 0,0 1.895,0.379 2.019,2.018 0.13,1.64 -19.17,0.373 -19.295,0.249 z"
     stroke="#000000"
     stroke-width="0.828"
     fill="#ff7000"
     id="path53" />
  <path
     d="m 512.665,153.04 c 0,0 9.589,-1.26 13.625,-5.296"
     stroke="#000000"
     stroke-width="0.828"
     fill="none"
     id="path54" />
  <path
     d="m 522.378,150.395 c 0,0 7.06,-0.254 7.06,0.758"
     stroke="#000000"
     stroke-width="0.828"
     fill="none"
     id="path55" />
  <path
     stroke-linejoin="round"
     d="m 547.479,253.575 c 0,0 6.054,-1.391 7.694,-3.534 1.012,-0.758 6.31,7.949 -7.694,3.534 z"
     stroke="#000000"
     stroke-width="0.776"
     fill="#ffffff"
     id="path56" />
  <path
     d="m 545.84,203.497 c 0,0 0.757,4.67 -1.386,7.818 -1.136,1.261 -4.545,3.41 -4.545,4.925 0,1.51 1.26,3.527 1.012,5.297 -0.255,1.764 -2.143,3.534 -2.018,5.043 0,1.515 2.142,9.588 1.887,9.712 m -6.048,-47.929 c 0,0 -4.794,1.64 -5.807,6.434"
     stroke="#ffffff"
     stroke-linecap="round"
     stroke-width="0.776"
     fill="none"
     id="path57" />
  <path
     d="m 532.717,150.395 c 0,0 1.646,4.54 6.943,0.249 -3.41,-4.664 -6.943,-0.124 -6.943,-0.249 z"
     stroke="#000000"
     stroke-width="0.828"
     fill="#c75b00"
     id="path58" />
  <path
     d="m 536.632,150.204 c 0,0.244 -0.254,0.442 -0.568,0.442 -0.314,0 -0.567,-0.198 -0.567,-0.442 0,-0.243 0.254,-0.441 0.567,-0.441 0.313,0 0.568,0.198 0.568,0.441 z"
     id="path59" />
  <path
     d="m 489.403,139.857 c 0,0 10.047,10.874 16.55,10.756 1.18,3.192 -2.957,6.16 -4.609,7.576 -3.31,-1.062 -6.303,0.192 -13.984,-9.26 0.478,-6.03 2.16,-8.836 2.043,-9.072 z m 13.593,-25.293 c 1.298,-4.018 3.9,-7.21 6.142,-7.564 -0.59,-3.074 4.732,-16.662 20.214,-21.866 0.943,6.974 -6.62,13.83 -6.62,13.83 0,0 22.809,-3.9 27.417,-9.694 -0.472,2.602 -5.08,18.792 -29.43,18.674 9.222,8.75 -2.95,15.724 -8.153,13.594 9.576,-7.328 -2.714,-11.7 -9.57,-6.974 z"
     stroke="#000000"
     stroke-width="0.828"
     fill="#ffffff"
     id="path60" />
  <path
     d="m 510.796,108.894 c 4.608,-2.956 6.26,-2.956 10.048,-2.366 -2.72,0.354 -2.72,0.472 -2.72,0.472 0,0 -0.236,0.354 1.416,1.894 -1.888,-0.478 -3.546,-1.54 -8.744,0 z"
     stroke="#cccccc"
     stroke-width="0.828"
     fill="#cccccd"
     id="path61" />
  <path
     d="m 509.02,107 c 0,0 9.104,-4.844 14.184,-8.154"
     stroke="#000000"
     stroke-width="0.828"
     fill="none"
     id="path62" />
  <path
     d="m 501.22,158.177 c 0,0 12.532,3.427 13.948,-14.538 -2.72,-7.8 -6.502,-24.585 -0.708,-29.43 -5.322,-3.663 -11.11,0.119 -11.11,0.119 -0.354,0.826 -5.086,7.563 1.298,19.381 -15.127,-4.018 -8.98,10.284 -8.98,10.284 0.59,-2.248 8.626,-4.372 10.638,7.092 0.826,2.838 -5.44,7.21 -5.086,7.092 z"
     stroke="#000000"
     stroke-width="0.828"
     fill="#0000ff"
     id="path63" />
  <path
     d="m 515.286,143.757 c 0,0 13.24,-7.092 12.88,-23.753 -11.228,0.236 -15.246,14.767 -15.246,14.767 z"
     stroke="#000000"
     stroke-width="0.828"
     fill="#0000ff"
     id="path64" />
  <path
     d="m 455.956,142.931 c 0,0 -9.806,8.508 -15.364,5.788 -4.136,2.484 -8.98,-1.888 -8.98,-1.888 0,0 5.67,20.915 26.002,5.788 -0.354,-4.608 -1.422,-9.334 -1.658,-9.688 z"
     stroke="#000000"
     stroke-width="0.828"
     fill="#ffffff"
     id="path65" />
  <path
     d="m 440.474,148.365 c 0.826,-4.372 4.254,-6.502 6.974,-2.366 3.664,0.714 7.328,-14.296 -5.676,-11.818 3.664,-19.617 -7.325,-26.945 -7.325,-26.945 0,0 -3.9,21.747 -2.127,25.765 1.773,4.018 -2.6,-7.446 -16.664,-10.638 -0.237,16.432 15.719,24.114 15.719,24.114 0,0 4.491,4.136 9.099,1.888 z"
     stroke="#000000"
     stroke-width="0.828"
     fill="#0000ff"
     id="path66" />
  <path
     d="m 441.772,134.063 c 0,0 -6.142,5.204 -4.726,12.296 m -4.608,-13.004 c 0,0 -1.418,5.08 1.655,12.29"
     stroke="#000000"
     stroke-width="0.828"
     fill="none"
     id="path67" />
  <path
     d="m 431.492,147.303 c 0,0 2.837,-4.608 8.982,1.298"
     stroke="#000000"
     stroke-width="0.828"
     fill="none"
     id="path68" />
  <path
     d="m 432.674,115.39 c 0,-0.118 -9.336,0 -3.782,9.457 -4.136,1.298 -13.354,-4.725 -6.972,-12.767 -20.92,-0.472 -29.429,-10.514 -29.429,-19.736 6.146,6.384 20.801,3.782 26.001,7.682 C 412.11,94.12 413.41,85.96 413.41,85.96 c 0,0 17.847,5.322 21.037,21.158 -1.064,3.074 -1.536,8.508 -1.773,8.272 z"
     stroke="#000000"
     stroke-width="0.828"
     fill="#ffffff"
     id="path69" />
  <path
     d="m 418.318,99.616 c 3.444,3.503 12.293,4.552 16.784,8.452"
     stroke="#000000"
     stroke-width="0.828"
     fill="none"
     id="path70" />
  <path
     stroke-width="0.589"
     d="m 422.392,109.956 c 0,0 7.326,-0.944 9.45,1.652 -2.867,0 -3.823,-0.708 -7.963,0.832 1.168,-0.596 0.849,-1.658 1.486,-1.658 0.637,0 -2.654,-0.826 -2.973,-0.826 z"
     stroke="#cccccc"
     fill="#cccccd"
     id="path71" />
  <path
     d="m 458.912,52.635 c 0,0 4.017,-3.546 8.39,-0.355 -1.976,5.904 -9.098,3.664 -9.098,3.664 0,0 0.236,2.955 -0.472,4.373 1.422,1.072 2.595,4.61 2.595,4.61 0,0 7.328,-1.773 8.868,1.418 2.807,-0.388 4.844,0 4.844,0 0,0 5.676,-1.418 7.682,-1.418 2.012,0 8.39,1.654 8.98,2.836 0.596,1.181 2.72,9.1 4.142,8.982 1.415,-0.118 -3.428,1.89 -4.732,-0.118 -1.298,-2.01 -0.944,2.6 -0.944,2.6 0,0 4.017,4.254 4.49,5.2 0.471,0.943 -2.478,8.625 -0.237,13.947 -1.968,0.18 -2.123,2.242 -2.123,2.242 -0.112,2.341 -3.074,2.956 -3.074,2.956 l -0.708,-3.192 -2.012,1.186 0.826,-2.484 c 0,0 2.72,-6.62 2.956,-8.744 0.236,-2.13 -2.484,-5.911 -4.608,-5.911 -2.13,0 -3.664,6.737 -3.664,6.737 0,0 -1.062,5.08 -0.708,5.552 0.354,0.472 -1.422,-1.652 -1.422,-1.652 0,0 -0.944,3.074 -1.652,4.018 -0.708,0.944 -2.248,1.298 -2.248,1.298 0,0 -1.062,-3.074 -0.708,-4.254 0.354,-1.18 5.794,-5.788 5.322,-9.097 -0.478,-3.31 0,-2.484 -0.124,-2.602 -0.118,-0.118 -2.832,-2.482 -2.95,-3.782 -0.118,-1.3 -3.546,1.655 -8.036,0.709 -1.378,2.402 -1.54,8.388 -1.54,8.388 0,0 -0.472,7.21 0.472,8.042 0.95,0.826 -2.36,2.596 -2.36,2.596 l -2.366,3.192 c 0,0 -0.826,-2.006 -0.826,-1.888 0,0.118 -1.658,1.18 -1.658,1.18 l 0.95,-2.366 c -0.062,-1.788 2.298,-6.676 2.298,-10.812 0,-4.136 0.298,-8.568 0.298,-8.568 0,0 -4.372,-0.237 -4.254,4.252 0.118,4.497 -1.061,4.733 -0.825,6.03 0.236,1.297 1.415,4.962 1.061,6.03 -0.354,1.062 -1.77,1.416 -1.77,1.416 l -0.353,0.59 c 0,0 -4.372,2.012 -4.254,2.838 0.118,0.826 -0.118,-2.366 -0.118,-2.366 L 453,96.48 c 0,0 2.602,-1.652 2.602,-5.788 0,-4.136 -0.597,-4.725 -0.479,-5.67 0.118,-0.95 0.715,-4.377 0.597,-4.731 -0.118,-0.355 -2.478,0.945 -3.192,0.945 -0.708,0 1.304,-2.482 1.54,-4.255 0.236,-1.773 -2.366,1.655 -4.49,-0.354 0.987,-2.182 2.478,-2.837 2.714,-4.491 0.236,-1.654 -1.652,1.418 -3.31,0.236 0.136,-1.586 1.776,-2.954 1.776,-2.954 0,0 -1.348,-0.166 -1.894,0 -1.062,-0.355 1.186,-2.01 1.304,-4.373 0.118,-2.363 -1.304,-3.31 -1.304,-3.428 0,-0.118 -2.36,-2.127 -2.714,-2.954 -0.354,-0.827 -0.354,-1.773 -0.354,-1.773 0,0 -3.906,2.836 -8.514,-3.191 4.223,-3.604 8.75,-0.946 8.75,-0.946 0,0 1.18,-3.31 6.614,-3.073 5.44,0.237 6.501,3.31 6.266,2.955 z"
     stroke="#000000"
     stroke-width="0.828"
     fill="#923f00"
     id="path72" />
  <path
     d="m 488.645,113.769 c 0.093,0 10.035,0.298 10.135,5.614 0.1,5.31 -3.05,3.937 -3.149,3.937 -0.099,0 -7.284,-0.888 -7.284,-0.888 z"
     stroke="#000000"
     stroke-width="0.828"
     fill="#0000ff"
     id="path73" />
  <path
     d="m 478.995,112.29 c 0,0 12.401,-0.092 11.712,5.317 -0.69,5.415 -3.838,4.334 -3.838,4.334 l -6.005,-0.497 -1.87,-9.153 z"
     stroke="#000000"
     stroke-width="0.828"
     fill="#fffeff"
     id="path74" />
  <path
     d="m 472.008,111.7 7.185,0.59 c 0,0 4.329,0.59 4.136,4.727 -0.198,4.135 -4.434,4.235 -4.434,4.235 l -6.986,-0.398 0.1,-9.153 z"
     stroke="#000000"
     stroke-width="0.828"
     fill="#0000ff"
     id="path75" />
  <path
     d="m 455.18,113.769 c -0.1,0 -10.042,0.298 -10.142,5.614 -0.093,5.31 3.056,3.937 3.155,3.937 0.099,0 7.284,-0.888 7.284,-0.888 l -0.298,-8.663 z"
     stroke="#000000"
     stroke-width="0.828"
     fill="#ffffff"
     id="path76" />
  <path
     d="m 464.823,112.29 c 0,0 -12.4,-0.092 -11.712,5.317 0.69,5.415 3.838,4.334 3.838,4.334 l 6.005,-0.497 1.87,-9.153 z"
     stroke="#000000"
     stroke-width="0.828"
     fill="#0000ff"
     id="path77" />
  <path
     d="m 471.816,111.7 -7.185,0.59 c 0,0 -4.335,0.59 -4.136,4.727 0.199,4.137 4.428,4.235 4.428,4.235 l 6.986,-0.398 -0.093,-9.153 z"
     stroke="#000000"
     stroke-width="0.828"
     fill="#ffffff"
     id="path78" />
  <path
     d="m 491.054,171.46 c 0,0 5.167,-7.614 7.347,-6.8 1.9,0.633 0.453,6.526 -0.453,7.073 z m -35.415,1.36 c -1.627,-2.267 -3.987,-8.52 -6.16,-6.8 -1.907,0.633 -0.454,6.526 0.453,7.073 z"
     stroke="#000000"
     stroke-width="0.828"
     fill="#5e0043"
     id="path79" />
  <path
     d="m 459.06,157.76 c 0,0 10.067,6.204 13.37,6.366 3.303,0.162 13.774,-8.055 13.774,-8.055"
     stroke="#000000"
     stroke-width="0.828"
     fill="none"
     id="path80" />
  <path
     d="m 460.03,133.442 1.93,-2.416 9.67,4.913 9.824,-4.354 1.931,2.019 -10.954,7.731 -12.402,-7.893 z"
     stroke="#000000"
     stroke-width="0.828"
     fill="#5e0043"
     id="path81" />
  <path
     stroke-linejoin="round"
     d="m 452.354,133.312 c 0.782,0.987 7.03,8.582 8.16,14.866 1.124,6.285 -0.646,-8.62 -0.646,-8.62 0,0 7.731,3.789 7.973,6.205 0.242,2.416 3.695,-0.162 3.863,-0.578 l -22.387,-14.537 z m 38.197,-0.435 c 0,0 -8.135,10.712 -7.166,22.387 -1.677,-5.589 -0.323,-14.817 -0.323,-14.817 l -1.77,1.13 c 0,0 -1.85,7.893 -4.191,9.098 -0.392,-0.938 -0.317,-1.286 -0.317,-1.286 0,0 -2.497,3.217 -2.98,3.54 -0.483,0.323 0.16,10.874 0.16,10.874 0,0 0.839,7.65 1.801,7.57 -1.099,0.534 -2.446,1.372 -2.446,1.372 l -1,-20.418 2.285,-2.298 c 0,0 3.062,-3.701 3.304,-7.328 -1.329,1.13 -2.82,1.453 -2.82,1.453 0,0 -0.403,5.155 -1.608,5.875 -1.21,0.727 -1.242,2.074 -1.242,2.074 l -0.285,-6.738 z"
     stroke="#474747"
     stroke-width="0.776"
     fill="#474747"
     id="path82" />
  <path
     d="m 471.946,145.278 1.578,32.212"
     stroke="#000000"
     stroke-linecap="round"
     stroke-width="0.776"
     fill="none"
     id="path83" />
  <path
     d="m 452.136,160.66 c 0,0 3.702,2.18 5.074,8.781 12.078,-0.888 15.867,3.385 15.867,3.385 0,0 9.904,-4.75 14.5,-3.869 1.608,-3.378 6.197,-7.731 6.197,-7.731"
     stroke="#000000"
     stroke-width="0.828"
     fill="none"
     id="path84" />
  <path
     d="m 447.081,129.089 24.865,16.27 22.394,-15.06 c 0,0 4.67,-2.576 4.266,-4.427 -0.398,-1.857 -2.012,-1.13 -2.82,-0.807 -0.8,0.323 -23.436,16.35 -23.436,16.35 l -24.082,-15.226 c 0,0 -1.77,-0.56 -2.093,0.565 -0.323,1.13 0.664,1.77 0.906,2.335 z"
     stroke="#000000"
     stroke-width="0.828"
     fill="#b4b6b9"
     id="path85" />
  <path
     stroke-linejoin="round"
     d="m 491.551,124.866 c 0,0 -6.365,-2.701 -6.365,-0.36 0,2.335 0.18,2.577 1.205,4.08 1.018,1.496 -0.783,2.459 -0.783,2.459 0,0 -0.242,-0.658 -0.602,-1.683 -0.36,-1.018 -3.782,-1.739 -4.08,-2.937 -0.298,-1.205 0.72,-3.124 -1.323,-3.36 -2.037,-0.242 -4.018,0.839 -4.44,3.18 -0.422,2.341 -3.061,7.8 -3.061,7.8 l 0.36,-12.42 c 4.483,0.316 12.805,1.297 19.207,2.036 -1.919,-0.298 0.72,0.125 0.665,0.783 -0.18,0.54 -0.845,0.596 -0.783,0.422 z m -22.511,-3.124 c -1.136,0 -6.843,0.659 -8.284,1.503 -1.44,0.839 2.341,2.155 1.863,3.298 -0.478,1.143 -0.54,3.421 -2.341,2.943 -1.801,-0.484 -7.862,-3.483 -8.042,-4.502 -0.18,-1.019 -1.441,-1.08 -1.441,-1.08 0,0 17.407,-2.342 18.245,-2.162 z"
     stroke="#474747"
     stroke-width="0.776"
     fill="#474747"
     id="path86" />
  <path
     d="m 471.785,120.314 -0.044,15.264 M 460.03,102.33 c 0,0 -6.975,11.32 -7.111,11.669"
     stroke="#000000"
     stroke-width="0.828"
     fill="none"
     id="path87" />
  <path
     d="m 472.8778,102.05054 c 0,0 3.03669,4.14207 2.68893,5.31576 1.242,0.96876 2.62683,4.83759 2.62683,4.83759"
     stroke="#000000"
     stroke-width="1pt"
     fill="url(#f)"
     id="path88"
     style="fill:url(#f)" />
  <path
     d="m 484.615,101.361 c 0,0 -6.558,9.253 -6.353,9.942"
     stroke="#000000"
     stroke-width="0.828"
     fill="none"
     id="path89" />
  <path
     d="m 451.013,57.364 c -0.149,0.517 -0.985,0.717 -1.867,0.447 -0.882,-0.27 -1.478,-0.909 -1.33,-1.426 0.15,-0.518 0.985,-0.718 1.868,-0.448 0.883,0.27 1.477,0.91 1.329,1.427 z m 2.651,-0.183 c 0.148,0.517 0.984,0.718 1.867,0.447 0.883,-0.271 1.477,-0.908 1.329,-1.426 -0.149,-0.517 -0.985,-0.718 -1.867,-0.447 -0.882,0.271 -1.478,0.909 -1.33,1.426 z"
     id="path90" />
  <path
     stroke-linejoin="round"
     d="m 530.438,248.849 c 0,0 -2.434,0.46 -2.353,0.683 0.074,0.23 -7.073,0.46 -7.223,0.23 -0.155,-0.23 -1.068,1.217 -1.068,1.217 l 1.143,-0.683 c 0,0 1.745,1.82 2.28,1.67 0.535,-0.15 -0.23,0.683 -0.075,0.838 0.149,0.15 0.683,-0.304 0.683,-0.304 l 11.811,-0.199 z"
     stroke="#000000"
     stroke-width="0.828"
     fill="#ff7000"
     id="path91" />
  <path
     stroke-linejoin="round"
     d="m 534.841,252.525 -9.65,0.28 c 0,0 -2.428,2.204 -2.584,2.732 -0.149,0.534 1.596,0.683 1.596,0.683 l 0.535,1.826 1.217,-0.454 c 0,0 8.203,1.218 15.736,-0.46 3.8,-1.328 4.465,-2.924 1.8,-3.893 -2.657,-0.969 -8.575,-0.677 -8.65,-0.714 z"
     stroke="#000000"
     stroke-width="0.776"
     fill="#ff7000"
     id="path92" />
  <path
     d="m 501.79777,272.32253 17.36937,-0.77625 -3.23541,-2.74482 46.97865,-1.89405 -1.62081,-3.73221 -52.5987,2.1114 6.32799,2.95596 -14.20848,0.42228 0.42228,1.47798 -3.726,-0.14283 c 0,0 4.14828,1.6146 4.29111,2.32254 z"
     stroke="#000000"
     stroke-width="1pt"
     fill="url(#g)"
     id="path93"
     style="fill:url(#g)" />
  <path
     d="m 521.27233,176.37182 c -1.38483,-0.68931 -7.452,-1.51524 -14.21469,2.90007 l 0.27945,15.59331 c 0,0 9.92979,-5.38407 14.76117,-4.14207 -0.27945,-4.83138 -0.27945,-11.03517 -0.82593,-14.35131 z"
     stroke="#000000"
     stroke-width="1pt"
     fill="url(#h)"
     id="path94"
     style="fill:url(#h)" />
  <path
     d="m 425.231,223.71 -40.959,40.664 m 59.214,-40.365 -33.244,43.78 m 31.76,-55.207 -44.374,53.723 m -1.336,-0.745 4.304,-5.043 m 49.864,-20.927 -17.216,23.747 m -0.742,3.117 0.446,9.048 m 25.374,-27.603 -18.252,22.859 m 14.991,-1.783 7.421,-12.171 m -4.602,-2.372 -8.904,10.09 m 6.234,-19.586 -6.085,7.415 M 447.342,234.1 c 0,0 -18.55,27.156 -18.253,29.386 m 16.322,-32.944 c -0.44,0.292 -16.025,20.921 -16.025,20.921 m -0.89,6.527 -2.82,3.415 m -3.562,5.198 -4.303,5.639"
     stroke-width="0.828"
     stroke="#000000"
     fill="none"
     id="path95" />
  <path
     d="m 423.205,161.207 c 0,0 -1.257,3.95 0,5.924 1.256,1.975 9.155,17.953 9.155,17.953 0,0 5.388,-6.644 7.363,-6.824 1.974,-0.174 1.074,17.239 1.074,17.239 0,0 -3.23,3.049 -5.204,2.869 -1.976,-0.18 4.844,6.824 4.664,12.749 -0.18,5.925 -8.974,35.366 -12.205,35.9 -3.232,0.54 1.436,-5.384 1.256,-6.999 -0.18,-1.615 -1.077,-0.54 -1.795,-2.335 -0.718,-1.795 1.078,-4.49 0.718,-6.284 -0.359,-1.795 -1.975,-1.435 -2.154,-2.69 -0.18,-1.26 1.077,-1.614 0.898,-3.055 -0.18,-1.434 -2.155,-1.074 -1.975,-2.335 0.18,-1.254 0.359,-0.714 0.18,-3.049 -0.179,-2.335 -0.539,1.615 -2.514,1.795 -1.975,0.18 -3.59,4.67 -3.59,4.67 0,0 -3.95,5.564 -7.9,3.049 2.334,5.03 0.54,7.185 -0.358,7.359 -0.898,0.18 0.717,3.95 -1.437,4.13 -2.154,0.18 1.616,8.439 -0.897,9.16 2.692,1.254 0.538,2.868 0.538,2.868 0,0 -6.222,0.522 -4.847,8.62 -18.311,-6.465 -27.287,-17.593 -27.108,-28.902 0.18,-11.314 3.77,-21.542 12.567,-25.312 2.513,-9.34 6.822,-19.393 6.822,-19.393 0,0 -0.718,-4.13 -0.18,-6.819 0.54,-2.695 3.052,-5.384 3.052,-5.384 0,0 -0.36,-6.465 -0.179,-9.694 0.18,-3.235 1.436,-4.67 1.615,-6.464 0.179,-1.794 -0.538,-10.955 1.257,-12.57 1.795,-1.615 5.206,-1.434 7.001,-2.508 1.796,-1.08 4.13,-3.056 6.463,-2.876 2.333,0.18 4.308,1.795 4.308,1.795 0,0 8.798,0 9.336,3.41 0.538,3.415 -1.795,4.67 -1.795,4.67 0,0 1.257,4.85 -4.13,9.333 z"
     stroke="#2b2b2b"
     stroke-width="0.828"
     fill="#8a9396"
     id="path96" />
  <path
     d="m 415.394,148.77 c 0.282,0.52 -0.36,1.413 -1.433,1.994 -1.073,0.581 -2.172,0.63 -2.454,0.11 -0.281,-0.521 0.36,-1.414 1.434,-1.995 1.074,-0.581 2.172,-0.63 2.453,-0.11 z"
     stroke="#2b2b2b"
     stroke-width="0.828"
     fill="#cecfcf"
     id="path97" />
  <path
     d="m 413.904,149.676 c 0,0.329 -0.299,0.595 -0.667,0.595 -0.368,0 -0.667,-0.266 -0.667,-0.595 0,-0.328 0.299,-0.594 0.667,-0.594 0.368,0 0.667,0.266 0.667,0.594 z"
     id="path98" />
  <path
     d="m 427.03,155.618 c 0,0 2.18,9.737 -0.427,16.456 m 1.097,-20.716 c 0,0 4.255,5.626 3.706,12.625 m -3.294,-13.861 c 0.138,0 3.568,3.018 3.43,5.074 m -2.606,-6.31 c 0,0 2.333,1.646 2.881,3.292"
     stroke="#2b2b2b"
     stroke-width="0.388"
     fill="none"
     id="path99" />
  <path
     d="m 427.838,147.924 c 0,0 -8.37,13.587 -7.273,22.095"
     stroke="#000000"
     stroke-width="0.828"
     fill="none"
     id="path100" />
  <path
     d="m 428.387,147.514 c 0,0 -11.115,6.589 -13.173,28.131"
     stroke="#2b2b2b"
     stroke-width="0.388"
     fill="none"
     id="path101" />
  <path
     d="m 427.152,151.495 -4.391,3.29"
     stroke="#000000"
     stroke-width="0.828"
     fill="none"
     id="path102" />
  <path
     d="m 411.097,176.881 c 0,0 6.175,-25.66 17.153,-29.367"
     stroke="#2b2b2b"
     stroke-width="0.388"
     fill="none"
     id="path103" />
  <path
     d="m 432.503,185.525 c 0,0 5.903,-7.408 7.275,-7.135 1.372,0.273 0.957,17.152 0.957,17.152 0,0 -4.39,3.291 -5.347,3.155 -0.963,-0.137 4.937,7.961 4.8,10.98 -0.137,3.019 -0.273,3.017 -0.273,3.017 0,0 0,-1.782 -1.372,-4.664 -1.372,-2.882 -0.553,-6.179 -9.47,-13.45 -2.196,-4.528 4.391,2.744 5.762,1.645 1.373,-1.093 -2.469,-10.563 -2.332,-10.7 z"
     stroke="#2b2b2b"
     stroke-width="0.828"
     fill="#2b2b2b"
     id="path104" />
  <path
     d="m 422.014,143.794 c 0,0 -2.48,0.677 -2.82,1.69 -0.338,1.018 -1.803,2.03 -2.592,1.688 -0.79,-0.335 -2.256,-1.577 -2.256,-1.577"
     stroke="#2b2b2b"
     stroke-width="0.828"
     fill="none"
     id="path105" />
  <path
     stroke-linejoin="round"
     d="m 407.919,152.476 c 0,0 -3.721,3.72 -1.917,4.173 1.804,0.447 3.721,-2.931 3.721,-2.931 0,0 0,5.75 1.579,4.844 1.579,-0.9 6.201,-4.167 6.201,-4.167 0,0 1.579,-0.118 1.917,0 0.339,0.111 4.285,3.49 6.878,2.254 -1.465,3.831 -3.157,4.285 -3.157,4.285 0,0 -2.706,3.496 -6.201,2.701 -3.496,-0.789 -4.398,-2.254 -4.398,-2.254 0,0 -2.932,0.23 -3.834,-1.124 -0.902,-1.354 -1.24,-2.143 -1.24,-2.143 0,0 -1.691,1.69 -2.143,0.9 -0.45,-0.788 0,-5.414 2.594,-6.538 z"
     stroke="#2b2b2b"
     stroke-width="0.776"
     fill="#2b2b2b"
     id="path106" />
  <path
     d="m 429.005,147.29 c 0,0 -6.878,-2.03 -9.246,1.354 -2.368,3.378 -1.804,5.297 -0.564,5.633"
     stroke="#2b2b2b"
     stroke-width="0.828"
     fill="none"
     id="path107" />
  <path
     d="m 430.066,147.098 c 0,0.81 -0.58,1.468 -1.297,1.468 -0.717,0 -1.296,-0.657 -1.296,-1.468 0,-0.811 0.58,-1.468 1.296,-1.468 0.716,0 1.297,0.657 1.297,1.468 z"
     id="path108" />
  <path
     d="m 410.048,164.647 c 0,0 2.805,4.316 6.149,5.502 3.344,1.186 -2.32,2.211 -5.664,-0.05 -2.427,-3.29 -1.78,-5.663 -1.78,-5.663 0,0 0.647,-0.652 1.295,0.211 z m 24.002,25.461 c 0,0 -7.875,-10.948 -10.14,-11.544 -2.266,-0.59 1.725,-1.074 4.153,1.242 2.427,2.316 -0.647,-3.776 -0.647,-3.776 z"
     stroke="#2b2b2b"
     stroke-width="0.828"
     fill="#2b2b2b"
     id="path109" />
  <path
     stroke-linejoin="round"
     d="m 409.293,253.376 c 3.02,-0.807 16.18,7.551 19.147,9.656 2.967,2.1 9.171,0.752 9.171,0.752 0,0 -2.863,1.726 -4.64,2.16 -1.78,0.43 5.286,0.43 5.286,0.43 0,0 -16.828,4.638 -33.926,-4.366 -1.565,-7.011 3.667,-8.576 4.962,-8.632 z"
     stroke="#2b2b2b"
     stroke-width="0.776"
     fill="#2b2b2b"
     id="path110" />
  <path
     d="m 428.548,192.803 c 0,0 -2.211,-0.428 -3.344,-1.726 -1.132,-1.292 -2.75,-4.477 -4.423,-5.825 -1.672,-1.347 -10.032,-5.93 -13.052,-5.608 -3.02,0.322 -3.938,-0.322 -4.316,-0.701 -0.378,-0.379 -1.617,0.161 -1.402,1.726 0.216,1.565 -2.32,5.018 -1.402,6.632 0.917,1.621 5.232,8.198 6.095,8.415 0.863,0.217 0.324,3.832 0.324,3.832 0,0 3.829,3.88 4.8,4.098 0.97,0.217 1.941,0.92 1.834,1.832 -0.108,0.92 -4.208,5.937 -4.208,5.937 0,0 -4.422,2.316 -4.476,3.614 -0.054,1.292 1.078,3.987 4.585,4.85 3.505,0.863 12.944,0.162 13.43,-0.646 0.485,-0.807 1.24,-5.663 0.916,-6.148 -0.324,-0.485 -2.643,-1.943 -3.83,-1.726 -1.185,0.217 -2.264,1.186 -2.157,1.403 0.108,0.218 -1.671,1.13 -1.671,0.267 0,-0.863 3.505,-4.744 3.829,-4.421 0.324,0.323 5.286,0.807 6.203,3.291 0.917,2.478 0.917,4.26 3.505,3.993 2.59,-0.273 6.202,-2.645 6.525,-7.607 0.323,-4.962 -2.91,-8.309 -3.72,-8.793 -0.81,-0.484 -3.506,-2.106 -3.721,-2.857 -0.216,-0.758 -0.755,-3.235 -0.324,-3.832 z"
     stroke="#2b2b2b"
     stroke-width="0.828"
     fill="#2b2b2b"
     id="path111" />
  <path
     d="m 381.893,214.706 c 0,0 8.36,-2.16 10.517,-2.105 2.158,0.05 10.302,3.825 12.676,6.148 2.373,2.316 7.227,7.818 10.41,7.334 3.182,-0.485 4.099,-1.13 4.099,-1.13 l -1.241,2.372 c 0,0 -2.589,0.702 -3.883,0.379 -1.295,-0.323 -3.83,-1.137 -6.365,-3.615 -2.535,-2.484 -10.356,-9.172 -16.99,-8.687 -6.634,0.49 -10.464,7.017 -10.464,7.017 0,0 0.054,-3.186 0.324,-3.887 0.27,-0.701 -1.402,1.509 -1.402,1.509 z"
     stroke="#2b2b2b"
     stroke-width="0.828"
     fill="#2b2b2b"
     id="path112" />
  <path
     d="m 412.69,221.177 c 0.055,0.05 2.104,0.59 5.556,0.59 3.452,0 5.286,-1.51 5.286,-1.51 l -0.216,-1.347 0.54,-1.888 c 0,0 2.642,2.696 2.588,3.236 -0.054,0.54 -1.078,0.758 -1.078,0.758 l -0.378,-1.298 -0.916,1.136 c 0,0 -5.017,3.987 -7.767,3.397 -2.751,-0.596 -5.286,-2.372 -4.585,-2.807 0.701,-0.428 1.079,-0.267 0.97,-0.267 z m -12.19,7.067 c 0,0 -3.02,-0.056 -4.368,0.59 -1.348,0.646 -1.834,1.46 -2.75,1.347 -0.917,-0.105 -1.619,-1.291 -1.35,-1.776 0.378,-0.757 2.158,-1.726 5.556,-1.459 3.398,0.273 2.913,1.298 2.913,1.298 z m 10.573,8.197 c 0,-0.161 -0.216,-4.421 -1.888,-6.148 -1.672,-1.726 -3.722,-1.726 -4.639,-1.515 -0.917,0.217 3.398,2.105 3.83,3.347 0.432,1.242 1.834,4.695 1.456,5.558 -0.378,0.857 -1.079,-2.428 -3.722,-3.347 -2.643,-0.919 -6.31,-0.429 -5.555,0.758 0.755,1.187 3.722,0.105 5.232,2.639 1.51,2.534 2.643,5.235 2.643,5.235 l 0.485,-1.838 1.349,-0.373 0.161,-3.509 z"
     stroke="#2b2b2b"
     stroke-width="0.828"
     fill="#2b2b2b"
     id="path113" />
  <path
     stroke-linejoin="round"
     d="m 408.915,250.246 -2.75,-5.502 c 0,0 -0.864,-3.503 -3.183,-4.477 -2.319,-0.97 -5.394,-0.808 -5.448,0.378 -0.054,1.186 4.963,2.695 5.286,3.348 0.324,0.645 0.162,1.726 -0.27,1.776 -0.43,0.055 -2.642,-0.808 -3.775,-0.54 -1.133,0.273 -1.78,1.726 -3.452,1.297 -1.672,-0.435 -3.075,-5.769 -2.427,-6.31 0.647,-0.54 -1.24,0.97 -1.618,-0.434 -0.378,-1.404 0.54,-5.769 -0.108,-6.31 -0.647,-0.54 -3.775,-2.427 -3.83,-2.806 -0.053,-0.373 0.162,-21.462 17.8,-3.987 -7.552,-8.955 -10.518,-7.986 -11.92,-8.036 -1.025,0 -7.875,0.59 -9.601,9.328 -1.726,8.737 -3.776,3.291 -3.776,3.291 0,0 -0.377,3.776 1.457,4.856 1.833,1.075 -0.864,4.204 -0.864,4.204 0,0 -3.29,-8.035 -2.804,-11.544 -0.647,2.807 -0.593,9.762 3.56,17.37 4.854,5.123 9.439,9.873 21.628,15.208 6.419,-9.812 6.095,-10.998 6.095,-11.11 z"
     stroke="#2b2b2b"
     stroke-width="0.776"
     fill="#2b2b2b"
     id="path114" />
  <path
     stroke-linejoin="round"
     d="m 397.373,250.302 c 0,0 3.56,0.428 4.53,2.267 0.971,1.831 1.403,4.638 1.403,4.638 0.593,-1.186 0.862,-2.21 2.05,-3.074 1.188,-0.864 2.05,-0.975 1.995,-1.62 -0.055,-0.645 -3.776,-4.583 -5.663,-4.8 -1.887,-0.217 -5.178,2.049 -5.178,2.049 0,0 -0.593,0.863 0.863,0.54 z"
     stroke="#2b2b2b"
     stroke-width="0.776"
     fill="#8a9396"
     id="path115" />
  <g
     stroke-width="1.25"
     stroke-linecap="round"
     fill="none"
     id="g118"
     transform="translate(-89)">
    <path
       d="m 494.504,259.58 c 0,0 9.225,4.204 24.42,4.477"
       stroke="#8a9396"
       stroke-width="0.776"
       id="path116" />
    <path
       d="m 525.3,216.755 c 0,0 -0.788,7.744 -6.744,23.02"
       stroke="#2b2b2b"
       stroke-width="0.776"
       id="path117" />
    <path
       d="m 524.115,221.519 c 0,0 -1.788,5.557 -6.75,9.724"
       stroke="#2b2b2b"
       stroke-linecap="butt"
       stroke-width="0.828"
       id="path118" />
  </g>
  <path
     d="m 408.147,317.632 1.597,-1.807 0.511,0.452 -0.14,0.159 q -0.117,0.132 -0.134,0.178 -0.03,0.087 0,0.166 0.027,0.076 0.146,0.18 l 2.112,1.867 q 0.128,0.113 0.166,0.128 0.041,0.013 0.092,-0.008 0.05,-0.023 0.143,-0.13 0.314,-0.354 0.41,-0.651 0.1,-0.3 0.048,-0.652 -0.052,-0.357 -0.295,-0.793 l 0.598,-0.34 0.937,1.696 -2.494,2.822 -0.512,-0.452 0.157,-0.178 q 0.096,-0.108 0.116,-0.19 0.02,-0.082 -0.006,-0.147 -0.027,-0.071 -0.15,-0.179 l -2.093,-1.85 q -0.132,-0.117 -0.214,-0.142 -0.08,-0.028 -0.148,-0.003 -0.067,0.021 -0.163,0.13 l -0.173,0.196 z m 3.501,-3.912 2.927,-2.896 1.496,0.714 -0.293,0.613 q -0.384,-0.157 -0.704,-0.169 -0.318,-0.014 -0.559,0.12 -0.24,0.129 -0.49,0.375 l -0.535,0.53 0.866,0.875 0.176,-0.174 q 0.198,-0.197 0.239,-0.292 0.04,-0.1 0.01,-0.19 -0.031,-0.092 -0.213,-0.276 l -0.132,-0.133 0.448,-0.443 1.468,1.483 -0.448,0.443 -0.15,-0.15 q -0.15,-0.154 -0.258,-0.187 -0.105,-0.036 -0.193,10e-4 -0.088,0.037 -0.304,0.251 l -0.158,0.157 0.796,0.804 q 0.127,0.128 0.167,0.144 0.04,0.015 0.09,-0.005 0.052,-0.022 0.173,-0.141 l 0.294,-0.291 q 0.33,-0.326 0.464,-0.643 0.131,-0.32 0.101,-0.702 -0.03,-0.388 -0.221,-0.772 l 0.617,-0.297 0.828,1.758 -3.032,3 -0.48,-0.485 0.088,-0.088 q 0.176,-0.174 0.212,-0.258 0.035,-0.085 -0.002,-0.173 -0.025,-0.05 -0.199,-0.226 l -1.89,-1.911 q -0.155,-0.156 -0.224,-0.181 -0.068,-0.028 -0.135,-0.006 -0.07,0.02 -0.204,0.152 l -0.156,0.154 z m 6.172,-5.91 q 0.891,-0.763 1.907,-0.691 1.018,0.069 1.746,0.921 0.49,0.572 0.617,1.232 0.127,0.66 -0.113,1.283 -0.239,0.619 -0.868,1.157 -0.83,0.71 -1.75,0.706 -1.111,-0.004 -1.9,-0.926 -0.733,-0.857 -0.64,-1.881 0.094,-1.026 1,-1.8 z m 0.52,0.588 q -0.427,0.365 -0.406,0.901 0.027,0.675 0.572,1.312 0.545,0.637 1.158,0.755 0.527,0.098 0.946,-0.26 0.422,-0.361 0.403,-0.894 -0.026,-0.635 -0.568,-1.269 -0.382,-0.446 -0.77,-0.64 -0.387,-0.195 -0.733,-0.16 -0.346,0.036 -0.602,0.255 z m 4.841,-4.948 0.383,-0.266 0.136,0.108 2.285,-1.589 -0.045,-0.17 0.386,-0.269 1.49,1.07 -0.41,0.565 q -0.426,-0.23 -0.579,-0.282 -0.301,-0.105 -0.586,-0.088 -0.216,0.012 -0.364,0.115 -0.07,0.049 -0.072,0.102 -0.004,0.05 0.08,0.169 l 1.619,2.329 q 0.143,0.206 0.194,0.248 0.05,0.042 0.108,0.05 0.055,0.005 0.124,-0.026 0.067,-0.034 0.331,-0.217 l 0.39,0.56 -1.975,1.373 -0.39,-0.56 0.12,-0.083 q 0.197,-0.138 0.236,-0.2 0.037,-0.064 0.024,-0.145 -0.016,-0.084 -0.153,-0.281 l -1.656,-2.381 q -0.07,-0.102 -0.112,-0.112 -0.041,-0.01 -0.117,0.043 -0.15,0.105 -0.258,0.347 -0.108,0.242 -0.109,0.55 -0.001,0.121 0.07,0.627 l -0.662,0.18 -0.488,-1.766 z m 4.487,-2.872 3.521,-2.133 1.29,1.043 -0.43,0.528 q -0.336,-0.242 -0.645,-0.328 -0.305,-0.088 -0.57,-0.014 -0.265,0.069 -0.564,0.25 l -0.645,0.39 0.638,1.053 0.212,-0.128 q 0.239,-0.145 0.3,-0.228 0.063,-0.087 0.055,-0.182 -0.01,-0.097 -0.143,-0.318 l -0.097,-0.16 0.538,-0.327 1.081,1.785 -0.538,0.326 -0.11,-0.181 q -0.112,-0.185 -0.208,-0.242 -0.094,-0.06 -0.188,-0.044 -0.094,0.016 -0.354,0.174 l -0.19,0.115 0.586,0.968 q 0.093,0.154 0.128,0.178 0.036,0.025 0.089,0.017 0.056,-0.01 0.201,-0.097 l 0.354,-0.215 q 0.397,-0.24 0.601,-0.516 0.203,-0.28 0.262,-0.66 0.061,-0.384 -0.034,-0.801 l 0.669,-0.145 0.395,1.902 -3.648,2.21 -0.354,-0.584 0.106,-0.064 q 0.212,-0.128 0.266,-0.203 0.054,-0.075 0.039,-0.168 -0.012,-0.054 -0.14,-0.266 l -1.393,-2.3 q -0.114,-0.187 -0.176,-0.228 -0.059,-0.042 -0.13,-0.037 -0.073,0.003 -0.233,0.1 l -0.187,0.114 z m 4.99,-2.986 2.699,-1.404 q 0.26,-0.135 0.592,-0.248 0.335,-0.114 0.666,-0.083 0.334,0.03 0.6,0.202 0.266,0.172 0.425,0.48 0.26,0.5 0.063,0.996 -0.194,0.492 -0.632,0.84 l 1.446,0.579 0.062,0.027 q 0.143,0.061 0.243,0.077 0.098,0.013 0.182,-0.003 0.084,-0.016 0.212,-0.082 l 0.189,-0.098 0.314,0.605 -1.402,0.73 -2.387,-1.155 -0.363,0.19 0.453,0.871 q 0.118,0.226 0.175,0.276 0.056,0.047 0.126,0.05 0.071,0 0.238,-0.087 l 0.2,-0.105 0.315,0.606 -2.14,1.113 -0.315,-0.606 0.195,-0.101 q 0.154,-0.08 0.2,-0.144 0.048,-0.069 0.045,-0.151 -0.004,-0.046 -0.106,-0.244 l -1.281,-2.463 q -0.075,-0.144 -0.132,-0.19 -0.054,-0.052 -0.117,-0.043 -0.094,0.004 -0.19,0.055 l -0.087,0.05 -0.163,0.084 z m 1.987,-0.12 0.589,1.132 0.65,-0.337 q 0.382,-0.2 0.534,-0.366 0.154,-0.172 0.18,-0.353 0.029,-0.182 -0.07,-0.37 -0.09,-0.173 -0.244,-0.248 -0.153,-0.08 -0.35,-0.053 -0.194,0.025 -0.568,0.22 z m 3.589,-2.734 2.785,-1.221 q 0.27,-0.118 0.608,-0.209 0.342,-0.092 0.67,-0.039 0.332,0.052 0.585,0.242 0.253,0.19 0.392,0.508 0.226,0.515 -0.003,0.997 -0.227,0.478 -0.686,0.796 l 1.404,0.674 0.06,0.032 q 0.139,0.07 0.238,0.092 0.097,0.02 0.181,0.01 0.085,-0.01 0.217,-0.069 l 0.195,-0.085 0.274,0.625 -1.448,0.635 -2.305,-1.31 -0.375,0.164 0.394,0.9 q 0.103,0.234 0.157,0.287 0.053,0.05 0.122,0.059 0.071,0.003 0.243,-0.072 l 0.207,-0.09 0.274,0.624 -2.209,0.969 -0.274,-0.626 0.2,-0.088 q 0.16,-0.07 0.21,-0.13 0.053,-0.065 0.055,-0.148 0,-0.046 -0.09,-0.25 l -1.115,-2.543 q -0.065,-0.149 -0.118,-0.199 -0.051,-0.055 -0.115,-0.05 -0.093,-0.001 -0.193,0.043 l -0.09,0.043 -0.168,0.073 -0.283,-0.644 z m 1.99,0.012 0.512,1.17 0.67,-0.295 q 0.396,-0.173 0.56,-0.33 0.164,-0.16 0.202,-0.34 0.04,-0.18 -0.045,-0.374 -0.078,-0.178 -0.227,-0.263 -0.148,-0.09 -0.346,-0.076 -0.196,0.012 -0.581,0.181 z m 5.431,-3.1 1.04,-0.379 2.698,3.07 q 0.217,0.245 0.328,0.28 0.114,0.034 0.348,-0.056 l 0.234,0.642 -2.193,0.8 -0.234,-0.642 0.132,-0.051 q 0.183,-0.067 0.239,-0.14 0.055,-0.077 0.03,-0.146 -0.022,-0.06 -0.153,-0.223 l -0.29,-0.373 -1.413,0.516 -0.002,0.531 q 0.002,0.17 0.019,0.216 0.02,0.053 0.072,0.083 0.055,0.028 0.149,0.017 0.061,-0.008 0.317,-0.1 l 0.234,0.64 -1.794,0.655 -0.234,-0.641 q 0.173,-0.063 0.241,-0.122 0.07,-0.06 0.097,-0.137 0.032,-0.08 0.035,-0.265 l 0.1,-4.174 z m 0.768,2.548 0.927,-0.338 -0.918,-1.111 -0.01,1.45 z m 3.081,-3.933 2.145,-0.617 1.653,2.648 0.022,-3.13 2.182,-0.629 0.19,0.656 -0.235,0.068 q -0.19,0.055 -0.242,0.158 -0.049,0.098 0.015,0.32 l 0.775,2.691 q 0.05,0.177 0.084,0.215 0.05,0.06 0.112,0.07 0.086,0.02 0.209,-0.015 l 0.268,-0.077 0.19,0.655 -2.281,0.657 -0.19,-0.656 0.177,-0.05 q 0.194,-0.057 0.253,-0.107 0.06,-0.05 0.072,-0.12 0.016,-0.074 -0.033,-0.244 l -0.84,-2.916 -0.024,4.261 -0.656,0.189 -2.213,-3.481 0.83,2.882 q 0.028,0.098 0.078,0.143 0.053,0.044 0.126,0.056 0.076,0.007 0.222,-0.035 l 0.228,-0.065 0.189,0.656 -1.941,0.558 -0.189,-0.656 0.19,-0.055 q 0.18,-0.052 0.236,-0.1 0.059,-0.054 0.07,-0.131 0.013,-0.081 -0.04,-0.268 l -0.766,-2.658 q -0.053,-0.183 -0.092,-0.23 -0.052,-0.067 -0.123,-0.083 -0.071,-0.017 -0.204,0.022 l -0.258,0.074 z m 9.86,-2.59 2.562,-0.478 q 0.487,-0.091 0.825,-0.05 0.342,0.037 0.61,0.196 0.27,0.158 0.447,0.413 0.176,0.25 0.234,0.56 0.116,0.622 -0.285,1.133 -0.398,0.51 -1.239,0.667 l -0.827,0.154 0.17,0.908 q 0.031,0.17 0.064,0.21 0.043,0.06 0.112,0.08 0.072,0.02 0.225,-0.01 l 0.247,-0.045 0.125,0.67 -2.364,0.442 -0.126,-0.67 0.164,-0.031 q 0.215,-0.04 0.28,-0.085 0.063,-0.044 0.082,-0.116 0.018,-0.075 -0.022,-0.287 l -0.498,-2.667 q -0.041,-0.222 -0.082,-0.287 -0.042,-0.068 -0.11,-0.087 -0.066,-0.024 -0.236,0.008 l -0.233,0.043 -0.125,-0.67 z m 1.928,0.46 0.257,1.377 0.414,-0.077 q 0.379,-0.07 0.542,-0.18 0.162,-0.113 0.24,-0.293 0.077,-0.184 0.036,-0.407 -0.063,-0.333 -0.356,-0.48 -0.219,-0.11 -0.594,-0.04 l -0.54,0.1 z m 3.308,-1.417 3.017,-0.376 q 0.292,-0.037 0.642,-0.027 0.354,0.01 0.654,0.154 0.303,0.144 0.491,0.398 0.188,0.254 0.232,0.599 0.07,0.558 -0.287,0.955 -0.354,0.393 -0.885,0.566 l 1.153,1.047 0.05,0.047 q 0.112,0.107 0.2,0.157 0.088,0.046 0.172,0.06 0.084,0.015 0.228,-0.003 l 0.21,-0.026 0.085,0.678 -1.57,0.195 -1.834,-1.913 -0.407,0.05 0.121,0.976 q 0.032,0.253 0.069,0.32 0.036,0.063 0.1,0.09 0.067,0.024 0.253,10e-4 l 0.225,-0.028 0.084,0.677 -2.393,0.299 -0.085,-0.678 0.218,-0.027 q 0.172,-0.021 0.238,-0.065 0.068,-0.048 0.094,-0.126 0.013,-0.044 -0.015,-0.265 l -0.343,-2.755 q -0.02,-0.162 -0.057,-0.225 -0.033,-0.067 -0.096,-0.08 -0.089,-0.029 -0.197,-0.015 l -0.098,0.016 -0.183,0.022 -0.087,-0.698 z m 1.903,0.579 0.158,1.267 0.727,-0.091 q 0.428,-0.053 0.629,-0.157 0.204,-0.107 0.29,-0.268 0.091,-0.16 0.065,-0.371 -0.024,-0.193 -0.143,-0.318 -0.116,-0.128 -0.31,-0.171 -0.191,-0.044 -0.609,0.008 l -0.807,0.1 z m 6.973,-1.556 q 1.172,-0.066 1.937,0.606 0.768,0.672 0.831,1.79 0.043,0.753 -0.256,1.354 -0.298,0.602 -0.866,0.953 -0.565,0.348 -1.391,0.395 -1.092,0.062 -1.821,-0.499 -0.882,-0.676 -0.95,-1.887 -0.065,-1.126 0.629,-1.885 0.697,-0.759 1.887,-0.827 z m 0.059,0.783 q -0.562,0.032 -0.87,0.472 -0.386,0.553 -0.339,1.39 0.048,0.837 0.464,1.302 0.36,0.397 0.91,0.366 0.554,-0.032 0.863,-0.467 0.363,-0.52 0.316,-1.354 -0.034,-0.586 -0.226,-0.975 -0.188,-0.39 -0.486,-0.571 -0.298,-0.181 -0.632,-0.162 z m 3.702,-0.864 2.606,0.015 q 0.496,0.003 0.82,0.108 0.329,0.1 0.56,0.307 0.237,0.207 0.362,0.49 0.126,0.28 0.124,0.595 -0.004,0.633 -0.495,1.058 -0.487,0.425 -1.343,0.42 l -0.841,-0.005 -0.006,0.923 q -10e-4,0.174 0.023,0.22 0.032,0.067 0.095,0.1 0.067,0.032 0.223,0.033 h 0.251 l -0.004,0.683 -2.405,-0.014 0.004,-0.683 0.166,0.002 q 0.22,0 0.29,-0.03 0.07,-0.03 0.104,-0.099 0.032,-0.07 0.033,-0.286 l 0.017,-2.713 q 0,-0.226 -0.027,-0.297 -0.028,-0.074 -0.091,-0.107 -0.06,-0.035 -0.233,-0.036 l -0.237,-0.002 z m 1.806,0.817 -0.009,1.4 0.421,0.003 q 0.386,0.002 0.567,-0.075 0.18,-0.08 0.291,-0.242 0.11,-0.166 0.112,-0.392 0.002,-0.34 -0.258,-0.539 -0.194,-0.15 -0.576,-0.152 z m 3.537,-0.761 3.034,0.21 q 0.292,0.02 0.635,0.096 0.345,0.077 0.612,0.276 0.27,0.2 0.406,0.486 0.136,0.286 0.112,0.631 -0.038,0.561 -0.465,0.883 -0.422,0.318 -0.977,0.386 l 0.932,1.249 0.039,0.055 q 0.09,0.127 0.167,0.193 0.077,0.062 0.157,0.092 0.08,0.03 0.224,0.04 l 0.212,0.015 -0.047,0.681 -1.577,-0.109 -1.435,-2.23 -0.41,-0.027 -0.067,0.98 q -0.017,0.255 0.006,0.327 0.023,0.07 0.08,0.109 0.062,0.036 0.25,0.049 l 0.225,0.015 -0.047,0.681 -2.406,-0.166 0.047,-0.68 0.218,0.014 q 0.173,0.012 0.246,-0.018 0.077,-0.034 0.118,-0.106 0.02,-0.04 0.035,-0.263 l 0.191,-2.77 q 0.012,-0.162 -0.012,-0.231 -0.02,-0.072 -0.078,-0.098 -0.082,-0.044 -0.192,-0.052 l -0.099,-0.003 -0.183,-0.013 0.048,-0.702 z m 1.757,0.933 -0.088,1.274 0.73,0.05 q 0.431,0.03 0.648,-0.033 0.221,-0.066 0.337,-0.207 0.12,-0.141 0.134,-0.353 0.014,-0.194 -0.08,-0.338 -0.088,-0.148 -0.27,-0.228 -0.18,-0.08 -0.6,-0.109 l -0.81,-0.056 z m 4.341,-0.454 2.387,0.29 -0.082,0.678 -0.218,-0.027 q -0.19,-0.023 -0.257,0.005 -0.063,0.024 -0.104,0.094 -0.037,0.067 -0.061,0.27 l -0.33,2.71 q -0.026,0.222 -0.01,0.288 0.017,0.066 0.074,0.102 0.068,0.05 0.216,0.068 l 0.26,0.032 -0.083,0.678 -2.387,-0.29 0.082,-0.678 0.193,0.024 q 0.207,0.025 0.274,0.005 0.067,-0.024 0.103,-0.084 0.04,-0.063 0.063,-0.256 l 0.33,-2.721 q 0.028,-0.228 0.005,-0.302 -0.02,-0.077 -0.085,-0.125 -0.046,-0.034 -0.235,-0.057 l -0.218,-0.026 0.082,-0.678 z m 5.128,0.712 1.09,0.188 0.813,4.006 q 0.067,0.32 0.145,0.405 0.083,0.086 0.33,0.125 l -0.116,0.673 -2.3,-0.397 0.116,-0.673 0.14,0.021 q 0.192,0.033 0.277,-0.002 0.086,-0.04 0.099,-0.113 0.01,-0.062 -0.022,-0.269 l -0.067,-0.467 -1.48,-0.256 -0.267,0.46 q -0.083,0.147 -0.091,0.196 -0.01,0.056 0.02,0.108 0.035,0.052 0.122,0.089 0.057,0.024 0.325,0.07 l -0.116,0.673 -1.882,-0.325 0.116,-0.672 q 0.181,0.03 0.27,0.014 0.09,-0.017 0.152,-0.07 0.067,-0.054 0.163,-0.213 z m -0.602,2.591 0.973,0.168 -0.243,-1.42 z m 4.684,-1.873 2.165,0.544 0.098,3.12 1.593,-2.696 2.202,0.554 -0.166,0.662 -0.237,-0.06 q -0.192,-0.048 -0.288,0.015 -0.092,0.061 -0.148,0.284 l -0.682,2.717 q -0.045,0.178 -0.036,0.228 0.014,0.076 0.062,0.117 0.065,0.06 0.188,0.092 l 0.271,0.068 -0.166,0.662 -2.302,-0.579 0.167,-0.662 0.178,0.045 q 0.196,0.05 0.272,0.036 0.076,-0.014 0.123,-0.068 0.05,-0.056 0.093,-0.228 l 0.74,-2.943 -2.163,3.672 -0.662,-0.166 -0.164,-4.122 -0.73,2.909 q -0.026,0.1 -0.005,0.163 0.024,0.064 0.081,0.112 0.062,0.044 0.21,0.081 l 0.23,0.058 -0.167,0.662 -1.958,-0.492 0.166,-0.662 0.192,0.048 q 0.182,0.046 0.255,0.032 0.077,-0.018 0.125,-0.078 0.052,-0.064 0.1,-0.252 l 0.673,-2.683 q 0.047,-0.185 0.037,-0.246 -0.012,-0.083 -0.065,-0.133 -0.053,-0.05 -0.187,-0.083 l -0.26,-0.066 z m 9.898,2.76 2.448,0.894 q 0.465,0.17 0.735,0.378 0.275,0.206 0.424,0.479 0.152,0.274 0.175,0.583 0.023,0.307 -0.085,0.602 -0.217,0.595 -0.822,0.83 -0.602,0.235 -1.406,-0.06 l -0.79,-0.288 -0.318,0.867 q -0.06,0.163 -0.052,0.214 0.007,0.075 0.056,0.126 0.052,0.053 0.198,0.107 l 0.236,0.086 -0.234,0.64 -2.259,-0.825 0.234,-0.64 0.156,0.056 q 0.206,0.076 0.284,0.07 0.077,-0.006 0.13,-0.058 0.054,-0.055 0.128,-0.258 l 0.931,-2.548 q 0.078,-0.212 0.076,-0.289 -0.001,-0.079 -0.05,-0.13 -0.044,-0.055 -0.207,-0.114 l -0.223,-0.081 0.235,-0.642 z m 1.424,1.378 -0.481,1.316 0.395,0.144 q 0.362,0.133 0.558,0.122 0.198,-0.015 0.356,-0.13 0.16,-0.119 0.238,-0.331 0.117,-0.32 -0.061,-0.595 -0.132,-0.206 -0.49,-0.337 z m 3.616,0.487 2.781,1.23 q 0.269,0.119 0.564,0.307 0.299,0.19 0.481,0.469 0.186,0.28 0.217,0.594 0.03,0.316 -0.11,0.632 -0.227,0.515 -0.738,0.672 -0.505,0.155 -1.05,0.03 l 0.45,1.491 0.018,0.066 q 0.042,0.15 0.092,0.238 0.051,0.085 0.116,0.14 0.064,0.056 0.197,0.114 l 0.194,0.086 -0.276,0.624 -1.446,-0.64 -0.589,-2.584 -0.375,-0.166 -0.398,0.899 q -0.103,0.233 -0.106,0.309 -10e-4,0.073 0.04,0.13 0.045,0.054 0.216,0.13 l 0.207,0.092 -0.276,0.624 -2.206,-0.976 0.277,-0.624 0.2,0.089 q 0.159,0.07 0.238,0.066 0.083,-0.006 0.146,-0.06 0.033,-0.03 0.123,-0.235 l 1.123,-2.538 q 0.066,-0.15 0.068,-0.222 0.005,-0.075 -0.04,-0.119 -0.063,-0.07 -0.163,-0.114 l -0.092,-0.037 -0.168,-0.074 0.285,-0.644 z m 1.334,1.475 -0.516,1.168 0.67,0.296 q 0.394,0.175 0.62,0.19 0.23,0.012 0.387,-0.08 0.16,-0.092 0.246,-0.286 0.079,-0.178 0.04,-0.346 -0.033,-0.169 -0.177,-0.306 -0.14,-0.136 -0.526,-0.306 z m 6.818,2.292 q 1.036,0.551 1.34,1.523 0.308,0.972 -0.218,1.962 -0.354,0.665 -0.922,1.024 -0.567,0.36 -1.235,0.364 -0.663,0.004 -1.394,-0.385 -0.965,-0.513 -1.297,-1.371 -0.403,-1.036 0.167,-2.106 0.53,-0.996 1.517,-1.285 0.99,-0.286 2.042,0.274 z m -0.357,0.7 q -0.496,-0.265 -0.987,-0.05 -0.618,0.273 -1.012,1.013 -0.393,0.74 -0.28,1.353 0.101,0.527 0.589,0.786 0.49,0.26 0.98,0.048 0.58,-0.255 0.972,-0.992 0.276,-0.518 0.314,-0.951 0.04,-0.43 -0.12,-0.74 -0.159,-0.31 -0.456,-0.468 z m 4.023,1.246 0.397,0.247 -0.046,0.168 2.362,1.472 0.139,-0.11 0.399,0.25 -0.396,1.79 -0.68,-0.152 q 0.043,-0.482 0.03,-0.644 -0.022,-0.318 -0.15,-0.573 -0.096,-0.194 -0.25,-0.289 -0.072,-0.045 -0.121,-0.026 -0.048,0.017 -0.124,0.14 l -1.5,2.407 q -0.134,0.213 -0.152,0.276 -0.019,0.064 -0.003,0.119 0.017,0.053 0.073,0.104 0.057,0.048 0.33,0.218 l -0.361,0.58 -2.04,-1.273 0.36,-0.579 0.123,0.077 q 0.204,0.127 0.276,0.139 0.074,0.008 0.143,-0.036 0.072,-0.047 0.199,-0.252 l 1.534,-2.46 q 0.065,-0.106 0.058,-0.148 -0.007,-0.042 -0.085,-0.09 -0.156,-0.098 -0.421,-0.1 -0.265,-0.003 -0.548,0.117 -0.112,0.046 -0.549,0.312 l -0.428,-0.538 z m 4.416,2.993 3.348,2.396 -0.45,1.595 -0.654,-0.185 q 0.09,-0.406 0.047,-0.723 -0.04,-0.315 -0.212,-0.53 -0.167,-0.216 -0.452,-0.42 l -0.613,-0.438 -0.716,1.001 0.201,0.144 q 0.227,0.163 0.328,0.187 0.105,0.023 0.189,-0.022 0.086,-0.047 0.236,-0.257 l 0.11,-0.152 0.511,0.366 -1.214,1.697 -0.512,-0.366 0.123,-0.173 q 0.126,-0.175 0.14,-0.287 0.018,-0.11 -0.034,-0.19 -0.05,-0.08 -0.298,-0.257 l -0.181,-0.13 -0.66,0.921 q -0.104,0.147 -0.112,0.189 -0.009,0.042 0.02,0.088 0.03,0.048 0.168,0.147 l 0.337,0.24 q 0.376,0.27 0.711,0.349 0.338,0.076 0.71,-0.019 0.377,-0.095 0.723,-0.348 l 0.396,0.558 -1.592,1.113 -3.469,-2.482 0.398,-0.555 0.1,0.072 q 0.202,0.144 0.291,0.165 0.09,0.02 0.17,-0.031 0.045,-0.033 0.19,-0.234 l 1.564,-2.186 q 0.127,-0.178 0.14,-0.252 0.017,-0.07 -0.016,-0.134 -0.032,-0.065 -0.184,-0.174 l -0.178,-0.128 0.397,-0.555 z m 5.513,7.044 1.862,1.527 -0.437,0.533 -0.14,-0.114 q -0.136,-0.112 -0.209,-0.13 -0.069,-0.016 -0.138,0.018 -0.068,0.032 -0.191,0.182 l -0.98,1.195 -0.56,-0.46 0.079,-0.392 q -0.397,-0.041 -0.742,-0.183 -0.346,-0.142 -0.644,-0.386 -0.522,-0.429 -0.743,-1.035 -0.22,-0.607 -0.097,-1.27 0.125,-0.66 0.59,-1.227 0.46,-0.56 1.07,-0.801 0.611,-0.239 1.263,-0.13 0.657,0.109 1.176,0.535 0.252,0.206 0.447,0.476 0.2,0.27 0.29,0.522 l 0.24,-0.087 0.383,0.315 -0.692,1.545 -0.638,-0.248 q 0.084,-0.627 0.057,-0.9 -0.024,-0.272 -0.149,-0.516 -0.122,-0.242 -0.305,-0.392 -0.26,-0.213 -0.61,-0.25 -0.347,-0.033 -0.716,0.15 -0.367,0.179 -0.704,0.589 -0.37,0.451 -0.5,0.899 -0.126,0.45 -0.026,0.801 0.103,0.35 0.382,0.578 0.196,0.162 0.436,0.226 0.243,0.067 0.39,0.022 0.146,-0.045 0.283,-0.211 l 0.114,-0.14 q 0.12,-0.145 0.131,-0.199 0.015,-0.079 -0.017,-0.146 -0.029,-0.065 -0.176,-0.186 l -0.216,-0.178 0.437,-0.533 z m 5.324,1.593 0.809,0.756 -1.517,3.795 q -0.12,0.304 -0.101,0.419 0.021,0.117 0.207,0.286 l -0.466,0.498 -1.705,-1.593 0.465,-0.499 0.106,0.094 q 0.142,0.133 0.233,0.15 0.093,0.014 0.144,-0.04 0.043,-0.047 0.13,-0.237 l 0.2,-0.427 -1.098,-1.026 -0.475,0.239 q -0.15,0.077 -0.184,0.113 -0.039,0.042 -0.042,0.102 0,0.063 0.053,0.14 0.034,0.052 0.233,0.238 l -0.466,0.499 -1.396,-1.304 0.466,-0.499 q 0.135,0.126 0.218,0.16 0.084,0.035 0.166,0.025 0.085,-0.008 0.253,-0.089 z m -1.924,1.837 0.72,0.674 0.576,-1.32 z m 5.168,1.042 0.322,0.338 -0.086,0.15 1.919,2.017 0.161,-0.07 0.325,0.34 -0.831,1.635 -0.62,-0.318 q 0.161,-0.456 0.19,-0.615 0.058,-0.314 -0.003,-0.593 -0.045,-0.212 -0.17,-0.342 -0.058,-0.062 -0.11,-0.056 -0.05,0.004 -0.156,0.104 l -2.054,1.956 q -0.182,0.173 -0.216,0.23 -0.034,0.056 -0.033,0.114 0.004,0.055 0.045,0.118 0.043,0.061 0.265,0.295 l -0.494,0.47 -1.658,-1.742 0.494,-0.47 0.1,0.104 q 0.166,0.175 0.233,0.204 0.07,0.027 0.147,10e-4 0.081,-0.028 0.255,-0.194 l 2.101,-1.999 q 0.09,-0.085 0.093,-0.128 0.004,-0.042 -0.06,-0.109 -0.126,-0.133 -0.382,-0.202 -0.256,-0.069 -0.56,-0.024 -0.12,0.017 -0.61,0.165 l -0.28,-0.627 z"
     id="path119" />
</svg>
