<?xml version="1.0" encoding="UTF-8" standalone="no"?>
<svg
   width="920"
   height="552"
   version="1.1"
   id="svg112"
   xmlns:xlink="http://www.w3.org/1999/xlink"
   xmlns="http://www.w3.org/2000/svg"
   xmlns:svg="http://www.w3.org/2000/svg">
  <style
     id="style1">.B{stroke-width:.164}.C{fill:#406325}.D{fill:#67923d}.E{stroke-width:.218}.F{fill:#34541f}.G{stroke:#24420e}.H{stroke-width:.109}.I{stroke:none}.J{fill:#485654}.K{stroke-width:.437}</style>
  <defs
     id="defs14">
    <radialGradient
       id="A"
       xlink:href="#M">
      <stop
         stop-color="#f9f0aa"
         offset=".216"
         id="stop1" />
      <stop
         stop-color="#b07e09"
         offset="1"
         id="stop2" />
    </radialGradient>
    <radialGradient
       id="B"
       xlink:href="#A"
       cx="9387.7961"
       cy="6494.7115"
       r="331.38961"
       gradientTransform="scale(1.0564129,0.94659959)"
       fx="9387.7961"
       fy="6494.7115"
       gradientUnits="userSpaceOnUse" />
    <radialGradient
       id="C"
       xlink:href="#A"
       cx="5523.2758"
       cy="3845.9909"
       r="123.03861"
       gradientTransform="scale(1.0389531,0.96250737)"
       fx="5523.2758"
       fy="3845.9909"
       gradientUnits="userSpaceOnUse" />
    <radialGradient
       id="D"
       xlink:href="#A"
       cx="4032.8017"
       cy="2890.8179"
       r="79.276984"
       gradientTransform="scale(1.2803535,0.78103431)"
       fx="4032.8017"
       fy="2890.8179"
       gradientUnits="userSpaceOnUse" />
    <radialGradient
       id="E"
       xlink:href="#A"
       cx="8343.757"
       cy="5609.2227"
       r="299.49611"
       gradientTransform="scale(1.037511,0.96384525)"
       fx="8343.757"
       fy="5609.2227"
       gradientUnits="userSpaceOnUse" />
    <radialGradient
       id="F"
       xlink:href="#A"
       cx="6283.4566"
       cy="3565.8577"
       r="170.95019"
       gradientTransform="scale(1.0368562,0.96445391)"
       fx="6283.4566"
       fy="3565.8577"
       gradientUnits="userSpaceOnUse" />
    <radialGradient
       id="G"
       cx="477.858"
       cy="215.26601"
       r="0.345"
       xlink:href="#M">
      <stop
         stop-color="#a50a0a"
         offset=".259"
         id="stop3" />
      <stop
         stop-color="#4c0505"
         offset="1"
         id="stop4" />
    </radialGradient>
    <radialGradient
       id="H"
       gradientTransform="scale(0.97707,1.02346)"
       cx="489.07199"
       cy="210.326"
       fx="489.07199"
       fy="210.326"
       r="0.345"
       xlink:href="#M">
      <stop
         stop-color="#fff"
         offset="0"
         id="stop5" />
      <stop
         stop-color="#fff"
         stop-opacity="0"
         offset="1"
         id="stop6" />
    </radialGradient>
    <linearGradient
       id="I"
       x1="473.90601"
       y1="259.17099"
       x2="472.35699"
       y2="231.963"
       xlink:href="#M">
      <stop
         stop-color="#b07e09"
         stop-opacity="0"
         offset=".216"
         id="stop7" />
      <stop
         stop-color="#b07e09"
         offset="1"
         id="stop8" />
    </linearGradient>
    <linearGradient
       id="J"
       x1="483.12601"
       y1="296.65601"
       x2="485.495"
       y2="326.58301"
       xlink:href="#M">
      <stop
         stop-color="#b07e09"
         stop-opacity="0"
         offset=".216"
         id="stop9" />
      <stop
         stop-color="#b07e09"
         offset="1"
         id="stop10" />
    </linearGradient>
    <linearGradient
       id="K"
       x1="451.54099"
       y1="249.52299"
       x2="455.366"
       y2="240.576"
       xlink:href="#M">
      <stop
         stop-color="#f9f0aa"
         offset=".216"
         id="stop11" />
      <stop
         stop-color="#b07e09"
         offset="1"
         id="stop12" />
    </linearGradient>
    <linearGradient
       id="L"
       x1="473.314"
       y1="237.24699"
       x2="475.92899"
       y2="270.44601"
       xlink:href="#M">
      <stop
         stop-color="#f9f0aa"
         offset=".216"
         id="stop13" />
      <stop
         stop-color="#b07e09"
         offset="1"
         id="stop14" />
    </linearGradient>
    <linearGradient
       id="M"
       gradientUnits="userSpaceOnUse" />
  </defs>
  <path
     fill="#4997d0"
     d="M 0,0 H 920 V 552 H 0 Z"
     id="path14"
     style="stroke-width:0.938971" />
  <path
     fill="#ffffff"
     d="M 300,0 H 620 V 552 H 300 Z"
     id="path15"
     style="stroke-width:0.959166" />
  <g
     transform="matrix(1.01416,0,0,1.033,-26.796,-33.894)"
     id="g112">
    <g
       class="G"
       id="g58">
      <path
         d="m 452.12,377.48 c 2.67,-0.407 4.208,-1.138 6.035,-1.786 m 2.215,-4.054 c 1.347,1.429 2.417,2.95 2.993,4.635 M 455.25,371.2 c 1.404,1.313 2.376,2.712 3.138,4.152 M 408.81,238.77 c -1.044,1.602 -3.092,2.726 -4.78,3.428 M 403.69,242 c 0.035,-1.368 -0.236,-3.026 0.05,-4.393 m -1.98,5.023 0.676,2.028 m 2.024,0.922 -2.028,0.338 m -3.952,-0.878 c -0.013,2.52 0.286,5.553 0.531,7.821 M 397.22,251.9 c 0.472,0.757 0.947,1.504 1.545,1.883 m -4.585,6.467 c 0.489,0.94 0.943,2.122 1.304,3.959 m 3.716,-4.629 c -0.414,0.205 -1.215,0.931 -1.931,1.545 m 1.591,4.395 c -0.979,0.872 -2.198,1.504 -3.428,2.124 m -3.812,40.406 c 1.153,1.894 2.421,3.56 3.959,4.684 m 0.581,1.686 c -1.294,-0.166 -2.161,-0.545 -2.945,-0.966 m 4.395,8.406 1.689,0.966 m -0.439,3.474 c 1.255,0.816 2.51,2.283 3.765,3.863 m -1.445,2.847 c 1.385,0.293 2.493,0.641 3.235,1.062 m -1.065,2.418 2.124,0.072 m 1.206,-5.382 -0.483,4.249 m 1.013,1.591 0.434,-1.642 m 4.686,5.992 -0.146,3.236 m 39.206,27.904 -1.159,1.593 m -2.411,-3.913 -0.676,-1.834"
         fill="none"
         class="K"
         id="path16" />
      <path
         d="m 486.11,384.93 c -0.797,-1.255 -2.108,-2.028 -3.277,-2.656 -7.726,-4.057 -15.406,-5.844 -24.116,-7.244 -2.013,-0.338 -4.026,-2.222 -6.087,-3.187 -4.963,-2.365 -10.489,-3.284 -15.311,-5.697 -0.328,-0.146 -1.545,-0.869 -2.108,-1.545 -1.919,-2.222 -5.385,-2.899 -7.539,-4.975 -8.335,-7.871 -17.184,-15.116 -21.772,-25.547 -5.573,-12.7 -12.504,-25.786 -11.567,-40.226 0.609,-9.127 -0.75,-18.35 1.498,-27.043 3.325,-12.894 7.586,-25.641 15.406,-36.314 l -1.311,0.82 c -7.867,10.674 -12.127,23.422 -15.452,36.315 -2.248,8.692 -0.89,17.916 -1.499,27.043 -0.936,14.439 5.995,27.526 11.567,40.274 4.588,10.383 13.485,17.626 21.774,25.547 2.154,2.027 5.62,2.703 7.539,4.973 0.562,0.628 1.825,1.401 2.107,1.545 4.824,2.415 10.349,3.332 15.313,5.651 2.06,1.014 4.074,2.848 6.087,3.188 8.71,1.399 16.388,3.235 24.115,7.242 1.217,0.627 2.482,1.401 3.278,2.656 l 1.358,-0.822"
         class="B C"
         id="path17" />
      <g
         class="B D"
         id="g20">
        <path
           d="m 406.34,331.62 c -2.794,-6.3 -1.365,-21.608 -0.198,-23.53 6.633,13.006 4.425,23.741 0.198,23.53 z m 45.86,45.39 c -7.092,0.364 -20.61,9.295 -21.864,11.396 15.085,0.116 24.02,-7.315 21.864,-11.396 z m 7.46,-4.29 c -6.845,-5.449 -14.189,-23.661 -14.032,-26.501 15.11,10.834 18.936,24.281 14.032,26.501 z"
           id="path18" />
        <path
           d="m 454.61,372.78 c -6.95,-4.235 -15.786,-20.115 -15.938,-22.754 15.202,8.194 20.198,20.129 15.938,22.754 z M 439.05,366 c 0.984,-7.822 -5.666,-24.241 -7.586,-25.979 -2.95,16.467 2.997,27.573 7.586,25.979 z m -27.31,-24.28 c -2.305,-5.646 -0.613,-19.321 0.47,-20.998 5.52,11.696 3.264,21.218 -0.47,20.998 z m -13.71,-76.83 c 3.589,-6.648 18.381,-15.712 20.99,-15.931 -6.771,14.569 -18.037,19.829 -20.99,15.931 z"
           id="path19" />
        <path
           d="m 398.74,259.33 c 2.149,-7.282 14.874,-19.265 17.36,-20.034 -3.727,15.676 -13.678,23.179 -17.36,20.034 z m 27.81,99.15 c -4.992,-6.176 -8.012,-23.865 -7.29,-26.361 11.271,12.515 12.029,25.234 7.29,26.361 z M 397.9,322.02 c -6.909,1.089 -21.36,-4.636 -22.921,-6.337 14.533,-3.15 24.288,2.072 22.921,6.337 z m -2.22,-9.68 c 0.823,-5.577 8.665,-15.809 10.361,-16.66 -1.11,11.958 -7.449,18.6 -10.361,16.66 z m 51.33,58.54 c -8.475,0.435 -24.63,11.107 -26.128,13.618 18.028,0.143 28.705,-8.741 26.128,-13.618 z"
           id="path20" />
      </g>
      <g
         class="B C"
         id="g22">
        <path
           d="m 406.41,331.47 c 4.227,0.21 6.405,-10.396 -0.269,-23.379 1.211,12.319 1.208,22.309 0.269,23.379 z m 11.18,19.99 c -4.474,-5.47 -19.381,-11.328 -21.712,-11.141 8.885,12.081 19.88,15.097 21.712,11.141 z m -24.42,-52.98 c -1.147,-8.043 -12.334,-22.713 -14.743,-23.969 1.517,17.175 10.548,26.697 14.743,23.969 z m 8.39,34.29 c -4.993,-3.681 -18.971,-5.344 -20.94,-4.723 10.137,8.305 20.212,8.458 20.94,4.723 z m -9.36,-24.83 c -2.885,-5.69 -14.812,-13.482 -16.892,-13.701 5.517,12.387 14.558,16.939 16.892,13.701 z m 2.73,-47.54 c 0.905,-7.573 -5.533,-23.446 -7.345,-25.158 -2.866,15.925 2.918,26.664 7.345,25.158 z m 4.47,-14.92 c 2.658,-6.496 0.756,-22.429 -0.522,-24.417 -6.403,13.509 -3.828,24.648 0.522,24.417 z m 5.02,-7.65 c 3.136,-4.771 4.162,-17.685 3.485,-19.47 -7.236,9.715 -6.958,18.944 -3.485,19.47 z m 5.95,-6.14 c 4.402,-3.477 9.224,-15.501 9.084,-17.433 -9.74,6.954 -12.221,15.841 -9.084,17.433 z m -16.05,43.2 c 0.108,0.868 -0.978,-8.181 -10.054,-18.314 0.409,14.818 6.25,20.421 10.054,18.314 z m 32.56,85.78 c -6.175,-4.559 -23.385,-6.728 -25.767,-5.927 12.562,10.355 24.878,10.551 25.767,5.927 z m 12.07,5.24 c -4.542,1.593 -10.443,-9.417 -7.54,-25.883 2.81,13.955 6.181,25.063 7.54,25.883 z m 13.3,11.15 c 2.116,4.082 -6.7,11.436 -21.787,11.315 11.952,-4.891 21.239,-9.861 21.787,-11.315 z m 7.39,-4.47 c 4.865,-2.249 1.101,-15.536 -14.009,-26.369 8.595,13.214 14.455,24.609 14.009,26.369 z m -5.07,0.08 c 4.278,-2.666 -0.69,-14.444 -15.891,-22.639 9.404,11.183 16.095,20.967 15.891,22.639 z m -42.79,-30.99 c 3.735,0.222 5.957,-9.262 0.477,-20.924 0.718,10.974 0.418,19.978 -0.477,20.924 z m -13.76,-76.74 c 2.951,3.897 14.055,-1.309 20.837,-15.923 -10.165,9.339 -19.225,16.064 -20.837,15.923 z m 0.84,-5.61 c 3.682,3.145 13.542,-4.302 17.269,-19.977 -8.096,11.245 -15.644,19.736 -17.269,19.977 z m 27.72,99.09 c 4.74,-1.125 3.954,-13.784 -7.254,-26.272 5.013,13.416 8.016,24.756 7.254,26.272 z m -28.87,-36.46 c 1.407,-4.24 -8.297,-9.369 -22.803,-6.259 12.261,2.195 22.043,5.042 22.803,6.259 z m -1.94,-9.61 c 2.903,1.887 9.178,-4.659 10.286,-16.617 -4.674,9.181 -9.166,16.265 -10.286,16.617 z m 51.2,58.68 c 2.576,4.876 -7.959,13.667 -26.035,13.522 14.283,-5.844 25.38,-11.783 26.035,-13.522 z"
           id="path21" />
        <path
           d="m 399.36,326.3 c -2.658,-6.262 -14.798,-15.462 -16.982,-15.841 4.946,13.638 14.248,19.146 16.982,15.841 z"
           id="path22" />
      </g>
      <g
         class="B D"
         id="g24">
        <path
           d="m 392.42,273.92 c 4.075,-4.666 17.469,-9.134 19.599,-8.865 -8.042,10.409 -17.941,12.515 -19.599,8.865 z m 25.07,77.59 c -1.807,3.918 -12.696,0.916 -21.646,-11.152 10.885,6.83 20.244,11.511 21.646,11.152 z M 393.1,298.46 c -4.195,2.727 -13.128,-6.738 -14.685,-23.884 6.623,13.203 13.037,23.384 14.685,23.884 z m 8.42,34.34 c -0.769,3.731 -10.688,3.59 -20.864,-4.717 10.729,3.406 19.739,5.333 20.864,4.717 z m -9.45,-24.95 c -2.334,3.239 -11.289,-1.269 -16.807,-13.657 8.192,7.967 15.492,13.744 16.807,13.657 z m 2.76,-47.55 c -4.427,1.556 -10.16,-9.079 -7.294,-25.005 2.667,13.488 5.935,24.175 7.294,25.005 z m 4.47,-14.86 c -4.304,0.227 -6.871,-10.815 -0.468,-24.322 -0.822,12.797 -0.507,23.234 0.468,24.322 z m 5.04,-7.67 c -3.473,-0.525 -3.717,-9.655 3.521,-19.369 -2.739,9.976 -4.151,18.366 -3.521,19.369 z m 5.98,-6.08 c -3.137,-1.643 -0.701,-10.431 9.038,-17.337 -5.525,8.644 -9.318,16.178 -9.038,17.337 z"
           id="path23" />
        <path
           d="m 394.25,274.9 c -3.804,2.106 -9.577,-3.503 -9.987,-18.322 5.102,11.684 8.603,17.807 9.987,18.322 z m 32.57,85.8 c -0.886,4.625 -13.144,4.401 -25.678,-5.895 13.168,4.274 24.246,6.694 25.678,5.895 z m -8.17,-9.48 c -4.023,-4.343 -7.158,-17.347 -6.747,-19.242 9.012,8.743 10.215,18.165 6.747,19.242 z m -16.88,-24.99 c -3.57,-5.786 -3.876,-20.907 -2.919,-22.956 8.263,11.809 7.253,22.585 2.919,22.956 z m -2.63,0.09 c -2.736,3.305 -11.93,-2.159 -16.872,-15.833 8.132,9.111 15.474,15.812 16.872,15.833 z"
           id="path24" />
      </g>
      <g
         class="B C"
         id="g26">
        <path
           d="m 392.37,274 c 1.617,3.623 11.45,1.53 19.493,-8.88 -11.97,6.793 -16.711,9.741 -19.493,8.88 z m 9.34,52.07 c 4.332,-0.371 5.331,-11.037 -2.933,-22.846 2.663,11.854 3.791,21.678 2.933,22.846 z m 16.96,25.11 c 3.47,-1.071 2.25,-10.451 -6.713,-19.178 4.403,9.727 7.205,18.011 6.713,19.178 z"
           id="path25" />
        <path
           d="m 394.23,291.77 c 2.058,-8.386 -1.702,-22.601 -4.3,-25.559 -4.716,15.427 -0.245,26.599 4.3,25.559 z"
           id="path26" />
      </g>
      <g
         class="B"
         id="g31">
        <g
           class="D"
           id="g28">
          <path
             d="m 393.93,293.77 c -5.895,1.339 -8.645,-12.034 -4.08,-27.078 1.071,13.546 2.833,26.147 4.08,27.078 z"
             id="path27" />
          <path
             d="m 392.73,293.72 c -0.558,-7.527 6.934,-23.087 8.915,-24.707 2.015,15.803 -4.462,26.308 -8.915,24.707 z"
             id="path28" />
        </g>
        <path
           d="m 392.84,293.61 c 4.413,1.636 10.851,-8.761 8.835,-24.564 -3.511,13.267 -7.445,23.764 -8.835,24.564 z"
           class="C"
           id="path29" />
        <path
           d="m 394.13,303.26 c 0.005,-7.609 8.47,-22.23 10.562,-23.619 0.834,16.162 -6.332,25.829 -10.562,23.619 z"
           class="D"
           id="path30" />
        <path
           d="m 394.21,303.41 c 4.231,2.21 11.306,-7.364 10.471,-23.525 -4.409,12.857 -9.048,22.899 -10.471,23.525 z"
           class="C"
           id="path31" />
      </g>
      <g
         fill="#ba1f3e"
         stroke="#511124"
         id="g40">
        <g
           stroke-width="0.186"
           id="g33">
          <circle
             cx="396.83499"
             cy="251.27"
             r="1.085"
             id="circle31" />
          <circle
             cx="405.20499"
             cy="245.07001"
             r="1.085"
             id="circle32" />
          <circle
             cx="401.564"
             cy="241.71001"
             r="1.086"
             id="circle33" />
        </g>
        <g
           class="E"
           id="g39">
          <circle
             cx="392.50299"
             cy="313.12"
             r="1.277"
             id="circle34" />
          <circle
             cx="395.03299"
             cy="297.13"
             r="1.277"
             id="circle35" />
          <circle
             cx="408.21301"
             cy="334.45999"
             r="1.277"
             id="circle36" />
          <circle
             cx="402.39301"
             cy="336.42999"
             r="1.277"
             id="circle37" />
          <circle
             cx="446.703"
             cy="367.63"
             r="1.277"
             id="circle38" />
          <circle
             cx="449.61301"
             cy="374.70999"
             r="1.277"
             id="circle39" />
        </g>
      </g>
      <g
         fill="none"
         class="K"
         id="g41">
        <path
           d="m 561.15,258.97 c 0.623,0.621 1.174,0.808 2.295,1.895 M 556.82,241.92 c -0.035,-1.368 -0.633,-3.605 -0.918,-4.973 m 3.448,2.983 c 0.055,1.952 -0.218,3.809 -1.062,5.504 M 554.13,244.9 c 1.753,1.576 3.505,3.077 5.258,3.892 m 3.822,1.228 c 0.105,1.98 -0.142,3.96 -0.683,5.94 m 0.323,1.51 1.314,-2.262 M 562.3,267.43 c 1.4,0.291 2.81,1.946 3.505,3.482 m 0.475,-1.292 1.639,-2.185 m 1.711,30.725 c -0.748,1.304 -1.582,2.435 -2.458,3.483 m -3.962,-0.073 c 0.789,1.456 1.556,2.946 2.595,4.029 m 2.455,5.871 c -1.307,1.773 -2.766,3.165 -4.438,4.029 M 563.96,320 c -1.092,0.751 -2.426,2.953 -3.687,4.712 m 8.437,-20.182 -2.124,0.869 m -1.396,-7.489 1.255,1.111 m -9.295,37.389 c -0.839,-0.108 -1.456,0.009 -2.124,0.072 m -1.996,-1.932 0.615,1.639 m -7.715,5.121 c -0.262,1.866 -0.072,3.733 0.204,5.599 m 4.306,-9.019 1.024,2.254 m 3.826,-0.204 -2.527,0.41 m -30.853,25.27 -0.917,1.738 m 11.897,-3.928 c -1.492,0.187 -2.778,-0.043 -4.097,-0.204 m -5.463,5.944 a 27.28,27.28 0 0 0 -2.936,-0.956 m -14.744,2.656 c -0.906,0.773 -1.989,2.435 -3.073,4.097 M 502.03,370.4 c -2.433,1.253 -3.182,3.71 -4.438,5.804 m 2.798,2.866 c -1.553,-0.461 -3.412,-1.228 -5.326,-2.048 m 16.766,-0.682 c -2.321,-1.205 -4.748,-1.087 -7.135,-1.469 m 10.755,-0.341 c -3.628,-0.707 -7.01,-0.61 -10.276,-0.137 m 7.776,-2.603 -1.399,-0.58 m -5.531,5.5 -2.323,-1.296 M 561.64,326.22 c -1.255,0.816 -2.51,2.283 -3.766,3.863 m 1.826,-79.623 -2.153,-0.724"
           id="path40" />
      </g>
      <g
         class="C B"
         id="g42">
        <path
           d="m 474.39,384.85 c 0.797,-1.255 2.108,-2.028 3.277,-2.656 7.726,-4.057 15.406,-5.844 24.117,-7.244 2.013,-0.338 4.026,-2.222 6.087,-3.187 4.963,-2.365 10.489,-3.284 15.311,-5.697 0.328,-0.146 1.545,-0.869 2.108,-1.545 1.919,-2.222 5.385,-2.899 7.539,-4.975 8.335,-7.871 17.184,-15.116 21.772,-25.546 5.573,-12.7 12.503,-25.787 11.567,-40.225 -0.609,-9.127 0.75,-18.35 -1.498,-27.043 -3.326,-12.893 -7.588,-25.643 -15.408,-36.314 l 1.311,0.82 c 7.867,10.674 12.127,23.423 15.452,36.314 2.248,8.692 0.89,17.916 1.499,27.043 0.937,14.439 -5.995,27.526 -11.566,40.275 -4.588,10.383 -13.486,17.626 -21.774,25.546 -2.154,2.027 -5.62,2.703 -7.539,4.973 -0.562,0.628 -1.826,1.401 -2.106,1.545 -4.824,2.415 -10.349,3.332 -15.313,5.651 -2.06,1.014 -4.074,2.848 -6.087,3.188 -8.709,1.399 -16.388,3.235 -24.113,7.242 -1.217,0.627 -2.482,1.401 -3.279,2.656 l -1.358,-0.822"
           id="path41" />
        <path
           d="m 553.65,334.6 c 2.741,-7.416 -0.009,-24.838 -1.489,-26.951 -6.649,15.372 -3.341,27.502 1.489,26.951 z m -7.11,7.04 c 2.304,-5.646 0.613,-19.321 -0.47,-20.998 -5.52,11.696 -3.265,21.218 0.47,20.998 z m 16.81,-74.15 c -3.293,-6.1 -16.867,-14.418 -19.261,-14.618 6.213,13.368 16.552,18.195 19.261,14.618 z m -1.59,-8.02 c -1.791,-6.068 -12.395,-16.053 -14.466,-16.694 3.105,13.063 11.398,19.315 14.466,16.694 z m 4.74,14.96 c -3.537,-4.051 -15.164,-7.928 -17.013,-7.695 6.981,9.036 15.572,10.864 17.013,7.695 z m -2.8,46.33 c 6.132,0.966 18.959,-4.115 20.345,-5.625 -12.9,-2.796 -21.559,1.839 -20.345,5.625 z m -0.15,-5.64 c -0.043,-5.638 -6.395,-16.856 -7.956,-17.933 -0.555,11.996 4.804,19.453 7.956,17.933 z m 0.41,-13.68 c -0.005,-7.609 -8.47,-22.23 -10.562,-23.619 -0.834,16.161 6.332,25.828 10.562,23.619 z m -52.89,75.27 c 4.477,5.503 19.653,11.133 22.088,10.904 -8.805,-12.233 -20.07,-15.05 -22.088,-10.904 z"
           id="path42" />
      </g>
      <g
         class="B D"
         id="g43">
        <path
           d="m 553.56,334.43 c -4.823,0.551 -8.09,-11.437 -1.395,-26.785 -0.491,14.192 0.239,25.629 1.395,26.785 z m -53.37,43.66 c 7.093,0.363 20.61,9.295 21.865,11.396 -15.086,0.117 -24.021,-7.315 -21.865,-11.396 z m 0,-7.94 c 2.098,-7.967 15.006,-21.21 17.514,-22.151 -3.602,17.134 -13.74,25.535 -17.514,22.151 z m 21.27,-4.23 c -0.985,-7.822 5.665,-24.24 7.585,-25.979 2.951,16.466 -2.997,27.574 -7.585,25.979 z m 21.46,-14.54 c 4.474,-5.47 19.381,-11.328 21.712,-11.141 -8.885,12.081 -19.88,15.097 -21.712,11.141 z m 25.79,-53.26 c 0.903,-6.332 9.71,-17.881 11.606,-18.87 -1.194,13.521 -8.304,21.018 -11.606,18.87 z m -11.69,38.06 c 5.817,-4.29 22.105,-6.228 24.399,-5.504 -11.813,9.676 -23.552,9.855 -24.399,5.504 z m 10.27,-24.52 c 3.033,-5.979 15.566,-14.169 17.754,-14.399 -5.799,13.019 -15.301,17.802 -17.754,14.399 z m -1.48,-45.56 c -0.098,-7.625 7.984,-22.728 9.966,-24.24 1.166,16.139 -5.722,26.206 -9.965,24.24 z m -6.93,-25.92 c -2.322,-5.281 -1.101,-18.414 -0.093,-20.074 5.55,10.963 3.672,20.17 0.093,20.074 z M 554.65,238 c -5.274,-4.683 -10.645,-19.756 -10.411,-22.103 11.751,9.263 14.386,20.361 10.411,22.103 z m 11.63,34.54 c -0.317,0.815 2.945,-7.695 14.219,-15.308 -4.012,14.271 -11.044,18.279 -14.219,15.308 z m -34.1,89.9 c 7.006,-5.173 26.532,-7.634 29.232,-6.724 -14.253,11.748 -28.225,11.97 -29.232,6.724 z m 14.33,-20.84 c -3.735,0.222 -5.957,-9.262 -0.477,-20.924 -0.719,10.974 -0.418,19.978 0.477,20.924 z m 16.85,-74.07 c -2.708,3.576 -12.897,-1.202 -19.121,-14.611 9.327,8.57 17.642,14.742 19.121,14.611 z m -1.7,-8.06 c -3.068,2.62 -11.285,-3.583 -14.391,-16.646 6.746,9.37 13.036,16.446 14.391,16.646 z m 4.89,15.03 c -1.404,3.145 -9.939,1.328 -16.92,-7.708 10.389,5.896 14.505,8.455 16.92,7.708 z m -2.69,46.21 c -1.249,-3.764 7.365,-8.317 20.241,-5.556 -10.884,1.949 -19.567,4.476 -20.241,5.556 z m -0.4,-5.6 c -3.136,1.467 -8.445,-5.885 -7.889,-17.881 3.36,9.74 6.828,17.376 7.889,17.881 z m 0.42,-13.52 c -4.231,2.209 -11.305,-7.364 -10.471,-23.525 4.409,12.857 9.048,22.898 10.471,23.525 z m -52.69,75.07 c 2.018,-4.146 13.15,-1.378 21.976,10.888 -10.995,-6.749 -20.482,-11.305 -21.976,-10.888 z"
           id="path43" />
      </g>
      <g
         class="B C"
         id="g45">
        <path
           d="m 521.55,365.83 c 4.542,1.593 10.443,-9.417 7.54,-25.883 -2.81,13.955 -6.182,25.064 -7.54,25.883 z"
           id="path44" />
        <path
           d="m 531.83,360.59 c 4.339,-6.651 5.55,-24.554 4.579,-26.967 -9.943,13.594 -9.409,26.324 -4.579,26.967 z m -31.69,17.54 c -2.116,4.081 6.7,11.436 21.787,11.315 -11.951,-4.89 -21.238,-9.86 -21.787,-11.315 z m 0.16,-8.05 c 3.785,3.338 13.808,-4.948 17.409,-22.083 -8.127,12.423 -15.723,21.799 -17.409,22.083 z m 42.71,-18.65 c 1.807,3.918 12.696,0.916 21.646,-11.152 -10.885,6.83 -20.244,11.512 -21.646,11.152 z m 25.75,-53.33 c 3.303,2.147 10.335,-5.303 11.561,-18.803 -5.214,10.395 -10.263,18.409 -11.561,18.803 z m -11.69,38.11 c 0.895,4.348 12.454,4.183 24.312,-5.496 -12.502,3.969 -23.001,6.214 -24.312,5.496 z m 10.36,-24.64 c 2.453,3.405 11.865,-1.334 17.664,-14.352 -8.609,8.373 -16.281,14.445 -17.664,14.352 z m -1.51,-45.56 c 4.238,2.016 11.064,-7.952 9.899,-24.093 -4.079,13.13 -8.46,23.412 -9.899,24.093 z m -6.96,-25.87 c 3.542,0.093 5.414,-9.033 -0.134,-19.995 0.949,10.498 0.913,19.08 0.134,19.995 z m -4.23,-2.24 c 3.972,-1.742 1.331,-12.711 -10.422,-21.972 6.472,11.02 10.853,20.573 10.422,21.972 z m 11.61,34.67 c 3.175,2.971 10.143,-1.061 14.155,-15.33 -7.798,10.084 -12.688,15.169 -14.155,15.33 z m -34.09,89.91 c 1.005,5.247 14.913,4.993 29.132,-6.688 -14.94,4.849 -27.508,7.595 -29.132,6.688 z m 6.89,-7.73 c 3.272,-4.934 4.274,-18.274 3.564,-20.077 -7.488,10.079 -7.16,19.572 -3.564,20.077 z m 19.6,-28.61 c 3.57,-5.786 3.876,-20.908 2.919,-22.957 -8.264,11.81 -7.254,22.586 -2.919,22.957 z"
           id="path45" />
      </g>
      <path
         d="m 531.79,360.54 c -4.83,-0.638 -5.331,-13.312 4.552,-26.873 -3.626,13.856 -5.463,25.442 -4.552,26.873 z m 35.16,-68.33 c -0.943,-7.765 3.976,-20.143 6.632,-22.522 2.573,14.385 -2.66,23.949 -6.632,22.522 z m -27.84,62.49 c -3.597,-0.499 -3.901,-9.954 3.541,-20.007 -2.78,10.308 -4.214,18.935 -3.541,20.007 z m 23.36,-104.24 c -2.167,-5.881 0.029,-20.041 1.236,-21.774 5.289,12.257 2.638,22.116 -1.236,21.774 z m -58.08,120.15 c 2.474,-8.091 16.191,-21.081 18.807,-21.915 -4.335,17.421 -15.065,25.529 -18.807,21.915 z m 54.53,-41.59 c 2.658,-6.262 14.798,-15.462 16.981,-15.841 -4.945,13.638 -14.248,19.146 -16.981,15.841 z m -0.12,-3.03 c -4.333,-0.371 -5.331,-11.037 2.933,-22.846 -2.664,11.854 -3.791,21.678 -2.933,22.846 z"
         class="B D"
         id="path46" />
      <g
         class="B C"
         id="g48">
        <path
           d="m 567,294.04 c 5.158,1.842 9.078,-9.89 6.598,-23.914 -2.429,12.067 -5.377,23.211 -6.598,23.914 z"
           id="path47" />
        <path
           d="m 567.77,293.64 c 0.557,-7.527 -6.935,-23.086 -8.915,-24.707 -2.015,15.803 4.463,26.309 8.915,24.707 z m -5.22,-43.22 c 3.834,0.337 6.473,-9.435 1.187,-21.69 0.33,11.446 -0.283,20.75 -1.187,21.69 z M 504.5,370.53 c 3.787,3.621 14.369,-4.417 18.704,-21.838 -8.839,12.353 -16.968,21.612 -18.704,21.838 z m 54.64,-41.49 c 2.735,3.305 11.93,-2.158 16.872,-15.833 -8.133,9.111 -15.474,15.812 -16.872,15.833 z"
           id="path48" />
      </g>
      <path
         d="m 567.66,293.53 c -4.413,1.636 -10.851,-8.761 -8.835,-24.563 3.51,13.267 7.445,23.763 8.835,24.563 z"
         class="B D"
         id="path49" />
      <g
         fill="#ba1f3e"
         stroke="#511124"
         class="E"
         id="g57">
        <circle
           cx="564.625"
           cy="254.89999"
           r="1.085"
           id="circle49" />
        <circle
           cx="568.41498"
           cy="266.82001"
           r="1.085"
           id="circle50" />
        <circle
           cx="569.75702"
           cy="304.29999"
           r="1.277"
           id="circle51" />
        <circle
           cx="564.64697"
           cy="297.29001"
           r="1.277"
           id="circle52" />
        <circle
           cx="549.90698"
           cy="337.17001"
           r="1.277"
           id="circle53" />
        <circle
           cx="556.19702"
           cy="339.89999"
           r="1.277"
           id="circle54" />
        <circle
           cx="513.797"
           cy="372.26001"
           r="1.277"
           id="circle55" />
        <circle
           cx="506.797"
           cy="377.29001"
           r="1.277"
           id="circle56" />
        <circle
           cx="557.05402"
           cy="249.25"
           r="1.084"
           id="circle57" />
      </g>
    </g>
    <g
       id="N"
       fill="#8c959d"
       stroke="#485654">
      <path
         d="m 434.25,336.27 c -0.134,1.066 0.842,2.339 2.128,2.07 0.386,-0.078 0.624,-0.581 0.131,-0.49 -0.425,0.108 -0.879,-0.07 -1.202,-0.374 a 1.678,1.678 0 0 1 -0.396,-1.919 l -0.661,0.711 -10e-4,0.001 z"
         class="H"
         id="path58" />
      <g
         class="I"
         id="g60">
        <path
           d="m 437.24,338.34 c -1.016,1.165 -2.568,1.676 -3.427,0.834 -0.573,-0.565 -0.778,-1.206 -0.468,-1.912 l -1.121,1.231 c 0.047,0.09 0.715,1.309 1.708,1.758 1.223,0.551 2.972,-0.279 4.018,-1.564 0.739,-0.909 1.561,-2.428 0.967,-3.609 -0.365,-0.729 -1.238,-1.425 -1.967,-1.7 l -1.026,1.101 c 0.509,-0.239 1.147,-0.134 1.695,0.313 1.273,1.035 0.536,2.499 -0.378,3.546 v 0.002 z"
           id="path59" />
        <path
           d="m 437.24,338.34 c -0.324,0.383 -0.715,0.718 -1.162,0.956 -0.447,0.238 -0.957,0.39 -1.473,0.318 a 1.48,1.48 0 0 1 -0.712,-0.296 2.386,2.386 0 0 1 -0.51,-0.579 1.61,1.61 0 0 1 -0.247,-0.737 1.67,1.67 0 0 1 0.141,-0.768 l 0.122,0.08 -1.11,1.239 0.013,-0.099 c 0.276,0.479 0.623,0.938 1.042,1.3 0.21,0.179 0.442,0.335 0.694,0.437 0.252,0.102 0.524,0.141 0.797,0.134 0.549,-0.016 1.088,-0.206 1.573,-0.476 a 5.1,5.1 0 0 0 1.298,-1.042 6.17,6.17 0 0 0 0.935,-1.388 c 0.24,-0.5 0.41,-1.049 0.374,-1.595 -0.019,-0.272 -0.09,-0.535 -0.224,-0.775 -0.134,-0.24 -0.306,-0.458 -0.5,-0.655 a 4.184,4.184 0 0 0 -1.371,-0.933 l 0.093,-0.022 -1.036,1.092 -0.084,-0.116 a 1.45,1.45 0 0 1 0.754,-0.117 1.81,1.81 0 0 1 0.715,0.245 c 0.428,0.257 0.798,0.649 0.926,1.144 0.128,0.495 0.002,1.008 -0.208,1.448 -0.212,0.446 -0.511,0.842 -0.838,1.205 l -0.001,0.002 z m 0,-0.002 c 0.314,-0.375 0.595,-0.781 0.793,-1.225 0.198,-0.444 0.302,-0.942 0.167,-1.404 -0.135,-0.462 -0.493,-0.826 -0.9,-1.062 -0.407,-0.236 -0.924,-0.305 -1.346,-0.101 l -0.084,-0.116 1.017,-1.109 0.039,-0.042 0.054,0.021 a 4.17,4.17 0 0 1 1.446,0.96 c 0.205,0.207 0.39,0.435 0.536,0.697 0.146,0.262 0.231,0.557 0.251,0.852 0.042,0.598 -0.139,1.177 -0.384,1.699 a 6.39,6.39 0 0 1 -0.961,1.443 5.25,5.25 0 0 1 -1.359,1.08 c -0.509,0.279 -1.076,0.478 -1.67,0.493 -0.296,0.006 -0.596,-0.039 -0.876,-0.153 -0.28,-0.114 -0.523,-0.283 -0.744,-0.473 a 5,5 0 0 1 -1.074,-1.363 l -0.029,-0.054 0.041,-0.046 1.132,-1.222 0.123,0.08 c -0.099,0.221 -0.154,0.46 -0.141,0.7 0.013,0.24 0.092,0.474 0.217,0.682 0.125,0.208 0.288,0.402 0.473,0.557 0.185,0.155 0.416,0.253 0.657,0.294 0.487,0.082 0.992,-0.052 1.436,-0.273 0.444,-0.221 0.846,-0.541 1.185,-0.912 z"
           class="J"
           id="path60" />
      </g>
      <path
         d="m 515.24,249.25 -40.137,39.515 c -3.053,3.032 -37.963,36.379 -41.105,39.384 l -4.561,5.353 c -2.129,2.31 -4.439,5.33 -7.197,8.03 -0.491,0.619 -1.142,0.394 -1.734,0.737 -1.813,1.05 -3.697,2.87 -5.053,4.37 l -12.208,13.506 c -0.786,0.853 -0.996,1.38 -0.464,1.871 l 6.623,8.849 c 1.229,1.214 2.644,1.838 3.195,0.819 3.146,-5.447 10.962,-13.759 13.915,-20.334 1.764,-3.929 3.978,-11.058 5.558,-12.782 1.938,-2.157 7.17,-7.73 11.806,-12.705 l 0.929,-0.997 0.948,-1.019 70.526,-73.558 c -0.778,-0.775 -0.286,-0.312 -1.042,-1.04 z"
         fill="#6c301e"
         stroke="#351710"
         stroke-linejoin="round"
         class="E"
         id="path61" />
      <path
         d="m 431.89,328.11 c -1.225,0.043 -2.022,-0.707 -2.848,-1.4 1.169,0.346 2.345,0.797 3.452,0.338 z"
         class="H"
         id="path62" />
      <path
         d="m 557.05,220.1 -31.804,26.219 c -0.306,0.374 -0.624,0.267 -0.929,0 l -2.895,-2.417 c 0.004,-0.036 0.014,-0.072 0.014,-0.109 0,-0.163 -0.032,-0.319 -0.082,-0.464 l 1.42,-1.447 c 0.176,-0.221 0.12,-0.31 -0.123,-0.546 l -0.588,-0.601 c -0.228,-0.176 -0.416,-0.035 -0.642,0.178 l -1.434,1.475 c -0.734,0.03 -1.331,0.63 -1.352,1.366 l -54.938,53.872 -22.573,21.549 c -0.806,1.043 -4.29,2.908 -6.596,4.411 -0.817,0.533 -1.523,1.016 -1.816,1.543 l -1.844,5.435 c -0.582,1.194 -2.431,4.003 -2.513,4.193 l 3.865,3.728 c 1.818,-2.023 6.689,-7.112 11.116,-11.853 0.357,-0.382 0.379,-0.422 0.833,-0.97 a 13.32,13.32 0 0 0 -1.393,-1.653 34.082,34.082 0 0 0 -1.201,-1.092 c -0.245,-0.212 -0.468,-0.391 -0.628,-0.546 -0.16,-0.155 0.24,-0.444 0.423,-0.642 l 78.276,-76.595 a 1.41,1.41 0 0 0 0.396,0.055 1.39,1.39 0 0 0 0.628,-0.15 l 2.786,3.209 c 0.654,0.652 1.208,0.64 1.735,0.396 l 31.859,-28.542 z"
         fill="#b2b6ba"
         class="E"
         id="path63" />
      <path
         d="m 430.95,330.39 a 2.73,2.73 0 0 0 0.606,0.031 1.5,1.5 0 0 0 0.574,-0.163 l -0.016,0.02 0.714,-2.379 0.759,-2.365 0.006,0.027 c -0.195,-0.223 -0.436,-0.421 -0.731,-0.496 0.3,0.057 0.559,0.244 0.771,0.46 l 0.011,0.011 -0.005,0.015 -0.709,2.381 -0.754,2.366 -0.005,0.014 -0.012,0.006 a 1.413,1.413 0 0 1 -0.601,0.141 2.87,2.87 0 0 1 -0.609,-0.069 z"
         class="I J"
         id="path64" />
      <g
         fill="none"
         class="B"
         id="g65">
        <circle
           cx="438.17899"
           cy="328.13501"
           r="0.61900002"
           id="circle64" />
        <circle
           cx="434.436"
           cy="331.87701"
           r="0.61900002"
           id="circle65" />
      </g>
      <path
         d="m 440.97,322.38 a 11.783,11.783 0 0 1 -0.906,-0.775 l -0.832,-0.854 a 11.63,11.63 0 0 1 0.906,0.775 z"
         class="I J"
         id="path65" />
      <path
         d="m 502.17,259.06 3.487,3.41 0.645,-0.586 -3.487,-3.409 z"
         class="H"
         id="path66" />
    </g>
    <use
       xlink:href="#N"
       transform="matrix(-0.99877093,-0.04956449,-0.04956449,0.99877093,973.46338,23.680143)"
       id="use66" />
    <g
       class="G B"
       id="g68">
      <path
         d="m 433.91,365.36 c -7.866,-3.321 -26.89,-0.67 -29.219,0.932 16.285,8.011 29.54,4.574 29.219,-0.932 z m 89.02,3.32 c 7.866,-3.321 26.89,-0.67 29.219,0.933 -16.285,7.982 -29.54,4.573 -29.219,-0.933 z"
         class="D"
         id="path67" />
      <path
         d="m 433.76,365.48 c 0.321,5.506 -12.789,8.885 -29.075,0.903 15.295,0.932 27.793,0.378 29.075,-0.903 z m 89.32,3.29 c -0.321,5.506 12.789,8.885 29.075,0.903 -15.295,0.933 -27.793,0.408 -29.075,-0.903 z"
         class="C"
         id="path68" />
    </g>
    <g
       id="O">
      <path
         d="m 508.49,359.99 c -20.733,-30.119 -51.995,-54.611 -76.102,-67.991 3.557,-0.166 11.46,3.881 14.67,5.949 23.94,15.427 44.3,35.803 65.664,59.822 -1.258,1.246 -2.082,1.98 -3.446,3.052 l -0.786,-0.83 z"
         fill="#b2b6ba"
         stroke="#485654"
         class="E"
         id="path69" />
      <path
         d="m 510.55,359.75 -1.451,1.394 c -23.01,-29.619 -55.093,-57.945 -76.668,-69.13 30.08,13.855 55.391,41.77 78.033,67.65 l 0.085,0.086 z"
         fill="#8c959d"
         id="path70" />
      <path
         d="m 510.56,359.75 -1.447,1.397 -0.004,0.003 -0.003,-0.004 c -5.326,-6.823 -10.975,-13.389 -16.864,-19.73 -5.889,-6.341 -12.012,-12.466 -18.368,-18.337 -6.356,-5.871 -12.943,-11.495 -19.81,-16.76 -3.435,-2.63 -6.941,-5.166 -10.542,-7.563 -3.601,-2.397 -7.297,-4.652 -11.133,-6.644 l 0.096,-0.196 c 7.892,3.644 15.339,8.195 22.375,13.281 7.036,5.086 13.677,10.715 20.029,16.631 6.352,5.916 12.422,12.135 18.328,18.497 5.906,6.362 11.629,12.892 17.343,19.425 z m 0,0 -17.42,-19.353 c -5.916,-6.35 -11.991,-12.556 -18.349,-18.463 -6.358,-5.907 -12.999,-11.515 -20.037,-16.591 -7.036,-5.07 -14.478,-9.604 -22.36,-13.229 l 0.096,-0.196 c 3.845,2 7.541,4.27 11.144,6.67 3.603,2.4 7.108,4.948 10.542,7.585 6.864,5.278 13.444,10.918 19.798,16.798 a 336.06,336.06 0 0 1 18.35,18.369 c 5.868,6.364 11.489,12.957 16.789,19.8 h -0.006 l 1.454,-1.39 z"
         class="J"
         id="path71" />
      <g
         fill="#fab81c"
         id="g79">
        <g
           stroke="#6c301e"
           id="g78">
          <path
             d="m 517.5,355.07 c -1.974,0.511 -3.726,1.253 -5.259,2.226 -0.227,1.397 -1.952,2.958 -3.586,3.312 l -0.592,-0.771 a 0.129,0.129 0 0 0 -0.169,-0.038 l -0.574,0.339 c -0.609,-0.102 -1.337,0.198 -1.66,0.976 -0.378,0.969 0.385,2.248 1.224,3.084 0.924,0.729 1.387,1.069 2.457,0.92 1.084,-0.224 1.681,-1.213 1.926,-1.528 3.72,4.503 6.517,6.933 11.229,10.64 2.098,0.017 3.225,-1.306 2.52,-2.803 -0.232,-0.502 -0.841,-0.835 -1.332,-0.652 a 1.055,1.055 0 0 0 0,-0.451 c 2.462,-2.264 3.513,-5.088 0.915,-9.873 -2.224,-4.029 -4.712,-5.397 -7.087,-5.38 h -0.013 z m 6.246,4.531 c 0.438,0.741 0.692,1.38 1.024,2.053 1.483,2.999 0.196,6.603 -2.334,7.707 -0.123,-0.005 -0.085,-0.021 -0.213,0.022 0.413,-0.687 -0.827,-2.154 -1.461,-1.639 0.3,-0.759 -0.669,-2.019 -1.462,-1.694 0.415,-0.706 -0.533,-1.906 -1.42,-1.516 0.458,-0.766 -0.324,-1.865 -1.242,-1.666 0.277,-0.817 -0.418,-1.753 -1.352,-1.598 0.079,-0.723 -0.157,-1.12 -0.507,-1.449 1.113,-0.847 2.347,-2.151 3.438,-2.738 2.722,-1.179 4.403,1.072 5.527,2.517 h 0.002 z"
             class="E"
             id="path72" />
          <g
             class="H"
             id="g77">
            <path
               d="m 524.89,362.77 c -0.515,-0.253 -0.756,-0.76 -0.587,-1.105 0.169,-0.345 0.702,-0.432 1.217,-0.178 0.515,0.254 0.801,0.744 0.633,1.088 -0.168,0.344 -0.747,0.45 -1.264,0.196 z"
               id="path73" />
            <path
               d="m 524.59,361.75 c -0.515,-0.253 -0.756,-0.76 -0.587,-1.104 0.169,-0.344 0.702,-0.433 1.217,-0.178 0.515,0.255 0.801,0.744 0.633,1.088 -0.168,0.344 -0.747,0.449 -1.264,0.195 v -10e-4 z"
               id="path74" />
            <path
               d="m 523.97,360.62 c -0.515,-0.253 -0.756,-0.76 -0.587,-1.105 0.169,-0.345 0.702,-0.433 1.217,-0.178 0.515,0.255 0.802,0.744 0.633,1.088 -0.169,0.344 -0.747,0.45 -1.264,0.196 z"
               id="path75" />
            <path
               d="m 523.19,359.6 c -0.516,-0.253 -0.756,-0.76 -0.587,-1.105 0.169,-0.345 0.702,-0.432 1.217,-0.178 0.515,0.254 0.801,0.744 0.633,1.088 -0.168,0.344 -0.747,0.449 -1.263,0.196 z"
               id="path76" />
            <path
               d="m 522.16,358.61 c -0.515,-0.253 -0.756,-0.76 -0.587,-1.105 0.023,-0.046 0.007,-0.137 0.055,-0.114 0.21,0.108 0.644,0.187 0.596,-0.137 -0.064,-0.114 -0.146,-0.227 -0.069,-0.142 0.149,0.004 0.464,0.134 0.636,0.222 0.515,0.253 0.801,0.744 0.633,1.088 -0.168,0.344 -0.747,0.45 -1.264,0.196 v -0.007 z"
               id="path77" />
          </g>
        </g>
        <path
           d="m 511.27,363.6 c 0.682,-1.774 2.047,-3.414 3.508,-3.806 m -3.278,4.056 c 1.263,0.262 3.309,-1.243 3.806,-2.588 m -2.616,4.038 c 1.656,0.381 3.291,-1.217 3.934,-2.409 m -2.444,3.989 c 1.957,0.064 3.164,-1.326 3.739,-2.39 m -2.229,3.92 c 1.661,0.011 3.172,-1.36 3.646,-2.424 m -2.186,3.824 c 1.808,-0.073 3.084,-0.895 3.62,-2.075 m -1.98,3.495 c 1.661,0.096 3.003,-0.896 3.443,-1.862 m -1.663,3.312 c 1.661,0.096 2.695,-0.93 3.136,-1.897"
           id="path78" />
      </g>
      <g
         fill="#6c301e"
         id="g80">
        <path
           d="m 511.27,363.6 a 7.112,7.112 0 0 1 1.309,-2.329 c 0.295,-0.338 0.618,-0.655 0.986,-0.915 0.368,-0.26 0.776,-0.466 1.213,-0.562 -0.424,0.14 -0.813,0.362 -1.163,0.63 a 5.98,5.98 0 0 0 -0.952,0.918 c -0.577,0.673 -1.028,1.446 -1.392,2.259 z m 0.23,0.25 c 0.405,0.057 0.809,-0.045 1.18,-0.192 a 4.88,4.88 0 0 0 1.048,-0.593 c 0.329,-0.233 0.63,-0.505 0.902,-0.802 0.272,-0.297 0.512,-0.628 0.676,-1.001 -0.123,0.39 -0.351,0.742 -0.613,1.056 -0.262,0.314 -0.572,0.59 -0.901,0.834 -0.335,0.236 -0.694,0.444 -1.083,0.583 -0.389,0.139 -0.81,0.218 -1.209,0.115 z m 1.19,1.45 a 2.55,2.55 0 0 0 1.203,-0.086 3.785,3.785 0 0 0 1.076,-0.548 c 0.333,-0.231 0.634,-0.506 0.912,-0.804 a 6.16,6.16 0 0 0 0.742,-0.971 4.68,4.68 0 0 1 -0.68,1.027 5.21,5.21 0 0 1 -0.912,0.837 c -0.341,0.234 -0.713,0.433 -1.115,0.539 -0.402,0.106 -0.832,0.122 -1.227,0.006 z m 1.49,1.58 c 0.391,-0.012 0.778,-0.065 1.146,-0.183 0.368,-0.118 0.718,-0.286 1.033,-0.507 a 4.66,4.66 0 0 0 0.865,-0.765 6.62,6.62 0 0 0 0.695,-0.936 4.55,4.55 0 0 1 -1.498,1.791 3.63,3.63 0 0 1 -1.071,0.497 3.38,3.38 0 0 1 -1.17,0.103 z m 1.51,1.53 c 0.767,-0.042 1.493,-0.332 2.113,-0.765 a 5.16,5.16 0 0 0 0.861,-0.739 4.23,4.23 0 0 0 0.671,-0.92 3.349,3.349 0 0 1 -0.609,0.976 4.8,4.8 0 0 1 -0.862,0.772 c -0.321,0.215 -0.667,0.398 -1.035,0.518 -0.368,0.12 -0.756,0.182 -1.139,0.158 z m 1.46,1.4 a 7.09,7.09 0 0 0 1.078,-0.187 4.65,4.65 0 0 0 1.013,-0.388 3.66,3.66 0 0 0 0.878,-0.629 3.51,3.51 0 0 0 0.651,-0.87 2.902,2.902 0 0 1 -0.591,0.93 3.49,3.49 0 0 1 -0.888,0.666 4.51,4.51 0 0 1 -2.141,0.478 z m 1.64,1.42 a 4.54,4.54 0 0 0 1.019,-0.12 4,4 0 0 0 0.953,-0.36 c 0.303,-0.154 0.583,-0.353 0.834,-0.583 0.251,-0.23 0.471,-0.496 0.636,-0.8 a 2.522,2.522 0 0 1 -0.578,0.861 3.61,3.61 0 0 1 -0.842,0.619 c -0.312,0.158 -0.643,0.279 -0.986,0.344 -0.343,0.065 -0.693,0.08 -1.036,0.039 z m 1.78,1.45 a 3.91,3.91 0 0 0 0.961,-0.12 3.12,3.12 0 0 0 0.88,-0.375 c 0.275,-0.163 0.52,-0.375 0.737,-0.612 a 4.03,4.03 0 0 0 0.558,-0.791 3.054,3.054 0 0 1 -1.238,1.495 2.97,2.97 0 0 1 -0.918,0.363 3.02,3.02 0 0 1 -0.979,0.038 z"
           id="path79" />
      </g>
    </g>
    <use
       xlink:href="#O"
       transform="matrix(-0.99823154,-0.05944575,-0.05944575,0.99823154,979.15314,28.308344)"
       id="use80" />
    <g
       class="G B"
       id="g81">
      <path
         d="m 409.24,240.02 c 7.211,-2.367 18.73,-15.453 19.478,-17.917 -15.593,4.154 -22.757,14.343 -19.478,17.917 z m 145.74,4.7 c -1.702,-7.045 -13.279,-19.011 -15.568,-19.911 2.763,15.161 11.916,22.759 15.568,19.911 z"
         class="C"
         id="path80" />
      <path
         d="m 409.24,240.02 c -3.325,-3.574 3.791,-13.666 19.339,-17.82 -10.957,8.403 -19.199,16.178 -19.339,17.82 z m 145.74,4.7 c -3.656,2.892 -12.72,-4.654 -15.486,-19.77 7.163,11.072 13.934,19.511 15.486,19.77 z"
         class="D"
         id="path81" />
    </g>
    <g
       stroke="#999270"
       id="g93">
      <g
         class="B"
         id="g91">
        <path
           d="m 452.21,318.1 c 0,0 -6.158,0.662 -7.884,-7.834 -1.846,-9.086 5.306,-10.052 5.306,-10.052 0,0 8.103,-0.78 13.15,-0.909 l 2.24,17.953 z"
           fill="url(#B)"
           id="path82"
           style="fill:url(#B)" />
        <path
           d="m 453.02,315.36 c 0,0 -3.985,0.762 -4.807,-5.553 -0.583,-4.473 2.185,-5.107 2.185,-5.107 l 9.236,1.564 0.05,8.241 -6.664,0.856 z"
           fill="url(#C)"
           id="path83"
           style="fill:url(#C)" />
        <path
           d="m 450.4,304.7 8.989,-0.83 1.281,5.711 -7.101,0.445 c 0,0 -0.487,-5.155 -3.168,-5.326 z"
           fill="url(#D)"
           id="path84"
           style="fill:url(#D)" />
        <path
           d="m 449.16,300.36 c 0,0 7.575,-1.857 8.517,6.489 0.246,2.181 -0.941,7.167 -4.656,8.514 l 13.874,-1.457 -1.256,-15.007 -4.674,0.39 c 0,0 -9.923,0.341 -11.805,1.07 z"
           fill="url(#E)"
           id="path85"
           style="fill:url(#E)" />
        <path
           d="m 452.2,318.1 c 0.047,0 51.903,-3.491 57.217,-3.274 15.743,-8.638 -0.076,-42.559 -13.342,-61.532 1.515,-4.276 -29.858,-13.892 -44.047,-13.024 l -5.154,0.354 c -7.696,0.816 -7.775,10.694 -4.637,16.923 3.045,6.043 30.315,55.126 11.14,60.317 z"
           fill="#f9f0aa"
           id="path86" />
        <path
           d="m 507.79,273.34 a 148.36,148.36 0 0 0 -11.718,-20.046 c 1.514,-4.276 -29.859,-13.892 -44.047,-13.024 l -5.154,0.354 c -7.696,0.816 -7.775,10.694 -4.637,16.923 0.956,1.898 4.301,8.039 7.846,15.733"
           fill="url(#I)"
           id="path87"
           style="fill:url(#I)" />
        <path
           d="m 455.04,284.95 c 5.555,14.65 8.664,30.117 -1.641,32.907 l -1.177,0.236 c 0.047,0 51.903,-3.491 57.216,-3.274 8.538,-4.684 7.793,-16.804 3.207,-29.943"
           fill="url(#J)"
           id="path88"
           style="fill:url(#J)" />
        <path
           d="m 447.4,243.49 c -3.705,0 -4.656,3.562 -4.605,5.817 0.134,5.909 4.605,6.192 4.605,6.192 l 5.964,-0.332 2.858,-12.163 z"
           fill="url(#F)"
           id="path89"
           style="fill:url(#F)" />
        <path
           d="m 447.4,243.53 8.822,-0.486 0.908,9.086 -7.696,0.338 c 0,0 2.491,-7.275 -2.034,-8.937 z"
           fill="url(#K)"
           id="path90"
           style="fill:url(#K)" />
        <path
           d="m 496.12,253.29 c 6.685,-1.074 6.595,-10.069 2.026,-13.673 -15.498,-0.569 -35.895,-0.143 -50.63,0.959 1.676,-0.048 6.337,0.376 6.856,6.511 0.242,2.863 -1.165,5.491 -3.061,6.986 -1.853,1.462 -3.906,1.462 -3.906,1.462 0.248,0.095 2.162,0.007 3.598,-0.087 0.739,-0.048 2.552,-0.264 3.055,-0.331 21.012,-2.762 41.987,-1.823 41.987,-1.823 l 0.08,0.003 z"
           fill="url(#L)"
           id="path91"
           style="fill:url(#L)" />
      </g>
      <g
         fill="#b07e09"
         class="I"
         id="g92">
        <path
           d="m 458.47,267.42 c -0.143,-0.331 -0.323,-0.749 -0.729,-0.805 -0.25,0.015 -0.646,-0.052 -0.568,-0.392 0.235,-0.113 0.534,-0.041 0.794,-0.065 0.562,0.01 1.113,-0.114 1.671,-0.148 0.337,0.092 0.261,0.538 -0.105,0.464 -0.408,0.092 -0.175,0.563 -0.075,0.809 l 1.328,3.104 c 0.126,0.304 0.38,0.572 0.722,0.606 0.361,0.035 0.756,0.045 1.09,-0.116 0.311,-0.199 0.242,-0.624 0.2,-0.937 -0.125,-0.363 0.539,-0.282 0.494,0.044 l 0.448,1.268 c -0.022,0.2 -0.276,0.144 -0.421,0.169 l -2.978,0.223 c -0.319,-0.017 -0.796,0.281 -0.991,-0.096 -0.119,-0.386 0.511,-0.169 0.596,-0.463 -0.003,-0.327 -0.195,-0.615 -0.307,-0.917 l -1.169,-2.749 z m 4.83,-0.34 c -0.14,-0.32 -0.302,-0.72 -0.687,-0.796 -0.247,-0.023 -0.653,-0.017 -0.616,-0.374 0.156,-0.162 0.456,-0.058 0.67,-0.092 0.591,0.019 1.174,-0.09 1.76,-0.144 0.29,-0.028 0.398,0.518 0.026,0.444 -0.358,0.012 -0.384,0.404 -0.233,0.651 l 1.438,3.415 c 0.105,0.245 0.24,0.548 0.54,0.586 0.252,0.049 0.648,-0.029 0.704,0.316 -0.04,0.267 -0.433,0.119 -0.629,0.161 -0.522,-0.036 -1.043,0.031 -1.556,0.119 -0.226,0.064 -0.55,0.027 -0.559,-0.27 0.053,-0.272 0.584,-0.068 0.61,-0.401 -0.04,-0.326 -0.216,-0.616 -0.33,-0.92 l -1.137,-2.694 z m 4.46,0.71 c 0.091,0.227 0.404,0.064 0.586,0.075 0.263,-0.026 0.543,-0.215 0.519,-0.509 -0.043,-0.451 -0.263,-0.908 -0.632,-1.183 -0.341,-0.24 -0.779,-0.213 -1.172,-0.163 -0.023,0.155 0.098,0.304 0.145,0.453 l 0.554,1.326 z m 0.668,1.596 c 0.163,0.349 0.279,0.745 0.565,1.017 0.244,0.171 0.569,0.093 0.844,0.065 0.302,-0.02 0.479,-0.331 0.386,-0.608 -0.142,-0.635 -0.554,-1.301 -1.238,-1.437 a 2.433,2.433 0 0 0 -0.916,-10e-4 c -0.023,0.144 0.092,0.289 0.136,0.429 l 0.224,0.535 z m -2.035,-2.372 c -0.158,-0.347 -0.309,-0.767 -0.688,-0.925 -0.244,-0.081 -0.643,0.03 -0.696,-0.323 0.065,-0.303 0.563,-0.09 0.802,-0.16 0.863,-0.022 1.743,-0.264 2.593,-0.004 0.734,0.182 1.392,0.81 1.45,1.587 0.024,0.377 -0.261,0.684 -0.581,0.838 -0.039,-0.136 0.367,0.061 0.506,0.082 0.583,0.186 1.119,0.576 1.378,1.143 0.201,0.398 0.356,0.931 0.039,1.315 -0.362,0.395 -0.939,0.413 -1.438,0.437 -0.75,0.02 -1.505,0.026 -2.244,0.173 -0.267,0.046 -0.458,-0.482 -0.09,-0.449 0.37,-0.014 0.403,-0.414 0.244,-0.668 l -1.276,-3.046 z m 7.417,-1.904 c 0.327,-0.054 0.358,0.316 0.458,0.532 0.098,0.284 0.276,0.542 0.348,0.831 -0.277,0.276 -0.502,-0.145 -0.625,-0.359 -0.144,-0.247 -0.383,-0.476 -0.69,-0.451 a 8.31,8.31 0 0 0 -1.219,0.072 c -0.145,0.158 0.065,0.393 0.112,0.577 l 0.562,1.34 c 0.271,-0.022 0.62,0.015 0.813,-0.208 0.075,-0.229 -0.27,-0.747 0.21,-0.64 0.297,0.17 0.263,0.602 0.416,0.882 0.126,0.388 0.384,0.724 0.492,1.115 -0.263,0.289 -0.524,-0.13 -0.619,-0.363 -0.188,-0.347 -0.625,-0.306 -0.959,-0.296 -0.241,-0.051 -0.075,0.172 -0.041,0.283 0.216,0.493 0.383,1.011 0.659,1.475 0.207,0.343 0.651,0.292 0.994,0.28 0.328,-0.018 0.732,-0.025 0.926,-0.338 0.216,-0.252 -0.274,-0.751 0.131,-0.831 0.347,-0.031 0.337,0.376 0.429,0.606 0.073,0.282 0.185,0.552 0.285,0.824 -0.026,0.199 -0.278,0.14 -0.424,0.163 l -3.059,0.19 c -0.3,0.001 -0.805,0.239 -0.902,-0.198 0.026,-0.288 0.646,-0.135 0.554,-0.544 -0.073,-0.347 -0.249,-0.663 -0.373,-0.994 l -1.123,-2.692 c -0.141,-0.296 -0.368,-0.62 -0.73,-0.628 -0.238,0.046 -0.601,-0.129 -0.462,-0.407 0.346,-0.067 0.711,-0.02 1.064,-0.057 l 2.771,-0.164 z m 2.31,1.32 c -0.154,-0.348 -0.302,-0.769 -0.679,-0.93 -0.257,-0.077 -0.726,0.013 -0.697,-0.394 0.246,-0.19 0.659,-0.031 0.968,-0.09 0.801,-0.011 1.62,-0.238 2.407,0 0.825,0.23 1.515,0.972 1.573,1.841 0.027,0.416 -0.307,0.752 -0.685,0.863 -0.297,0.015 0.229,0.101 0.31,0.196 0.633,0.304 1.069,0.877 1.406,1.474 0.076,0.225 0.519,0.696 0.587,0.247 -0.027,-0.49 0.637,-0.075 0.487,0.263 0.002,0.357 -0.351,0.587 -0.681,0.583 -0.465,0.037 -0.904,-0.231 -1.138,-0.624 -0.421,-0.553 -0.709,-1.224 -1.265,-1.663 -0.231,-0.166 -0.559,-0.269 -0.83,-0.152 -0.058,0.139 0.068,0.28 0.104,0.417 0.18,0.408 0.305,0.845 0.547,1.223 0.201,0.309 0.593,0.358 0.93,0.356 0.36,0.089 0.259,0.575 -0.124,0.433 -0.585,-0.001 -1.175,-0.044 -1.753,0.076 -0.269,0.126 -0.865,0.01 -0.649,-0.37 0.283,-0.016 0.675,-0.172 0.48,-0.524 l -1.045,-2.598 -0.255,-0.627 z m 1.404,0.893 c 0.134,0.326 0.595,0.145 0.861,0.114 0.358,-0.079 0.348,-0.508 0.234,-0.777 -0.163,-0.469 -0.373,-1.029 -0.89,-1.195 -0.262,-0.035 -0.845,-0.202 -0.885,0.152 l 0.63,1.583 z m 7.216,1.717 c 0.109,0.259 0.213,0.61 0.538,0.656 0.255,0.059 0.664,-0.024 0.716,0.33 -0.049,0.265 -0.439,0.105 -0.636,0.143 -0.538,-0.05 -1.075,0.012 -1.608,0.084 -0.231,0.071 -0.551,-0.03 -0.518,-0.319 0.125,-0.21 0.647,-0.037 0.619,-0.402 -0.086,-0.4 -0.276,-0.768 -0.416,-1.151 l -1.148,-2.885 c -0.094,-0.305 -0.443,-0.297 -0.702,-0.28 -0.273,0.002 -0.683,0.061 -0.683,0.416 -0.087,0.23 0.217,0.616 -0.044,0.735 -0.301,0.064 -0.362,-0.275 -0.426,-0.487 -0.098,-0.321 -0.26,-0.618 -0.385,-0.926 0.036,-0.214 0.321,-0.176 0.493,-0.194 l 4.131,-0.174 c 0.303,-0.047 0.502,0.192 0.517,0.477 0.108,0.337 0.27,0.653 0.414,0.975 -0.113,0.33 -0.508,0.047 -0.553,-0.196 -0.199,-0.349 -0.509,-0.693 -0.939,-0.711 -0.257,0.012 -0.642,-0.086 -0.815,0.145 0.007,0.24 0.145,0.453 0.22,0.678 l 1.226,3.086 z m 3.73,-0.91 c -0.192,10e-4 -0.097,0.242 -0.118,0.367 0.012,0.283 -0.017,0.569 0.03,0.848 0.132,0.31 0.527,0.234 0.785,0.318 0.23,0.131 0.173,0.501 -0.136,0.388 -0.423,-0.026 -0.851,-0.069 -1.268,0.033 -0.248,0.133 -0.713,-0.123 -0.493,-0.392 0.202,-0.035 0.449,-0.101 0.495,-0.335 0.072,-0.414 0.034,-0.837 0.047,-1.256 l 0.022,-3.714 c 0.12,-0.279 0.514,-0.044 0.602,0.166 l 3.593,4.535 c 0.192,0.233 0.462,0.4 0.768,0.418 0.26,0.002 0.402,0.532 0.027,0.427 -0.511,-0.029 -1.027,-0.063 -1.535,0.023 -0.228,0.006 -0.492,0.111 -0.696,-0.022 -0.243,-0.179 -0.07,-0.436 0.196,-0.403 0.352,-0.1 -0.005,-0.477 -0.117,-0.652 l -0.589,-0.752 c -0.17,-0.084 -0.373,-0.022 -0.558,-0.031 l -1.055,0.035 z m 1.173,-0.512 c 0.182,0.011 -0.057,-0.155 -0.087,-0.235 l -1.273,-1.663 c 0.084,-0.013 0.017,0.175 0.039,0.256 l -0.002,1.684 1.324,-0.041 z m 3.057,-1.848 c -0.149,-0.398 -0.35,-0.887 -0.818,-0.981 -0.243,0.044 -0.702,-0.177 -0.453,-0.439 l 1.653,-0.017 c 0.698,-0.06 1.416,-0.043 2.08,0.205 1.46,0.492 2.672,1.778 2.914,3.321 0.107,0.604 -0.079,1.303 -0.625,1.641 -0.735,0.467 -1.642,0.38 -2.47,0.333 -0.47,-0.022 -0.938,0.04 -1.404,0.086 -0.304,-0.041 -0.337,-0.512 0.023,-0.456 0.372,-0.012 0.365,-0.422 0.228,-0.668 l -1.129,-3.025 z m 1.97,2.494 c 0.149,0.34 0.239,0.755 0.563,0.976 0.302,0.143 0.658,0.116 0.982,0.08 0.439,-0.059 0.712,-0.493 0.716,-0.912 0.027,-0.753 -0.282,-1.473 -0.632,-2.124 -0.374,-0.701 -1.056,-1.233 -1.844,-1.372 -0.325,-0.053 -0.665,-0.103 -0.991,-0.049 -0.071,0.123 0.059,0.272 0.086,0.401 l 1.119,2.999 z m -21.11,12.416 c 0.116,0.35 0.44,0.6 0.805,0.634 0.257,0.045 0.699,-0.016 0.713,0.354 -0.138,0.234 -0.53,0.071 -0.769,0.123 a 8.636,8.636 0 0 0 -1.55,0.092 c -0.277,0.012 -0.567,0.126 -0.837,0.048 -0.245,-0.116 -0.194,-0.47 0.107,-0.426 0.247,-0.058 0.604,-0.135 0.622,-0.449 -0.023,-0.285 -0.182,-0.535 -0.278,-0.799 l -1.152,-2.751 c -0.086,-0.324 -0.446,-0.333 -0.715,-0.284 -0.248,0.047 -0.616,0.124 -0.677,-0.22 0.03,-0.292 0.497,-0.238 0.702,-0.39 l 0.939,-0.356 c 0.216,-0.047 0.325,0.151 0.379,0.322 l 1.711,4.103 z m 0.75,-4.51 c 0.682,-0.026 1.367,0.077 2.046,0.002 0.301,-0.029 0.095,-0.497 0.384,-0.47 0.371,0.017 0.312,0.478 0.335,0.739 a 0.52,0.52 0 0 1 -0.57,0.583 c -0.533,0.029 -1.065,-0.049 -1.598,-0.021 0.121,0.413 0.288,0.81 0.445,1.209 0.027,-0.134 0.46,-0.155 0.639,-0.181 1.064,-0.047 2.168,0.561 2.614,1.543 0.215,0.477 0.327,1.101 -0.029,1.541 -0.387,0.456 -1.03,0.549 -1.596,0.554 -0.489,-0.006 -1.064,-0.112 -1.353,-0.549 -0.167,-0.215 -0.138,-0.68 0.221,-0.641 0.305,0.004 0.659,0.264 0.609,0.596 0.163,0.222 0.525,0.144 0.775,0.14 0.299,-0.01 0.584,-0.242 0.569,-0.558 0.007,-0.486 -0.185,-0.962 -0.454,-1.36 -0.292,-0.423 -0.783,-0.707 -1.302,-0.696 -0.294,-0.049 -0.548,0.147 -0.827,0.147 -0.284,-0.038 -0.334,-0.366 -0.435,-0.581 l -0.65,-1.817 c -0.019,-0.106 0.075,-0.192 0.177,-0.179 z m 6.85,1.02 c -0.16,-0.395 -0.37,-0.882 -0.841,-0.968 -0.242,0.057 -0.703,-0.17 -0.462,-0.43 l 1.673,-0.068 c 0.704,-0.085 1.432,-0.071 2.105,0.176 1.486,0.494 2.709,1.818 2.934,3.387 0.089,0.584 -0.114,1.238 -0.632,1.563 -0.718,0.466 -1.608,0.396 -2.424,0.377 -0.453,-0.005 -0.901,0.07 -1.348,0.128 -0.301,-0.034 -0.353,-0.504 0.008,-0.461 0.373,-0.027 0.343,-0.44 0.203,-0.682 l -1.216,-3.023 z m 2.031,2.461 c 0.158,0.339 0.259,0.753 0.589,0.97 0.302,0.136 0.654,0.098 0.974,0.053 0.439,-0.075 0.687,-0.525 0.678,-0.942 0.003,-0.761 -0.326,-1.479 -0.695,-2.128 -0.389,-0.691 -1.077,-1.214 -1.869,-1.333 -0.322,-0.044 -0.661,-0.084 -0.982,-0.021 -0.065,0.126 0.068,0.272 0.099,0.402 l 1.205,2.998 z m 6.439,-4.261 c 0.312,-0.053 0.353,0.293 0.437,0.504 0.101,0.283 0.245,0.549 0.346,0.832 -0.189,0.311 -0.507,-0.057 -0.588,-0.283 -0.145,-0.248 -0.356,-0.519 -0.673,-0.512 a 9.608,9.608 0 0 0 -1.235,0.034 c -0.225,0.101 0.015,0.389 0.054,0.567 l 0.543,1.358 c 0.265,-0.009 0.573,0.012 0.798,-0.152 0.175,-0.213 -0.268,-0.737 0.212,-0.68 0.327,0.119 0.277,0.569 0.415,0.838 0.125,0.397 0.356,0.748 0.491,1.14 -0.175,0.331 -0.543,-0.056 -0.593,-0.302 -0.141,-0.32 -0.521,-0.362 -0.828,-0.351 -0.205,-0.036 -0.37,0.01 -0.226,0.216 0.215,0.515 0.379,1.055 0.655,1.542 0.203,0.347 0.65,0.302 0.994,0.298 0.33,-0.012 0.736,-0.008 0.94,-0.317 0.207,-0.243 -0.196,-0.657 0.082,-0.811 0.338,-0.096 0.416,0.278 0.466,0.522 0.075,0.307 0.184,0.605 0.29,0.901 -0.031,0.197 -0.28,0.133 -0.427,0.153 l -3.089,0.127 c -0.287,-0.019 -0.691,0.206 -0.87,-0.114 -0.184,-0.396 0.503,-0.18 0.53,-0.525 0.021,-0.305 -0.159,-0.573 -0.251,-0.855 l -1.147,-2.899 c -0.136,-0.313 -0.361,-0.662 -0.741,-0.679 -0.237,0.041 -0.603,-0.136 -0.456,-0.413 0.356,-0.059 0.728,-0.005 1.09,-0.035 l 2.779,-0.106 z m -27.28,14.28 c 0.149,0.487 0.668,0.686 1.111,0.818 0.77,0.261 1.6,0.519 2.147,1.158 0.307,0.372 0.519,0.854 0.496,1.342 -0.04,0.496 -0.465,0.869 -0.925,0.991 a 2.494,2.494 0 0 1 -1.735,-0.097 c -0.266,-0.115 -0.165,0.467 -0.496,0.27 -0.238,-0.182 -0.163,-0.56 -0.296,-0.815 a 9.306,9.306 0 0 0 -0.385,-0.964 c 0.012,-0.326 0.48,-0.156 0.495,0.098 0.328,0.594 0.924,1.12 1.633,1.126 0.358,0.011 0.807,-0.18 0.838,-0.584 0.007,-0.535 -0.419,-0.954 -0.865,-1.183 -0.639,-0.332 -1.375,-0.437 -1.994,-0.812 -0.555,-0.334 -0.946,-0.954 -0.947,-1.608 0.012,-0.437 0.37,-0.778 0.767,-0.903 a 2.63,2.63 0 0 1 1.568,-0.053 c 0.238,0.125 0.34,-0.274 0.595,-0.076 0.114,0.196 0.085,0.461 0.194,0.672 0.081,0.286 0.271,0.537 0.334,0.825 -0.159,0.244 -0.466,0.014 -0.517,-0.203 -0.221,-0.366 -0.516,-0.773 -0.983,-0.805 -0.346,-0.026 -0.786,-0.029 -1.007,0.288 a 0.586,0.586 0 0 0 -0.029,0.515 z m 6.69,-1.65 c 0.327,-0.059 0.336,0.314 0.418,0.528 0.081,0.272 0.209,0.527 0.289,0.799 -0.14,0.287 -0.493,0.025 -0.536,-0.211 -0.137,-0.26 -0.338,-0.572 -0.673,-0.552 a 9.65,9.65 0 0 0 -1.225,0.075 c -0.227,0.101 -0.007,0.391 0.025,0.572 l 0.467,1.355 c 0.267,-0.018 0.576,-0.01 0.799,-0.18 0.195,-0.201 -0.192,-0.604 0.139,-0.696 0.374,-0.047 0.345,0.441 0.435,0.684 0.097,0.45 0.335,0.849 0.468,1.286 -0.145,0.317 -0.532,0.01 -0.551,-0.248 -0.112,-0.329 -0.483,-0.398 -0.788,-0.368 -0.179,-0.011 -0.422,-0.013 -0.276,0.211 l 0.55,1.512 c 0.121,0.284 0.451,0.346 0.727,0.322 0.393,-0.027 0.847,0.015 1.153,-0.281 0.245,-0.234 0.041,-0.585 0.095,-0.853 0.249,-0.199 0.526,0.068 0.5,0.342 a 9.7,9.7 0 0 0 0.267,1.021 c -0.042,0.201 -0.292,0.144 -0.445,0.17 l -3.053,0.228 c -0.28,-0.014 -0.684,0.235 -0.855,-0.087 -0.158,-0.383 0.457,-0.207 0.537,-0.502 0.08,-0.295 -0.098,-0.574 -0.172,-0.854 l -1.003,-2.941 c -0.116,-0.307 -0.326,-0.66 -0.698,-0.663 -0.238,0.055 -0.592,-0.132 -0.43,-0.402 0.346,-0.072 0.711,-0.028 1.064,-0.07 l 2.774,-0.198 z m 4.18,4.14 c 0.091,0.304 0.27,0.638 0.612,0.7 0.249,0.089 0.664,-0.073 0.732,0.286 -0.012,0.328 -0.492,0.15 -0.712,0.204 a 6.28,6.28 0 0 0 -1.522,0.105 c -0.218,0.031 -0.545,0.108 -0.608,-0.189 -0.055,-0.336 0.463,-0.147 0.573,-0.399 0.08,-0.259 -0.066,-0.516 -0.136,-0.765 l -1.009,-3.016 c -0.114,-0.292 -0.27,-0.674 -0.629,-0.708 -0.232,-0.01 -0.629,-0.031 -0.558,-0.368 0.175,-0.166 0.486,-0.052 0.712,-0.082 0.731,0.016 1.45,-0.192 2.18,-0.144 0.751,0.029 1.482,0.508 1.735,1.228 0.165,0.405 0.22,0.916 -0.079,1.276 -0.387,0.455 -1.022,0.548 -1.58,0.622 -0.212,-0.028 -0.04,0.192 -0.027,0.302 l 0.316,0.949 z m -0.571,-1.72 c 0.205,0.029 0.461,-0.025 0.676,-0.083 0.314,-0.063 0.478,-0.399 0.396,-0.696 -0.088,-0.422 -0.228,-0.865 -0.544,-1.174 -0.304,-0.253 -0.746,-0.261 -1.112,-0.163 -0.14,0.122 0.002,0.319 0.036,0.47 l 0.548,1.647 z m 6.151,1.43 c 0.09,0.255 0.17,0.611 0.492,0.652 0.246,0.055 0.661,-0.036 0.691,0.32 -0.061,0.265 -0.441,0.115 -0.643,0.156 -0.539,-0.041 -1.075,0.031 -1.606,0.112 -0.226,0.078 -0.548,-0.022 -0.494,-0.312 0.138,-0.213 0.65,-0.05 0.644,-0.415 -0.055,-0.39 -0.218,-0.756 -0.329,-1.133 l -0.951,-2.901 c -0.076,-0.31 -0.429,-0.29 -0.679,-0.269 -0.25,0.021 -0.62,0.047 -0.693,0.35 -0.083,0.254 0.04,0.533 -0.015,0.778 -0.237,0.163 -0.467,-0.089 -0.457,-0.33 a 6.588,6.588 0 0 0 -0.345,-1.002 c -0.009,-0.239 0.305,-0.219 0.479,-0.236 l 4.143,-0.247 c 0.301,-0.055 0.49,0.188 0.482,0.471 0.083,0.335 0.224,0.652 0.345,0.973 -0.068,0.283 -0.485,0.13 -0.501,-0.119 -0.174,-0.353 -0.445,-0.734 -0.874,-0.762 -0.281,-0.005 -0.625,-0.057 -0.859,0.124 -0.053,0.206 0.078,0.403 0.125,0.6 z m 2.1,-3.29 c -0.105,-0.305 -0.22,-0.693 -0.571,-0.789 -0.236,-0.061 -0.649,0.009 -0.626,-0.355 0.096,-0.212 0.417,-0.08 0.609,-0.12 0.599,0.027 1.193,-0.059 1.787,-0.118 0.266,-0.121 0.479,0.421 0.152,0.421 -0.255,-0.002 -0.546,0.188 -0.442,0.473 0.132,0.532 0.324,1.046 0.486,1.569 l 0.718,2.2 c 0.067,0.229 0.248,0.431 0.499,0.441 0.241,10e-4 0.663,0.034 0.588,0.379 -0.18,0.156 -0.479,0.058 -0.708,0.08 -0.538,-0.044 -1.072,0.048 -1.604,0.114 -0.232,0.099 -0.536,-0.139 -0.392,-0.378 0.206,-0.097 0.647,-0.043 0.617,-0.384 -0.078,-0.411 -0.237,-0.801 -0.357,-1.2 l -0.753,-2.332 z m 5.76,-1.6 c 0.317,-0.057 0.333,0.305 0.404,0.517 0.078,0.277 0.202,0.539 0.279,0.815 -0.145,0.283 -0.495,0.018 -0.534,-0.219 -0.132,-0.263 -0.329,-0.576 -0.666,-0.562 a 9.567,9.567 0 0 0 -1.232,0.053 c -0.23,0.094 -0.015,0.388 0.014,0.569 l 0.442,1.358 c 0.269,-0.012 0.579,0.002 0.807,-0.163 0.2,-0.196 -0.18,-0.607 0.154,-0.69 0.375,-0.042 0.337,0.446 0.423,0.69 0.086,0.45 0.32,0.851 0.443,1.289 -0.115,0.289 -0.527,0.042 -0.528,-0.213 -0.095,-0.319 -0.428,-0.453 -0.739,-0.423 -0.146,0.017 -0.503,-0.074 -0.358,0.171 l 0.533,1.547 c 0.117,0.286 0.448,0.353 0.724,0.334 0.394,-0.021 0.85,0.033 1.164,-0.258 0.25,-0.227 0.054,-0.581 0.112,-0.847 0.253,-0.192 0.526,0.075 0.495,0.35 0.062,0.345 0.148,0.686 0.248,1.021 -0.041,0.194 -0.281,0.139 -0.43,0.159 l -3.093,0.171 c -0.275,-0.018 -0.644,0.203 -0.838,-0.065 -0.217,-0.388 0.38,-0.252 0.507,-0.486 0.135,-0.266 -0.042,-0.547 -0.108,-0.81 l -0.96,-2.986 c -0.111,-0.322 -0.315,-0.703 -0.704,-0.714 -0.238,0.052 -0.593,-0.141 -0.425,-0.408 0.343,-0.064 0.704,-0.016 1.054,-0.049 l 2.809,-0.148 z m 2,0.96 c -0.066,-0.358 -0.339,-0.677 -0.734,-0.622 -0.375,0.097 -0.5,-0.571 -0.034,-0.43 0.508,0.003 1.03,-0.078 1.529,0.036 0.244,0.264 0.439,0.576 0.663,0.859 l 2.17,2.904 c -0.159,0.036 -0.036,-0.185 -0.053,-0.301 l 0.355,-3.542 c 0.273,-0.226 0.73,-0.131 1.078,-0.202 0.282,-0.042 0.925,-0.135 0.745,0.349 -0.338,0.056 -0.77,0.221 -0.537,0.647 l 1.115,3.579 c 0.068,0.418 0.489,0.546 0.858,0.527 0.317,0.018 0.332,0.563 -0.048,0.431 -0.594,-0.013 -1.191,-0.049 -1.779,0.063 -0.265,0.09 -0.821,0.061 -0.641,-0.355 0.297,-0.053 0.794,-0.142 0.587,-0.572 l -0.984,-3.171 c 0.068,0.095 -0.012,0.255 -0.004,0.378 l -0.292,2.968 c -0.039,0.26 0.049,0.574 -0.074,0.798 -0.236,0.116 -0.386,-0.113 -0.504,-0.276 l -2.856,-3.697 c 0.097,-0.036 0.085,0.209 0.14,0.292 l 0.911,2.881 c 0.101,0.388 0.494,0.501 0.848,0.504 0.379,0.194 0.099,0.548 -0.232,0.403 -0.5,-0.072 -0.998,0.028 -1.493,0.085 -0.315,-0.009 -0.33,-0.514 0.029,-0.447 0.469,0.004 0.326,-0.523 0.217,-0.801 l -1.023,-3.274 0.042,-0.012 z m 8.74,0.85 c 0.059,0.225 0.364,0.074 0.526,0.097 0.285,-0.017 0.62,-0.175 0.635,-0.498 0.01,-0.436 -0.157,-0.904 -0.499,-1.188 -0.33,-0.253 -0.769,-0.229 -1.161,-0.192 -0.042,0.146 0.062,0.303 0.092,0.451 l 0.406,1.33 z m 0.487,1.598 c 0.124,0.348 0.193,0.743 0.451,1.022 0.238,0.18 0.567,0.104 0.842,0.087 0.257,-0.018 0.487,-0.229 0.461,-0.499 -0.031,-0.597 -0.316,-1.261 -0.907,-1.494 -0.34,-0.125 -0.713,-0.127 -1.069,-0.091 -0.112,0.097 0.038,0.289 0.054,0.422 l 0.168,0.552 z m -1.773,-2.402 c -0.117,-0.345 -0.224,-0.77 -0.586,-0.934 -0.233,-0.088 -0.643,0.018 -0.663,-0.338 0.083,-0.289 0.544,-0.079 0.774,-0.138 0.887,0.011 1.795,-0.225 2.661,0.063 0.693,0.185 1.284,0.819 1.279,1.558 -0.003,0.409 -0.333,0.717 -0.687,0.866 -0.023,-0.134 0.361,0.07 0.5,0.095 0.528,0.188 1.018,0.556 1.225,1.094 0.177,0.414 0.28,0.953 -0.038,1.328 -0.362,0.402 -0.95,0.431 -1.454,0.444 -0.79,0.003 -1.585,-0.018 -2.368,0.114 -0.284,0.035 -0.396,-0.502 -0.038,-0.447 0.36,-10e-4 0.459,-0.379 0.323,-0.656 l -0.928,-3.048 z m 5.006,-0.176 c -0.114,-0.346 -0.218,-0.77 -0.578,-0.937 -0.238,-0.089 -0.687,0.012 -0.665,-0.37 0.194,-0.256 0.657,-0.041 0.954,-0.104 0.678,0.005 1.358,-0.13 2.034,-0.045 0.791,0.093 1.549,0.646 1.741,1.441 0.142,0.421 0.049,0.954 -0.36,1.191 -0.087,0.096 -0.52,0.198 -0.444,0.19 0.604,0.239 1.119,0.69 1.412,1.273 0.16,0.262 0.241,0.581 0.466,0.797 0.265,0.198 0.297,-0.164 0.342,-0.326 0.351,-0.175 0.529,0.316 0.386,0.58 -0.147,0.422 -0.678,0.504 -1.06,0.405 -0.343,-0.078 -0.602,-0.34 -0.756,-0.646 -0.341,-0.537 -0.554,-1.17 -1.03,-1.611 -0.224,-0.195 -0.566,-0.309 -0.851,-0.197 -0.074,0.135 0.039,0.289 0.063,0.43 0.127,0.391 0.208,0.8 0.386,1.172 0.158,0.327 0.543,0.408 0.873,0.41 0.322,-0.008 0.345,0.559 -0.032,0.429 -0.61,-0.003 -1.224,-0.076 -1.83,0.033 -0.221,-0.005 -0.532,0.136 -0.674,-0.101 -0.215,-0.419 0.417,-0.228 0.557,-0.468 0.09,-0.278 -0.064,-0.56 -0.13,-0.831 l -0.805,-2.714 z m 1.313,0.917 c 0.098,0.327 0.556,0.149 0.805,0.144 0.291,-0.029 0.46,-0.326 0.398,-0.598 -0.075,-0.449 -0.192,-0.943 -0.547,-1.256 -0.306,-0.224 -0.721,-0.223 -1.08,-0.162 -0.154,0.128 -0.013,0.341 0.019,0.503 l 0.405,1.368 z m 6.887,-2.537 c 0.312,-0.049 0.326,0.298 0.384,0.51 0.071,0.282 0.187,0.551 0.257,0.833 -0.135,0.258 -0.488,0.031 -0.514,-0.205 -0.129,-0.26 -0.292,-0.589 -0.625,-0.605 a 9.53,9.53 0 0 0 -1.287,0.005 c -0.234,0.083 -0.031,0.383 -0.008,0.562 l 0.398,1.361 c 0.259,0 0.538,0.008 0.778,-0.104 0.281,-0.159 -0.111,-0.589 0.187,-0.702 0.373,-0.082 0.369,0.394 0.426,0.639 0.068,0.467 0.296,0.888 0.41,1.342 -0.124,0.282 -0.53,0.028 -0.524,-0.228 -0.08,-0.296 -0.373,-0.453 -0.667,-0.44 -0.141,0.027 -0.556,-0.12 -0.436,0.137 l 0.487,1.567 c 0.11,0.29 0.441,0.364 0.718,0.355 0.398,-0.007 0.855,0.062 1.183,-0.217 0.26,-0.214 0.074,-0.574 0.144,-0.835 0.258,-0.181 0.527,0.087 0.486,0.363 a 9.33,9.33 0 0 0 0.213,1.019 c -0.053,0.195 -0.296,0.127 -0.449,0.144 l -3.115,0.066 c -0.268,-0.025 -0.607,0.158 -0.818,-0.056 -0.264,-0.378 0.298,-0.304 0.473,-0.467 0.189,-0.22 0.033,-0.512 -0.025,-0.757 l -0.884,-3.073 c -0.1,-0.309 -0.271,-0.68 -0.637,-0.722 -0.237,0.012 -0.61,-0.094 -0.485,-0.405 0.301,-0.105 0.656,-0.003 0.977,-0.035 l 2.949,-0.053 z m -32.82,13.13 c -0.093,-0.368 -0.217,-0.85 -0.644,-0.949 -0.237,0.006 -0.644,-0.062 -0.5,-0.393 0.307,-0.123 0.674,-0.028 1.003,-0.076 0.819,-0.043 1.653,-0.245 2.465,-0.027 1.192,0.273 2.231,1.187 2.582,2.369 0.226,0.731 0.261,1.602 -0.231,2.237 -0.519,0.666 -1.41,0.852 -2.212,0.862 -0.617,-0.006 -1.237,-0.011 -1.845,0.113 -0.236,0.142 -0.629,-0.092 -0.422,-0.354 0.258,-0.075 0.67,-0.15 0.592,-0.518 l -0.36,-1.526 -0.427,-1.738 z m 1.641,2.439 c 0.099,0.324 0.137,0.71 0.405,0.945 0.275,0.161 0.616,0.097 0.918,0.071 0.469,-0.063 0.815,-0.479 0.889,-0.931 0.141,-0.758 -0.079,-1.536 -0.379,-2.229 -0.259,-0.603 -0.799,-1.08 -1.447,-1.214 -0.377,-0.077 -0.779,-0.114 -1.157,-0.039 -0.084,0.116 0.023,0.273 0.036,0.403 l 0.736,2.993 z m 7.059,-4.429 c 0.318,-0.06 0.31,0.304 0.362,0.514 0.056,0.276 0.16,0.54 0.215,0.815 -0.129,0.26 -0.487,0.061 -0.501,-0.186 -0.113,-0.255 -0.268,-0.584 -0.593,-0.586 -0.426,-0.019 -0.853,0.019 -1.277,0.059 -0.235,0.086 -0.049,0.385 -0.032,0.569 l 0.334,1.358 c 0.274,-0.015 0.585,-0.006 0.818,-0.171 0.213,-0.188 -0.13,-0.616 0.208,-0.692 0.376,-0.046 0.303,0.447 0.368,0.687 0.05,0.445 0.252,0.852 0.341,1.288 -0.12,0.284 -0.53,0.058 -0.511,-0.21 -0.069,-0.323 -0.403,-0.452 -0.704,-0.417 -0.146,0.02 -0.495,-0.073 -0.373,0.174 0.134,0.516 0.222,1.047 0.411,1.547 0.096,0.291 0.43,0.35 0.697,0.329 0.416,-0.021 0.905,0.022 1.22,-0.306 0.245,-0.225 0.018,-0.602 0.17,-0.833 0.291,-0.167 0.484,0.142 0.443,0.408 0.033,0.33 0.093,0.657 0.162,0.981 -0.059,0.199 -0.305,0.141 -0.466,0.165 l -3.076,0.195 c -0.257,-0.009 -0.552,0.154 -0.78,0.012 -0.258,-0.271 0.094,-0.409 0.325,-0.44 0.29,-0.096 0.26,-0.443 0.187,-0.677 l -0.784,-3.24 c -0.083,-0.3 -0.238,-0.677 -0.599,-0.702 -0.236,0.028 -0.604,-0.082 -0.463,-0.388 0.296,-0.119 0.652,-0.031 0.97,-0.075 z m 6.49,4.1 c 0.045,0.309 0.285,0.57 0.596,0.621 0.237,0.098 0.605,-0.038 0.733,0.243 0.092,0.351 -0.388,0.235 -0.59,0.251 -0.573,-0.01 -1.148,-0.021 -1.716,0.066 -0.285,0.018 -0.573,0.096 -0.858,0.065 -0.277,-0.117 -0.15,-0.501 0.147,-0.444 0.268,-0.059 0.63,-0.129 0.706,-0.441 0.033,-0.269 -0.079,-0.527 -0.126,-0.789 l -0.643,-2.764 c -0.03,-0.326 -0.387,-0.334 -0.635,-0.294 -0.228,0.009 -0.587,0.163 -0.66,-0.163 -0.036,-0.338 0.466,-0.269 0.671,-0.406 l 1.107,-0.379 c 0.212,-0.048 0.301,0.15 0.319,0.32 l 0.95,4.114 z m 3.69,-3.32 c -0.073,-0.363 -0.279,-0.786 -0.689,-0.839 -0.292,-0.055 -0.671,0.029 -0.777,0.343 a 0.922,0.922 0 0 0 0.369,1.022 c 0.272,0.198 0.592,0.312 0.894,0.454 0.059,-0.119 0.247,-0.35 0.237,-0.559 a 1.44,1.44 0 0 0 -0.034,-0.421 z m 0.836,2.893 c -0.103,-0.487 -0.57,-0.77 -0.996,-0.948 -0.185,-0.032 -0.445,-0.277 -0.558,-0.177 -0.308,0.268 -0.457,0.714 -0.32,1.107 0.114,0.483 0.479,0.96 1.006,1.001 0.348,0.046 0.76,-0.11 0.863,-0.474 a 0.966,0.966 0 0 0 0.006,-0.509 z m 0.889,-0.209 c 0.136,0.479 -0.06,1.02 -0.471,1.3 -0.581,0.4 -1.355,0.428 -2.016,0.231 -0.587,-0.172 -1.081,-0.663 -1.185,-1.276 -0.122,-0.489 0.079,-1.045 0.513,-1.311 0.101,-0.1 0.488,-0.14 0.175,-0.216 -0.499,-0.245 -0.99,-0.645 -1.092,-1.222 -0.121,-0.487 0.106,-1.035 0.552,-1.275 0.858,-0.468 2.088,-0.192 2.583,0.675 0.217,0.369 0.26,0.861 -10e-4,1.221 -0.14,0.194 -0.321,0.39 -0.564,0.443 0.485,0.099 0.928,0.398 1.223,0.794 0.139,0.188 0.233,0.408 0.283,0.636 z m 3.265,0.556 c 0.243,0.009 0.504,-0.135 0.541,-0.393 0.085,-0.196 -0.084,-0.615 0.255,-0.592 0.309,0.02 0.277,0.379 0.309,0.602 0.026,0.398 -0.002,0.872 -0.344,1.137 -0.249,0.158 -0.558,0.092 -0.836,0.096 -0.562,-0.019 -1.123,-0.137 -1.685,-0.073 -0.235,0.024 -0.495,0.286 -0.717,0.098 -0.192,-0.223 -0.077,-0.519 -0.005,-0.764 0.194,-0.615 0.624,-1.117 1.1,-1.538 0.335,-0.313 0.71,-0.652 0.76,-1.136 a 1.946,1.946 0 0 0 -0.292,-1.186 c -0.283,-0.451 -0.95,-0.608 -1.399,-0.321 -0.231,0.149 -0.413,0.495 -0.228,0.745 0.211,0.162 0.6,0.017 0.702,0.354 0.13,0.234 -0.005,0.599 -0.301,0.595 -0.44,0.068 -0.838,-0.277 -0.952,-0.685 -0.181,-0.51 0.021,-1.13 0.495,-1.406 0.499,-0.312 1.135,-0.305 1.69,-0.169 0.566,0.14 1.043,0.579 1.215,1.138 0.154,0.433 0.16,0.933 -0.081,1.336 -0.376,0.718 -1.149,1.074 -1.657,1.677 -0.143,0.156 -0.244,0.371 -0.186,0.586 0.076,-0.203 0.397,-0.133 0.582,-0.167 0.347,-0.014 0.689,0.076 1.035,0.067 z m 3.94,-0.42 c 0.038,0.31 0.274,0.576 0.584,0.632 0.228,0.101 0.567,-0.016 0.715,0.225 0.145,0.345 -0.333,0.283 -0.536,0.271 -0.591,-0.021 -1.184,-0.051 -1.772,0.027 -0.287,0.012 -0.578,0.082 -0.863,0.044 -0.281,-0.128 -0.13,-0.496 0.158,-0.438 0.27,-0.052 0.634,-0.113 0.72,-0.422 0.038,-0.266 -0.067,-0.524 -0.108,-0.784 l -0.581,-2.769 c -0.019,-0.284 -0.315,-0.346 -0.547,-0.312 -0.236,-0.026 -0.563,0.165 -0.713,-0.093 -0.173,-0.352 0.344,-0.345 0.552,-0.438 l 1.221,-0.385 c 0.212,-0.044 0.298,0.155 0.312,0.325 l 0.858,4.118 z"
           id="path92" />
      </g>
    </g>
    <g
       fill="#448127"
       stroke="#34541f"
       class="E"
       id="g94">
      <path
         d="m 475.8,219.41 -3.771,4.483 c -1.2,5.24 1.782,9.187 7.649,12.614 4.752,2.95 13.549,3.689 16.327,1.311 l -13.714,-13.071 -6.492,-5.337 z"
         fill="url(#G)"
         stroke="#4c0505"
         id="path93"
         style="fill:url(#G)" />
      <path
         d="m 503.58,354.27 -2.035,-2.424 c -8.558,11.298 -19.248,21.429 -32.617,28.575 15.077,-4.269 24.945,-15.257 34.652,-26.151 z m -15.44,35.71 c 5.316,-10.772 11.731,-21.544 18.203,-32.317 l -2.144,-2.636 c -7.352,12.186 -15.979,26.679 -16.059,34.952 z m 41.73,-114.5 c -0.985,-4.247 -2.27,-8.837 -4.309,-13.055 -2.657,-5.431 -6.623,-10.831 -11.832,-16.804 -9.383,-10.173 -18.771,-19.997 -31.926,-27.251 l 0.069,-0.137 0.077,0.046 h 0.164 l -0.161,-0.2 h 0.471 l -0.255,-0.255 h 0.437 l -0.352,-0.4 h 0.461 l -0.329,-0.328 h 0.492 l -0.273,-0.364 0.398,0.03 -0.372,-0.387 0.548,-0.109 -0.444,-0.279 0.48,-0.092 -0.403,-0.276 0.586,-0.187 -0.516,-0.306 0.652,-0.288 -0.632,-0.456 0.668,-0.229 -0.726,-0.295 0.612,-0.322 -0.721,-0.13 0.489,-0.566 -0.702,0.037 0.32,-0.597 -0.667,0.055 -0.044,-0.058 0.366,-0.449 -0.675,0.12 0.297,-0.611 -0.65,0.325 0.185,-0.707 -0.628,0.432 0.095,-0.719 -0.579,0.496 0.06,-0.687 -0.51,0.533 0.046,-0.725 -0.503,0.61 -0.05,-0.713 -0.403,0.56 -0.205,-0.676 -0.335,0.676 -0.171,-0.717 -0.317,0.717 -0.154,-0.717 -0.273,0.717 -0.206,-0.676 -0.215,0.676 -0.159,-0.594 -0.241,0.715 -0.224,-0.674 -0.241,0.77 -0.292,-0.688 -0.126,0.822 -0.352,-0.672 -0.041,0.794 -0.383,-0.602 -0.025,0.787 -0.408,-0.568 0.032,0.691 -0.434,-0.365 0.213,0.744 -0.525,-0.306 0.197,0.652 -0.432,-0.242 0.154,0.631 -0.393,-0.126 0.206,0.47 -0.029,0.064 -0.304,-0.057 0.174,0.366 h 10e-4 c -0.384,1.038 -0.414,2.279 -0.351,3.515 0.012,0.231 0.594,0.464 0.685,0.607 0.276,0.429 0.226,0.661 0.226,0.661 -1.591,2.58 -3.015,4.573 -3.175,7.531 1.279,-1.618 2.604,-3.6 4.461,-3.6 -0.92,1.537 -1.356,6.172 -0.323,6.877 l 0.771,-1.352 c 0.028,1.075 0.18,1.791 0.389,2.321 0.322,-0.65 0.642,-1.271 0.963,-1.741 0.073,1.506 0.267,2.714 0.703,3.311 0.429,-0.74 1.009,-1.191 1.618,-1.571 -0.211,0.86 -0.52,1.672 -0.389,2.704 0.644,-1.101 1.289,-1.753 1.932,-2.513 -0.373,1.587 -0.034,2.771 0.417,4.522 0.4,-2.076 0.557,-2.296 1.516,-3.17 0.106,1.903 -0.257,3.632 0.143,4.694 0.874,-1.675 1.46,-1.436 1.983,-2.519 -0.102,1.579 -0.419,3.291 -0.014,4.701 0.336,-1.413 1.243,-2.169 1.944,-2.671 0.057,2.199 0.565,1.837 -0.801,3.702 0.579,0.265 2.541,-0.377 3.605,-0.833 -0.515,1.178 -0.363,2.102 -0.878,2.936 1.08,-0.543 2,-1.42 2.901,-2.321 -0.418,1.352 -1.525,2.704 -0.97,4.056 0.252,-1.263 1.273,-2.304 2.242,-2.493 -0.15,0.708 -0.252,2.174 -1.272,2.882 2.443,0.252 3.407,-1.398 4.637,-2.704 -0.159,1.358 -0.114,2.443 1.552,4.355 -0.337,-2.431 0.241,-1.931 1.343,-3.392 0.532,2.148 1.142,4.43 3.382,6.014 -0.929,-2.267 -1.1,-3.435 -0.574,-4.862 0.288,1.472 1.684,3.249 2.019,4.644 0.208,-1.548 0.442,-3.045 0.963,-4.056 0.652,1.757 1.197,3.571 1.352,5.599 a 17.166,17.166 0 0 0 1.161,-3.086 c 19.736,20.623 24.137,46.84 2.513,74.541 7.77,-5.249 9.776,-13.569 14.093,-20.662 -4.214,9.288 -6.092,19.737 -13.513,27.421 7.188,-6.202 8.712,-11.885 13.034,-17.862 -4.607,12.501 -10.982,26.2 -19.821,38.742 l 4.718,5.189 4.097,-6.849 c 9.369,-15.436 24.658,-37.5 16.913,-71.147 z"
         id="path94" />
    </g>
    <path
       d="m 473.16,215.29 c -0.997,0.226 -1.392,0.642 -2.111,1.443 0.917,0.2 1.692,0.246 2.521,0.264 0.257,-0.023 0.343,-0.348 0.286,-0.585 l -0.128,-0.955 c -0.023,-0.217 -0.601,-0.2 -0.874,-0.086 l 0.305,-0.081 z"
       fill="#eac102"
       stroke="#a08307"
       class="E"
       id="path95" />
    <path
       d="m 471.04,216.73 a 9.89,9.89 0 0 1 1.053,-0.298 l 1.078,-0.191 a 9.82,9.82 0 0 1 -1.053,0.298 z"
       fill="#a08307"
       id="path96" />
    <ellipse
       cx="477.67999"
       cy="215.416"
       rx="0.77499998"
       ry="0.81099999"
       stroke="#000000"
       stroke-width="0.098"
       id="ellipse96" />
    <ellipse
       cx="477.85999"
       cy="215.261"
       rx="0.33700001"
       ry="0.35299999"
       fill="url(#H)"
       id="ellipse97"
       style="fill:url(#H)" />
    <path
       d="m 488.18,389.69 1.528,-4.44 1.783,-4.346 4.135,-8.435 4.663,-8.153 2.454,-4.004 2.51,-3.967 -2.419,4.023 -2.4,4.034 -4.615,8.171 -4.174,8.4 -1.836,4.317 -1.628,4.402 z m -18.84,-9.46 4.881,-2.375 4.702,-2.705 a 72.04,72.04 0 0 0 8.733,-6.416 c 2.755,-2.342 5.328,-4.894 7.762,-7.569 1.219,-1.337 2.4,-2.707 3.555,-4.101 a 170.53,170.53 0 0 0 3.399,-4.234 153.75,153.75 0 0 1 -3.316,4.302 112.72,112.72 0 0 1 -3.512,4.146 81.9,81.9 0 0 1 -7.745,7.623 69.922,69.922 0 0 1 -8.786,6.393 71.43,71.43 0 0 1 -4.742,2.657 76.843,76.843 0 0 1 -4.93,2.28 z m 37.28,-29.34 2.202,-3.296 2.098,-3.362 3.959,-6.866 3.751,-6.985 3.677,-7.027 -1.745,3.561 -1.783,3.543 -3.709,7.013 -4.008,6.849 z m 5.89,-25.11 a 58.48,58.48 0 0 0 4.692,-6.42 60.067,60.067 0 0 0 3.81,-6.974 c 2.235,-4.81 3.841,-9.894 4.975,-15.071 l 0.414,-1.944 a 61.14,61.14 0 0 0 0.294,-1.962 60.94,60.94 0 0 0 0.4,-3.953 c 0.18,-2.643 0.178,-5.3 -0.03,-7.942 a 50.63,50.63 0 0 0 -1.24,-7.846 53.316,53.316 0 0 0 -2.403,-7.578 53.524,53.524 0 0 1 2.507,7.553 50.47,50.47 0 0 1 1.28,7.859 c 0.221,2.648 0.236,5.313 0.067,7.965 a 61.25,61.25 0 0 1 -0.383,3.967 58.83,58.83 0 0 1 -0.287,1.976 l -0.406,1.951 c -1.16,5.183 -2.794,10.274 -5.057,15.084 a 59.85,59.85 0 0 1 -3.853,6.97 58.12,58.12 0 0 1 -4.781,6.364 z m -1.64,-5.71 c 1.843,-1.762 3.471,-3.741 4.898,-5.849 1.436,-2.103 2.682,-4.333 3.795,-6.623 l 3.027,-7.015 1.361,-3.573 0.332,-0.896 0.294,-0.904 0.578,-1.83 -0.005,0.017 c 0.506,-2.524 0.779,-5.095 0.81,-7.67 0.031,-2.575 -0.171,-5.153 -0.571,-7.698 -0.4,-2.545 -0.996,-5.06 -1.731,-7.531 a 80.138,80.138 0 0 0 -2.554,-7.304 l 2.656,7.272 a 57.6,57.6 0 0 1 1.772,7.54 c 0.413,2.552 0.631,5.136 0.61,7.723 -0.021,2.587 -0.278,5.172 -0.78,7.71 l -0.002,0.008 -0.003,0.009 -0.582,1.815 -0.302,0.913 -0.338,0.895 -1.379,3.569 -3.067,7.012 c -1.127,2.29 -2.383,4.52 -3.837,6.619 -1.459,2.093 -3.116,4.052 -4.984,5.789 z m -5.82,29.16 3.573,-4.998 1.777,-2.506 1.733,-2.531 c 1.068,-1.745 1.99,-3.575 2.898,-5.409 l 2.709,-5.514 c 1.782,-3.687 3.505,-7.405 4.967,-11.228 a 75.285,75.285 0 0 0 3.451,-11.763 c 0.847,-4.003 1.416,-8.062 1.885,-12.129 0.426,-4.065 0.471,-8.18 0.038,-12.248 -0.433,-4.068 -1.362,-8.08 -2.725,-11.939 -1.35,-3.865 -3.115,-7.577 -5.097,-11.16 2.013,3.565 3.812,7.263 5.198,11.124 1.38,3.861 2.326,7.88 2.769,11.959 0.443,4.079 0.414,8.202 -10e-4,12.284 -0.458,4.072 -1.015,8.137 -1.853,12.153 -0.838,4.016 -2.013,7.961 -3.495,11.784 -1.482,3.823 -3.213,7.543 -5.007,11.226 l -2.727,5.507 c -0.914,1.833 -1.841,3.664 -2.92,5.409 -0.536,0.877 -1.162,1.691 -1.759,2.522 l -1.799,2.49 -3.617,4.969 z m 2.76,3.02 6.954,-11.583 c 2.25,-3.901 4.483,-7.814 6.465,-11.856 1.982,-4.042 3.701,-8.214 4.997,-12.523 a 74.224,74.224 0 0 0 1.653,-6.54 59.28,59.28 0 0 0 0.593,-3.319 l 0.472,-3.342 c 0.582,-4.462 0.928,-8.957 0.922,-13.457 -0.006,-4.5 -0.366,-9.001 -1.198,-13.424 -0.832,-4.423 -2.141,-8.756 -3.977,-12.865 a 54.034,54.034 0 0 0 -6.957,-11.533 54.06,54.06 0 0 1 7.055,11.49 c 1.853,4.111 3.178,8.453 4.022,12.882 0.844,4.429 1.22,8.943 1.238,13.45 0.018,4.507 -0.315,9.015 -0.888,13.486 l -0.482,3.346 a 58.79,58.79 0 0 1 -0.604,3.328 74.22,74.22 0 0 1 -1.674,6.551 c -1.311,4.316 -3.042,8.496 -5.041,12.534 -1.999,4.038 -4.238,7.953 -6.503,11.846 -2.276,3.889 -4.655,7.714 -7.046,11.53 z M 480,220.77 a 7.94,7.94 0 0 1 1.418,0.113 14.17,14.17 0 0 1 1.395,0.294 18.85,18.85 0 0 1 2.686,0.954 c 1.743,0.768 3.372,1.774 4.901,2.903 a 35.81,35.81 0 0 1 4.256,3.785 l 1.904,2.117 1.758,2.236 -1.839,-2.166 -1.943,-2.07 c -1.335,-1.339 -2.747,-2.604 -4.266,-3.728 a 26.802,26.802 0 0 0 -4.839,-2.925 18.94,18.94 0 0 0 -2.646,-1.004 c -0.906,-0.265 -1.836,-0.472 -2.784,-0.509 z"
       class="F"
       id="path97" />
    <g
       fill="#448127"
       id="g109">
      <path
         d="m 496.38,231.57 c 0,0 3.059,1.798 4.725,4.439 0,0 -4.717,-0.882 -8.07,-4.651"
         id="path98" />
      <path
         d="m 496.38,231.57 a 14.3,14.3 0 0 1 1.379,0.88 l 1.28,1.024 c 0.412,0.361 0.797,0.753 1.161,1.163 a 10.32,10.32 0 0 1 0.996,1.313 l 0.136,0.217 -0.248,-0.054 c -0.784,-0.17 -1.534,-0.42 -2.273,-0.712 -0.739,-0.292 -1.454,-0.636 -2.137,-1.038 -1.369,-0.795 -2.623,-1.8 -3.64,-3.008 a 15.17,15.17 0 0 0 3.72,2.866 18.27,18.27 0 0 0 2.129,0.997 14.4,14.4 0 0 0 2.24,0.683 l -0.111,0.164 c -0.289,-0.454 -0.612,-0.888 -0.965,-1.297 -0.353,-0.409 -0.734,-0.794 -1.125,-1.168 l -1.231,-1.064 -1.313,-0.968 z"
         class="F"
         id="path99" />
      <path
         d="m 489.58,230.69 8.273,4.978 c 0,0 -1.608,-3.478 -5.049,-4.972"
         id="path100" />
      <path
         d="m 489.58,230.69 4.14,2.488 2.069,1.243 1.044,0.602 1.054,0.548 -0.128,0.141 a 10.67,10.67 0 0 0 -0.924,-1.526 c -0.35,-0.483 -0.728,-0.949 -1.142,-1.38 a 10.73,10.73 0 0 0 -1.346,-1.184 9.215,9.215 0 0 0 -1.542,-0.926 c 0.56,0.221 1.094,0.512 1.596,0.85 0.502,0.338 0.967,0.731 1.4,1.154 a 11.03,11.03 0 0 1 1.189,1.374 10.84,10.84 0 0 1 0.958,1.551 l 0.124,0.25 -0.253,-0.108 c -0.768,-0.329 -1.437,-0.758 -2.135,-1.168 l -2.06,-1.264 -4.043,-2.645 z"
         class="F"
         id="path101" />
      <path
         d="m 492.46,228.36 c 0,0 3.76,1.599 4.611,4.379 0,0 -6.753,-2.841 -7.962,-4.349"
         id="path102" />
      <path
         d="m 492.46,228.36 c 0.508,0.199 0.992,0.455 1.465,0.731 a 10.89,10.89 0 0 1 1.34,0.951 7.17,7.17 0 0 1 1.14,1.194 c 0.33,0.443 0.608,0.936 0.77,1.472 l 0.067,0.222 -0.212,-0.091 -2.082,-0.934 -2.05,-1.003 -1.994,-1.111 -0.95,-0.634 c -0.305,-0.226 -0.609,-0.465 -0.844,-0.766 0.252,0.286 0.564,0.506 0.876,0.72 l 0.971,0.591 2.015,1.054 4.142,1.885 -0.145,0.131 a 4.834,4.834 0 0 0 -0.725,-1.416 7.8,7.8 0 0 0 -1.091,-1.184 10.859,10.859 0 0 0 -1.286,-0.988 12.73,12.73 0 0 0 -1.406,-0.824 z"
         class="F"
         id="path103" />
      <path
         d="m 486.76,231.25 c 0,0 6.646,4.758 8.613,4.758 0,0 -1.948,-3.258 -5.388,-4.752"
         id="path104" />
      <path
         d="m 486.76,231.25 2.076,1.35 2.106,1.298 2.156,1.201 1.119,0.505 c 0.377,0.146 0.771,0.289 1.155,0.3 l -0.089,0.157 c -0.314,-0.506 -0.682,-0.99 -1.07,-1.45 -0.388,-0.46 -0.805,-0.899 -1.248,-1.309 -0.443,-0.41 -0.915,-0.788 -1.411,-1.135 -0.496,-0.347 -1.022,-0.649 -1.57,-0.911 1.13,0.45 2.166,1.129 3.081,1.934 a 12.97,12.97 0 0 1 1.291,1.297 c 0.399,0.464 0.773,0.944 1.104,1.467 l 0.102,0.161 -0.191,-0.005 c -0.446,-0.011 -0.844,-0.158 -1.235,-0.304 a 13.855,13.855 0 0 1 -1.133,-0.524 l -2.159,-1.228 -2.074,-1.359 -2.012,-1.447 z"
         class="F"
         id="path105" />
      <path
         d="m 486.76,232.74 c 0,0 3.461,2.919 5.427,2.919 0,0 -1.948,-3.258 -5.388,-4.751"
         id="path106" />
      <path
         d="m 486.76,232.74 1.272,0.905 1.315,0.832 c 0.445,0.264 0.902,0.509 1.376,0.708 0.237,0.099 0.478,0.186 0.723,0.252 a 2.85,2.85 0 0 0 0.741,0.12 l -0.089,0.157 a 12.4,12.4 0 0 0 -1.07,-1.45 c -0.392,-0.458 -0.805,-0.899 -1.248,-1.309 -0.443,-0.41 -0.915,-0.788 -1.411,-1.135 -0.496,-0.347 -1.022,-0.649 -1.57,-0.911 1.13,0.45 2.166,1.129 3.081,1.934 a 12.95,12.95 0 0 1 1.291,1.297 12.58,12.58 0 0 1 1.104,1.467 l 0.1,0.157 h -0.188 c -0.551,-0.001 -1.063,-0.18 -1.546,-0.388 -0.483,-0.208 -0.943,-0.467 -1.39,-0.74 l -1.288,-0.895 -1.205,-0.999 z"
         class="F"
         id="path107" />
      <path
         d="m 485.03,226.18 c 0,0 7.207,5.117 8.059,7.896 0,0 -6.522,-2.994 -7.731,-4.502"
         id="path108" />
      <path
         d="m 485.03,226.18 2.304,1.679 2.205,1.81 a 25.673,25.673 0 0 1 2.054,1.987 12.37,12.37 0 0 1 0.912,1.109 c 0.276,0.392 0.54,0.804 0.687,1.28 l 0.072,0.233 -0.22,-0.103 -2.022,-0.985 -1.989,-1.05 -1.934,-1.151 -0.921,-0.648 c -0.296,-0.229 -0.589,-0.471 -0.82,-0.767 0.248,0.282 0.551,0.505 0.853,0.722 l 0.942,0.605 1.957,1.094 4.024,1.983 -0.148,0.13 c -0.14,-0.433 -0.384,-0.839 -0.653,-1.221 a 12.21,12.21 0 0 0 -0.888,-1.097 c -0.632,-0.703 -1.321,-1.354 -2.019,-1.994 l -2.159,-1.852 -2.235,-1.764 z"
         class="F"
         id="path109" />
    </g>
    <g
       class="G B"
       id="g111">
      <path
         d="m 445.02,370.33 c -4.889,3.644 -18.553,5.429 -20.448,4.801 9.943,-8.272 19.725,-8.471 20.448,-4.8 z m 69.76,4.44 c 5.254,4.768 21.104,8.053 23.475,7.461 -10.542,-10.77 -22.102,-11.863 -23.475,-7.461 z"
         class="C"
         id="path110" />
      <path
         d="m 444.98,370.3 c -0.721,-3.671 -10.458,-3.449 -20.378,4.775 10.446,-3.442 19.238,-5.405 20.378,-4.775 z m 69.91,4.41 c 1.371,-4.402 12.794,-3.338 23.364,7.462 -11.884,-5.021 -21.947,-8.098 -23.364,-7.462 z"
         class="D"
         id="path111" />
    </g>
  </g>
</svg>
