<?xml version="1.0" encoding="UTF-8" standalone="no"?>
<svg
   width="70in"
   height="42in"
   clip-rule="evenodd"
   fill-rule="evenodd"
   image-rendering="optimizeQuality"
   shape-rendering="geometricPrecision"
   text-rendering="geometricPrecision"
   viewBox="0 0 70 42"
   xml:space="preserve"
   version="1.1"
   id="svg18"
   xmlns="http://www.w3.org/2000/svg"
   xmlns:svg="http://www.w3.org/2000/svg"><defs
     id="defs18" /><path
     d="M 0,0 H 70 V 42 H 0 Z"
     fill="#c62139"
     id="path1"
     style="stroke-width:0.902694" /><path
     d="M 1.707317,1.9090909 H 68.292681 V 40.090909 H 1.707317 Z"
     fill="#00297b"
     id="path2"
     style="stroke-width:0.902694" /><path
     d="m 35.024,9.662 c 0,0 -7.583,5.525 -7.583,11.264 0,5.74 7.583,11.412 7.583,11.412 0,0 7.535,-5.258 7.535,-11.412 0,-6.152 -7.535,-11.264 -7.535,-11.264 z"
     fill="#92dbfc"
     id="path3" /><path
     d="m 28.28,24.43 c 1.974,4.34 6.744,7.908 6.744,7.908 0,0 4.856,-3.389 6.77,-7.909"
     fill="#008ce7"
     id="path4" /><path
     d="m 41.821,23.177 c -1.169,0.766 -7.747,0.398 -7.747,0.398 l -0.368,0.858 7.833,0.022 c 0.032,-0.118 0.11,-0.258 0.138,-0.376 z"
     fill="#9c8431"
     style="fill:#cccccc"
     id="path5" /><path
     d="m 30.051,26.726 c 0.333,0.01 0.665,0.075 0.963,0.22 0.533,0.257 0.841,0.255 1.415,0.263 0.601,0.008 1.073,0.413 1.722,0.43 1.196,0.03 1.7,0.575 0.77,0.575 -0.44,0 -1.382,-0.27 -1.837,-0.214 -0.692,0.064 -1.092,0.112 -1.604,0.485 a 19.481,19.481 0 0 1 -1.429,-1.759 z m 2.367,2.731 c 0.296,-0.185 0.5,-0.33 0.788,-0.339 0.56,-0.015 0.75,-0.332 1.397,-0.332 0.735,0.123 1.73,-0.08 2.314,-0.2 1.034,-0.218 0.544,-0.88 -0.083,-1.121 -0.506,-0.199 -1.455,-0.01 -2.044,-0.207 -0.445,-0.16 -0.078,-0.413 0.162,-0.467 0.241,-0.041 0.5,0.032 0.802,0.077 a 8.401,8.401 0 0 0 1.684,-0.07 c 0.975,-0.137 0.935,-0.399 1.406,-0.405 0.343,-0.014 0.605,-0.108 0.84,-0.261 0.274,-0.168 0.561,-0.513 0.894,-0.5 l 0.196,0.008 c -2.057,3.644 -5.751,6.036 -5.751,6.036 0,0 -1.194,-0.837 -2.605,-2.219 z"
     fill="#ffde52"
     id="path6" /><path
     d="m 32.875,22.883 c 0.028,-0.038 0.056,-0.021 0.084,0 l 0.06,2.786 h -0.2 z"
     style="fill:#8c4200"
     id="path7" /><path
     d="m 30.45,25.575 c 0,0 2.525,0.176 4.074,-0.128 0,0 0.13,0.08 -0.056,0.28 -0.187,0.2 -0.66,0.243 -0.92,0.286 0,0 -0.063,0.128 -0.058,0.195 0.006,0.067 0.164,0.06 0.242,0.045 l 0.078,-0.014 c 0,0 -0.037,0.25 -0.993,0.283 -0.314,0.011 -1.348,0.031 -1.567,-0.25 0,0 0.19,0.014 0.239,0 0.05,-0.014 0.013,-0.195 -0.005,-0.221 -0.018,-0.026 -0.67,0 -1.014,-0.29 -0.085,-0.083 -0.125,-0.172 -0.125,-0.203 0,-0.003 0.104,0.017 0.104,0.017 z m 1.316,0.485 c 0,0 0.691,0.081 1.486,0 0,0 0.021,0.138 -0.015,0.19 -0.036,0.053 -0.954,0.093 -1.417,0.02 -0.074,-0.022 -0.077,-0.105 -0.054,-0.21 z"
     fill="#8c4200"
     id="path8" /><path
     d="m 30.908,25.386 c 0,0 0.8,-1.004 0.543,-2.74 1.237,0.688 2.288,1.725 2.574,2.688 -1.122,-0.26 -2.113,-0.08 -3.117,0.052 z"
     fill="#fdf9ff"
     id="path9" /><path
     d="M 35.026,9 C 35.026,9 27,14.471 27,20.922 27,27.374 35.026,33 35.026,33 35.026,33 43,27.838 43,20.922 43,14.007 35.026,9 35.026,9 Z m -0.003,1.324 c 0,0 -7.14,4.867 -7.14,10.607 0,5.74 7.14,10.745 7.14,10.745 0,0 7.094,-4.592 7.094,-10.745 0,-6.153 -7.094,-10.607 -7.094,-10.607 z"
     fill="#c62139"
     id="path10" /><path
     d="m 37.146,26.788 c 0.128,0.452 0.263,0.606 0.782,0.722 0.512,0.116 1.294,-0.34 0.81,-0.782 -0.462,-0.412 -0.948,-0.517 -1.362,-0.888 -0.641,-0.582 -1.521,-1.786 -1.939,-2.924 -0.457,-1.245 -0.378,-4.748 -0.357,-6.523 0,-0.02 0.055,-0.033 0.062,-0.041 0.03,-0.04 0.058,0.012 0.011,-0.248 -0.012,-0.067 -0.07,-0.136 -0.07,-0.203 0.001,-0.12 -0.453,0.131 -0.572,0.346 -0.028,0.049 0.087,0.189 0.087,0.216 0.015,1.703 -0.185,5.065 0.309,6.587 0.305,0.942 0.863,1.67 1.367,2.343 0.303,0.431 0.74,0.897 0.872,1.395 z"
     fill="#8c4200"
     style="stroke:#000000;stroke-width:0.015625"
     id="path11" /><path
     d="m 30.311,15.89 c 0.033,0.04 0.028,0.216 0.028,0.216 0.026,0.014 0.454,-0.334 0.454,-0.318 0,0.073 0.01,0.224 0.01,0.224 0,0 0.443,-0.385 0.461,-0.345 0.02,0.046 -0.002,0.27 -0.002,0.27 l 0.349,-0.352 c 0.039,-0.038 0.033,0.049 0.036,0.188 0.001,0.025 0.483,-0.325 0.512,-0.331 0.063,-0.013 0.082,0.182 0.079,0.23 -0.003,0.036 0.445,-0.233 0.425,-0.198 l 0.033,0.207 c 0.125,-0.015 0.422,-0.117 0.6,-0.09 0.058,0.008 0.055,0.034 0.004,0.054 -0.861,0.319 -1.524,0.8 -1.91,1.47 -0.131,0.229 -0.171,0.428 -0.136,0.478 0,0 0.154,-0.305 0.329,-0.353 0.023,-0.006 0.039,0.196 0.063,0.184 0,0 0.132,-0.305 0.227,-0.418 0.026,-0.03 0.068,0.16 0.096,0.132 0,0 0.068,-0.204 0.203,-0.347 0.019,-0.02 0.054,0.194 0.075,0.176 0.14,-0.118 0.27,-0.413 0.322,-0.435 0.037,-0.026 0.043,0.245 0.078,0.222 0,0 0.199,-0.366 0.317,-0.432 0.077,-0.043 0.074,0.2 0.074,0.2 0.151,-0.137 0.318,-0.364 0.397,-0.462 0.037,-0.046 0.017,0.298 0.055,0.312 0.05,0.017 0.377,-0.264 0.413,-0.27 0.025,-0.003 0.053,0.08 -0.01,0.148 l -0.404,0.426 c 0.078,0.014 0.108,-0.006 0.163,0.007 0.166,0.04 -0.31,0.29 -0.301,0.336 0,0 0.229,-0.004 0.152,0.037 -0.055,0.03 -0.358,0.386 -0.358,0.373 0,-0.006 0.152,0.003 0.151,0.043 -10e-4,0.074 -0.251,0.455 -0.254,0.453 -0.013,-0.012 0.135,-0.016 0.155,0.021 0.037,0.07 -0.257,0.378 -0.2,0.43 0.008,0.008 0.168,0.003 0.239,0.017 0.034,0.007 0.13,0.56 0.106,0.538 a 4.833,4.833 0 0 1 0.169,-0.675 c 0.04,-0.094 0.169,0.143 0.179,0.122 -0.005,0 -0.026,-0.337 -0.008,-0.491 0.005,-0.043 0.098,0.045 0.096,0.004 -0.003,-0.093 -0.011,-0.193 0.01,-0.284 0.015,-0.068 0.094,0.124 0.125,0.072 0,0 -0.096,-0.334 -0.056,-0.428 0.026,-0.062 0.09,0.15 0.132,0.158 0,0 -0.024,-0.26 0.02,-0.326 l 0.133,0.13 c 0.029,-0.042 0.023,-0.447 0.05,-0.484 0.022,-0.032 0.16,0.151 0.18,0.123 0.019,-0.027 -0.058,-0.327 -0.04,-0.35 0.024,-0.035 0.175,0.083 0.178,0.08 0.061,-0.056 0.06,-0.198 0.085,-0.25 0.07,-0.142 0.468,-0.16 0.515,-0.06 0.023,0.05 0.007,0.113 -0.002,0.19 0.003,0.002 0.2,0.015 0.2,0.001 0,0 -0.023,0.168 -0.009,0.352 0.002,0.025 0.199,-0.006 0.202,0.019 0.017,0.173 -0.026,0.19 -0.026,0.19 0.002,0.012 0.133,-0.02 0.135,-0.006 a 0.448,0.448 0 0 1 -0.074,0.287 c -0.01,0.014 0.187,-0.014 0.19,0.003 0.024,0.13 0.028,0.234 0.004,0.418 -0.002,0.014 0.192,-0.13 0.195,-0.115 0.03,0.154 -0.005,0.321 0.013,0.482 0.004,0.037 0.128,-0.111 0.14,-0.068 0.01,0.042 -0.028,0.348 -0.01,0.366 0,0 0.209,-0.01 0.227,0.006 0.165,0.142 0.134,0.39 0.134,0.39 0.045,-0.031 0.028,-0.33 -0.018,-0.602 -0.005,-0.029 0.16,-0.018 0.155,-0.045 0,0 -0.18,-0.1 -0.24,-0.377 -0.013,-0.059 0.174,-0.047 0.174,-0.047 -0.052,-0.109 -0.143,-0.13 -0.22,-0.235 -0.025,-0.034 0.194,-0.05 0.194,-0.06 0,-0.104 -0.185,-0.154 -0.281,-0.263 -0.041,-0.046 0.2,-0.049 0.2,-0.049 -0.07,-0.09 -0.304,-0.13 -0.423,-0.248 -0.064,-0.065 0.237,-0.129 0.233,-0.14 -0.033,-0.095 -0.316,-0.125 -0.454,-0.233 -0.028,-0.022 0.18,-0.097 0.18,-0.097 -0.021,-0.04 -0.474,-0.313 -0.244,-0.288 0.098,0.01 0.295,0.137 0.31,0.118 0,0 -0.008,-0.16 0.012,-0.178 0.076,-0.072 0.337,0.305 0.425,0.29 0,0 0.033,-0.27 0.073,-0.278 0.096,-0.016 0.212,0.394 0.306,0.394 0.013,0 0.02,-0.237 0.068,-0.25 0.055,-0.015 0.117,0.266 0.186,0.328 0.064,0.057 0.065,-0.22 0.103,-0.167 0.064,0.085 0.08,0.262 0.167,0.34 0.057,0.05 0.067,-0.244 0.13,-0.205 0.074,0.046 0.057,0.198 0.139,0.273 0.04,0.036 0.066,-0.194 0.11,-0.16 0.04,0.03 0.067,0.31 0.11,0.355 0.054,0.057 0.117,-0.148 0.173,-0.116 0.04,0.024 0.031,0.267 0.069,0.32 0.077,0.108 0.117,-0.131 0.168,-0.094 0.036,0.025 0.113,0.304 0.145,0.326 0.071,0.05 0.11,-0.127 0.165,-0.102 0.04,0.018 0.119,0.378 0.152,0.369 0.02,-0.006 0.074,-0.821 -0.269,-1.165 -0.557,-0.56 -1.556,-0.883 -2.371,-0.891 0,0 0.41,-0.075 0.42,-0.137 0.022,-0.124 0.225,-0.11 0.367,-0.08 0.025,0.004 0.012,-0.22 0.015,-0.22 0.127,-0.004 0.24,0.065 0.362,0.132 0.037,0.022 -0.077,-0.224 -0.037,-0.203 0.156,0.083 0.33,0.107 0.434,0.207 0.028,0.026 -0.031,-0.189 -0.031,-0.189 0.077,-0.017 0.23,0.085 0.291,0.182 0.03,0.047 -0.002,-0.251 0.021,-0.198 0,0 0.272,0.084 0.3,0.188 0,0 0.023,-0.189 0.06,-0.179 0.108,0.026 0.204,0.194 0.289,0.219 0,0 -0.036,-0.169 -0.008,-0.163 0.204,0.048 0.426,0.163 0.426,0.163 -0.115,-0.264 -0.552,-0.54 -1.32,-0.614 a 4.743,4.743 0 0 0 -1.198,0.068 c -0.397,0.084 -0.71,0.132 -0.646,0.075 0.262,-0.236 0.687,-0.265 0.804,-0.32 0.083,-0.039 -0.282,-0.168 -0.21,-0.186 0.073,-0.016 0.399,-0.04 0.399,-0.04 0.07,-0.051 -0.237,-0.15 -0.191,-0.224 0.092,-0.147 0.636,-0.013 0.683,-0.07 0.015,-0.018 -0.234,-0.153 -0.224,-0.173 0.04,-0.074 0.524,0.056 0.536,-0.01 0,0 -0.147,-0.1 -0.252,-0.182 -0.012,-0.01 0.433,-0.12 0.433,-0.12 a 0.733,0.733 0 0 0 -0.178,-0.088 c -0.094,-0.033 0.39,-0.148 0.39,-0.148 -0.613,-0.257 -2.205,0.473 -2.521,1.231 -0.082,0.181 -0.085,-0.016 -0.067,-0.169 0.016,-0.165 0.039,-0.31 0.02,-0.46 -0.007,-0.045 -0.13,0.119 -0.14,0.075 -0.031,-0.16 0.063,-0.337 0.02,-0.516 -0.014,-0.06 -0.179,0.177 -0.2,0.117 -0.061,-0.165 0.044,-0.397 0.002,-0.625 -0.017,-0.089 -0.173,0.19 -0.225,0.111 -0.061,-0.092 -0.035,-0.434 -0.064,-0.486 -0.023,-0.042 -0.162,0.164 -0.174,0.125 -0.188,-0.627 0.062,-0.705 -0.3,-0.352 -0.012,0.013 -0.092,-0.37 -0.106,-0.358 -0.148,0.29 -0.39,-0.206 -0.474,-0.16 -0.062,0.035 0.17,0.228 0.172,0.314 0.001,0.042 -0.213,0.045 -0.213,0.045 0.005,0.071 0.407,0.272 0.42,0.35 0.01,0.065 -0.284,0.05 -0.284,0.05 0.009,0.087 0.344,0.17 0.362,0.264 0.01,0.05 -0.157,0.062 -0.151,0.115 0.009,0.08 0.324,0.238 0.334,0.32 0.007,0.056 -0.201,0.08 -0.206,0.132 -0.006,0.064 0.418,0.279 0.419,0.34 0,0.084 -0.17,0.04 -0.246,0.083 -0.109,0.06 0.347,0.304 0.367,0.374 0.015,0.06 -0.183,0.007 -0.19,0.062 -0.008,0.073 0.224,0.183 0.277,0.308 0.053,0.123 -10e-4,0.155 -0.077,0.106 -0.153,-0.099 -0.769,-0.698 -0.933,-0.858 a 1.982,1.982 0 0 0 -1.21,-0.507 c -0.05,0.014 0.262,0.216 0.264,0.289 0,0.019 -0.14,0.047 -0.134,0.052 0.086,0.08 0.355,0.173 0.355,0.173 l -0.077,0.127 c 0.018,0.037 0.145,0.047 0.348,0.109 0,0 -0.152,0.086 -0.14,0.094 0.107,0.08 0.316,0.137 0.316,0.137 l -0.206,0.064 c -0.012,0.036 0.464,0.21 0.464,0.21 0,0 -0.149,0.118 -0.142,0.124 0.036,0.033 0.385,0.107 0.385,0.107 0.006,0.005 -0.246,0.077 -0.245,0.079 0.092,0.084 0.345,0.111 0.404,0.25 0,0 0.034,0.079 -0.066,0.064 -0.393,-0.131 -1.002,-0.401 -2.183,-0.295 -1.208,0.144 -2.128,1.105 -2.112,1.2 0,0 0.432,-0.283 0.477,-0.225 z"
     fill="#109421"
     style="stroke:#000000;stroke-width:0.015625"
     id="path12" /><circle
     cx="34.631001"
     cy="15.881001"
     r="0.28600001"
     style="fill:#8c4200;stroke:#000000;stroke-width:0.015625;stroke-linecap:round;stroke-linejoin:round;stroke-miterlimit:33;paint-order:markers fill stroke"
     id="circle12" /><circle
     cx="34.605"
     cy="16.35"
     r="0.28600001"
     style="fill:#8c4200;stroke:#000000;stroke-width:0.015625;stroke-linecap:round;stroke-linejoin:round;stroke-miterlimit:33;paint-order:markers fill stroke"
     id="circle13" /><circle
     cx="34.998001"
     cy="15.774"
     r="0.28600001"
     style="fill:#8c4200;stroke:#000000;stroke-width:0.015625;stroke-linecap:round;stroke-linejoin:round;stroke-miterlimit:33;paint-order:markers fill stroke"
     id="circle14" /><circle
     cx="35.041"
     cy="16.172001"
     r="0.28600001"
     style="fill:#8c4200;stroke:#000000;stroke-width:0.015625;stroke-linecap:round;stroke-linejoin:round;stroke-miterlimit:33;paint-order:markers fill stroke"
     id="circle15" /><path
     d="m 31.59,21.169 q -0.02,0 -0.027,0.017 -0.007,0.015 -0.01,0.041 h -0.03 v -0.41 h 0.03 q 0.005,0.053 0.037,0.053 h 0.728 v 0.035 q -0.04,0.003 -0.04,0.05 v 0.486 q 0,0.02 0.005,0.035 0.005,0.015 0.025,0.015 h 0.012 v 0.035 q -0.335,0.21 -0.794,0.21 -0.155,0 -0.3,-0.043 -0.144,-0.047 -0.255,-0.144 -0.11,-0.096 -0.18,-0.243 -0.066,-0.15 -0.066,-0.348 0,-0.198 0.066,-0.346 0.07,-0.149 0.18,-0.246 0.111,-0.1 0.254,-0.146 0.146,-0.05 0.301,-0.05 0.062,0 0.109,0.003 0.046,0.003 0.09,0.012 0.045,0.009 0.092,0.023 0.047,0.012 0.111,0.033 0.062,0.02 0.114,0.05 0.051,0.026 0.066,0.026 0.02,0 0.035,-0.024 l 0.03,0.012 -0.161,0.386 -0.03,-0.02 q 0.005,-0.018 0.005,-0.032 0,-0.02 -0.042,-0.044 -0.042,-0.027 -0.106,-0.047 -0.064,-0.02 -0.145,-0.035 -0.08,-0.015 -0.156,-0.015 -0.088,0 -0.17,0.03 -0.079,0.026 -0.143,0.084 -0.061,0.059 -0.098,0.147 -0.037,0.085 -0.037,0.205 0,0.117 0.044,0.205 0.044,0.085 0.111,0.14 0.069,0.056 0.153,0.082 0.084,0.026 0.165,0.026 0.104,0 0.185,-0.014 0.084,-0.015 0.16,-0.041 v -0.193 z"
     style="fill:#bd0728;stroke-width:0.0251908;stroke-linecap:round;stroke-linejoin:round;stroke-miterlimit:33;paint-order:markers fill stroke"
     id="path15" /><path
     d="m 33.886,20.26 q 0,-0.022 -0.012,-0.033 -0.009,-0.015 -0.053,-0.021 V 20.17 h 0.478 v 0.036 q -0.044,0.006 -0.055,0.02 -0.01,0.012 -0.01,0.033 v 0.794 q 0,0.195 -0.05,0.328 -0.05,0.134 -0.138,0.213 -0.086,0.08 -0.204,0.113 -0.116,0.03 -0.249,0.03 -0.132,0 -0.25,-0.03 -0.117,-0.033 -0.205,-0.113 -0.086,-0.08 -0.137,-0.213 -0.049,-0.133 -0.049,-0.328 v -0.794 q 0,-0.02 -0.011,-0.032 -0.01,-0.015 -0.054,-0.021 V 20.17 h 0.479 v 0.036 q -0.044,0.006 -0.056,0.02 -0.01,0.012 -0.01,0.033 v 0.794 q 0,0.171 0.077,0.245 0.077,0.074 0.216,0.074 0.14,0 0.216,-0.074 0.076,-0.074 0.077,-0.245 z"
     style="fill:#bd0728;stroke-width:0.0245843;stroke-linecap:round;stroke-linejoin:round;stroke-miterlimit:33;paint-order:markers fill stroke"
     id="path16" /><path
     d="m 35.734,21.671 q 0,0.015 0.008,0.024 0.01,0.006 0.04,0.006 v 0.036 H 35.314 V 21.7 q 0.03,-0.006 0.042,-0.018 0.014,-0.015 0.027,-0.05 l 0.026,-0.081 q 0.021,-0.065 0.056,-0.164 l 0.076,-0.223 0.085,-0.247 0.082,-0.247 0.074,-0.218 q 0.032,-0.095 0.05,-0.155 l 0.021,-0.062 q 0,-0.015 -0.018,-0.021 -0.016,-0.006 -0.035,-0.009 v -0.036 h 0.69 v 0.036 q -0.02,0.003 -0.034,0.009 -0.013,0.006 -0.013,0.03 0,0.006 0.023,0.077 0.027,0.072 0.067,0.188 l 0.09,0.259 0.108,0.295 0.106,0.291 0.095,0.257 q 0.02,0.053 0.034,0.071 0.016,0.018 0.04,0.018 v 0.036 H 36.485 V 21.7 q 0.05,-0.003 0.05,-0.036 l -0.013,-0.039 -0.03,-0.083 -0.03,-0.09 q -0.014,-0.04 -0.017,-0.056 h -0.626 q -0.027,0.08 -0.042,0.131 l -0.027,0.08 -0.013,0.045 -0.003,0.018 z m 0.643,-0.512 -0.257,-0.709 -0.235,0.709 z"
     style="fill:#bd0728;stroke-width:0.0263019;stroke-linecap:round;stroke-linejoin:round;stroke-miterlimit:33;paint-order:markers fill stroke"
     id="path17" /><path
     d="m 38.831,21.712 q 0.048,-0.006 0.059,-0.017 0.012,-0.015 0.012,-0.036 v -1.096 l -0.005,-0.006 -0.453,1.155 -0.447,-1.167 h -0.005 v 1.114 q 0,0.02 0.01,0.036 0.013,0.011 0.061,0.017 v 0.036 h -0.448 v -0.036 q 0.049,-0.006 0.059,-0.017 0.013,-0.015 0.013,-0.036 V 20.27 q 0,-0.02 -0.013,-0.033 -0.01,-0.014 -0.059,-0.02 v -0.036 h 0.664 v 0.036 q -0.06,0.003 -0.06,0.053 l 0.014,0.048 0.039,0.11 0.053,0.143 q 0.03,0.074 0.056,0.146 0.028,0.068 0.048,0.122 0.02,0.054 0.028,0.071 0.043,-0.113 0.09,-0.22 0.047,-0.107 0.08,-0.196 0.039,-0.09 0.062,-0.15 0.022,-0.059 0.022,-0.074 0,-0.05 -0.06,-0.053 v -0.036 h 0.689 v 0.036 q -0.049,0.006 -0.061,0.02 -0.01,0.012 -0.01,0.033 v 1.388 q 0,0.02 0.01,0.036 0.012,0.011 0.06,0.017 v 0.036 h -0.508 z"
     style="fill:#bd0728;stroke-width:0.0257989;stroke-linecap:round;stroke-linejoin:round;stroke-miterlimit:33;paint-order:markers fill stroke"
     id="path18" /></svg>
