<?xml version="1.0" encoding="UTF-8" standalone="no"?>
<svg
   width="900"
   height="540"
   fill="#ee1c25"
   version="1.1"
   id="svg5"
   xmlns:xlink="http://www.w3.org/1999/xlink"
   xmlns="http://www.w3.org/2000/svg"
   xmlns:svg="http://www.w3.org/2000/svg">
  <defs
     id="defs5" />
  <path
     d="M 0,0 H 900 V 540 H 0 Z"
     id="path1"
     style="stroke-width:0.948683" />
  <g
     id="a"
     transform="translate(0,-30)">
    <path
       d="m 492.936,125.196 a 27.917,27.917 0 0 0 -14.902,41.792 45.171,45.171 0 0 1 -20.29,66.204 38.65,38.65 0 0 0 -10.816,64.313 68.375,68.375 0 0 1 -17.068,-93.914 15.81,15.81 0 0 1 -1.109,-1.047 69.88,69.88 0 0 0 16.755,95.793 90.342,90.342 0 0 1 47.43,-173.141"
       fill="#ffffff"
       id="path2" />
    <path
       d="m 451.98,181.1 -27.565,12.021 29.366,6.476 -19.951,-22.5 2.915,29.93"
       id="path3" />
  </g>
  <g
     id="b"
     transform="translate(0,-30)">
    <use
       xlink:href="#a"
       transform="rotate(72,429.35427,285)"
       id="use3" />
    <use
       xlink:href="#a"
       transform="rotate(-144,454.8738,285)"
       id="use4" />
  </g>
  <use
     xlink:href="#b"
     transform="rotate(72,450,270)"
     id="use5" />
</svg>
