<?xml version="1.0" encoding="UTF-8" standalone="no"?>
<svg
   width="500"
   height="300"
   version="1.1"
   id="svg9"
   xmlns:xlink="http://www.w3.org/1999/xlink"
   xmlns="http://www.w3.org/2000/svg"
   xmlns:svg="http://www.w3.org/2000/svg">
  <defs
     id="defs9" />
  <path
     fill="#cf142b"
     d="M 0,0 H 500 V 300 H 0 Z"
     id="path1"
     style="stroke-width:0.912871" />
  <g
     fill="#f9dd16"
     stroke="#000000"
     id="g9"
     transform="translate(-50,-12)">
    <g
       id="a">
      <path
         d="m 225.97,126.346 c 0.22,0.225 2.857,1.819 2.903,1.73 0.046,-0.088 6.903,-1.67 6.857,-1.581 -0.045,0.088 -3.842,4.6 -3.665,4.692 0.176,0.091 3.967,4.63 4.055,4.676 0.088,0.046 -7.18,-0.597 -7.18,-0.597 l -4.807,3.876 -1.076,-5.03 c 0,0 -6.047,-2.134 -6.135,-2.18 -0.088,-0.045 5.175,-1.785 5.175,-1.785 l 1.57,-4.103 c 0,0 2.036,0.387 2.303,0.302 z"
         id="path2" />
      <path
         fill="#ffffff"
         stroke-width="1.3"
         d="m 314.466,136.204 c 0.014,-4.24 -8.335,-23.424 -9.71,-26.374 -2.557,-3.2 -5.263,-8.27 -6.426,-12.647 -0.753,-4.42 -3.117,-7.885 -6.449,-9.06 -3.845,-2.041 -7.6,-1.241 -11.214,-0.927 -1.772,0.377 -3.289,1.334 -4.145,2.744 -1.952,2.792 -3.013,2.58 -4.363,3.782 -11.113,1.732 -21.623,7.467 -29.618,11.376 -4.234,2.939 -7.828,4.646 -9.493,5.005 -4.514,0.017 -7.797,-2.122 -9.365,-3.26 L 208.346,92.897 c -4.43,-3.307 -5.527,1.467 -4.676,2.196 1.48,3.18 -1.723,5.115 10.438,16.57 l 4.606,9.465 c 0,0 -0.255,2.588 -0.041,2.699 2.22,5.289 5.747,3.97 7.412,2.487 l 3.613,-3.291 c 0,0 7.16,-2.267 7.272,-2.48 7.679,1.142 27.465,-2.627 30.727,-4.176 2.94,-1.646 3.128,-0.252 5.675,-2.326 2.13,-1.41 0.959,-0.288 4.893,-3.883 1.211,-1.042 2.17,0.645 2.395,1.824 0.22,11.17 1.587,18.306 2.606,29.443 l 16.733,8.574 z"
         id="path3" />
      <path
         stroke="none"
         d="m 217.839,102.282 c 0.153,0.135 -2.764,9.631 -2.764,9.631 0,0 -2.689,-2.681 -2.666,-2.725 l 1.883,-9.977 z"
         id="path4" />
      <g
         fill="none"
         id="g7">
        <path
           stroke-width="1.13"
           d="m 217.922,101.929 c -0.133,0.642 -0.698,3.504 -0.961,4.287 -0.22,0.866 -0.417,1.74 -0.563,2.607 -0.27,0.948 -0.388,1.568 -0.688,2.543 -0.096,0.835 -0.271,1.619 -0.484,2.455 m -1.851,-16.246 c 0.06,0.123 0.275,0.985 0.307,1.54 -0.102,0.582 -0.264,2.667 -0.487,3.373 a 26.764,26.764 0 0 0 -0.436,2.362 c -0.223,0.857 -0.31,1.42 -0.56,2.3 -0.058,0.76 -0.195,1.47 -0.367,2.226"
           id="path5" />
        <path
           d="m 262.227,96.635 c 3.578,3.982 4.688,10.454 4.04,14.077 m -17.883,9.51 0.065,-0.124 c -0.203,0.39 -0.046,0.167 -0.429,-0.698 -0.406,-0.448 -0.692,-2.625 -0.067,-3.828 0.24,-0.614 0.64,-1.538 0.942,-2.12 0.086,-0.165 0.33,-0.33 0.416,-0.496 m -26.515,-6.177 -0.065,0.124 -0.258,0.498 c -0.335,0.646 -0.787,1.234 -1.094,1.804 -0.324,0.622 -0.823,1.153 -1.147,1.776 -0.415,0.582 -0.78,1.355 -1.21,1.957 -0.402,0.716 -0.85,1.226 -1.244,1.985 -0.34,0.6 -0.614,0.877 -0.966,1.555 l 0.966,-1.555 c -0.34,0.6 -0.614,0.877 -0.966,1.555 m -7.009,-21.82 c 0.062,0.117 0.304,0.93 0.354,1.449 -0.08,0.54 -0.167,2.48 -0.361,3.132 -0.147,0.725 -0.271,1.459 -0.347,2.19 -0.19,0.793 -0.256,1.315 -0.472,2.127 -0.03,0.71 -0.14,1.367 -0.282,2.067 m 16.698,11.933 c -0.84,-0.883 -1.333,-0.56 -1.873,-0.6 -0.598,0.106 -1.684,0.606 -2.787,1.715 -0.403,0.439 -0.741,0.762 -1.274,1.235 -0.24,0.373 -0.437,0.514 -0.702,0.743 m 69.719,-32.889 -0.065,0.125 c 0.203,-0.39 0.056,-0.17 0.24,0.757 0.242,0.64 0.271,1.083 0.539,1.702 m -13.771,0.874 c -0.043,0.083 -0.152,9.118 0.222,10.283 0.112,0.745 0.313,1.37 0.417,2.261 0.001,0.537 0.127,0.987 0.165,1.51 0.306,0.576 0.37,1.155 0.684,1.618 0.153,0.638 0.664,0.664 0.938,1.259 0.382,0.412 1.01,1.139 1.388,1.465 m -10.091,6.339 c -0.278,-0.095 -0.992,-0.66 -1.601,-0.963 -0.687,-0.388 -2.382,-2.41 -2.463,-3.835"
           id="path6" />
        <path
           d="m 275.902,103.13 c -0.022,0.042 -0.942,0.948 -2.448,2.479 -1.927,1.783 -7.17,4.852 -7.8,5.1 -0.604,0.273 -1.358,0.93 -1.954,1.023 -0.685,0.273 -1.368,0.38 -2.016,0.534 -0.791,0.167 -1.462,0.311 -2.076,0.345 -1.843,0.802 -11.554,0.49 -12.055,0.381 a 21.406,21.406 0 0 1 -1.693,-0.088 c -0.462,0.11 -1.009,0.064 -1.633,0.1 -0.755,-0.061 -1.188,0.084 -1.823,0.161 -0.5,0.264 -1.333,0.537 -1.896,0.913 -0.772,0.312 -1.24,0.737 -1.773,0.976 -0.554,0.458 -8.11,4.867 -8.476,5.064 -0.793,0.35 -3.64,1.195 -4.353,-0.807 -0.183,-0.787 -0.546,-1.6 -0.568,-2.202 -0.229,-0.721 -0.099,-1.492 -0.061,-2.165 0.661,-3.41 1.756,-4.753 2.058,-5.335 l 0.323,-0.622 m 70.224,-12.548 -0.065,0.124 c 0.175,-0.336 0.094,-0.16 -0.383,0.434 -0.486,0.392 -1.086,1.014 -1.527,1.42 -0.446,0.441 -0.874,1.066 -1.274,1.235 -0.402,0.526 -0.91,0.692 -1.459,0.982 a 9.901,9.901 0 0 0 -1.896,0.912 c -0.82,0.436 -1.33,0.852 -2.09,1.287 -0.47,0.597 -0.946,0.969 -1.344,1.673 -0.394,0.653 -0.787,1.213 -1.159,1.928 l -0.905,1.744 0.905,-1.744 -0.905,1.744 m 5.789,36.046 0.13,-0.25 c -0.24,0.461 -0.156,0.34 0.069,-0.437 0.002,-0.933 0.223,-2.061 0.233,-2.884 0.14,-0.871 0.282,-1.812 0.291,-2.694 -0.053,-1.032 -0.051,-1.957 -0.205,-2.952 -0.012,-0.916 -0.12,-1.866 -0.147,-2.764 -0.016,-0.889 -0.083,-1.65 -0.276,-2.514 -0.017,-0.646 -0.057,-1.533 -0.215,-2.325 0.085,-0.624 -0.093,-1.198 -0.226,-1.698 -0.241,-0.962 -0.335,-1.523 -0.588,-2.52 -0.153,-0.533 -0.304,-1.216 -0.534,-2.015 -0.083,-0.758 -0.489,-1.742 -0.654,-2.395 -0.225,-0.48 -0.452,-1.13 -0.54,-1.702 -0.235,-0.528 -0.571,-1.171 -0.663,-1.768 -0.248,-0.455 -0.513,-1.162 -0.787,-1.832 -0.237,-0.55 -0.411,-1.228 -0.664,-1.767 -0.254,-0.68 -0.564,-1.262 -0.723,-1.956 -0.243,-0.236 -0.298,-0.494 -0.429,-0.697"
           id="path7" />
      </g>
      <path
         d="m 289.89,91.736 c -0.845,1.932 -3.022,4.754 -3.054,4.816 l -2.072,4.142 c -0.912,2.267 -0.33,3.175 0.068,3.83 0.825,1.455 0.97,2.242 1.58,3.35 0.23,1.383 -2.224,1.849 -2.257,1.911 -5.11,1.773 -7.702,-3.13 -7.729,-3.381 -0.693,-2.573 -0.603,-3 0.963,-3.531 1.796,-0.412 2.517,-0.433 3.406,-1.078 1.682,-1.26 2.87,-5.07 2.902,-5.133 0.032,-0.063 0.252,-2.161 0.252,-2.161 0.131,-1.013 -0.337,-1.94 0.18,-3.543 0.672,-1.548 1.076,-1.97 2.667,-2.093 2.074,-0.188 3.684,1.28 3.094,2.871 z"
         id="path8" />
    </g>
    <use
       xlink:href="#a"
       transform="rotate(120,300,150)"
       id="use8" />
    <use
       xlink:href="#a"
       transform="rotate(-120,300,150)"
       id="use9" />
    <path
       stroke-width="1.3"
       d="m 304.618,169.37 c -1.774,-0.903 -3.127,-1.083 -3.774,-0.646 -1.027,-5.746 -1.932,-11.499 -3.251,-17.227 -10.896,-4.537 -13.199,-5.573 -16.774,-7.127 1.669,-1.085 2.502,-2.167 2.446,-2.945 5.49,1.983 10.925,4.076 16.545,5.797 9.377,-7.167 11.426,-8.644 14.56,-10.963 0.104,1.988 0.625,3.25 1.327,3.592 -4.462,3.762 -8.993,7.422 -13.294,11.43 1.52,11.704 1.773,14.216 2.215,18.089 z"
       id="path9" />
  </g>
</svg>
