<?xml version="1.0" encoding="UTF-8" standalone="no"?>
<svg
   width="630"
   height="378"
   version="1.1"
   id="svg10"
   xmlns:xlink="http://www.w3.org/1999/xlink"
   xmlns="http://www.w3.org/2000/svg"
   xmlns:svg="http://www.w3.org/2000/svg">
  <defs
     id="defs10" />
  <path
     fill="#da0000"
     d="M 0,9 H 630 V 378 H 0 Z"
     id="path1"
     style="stroke-width:1.01242" />
  <path
     fill="#ffffff"
     d="M 0,9 H 630 V 249 H 0 Z"
     id="path2" />
  <path
     fill="#239f40"
     d="M 0,0 H 630 V 129 H 0 Z"
     id="path3"
     style="stroke-width:1.03682" />
  <g
     transform="translate(8.4,109.4)"
     id="g9">
    <g
       id="e">
      <g
         id="c"
         fill="none"
         stroke="#ffffff"
         stroke-width="2">
        <path
           id="b"
           d="M 0,1 H 26 M 1,10 V 5 h 8 v 4 h 8 V 5 H 12 M 4,9 H 6 M 26,9 H 21 V 5 h 8 m 0,-5 v 9 h 8 V 0 m -4,0 v 9"
           transform="scale(1.4)" />
        <path
           id="a"
           d="m 0,7 h 9 m 1,0 h 9"
           transform="scale(2.8)" />
        <use
           xlink:href="#a"
           y="120"
           id="use3" />
        <use
           xlink:href="#b"
           y="145.2"
           id="use4" />
      </g>
      <g
         id="d">
        <use
           xlink:href="#c"
           x="56"
           id="use5" />
        <use
           xlink:href="#c"
           x="112"
           id="use6" />
        <use
           xlink:href="#c"
           x="168"
           id="use7" />
      </g>
    </g>
    <use
       xlink:href="#d"
       x="168"
       id="use8" />
    <use
       xlink:href="#e"
       x="392"
       id="use9" />
  </g>
  <g
     fill="#da0000"
     transform="matrix(45,0,0,45,315,189)"
     id="g10">
    <g
       id="f">
      <path
         d="M -0.548,0.836 A 0.912,0.912 0 0 0 0.329,-0.722 1,1 0 0 1 -0.548,0.836"
         id="path9" />
      <path
         d="M 0.618,0.661 A 0.764,0.764 0 0 0 0.422,-0.74 1,1 0 0 1 0.618,0.661 M 0,1 -0.05,0 0,-0.787 a 0.31,0.31 0 0 0 0.118,0.099 V -0.1 L 0.078,0.893 Z M -0.02,-0.85 0,-0.831 A 0.144,0.144 0 0 0 0.252,-0.968 0.136,0.136 0 0 1 0,-0.925"
         id="path10" />
    </g>
    <use
       xlink:href="#f"
       transform="scale(-1,1)"
       id="use10" />
  </g>
</svg>
