<?xml version="1.0" encoding="UTF-8" standalone="no"?>
<svg
   width="1000"
   height="600"
   viewBox="-120 -80 266.66667 160"
   version="1.1"
   id="svg9"
   xmlns:xlink="http://www.w3.org/1999/xlink"
   xmlns="http://www.w3.org/2000/svg"
   xmlns:svg="http://www.w3.org/2000/svg">
  <defs
     id="defs1">
    <path
       id="a"
       stroke-miterlimit="10"
       d="M -1,55.426 H 1 V -38 c 2,-2 2,-5 2,-8 C 3,-48 3,-56 0,-64.663 -3,-56 -3,-48 -3,-46 c 0,3 0,6 2,8 z"
       transform="rotate(30)" />
  </defs>
  <path
     fill="#ffffff"
     d="M -120,-80 H 146.66666 V 80 H -120 Z"
     id="path1"
     style="display:inline" />
  <path
     d="m -120,-80 h 266.66667 v 48 H -120 Z"
     id="path2"
     style="display:inline;stroke-width:1.05409" />
  <path
     fill="#006600"
     d="M -120,32 H 146.66667 V 80 H -120 Z"
     id="path3"
     style="display:inline;stroke-width:1.05409" />
  <g
     id="b"
     style="display:inline"
     transform="translate(13.33333)">
    <use
       xlink:href="#a"
       stroke="#000000"
       id="use3" />
    <use
       xlink:href="#a"
       fill="#ffffff"
       id="use4" />
  </g>
  <use
     xlink:href="#b"
     transform="matrix(-1,0,0,1,26.66666,0)"
     id="use5"
     style="display:inline" />
  <path
     fill="#bb0000"
     d="M -120,-24 V 24 H -5.66667 c 3,8 13,24 19,24 6,0 16,-16 19,-24 H 146.66666 V -24 H 32.33333 c -3,-8 -13,-24 -19,-24 -6,0 -16,16 -19,24 z"
     id="path5"
     style="display:inline" />
  <path
     id="c"
     d="m 32.33333,24 c 3,-8 5,-16 5,-24 0,-8 -2,-16 -5,-24 -3,8 -5,16 -5,24 0,8 2,16 5,24"
     style="display:inline" />
  <use
     xlink:href="#c"
     transform="matrix(-1,0,0,1,26.66666,0)"
     id="use6"
     style="display:inline" />
  <g
     fill="#ffffff"
     id="g9"
     style="display:inline"
     transform="translate(13.33333)">
    <ellipse
       rx="4"
       ry="6"
       id="ellipse6"
       cx="0"
       cy="0" />
    <path
       id="d"
       d="m 1,5.85 c 0,0 4,8 4,21 0,13 -4,21 -4,21 z" />
    <use
       xlink:href="#d"
       transform="scale(-1)"
       id="use7" />
    <use
       xlink:href="#d"
       transform="scale(-1,1)"
       id="use8" />
    <use
       xlink:href="#d"
       transform="scale(1,-1)"
       id="use9" />
  </g>
</svg>
