<?xml version="1.0" encoding="UTF-8" standalone="no"?>
<svg
   width="900"
   height="540"
   viewBox="-36 -24 72 43.2"
   version="1.1"
   id="svg5"
   xmlns:xlink="http://www.w3.org/1999/xlink"
   xmlns="http://www.w3.org/2000/svg"
   xmlns:svg="http://www.w3.org/2000/svg">
  <defs
     id="defs5" />
  <path
     d="M -36,-24 H 36 V 19.2 H -36 Z"
     fill="#ffffff"
     id="path1"
     style="stroke-width:0.948683" />
  <g
     transform="rotate(-56.31,-2.2422173,-1.2)"
     id="g4">
    <g
       id="b">
      <path
         id="a"
         d="M -6,-26 H 6 v 2 H -6 Z m 0,3 H 6 v 2 H -6 Z m 0,3 H 6 v 2 H -6 Z" />
      <use
         xlink:href="#a"
         y="44"
         id="use1" />
    </g>
    <path
       stroke="#ffffff"
       d="M 0,17 V 27"
       id="path2" />
    <path
       fill="#cd2e3a"
       d="M 0,-12 A 12,12 0 0 1 0,12 Z"
       id="path3" />
    <path
       fill="#0047a0"
       d="M 0,-12 A 12,12 0 0 0 0,12 6,6 0 0 0 0,0 Z"
       id="path4" />
    <circle
       cy="-6"
       fill="#cd2e3a"
       r="6"
       id="circle4"
       cx="0" />
  </g>
  <g
     transform="rotate(-123.69,-0.64222142,-1.2)"
     id="g5">
    <use
       xlink:href="#b"
       id="use4" />
    <path
       stroke="#ffffff"
       d="m 0,-23.5 v 3 M 0,17 v 3.5 m 0,3 v 3"
       id="path5" />
  </g>
</svg>
