<?xml version="1.0" encoding="UTF-8" standalone="no"?>
<svg
   width="1000"
   height="600"
   version="1.1"
   id="svg66"
   xmlns:xlink="http://www.w3.org/1999/xlink"
   xmlns="http://www.w3.org/2000/svg"
   xmlns:svg="http://www.w3.org/2000/svg">
  <defs
     id="defs66">
    <clipPath
       id="a-9">
      <path
         d="M 0,0 V 30 H 60 V 0 Z"
         id="path1-5" />
    </clipPath>
    <clipPath
       id="b-0">
      <path
         d="m 30,15 h 30 v 15 z m 0,0 V 30 H 0 Z m 0,0 H 0 V 0 Z m 0,0 V 0 h 30 z"
         id="path2-2" />
    </clipPath>
  </defs>
  <clipPath
     id="a">
    <path
       d="M 0,0 V 150 H 700 V 300 H 600 Z M 600,0 H 300 V 350 H 0 v -50 z"
       id="path1" />
  </clipPath>
  <path
     fill="#012169"
     d="M 0,0 H 1000 V 600 H 0 Z"
     id="path2"
     style="stroke-width:0.912871" />
  <g
     stroke="#000000"
     stroke-width="1.438"
     id="g66"
     transform="translate(-144)">
    <g
       stroke="#ffffff"
       stroke-width="9.6"
       stroke-linejoin="round"
       id="g13">
      <use
         xlink:href="#b"
         id="use7" />
      <use
         xlink:href="#c"
         id="use8" />
      <use
         xlink:href="#d"
         id="use9" />
      <use
         xlink:href="#e"
         id="use10" />
      <use
         xlink:href="#f"
         id="use11" />
      <use
         xlink:href="#g"
         id="use12" />
      <use
         xlink:href="#h"
         id="use13" />
    </g>
    <g
       id="c"
       fill="#fcea83">
      <path
         d="m 754.417,449.563 c 2.875,7.668 23.483,17.732 47.444,4.792 16.294,-9.105 26.838,-22.044 36.901,-45.048 2.876,-5.75 4.313,-12.94 -2.396,-17.252 -5.271,-3.834 -13.898,-8.147 -17.732,-11.981 -1.916,-1.917 -3.833,-3.355 -5.271,-4.793 0.958,0.959 1.917,1.917 2.875,3.355 9.585,11.502 -0.479,28.275 -11.022,38.339 -7.668,7.188 -21.566,24.92 -41.694,8.147 -4.313,-3.834 -14.377,11.98 -9.105,24.44 z m 291.373,0 c -3.355,7.668 -23.962,17.732 -47.444,4.792 -16.294,-9.105 -26.838,-22.044 -37.38,-45.048 -2.397,-5.75 -3.835,-12.94 2.875,-17.252 5.271,-3.834 13.898,-8.147 17.731,-11.981 1.917,-1.917 3.355,-3.355 5.272,-4.793 -0.959,0.959 -1.917,1.917 -2.875,3.355 -9.585,11.502 0.479,28.275 10.543,38.339 7.667,7.188 22.045,24.92 42.172,8.147 4.314,-3.834 13.898,11.98 9.106,24.44 z"
         id="path13" />
      <path
         d="m 900.105,490.778 c 38.339,0 97.285,-17.253 128.914,-77.636 5.272,-10.064 0,-15.336 -6.23,-18.69 -6.71,-2.876 -14.856,-9.585 -19.17,-13.898 7.668,7.668 6.23,12.94 0.96,21.566 -24.442,40.735 -57.988,61.342 -104.474,61.342 -46.486,0 -80.032,-20.607 -104.473,-61.342 -5.271,-8.627 -6.71,-13.898 0.48,-21.566 -3.835,4.313 -12.46,11.022 -19.17,13.898 -6.23,3.354 -11.502,8.626 -6.23,18.69 31.63,60.384 91.054,77.636 129.394,77.636 z"
         id="path14" />
    </g>
    <g
       id="d"
       fill="#c8102e">
      <path
         d="m 811.446,409.787 c -0.958,-4.792 -7.189,-2.875 -9.105,2.875 -2.397,-3.354 -4.793,-6.709 -6.71,-10.543 -5.75,-8.626 -6.71,-14.377 1.438,-22.524 3.834,-3.834 11.502,-8.147 16.773,-3.355 11.023,9.106 5.272,23.962 -2.396,33.547 z m 176.838,0 c 0.958,-4.792 7.668,-2.875 9.585,2.875 2.396,-3.354 4.792,-6.709 6.709,-10.543 5.75,-8.626 6.71,-14.377 -1.917,-22.524 -3.355,-3.834 -11.022,-8.147 -16.773,-3.355 -10.543,9.106 -5.272,23.962 2.396,33.547 z m -233.867,39.776 c -4.792,-7.189 -8.626,-25.879 -9.585,-30.671 -1.437,-4.313 -1.917,-8.147 3.355,-10.064 5.272,-1.917 10.064,4.792 12.46,10.543 2.396,5.751 6.23,14.377 10.543,24.92 -10.543,-6.23 -19.17,-1.917 -16.773,5.272 z m 291.373,0 c 4.313,-7.189 8.147,-25.879 9.585,-30.671 0.958,-4.313 1.917,-8.147 -3.355,-10.064 -5.271,-1.917 -10.064,4.792 -12.46,10.543 -2.396,5.751 -6.23,14.377 -10.543,24.92 10.543,-6.23 18.69,-1.917 16.773,5.272 z"
         id="path15" />
    </g>
    <g
       fill="#00493d"
       stroke="none"
       id="g19">
      <path
         d="m 782.213,406.432 -3.834,1.917 c -0.958,0.48 -0.958,1.438 -0.958,1.917 h -0.48 l -1.917,-4.313 h 0.48 c 0,0.479 0.479,0.958 1.437,0.479 l 8.147,-4.313 c 0.959,-0.48 0.959,-0.959 0.48,-1.438 l 0.479,-0.48 2.396,4.793 h -0.48 c -0.478,-0.479 -0.958,-0.958 -1.916,-0.479 l -3.355,1.917 1.438,2.875 3.834,-1.437 c 0.958,-0.48 0.48,-1.438 0.48,-1.917 h 0.478 l 1.917,4.313 c -0.479,-0.48 -0.958,-0.959 -1.917,-0.48 l -8.147,4.314 c -0.958,0.479 -0.958,0.958 -0.479,1.437 l -0.48,0.48 -2.395,-4.313 0.479,-0.48 c 0.48,0.48 0.958,0.959 1.917,0.48 l 3.834,-1.917 z m 8.147,6.23 c 0.958,-0.48 0.958,-0.958 0.48,-1.917 h 0.478 l 4.793,7.189 -3.355,2.396 v -0.48 c 1.917,-1.437 1.917,-3.354 1.438,-3.833 -0.48,-0.48 -0.959,-0.959 -0.959,-1.438 -0.479,0 -0.479,-0.48 -1.437,0.48 -0.48,0.478 -3.355,2.395 -3.355,2.395 0.48,0.48 0.959,1.917 3.355,0.48 h 0.479 l -5.272,3.833 v -0.479 c 2.397,-1.917 1.438,-3.354 0.959,-3.834 l -3.355,2.397 c -0.958,0.479 -0.958,0.958 -0.958,1.437 0.479,0 0.479,0.48 0.958,0.959 0.48,0.958 1.917,1.917 4.313,0.958 l 0.48,0.48 -3.834,1.437 -4.793,-7.668 h 0.48 c 0.479,0.48 0.958,0.959 1.916,0.48 z m 7.667,18.211 -3.355,2.875 c -0.479,0.48 -0.479,1.438 0,1.917 h -0.479 l -3.355,-3.354 0.48,-0.48 c 0.479,0.48 0.958,0.959 1.917,0 l 6.23,-6.23 c 0.958,-0.479 0.958,-0.958 0.479,-1.917 l 3.355,3.834 c -0.48,-0.479 -1.438,-0.479 -1.917,0 l -2.876,2.876 2.396,2.396 2.876,-2.396 c 0.958,-0.959 0.48,-1.438 0,-1.917 l 0.48,-0.48 3.354,3.834 h -0.48 c -0.479,0 -0.958,-0.479 -1.916,0.48 l -6.23,5.75 c -0.959,0.959 -0.959,1.438 -0.48,1.917 v 0.48 l -3.354,-3.834 c 0.479,0 1.437,0.48 1.917,0 l 3.354,-3.355 z m 7.189,10.064 1.438,1.438 1.917,-4.313 c 0,0 -1.438,0.479 -3.834,1.917 l 0.479,0.958 -0.48,0.48 -0.958,-0.96 c -0.479,0.48 -0.958,0.48 -1.437,0.96 -1.438,0.958 -0.959,1.437 -0.48,1.916 v 0.48 l -2.396,-2.397 h 0.48 l 1.916,-0.479 9.585,-5.272 0.48,0.48 c 0,0 -0.48,0.479 -4.793,10.064 0,0.958 -0.48,1.437 0,2.396 l -3.834,-3.355 0.48,-0.48 c 0.479,0.96 1.437,0.96 1.916,0 0,-0.478 0.48,-1.437 0.48,-1.916 l -1.438,-1.438 z m 3.834,9.585 0.48,-0.48 c 0.478,0.48 0.958,0.48 1.916,0 l 6.23,-8.146 -0.479,-0.48 c -0.958,-0.479 -2.396,-0.479 -3.834,0.959 v -0.48 l 1.917,-2.395 7.189,5.271 -2.397,2.876 h -0.479 c 1.438,-1.438 0.959,-3.355 0,-3.834 v -0.48 l -6.23,8.147 c -0.958,0.48 -0.48,1.438 0,1.917 h -0.48 z"
         id="path16" />
      <path
         d="m 821.51,452.439 -2.396,3.355 c -0.48,0.958 0,1.437 0.479,1.917 l -0.48,0.479 -3.833,-2.876 v -0.479 c 0.958,0.48 1.438,0.48 1.917,-0.48 l 5.271,-7.188 c 0.48,-0.958 0,-1.437 -0.479,-1.917 l 0.48,-0.479 3.833,2.876 v 0.479 c -0.958,-0.48 -1.437,-0.48 -1.917,0.48 l -2.396,3.354 2.876,1.917 2.396,-3.355 c 0.48,-0.958 0,-1.438 -0.48,-1.917 l 0.48,-0.48 3.834,2.876 v 0.48 c -0.48,-0.48 -1.438,-0.48 -1.917,0.479 l -4.793,7.668 c -0.958,0.479 -0.479,0.958 0,1.437 v 0.48 l -4.313,-2.876 h 0.48 c 0.479,0 0.958,0 1.437,-0.48 l 2.396,-3.833 z m 9.585,13.418 0.48,-0.48 c 0.478,0.48 1.437,0.48 1.916,-0.478 l 3.834,-8.147 c 0.48,-0.959 0,-1.438 -0.48,-1.917 l 8.148,3.833 -1.917,3.834 -0.48,-0.479 c 1.438,-1.917 0,-3.834 -0.479,-4.313 -0.479,0 -0.958,-0.48 -1.437,-0.48 -0.479,0 -0.48,0 -0.959,0.96 -0.479,0.478 -1.917,3.354 -1.917,3.354 0.48,0.48 1.438,1.438 3.355,-0.959 h 0.48 l -2.876,5.751 -0.48,-0.479 c 1.438,-2.875 -0.479,-3.355 -0.958,-3.355 l -1.917,3.834 c -0.48,0.959 0,1.438 0.48,1.438 v 0.48 z m 13.897,6.71 c -1.438,-0.958 -1.438,-3.834 0,-6.71 0.958,-2.875 2.875,-5.27 4.792,-4.312 1.438,0.479 0.959,3.354 0,6.23 -1.437,3.354 -3.354,5.271 -4.792,4.792 h -0.48 c 3.355,1.438 5.752,-0.48 7.19,-3.834 1.437,-2.875 0.958,-6.23 -1.918,-7.668 -2.875,-1.437 -5.75,0.48 -7.188,3.834 -1.438,3.355 -0.959,6.71 1.917,7.668 z m 14.857,0.958 1.917,-5.75 c 0.48,-0.96 0,-1.439 -0.48,-1.918 l 2.397,0.48 v 0.479 c -0.48,0 -0.959,0 -1.438,0.958 l -1.917,5.751 c -0.958,2.396 -2.396,4.313 -5.271,3.355 -1.917,-0.48 -3.355,-2.876 -2.397,-5.272 l 2.397,-6.23 c 0.479,-0.958 0,-1.438 -0.48,-1.917 v -0.48 l 4.314,1.918 v 0.479 c -0.48,-0.48 -1.438,-0.48 -1.438,0.48 l -2.396,6.23 c -0.48,1.916 -0.48,3.833 0.958,4.312 1.438,0.48 2.876,-0.479 3.834,-2.875 z"
         id="path17" />
      <path
         d="m 864.162,467.295 c 0,-0.48 0,-0.48 -0.48,-0.48 l 3.355,0.48 2.876,9.105 1.438,-5.75 c 0.479,-0.959 0,-1.438 -0.48,-1.917 l 2.876,0.479 -0.48,0.48 c -0.479,0 -0.958,0 -1.437,0.958 l -2.396,10.543 h -0.48 l -3.834,-11.502 -2.396,7.668 c 0,1.438 0.48,1.438 0.959,1.917 v 0.48 l -2.876,-0.96 v -0.479 c 0.48,0.48 1.438,0 1.438,-0.958 l 2.396,-8.626 z"
         id="path18" />
      <path
         d="m 880.456,476.88 c -0.958,4.313 -2.875,5.272 -3.834,5.272 h -0.958 c 0,0 -0.48,-0.48 0,-0.959 l 1.437,-9.585 c 0.48,-0.479 0.48,-0.958 0.959,-0.479 h 0.958 c 0.959,0 1.917,1.917 1.438,5.751 l 1.438,0.48 c 0.958,-4.793 -0.959,-6.71 -3.355,-7.19 -1.917,-0.479 -4.792,-0.958 -4.792,-0.958 v 0.48 c 0.479,0.479 1.437,0.479 0.958,1.916 l -1.438,8.627 c -0.479,0.958 -0.958,1.437 -1.437,1.437 h -0.48 l 4.793,0.959 c 2.396,0.48 4.792,0 5.75,-5.272 z m 4.313,-3.834 c 0,-0.958 -0.958,-1.438 -1.438,-1.438 v -0.479 l 8.627,0.959 -0.48,3.833 c 0,-2.396 -1.437,-3.354 -2.396,-3.354 -0.48,-0.48 -0.958,-0.48 -1.438,-0.48 -0.479,0 -0.479,0 -0.479,1.438 0,0.48 -0.48,3.834 -0.48,3.834 0.48,0 1.918,0.48 2.876,-2.396 l -0.479,6.23 h -0.48 c 0,-2.875 -1.437,-2.875 -1.916,-2.875 l -0.48,4.313 c 0,0.958 0,0.958 0.48,0.958 l 0.958,0.48 c 1.438,0 2.876,-0.48 3.834,-3.355 h 0.48 l -0.959,3.834 -9.105,-0.959 c 0.958,0 1.437,-0.48 1.917,-1.438 z m 15.815,5.751 c 0,4.313 -1.438,5.75 -2.875,5.75 -0.48,-0.478 -0.48,-0.478 -0.959,-0.478 l -0.48,-0.48 0.48,-10.064 c 0,-0.479 0,-0.479 0.48,-0.479 h 0.958 c 0.958,0 2.396,1.438 2.396,5.751 h 1.917 c 0,-4.792 -2.396,-6.23 -4.792,-6.23 -1.917,-0.48 -4.793,-0.48 -4.793,-0.48 v 0.48 c 0.48,0 1.438,0.48 1.438,1.438 l -0.48,9.105 c 0,0.959 -0.479,1.438 -0.958,1.438 v 0.48 h 4.313 c 2.397,0 4.793,-0.96 5.272,-6.231 z m 13.898,3.834 c 0,0.958 0.48,0.958 1.438,0.958 v 0.48 l -5.272,0.479 c 0.48,-0.48 1.438,-0.959 1.438,-1.917 l -0.959,-9.105 c -0.479,-0.959 -0.958,-0.959 -1.917,-0.959 v -0.48 l 5.272,-0.478 c -0.48,0.479 -1.438,0.958 -0.958,1.917 z m 4.792,0.958 v -0.48 c 0.48,0 0.958,-0.478 0.958,-1.437 l -1.916,-10.064 h -0.48 c -0.958,0.48 -1.917,1.438 -1.437,3.355 h -0.48 l -0.479,-3.355 8.626,-1.438 0.48,3.355 h -0.48 c 0,-1.917 -1.437,-2.396 -2.875,-2.396 h -0.48 l 1.918,10.064 c 0,0.958 0.479,1.438 1.437,1.438 v 0.479 z m 20.607,-9.585 -1.917,-5.75 c 0,-0.96 -0.958,-0.96 -1.438,-0.96 v -0.479 l 2.397,-0.958 v 0.48 c -0.48,0.478 -0.48,0.478 -0.48,1.437 l 1.917,6.23 c 0.48,1.917 0.48,4.792 -2.396,5.75 -1.917,0.48 -4.313,-0.478 -4.792,-3.354 l -1.917,-6.23 c -0.48,-0.958 -0.959,-0.958 -1.438,-0.958 l -0.48,-0.48 4.793,-1.437 v 0.479 c -0.48,0.48 -0.958,0.958 -0.48,1.917 l 1.439,6.23 c 0.479,1.917 1.917,2.875 3.354,2.875 1.438,-0.479 1.917,-2.396 1.438,-4.792 z m 5.272,-3.354 c 2.396,-0.958 1.917,-2.396 1.438,-3.834 -0.48,-1.438 -1.438,-2.396 -2.396,-1.917 -0.48,0 -0.959,0.48 -0.48,0.959 l 1.438,4.792 0.48,0.48 0.958,3.833 c 0.479,0.959 1.437,0.959 1.917,0.48 v 0.479 l -4.313,1.917 -0.48,-0.48 c 0.959,-0.479 0.959,-0.958 0.959,-1.917 l -3.355,-8.147 c -0.48,-1.437 -0.958,-0.958 -1.917,-0.958 v -0.48 l 4.793,-1.916 c 1.916,-0.48 3.833,0 4.792,1.917 0.48,2.396 -0.48,3.834 -2.396,4.792 -0.48,0 -0.959,0.48 -0.959,0.48 z m 11.981,1.437 c -1.438,0.48 -3.355,-1.438 -4.792,-4.792 -1.438,-2.876 -1.438,-5.751 0,-6.23 1.437,-0.48 3.354,1.437 4.792,4.313 1.438,2.876 1.438,5.75 0,6.709 2.875,-0.958 3.834,-4.313 2.396,-7.668 -1.438,-2.875 -4.313,-4.792 -7.188,-3.834 -2.876,1.438 -3.834,4.793 -2.397,7.668 1.438,3.355 4.314,5.272 7.189,3.834 z m 0.479,-13.418 h -0.958 l 2.875,-1.917 8.626,4.792 -2.875,-5.271 c -0.48,-0.959 -1.438,-0.959 -1.917,-0.959 v -0.479 l 2.396,-0.958 c -0.48,0.479 -0.958,0.958 0,1.917 l 4.792,9.584 -0.479,0.48 -10.543,-5.751 3.834,7.188 c 0.479,0.959 1.438,0.959 1.917,0.48 v 0.479 l -2.396,1.437 v -0.479 c 0.479,-0.48 0.479,-0.958 0,-1.917 l -3.834,-7.668 z m 21.565,1.438 v -0.48 c 0,-0.478 0.48,-0.958 0,-1.916 l -5.75,-8.147 h -0.48 c -0.959,0.48 -1.438,2.396 0,3.834 l -0.48,0.479 -1.916,-3.355 7.188,-4.792 1.917,2.875 c -1.437,-1.437 -2.875,-1.437 -3.834,-0.958 l -0.479,0.48 5.75,8.146 c 0.48,0.959 1.439,0.959 1.918,0.48 v 0.479 z m 5.272,-11.502 2.875,3.355 c 0.48,0.479 1.438,0.479 1.917,0 v 0.479 l -3.834,3.355 v -0.48 c 0.48,-0.479 0.48,-0.958 0,-1.917 l -5.75,-7.188 c -0.48,-0.959 -0.959,-0.48 -1.917,-0.48 l 3.834,-3.354 v 0.48 c 0,0.478 -0.48,0.958 0,1.916 l 2.396,2.876 2.875,-1.917 -2.396,-3.355 c -0.48,-0.959 -1.438,-0.48 -1.917,-0.48 l 3.834,-3.354 v 0.48 c -0.48,0.479 -0.48,0.958 0,1.916 l 5.75,7.189 c 0.48,0.479 0.96,0.479 1.438,0 l 0.48,0.479 -3.834,3.355 -0.48,-0.48 c 0.48,-0.479 0.96,-0.958 0.48,-1.917 l -2.876,-3.354 z m 4.313,-10.064 c -0.48,-0.48 -1.438,-0.48 -1.917,0 v -0.48 l 6.23,-5.75 2.876,2.875 h -0.48 c -1.437,-1.917 -3.354,-0.958 -4.313,-0.479 0,0.48 -0.48,0.48 -0.958,0.959 0,0 0,0.479 0.479,1.437 l 2.875,2.876 c 0.48,-0.48 1.917,-1.438 0,-3.834 h 0.48 l 3.833,4.313 v 0.48 c -2.396,-2.397 -3.354,-0.96 -3.833,-0.48 l 2.875,2.875 c 0.48,0.959 0.958,0.959 0.958,0.959 l 1.438,-1.438 c 0.48,-0.48 0.959,-1.917 0,-4.792 h 0.48 l 1.916,3.354 -6.23,6.23 -0.479,-0.479 c 0.48,-0.479 0.959,-0.958 0,-1.917 z m 11.497,-13.419 c -0.48,0.48 -0.48,1.438 0.48,1.917 0.958,0.958 1.916,0.958 3.833,0 0.959,-0.48 2.876,-0.959 4.313,0.48 2.396,2.395 1.438,4.312 0.959,5.27 -0.48,0.48 -1.438,0.96 -1.917,1.438 -0.48,0 -0.48,0 -0.48,0.48 v 0.479 l -3.354,-2.875 h 0.48 c 1.916,0.958 3.833,1.437 4.791,0 0.959,-0.959 0,-1.917 -0.479,-2.397 -0.958,-0.958 -1.917,-0.958 -3.354,0 -1.438,0.48 -3.355,0.48 -4.793,-0.479 -1.917,-1.917 -1.917,-3.355 -0.958,-4.792 0.479,-0.48 1.438,-0.959 1.917,-1.438 0.479,0 0.479,0 0,-0.958 l 3.354,2.396 h -0.479 c -2.396,-0.959 -3.834,-0.48 -4.313,0.479 z m 4.32,-3.834 c -0.958,-0.48 -1.438,0 -1.917,0.48 h -0.48 l 5.273,-7.669 3.354,2.397 -0.48,0.479 c -1.916,-1.438 -3.833,-0.48 -4.312,0 0,0.48 -0.48,0.958 -0.48,1.438 -0.479,0 -0.479,0.479 0.48,0.958 0.479,0.48 3.354,2.396 3.354,2.396 0.48,-0.479 1.438,-1.437 -0.479,-3.354 v -0.48 l 4.792,3.834 c -2.875,-1.437 -3.354,0 -3.833,0.48 l 3.354,2.396 c 0.959,0.479 1.438,0.479 1.438,0.479 0,-0.48 0.48,-0.959 0.958,-1.438 0.48,-0.958 0.959,-2.396 -0.958,-4.313 l 0.48,-0.48 2.395,2.876 -4.792,7.189 h -0.48 c 0.48,-0.959 0.48,-1.438 -0.478,-2.396 z m 12.94,-8.626 -1.438,2.396 c -1.917,-1.917 -2.875,-3.354 -2.875,-3.354 l 4.313,0.958 h 0.959 c 0.479,0 1.437,0.48 1.916,0.48 1.438,0.478 0.959,0.958 0.48,1.916 h 0.479 l 2.396,-4.313 c -0.958,0.959 -1.438,0.48 -2.396,0.48 -10.064,-1.918 -11.023,-2.397 -11.023,-2.397 v 0.48 l 7.668,8.626 c 0.48,0.479 0.48,1.437 0.48,1.917 h 0.479 l 1.437,-2.397 -0.479,-0.479 c -0.48,0.959 -0.958,1.438 -1.917,0 l -0.958,-0.958 1.437,-3.355 z m -2.88,-10.543 c -0.48,0.48 -0.48,1.438 0.959,1.917 1.437,0.48 1.916,0 3.354,-0.959 1.438,-0.958 2.875,-1.916 4.792,-0.958 2.876,1.438 2.397,3.834 1.917,4.792 -0.479,0.48 -0.958,1.438 -1.437,1.917 v 0.959 l -3.834,-1.917 c 2.396,0.48 4.313,0 4.792,-1.438 0.48,-0.958 -0.48,-1.917 -0.958,-2.396 -0.959,-0.48 -1.917,0 -3.355,0.958 -1.438,1.438 -2.875,1.917 -4.792,0.959 -1.917,-0.959 -2.876,-2.396 -1.917,-3.834 0,-0.958 0.958,-1.438 1.438,-1.917 0,-0.48 0,-0.48 -0.48,-0.958 v -0.48 l 3.834,1.917 h -0.48 c -2.395,-0.479 -3.833,0.48 -3.833,1.438 z"
         id="path19" />
    </g>
    <g
       id="e"
       fill="#073163">
      <path
         fill="#ffffff"
         d="m 863.203,232.47 c -6.23,1.438 -10.543,1.917 -16.294,-3.355 -3.834,-3.834 -2.875,-10.543 0.958,-12.94 4.314,-2.874 8.147,-4.791 13.42,-3.354 5.27,1.438 19.168,14.377 15.814,14.857 -3.355,0 -8.626,3.354 -13.898,4.792 z m 14.857,-23.004 c 1.917,-1.438 4.313,-2.396 10.543,-2.875 5.751,-0.48 10.064,-0.48 11.502,3.833 1.917,5.272 3.354,11.502 7.188,14.378 -2.396,1.437 -14.377,2.875 -18.69,0.479 -5.75,-2.876 -7.188,-13.898 -10.543,-15.815 z m 41.214,0.48 c 1.917,-1.438 4.313,-1.438 10.543,-0.958 6.23,0.479 8.626,0.958 10.064,5.271 1.438,4.792 0,11.023 2.876,15.336 -2.876,0.958 -12.46,0.958 -15.815,-2.397 -5.272,-3.833 -4.793,-14.856 -7.668,-17.252 z"
         id="path20" />
      <path
         d="m 948.028,212.821 c -4.313,-0.958 -7.189,-1.438 -9.105,0 2.396,2.875 0.479,14.377 5.271,18.21 3.355,2.397 11.981,2.876 13.898,-2.395 2.396,-4.793 2.396,-11.981 -10.064,-15.815 z m -49.361,-4.792 c 1.438,-1.438 4.313,-1.917 10.064,-1.917 6.23,0 10.064,0.959 11.98,4.792 1.918,4.793 1.439,11.023 4.793,14.857 -1.438,1.917 -14.377,1.917 -18.21,-0.959 -5.272,-3.354 -5.752,-14.377 -8.627,-16.773 z m -40.735,4.313 c 0,-2.396 3.355,-2.875 11.98,-3.355 8.627,-0.958 9.106,-0.479 11.982,5.751 1.438,3.355 3.354,9.106 7.188,11.023 -10.543,2.396 -13.897,3.833 -19.648,0.479 -4.313,-2.396 -9.106,-8.147 -10.064,-10.543 -0.48,-1.438 -0.48,-2.876 -1.438,-3.355 z"
         id="path21" />
    </g>
    <g
       fill="#f9d050"
       stroke-width="0.647"
       id="g41">
      <g
         id="g">
        <path
           d="m 880.935,163.46 c -10.064,-7.668 -22.045,-14.856 -33.067,-16.294 7.188,4.313 27.316,20.128 32.588,25.4"
           id="path22" />
        <path
           d="m 886.686,156.271 c -11.98,-8.147 -25.879,-17.253 -39.297,-18.21 10.064,5.27 24.92,17.73 33.067,27.795 m 21.565,-23.003 c 6.71,-14.856 13.898,-23.003 23.483,-32.109 -4.793,10.064 -10.065,30.671 -12.46,38.818"
           id="path23" />
        <path
           d="m 912.565,140.457 c 4.792,-10.543 11.98,-19.649 24.441,-25.4 -6.23,6.23 -15.815,24.92 -18.211,34.985"
           id="path24" />
        <path
           d="m 916.878,150.041 c 5.75,-8.147 17.253,-23.483 37.86,-31.63 -11.981,11.981 -29.713,34.026 -34.026,42.652 m 2.875,-0.479 c 8.626,-4.792 25.879,-12.46 38.339,-10.064 -7.668,2.876 -30.671,13.419 -40.735,23.003"
           id="path25" />
        <path
           d="m 921.67,157.23 c 8.147,-8.626 23.003,-21.566 38.818,-26.837 -11.502,11.022 -35.943,35.942 -39.297,39.776 m -22.524,-18.211 c -5.75,-17.732 -14.377,-34.505 -27.316,-39.776 7.188,10.543 16.294,25.878 21.086,48.881 m -4.793,-9.584 c -9.585,-11.502 -22.524,-23.003 -37.38,-25.4 10.063,5.751 26.837,22.525 33.067,38.819"
           id="path26" />
        <path
           d="m 892.916,151 c -11.98,-21.566 -21.086,-25.4 -26.358,-29.713 4.313,8.147 14.856,29.713 21.087,38.819"
           id="path27" />
        <path
           fill="none"
           d="m 868.954,149.562 c 5.75,3.355 14.377,11.502 17.253,16.773"
           id="path28" />
        <path
           d="m 868.954,159.626 c 2.875,2.396 8.147,5.272 12.94,9.585 m 44.089,-2.397 c 4.792,-3.834 15.335,-10.064 20.607,-11.98 m -23.961,8.626 c 4.792,-6.23 14.377,-14.856 17.732,-17.732 m -4.314,-11.981 c -4.313,4.792 -14.377,16.773 -18.21,22.524 m 5.75,-26.837 c -3.355,4.313 -10.064,16.773 -11.98,21.086 m -25.88,-20.127 c 2.875,7.668 8.147,20.607 10.064,25.879 M 881.414,138.54 c 1.917,2.875 5.75,9.585 7.189,14.377"
           id="path29" />
      </g>
      <g
         id="h">
        <path
           d="m 897.708,136.143 c 0,-4.313 2.875,-9.105 5.75,-9.105 3.355,0 5.752,5.75 5.752,9.105 0,3.834 -2.876,7.189 -5.751,7.189 -2.875,0 -5.751,-2.876 -5.751,-7.189 z"
           id="path30" />
        <path
           d="m 891.478,139.977 c 0.48,-4.792 3.834,-8.626 6.71,-8.147 2.875,0.48 4.312,6.23 3.833,9.585 -0.48,3.834 -3.834,6.709 -6.23,6.23 -2.396,0 -4.792,-3.355 -4.313,-7.668 z m 12.94,1.438 c -0.958,-4.313 0.958,-9.105 3.834,-9.585 2.875,-0.479 5.75,4.313 6.23,8.147 0.958,3.834 -1.438,7.668 -3.834,7.668 -2.396,0.48 -5.75,-1.917 -6.23,-6.23 z"
           id="path31" />
        <path
           d="m 897.229,145.249 c 0,-4.792 2.875,-9.105 5.75,-9.105 3.355,0 5.752,5.271 5.752,9.105 0,3.834 -2.876,7.189 -5.751,7.189 -2.876,0 -5.751,-2.876 -5.751,-7.189 z"
           id="path32" />
        <path
           d="m 888.603,147.645 c 0,-4.313 3.355,-9.105 6.23,-9.105 2.875,0 5.75,5.75 5.75,9.105 0,3.834 -3.354,7.189 -5.75,7.189 -2.875,0 -6.23,-2.876 -6.23,-7.189 z m 17.732,-1.917 c 0,-4.313 2.875,-9.105 5.75,-9.105 3.355,0 5.752,5.75 5.752,9.105 0,3.834 -2.876,7.189 -5.751,7.189 -2.875,0 -5.751,-2.876 -5.751,-7.189 z"
           id="path33" />
        <path
           d="m 904.418,149.562 c 0,-4.792 3.355,-9.105 6.23,-9.105 2.875,0 5.75,5.271 5.75,9.105 0,3.834 -2.875,7.189 -5.75,7.189 -2.875,0 -6.23,-2.876 -6.23,-7.189 z"
           id="path34" />
        <path
           d="m 896.75,153.875 c 0,-4.792 2.875,-9.105 5.75,-9.105 3.355,0 5.752,5.75 5.752,9.105 0,3.834 -2.876,7.189 -5.751,7.189 -2.875,0 -5.751,-2.876 -5.751,-7.189 z m -11.981,0 c 0,-4.792 2.396,-9.105 4.792,-9.105 2.397,0 4.313,5.75 4.313,9.105 0,3.834 -2.396,7.189 -4.313,7.189 -2.396,0 -4.792,-2.876 -4.792,-7.189 z m 26.837,-0.958 c 0,-4.313 2.396,-8.626 4.792,-8.626 2.397,0 4.793,5.271 4.793,8.626 0,4.313 -2.876,7.189 -4.793,7.189 -2.396,0 -4.792,-2.876 -4.792,-7.189 z"
           id="path35" />
        <path
           d="m 914.482,161.064 c 0.958,-4.792 3.834,-8.626 5.75,-8.147 1.918,0.48 2.397,6.23 1.439,9.585 -0.48,4.313 -3.355,6.709 -5.272,6.23 -1.917,-0.48 -2.875,-3.834 -1.917,-7.668 z"
           id="path36" />
        <path
           d="m 905.376,159.626 c 0.48,-4.313 3.355,-8.626 5.75,-8.147 2.876,0 4.314,5.75 3.835,9.105 -0.48,4.314 -2.876,7.189 -5.272,6.71 -2.396,0 -4.792,-3.355 -4.313,-7.668 z m -13.418,1.438 c -1.438,-4.792 -4.313,-8.147 -6.23,-7.668 -1.917,0.48 -2.396,6.23 -1.438,9.585 0.959,3.834 3.834,6.23 5.751,5.75 1.438,-0.478 2.875,-3.833 1.917,-7.667 z"
           id="path37" />
        <path
           d="m 888.603,160.105 c 0,-4.313 2.396,-8.626 4.792,-8.626 2.876,0 4.793,5.271 4.793,8.626 0,4.313 -2.396,7.189 -4.793,7.189 -1.917,0 -4.792,-2.876 -4.792,-7.189 z"
           id="path38" />
        <path
           d="m 895.791,162.022 c 0,-4.792 2.875,-9.105 5.75,-9.105 3.355,0 5.752,5.271 5.752,9.105 0,3.834 -2.876,7.189 -5.751,7.189 -2.875,0 -5.751,-2.876 -5.751,-7.189 z m 2.397,-52.716 c -0.958,3.834 -4.313,7.189 -1.917,12.46 -4.313,-1.438 -8.147,-1.917 -11.502,1.917 4.314,-0.48 8.147,0.959 10.064,3.834 -3.834,-0.48 -5.75,1.438 -6.709,3.834 3.355,-0.959 6.71,-1.917 8.147,-1.438 -1.438,1.438 -3.834,3.834 -4.313,5.75 2.875,-2.395 6.23,-1.916 8.147,-3.354 -1.438,3.355 1.438,6.71 3.834,10.064 -0.48,-4.792 2.396,-8.147 0.958,-10.543 4.313,0.959 4.793,4.792 11.023,4.792 -2.396,-1.437 -3.834,-6.23 -6.71,-6.23 1.438,-0.479 7.189,-0.958 8.147,0 -0.958,-1.917 -4.313,-3.834 -6.23,-3.834 1.917,-1.916 5.272,-5.75 7.668,-6.709 -3.355,0.48 -8.626,0.959 -10.543,3.834 4.792,-3.834 3.834,-11.022 9.105,-11.98 -2.875,-0.48 -7.188,1.437 -10.543,4.792 1.438,-2.876 1.438,-6.71 3.355,-7.668 -3.834,0.958 -8.147,5.75 -9.585,8.147 0,-2.396 -1.438,-6.23 -2.396,-7.668 z"
           id="path39" />
        <path
           d="m 900.584,116.974 c 0,1.438 0,4.313 -0.48,5.272 m 6.71,-5.751 c -0.958,0.958 -2.875,4.313 -2.875,7.189"
           id="path40" />
        <path
           fill="none"
           d="m 909.689,122.246 c -1.438,0.958 -2.875,2.396 -3.355,4.313"
           id="path41" />
      </g>
    </g>
    <g
       id="f"
       fill="#059334">
      <path
         d="m 858.89,169.69 c -3.355,0 -6.23,-1.438 -8.147,-3.834 -3.355,-4.313 -12.46,-6.23 -16.294,-2.396 -1.438,0.958 -3.355,0.958 -4.792,1.438 -2.397,0 -5.272,2.396 -4.313,7.188 1.916,-1.438 2.396,0 3.833,0 0.959,-0.48 0.48,0.48 0.48,1.438 0,2.396 5.271,7.188 10.064,6.71 5.271,0 7.667,1.916 8.626,2.875 1.437,1.437 0.479,0.958 1.437,3.354 1.438,1.438 1.917,1.917 -0.479,3.834 -3.354,2.876 -5.75,9.585 0,14.856 6.23,4.793 22.045,11.981 39.777,-1.917 17.252,-13.418 44.09,-5.75 46.006,-0.958 2.397,4.792 3.355,7.668 3.834,10.064 0.48,1.917 2.876,3.834 6.23,3.355 3.355,0 7.189,1.437 9.106,2.875 2.396,1.438 5.75,0.959 4.792,-3.355 -1.917,-13.418 -10.064,-15.335 -11.022,-21.565 4.792,0.479 8.147,0.479 10.064,-1.438 1.437,-1.917 3.354,-5.271 5.271,-6.23 1.438,-0.958 1.438,-1.917 -0.479,-1.438 -2.396,0.48 -3.834,1.438 -8.147,0.959 -22.045,-2.396 -83.866,-19.17 -95.847,-15.815 z"
         id="path42" />
      <path
         fill="#000000"
         d="m 956.654,185.984 c -2.396,1.438 -4.792,3.834 -9.105,9.585 -4.793,6.23 -19.17,12.46 -36.902,12.46 -17.252,0 -27.795,-2.876 -35.463,-9.106 -4.313,-3.354 -7.668,-5.271 -10.543,-6.709 -5.272,-2.396 -6.23,-7.668 -4.793,-11.98 -1.437,2.395 -2.396,4.791 -5.271,4.312 -1.917,0 -5.75,0 -4.792,1.917 -0.48,-0.958 -0.48,-2.396 -0.959,-2.875 l -0.958,-0.959 c 1.437,0.959 4.792,-1.917 7.188,-1.917 1.917,0.48 4.313,-1.917 3.834,-4.792 -0.48,-2.396 -0.958,-4.313 -1.438,-6.23 3.834,-1.917 54.154,7.188 64.218,8.147 10.064,0.48 38.818,4.792 34.984,8.147 z"
         id="path43" />
      <path
         d="m 865.6,167.773 c 4.792,-4.792 10.543,-7.189 16.294,-5.75 h 1.438 c 2.875,-2.397 9.584,-2.876 13.418,-0.96 h 1.917 c 5.751,-1.916 16.773,0 20.607,3.835 l 1.438,0.958 c 12.94,-0.958 20.607,4.792 29.713,13.898 0.958,0.958 2.396,2.875 4.792,3.355 2.875,0.479 3.355,1.916 0.958,3.354 -2.875,1.438 -5.271,3.834 -10.063,9.106 -4.314,5.75 -18.211,11.501 -35.464,11.501 -16.773,0 -26.837,-2.875 -34.505,-8.626 -4.313,-3.355 -7.668,-5.272 -10.064,-6.71 -2.875,-0.958 -6.709,-4.792 -5.271,-8.626 0.958,-3.833 -1.438,-8.626 -3.355,-13.418 1.438,-0.959 5.272,-2.396 7.189,-1.438 l 0.958,-0.48 z"
         id="path44" />
      <g
         fill="#00493d"
         id="g46">
        <path
           d="m 950.424,179.754 c -9.105,-9.105 -16.773,-14.856 -29.713,-13.898 0,0.48 0,1.917 -0.479,2.876 7.668,2.875 18.69,11.501 23.483,17.731 1.917,-1.917 5.271,-4.313 6.709,-6.709 z m -31.15,-14.856 c -3.834,-3.834 -14.856,-5.75 -20.607,-3.834 0,1.917 0,4.792 -0.959,6.71 3.355,1.437 6.23,4.792 9.106,8.146 1.917,-0.479 6.71,-1.917 9.105,-2.396 0.959,-1.917 2.876,-6.23 3.355,-8.626 z m -22.524,-3.834 c -3.834,-1.917 -10.543,-1.438 -13.419,0.958 -0.958,1.917 -1.437,5.751 -1.437,7.668 1.917,0 4.792,1.438 5.75,2.396 2.876,-0.958 6.71,-2.875 8.148,-4.313 0.479,-1.917 1.437,-4.792 0.958,-6.709 z m -31.15,6.709 c 4.792,-4.792 10.543,-7.189 16.294,-5.75 -0.958,1.437 -1.438,4.312 -1.438,7.188 -5.271,-0.48 -11.98,0.958 -14.856,2.875 z"
           id="path45" />
        <path
           d="m 941.798,187.422 c -4.313,-6.23 -14.856,-13.419 -22.045,-16.773 0,0.479 -0.958,2.396 -1.438,3.834 2.876,4.313 8.627,13.897 11.023,19.17 2.396,-0.96 9.105,-3.835 12.46,-6.231 z m -36.422,10.543 c 0.958,-6.71 1.438,-16.294 1.438,-19.649 2.396,-0.479 7.188,-1.917 9.105,-2.396 2.396,3.834 8.147,13.898 10.543,18.69 -5.75,1.438 -15.335,3.834 -21.086,3.355 z m -16.773,-23.004 c 2.396,-0.958 5.75,-2.875 8.147,-4.792 1.917,1.437 5.75,4.792 7.189,6.709 0,4.313 -1.438,16.773 -1.917,21.086 -3.834,0 -10.064,-0.958 -13.419,-2.875 0.48,-7.189 0.958,-15.336 0,-20.128 z m -23.962,5.751 c 0.48,-0.958 0.958,-4.313 0.958,-5.75 3.834,-2.397 13.42,-4.793 20.608,-0.96 0.479,4.793 0,16.774 -0.48,19.65 -6.23,-4.793 -16.294,-11.502 -21.086,-12.94 z"
           id="path46" />
      </g>
      <g
         fill="none"
         id="g48">
        <path
           fill="#000000"
           stroke="none"
           d="m 840.679,172.086 c -0.958,0 -1.438,-2.875 -3.355,-2.875 -0.479,0 -1.917,0.479 -2.396,0 0,0.958 0.48,1.917 0.959,2.396 0.479,1.437 2.875,0.479 4.792,0.479 z"
           id="path47" />
        <path
           d="m 840.679,180.233 c 5.75,0 6.71,-7.189 9.585,-7.668 m -6.23,8.147 c 4.313,1.917 7.668,-8.147 11.022,-7.668 m -19.648,-4.792 c 1.438,0 2.396,-1.917 4.792,0.48 0.959,0.958 2.397,1.437 3.355,1.437 m -0.959,5.272 c -1.917,2.875 -5.272,4.792 -7.189,3.834 m -0.958,-15.815 c -1.438,0.958 -2.396,2.875 -3.355,4.313 m -1.437,2.875 v 2.396"
           id="path48" />
      </g>
    </g>
    <g
       stroke="none"
       id="g65">
      <path
         id="b"
         fill="#ffffff"
         d="m 989.722,232.949 v 93.45 c 0,80.992 -38.339,108.787 -89.617,130.832 -51.278,-22.045 -90.096,-49.84 -90.096,-130.831 v -93.451 z" />
      <path
         fill="#c8102e"
         d="m 900.105,312.023 c 4.313,0 11.022,-3.834 16.773,-9.585 6.23,-6.709 16.773,-9.105 27.796,0 11.022,9.106 17.732,5.272 23.483,0 5.75,-5.271 10.543,-7.188 21.565,-7.188 v -62.3 H 810.01 v 62.3 c 11.022,0 15.815,1.917 21.566,7.188 5.75,5.272 12.46,9.106 23.482,0 11.502,-9.105 21.566,-6.709 28.275,0 5.272,5.751 11.98,9.585 16.773,9.585 z"
         id="path49" />
      <g
         fill="#0b50a0"
         id="g50">
        <path
           d="m 900.105,359.946 c 5.75,0 17.253,-6.23 20.128,-7.668 10.543,-6.23 18.21,-0.479 24.44,2.396 6.71,2.876 19.17,6.23 26.838,0 7.668,-6.23 11.981,-5.75 17.253,-5.75 0.958,-7.189 0.958,-14.378 0.958,-22.525 v -5.75 c -6.71,-1.438 -10.064,0.479 -17.252,6.709 -7.189,6.23 -15.336,4.792 -25.88,0.958 -10.063,-4.313 -20.127,-11.98 -30.19,0 -2.876,3.355 -9.586,8.147 -16.295,8.147 -7.188,0 -13.419,-4.792 -16.294,-8.147 -10.543,-11.98 -20.128,-4.313 -30.192,0 -10.543,3.834 -19.17,5.272 -26.358,-0.958 -6.709,-6.23 -10.064,-8.147 -17.252,-6.71 v 5.751 c 0,8.147 0.48,15.336 1.438,22.525 5.271,0 9.105,-0.48 16.773,5.75 7.668,6.23 20.607,2.876 26.837,0 6.71,-2.875 14.377,-8.626 24.92,-2.396 2.876,1.438 13.898,7.668 20.128,7.668 z m 0,20.607 c 7.189,0 15.815,-2.875 23.483,-7.189 9.584,-5.271 16.294,-2.875 25.878,1.917 10.064,4.793 18.211,3.355 23.962,0 2.875,-1.917 5.272,-5.75 11.502,-4.313 -2.876,11.981 -7.189,22.524 -12.46,31.15 -9.585,2.397 -14.857,2.397 -24.92,-1.916 -10.065,-4.793 -22.525,-7.668 -29.234,-3.355 -6.23,3.834 -12.94,5.75 -18.211,5.75 -5.272,0 -11.981,-1.916 -18.211,-5.75 -6.71,-4.313 -19.17,-1.438 -29.233,3.355 -10.064,4.313 -15.336,4.313 -24.92,1.917 -5.272,-8.627 -9.585,-19.17 -12.46,-31.15 6.23,-1.438 8.626,2.395 11.5,4.312 5.272,3.355 13.899,4.793 23.483,0 10.064,-4.792 16.774,-7.188 26.358,-1.917 7.668,4.314 16.294,7.189 23.483,7.189 z m 0,76.678 c 19.17,-8.147 36.901,-17.253 51.278,-29.713 -3.834,-1.437 -6.23,-0.479 -9.585,-2.875 -3.354,-2.396 -13.418,-3.355 -22.044,1.438 -9.106,4.313 -12.94,5.271 -19.649,5.271 -6.71,0 -10.543,-0.958 -19.649,-5.271 -8.626,-4.793 -18.69,-3.834 -22.044,-1.438 -3.355,2.396 -5.751,1.438 -9.585,2.875 14.377,12.46 31.63,21.566 51.278,29.713 z"
           id="path50" />
      </g>
      <g
         stroke="#000000"
         id="g63">
        <path
           fill="#f9d050"
           d="m 887.644,256.432 c 0.48,0.958 -0.48,3.355 0,4.313 0.958,1.917 0.958,2.876 2.396,3.834 h 3.355 c 10.543,0 23.003,-4.313 33.546,-4.313 10.064,0 16.294,3.355 22.045,3.355 3.355,0 6.23,-2.397 6.23,-4.793 0,-2.396 -3.834,-3.834 -11.98,-3.834 -11.502,0 -17.732,2.876 -27.317,2.876 -14.377,0 -16.773,-5.272 -16.773,-7.668 0,-2.396 2.396,-5.75 10.064,-5.75 2.396,0 4.313,-0.48 5.271,-1.439 0.48,-0.958 1.917,-2.875 4.793,-4.313 3.354,-1.917 10.064,0 13.418,-2.396 0,1.917 -2.875,4.792 -5.271,5.75 4.792,-1.437 10.064,-1.437 11.022,2.397 -2.396,-1.438 -6.23,-0.48 -7.668,0 -1.917,0.48 -2.875,0.959 -4.792,1.438 1.917,-0.48 2.875,3.354 5.75,3.354 -2.875,2.397 -7.667,2.397 -12.46,0.48 -1.437,-0.48 -5.27,-1.917 -7.667,-1.917 -4.792,0 -7.668,0.958 -7.668,2.875 0,2.396 2.876,3.834 11.502,3.834 8.626,0 13.418,-2.396 26.358,-2.396 -0.959,-1.438 0.479,-2.876 -1.438,-4.313 4.792,0 10.064,1.437 11.98,4.792 -0.478,-3.355 2.397,-6.23 1.439,-9.105 2.875,0.479 5.271,3.354 5.75,5.75 0,-1.437 1.917,-1.437 1.917,-2.875 2.876,1.438 4.313,4.792 3.834,7.668 1.438,-2.396 2.876,-1.438 3.834,-4.313 0.959,1.917 0.48,7.667 -2.875,9.584 2.875,-1.917 7.188,-1.917 10.064,1.438 -2.876,-0.48 -4.313,0.959 -5.751,1.438 -5.751,3.354 -15.336,5.271 -22.524,4.792 -7.668,-0.48 -8.627,-1.917 -13.419,-1.917 2.876,0.48 8.626,6.23 13.898,6.23 3.355,0 5.75,0 7.188,-0.479 1.438,-0.48 3.834,0 5.751,0.959 1.438,1.437 4.313,2.875 6.23,2.396 -0.479,1.917 -1.437,2.875 -2.875,3.354 2.396,1.438 0.958,2.397 3.355,4.313 -0.959,0 -1.917,0.959 -3.355,0.48 1.438,1.437 1.438,3.354 2.875,4.313 -0.479,0 -1.917,0.48 -2.875,0 1.438,1.917 0,4.313 1.438,5.271 1.437,1.917 -1.438,4.314 -3.834,2.397 0.479,1.437 -0.959,2.875 -2.396,2.396 -1.438,-0.48 -2.397,-1.917 -1.917,-2.396 0,-0.48 0,-0.48 0.479,-0.959 -0.959,1.438 -2.876,1.438 -3.834,0.959 -0.48,-0.48 -0.959,-0.959 -0.959,-1.438 -3.354,0.958 -4.792,-1.917 -4.313,-3.355 0.48,-1.437 3.355,-1.917 4.313,-1.437 0.959,0.479 1.917,0.958 2.876,0 0.958,-0.48 1.438,-1.438 1.438,-2.397 0,-1.437 -1.438,-5.75 -7.668,-5.271 -7.189,0.479 -18.69,-1.438 -24.441,-3.355 -0.48,-0.48 -0.959,-0.48 -1.438,-0.958 0,1.917 -1.917,2.875 -1.917,4.792 0,2.396 0.959,4.313 3.834,5.272 -1.438,2.396 -3.834,1.917 -4.792,0.479 0,1.438 -1.917,2.396 -1.917,4.313 -0.48,-0.959 -0.959,-1.438 -1.438,-2.396 -1.438,3.354 -5.271,5.271 -7.188,4.313 -2.397,1.917 -5.272,1.438 -6.23,-0.48 -1.438,0.96 -3.355,0.96 -4.314,0 0,1.438 -0.958,0.96 -1.437,2.876 0,0.959 -1.917,1.438 -2.876,0.959 -0.958,-0.48 -1.437,-2.397 -0.479,-3.355 -1.438,0.958 -2.875,0.958 -3.834,0 0,-0.959 0,-2.396 0.959,-2.876 h 0.958 c -0.958,-0.479 -2.396,0 -3.355,-0.479 -0.958,-0.958 -0.958,-1.917 -0.479,-2.875 0.48,-0.48 1.917,-1.438 2.876,-0.48 l 0.479,0.48 c 0,-0.959 0.48,-1.917 0.958,-1.917 0.959,-0.48 2.397,-0.48 3.834,0.958 0.959,1.438 1.917,1.438 4.793,0.959 2.396,0 6.23,-2.396 9.105,-4.793 -8.147,-1.437 -3.355,-6.709 -0.958,-8.626 -1.917,-0.479 -4.793,-0.479 -6.71,0.48 -10.064,5.271 -20.607,11.501 -27.316,9.584 0,0.959 0.48,1.917 0.958,2.876 -1.437,0 -4.313,0 -5.271,-1.438 -0.48,0.958 -1.438,3.355 -0.48,5.271 -0.958,-0.958 -3.833,-1.916 -5.271,-2.396 0.958,0.959 0,2.876 0.48,4.313 -1.439,-1.437 -3.835,-2.396 -4.793,-1.437 -0.958,0.959 -2.876,1.437 -4.313,0.958 -0.959,1.438 -2.396,2.396 -3.834,2.876 0,-0.959 0,-2.397 -0.48,-2.876 -0.479,1.438 -1.916,3.355 -3.833,4.313 0,-0.958 0,-2.396 -0.48,-3.354 0,1.917 -3.833,2.875 -4.313,4.313 0.48,-1.438 0.48,-2.876 0.48,-3.834 -0.959,1.438 -2.397,2.875 -4.793,3.355 0.48,-0.959 0.959,-1.917 0.48,-2.876 -0.48,1.917 -3.355,2.876 -5.751,2.396 0,0.959 -1.917,2.396 -4.313,0.959 -1.438,-0.48 -2.397,-1.917 -1.438,-2.876 -1.917,0 -3.834,-1.917 -2.876,-3.354 0,-0.48 0.48,-0.959 0.48,-1.438 -1.438,-0.958 -1.917,-2.875 -0.48,-4.313 0.48,-0.48 1.917,-0.48 2.876,-0.48 0,-3.833 3.354,-3.833 4.792,-0.958 0.959,1.438 3.834,3.834 6.23,3.355 0.959,0 1.438,-0.48 2.396,-0.48 2.876,-0.958 8.627,-3.354 11.981,-6.23 0.48,-1.437 0.48,-2.396 0.48,-3.354 -1.917,0.958 -3.834,1.917 -4.793,3.355 v -1.438 c -1.438,0 -3.834,-0.48 -4.792,-0.48 0.479,-0.479 0.958,-2.875 1.917,-3.354 -2.396,0.48 -4.793,0 -6.71,-0.48 0.959,-0.958 0.959,-2.395 1.438,-3.833 -0.958,0.48 -3.354,-0.48 -5.271,0 0.479,-1.438 0.958,-3.355 2.396,-3.834 -1.917,0.48 -4.313,0 -6.71,-0.959 1.917,0 2.876,-2.396 4.314,-2.396 -3.834,0 -4.793,-1.917 -6.71,-2.875 1.438,0.48 2.396,-0.959 3.834,-0.959 -1.438,-0.479 -3.834,-2.875 -2.875,-4.313 -0.48,0.48 -0.959,1.438 -1.917,1.917 -0.959,0.48 -2.876,0 -4.313,-1.437 -0.959,-1.917 -0.48,-4.314 1.437,-4.793 -2.396,-0.48 -2.396,-2.875 -1.437,-3.834 0.479,-0.958 2.396,-2.396 3.354,-0.958 0.48,0.48 0.959,1.438 1.438,1.917 -0.48,-0.959 -0.48,-2.876 -0.48,-4.313 0.48,-1.438 1.439,-1.438 2.876,-1.917 1.438,0 2.396,1.437 2.396,2.875 0,1.438 0.48,2.396 0.959,4.313 0,-0.479 0.48,-1.437 0.48,-1.917 0,-1.917 2.395,-1.437 3.833,-0.958 1.438,0.48 1.917,3.354 0,4.792 -0.958,0.959 -0.48,2.396 0.48,3.355 3.354,5.271 9.105,9.585 13.897,10.064 0,-1.917 0.958,-3.834 2.396,-5.272 0,-0.958 0.48,-2.396 0.959,-3.355 0.479,-2.875 1.917,-4.313 3.834,-3.354 -0.48,-0.48 -0.959,-0.959 -0.959,-1.438 -1.438,-1.438 -2.875,-3.834 -1.917,-5.75 0.958,-1.916 3.834,-1.438 4.792,-0.48 -0.479,-2.875 2.876,-5.272 2.876,-6.71 0.48,1.438 1.438,3.355 0.958,4.793 0.48,-1.917 3.834,-4.313 6.23,-5.271 -0.958,1.437 1.917,3.833 1.438,5.271 0.959,-2.396 4.792,-3.834 7.668,-3.834 -0.959,0.959 -0.959,2.876 -0.959,3.834 1.438,0 3.834,-0.48 4.793,-1.917 0,1.917 -0.959,3.834 -1.917,4.793 0.48,-0.48 2.396,-0.48 3.834,-0.48 -1.438,1.438 -0.959,2.876 -2.396,3.834 1.917,-0.958 4.313,-0.958 4.792,0.959 0.958,1.437 -0.48,3.834 -1.438,5.271 -0.958,0.48 -1.917,1.438 -2.396,1.438 z"
           id="path51" />
        <g
           fill="none"
           id="g60">
          <path
             d="m 857.932,262.182 c -3.355,1.438 -4.313,4.792 -4.792,6.71"
             id="path52" />
          <path
             d="m 857.453,265.537 c -4.792,2.875 -6.71,5.272 -5.75,10.543 m 8.146,3.834 c 2.875,-0.958 4.792,-1.917 7.189,-6.23"
             id="path53" />
          <path
             d="m 865.6,275.601 c -0.958,1.917 0,5.272 -1.438,6.71 2.396,-1.438 4.313,-3.355 4.793,-6.71"
             id="path54" />
          <path
             d="m 866.558,280.872 c 1.917,-0.958 4.792,-3.834 6.23,-7.189 -0.48,1.438 0,3.834 -0.958,5.272 2.396,-2.396 3.354,-3.834 3.833,-6.23 0,0.48 0.48,1.438 0.48,1.917 0.958,-0.959 1.917,-1.917 1.917,-3.834 m 0,1.438 v 2.396 c 1.917,-1.438 2.396,-3.354 2.396,-5.75"
             id="path55" />
          <path
             d="m 879.977,271.767 c 2.875,-1.917 3.355,-4.792 3.355,-9.105 m -10e-4,4.792 c 1.917,-1.438 2.396,-2.396 2.396,-6.71 m -6.23,-12.939 c -0.958,0 -1.917,0.48 -1.917,1.917 0,0.958 -1.438,2.396 -1.438,3.834 -0.479,1.917 -1.437,2.396 -2.875,1.917 -1.438,-0.959 -1.438,-0.959 -1.438,-2.396 0,-1.917 2.396,-2.397 2.396,-4.314 0.48,-0.958 0.959,-2.396 1.438,-2.396 -2.396,1.438 -5.75,0.48 -6.23,-2.396"
             id="path56" />
          <path
             d="m 883.811,249.243 c -0.958,0.48 -1.917,-0.958 -3.355,-0.48 -0.479,0 -1.917,0.48 -2.396,0"
             id="path57" />
          <path
             d="m 877.101,251.639 c 0.48,0.48 2.875,1.438 5.272,0.48 -1.917,0.478 -3.355,-1.918 -1.438,-3.355 m -8.147,-1.917 c -1.917,0 -3.355,1.438 -2.875,2.875 0.479,1.438 2.396,1.438 3.833,0.48 m -4.313,20.607 c 0.48,-0.48 0.958,-1.438 0.958,-1.917 0.959,0 1.917,-0.48 2.397,-0.958 1.917,0 3.354,-1.438 3.834,-2.876 0.958,0 1.437,-2.396 1.916,-3.354 0.48,0.479 1.438,0 1.917,-1.917 0.959,0.479 2.397,0 2.876,-1.438 m -19.648,-3.355 c 0,0.48 -0.958,1.438 -1.917,1.917 0.48,0.958 0,3.355 -0.958,3.834 0.479,0.958 0,2.396 -0.48,3.354 0,0.48 0.48,1.917 0.48,2.397 m 4.792,-21.087 c -0.958,2.396 -0.48,5.272 1.438,5.75"
             id="path58" />
          <path
             d="m 866.558,253.077 c -0.48,2.396 -0.48,5.75 -0.958,7.189 -0.48,0.958 -1.438,4.313 2.396,5.271 4.313,0.959 6.709,0.48 9.105,-6.71 m 7.189,18.691 c 0,0.48 -0.48,1.438 -1.438,1.438 m 4.792,-2.397 c 0,0.958 -0.958,2.396 -1.438,2.875 m 4.793,-3.833 c 0,0.958 0,2.396 -0.958,2.875 m -28.275,-32.588 c 0.48,0 0.958,0.958 1.438,1.917 -1.438,-0.959 -2.876,1.438 -1.917,2.875 m -0.959,3.355 c -0.48,0.48 -1.438,0.958 -1.917,1.438 m 0.479,2.875 c -0.48,0 -0.958,0.48 -1.438,0.48 m -21.565,-9.106 c 0,-0.48 0,-0.48 0.48,-0.958 m -4.793,-0.48 c -0.48,0 -0.48,0 -0.958,-0.48 m 1.437,7.19 h 0.958 m -2.875,-2.876 c -0.958,-0.958 -2.396,-1.438 -2.875,-1.438 m 29.233,19.17 c -3.355,2.875 -4.792,5.272 -5.272,8.626 m 8.627,-6.23 c -0.958,1.917 -2.396,3.355 -3.834,4.313 m -14.856,10.064 c -3.834,0.958 -6.71,0.48 -9.585,-1.438 -0.479,-0.479 -0.958,-0.479 -1.437,-0.958 m 25.399,-4.313 c -0.48,1.917 -0.958,4.313 -1.917,4.792 3.834,-1.917 7.189,-4.792 7.668,-9.105 M 827.74,289.02 c 1.438,-0.48 2.875,0.48 3.834,-0.48 m 79.553,-15.335 c 0.958,0.48 2.396,0.958 2.875,1.438 0.48,-0.959 2.397,-2.396 3.834,-2.876 m -40.735,11.502 c -0.48,-1.917 0.48,-4.313 3.355,-5.272 m -22.045,13.419 c 0.48,-0.958 0.48,-2.396 0.958,-3.355 m -22.044,4.792 c -0.48,0.958 -1.438,1.917 -1.438,2.875 m -5.751,-1.916 c 0,0 0,-0.48 0.48,-0.48 0.958,-0.478 2.395,-1.437 2.875,-2.395 m 61.821,-3.834 c -0.958,0.48 -1.438,0 -1.917,-0.48 m 1.438,2.876 c 0,0 -0.48,0.48 -0.958,0.48 m 3.354,1.916 c -0.48,0.48 -0.958,0.958 -1.438,0.958 m 15.336,0 c 0.958,-0.48 1.438,-1.438 1.917,-3.355 m -8.147,2.876 c 1.438,-0.48 2.396,-1.438 3.834,-2.875 m 9.584,-0.959 c 0,-0.958 0,-1.917 0.48,-2.875 m 34.984,7.188 c -0.958,-0.958 -0.958,-2.396 0.48,-3.355 0.958,-0.479 1.437,-0.958 2.395,-1.437"
             id="path59" />
          <path
             d="m 924.546,276.08 c -7.668,-3.355 -7.189,-7.668 -13.419,-7.189 m 47.444,22.045 c 0.48,0.48 0,1.917 0,2.396 m 4.313,-2.396 c -0.48,1.438 -0.48,1.917 -0.48,3.355 m -36.421,-48.403 h -3.834 m -36.422,16.294 c 0,0.958 1.438,2.875 5.272,2.875 -0.48,0 -0.959,-0.479 -0.959,-0.479 m -2.396,-8.146 c -0.48,0.48 -0.958,0 -0.958,0 -0.959,-0.958 0.479,-2.875 1.916,-3.834 -1.437,0.48 -2.396,0.48 -3.354,0.48 -0.959,2.875 -3.834,4.312 -5.751,2.396 -0.48,1.916 -2.875,4.313 -4.792,3.833 -1.917,-0.958 -2.397,-2.396 -1.917,-3.833 -2.396,2.875 -5.272,0.958 -6.23,0 -0.48,-0.959 0,-3.355 0.958,-6.23"
             id="path60" />
        </g>
        <path
           d="m 918.315,274.642 c -1.438,0.958 -2.875,0 -4.313,1.438 -0.959,0.958 0.48,1.437 1.438,1.437 -0.48,1.438 -0.48,1.917 1.917,1.917 -0.959,1.438 1.916,1.917 1.437,3.834 1.438,-1.437 1.438,-3.354 0.959,-4.792 -0.48,-1.438 -2.876,-2.396 -1.438,-3.834 z"
           stroke="none"
           id="path61" />
        <g
           fill="#073163"
           stroke="none"
           id="g62">
          <path
             d="m 874.705,259.307 c -1.917,-0.958 -2.396,-2.396 -1.917,-3.834 -0.48,0.959 -1.438,1.438 -2.396,1.438 -1.917,4.313 -4.313,8.147 -7.189,8.147 -3.354,0.48 -2.875,3.834 -0.479,3.834 5.272,0.958 7.668,-0.959 11.981,-9.585 z m -47.444,-11.502 c 1.438,-1.438 0.48,-2.875 -0.48,-3.355 -1.437,-0.479 -4.312,0 -5.75,2.397 1.438,-0.48 2.875,-0.48 3.355,0.479 0.479,0.958 1.437,1.917 2.875,0.479 z m 2.396,-8.626 c 3.355,0 4.313,0.48 4.792,1.917 0.48,0.958 -0.479,2.396 -1.437,2.396 -1.438,0 -2.876,-0.958 -2.397,-1.438 0.48,-0.958 0.48,-2.396 -0.958,-2.875 z m 9.585,7.668 c 2.396,0.48 3.355,-0.958 1.917,-2.875 -0.48,-1.438 -1.917,-2.397 -4.313,-1.917 2.396,1.437 0,3.834 2.396,4.792 z m -17.732,8.147 c 1.438,2.396 3.834,2.396 4.792,1.917 1.438,-0.48 1.917,-1.917 1.438,-2.875 -0.958,-1.438 -2.396,-1.917 -2.875,0 -0.959,1.916 -2.397,1.437 -3.355,0.958 z m 7.188,29.233 c -0.958,-1.917 -3.834,-1.917 -6.23,0 0.958,-0.48 2.875,0 3.355,0.958 0.479,0.959 1.437,0.959 1.917,0.959 0.479,-0.48 1.437,-0.959 0.958,-1.917 z m 3.834,-2.875 c 0,-2.396 -3.355,-2.875 -5.272,-1.917 0.959,0 2.397,0.959 2.397,1.917 0.479,0.958 1.437,1.438 1.917,1.438 0.958,-0.48 1.437,-0.959 0.958,-1.438 z m -4.792,8.626 c -2.875,-0.48 -4.313,2.875 -4.313,5.272 0.48,-1.438 1.917,-2.397 3.355,-1.917 1.437,0 1.916,-0.48 1.916,-1.438 0.48,-0.959 0,-1.438 -0.958,-1.917 z m 0.479,8.147 c 0.958,0.48 1.917,-0.48 2.396,-1.917 0,-0.958 1.917,-0.958 2.396,-0.48 0.959,0.48 0.959,2.397 -0.479,3.355 -0.958,0.48 -3.355,0.959 -4.313,-0.958 z m 66.614,-14.377 c -0.958,-0.48 -3.355,-1.438 -5.272,0 1.438,-0.48 2.397,0.48 2.876,1.438 0,0.958 1.438,1.437 1.917,0.479 0.479,-0.48 0.958,-1.438 0.479,-1.917 z m -4.313,3.355 c -1.917,-0.958 -4.313,1.438 -4.792,3.355 0.479,-0.48 2.396,-1.438 3.354,-1.438 0.959,0.48 1.917,0 1.917,-0.959 0.48,-0.479 0.48,-0.958 -0.479,-0.958 z m 2.396,3.833 c -1.438,0 -3.355,1.917 -3.355,3.834 0.48,-0.959 1.438,-1.438 2.397,-0.959 0.958,0 2.396,-0.479 2.396,-1.437 0,-0.958 -0.48,-1.438 -1.438,-1.438 z m 4.313,3.834 c -0.958,-0.48 -2.396,0 -2.396,1.438 0,1.437 0,2.875 -0.48,3.354 0.96,-0.958 1.918,-1.437 2.876,-1.917 0.48,-0.479 0.958,-1.917 0,-2.875 z m 54.154,-4.313 c -0.958,-0.958 -2.396,-0.48 -2.875,0.48 -0.48,0.958 -0.959,3.354 0,5.27 0,-0.958 0.958,-2.395 1.917,-2.395 1.437,-0.48 1.916,-2.397 0.958,-3.355 z m 2.875,1.917 c -1.917,0.958 -1.917,4.313 -0.48,6.23 0,-0.958 0.48,-2.396 1.438,-2.875 1.438,0 1.917,-1.917 1.438,-2.876 -0.958,-0.958 -1.917,-0.479 -2.396,-0.479 z m 5.751,1.917 c -0.958,-0.48 -1.917,0.48 -1.917,1.438 -0.48,1.437 0.48,3.354 1.917,4.313 0,-0.959 0.48,-1.917 0.958,-2.396 1.438,-0.959 0.959,-2.876 -0.958,-3.355 z m 4.313,-0.479 c -0.958,0 -1.917,1.438 -0.958,2.875 0.479,0.959 1.437,1.438 3.354,0.959 -0.48,0 -1.438,-1.438 -0.958,-1.917 0.479,-0.959 0,-1.917 -1.438,-1.917 z"
             id="path62" />
        </g>
      </g>
      <g
         id="i">
        <path
           fill="#f9d050"
           d="m 831.095,383.429 23.962,-73.802 23.962,73.802 -62.78,-45.527 h 77.636 z"
           id="path63" />
        <path
           fill="#024919"
           d="m 835.887,376.72 49.84,-36.422 h -61.342 l 49.362,36.422 -18.69,-58.467 z"
           id="path64" />
      </g>
      <use
         xlink:href="#i"
         x="90.097"
         id="use64" />
      <use
         xlink:href="#i"
         x="45.048"
         y="52.237"
         id="use65" />
      <path
         fill="none"
         stroke="#000000"
         d="m 989.722,232.949 v 93.45 c 0,80.992 -38.339,108.787 -89.617,130.832 -51.278,-22.045 -90.096,-49.84 -90.096,-130.831 v -93.451 z"
         id="path65" />
    </g>
  </g>
  <g
     clip-path="url(#a-9)"
     id="g7"
     transform="scale(8.7028519,9.4388225)">
    <path
       d="M 0,0 V 30 H 60 V 0 Z"
       fill="#012169"
       id="path3" />
    <path
       d="M 0,0 60,30 M 60,0 0,30"
       stroke="#ffffff"
       stroke-width="6"
       id="path4" />
    <path
       d="M 0,0 60,30 M 60,0 0,30"
       clip-path="url(#b-0)"
       stroke="#c8102e"
       stroke-width="4"
       id="path5" />
    <path
       d="M 30,0 V 30 M 0,15 h 60"
       stroke="#ffffff"
       stroke-width="10"
       id="path6" />
    <path
       d="M 30,0 V 30 M 0,15 h 60"
       stroke="#c8102e"
       stroke-width="6"
       id="path7" />
  </g>
</svg>
