<?xml version="1.0" encoding="UTF-8" standalone="no"?>
<svg
   width="1000"
   height="600"
   viewBox="0 0 93333.333 56000"
   version="1.1"
   id="svg4"
   xmlns="http://www.w3.org/2000/svg"
   xmlns:svg="http://www.w3.org/2000/svg">
  <defs
     id="defs4" />
  <path
     fill="#ffffff"
     d="M 0,0 H 93333.333 V 56000 H 0 Z"
     id="path1"
     style="stroke-width:1.05409" />
  <path
     fill="#001489"
     d="M 0,0 H 93333.333 V 16800 H 0 Z"
     id="path2"
     style="stroke-width:1.05409" />
  <path
     fill="#009a44"
     d="M 0,39200 H 93333.333 V 56000 H 0 Z"
     id="path3"
     style="stroke-width:1.05409" />
  <path
     d="m 46666.667,17696 a 784,784 0 0 1 698,425 c 1660,198 2533,1400 2837,2798 355,1634 -21,3856 -1174,6189 l 4429,5877 a 16016,16016 0 0 0 697,-347 l 1628,3446 a 19824,19824 0 0 1 -18230,0 l 1628,-3446 a 16016,16016 0 0 0 697,347 l 4429,-5877 c -1153,-2333 -1529,-4555 -1174,-6189 304,-1398 1177,-2600 2837,-2798 a 784,784 0 0 1 698,-425 z m 1754,8606 c 898,-2005 1190,-3906 906,-5163 -251,-1112 -814,-1938 -1932,-2114 v 2871 l 1400,1400 h -1120 v 2016 z m -2482,-7277 c -1118,176 -1681,1002 -1932,2114 -284,1257 8,3158 906,5163 l 746,-990 v -2016 h -1120 l 1400,-1400 z m -6216,15087 -479,1012 775,-208 z m -390,1452 a 18592,18592 0 0 0 1080,425 l -239,-650 z m 1763,-152 1005,-318 -289,-648 a 16688,16688 0 0 1 -1228,-426 z m 1188,94 -1033,327 179,486 a 18592,18592 0 0 0 1370,346 z m 1116,440 1107,-454 -265,-501 a 16688,16688 0 0 1 -1385,-264 z m 1318,-56 -1136,465 220,495 a 18592,18592 0 0 0 1516,173 z m 1116,314 1381,-722 -200,-318 a 16688,16688 0 0 1 -1761,-56 z m 1622,-342 -1412,738 248,468 a 18592,18592 0 0 0 1890,-58 z m 1159,262 1086,-746 -315,-433 a 16688,16688 0 0 1 -1408,171 z m 1350,-384 -1110,763 257,407 a 18592,18592 0 0 0 1514,-264 z m 1010,-41 904,-802 -369,-447 a 16688,16688 0 0 1 -1214,319 z m 1190,-457 -925,821 268,368 a 18592,18592 0 0 0 1306,-405 z m 922,-203 613,-739 -267,-565 a 16688,16688 0 0 1 -1069,430 z m 825,-292 -534,643 267,323 a 18592,18592 0 0 0 602,-256 z"
     id="path4" />
</svg>
