<?xml version="1.0" encoding="UTF-8" standalone="no"?>
<svg
   width="1600"
   height="960"
   version="1.1"
   id="svg39"
   xmlns="http://www.w3.org/2000/svg"
   xmlns:svg="http://www.w3.org/2000/svg">
  <defs
     id="defs39" />
  <path
     d="M 0,0 H 1600 V 960 H 0 Z"
     fill="#cc092f"
     id="path1"
     style="stroke-width:0.973729" />
  <path
     d="M 0,0 H 1050 V 960 H 0 Z"
     fill="#ffd200"
     id="path2"
     style="stroke-width:0.966091" />
  <path
     d="M 0,0 H 550 V 960 H 0 Z"
     fill="#0046ae"
     id="path3"
     style="stroke-width:0.988826" />
  <path
     d="m 751.49,213.24 a 12.964,12.964 0 0 0 -7.68,2.1 6.287,6.287 0 0 1 4.506,6.092 v 7.423 h -7.422 a 6.306,6.306 0 0 1 -6.093,-4.454 15.094,15.094 0 0 0 0,15.358 6.286,6.286 0 0 1 6.093,-4.506 h 7.422 v 35.681 a 6.3,6.3 0 0 1 -4.198,5.989 c 3.541,0.482 6.588,5.234 7.423,7.833 0.837,-2.593 3.884,-7.351 7.424,-7.833 a 6.28,6.28 0 0 1 -4.251,-5.989 v -35.683 h 7.424 a 6.304,6.304 0 0 1 6.093,4.456 15.106,15.106 0 0 0 0,-15.359 6.286,6.286 0 0 1 -6.093,4.504 h -7.424 v -7.422 a 6.303,6.303 0 0 1 4.455,-6.093 12.97,12.97 0 0 0 -7.679,-2.098 z"
     id="path4" />
  <path
     d="m 751.49,214.78 a 14.26,14.26 0 0 0 -4.402,0.716 7.85,7.85 0 0 1 2.765,5.939 v 7.423 a 1.538,1.538 0 0 1 -0.052,0.308 v 1.177 h -1.178 c -0.1,0.027 -0.203,0.045 -0.307,0.052 h -7.424 a 7.856,7.856 0 0 1 -5.886,-2.713 13.729,13.729 0 0 0 -0.768,4.403 14.26,14.26 0 0 0 0.716,4.402 7.848,7.848 0 0 1 5.938,-2.763 h 8.959 c -0.01,0.154 -0.052,0.303 -0.052,0.459 v 0.768 a 1.56,1.56 0 0 1 0.052,0.307 v 35.681 a 7.534,7.534 0 0 1 -2.765,5.58 11.975,11.975 0 0 1 2.918,2.561 14.824,14.824 0 0 1 1.536,2.661 14.97,14.97 0 0 1 1.536,-2.661 12.034,12.034 0 0 1 2.867,-2.509 7.57,7.57 0 0 1 -2.765,-5.631 v -37.168 h 1.229 a 1.56,1.56 0 0 1 0.307,-0.05 h 7.423 a 7.86,7.86 0 0 1 5.886,2.712 c 0.495,-1.416 0.755,-2.903 0.769,-4.402 a 14.284,14.284 0 0 0 -0.717,-4.402 7.848,7.848 0 0 1 -5.938,2.763 h -7.423 a 1.516,1.516 0 0 1 -0.307,-0.052 h -1.178 v -1.177 a 1.55,1.55 0 0 1 -0.052,-0.308 v -7.422 a 7.86,7.86 0 0 1 2.713,-5.887 13.77,13.77 0 0 0 -4.402,-0.768"
     fill="#ffd200"
     id="path5" />
  <path
     d="m 844.409,343.987 a 39.428,39.428 0 0 1 -10.904,-11.11 c -6.372,-10.223 -9.061,-22.773 -9.061,-35.527 0,-5.391 6.04,-11.46 6.04,-15.82 a 76,76 0 0 0 -0.614,-10.544 c 2.143,0.292 5.887,4.095 5.887,4.095 0,0 -0.129,-10.938 -3.585,-12.849 0,0 1.398,-1.438 6.451,-1.587 -1.42,-3.596 -8.446,-7.986 -8.446,-7.986 a 4.57,4.57 0 0 1 1.842,-1.638 22.89,22.89 0 0 1 6.142,-1.997 66.034,66.034 0 0 1 -6.91,-1.895 163.004,163.004 0 0 1 -19.146,-7.78 56.46,56.46 0 0 0 -25.596,-5.99 c -3.575,0.001 -8.84,0.098 -11.927,2.152 -2.825,1.875 -2.595,4.314 -3.584,5.17 -2.33,2.016 -6.321,1.945 -8.243,1.945 -12.44,0 -12.901,13.311 -12.901,13.311 0,0 3.181,-4.813 8.805,-4.813 9.351,0 16.433,5.094 16.433,7.013 0,0.777 -0.964,0.921 -1.023,0.921 -6.108,0 -15.326,-3.516 -20.223,-3.686 v 2.406 c 10.931,3.803 22.013,9.187 22.013,32.917 0,14.943 -1.789,30.19 -9.265,42.183 a 39.75,39.75 0 0 1 -10.955,11.11 l 44.385,8 44.385,-8 z"
     id="path6" />
  <path
     d="m 800.022,333.988 -44.383,10 c -2.019,-0.61 -11.513,-3.56 -18.174,-7.269 -11.726,-6.532 -17.806,-13.031 -31.74,-13.669 v -10.598 c 0,-5.662 2.049,-10.763 2.049,-16.177 -5.874,-1.575 -22.178,-21.51 -37.218,-30.358 -22.13,14.334 -39.265,37.865 -39.265,48.686 v 313.51 c 0,4.668 -2.815,11.263 -2.815,11.263 8.079,-3.418 22.888,-23.68 26.006,-31.382 v 3.687 c 12.201,-5.564 21.135,-20.184 25.136,-27.747 l 0.257,3.838 c 10.9,-9.555 24.776,-66.038 24.776,-66.038 l 23.124,22.725 c 0,0 -8.363,16.976 -11.621,20.016 a 38.98,38.98 0 0 0 4.658,0.256 c -1.522,2.188 -13.147,18.925 -16.791,25.238 -3.41,5.906 -5.816,3.277 -11.058,3.277 -4.347,0 -14.2,6.925 -15.818,9.727 a 20.496,20.496 0 0 0 -2.968,9.471 c 0,3.24 3.43,7.679 3.43,7.679 a 4.03,4.03 0 0 1 1.023,-2.099 l 10.341,12.695 c 1.034,1.143 5.645,1.886 7.27,0.411 4.066,-3.697 8.002,-6.282 11.621,-11.621 1.863,-2.751 2.005,-5.904 4.146,-8.858 l 24.675,-33.121 0.612,3.43 c 3.694,-7.457 21.451,-21.706 21.451,-21.706 l 18.578,8.55 c 0,0 -34.687,79.735 -65.476,91.995 0,0 13.395,5.691 29.845,14.232 l 7.372,3.943 a 203.524,203.524 0 0 0 6.399,-8.141 c 9.836,-13.16 19.455,-28.412 19.455,-28.412 0.67,3.961 -4.524,16.194 -13.31,31.281 l -5.529,9.213 6.655,3.892 c 16.295,9.805 31.598,21.077 37.267,31.432 l 4,-10.009 -4,-10.009 V 347.265 l 2,-5 z"
     id="path7" />
  <path
     d="m 800.002,697.221 c -5.749,-6.236 -17.769,-13.855 -31.278,-20.886 16.334,-29.316 24.428,-75.655 20.63,-84.88 0,0 -6.705,24.033 -14.898,37.729 -7.586,12.684 -16.925,26.95 -25.954,37.526 a 205.67,205.67 0 0 0 -20.785,-7.68 c 27.058,-20.843 54.726,-89.742 54.726,-89.742 l -28.612,-13.26 c 0,0 -10.704,12.479 -14.18,14.796 0,0 -1.485,-6.206 -2.355,-8.396 0,0 -4.101,3.102 -6.346,3.176 l -1.178,-6.964 c -2.825,1.883 -7.525,1.485 -7.525,1.485 4.127,-1.954 9.01,-13.925 9.01,-13.925 l -27.322,-36.343 c 0,0 -9.597,46.116 -20.528,55.596 v -198.58 l 8.652,8.036 13.105,-12.235 v -9.317 l -11.621,10.852 v -28.105 a 94.4,94.4 0 0 0 3.788,-6.194 c 1.881,3.279 7.96,13.329 15.101,19.505 1.175,-4.778 8.908,-9.318 8.908,-9.318 0,0 2.771,7.508 7.012,9.368 1.492,-2.628 10.394,-8.446 10.394,-8.446 0,0 -7.616,1.157 -10.7,4.045 -2.649,-0.593 -3.328,-11.058 -3.328,-11.058 0,0 -11.207,5.459 -13.156,9.368 -2.137,-0.578 -5.464,-8.988 -6.759,-12.44 a 74.75,74.75 0 0 1 8.345,-0.46 c 3.196,0 7.285,1.514 11.569,3.532 4.707,2.216 9.631,5.022 14.028,7.014 5.632,2.55 14.153,3.068 16.637,3.174 a 73.8,73.8 0 0 1 -9.367,5.529 c 0,0 13.411,-0.124 22.832,-4.813 a 90.2,90.2 0 0 0 9.829,-6.86 36.33,36.33 0 0 1 -6.452,11.467 c 13.836,-1.171 20.726,-9.072 22.679,-11.723 a 37.68,37.68 0 0 0 5.119,9.47 h 5 v 340 z m -101.955,-399.923 0.255,6.348 v 18.687 c -5.019,-1.727 -11.326,-9.973 -14.384,-14.334 v -2.56 a 7.07,7.07 0 0 1 2.457,-5.119 l -3.02,-1.074 a 8.8,8.8 0 0 0 -2.406,5.784 v 1.485 l -9.009,9.676 -8.856,-13.413 v -3.276 c 0,-2.208 1.698,-4.67 3.123,-6.348 l -2.97,-1.075 c -1.499,1.942 -3.072,4.559 -3.072,7.013 v 2.661 l -10.187,10.496 -5.17,-11.109 c 6.205,-8.595 16.266,-18.219 25.749,-25.124 0,0 20.564,18.881 27.49,21.282 z m -52.12,18.123 v 15.411 l -7.167,6.654 v -22.883 a 17.57,17.57 0 0 1 2.456,-7.731 z m 22.32,5.938 v 9.522 l -8.241,7.731 v -29.794 z m -11.161,17.202 -8.243,-7.679 v -11.159 l 8.243,-8.652 z m 37.627,-11.57 c -1.914,2.705 -6.927,9.321 -12.337,12.236 v -26.16 c 1.241,2.065 6.934,11.275 12.337,13.924 z m -15.257,-12.594 v 24.163 l -8.243,-7.679 v -8.549 z m -33.53,25.75 v 24.113 l -7.167,-6.707 v -10.7 z m 11.154,7.731 v 8.651 l -8.244,7.678 v -24.009 z m 11.158,-7.678 v 24.01 l -8.241,-7.731 v -8.549 z m 11.213,7.73 v 8.549 l -8.243,7.73 V 340.2 Z m 11.159,16.33 -8.244,-7.731 v -8.036 c 2.843,-1.735 5.702,-4.924 8.243,-8.293 z m -20.885,10.648 8.703,-8.089 v 198.63 l 1.024,16.279 -18.429,18.634 V 366.766 Z M 656.053,592.94 c 0,6.385 -11.659,21.273 -17.303,24.675 v -250.74 l 8.6,8.036 8.703,-8.09 z"
     fill="#b07e5b"
     id="path8" />
  <path
     d="m 728.335,571.388 6.348,-4.352 0.972,4.967 -26.057,35.425 c -1.921,2.584 -3.534,9.163 -3.534,9.163 0,0 -2.814,-1.331 -2.814,-3.736 0,-2.362 0.308,-5.171 0.308,-5.171 a 8.04,8.04 0 0 1 -5.735,2.406 c 0,-2.903 5.614,-6.052 5.836,-10.186 -4.281,3.174 -7.999,1.545 -12.951,3.072 -5.393,1.661 -6.895,3.927 -8.549,3.84 -0.974,-0.053 -1.856,-1.733 -1.484,-2.765 0.644,-1.787 7.314,-6.733 11.977,-7.627 1.117,-0.214 9.903,1.912 11.673,-0.819 l 20.272,-31.278 a 6.66,6.66 0 0 0 1.995,-0.719 c 0,0 -0.068,5.751 1.742,7.78 z m -40.815,35.064 a 0.944,0.944 0 0 1 -0.053,1.33 l -2.866,2.508 a 0.954,0.954 0 0 1 -1.33,-0.154 0.944,0.944 0 0 1 0.052,-1.331 l 2.866,-2.508 a 0.85,0.85 0 0 1 0.666,-0.204 c 0.258,0.034 0.495,0.162 0.666,0.359 z m 4.351,3.02 a 2.234,2.234 0 0 1 -0.083,3.157 l -0.02,0.018 -6.962,6.091 a 2.382,2.382 0 0 1 -3.123,-3.582 l 6.962,-6.041 a 2.214,2.214 0 0 1 1.229,-0.513 2.424,2.424 0 0 1 1.997,0.87 z m 3.99,4.71 a 2.23,2.23 0 0 1 -0.081,3.154 l -0.022,0.02 -7.012,6.092 a 2.254,2.254 0 0 1 -3.168,-0.349 l -0.007,-0.009 a 2.29,2.29 0 0 1 0.104,-3.224 l 6.961,-6.041 a 2.07,2.07 0 0 1 1.178,-0.513 2.513,2.513 0 0 1 2.047,0.87 z m 2.403,3.737 a 2.37,2.37 0 0 1 1.997,0.819 c 0.856,0.921 0.811,2.36 -0.102,3.225 l -6.963,6.042 a 2.37,2.37 0 0 1 -3.123,-3.534 l 7.014,-6.091 a 1.98,1.98 0 0 1 1.177,-0.461 z"
     fill="#cc092f"
     id="path9" />
  <path
     d="m 799.978,333.988 44.383,10 c 2.019,-0.61 11.513,-3.56 18.174,-7.269 11.726,-6.532 17.806,-13.031 31.74,-13.669 v -10.598 c 0,-5.662 -2.049,-10.763 -2.049,-16.177 5.874,-1.575 22.178,-21.51 37.218,-30.358 22.13,14.334 39.265,37.865 39.265,48.686 v 313.51 c 0,4.668 2.815,11.263 2.815,11.263 -8.079,-3.418 -22.888,-23.68 -26.006,-31.382 v 3.687 c -12.201,-5.564 -21.135,-20.184 -25.136,-27.747 l -0.257,3.838 c -10.9,-9.555 -24.776,-66.038 -24.776,-66.038 l -23.124,22.725 c 0,0 8.363,16.976 11.621,20.016 a 38.98,38.98 0 0 1 -4.658,0.256 c 1.522,2.188 13.147,18.925 16.791,25.238 3.41,5.906 5.816,3.277 11.058,3.277 4.347,0 14.2,6.925 15.818,9.727 a 20.496,20.496 0 0 1 2.968,9.471 c 0,3.24 -3.43,7.679 -3.43,7.679 a 4.03,4.03 0 0 0 -1.023,-2.099 l -10.341,12.695 c -1.034,1.143 -5.645,1.886 -7.27,0.411 -4.066,-3.697 -8.002,-6.282 -11.621,-11.621 -1.863,-2.751 -2.005,-5.904 -4.146,-8.858 l -24.675,-33.121 -0.612,3.43 c -3.694,-7.457 -21.451,-21.706 -21.451,-21.706 l -18.578,8.55 c 0,0 34.687,79.735 65.476,91.995 0,0 -13.395,5.691 -29.845,14.232 l -7.372,3.943 a 203.524,203.524 0 0 1 -6.399,-8.141 c -9.836,-13.16 -19.455,-28.412 -19.455,-28.412 -0.67,3.961 4.524,16.194 13.31,31.281 l 5.529,9.213 -6.655,3.892 c -16.295,9.805 -31.598,21.077 -37.267,31.432 l -4,-10.009 4,-10.009 V 347.265 l -2,-5 z"
     id="path10" />
  <path
     d="m 799.998,697.221 c 5.749,-6.236 17.769,-13.855 31.278,-20.886 -16.334,-29.316 -24.428,-75.655 -20.63,-84.88 0,0 6.705,24.033 14.898,37.729 7.586,12.684 16.925,26.95 25.954,37.526 a 205.67,205.67 0 0 1 20.785,-7.68 c -27.058,-20.843 -54.726,-89.742 -54.726,-89.742 l 28.612,-13.26 c 0,0 10.704,12.479 14.18,14.796 0,0 1.485,-6.206 2.355,-8.396 0,0 4.101,3.102 6.346,3.176 l 1.178,-6.964 c 2.825,1.883 7.525,1.485 7.525,1.485 -4.127,-1.954 -9.01,-13.925 -9.01,-13.925 l 27.322,-36.343 c 0,0 9.597,46.116 20.528,55.596 v -198.58 l -8.652,8.036 -13.105,-12.235 v -9.317 l 11.621,10.852 v -28.105 a 94.4,94.4 0 0 1 -3.788,-6.194 c -1.881,3.279 -7.96,13.329 -15.101,19.505 -1.175,-4.778 -8.908,-9.318 -8.908,-9.318 0,0 -2.771,7.508 -7.012,9.368 -1.492,-2.628 -10.394,-8.446 -10.394,-8.446 0,0 7.616,1.157 10.7,4.045 2.649,-0.593 3.328,-11.058 3.328,-11.058 0,0 11.207,5.459 13.156,9.368 2.137,-0.578 5.464,-8.988 6.759,-12.44 a 74.75,74.75 0 0 0 -8.345,-0.46 c -3.196,0 -7.285,1.514 -11.569,3.532 -4.707,2.216 -9.631,5.022 -14.028,7.014 -5.632,2.55 -14.153,3.068 -16.637,3.174 a 73.8,73.8 0 0 0 9.367,5.529 c 0,0 -13.411,-0.124 -22.832,-4.813 a 90.2,90.2 0 0 1 -9.829,-6.86 36.33,36.33 0 0 0 6.452,11.467 c -13.836,-1.171 -20.726,-9.072 -22.679,-11.723 a 37.68,37.68 0 0 1 -5.119,9.47 h -5 v 340 z m 101.955,-399.923 -0.255,6.348 v 18.687 c 5.019,-1.727 11.326,-9.973 14.384,-14.334 v -2.56 a 7.07,7.07 0 0 0 -2.457,-5.119 l 3.02,-1.074 a 8.8,8.8 0 0 1 2.406,5.784 v 1.485 l 9.009,9.676 8.856,-13.413 v -3.276 c 0,-2.208 -1.698,-4.67 -3.123,-6.348 l 2.97,-1.075 c 1.499,1.942 3.072,4.559 3.072,7.013 v 2.661 l 10.187,10.496 5.17,-11.109 c -6.205,-8.595 -16.266,-18.219 -25.749,-25.124 0,0 -20.564,18.881 -27.49,21.282 z m 52.12,18.123 v 15.411 l 7.167,6.654 v -22.883 a 17.57,17.57 0 0 0 -2.456,-7.731 z m -22.32,5.938 v 9.522 l 8.241,7.731 v -29.794 z m 11.161,17.202 8.243,-7.679 v -11.159 l -8.243,-8.652 z m -37.627,-11.57 c 1.914,2.705 6.927,9.321 12.337,12.236 v -26.16 c -1.241,2.065 -6.934,11.275 -12.337,13.924 z m 15.257,-12.594 v 24.163 l 8.243,-7.679 v -8.549 z m 33.53,25.75 v 24.113 l 7.167,-6.707 v -10.7 z m -11.154,7.731 v 8.651 l 8.244,7.678 V 340.198 Z M 931.762,340.2 v 24.01 l 8.241,-7.731 v -8.549 z m -11.213,7.73 v 8.549 l 8.243,7.73 V 340.2 Z m -11.159,16.33 8.244,-7.731 v -8.036 c -2.843,-1.735 -5.702,-4.924 -8.243,-8.293 z m 20.885,10.648 -8.703,-8.089 v 198.63 l -1.024,16.279 18.429,18.634 V 366.766 Z m 13.672,218.032 c 0,6.385 11.659,21.273 17.303,24.675 v -250.74 l -8.6,8.036 -8.703,-8.09 z"
     fill="#b07e5b"
     id="path11" />
  <path
     d="m 871.665,571.388 -6.348,-4.352 -0.972,4.967 26.057,35.425 c 1.921,2.584 3.534,9.163 3.534,9.163 0,0 2.814,-1.331 2.814,-3.736 0,-2.362 -0.308,-5.171 -0.308,-5.171 a 8.04,8.04 0 0 0 5.735,2.406 c 0,-2.903 -5.614,-6.052 -5.836,-10.186 4.281,3.174 7.999,1.545 12.951,3.072 5.393,1.661 6.895,3.927 8.549,3.84 0.974,-0.053 1.856,-1.733 1.484,-2.765 -0.644,-1.787 -7.314,-6.733 -11.977,-7.627 -1.117,-0.214 -9.903,1.912 -11.673,-0.819 l -20.272,-31.278 a 6.66,6.66 0 0 1 -1.995,-0.719 c 0,0 0.068,5.751 -1.742,7.78 z m 40.815,35.064 a 0.944,0.944 0 0 0 0.053,1.33 l 2.866,2.508 a 0.954,0.954 0 0 0 1.33,-0.154 0.944,0.944 0 0 0 -0.052,-1.331 l -2.866,-2.508 a 0.85,0.85 0 0 0 -0.666,-0.204 1.067,1.067 0 0 0 -0.666,0.359 z m -4.351,3.02 a 2.234,2.234 0 0 0 0.083,3.157 l 0.02,0.018 6.962,6.091 a 2.382,2.382 0 0 0 3.123,-3.582 l -6.962,-6.041 a 2.214,2.214 0 0 0 -1.229,-0.513 2.424,2.424 0 0 0 -1.997,0.87 z m -3.99,4.71 a 2.23,2.23 0 0 0 0.081,3.154 l 0.022,0.02 7.012,6.092 a 2.254,2.254 0 0 0 3.168,-0.349 l 0.01,-0.009 a 2.29,2.29 0 0 0 -0.104,-3.224 l -6.961,-6.041 a 2.07,2.07 0 0 0 -1.178,-0.513 2.513,2.513 0 0 0 -2.047,0.87 z m -2.403,3.737 a 2.37,2.37 0 0 0 -1.997,0.819 2.293,2.293 0 0 0 0.102,3.225 l 6.963,6.042 a 2.37,2.37 0 0 0 3.123,-3.534 l -7.014,-6.091 a 1.98,1.98 0 0 0 -1.177,-0.461 z"
     fill="#cc092f"
     id="path12" />
  <path
     d="m 789.734,236.637 c 11.458,0 19.517,5.224 30.359,10.033 2.841,1.26 5.45,2.281 7.779,3.071 a 9.575,9.575 0 0 0 -2.918,3.687 c 0,0 4.859,0.9 7.064,4.967 0,0 -4.62,0.524 -5.375,3.224 2.588,0.195 5.159,3.457 5.171,6.605 l -6.553,-2.049 a 82.424,82.424 0 0 1 1.587,15.358 c 0,4.086 -5.886,8.894 -5.886,15.819 0,21.734 5.475,30.088 9.369,36.807 1.523,2.629 2.761,5.654 5.324,7.935 -11.218,-5.973 -19.556,-13.439 -19.556,-20.374 v -26.262 h -2.918 v 26.262 c 0,5.029 1.228,7.372 1.228,7.372 1.761,5.564 5.321,14.152 7.526,17.61 -10.321,-5.578 -15.564,-12.563 -15.564,-15.153 v -36.092 h -2.918 v 36.603 l 0.563,2.508 c -1.251,1.88 -2.877,4.106 -3.993,4.863 -1.113,-0.756 -2.69,-2.986 -3.943,-4.863 l 0.564,-2.508 v -36.603 h -2.918 v 36.092 c 0,2.589 -5.243,9.575 -15.563,15.153 2.205,-3.459 5.764,-12.046 7.524,-17.61 0,0 1.229,-2.342 1.229,-7.372 v -26.262 h -2.918 v 26.262 c 0,6.927 -8.307,14.405 -19.505,20.374 2.537,-2.283 3.757,-5.321 5.272,-7.935 4.258,-7.348 9.522,-16.683 9.522,-43.258 0,-9.974 -1.475,-16.755 -4.044,-21.501 -0.781,-1.566 -1.833,-5.734 4.146,-5.734 3.097,0 10.188,5.478 10.188,5.478 a 9.836,9.836 0 0 0 -3.891,-6.86 4.21,4.21 0 0 1 -1.586,-2.919 6.18,6.18 0 0 1 2.763,-3.686 c 0.833,-0.378 -12.183,-2.646 -12.183,-8.549 0,-1.229 0.773,-2.048 3.479,-2.048 3.545,0 9.312,4.249 14.438,4.249 3.789,0 5.283,-0.922 9.163,-0.922 4.742,0 14.635,8.979 18.019,8.651 -3.783,-2.375 -9.894,-11.365 -19.145,-11.365 -3.211,0 -6.117,0.717 -9.114,0.717 -3.841,0 -7.623,-3.533 -11.774,-3.533 -2.782,0 -5.889,0.155 -6.349,-0.564 -0.805,-1.255 -0.08,-1.983 0.666,-3.02 1.409,-1.957 5.366,-2.525 9.267,-2.661 a 78.741,78.741 0 0 1 3.432,-0.051 l 2.971,0.053 z"
     fill="#b07e5b"
     id="path13" />
  <path
     d="m 752.53,250.69 a 9.685,9.685 0 0 1 8.534,-4.581 c 2.556,0 10.992,-0.177 10.992,-0.177 1.124,2.921 6.249,7.802 6.249,12.878 0,0 -5.202,-9.377 -19.723,-9.377 a 14.174,14.174 0 0 0 -6.054,1.256 z m 23.61,9.91 c 0,0 -3.093,3.258 -3.765,4.997 -3.061,-1.16 -8.399,-6.661 -8.399,-6.661 0,0 4.525,2.642 12.163,1.664 z"
     fill="#cc092f"
     id="path14" />
  <path
     d="m 771.24,251.97 c 0,0 -3.568,-1.144 -3.568,-2.342 0,-1.526 1.733,-1.526 2.769,-0.337 0.493,0.809 0.768,1.733 0.798,2.68 z"
     id="path15" />
  <ellipse
     cx="787.88098"
     cy="253.927"
     rx="7.3730001"
     ry="5.5960002"
     id="ellipse15" />
  <circle
     cx="787.87299"
     cy="253.927"
     r="5.1209998"
     fill="#ffd200"
     id="circle15" />
  <circle
     cx="787.875"
     cy="253.92799"
     r="2.346"
     id="circle16" />
  <path
     d="m 705.152,621.952 16.202,8.839 -3.931,18.028 -16.201,-8.839 z"
     id="path16" />
  <path
     d="m 629.677,448.73 -5.836,2.663 65.936,144.42 h 7.014 z m 77.762,170.32 -4.76,4.915 2.969,6.553 5.784,-2.662 z"
     id="path17" />
  <path
     d="m 650.167,562.6 c 0,0 5.554,11.472 9.775,13.045 -2.183,-0.595 -9.271,2.006 -9.271,2.006 0,0 12.499,11.165 23.1,11.898 8.99,0.619 13.355,-3.868 13.355,-3.868 l -1.801,-9.524 a 35.67,35.67 0 0 0 -14.302,-9.707 c -8.894,-3.098 -20.857,-3.848 -20.857,-3.848 z m 41.87,-20.55 c 0,0 -7.669,6.565 -9.768,14.169 -2.099,7.604 1.368,16.247 1.368,16.247 l 6.444,12.021 c 0,0 8.931,-4.753 12.73,-11.86 3.799,-7.107 2.406,-16.698 2.406,-16.698 0,0 -7.075,2.634 -7.975,3.8 1.493,-7.884 -5.206,-17.679 -5.206,-17.679 z m -24.65,-3.07 c 0,0 -8.722,2.948 -17.192,2.438 -8.068,-0.487 -14.777,-7.262 -14.777,-7.262 0,0 6.688,-4.526 9.989,-3.923 -3.631,-1.327 -8.896,-10.423 -8.896,-10.423 0,0 7.482,-2.261 14.116,0.24 6.634,2.501 12.419,9.77 12.419,9.77 l 4.342,9.16 z m 3,-42.6 c 0,0 4.362,9.032 3.328,12.171 1.353,-2.09 6.474,-5.345 6.474,-5.345 0,0 3.096,14.624 0.135,23.656 -2.961,9.032 -11.974,12.47 -11.974,12.47 l -9.943,-19.337 c 0,0 -1.48,-7.164 1.62,-12.837 3.1,-5.673 10.36,-10.779 10.36,-10.779 z m -56.75,-23.91 c 0,0 9.427,-0.99 18.051,2.583 7.21,2.993 9.42,8.433 9.42,8.433 l 3.551,9.52 c 0,0 -10.261,3.848 -18.368,0.906 -8.107,-2.942 -14.065,-12.68 -14.065,-12.68 0,0 5.666,-2.149 7.823,-1.343 -3.142,-1.39 -6.41,-7.419 -6.41,-7.419 v 10e-4 z m 29.65,-17.67 c 0,0 4.137,5.313 4.261,11.424 1.103,-3.249 6.268,-6.84 6.268,-6.84 0,0 5.312,12.855 4.146,21.982 -1.166,9.127 -8.809,14.527 -8.809,14.527 l -9.531,-18.092 c 0,0 -3.106,-7.415 -2.191,-13.167 0.915,-5.752 5.856,-9.836 5.856,-9.836 z m -32.65,-34.6 c 0,0 -1.709,9.854 1.199,15.53 2.598,5.065 4.252,6.176 4.252,6.176 -4.954,-3.269 -12.444,-3.551 -12.444,-3.551 0,0 2.666,10.721 9.037,15.612 6.371,4.891 16.195,3.748 16.195,3.748 0,0 6.46,-8.6 6.01,-17.865 -0.45,-9.265 -7.808,-19.197 -7.808,-19.197 0,0 -2.902,6.02 -3.158,10.514 -1.878,-4.633 -13.285,-10.966 -13.285,-10.966 z m 77,165.07 0.265,3.537 c 5.875,0.055 6.75,-0.53 8.256,1.322 a 4.974,4.974 0 0 0 5.787,1.215 4.84,4.84 0 0 0 2.38,-6.376 c -1.095,-2.399 -3.326,-2.92 -5.475,-2.496 -1.319,0.26 -2.187,1.313 -3.306,1.891 -2.128,1.102 -7.909,0.908 -7.909,0.908 z"
     id="path18" />
  <path
     d="m 687.127,582.57 2.859,2.095 c -3.067,5.014 -4.024,5.446 -3.251,7.705 a 4.98,4.98 0 0 1 -2.035,5.553 4.84,4.84 0 0 1 -6.669,-1.358 c -1.454,-2.2 -0.715,-4.366 0.783,-5.965 0.92,-0.982 2.27,-1.16 3.353,-1.803 2.062,-1.223 4.959,-6.228 4.959,-6.228 z m -19.9,-42 0.264,3.537 c 5.876,0.054 6.75,-0.53 8.256,1.321 a 4.977,4.977 0 0 0 5.787,1.215 4.834,4.834 0 0 0 2.379,-6.375 c -1.095,-2.4 -3.325,-2.92 -5.474,-2.496 -1.32,0.261 -2.187,1.313 -3.305,1.891 -2.129,1.101 -7.909,0.908 -7.909,0.908 z"
     id="path19" />
  <path
     d="m 668.417,541.82 2.5,2.517 c -3.809,4.474 -4.824,4.753 -4.411,7.104 a 4.974,4.974 0 0 1 -2.874,5.17 4.84,4.84 0 0 1 -6.376,-2.379 c -1.095,-2.399 -0.028,-4.425 1.701,-5.771 1.061,-0.825 2.425,-0.793 3.593,-1.258 2.227,-0.887 5.867,-5.382 5.867,-5.382 z m -20.97,-43.1 0.265,3.537 c 5.876,0.054 6.75,-0.53 8.257,1.323 a 4.98,4.98 0 0 0 5.788,1.213 4.84,4.84 0 0 0 2.379,-6.377 c -1.097,-2.399 -3.326,-2.919 -5.476,-2.495 -1.32,0.261 -2.187,1.313 -3.306,1.891 -2.128,1.102 -7.908,0.907 -7.908,0.907 z"
     id="path20" />
  <path
     d="m 649.077,497.98 2.499,2.516 c -3.809,4.475 -4.822,4.754 -4.411,7.105 a 4.975,4.975 0 0 1 -2.873,5.169 4.84,4.84 0 0 1 -6.376,-2.379 c -1.094,-2.4 -0.027,-4.426 1.701,-5.771 1.061,-0.827 2.424,-0.793 3.594,-1.26 2.227,-0.887 5.866,-5.38 5.866,-5.38 z m -22.7,-43.44 0.264,3.536 c 5.876,0.055 6.751,-0.53 8.256,1.321 a 4.98,4.98 0 0 0 5.788,1.217 4.84,4.84 0 0 0 2.38,-6.377 c -1.095,-2.4 -3.326,-2.921 -5.476,-2.496 -1.318,0.261 -2.186,1.314 -3.305,1.891 -2.128,1.101 -7.909,0.908 -7.909,0.908 z"
     id="path21" />
  <path
     d="m 628.007,453.8 2.498,2.517 c -3.808,4.475 -4.823,4.753 -4.41,7.105 a 4.975,4.975 0 0 1 -2.873,5.169 4.84,4.84 0 0 1 -6.375,-2.379 c -1.096,-2.399 -0.028,-4.427 1.699,-5.771 1.062,-0.825 2.425,-0.793 3.594,-1.26 2.226,-0.886 5.866,-5.38 5.866,-5.38 z"
     id="path22" />
  <g
     fill="#ffd200"
     id="g30"
     transform="translate(-100,30)">
    <path
       d="m 807.486,597.062 10.049,5.482 -2.438,11.183 -10.049,-5.482 z M 763.497,500.09 c -2.106,0.874 -5.23,-8.295 -7.524,-13.318 -2.353,-5.155 -7.131,-13.1 -5.774,-13.72 1.489,-0.68 3.451,3.492 5.859,8.767 2.408,5.275 9.412,17.449 7.439,18.269 z m -21.63,-48.29 c -2.105,0.877 -4.41,-5.127 -6.703,-10.151 -2.353,-5.154 -4.645,-8.795 -3.288,-9.415 1.49,-0.68 3.69,3.837 5.616,8.055 1.866,4.088 6.348,10.69 4.374,11.512 z m 50.04,109.49 c -1.653,0.442 -8.869,-14.662 -14.703,-27.442 -5.834,-12.78 -10.177,-23.119 -8.82,-23.736 1.49,-0.681 6.213,11.391 12.049,24.172 5.836,12.781 12.713,26.673 11.475,27.006 z"
       id="path23" />
    <circle
       cx="799.97198"
       cy="556.98401"
       r="2.6059999"
       id="circle23" />
    <circle
       cx="782.047"
       cy="563.93298"
       r="2.6059999"
       id="circle24" />
    <circle
       cx="779.55402"
       cy="512.25"
       r="2.6059999"
       id="circle25" />
    <circle
       cx="761.62097"
       cy="522.23999"
       r="2.6059999"
       id="circle26" />
    <circle
       cx="759.77802"
       cy="470.414"
       r="2.6059999"
       id="circle27" />
    <circle
       cx="742.27899"
       cy="478.40201"
       r="2.6059999"
       id="circle28" />
    <circle
       cx="738.70801"
       cy="426.23901"
       r="2.6059999"
       id="circle29" />
    <circle
       cx="721.21198"
       cy="434.22299"
       r="2.6059999"
       id="circle30" />
  </g>
  <path
     d="m 613.537,426.19 c 0,0 -0.255,7.201 2.127,11.285 2.382,4.084 7.704,5.715 7.704,5.715 0,0 0.254,-7.199 -2.128,-11.283 -2.382,-4.084 -7.703,-5.717 -7.703,-5.717 z m -4.98,16.29 c 0,0 6.255,0.368 9.868,3.136 3.613,2.768 5.009,8.535 5.009,8.535 a 11.936,11.936 0 0 1 -7.756,-2.347 c -3.611,-2.769 -7.121,-9.324 -7.121,-9.324 z m 19.63,-14.54 a 25.115,25.115 0 0 0 -1.84,9.912 c 0.239,5.143 3.24,10.937 3.24,10.937 0,0 2.713,-6.174 2.474,-11.318 -0.239,-5.144 -3.147,-8.075 -3.874,-9.531 z m -10.53,46.36 a 23.766,23.766 0 0 0 7.799,6.626 c 4.728,2.337 11.773,2.424 11.773,2.424 a 27.35,27.35 0 0 0 -8.245,-6.9 c -4.728,-2.337 -11.327,-2.152 -11.327,-2.152 z m 1.52,9.96 c 0,0 2.257,4.421 6.384,6.316 4.127,1.895 12.574,1.74 12.574,1.74 a 23.47,23.47 0 0 0 -7.368,-6.027 c -4.128,-1.897 -11.591,-2.029 -11.591,-2.029 z m 23.77,-23.58 a 17.17,17.17 0 0 0 -2.251,8.666 c 0.245,4.545 3.227,9.511 3.227,9.511 0,0 2.097,-5.693 1.852,-10.237 a 15.85,15.85 0 0 0 -2.829,-7.94 z m 9.19,5.83 c 0,0 -4.269,5.73 -4.882,11.621 -0.613,5.891 2.428,11.942 2.428,11.942 0,0 5.157,-5.178 5.77,-11.068 0.613,-5.89 -3.316,-12.493 -3.316,-12.493 z m -11.77,54.4 a 12.59,12.59 0 0 0 2.297,4.367 34.335,34.335 0 0 0 4.836,4.632 14.014,14.014 0 0 1 6.615,-0.155 c 3.665,0.795 8.54,4.06 8.54,4.06 0,0 -5.247,-7.831 -10.695,-10.876 a 19.77,19.77 0 0 0 -11.591,-2.029 z m -0.54,13.46 c 0,0 6.793,-2.902 12.387,-2.153 5.594,0.749 10.639,5.171 10.639,5.171 0,0 -7.561,2.616 -13.155,1.868 a 19.817,19.817 0 0 1 -9.872,-4.886 z m 28.71,-31.58 c 0,0 -6.007,6.364 -6.511,11.887 -0.504,5.523 4.871,10.669 4.871,10.669 a 16.17,16.17 0 0 1 0.661,-5.874 23.24,23.24 0 0 1 2.893,-4.822 14.48,14.48 0 0 0 0.514,-5.123 23.44,23.44 0 0 0 -2.428,-6.737 z m 8.62,7.37 c 0,0 -5.662,5.729 -7.158,11.864 -1.496,6.135 1.17,12.676 1.17,12.676 0,0 5.149,-4.062 6.646,-10.196 1.497,-6.134 -0.659,-14.344 -0.659,-14.344 z m 14.18,36.98 a 41.47,41.47 0 0 1 3.215,9.833 c 0.652,4.477 0.048,6.027 0.048,6.027 0,0 -2.652,2.607 -3.841,4.14 -1.528,1.97 -1.752,5.576 -1.752,5.576 0,0 -5.325,-7.916 -4.504,-13.703 0.821,-5.787 6.834,-11.874 6.834,-11.874 z m 11.22,12.39 c 0,0 -6.818,4.503 -9.523,9.123 a 12.8,12.8 0 0 0 -1.304,9.349 10.52,10.52 0 0 0 7.566,-5.046 c 2.706,-4.618 3.26,-13.427 3.26,-13.427 z m -44.8,19.02 c 0,0 9.826,-0.268 15.832,1.209 6.006,1.477 8.192,4.695 8.192,4.695 0,0 -6.753,3.162 -12.759,1.686 -6.006,-1.476 -11.266,-7.591 -11.266,-7.591 z m -1.66,-11.66 c 0,0 4.433,6.873 10.164,9.367 7.898,3.435 17.043,1.77 17.043,1.77 0,0 -4.968,-6.089 -11.804,-8.777 -6.836,-2.688 -15.403,-2.359 -15.403,-2.359 z"
     fill="#007a50"
     id="path30" />
  <path
     d="m 992.517,431.944 1.281,2.712 a 5.878,5.878 0 0 0 -3.022,2.559 c -0.94,1.847 0.615,4.455 0.615,4.455 0,0 -10.804,-0.943 -12.491,0.154 -1.528,0.99 0.647,8.474 -0.359,14.795 -1.402,8.81 -4.875,8.07 -5.017,9.777 -0.138,1.659 1.331,4.249 1.331,4.249 0,0 -2.026,0.638 -2.458,1.485 -0.695,1.362 0.484,3.875 -0.358,5.528 l -16.228,31.843 c -0.641,1.257 -2.363,1.737 -3.226,3.43 a 6.23,6.23 0 0 0 -0.153,3.839 c 0,0 -3.041,0.182 -4.096,2.253 a 8.895,8.895 0 0 0 -0.461,5.17 4.04,4.04 0 0 0 -2.868,2.099 c -1.009,1.981 0.7,3.02 0.259,3.891 l -17.867,35.068 c -1.631,3.199 -7.338,3.84 -10.65,10.341 a 9.6,9.6 0 0 0 1.382,10.955 c 0,0 -4.772,0.432 -6.04,2.919 -1.292,2.535 -0.27,6.384 3.174,8.139 3.444,1.755 7.207,0.334 8.5,-2.201 1.267,-2.487 -1.281,-6.604 -1.281,-6.604 a 9.69,9.69 0 0 0 9.675,-5.376 c 3.313,-6.501 0.52,-11.441 2.15,-14.641 l 17.867,-35.068 c 0.445,-0.871 2.267,-0.117 3.276,-2.098 a 3.96,3.96 0 0 0 0,-3.532 9,9 0 0 0 3.943,-3.431 c 1.056,-2.071 -0.563,-4.658 -0.563,-4.658 a 6.113,6.113 0 0 0 3.02,-2.354 c 0.862,-1.693 0.228,-3.35 0.869,-4.609 l 16.229,-31.841 c 0.843,-1.655 3.555,-2.221 4.249,-3.585 0.432,-0.846 -0.255,-2.866 -0.255,-2.866 0,0 2.988,-0.296 4.248,-1.383 1.298,-1.118 -1.337,-3.516 4.967,-9.829 4.522,-4.528 11.817,-7.192 11.722,-9.01 -0.105,-2.01 -7.218,-10.187 -7.218,-10.187 0,0 3.001,-0.253 3.942,-2.098 a 6.05,6.05 0 0 0 0.308,-3.994 l 2.968,-0.512 V 423.65 l -11.365,8.294 z m -98.136,196.074 a 3.5,3.5 0 0 0 0,3.121 c 0,0 -3.583,-1.12 -4.812,-0.512 -1.158,0.573 0,17.458 0,17.458 0,0 14.295,-9.018 14.077,-10.29 -0.23,-1.352 -3.225,-3.635 -3.225,-3.635 a 3.42,3.42 0 0 0 2.509,-1.791 c 0.47,-0.925 0.533,-3.568 -2.714,-5.223 a 5.78,5.78 0 0 0 -3.174,-0.716 3.395,3.395 0 0 0 -2.661,1.588 z"
     id="path31" />
  <path
     d="m 995.117,432.51 6.757,3.431 -0.101,-8.141 z m -2.61,4.915 a 3.905,3.905 0 1 0 5.413,-1.1 4.12,4.12 0 0 0 -0.396,-0.23 4.2,4.2 0 0 0 -2.202,-0.461 3.356,3.356 0 0 0 -2.816,1.792 z m -11.62,6.195 c -0.711,0.46 0.256,6.545 0.051,11.722 -0.194,4.882 -1.756,6.257 -2.611,7.935 -0.789,1.549 -3.634,3.379 -3.634,3.379 l 2.354,2.355 c 0,0 1.532,-2.386 3.942,-7.118 2.843,-5.579 2.751,-15.688 3.585,-16.227 a 64.51,64.51 0 0 1 6.655,-1.946 c -0.001,0 -5.442,-0.294 -8.447,-0.254 a 6.67,6.67 0 0 0 -1.895,0.155 z m 0.62,28.105 a 77.87,77.87 0 0 1 3.533,-7.577 c 3.311,-6.499 10.379,-11.213 10.544,-12.389 0.172,-1.212 -2.457,-6.91 -2.457,-6.91 0,0 -6.235,1.195 -7.118,2.048 -0.852,0.823 -0.476,9.267 -3.788,15.767 a 77.78,77.78 0 0 1 -4.094,7.372 l 3.379,1.689 z m 15.92,-19.505 c 0.052,0.989 -8.163,6.861 -11.007,12.439 -2.41,4.731 -3.43,7.373 -3.43,7.373 l 3.277,0.512 c 0,0 -0.226,-3.367 0.563,-4.915 0.854,-1.677 1.079,-3.731 4.915,-6.757 4.068,-3.209 9.567,-6.014 9.522,-6.861 -0.041,-0.782 -6.144,-8.344 -6.144,-8.344 a 66.086,66.086 0 0 1 2.303,6.553 z m -24.06,36.5 c 4.936,-9.688 6.444,-10.348 7.065,-11.569 0.669,-1.312 0.509,-3.078 -1.689,-4.199 a 3.77,3.77 0 0 0 -2.15,-0.459 2.8,2.8 0 0 0 -2.202,1.586 c -0.622,1.222 -0.285,2.855 -5.223,12.544 l -11.212,21.961 a 2.33,2.33 0 0 0 0.851,3.185 2.34,2.34 0 0 0 0.173,0.091 2.24,2.24 0 0 0 3.047,-0.86 2.23,2.23 0 0 0 0.127,-0.267 l 11.212,-22.013 z m -19.81,25.188 c -0.611,1.201 0.436,2.964 2.355,3.943 1.919,0.979 3.996,0.791 4.607,-0.41 0.611,-1.201 -0.486,-2.964 -2.406,-3.943 a 5.2,5.2 0 0 0 -2.765,-0.613 2.107,2.107 0 0 0 -1.792,1.023 z m -4.15,6.245 c -0.792,1.553 0.443,3.783 2.765,4.968 2.322,1.185 4.84,0.886 5.631,-0.667 0.791,-1.553 -0.444,-3.782 -2.765,-4.967 a 6.32,6.32 0 0 0 -2.559,-0.716 3.126,3.126 0 0 0 -3.072,1.382 z m -2.61,6.964 c -0.611,1.199 0.437,2.963 2.355,3.941 1.918,0.978 3.995,0.791 4.608,-0.409 0.613,-1.2 -0.437,-2.964 -2.355,-3.942 a 5.38,5.38 0 0 0 -2.816,-0.615 2.11,2.11 0 0 0 -1.792,1.025 z m -1.69,6.655 -16.84,33.121 c -1.404,2.754 -7.312,4.47 -9.625,9.011 -2.33,4.568 -0.686,8.844 2.354,10.392 3.04,1.548 7.502,0.423 9.83,-4.146 2.313,-4.54 0.235,-10.353 1.637,-13.106 l 16.843,-33.122 a 2.3,2.3 0 0 0 -0.76,-3.161 2.186,2.186 0 0 0 -0.213,-0.115 2.37,2.37 0 0 0 -1.433,-0.255 2.575,2.575 0 0 0 -1.793,1.382 z m -31.49,56.874 c -0.933,1.83 0.134,4.269 2.405,5.426 2.271,1.157 4.904,0.601 5.837,-1.228 0.933,-1.829 -0.186,-4.27 -2.457,-5.427 a 5.296,5.296 0 0 0 -2.56,-0.614 3.624,3.624 0 0 0 -3.225,1.843 z m -16.583,37.423 a 1.69,1.69 0 0 0 -1.535,0.717 c -0.477,0.935 0.508,2.413 2.201,3.276 1.693,0.863 3.464,0.782 3.942,-0.154 0.478,-0.936 -0.51,-2.414 -2.201,-3.276 a 4.987,4.987 0 0 0 -2.407,-0.564 z m -5.836,4.606 v 12.082 l 9.83,-7.065 a 10.98,10.98 0 0 0 -9.83,-5.018 z m 6.222,-269.078 c 0,-6.626 8.703,-13.157 8.703,-13.157 H 693.877 c 0,0 8.703,6.53 8.703,13.157 v 157.986 a 14.386,14.386 0 0 0 3.328,9.521 c 2.041,2.853 6.39,6.795 10.903,9.727 13.94,9.053 37.246,18.599 54.88,26.621 14.694,6.684 20.671,9.381 28.309,18.839 7.639,-9.458 13.667,-12.154 28.361,-18.839 17.631,-8.021 40.938,-17.568 54.879,-26.621 4.515,-2.932 8.864,-6.873 10.904,-9.727 a 14.36,14.36 0 0 0 3.276,-9.521 z"
     fill="#ffd200"
     id="path32" />
  <path
     d="m 707.597,452.981 v -89.385 a 13.512,13.512 0 0 0 -2.56,-8.139 h 189.928 a 13.52,13.52 0 0 0 -2.56,8.139 l 0.054,89.385 -92.43,28 -92.431,-28 z"
     fill="#cc092f"
     id="path33" />
  <path
     d="m 892.458,452.981 -57.234,-1.075 h -70.393 l -57.234,1.075 v 68.601 c 0,3.448 3.578,11.525 24.215,21.807 34.111,16.998 60.33,24.934 68.189,34.607 7.858,-9.673 34.077,-17.61 68.189,-34.607 20.636,-10.282 24.214,-18.359 24.214,-21.807 z"
     fill="#0046ae"
     id="path34" />
  <path
     d="m 833.84,449.401 c 0,0 33.019,-8.326 33.019,-43.617 0,-27.563 -33.103,-41.237 -34.044,-47.814 -3.235,11.381 11.058,27.1 11.058,45.715 0,24.086 -17.764,25.239 -17.764,25.239 -4.157,0 -5.841,2.968 -7.475,2.968 -3.497,-0.365 -5.143,-4.813 -8.601,-4.813 -3.247,0 -5.74,5.017 -10.033,5.017 -4.293,0 -6.735,-5.017 -9.983,-5.017 -3.456,0 -5.103,4.448 -8.6,4.813 -1.634,0 -3.319,-2.968 -7.476,-2.968 0,0 -17.763,-1.153 -17.763,-25.239 0,-18.615 14.295,-34.336 11.058,-45.715 -0.938,6.577 -34.041,20.25 -34.041,47.814 0,35.291 33.019,43.617 33.019,43.617 l -9.42,17.149 c 0,0 13.645,0.683 20.887,6.861 8.733,7.448 7.883,23.229 7.883,34.709 0,9.045 -1.143,18.59 -5.784,22.524 -6.232,5.284 -10.445,5.675 -10.445,11.878 0,5.174 3.977,6.211 10.445,9.625 8.287,4.373 7.901,10.238 20.22,10.238 12.319,0 11.985,-5.864 20.273,-10.238 6.468,-3.414 10.444,-4.451 10.444,-9.625 0,-6.203 -4.214,-6.594 -10.444,-11.878 -4.641,-3.936 -5.784,-13.48 -5.784,-22.524 0,-11.48 -0.849,-27.261 7.883,-34.709 7.243,-6.177 20.886,-6.861 20.887,-6.861 z m -33.843,-88.981 -5.735,16.281 -15.614,-7.424 7.423,15.615 -16.279,5.784 16.279,5.785 -7.423,15.563 15.614,-7.423 5.735,16.279 5.785,-16.279 15.614,7.423 -7.422,-15.563 16.279,-5.785 -16.279,-5.784 7.422,-15.615 -15.614,7.424 z m -35.17,91.49 c 0,0 -20.387,-4.984 -28.002,-15.051 a 78.567,78.567 0 0 1 -29.232,16.126 c 0,0 16.607,7.498 29.232,17.048 5.817,-8.336 28.002,-18.123 28.002,-18.123 z"
     id="path35" />
  <path
     d="m 835.217,451.91 c 0,0 22.186,9.786 28.004,18.123 12.623,-9.55 29.229,-17.048 29.229,-17.048 a 78.584,78.584 0 0 1 -29.229,-16.126 c -7.615,10.066 -28.004,15.051 -28.004,15.051 z m -62.04,21.7 -7.935,7.934 7.935,7.935 7.935,-7.935 z m 53.7,0 -7.934,7.934 7.934,7.935 7.935,-7.935 z m -55.697,46.33 a 94.104,94.104 0 0 1 -0.972,15.307 c 0,0 11.186,-3.293 13.414,-14.641 1.044,-5.32 2.207,-24.918 -3.175,-28.259 l -14.589,-2.867 a 89.45,89.45 0 0 1 5.323,30.46 z m 48.426,-27.592 c -5.381,3.34 -4.218,22.938 -3.174,28.259 2.227,11.348 13.413,14.641 13.413,14.641 a 94.104,94.104 0 0 1 -0.972,-15.307 89.397,89.397 0 0 1 5.325,-30.461 z m -82.824,0.567 a 9.29,9.29 0 0 0 -6.861,11.205 9.29,9.29 0 0 0 0.923,2.361 9.246,9.246 0 0 0 -2.304,-0.461 9.27,9.27 0 0 0 -0.972,0 9.39,9.39 0 1 0 1.945,18.635 9.22,9.22 0 0 0 -1.125,1.996 9.41,9.41 0 0 0 5.158,12.262 9.41,9.41 0 0 0 12.262,-5.158 l 0.036,-0.089 c 0.28,-0.707 0.469,-1.447 0.564,-2.202 a 9.3,9.3 0 0 0 1.586,1.689 c 3.93,3.386 9.861,2.945 13.248,-0.985 3.387,-3.93 2.945,-9.861 -0.985,-13.248 a 9.4,9.4 0 0 0 -2.127,-1.381 9.32,9.32 0 0 0 2.098,-0.972 9.46,9.46 0 0 0 2.969,-13.004 9.326,9.326 0 0 0 -8.549,-4.351 9.464,9.464 0 0 0 -4.403,1.434 9.3,9.3 0 0 0 -1.791,1.433 9.47,9.47 0 0 0 -9.511,-9.425 9.476,9.476 0 0 0 -2.161,0.26 z m 99.82,27.335 c 1.017,9.587 8.808,17.619 18.429,19.914 a 21.28,21.28 0 0 1 -3.072,-8.856 c -1.205,-11.37 7.588,-20.581 19.607,-20.581 1.863,0.003 3.718,0.226 5.528,0.667 a 24.826,24.826 0 0 0 -20.887,-11.775 c -12.018,0 -20.813,9.262 -19.605,20.63 z"
     id="path36" />
  <g
     fill="#ffd200"
     id="g38"
     transform="translate(-100,30)">
    <path
       d="m 851.369,373.684 c 0,18.128 9.667,28.821 22.576,28.821 2.462,0 5.155,3.328 7.475,3.328 3.782,0 6.298,-4.198 8.601,-4.198 2.927,0 4.9,4.607 9.982,4.607 5.082,0 7.107,-4.607 10.034,-4.607 2.302,0 4.818,4.198 8.6,4.198 2.321,0 5.012,-3.328 7.475,-3.328 12.909,0 22.577,-10.693 22.577,-28.821 0,-14.784 -12.416,-32.81 -11.058,-35.734 0,0 24.214,17.369 24.214,37.832 0,32.963 -33.429,41.109 -33.429,41.109 l 7.525,16.944 c 0,0 -10.362,1.554 -16.689,6.656 -8.439,6.805 -8.55,25.191 -8.55,37.626 0,14.648 0.545,20.855 5.837,24.829 5.58,4.193 9.777,5.096 9.777,9.369 0,3.723 -4.345,5.246 -9.983,7.73 -6.413,2.827 -7.052,7.731 -16.33,7.731 -9.278,0 -9.867,-4.904 -16.28,-7.731 -5.637,-2.484 -9.983,-4.006 -9.983,-7.73 0,-4.273 4.197,-5.176 9.777,-9.369 5.292,-3.974 5.836,-10.181 5.836,-24.829 0,-12.435 -0.11,-30.821 -8.549,-37.626 -6.328,-5.104 -16.689,-6.656 -16.689,-6.656 l 7.524,-16.944 c 0,0 -33.428,-8.145 -33.428,-41.109 0,-20.463 24.215,-37.832 24.215,-37.832 1.358,2.924 -11.057,20.95 -11.057,35.734 z m 35.988,136.126 c -6.567,0 -10.75,1.386 -10.75,3.379 0,1.993 4.184,3.328 10.75,3.328 1.75,0 3.737,-1.019 3.737,-3.328 a 3.47,3.47 0 0 0 -3.55,-3.388 3.9,3.9 0 0 0 -0.187,0.009 z m 25.34,0 a 3.47,3.47 0 0 0 -3.728,3.192 3.46,3.46 0 0 0 -0.009,0.187 c -0.001,2.309 1.987,3.328 3.737,3.328 6.568,0 10.75,-1.333 10.75,-3.328 0,-1.995 -4.183,-3.379 -10.75,-3.379 z m -12.64,-168.43 3.686,10.394 9.931,-4.761 -4.71,9.982 10.342,3.687 -10.342,3.686 4.71,9.931 -9.931,-4.71 -3.737,10.341 -3.686,-10.341 -9.931,4.71 4.71,-9.931 -10.341,-3.686 10.341,-3.687 -4.71,-9.982 9.931,4.761 z m -82.743,81.899 c 0,0 12.609,6.28 18.943,11.877 l 0.357,0.307 0.204,-0.255 c 5.986,-6.871 17.098,-12.696 17.098,-12.696 0,0 -10.676,-2.945 -17.404,-10.648 -7.112,7.248 -19.198,11.415 -19.198,11.415 z m 165.411,0.016 c 0,0 -12.609,6.28 -18.943,11.877 l -0.357,0.307 -0.204,-0.255 c -5.986,-6.871 -17.098,-12.696 -17.098,-12.696 0,0 10.676,-2.945 17.404,-10.648 7.112,7.248 19.198,11.415 19.198,11.415 z m -109.548,24.105 4.147,4.145 -4.147,4.199 -4.198,-4.199 z m 53.7,0 4.199,4.145 -4.199,4.199 -4.146,-4.199 z m -48.067,18.119 c 2.897,3.998 2.405,10.462 2.405,19.455 a 14.07,14.07 0 0 1 -6.808,12.541 c 0,-21.794 -2.247,-27.034 -3.43,-33.634 z m 50.267,-1.639 c -1.185,6.602 -3.429,11.841 -3.429,33.634 a 14.07,14.07 0 0 1 -6.809,-12.541 c 0,-8.993 -0.492,-15.455 2.406,-19.454 z m -82.468,8.248 a 7.11,7.11 0 0 1 0.153,2.407 6.857,6.857 0 0 1 -0.46,1.842 10.704,10.704 0 0 0 -11.57,2.97 7.33,7.33 0 0 1 -1.33,-1.536 7.15,7.15 0 0 1 -0.973,-2.15 7.31,7.31 0 0 1 5.331,-8.852 7.31,7.31 0 0 1 8.849,5.319 z m 10.914,13.658 a 7.11,7.11 0 0 1 -2.242,0.889 6.883,6.883 0 0 1 -1.894,0.132 10.705,10.705 0 0 0 -6.4,-10.086 7.31,7.31 0 0 1 1.05,-1.74 7.175,7.175 0 0 1 1.744,-1.59 7.31,7.31 0 0 1 10.068,2.326 7.31,7.31 0 0 1 -2.326,10.068 z m -9.616,14.6 a 7.11,7.11 0 0 1 -1.539,-1.857 6.905,6.905 0 0 1 -0.711,-1.761 10.706,10.706 0 0 0 7.615,-9.203 7.31,7.31 0 0 1 1.979,0.461 7.195,7.195 0 0 1 2.051,1.167 7.31,7.31 0 0 1 0.872,10.296 7.31,7.31 0 0 1 -10.267,0.897 z m -16.858,-4.634 a 7.11,7.11 0 0 1 1.291,-2.037 6.89,6.89 0 0 1 1.455,-1.22 10.705,10.705 0 0 0 11.106,4.398 7.31,7.31 0 0 1 0.173,2.024 7.15,7.15 0 0 1 -0.477,2.311 7.31,7.31 0 0 1 -9.515,4.03 7.31,7.31 0 0 1 -4.033,-9.507 z m -0.802,-17.464 a 7.11,7.11 0 0 1 2.336,0.598 c 0.581,0.26 1.122,0.598 1.61,1.007 a 10.707,10.707 0 0 0 -0.751,11.922 7.314,7.314 0 0 1 -1.872,0.79 7.17,7.17 0 0 1 -2.345,0.261 7.31,7.31 0 0 1 -6.771,-7.805 7.31,7.31 0 0 1 7.793,-6.772 z"
       id="path37" />
    <circle
       cx="842.66699"
       cy="486.46799"
       r="7.0650001"
       id="circle37" />
    <path
       d="m 966.702,476.942 c -11.729,2.268 -20.17,12.628 -18.942,24.727 -3.738,-3.096 -6.473,-7.266 -6.962,-11.877 -0.951,-8.979 5.571,-15.922 15.409,-15.922 a 20.08,20.08 0 0 1 10.495,3.072 z"
       id="path38" />
  </g>
  <path
     d="M 901.974,352.017 H 698.026 c 2.705,2.723 6.138,7.067 6.138,11.569 v 137.201 h -0.006 v 20.786 h 0.006 a 13.6,13.6 0 0 0 0.773,4.783 14.22,14.22 0 0 0 2.168,3.772 l 0.037,0.049 a 37.13,37.13 0 0 0 6.871,6.736 52.99,52.99 0 0 0 1.776,1.333 47.7,47.7 0 0 0 1.818,1.241 l 0.014,0.01 c 10.853,7.046 27.574,14.455 42.766,21.184 l 11.896,5.312 0.006,0.006 v -10e-4 l 0.338,0.153 h 0.005 c 13.905,6.325 20.106,9.148 27.367,17.651 7.281,-8.535 13.462,-11.347 27.495,-17.73 l -10e-4,-0.002 0.16,-0.073 11.896,-5.311 c 15.192,-6.729 31.915,-14.138 42.771,-21.186 l 0.009,-0.006 a 49.821,49.821 0 0 0 8.408,-6.883 28.07,28.07 0 0 0 1.156,-1.275 c 0.331,-0.39 0.637,-0.779 0.908,-1.158 l 0.024,-0.024 0.005,-0.007 0.013,-0.019 a 14.67,14.67 0 0 0 2.2,-3.785 13.27,13.27 0 0 0 0.793,-4.77 h 0.006 v -20.786 h -0.006 V 363.586 c 0,-4.502 3.434,-8.845 6.138,-11.569 z m -2.963,11.569 v 137.201 h -0.006 v 20.786 h 0.006 a 16.364,16.364 0 0 1 -1.004,5.886 17.69,17.69 0 0 1 -2.631,4.565 l 0.004,0.003 a 21.3,21.3 0 0 1 -1.068,1.356 32.19,32.19 0 0 1 -1.292,1.425 53.13,53.13 0 0 1 -8.966,7.342 l -0.009,0.006 c -11.093,7.201 -27.925,14.659 -43.217,21.432 l -11.86,5.3 -0.16,0.073 h -0.005 c -14.335,6.521 -20.198,9.187 -27.568,18.314 l -1.235,1.529 -1.234,-1.527 c -7.338,-9.085 -13.235,-11.768 -27.448,-18.234 l 10e-4,-0.002 -0.333,-0.151 -0.012,-0.006 -0.005,-0.002 -0.001,0.003 -11.86,-5.301 c -15.292,-6.774 -32.125,-14.231 -43.215,-21.432 l -0.037,-0.025 -0.012,-0.008 h 10e-4 c -0.625,-0.406 -1.265,-0.842 -1.906,-1.303 -0.641,-0.461 -1.266,-0.93 -1.875,-1.407 a 40.404,40.404 0 0 1 -7.503,-7.393 h 10e-4 a 17.2,17.2 0 0 1 -2.604,-4.567 16.69,16.69 0 0 1 -0.971,-5.874 h 0.006 v -20.786 h -0.006 V 363.586 c 0,-5.841 -8.042,-11.874 -8.064,-11.891 v -2.853 h 214.15 v 2.853 c -0.022,0.017 -8.064,6.05 -8.064,11.891 z m -4.803,-9.721 0.005,-0.006 h 0.754 l 3.287,-10e-4 -2.054,2.576 a 11.81,11.81 0 0 0 -2.206,7.153 v 137.201 h -0.006 v 20.786 h 0.006 c 0,2.811 -1.968,8.239 -11.232,15.004 l 0.002,0.003 a 78.118,78.118 0 0 1 -6.034,3.963 118.158,118.158 0 0 1 -7.799,4.243 l -0.003,-0.005 -0.03,0.015 v 0.006 c -12.378,6.168 -23.809,11.182 -33.679,15.51 -16.95,7.433 -29.228,12.818 -33.987,18.669 l -0.024,0.031 -0.005,0.006 -1.236,1.44 -1.195,-1.472 c -4.757,-5.855 -17.038,-11.242 -33.997,-18.678 -9.862,-4.325 -21.284,-9.335 -33.651,-15.496 v -0.006 l -0.021,-0.011 -0.003,0.005 c -8.775,-4.371 -14.547,-8.381 -18.297,-11.825 a 37.24,37.24 0 0 1 -1.997,-1.978 c -3.809,-4.093 -4.794,-7.4 -4.795,-9.421 h -0.006 v -0.005 h 0.006 v -20.786 h -0.006 v -137.2 a 11.81,11.81 0 0 0 -2.206,-7.153 l -2.054,-2.568 h 6.82 v -0.006 h 182.867 v 0.006 h 2.773 z m -2.773,3.163 v 0.006 H 708.566 v -0.006 h -0.79 a 15.92,15.92 0 0 1 1.405,6.558 v 137.201 h -0.006 v 20.786 h 0.006 v 0.005 h -0.006 c 0.001,1.427 0.813,3.888 3.953,7.262 a 32.93,32.93 0 0 0 1.823,1.805 c 3.548,3.26 9.075,7.086 17.566,11.315 v 0.006 l 0.021,0.011 0.003,-0.005 c 12.44,6.198 23.742,11.155 33.502,15.434 16.135,7.075 28.134,12.338 33.958,18.221 5.825,-5.883 17.825,-11.144 33.955,-18.218 9.767,-4.283 21.079,-9.245 33.529,-15.449 l 0.003,0.005 0.03,-0.015 v -0.006 a 114.604,114.604 0 0 0 7.588,-4.118 74.697,74.697 0 0 0 5.787,-3.801 h 0.005 c 8.184,-5.974 9.922,-10.302 9.922,-12.453 h 0.006 v -20.786 h -0.006 v -137.2 a 15.92,15.92 0 0 1 1.405,-6.558 h -0.789 z"
     id="path39" />
</svg>
