<?xml version="1.0" encoding="UTF-8" standalone="no"?>
<svg
   width="900"
   height="540"
   viewBox="-1440 -960 2880 1728"
   version="1.1"
   id="svg24"
   xmlns:xlink="http://www.w3.org/1999/xlink"
   xmlns="http://www.w3.org/2000/svg"
   xmlns:svg="http://www.w3.org/2000/svg">
  <defs
     id="defs10">
    <clipPath
       id="d">
      <path
         d="M -224,0 H 224 V 400 H -224 Z"
         id="path1" />
    </clipPath>
    <clipPath
       id="f">
      <circle
         cx="-158"
         cy="-149"
         r="324.5"
         id="circle1" />
    </clipPath>
    <clipPath
       id="g">
      <circle
         cx="-199"
         cy="-118"
         r="324.5"
         id="circle2" />
    </clipPath>
    <clipPath
       id="h">
      <circle
         cx="-212"
         cy="-100"
         r="324.5"
         id="circle3" />
    </clipPath>
    <clipPath
       id="e">
      <circle
         cy="-38"
         r="576"
         id="circle4"
         cx="0" />
    </clipPath>
    <clipPath
       id="k">
      <circle
         cx="-182"
         cy="-96"
         r="324.5"
         id="circle5" />
    </clipPath>
    <clipPath
       id="j">
      <circle
         cx="-213"
         cy="-91"
         r="324.5"
         id="circle6" />
    </clipPath>
    <clipPath
       id="i">
      <circle
         cx="-234"
         cy="-64"
         r="324.5"
         id="circle7" />
    </clipPath>
    <g
       id="l">
      <g
         id="b">
        <path
           id="a"
           d="M 0,0 V 1 H 0.5 Z"
           fill="#ffde23"
           transform="rotate(18,3.157,-0.5)" />
        <use
           xlink:href="#a"
           transform="scale(-1,1)"
           id="use7" />
      </g>
      <g
         id="c">
        <use
           xlink:href="#b"
           transform="rotate(72)"
           id="use8" />
        <use
           xlink:href="#b"
           transform="rotate(-144)"
           id="use9" />
      </g>
      <use
         xlink:href="#c"
         transform="rotate(72)"
         id="use10" />
    </g>
  </defs>
  <path
     d="M -1440,-960 H 1440 V 768 h -2880 z"
     fill="#0f7562"
     id="path10"
     style="stroke-width:0.948683" />
  <g
     clip-path="url(#d)"
     fill="#ffffff"
     id="g11"
     transform="translate(0,-96)">
    <circle
       cx="-209"
       cy="-7"
       r="324.5"
       id="circle10" />
    <circle
       cx="209"
       cy="-7"
       r="324.5"
       id="circle11" />
  </g>
  <circle
     cx="224"
     cy="-135"
     r="324.5"
     fill="#0f7562"
     id="circle12" />
  <circle
     cx="-224"
     cy="-135"
     r="324.5"
     fill="#0f7562"
     id="circle13" />
  <g
     clip-path="url(#e)"
     fill="#ffffff"
     id="g13"
     transform="translate(0,-96)">
    <path
       d="m -500,285.5 h 291 v 32 h -291 z m 0,65 H 500 v 16 H -500 Z m 0,49 H 500 v 25 H -500 Z m 0,50 H 500 v 32 H -500 Z m 0,48 H 500 v 50 H -500 Z M 500,285.5 H 209 v 32 h 291 z"
       id="path13" />
  </g>
  <circle
     cx="158"
     cy="-149"
     r="324.5"
     clip-path="url(#f)"
     fill="#ffffff"
     id="circle14"
     transform="translate(0,-96)" />
  <circle
     cx="199"
     cy="-118"
     r="324.5"
     clip-path="url(#g)"
     fill="#0f7562"
     id="circle15"
     transform="translate(0,-96)" />
  <circle
     cy="-442"
     r="130"
     fill="#0f7562"
     id="circle16"
     cx="0" />
  <circle
     cx="212"
     cy="-100"
     r="324.5"
     clip-path="url(#h)"
     fill="#ffffff"
     id="circle17"
     transform="translate(0,-96)" />
  <g
     id="m"
     transform="translate(0,-96)">
    <circle
       cx="-379"
       cy="307"
       r="381.5"
       clip-path="url(#i)"
       fill="#ffffff"
       id="circle18" />
    <circle
       cx="-370"
       cy="343"
       r="381.5"
       clip-path="url(#j)"
       fill="#0f7562"
       id="circle19" />
    <circle
       cx="-485"
       cy="21"
       r="130"
       fill="#0f7562"
       id="circle20" />
    <g
       clip-path="url(#i)"
       fill="#ffffff"
       id="g21">
      <circle
         cx="-339"
         cy="372"
         r="381.5"
         clip-path="url(#k)"
         id="circle21" />
      <path
         d="m -100,50 60,50 h 50 v 100 h -60 z"
         id="path21" />
    </g>
    <use
       xlink:href="#l"
       transform="matrix(59.798099,-41.87108,41.87108,59.798099,-260.69045,-410.30448)"
       id="use21" />
    <use
       xlink:href="#l"
       transform="matrix(30.851133,-66.160468,66.160468,30.851133,-411.91685,-230.07993)"
       id="use22" />
  </g>
  <use
     xlink:href="#m"
     transform="scale(-1,1)"
     id="use23" />
  <use
     xlink:href="#l"
     transform="matrix(105.5,0,0,105.5,0,-588.5)"
     id="use24" />
</svg>
