<?xml version="1.0" encoding="UTF-8" standalone="no"?>
<svg
   width="1000"
   height="600"
   version="1.1"
   id="svg25"
   xmlns="http://www.w3.org/2000/svg"
   xmlns:svg="http://www.w3.org/2000/svg">
  <defs
     id="defs25">
    <clipPath
       id="a-8">
      <path
         d="M 0,0 V 30 H 60 V 0 Z"
         id="path1-8" />
    </clipPath>
    <clipPath
       id="b">
      <path
         d="m 30,15 h 30 v 15 z m 0,0 V 30 H 0 Z m 0,0 H 0 V 0 Z m 0,0 V 0 h 30 z"
         id="path2-9" />
    </clipPath>
  </defs>
  <clipPath
     id="a">
    <path
       d="M 0,0 V 150 H 700 V 300 H 600 Z M 600,0 H 300 V 350 H 0 v -50 z"
       id="path1" />
  </clipPath>
  <path
     fill="#012169"
     d="M 0,0 H 1000 V 600 H 0 Z"
     id="path2"
     style="stroke-width:0.912871" />
  <path
     fill="#ffffff"
     d="m 647.466,147.526 h 256.879 l -0.306,182.787 c 2.137,73.48 -43.662,119.076 -127.931,139.634 -59.834,-14.86 -128.837,-45.596 -128.939,-137.549 l 0.305,-184.872 z"
     id="path8" />
  <path
     fill="#00a2dd"
     stroke="#000000"
     stroke-width="1.813"
     d="m 653.152,153.036 h 245.493 l -0.291,175.155 c 2.041,70.41 -41.728,114.102 -122.261,133.802 -57.188,-14.237 -123.132,-43.692 -123.23,-131.805 l 0.292,-177.152 z"
     id="path9" />
  <path
     fill="#a53d08"
     d="M 896.74,348.938 C 887.81,416.148 836.048,445.514 776.085,461.1 723.012,446.862 665.911,424.132 654.842,349.276 l 241.901,-0.338 z"
     id="path10" />
  <path
     fill="#551100"
     d="m 766.365,185.664 -0.342,-22.075 17.455,0.17 0.171,21.905 h 47.744 l 0.17,17.113 -47.914,0.17 -0.383,201.816 -17.026,0.107 -0.217,-202.093 -47.583,0.171 0.01,-17.455 z"
     id="path11" />
  <g
     fill="#ff9a08"
     stroke="#000000"
     stroke-width="0.968"
     id="g16"
     transform="translate(-122)">
    <path
       fill-rule="evenodd"
       d="m 849.714,357.267 43.703,45.338 c 15.112,-16.61 4.63,-78.696 -15.247,-90.13 -2.382,7.351 -6.434,16.166 -10.74,19.008 -9.475,6.457 -32.692,14.006 -24.932,18.84 1.77,-2.45 6.399,-4.765 8.577,0.681 2.587,8.577 -9.666,9.122 -9.666,9.122 0,0 -7.76,-0.954 -9.122,-8.85 -1.362,-7.896 11.559,-15.105 12.662,-15.656 1.089,-0.41 17.971,-4.901 20.83,-19.879 3.54,-14.704 7.216,-12.525 7.897,-12.798 22.055,2.178 36.487,41.662 37.305,69.436 0.816,27.774 -11.3,46.154 -13.48,47.38 -2.177,1.225 -52.552,-59.769 -52.552,-59.769 z"
       id="path12" />
    <path
       d="m 881.573,315.061 0.271,81.825 m -5.172,-80.328 0.271,74.338 m -5.581,-63.582 0.271,59.088 m -4.628,-54.868 0.273,48.879 m -4.902,-46.7 v 41.253 m -5.038,-37.985 v 32.675 m -4.356,-30.088 v 25.05"
       id="path13" />
    <g
       fill="none"
       stroke="#ffdf00"
       stroke-linecap="round"
       stroke-width="1.813"
       id="g15">
      <path
         stroke-width="0.968"
         d="m 849.033,362.441 45.065,51.6"
         id="path14" />
      <path
         d="m 896.276,329.901 c 0,0 20.424,44.658 1.498,81.417 m -54.051,-58.272 c 0,0 1.498,-3.948 3.404,-2.314 m -6.943,-9.122 c 0,0 -8.169,7.215 -3.676,11.845"
         id="path15" />
    </g>
  </g>
  <g
     stroke="#000000"
     stroke-width="0.399"
     id="g25"
     transform="translate(-122)">
    <path
       fill="#008021"
       d="m 905.779,228.044 c 3.025,-2.595 4.595,-4.181 6.468,-3.892 1.874,0.288 4.425,0.143 6.298,-0.433 1.88,-0.578 11.177,-1.73 15,-0.433 1.298,0.144 3.026,0.866 5.69,3.1 2.671,2.235 6.564,6.128 5.266,16.942 -1.297,10.813 -0.873,15.439 -1.443,21.483 -1.006,10.67 -3.373,19.456 -7.64,18.744 5.767,10.093 6.343,18.744 10.09,25.665 3.753,6.921 6.057,21.051 4.614,36.335 -1.437,15.284 -5.475,49.6 6.633,72.67 -2.02,1.441 -6.918,0 -11.247,-4.615 -4.323,-4.614 -6.222,-4.462 -9.804,-1.73 -10.956,8.363 -21.216,18.442 -36.33,8.363 -3.462,-2.307 -4.557,-5.074 -2.02,-12.112 6.343,-17.59 9.425,-41.725 8.425,-53.06 z"
       id="path16" />
    <g
       fill="#ffe1cf"
       id="g17">
      <path
         d="m 916.171,217.23 c 0.791,2.451 1.222,5.623 -0.076,8.506 -1.297,2.884 -1.582,6.345 0.576,10.526 3.462,-4.902 8.367,-3.893 11.247,-6.776 2.886,-2.884 3.462,-5.624 5.627,-6.2 -2.165,-1.875 -5.481,-3.893 -4.76,-9.373 0.721,-5.48 8.361,-9.948 1.443,-18.311 -4.468,-5.399 -10.962,-3.893 -13.772,-1.802 -1.323,0.982 -2.45,2.378 -2.88,3.316 -0.437,0.937 0.108,3.07 -0.943,4.326 a 14.2,14.2 0 0 1 -2.595,2.45 c -0.646,0.47 -1.05,1.152 -0.36,1.947 0.278,0.318 0.784,0.386 1.341,0.579 -0.323,0.648 -0.69,1.295 -1.05,1.764 -0.342,0.44 -0.197,0.86 0.215,1.218 -0.545,1.73 0.506,1.918 -0.216,3.216 -0.626,1.122 -1.474,2.45 0.867,3.749 0.646,0.36 3.716,1.072 5.336,0.865 z m -28.045,28.693 c -4.038,1.01 -10.525,-0.72 -15.43,-0.144 -2.165,0.255 -3.893,-0.865 -3.602,-3.028 0.285,-2.163 0.576,-5.479 0.14,-8.507 -0.672,-4.718 1.588,-11.246 4.759,-18.456 3.17,-7.209 4.76,-11.246 4.76,-14.634 0,-2.235 0.215,-4.759 2.234,-6.056 1.493,-0.959 1.778,-1.89 2.31,-2.667 1.221,-1.803 2.373,-2.235 2.519,-1.153 0.088,0.643 -0.146,1.225 -0.722,2.09 1.298,-1.082 3.5,-2.344 4,-2.704 0.507,-0.36 3.07,-2.162 3.21,-0.468 1.012,-0.505 1.696,-0.47 1.949,0.071 0.272,0.585 0.107,0.83 -0.4,1.262 0.722,-0.144 1.552,1.118 0.109,2.235 0.76,-0.252 1.512,1.01 0.183,2.163 -1.38,1.19 -2.956,2.019 -3.462,2.956 -0.506,0.937 -3.93,3.569 -5.298,4.145 -1.373,0.577 -1.443,1.368 -1.443,3.388 0,22.205 -2.664,20.4 -2.664,25.738 0,1.441 -0.291,2.739 1.152,2.306 1.443,-0.433 3.531,-1.081 5.696,-1.081 z m 0.861,47.869 c 6.52,-3.258 13.988,-4.47 17.88,-5.479 3.893,-1.01 10.095,-4.036 13.12,-5.622 3.032,-1.587 5.482,-3.75 7.21,-4.327 1.734,-0.576 3.67,-1.77 4.76,-3.892 5.62,-10.958 8.651,-19.752 8.651,-27.395 0,-5.047 -1.297,-10.67 -6.202,-6.633 -4.608,3.795 -9.627,11.11 -10.956,16.437 -2.02,8.074 -3.747,9.805 -4.184,11.39 -0.43,1.587 -2.063,1.585 -4.038,2.02 -8.506,1.874 -10.525,3.17 -16.867,7.93 -6.342,4.757 -13.266,8.94 -17.88,11.534 -4.614,2.596 -5.475,2.884 -6.488,4.974 -1.006,2.09 -1.943,3.677 -2.81,4.615 -0.867,0.937 -1.114,2.032 -0.937,3.172 0.146,0.937 -0.291,5.262 -0.36,6.704 -0.077,1.442 0.284,1.803 0.866,1.874 0.576,0.073 1.368,-0.216 1.659,-1.946 -0.291,1.73 2.088,1.153 2.234,-0.144 -0.076,1.874 2.45,0.793 2.595,-0.937 0,1.225 1.911,0.378 2.089,-0.217 0.43,-1.441 0.79,-3.027 1.367,-4.18 0.842,-1.675 1.74,-3.843 3.392,-5.048 1.874,-1.37 1.007,-2.883 4.899,-4.83 z m 46.716,118.088 c 0.437,1.586 1.228,3.389 1.513,4.47 0.29,1.081 -0.216,1.419 -0.5,2.019 -1.513,3.172 -3.14,8.228 -3.393,10.958 -0.139,1.586 -1.221,3.1 -1.728,4.037 -0.557,1.034 -0.341,1.831 0.937,2.811 0.614,0.469 2.595,-0.144 2.81,-1.153 0.722,0.72 2.02,0.433 2.595,-0.65 0.652,0.65 1.734,0.217 2.456,-0.864 0.646,0.433 1.582,-0.433 1.943,-1.01 1.013,0.505 2.095,-0.107 2.127,-2.09 0.006,-0.398 0.253,-1.081 0.544,-1.55 0.285,-0.469 0.392,-1.37 0.36,-2.163 -0.037,-0.793 0.47,-2.379 1.153,-3.496 0.683,-1.118 1.873,-3.1 1.367,-4.975 -0.469,-1.746 -1.222,-1.586 -1.874,-4.109 -1.582,-1.658 -3.747,-3.965 -5.98,-4.11 -2.235,-0.143 -3.533,1.37 -4.33,1.875 z m -41.02,12.4 c 2.019,2.018 6.563,2.09 9.734,-1.298 -1.152,-0.505 -3.677,-1.658 -4.829,-2.595 -1.588,1.586 -3.392,3.388 -4.905,3.893 z"
         id="path17" />
    </g>
    <path
       fill="#eeaa00"
       d="m 915.089,195.026 c 0.791,-5.118 4.418,-4.998 6.703,-4.47 0.936,0.217 3.247,0.433 5.405,-0.144 4.278,-1.14 7.5,0.36 7.07,4.47 1.152,0.865 2.373,2.883 2.158,4.614 -0.215,1.731 0.145,2.451 1.734,2.667 1.582,0.217 4.975,2.163 2.734,4.902 2.165,1.299 3.823,4.614 2.671,6.85 -1.152,2.234 -4.614,2.595 -6.057,0.576 -1.582,0.72 -4.183,0.865 -5.766,-0.792 -1.082,1.296 -3.823,1.153 -4.329,0 -0.5,-1.154 -1.354,-1.771 -2.373,-2.092 -1.159,-0.36 -1.228,-3.532 0.5,-3.893 -0.216,-0.937 -0.14,-2.018 0.29,-2.523 0.43,-0.505 0.07,-1.441 -0.936,-2.235 -1.013,-0.793 -1.873,-3.821 -0.867,-5.479 -1.728,0.577 -5.55,-1.081 -6.342,-2.235 -0.797,-1.153 -1.873,-1.225 -2.595,-0.216 z"
       id="path18" />
    <g
       fill="none"
       id="g23">
      <path
         d="m 916.171,217.23 c 2.81,-0.36 3.747,-2.09 5.836,-1.947 m -11.823,-5.882 c 0.184,0.162 0.418,0.294 0.684,0.44 0.57,0.308 1.19,0.344 1.765,0.415 m -1.614,-3.838 c 0.392,0.135 0.81,0.333 1.184,0.719 m 5.335,-12.111 c -1.658,-1.586 2.81,-4.83 7.5,-0.216 0.874,0.86 3.095,0.865 3.747,0.648 m -4.759,2.019 c 2.165,-0.505 5.405,-0.505 6.342,1.946 0.943,2.452 2.816,0.865 4.33,3.75 1.512,2.883 3.892,6.127 6.195,3.892 m -9.152,6.633 c -0.652,-0.865 -0.937,-2.74 -0.506,-4.038 -0.867,-1.009 -0.507,-3.1 0,-4.109 m -5.696,2.163 c 0.076,0.865 1.228,2.451 3.032,2.74 m 8.936,4.037 c -1.006,-1.297 -0.867,-2.45 -0.646,-4.037"
         id="path19" />
      <path
         d="m 926.982,200.145 c -0.07,1.297 0.722,3.028 2.089,3.605 0.29,0.72 1.734,2.739 4.614,2.45 m 0.582,-11.318 c -1.582,-1.228 -3.728,-2.74 -6.563,-3.115 m -11.033,44.495 c -2.45,3.317 -4.038,7.93 -2.88,14.419 1.152,6.488 3.026,16.004 -1.734,20.33 m 23.361,12.544 c -3.317,-0.72 -8.076,-0.72 -10.671,1.154 -2.595,1.874 -6.924,2.018 -9.804,0.576"
         id="path20" />
      <path
         d="m 928.425,283.339 c -2.886,0.504 -4.253,2.523 -4.253,7.858 0,5.335 -1.152,13.12 -0.146,20.762 m -0.867,-26.385 c -1.873,0.504 -3.817,0.576 -3.456,5.623 m -6.272,0.144 c 0.07,-3.1 1.152,-5.984 3.171,-5.48 m 17.589,6.057 c 0.146,-6.849 -1.367,-8.795 -3.386,-8.723 2.74,0.072 4.608,0.407 5.766,11.607 0.867,8.362 2.614,11.323 4.614,17.88 5.19,17.013 2.595,43.254 5.19,52.482 m -16.147,-71.228 c 5.475,15.861 8.36,33.451 -0.576,61.711 6.05,16.726 12.108,28.837 13.26,35.759 m -29.988,-59.982 c 1.006,-3.604 -2.595,-4.037 0.576,-16.725 1.373,-5.496 1.589,-8.795 0.721,-10.526"
         id="path21" />
      <path
         d="m 914.222,311.672 c -1.297,5.624 4.184,16.149 1.443,23.79 m -6.779,1.442 c 0,4.902 1.152,11.246 0.867,16.149 -0.291,4.902 1.709,7.174 4.038,11.823 8.361,16.726 14.051,28.659 13.26,44.41 -0.14,2.883 0.867,8.939 -2.158,10.668 m -15.792,4.254 c 0.867,0.072 1.804,-0.36 2.886,-2.956 1.082,-2.596 4.545,-18.167 3.101,-28.837 m 1.729,12.112 c 0.43,3.316 0.43,10.093 -1.728,15.428"
         id="path22" />
      <path
         d="m 922.298,394.578 c 1.297,7.065 1.152,13.41 0.146,17.879 m -3.032,-10e-4 c 0.146,2.884 1.443,10.093 -0.722,10.67 m 11.538,-44.12 c 5.33,8.363 9.513,28.982 13.981,33.306 m -9.367,-3.316 c -0.146,-2.307 -0.291,-5.479 -1.589,-6.921 M 877.24,308.067 c 0.07,-1.587 -0.215,-3.1 1.513,-5.551 m -4.108,6.488 c 0.215,-5.551 0.14,-6.056 1.728,-7.57 m -3.962,7.714 c 0.07,-3.965 -0.437,-5.335 1.152,-7.858 m 18.741,-111.094 c -0.614,0.396 -4.215,3.136 -5.728,4.29 m 7.278,-2.957 c -0.684,0.108 -2.665,1.73 -6.196,4.47 m 6.304,-2.235 c -1.114,0.504 -3.24,2.56 -5.19,3.93 m -3.677,-4.326 c -0.538,0.396 -1.582,1.55 -2.089,1.946 m 52.337,239.708 c -0.323,-0.36 -0.323,-1.623 0.253,-3.028 m 2.341,2.379 c -0.392,-0.396 0,-2.127 0.399,-3.244 m 2.057,2.379 c -0.468,-0.216 -0.614,-1.226 0.07,-2.596 m 1.873,1.586 c -0.323,-0.108 -0.468,-0.649 0.108,-2.234"
         id="path23" />
    </g>
    <g
       stroke="none"
       id="g24">
      <path
         d="m 913.969,199.567 c 1.044,1.37 2.127,1.225 2.317,2.108 0.19,0.884 0.329,0.946 0.531,1.209 0.203,0.26 -0.494,0.208 -0.835,0.067 -0.336,-0.14 -1.184,-0.126 -1.703,-0.119 -0.513,0.008 -1.126,-0.599 -0.74,-0.67 0.38,-0.07 0.329,-0.19 0.272,-0.46 -0.057,-0.268 0.215,-0.693 0.373,-0.77 0.165,-0.078 0.05,-0.064 -0.095,-0.424 -0.152,-0.36 -0.341,-1.236 -0.12,-0.941 m 0.633,-1.254 c 1.17,0.137 3.19,0.77 4.285,1.982 0.86,0.953 0.158,0.7 -0.279,0.736 -0.436,0.036 -1.29,-0.273 -1.721,-0.815 -0.424,-0.541 -1.696,-1.227 -2.374,-1.406 -0.411,-0.106 -0.797,-0.601 0.089,-0.497"
         id="path24" />
    </g>
  </g>
  <g
     clip-path="url(#a-8)"
     id="g7"
     transform="scale(9.1666667,10.166667)">
    <path
       d="M 0,0 V 30 H 60 V 0 Z"
       fill="#012169"
       id="path3" />
    <path
       d="M 0,0 60,30 M 60,0 0,30"
       stroke="#ffffff"
       stroke-width="6"
       id="path4" />
    <path
       d="M 0,0 60,30 M 60,0 0,30"
       clip-path="url(#b)"
       stroke="#c8102e"
       stroke-width="4"
       id="path5" />
    <path
       d="M 30,0 V 30 M 0,15 h 60"
       stroke="#ffffff"
       stroke-width="10"
       id="path6" />
    <path
       d="M 30,0 V 30 M 0,15 h 60"
       stroke="#c8102e"
       stroke-width="6"
       id="path7" />
  </g>
</svg>
