<?xml version="1.0" encoding="UTF-8" standalone="no"?>
<svg
   width="1000"
   height="600"
   viewBox="0 0 11200 6720"
   fill="none"
   version="1.1"
   id="svg5"
   xmlns="http://www.w3.org/2000/svg"
   xmlns:svg="http://www.w3.org/2000/svg">
  <defs
     id="defs5" />
  <path
     fill="#ffffff"
     d="M 0,0 H 11200 V 6720 H 0 Z"
     id="path1" />
  <path
     stroke="#cc0000"
     d="m 32,240 h 11168 m 0,960 H 32 m 0,960 h 11168 m 0,960 H 32"
     stroke-width="480"
     id="path2" />
  <path
     fill="#000066"
     d="M 0,0 H 5600 V 4080 H 0 Z"
     id="path3" />
  <path
     stroke="#cc0000"
     d="m 0,4080 h 11200 m 0,960 H 0 m 0,960 h 11200"
     stroke-width="480"
     id="path4" />
  <path
     fill="#ffcc00"
     d="m 3640,720 107,732 414,-613 -222,706 639,-373 -506,540 738,-59 -690,267 690,267 -738,-59 506,540 -639,-373 222,706 -414,-613 -107,732 -107,-732 -414,613 222,-706 -639,373 506,-540 -738,59 690,-267 -690,-267 738,59 -506,-540 639,373 -222,-706 414,613 z m -600,30 C 2644.0748,574.32634 2186.1636,610.80451 1823.0466,846.94575 1459.9296,1083.0869 1240.8751,1486.8513 1240.8751,1920 c 0,433.1487 219.0545,836.9131 582.1715,1073.0543 C 2186.1636,3229.1955 2644.0748,3265.6737 3040,3090 2601.2871,3404.7725 2023.3456,3447.6636 1542.981,3201.0983 1062.6168,2954.5332 760.56761,2459.9535 760.56761,1920 760.56761,1380.0465 1062.6168,885.46676 1542.981,638.90167 2023.3456,392.33638 2601.2871,435.22755 3040,750 Z"
     id="path5" />
</svg>
