<?xml version="1.0" encoding="UTF-8" standalone="no"?>
<svg
   width="1000"
   height="600"
   viewBox="0 0 100 60"
   fill="none"
   version="1.1"
   id="svg6"
   xmlns="http://www.w3.org/2000/svg"
   xmlns:svg="http://www.w3.org/2000/svg">
  <defs
     id="defs1">
    <clipPath
       id="a">
      <path
         d="M 0,0 H 90 V 60 H 0 Z"
         id="path1" />
    </clipPath>
  </defs>
  <path
     fill="#003580"
     d="M 0,60 V 0 h 99.999999 z"
     id="path2"
     style="stroke-width:1.05409" />
  <path
     fill="#009543"
     d="M 99.999999,0 V 60 H 0 Z"
     id="path3"
     style="stroke-width:1.05409" />
  <g
     clip-path="url(#a)"
     id="g5"
     transform="scale(1.1111111,1)">
    <path
       stroke="#ffffff"
       stroke-width="20"
       d="M 0,60 90,0"
       id="path4" />
    <path
       stroke="#d21034"
       stroke-width="15"
       d="M 0,60 90,0"
       id="path5" />
  </g>
  <path
     fill="#ffce00"
     d="M 20,6.341 21.553,10.546 25,7.681 24.243,12.099 28.66,11.341 25.796,14.789 30,16.341 25.796,17.894 28.66,21.341 24.243,20.584 25,25.002 21.553,22.137 20,26.341 18.447,22.137 15,25.002 15.757,20.584 11.34,21.341 14.204,17.894 10,16.341 14.204,14.789 11.34,11.341 15.757,12.099 15,7.681 l 3.447,2.865 z"
     id="path7"
     style="display:inline" />
  <circle
     stroke="#003580"
     r="5.5"
     cx="20"
     cy="16.341"
     id="circle7"
     style="display:inline" />
</svg>
