<?xml version="1.0" encoding="UTF-8" standalone="no"?>
<svg
   width="750"
   height="450"
   version="1.1"
   id="svg7"
   xmlns:xlink="http://www.w3.org/1999/xlink"
   xmlns="http://www.w3.org/2000/svg"
   xmlns:svg="http://www.w3.org/2000/svg">
  <defs
     id="defs7" />
  <path
     fill="#009543"
     d="M 0,0 H 750 V 450 H 0 Z"
     id="path1"
     style="stroke-width:0.912871" />
  <path
     fill="#ed4135"
     d="M 0,0 H 750 V 300 H 0 Z"
     id="path2"
     style="stroke-width:0.912871" />
  <path
     fill="#0035ad"
     d="M 0,0 H 750 V 150 H 0 Z"
     id="path3"
     style="stroke-width:0.912871" />
  <circle
     stroke="#000000"
     stroke-width="5"
     fill="#fae600"
     cx="253.09447"
     cy="225"
     r="147.48"
     id="circle3" />
  <path
     stroke="#000000"
     stroke-width="6"
     d="m 228.09446,247 h 50 m -50,-37 h 50 m -25,-132 v 252"
     id="path4" />
  <path
     d="m 193.71446,360.419 c 60.191,24.58 116.608,1.51 116.608,1.51 0,0 -21.297,-23.048 -32.214,-32.047 -10.653,-8.778 -41.991,-8.431 -52.685,0 -8.924,7.038 -34.52,32.97 -31.709,30.537 z"
     id="path5" />
  <ellipse
     cx="253.09447"
     cy="293"
     rx="16.5"
     ry="24"
     id="ellipse5" />
  <ellipse
     cx="253.09447"
     cy="228.5"
     rx="20"
     ry="12.66"
     id="ellipse6" />
  <circle
     cx="253.09447"
     cy="170"
     r="20"
     id="circle6" />
  <path
     d="m 277.09446,95.5 c -0.006,-0.013 1.733,2.87 -1.913,9.436 -17.426,31.383 -34.913,32.061 -38.232,34.764 -3.658,2.978 -5.202,2.774 -5.202,2.774 0.261,-2.688 0.504,-13.679 0.695,-14.738 2.645,-14.663 24.796,-14.461 42.132,-29.476 2.708,-2.345 2.514,-2.773 2.514,-2.773 z"
     id="path6" />
  <g
     id="a"
     transform="translate(-46.905537)">
    <path
       d="m 265.5,163 c 0,0 3.914,11.23 4.5,22.5 0.935,17.997 18.18,18.5 30,18.5 v -10 c -8.859,0 -16.553,-1.317 -23,-14.5 C 273.82,172.997 265.5,163 265.5,163 Z M 265,308 c 0,0 6.296,-7.765 13.662,-25.975 C 282.505,272.525 291.612,267 300,267 v -14 c -19.028,0 -28.15,7.055 -29.113,17.363 C 268.91,291.541 265,308 265,308 Z"
       id="path7" />
  </g>
  <use
     xlink:href="#a"
     transform="matrix(-1,0,0,1,506.18892,0)"
     id="use7" />
</svg>
