<?xml version="1.0" encoding="UTF-8" standalone="no"?>
<svg
   width="500"
   height="300"
   viewBox="0 0 100 60"
   version="1.1"
   id="svg10"
   xmlns:xlink="http://www.w3.org/1999/xlink"
   xmlns="http://www.w3.org/2000/svg"
   xmlns:svg="http://www.w3.org/2000/svg">
  <defs
     id="defs10" />
  <clipPath
     id="a">
    <path
       d="M 0,0 V 15 H 70 V 30 H 60 Z M 0,30 V 40 H 30 V 0 h 30 z"
       id="path1" />
  </clipPath>
  <path
     fill="#012169"
     d="M 0,0 H 100.10463 V 60.160392 H 0 Z"
     id="path2"
     style="stroke-width:0.914569" />
  <g
     stroke="#c8102e"
     stroke-width="6"
     id="g6"
     transform="scale(0.83420538,1.0026733)">
    <path
       stroke="#ffffff"
       d="M 0,0 60,30 M 60,0 0,30"
       id="path3" />
    <path
       stroke-width="4"
       d="M 0,0 60,30 M 60,0 0,30"
       clip-path="url(#a)"
       id="path4" />
    <path
       stroke="#ffffff"
       stroke-width="10"
       d="M 30,0 V 40 M 0,15 h 70"
       id="path5" />
    <path
       d="M 30,0 V 40 M 0,15 h 70"
       id="path6" />
  </g>
  <path
     fill="#fedd00"
     d="M 50.000007,0 H 100 V 60 H 0 V 30 h 50.000007 z"
     id="path7"
     style="stroke-width:0.912872" />
  <g
     transform="matrix(0.83420538,0,0,1.0026733,25.026161,15.040098)"
     id="g10">
    <g
       transform="scale(5.1039048)"
       id="g7">
      <circle
         r="1"
         fill="#012169"
         id="circle7"
         cx="0"
         cy="0" />
      <path
         id="b"
         fill="#fedd00"
         d="M 0,-513674 301930,415571 -488533,-158734 H 488533 L -301930,415571"
         transform="matrix(1.94676e-6,0,0,1.94676e-6,0,0)" />
    </g>
    <use
       xlink:href="#b"
       transform="matrix(3,0,0,3,-17.5,0.29)"
       id="use7" />
    <use
       xlink:href="#b"
       transform="matrix(3,0,0,3,17.5,0.29)"
       id="use8" />
    <use
       xlink:href="#b"
       transform="matrix(3,0,0,3,0,10.29)"
       id="use9" />
    <use
       xlink:href="#b"
       transform="matrix(3,0,0,3,0,-9.71)"
       id="use10" />
  </g>
</svg>
