<?xml version="1.0" encoding="UTF-8" standalone="no"?>
<svg
   height="600"
   width="1000"
   version="1.1"
   id="svg18"
   xmlns:xlink="http://www.w3.org/1999/xlink"
   xmlns="http://www.w3.org/2000/svg"
   xmlns:svg="http://www.w3.org/2000/svg">
  <defs
     id="defs7">
    <clipPath
       id="b">
      <path
         d="M 0,0 H 600 V 300 H 0 Z"
         id="path1" />
    </clipPath>
    <clipPath
       id="c">
      <path
         d="M 0,0 300,150 H 0 Z M 300,0 H 600 L 300,150 Z m 0,150 h 300 v 150 z m 0,0 V 300 H 0 Z"
         id="path2" />
    </clipPath>
    <g
       id="d">
      <g
         id="a">
        <path
           d="M 0,0 V 0.5 L 1,0 Z"
           transform="translate(0,-0.325)"
           id="path3" />
        <path
           d="M 0,0 V -0.5 L 1,0 Z"
           transform="rotate(-36,0.5,-0.162)"
           id="path4" />
      </g>
      <use
         xlink:href="#a"
         transform="scale(-1,1)"
         id="use4" />
      <use
         xlink:href="#a"
         transform="rotate(72)"
         id="use5" />
      <use
         xlink:href="#a"
         transform="rotate(-72)"
         id="use6" />
      <use
         xlink:href="#a"
         transform="matrix(-0.30901699,0.95105652,0.95105652,0.30901699,0,0)"
         id="use7" />
    </g>
    <clipPath
       id="a-0">
      <path
         d="M 0,0 V 30 H 60 V 0 Z"
         id="path1-5" />
    </clipPath>
    <clipPath
       id="b-5">
      <path
         d="m 30,15 h 30 v 15 z m 0,0 V 30 H 0 Z m 0,0 H 0 V 0 Z m 0,0 V 0 h 30 z"
         id="path2-7" />
    </clipPath>
  </defs>
  <path
     fill="#012169"
     d="M 0,0 H 1000 V 600 H 0 Z"
     id="path7"
     style="stroke-width:0.912871" />
  <use
     xlink:href="#d"
     fill="#ffffff"
     transform="matrix(45.4,0,0,45.4,777,120)"
     id="use11" />
  <use
     xlink:href="#d"
     fill="#c8102e"
     transform="matrix(30,0,0,30,777,120)"
     id="use12" />
  <g
     transform="rotate(82,838.5,169.25234)"
     id="g14">
    <use
       xlink:href="#d"
       fill="#ffffff"
       transform="matrix(5.6225933,-40.00683,40.00683,5.6225933,900.00012,119.99971)"
       id="use13" />
    <use
       xlink:href="#d"
       fill="#c8102e"
       transform="matrix(3.4793275,-24.756702,24.756702,3.4793275,900.00012,119.99971)"
       id="use14" />
  </g>
  <g
     transform="rotate(82,838.5,169.25234)"
     id="g16">
    <use
       xlink:href="#d"
       fill="#ffffff"
       transform="matrix(6.3184588,-44.95817,44.95817,6.3184588,900.00022,379.99982)"
       id="use15" />
    <use
       xlink:href="#d"
       fill="#c8102e"
       transform="matrix(4.175193,-29.708042,29.708042,4.175193,900.00022,379.99982)"
       id="use16" />
  </g>
  <use
     xlink:href="#d"
     fill="#ffffff"
     transform="matrix(50.4,0,0,50.4,777,480)"
     id="use17" />
  <use
     xlink:href="#d"
     fill="#c8102e"
     transform="matrix(35,0,0,35,777,480)"
     id="use18" />
  <g
     clip-path="url(#a-0)"
     id="g7"
     transform="scale(8.6666667,9.6666667)">
    <path
       d="M 0,0 V 30 H 60 V 0 Z"
       fill="#012169"
       id="path3-4" />
    <path
       d="M 0,0 60,30 M 60,0 0,30"
       stroke="#ffffff"
       stroke-width="6"
       id="path4-8" />
    <path
       d="M 0,0 60,30 M 60,0 0,30"
       clip-path="url(#b-5)"
       stroke="#c8102e"
       stroke-width="4"
       id="path5" />
    <path
       d="M 30,0 V 30 M 0,15 h 60"
       stroke="#ffffff"
       stroke-width="10"
       id="path6" />
    <path
       d="M 30,0 V 30 M 0,15 h 60"
       stroke="#c8102e"
       stroke-width="6"
       id="path7-8" />
  </g>
</svg>
