<?xml version="1.0" encoding="UTF-8" standalone="no"?>
<svg
   height="390"
   width="650"
   version="1.1"
   id="svg13"
   xmlns:xlink="http://www.w3.org/1999/xlink"
   xmlns="http://www.w3.org/2000/svg"
   xmlns:svg="http://www.w3.org/2000/svg">
  <defs
     id="defs13" />
  <clipPath
     id="a">
    <ellipse
       cx="300"
       cy="201"
       rx="85.848999"
       ry="88.189003"
       id="ellipse1" />
  </clipPath>
  <path
     d="M 0,0 H 650 V 390 H 0 Z"
     fill="#ce1126"
     id="path1"
     style="stroke-width:1.02774" />
  <path
     d="M 0,95 H 650 V 295 H 0 Z"
     fill="#ffffff"
     id="path2"
     style="stroke-width:1.04083" />
  <g
     clip-path="url(#a)"
     stroke-width="0.998"
     transform="matrix(1.00176,0,0,1.00176,24.472,-5.947)"
     id="g13">
    <g
       fill="#ff9c10"
       id="g3">
      <path
         d="m 262.715,190.6 v -5.762 l 14.575,6.182 z m 0,-8.643 v -9.602 c 0,0 -1.7,0.24 -1.458,-1.681 0.08,-4.001 10.667,7.303 16.093,10.984 l -0.12,7.682 z m -17.739,32.653 v -18.966 l -34.98,-1.67 4.374,20.4 z m 0.485,-23.29 -0.242,-13.443 -31.822,-12.484 -0.487,22.807 z m -0.97,-17.997 3.573,-3.686 c 0,0 -2.301,-1.567 -2.187,-3.009 0.043,-1.458 2.314,-1.68 2.358,-3.262 0.041,-1.458 -2.573,-1.633 -2.601,-3.092 -0.171,-1.581 2.015,-3.277 2.015,-3.277 l -22.591,-19.446 -5.588,23.769 z m 106.882,41.287 -0.242,-18.485 35.464,-2.641 -2.915,21.126 z m 33.097,-26.7 c -0.408,-3.001 -0.836,-5.995 -1.531,-8.938 a 91.583,91.583 0 0 0 -3.563,-11.594 c -0.106,-0.278 -0.265,-0.534 -0.375,-0.812 l -27.625,11.562 0.25,13.688 z m -18.88,-44.44 -16.531,12.5 c 0.027,1.196 1.22,2.116 1.548,3.26 0.763,1.607 -0.753,3.027 -1.692,4.162 -0.76,1.047 0.879,1.58 1.424,2.199 1.2,1.232 0.154,3.162 -1.124,3.879 1.54,0.92 2.318,2.645 2.656,4.344 l 24.75,-12.875 c -2.96,-6.236 -6.651,-12.133 -11.031,-17.469 z m -32.185,47.37 0.242,-5.523 -14.087,6.123 z m -13.915,-8.641 c 0,0 13.116,-11.703 15.91,-13.864 0,2.4 -1.518,4.26 -1.518,4.26 v 9.124 l -14.332,6.721 z m -84.95,-46.329 14.718,16.14 c 0.406,-1.507 3.744,-1.736 7.144,-1.495 3.402,0.24 6.113,-0.226 6.113,2.175 0,2.4 -1.726,2.06 -1.726,3.74 0,1.68 2.586,1.54 2.586,3.699 0,2.16 -1.875,1.72 -1.885,3.393 -0.006,1.383 1.956,1.456 1.956,1.456 l 13.785,13.205 0.06,-14.105 -28.42,-44.052 z m 22.74,-16.68 19.25,38.906 c 0,0 0.216,-35.913 3.46,-37.837 l -5.406,-9.834 z m 62.13,-4.13 -7.188,24.844 c 2.241,0.267 4.504,0.339 6.756,0.214 2.025,0.174 0.448,2.072 0.556,3.195 l -0.03,15.278 20.312,-35.875 c -4.67,-2.438 -9.627,-4.248 -14.616,-5.905 a 67.163,67.163 0 0 0 -5.79,-1.751 z m 25.28,10.38 -25.125,38.625 -0.031,14.875 c 5.594,-5.322 11.217,-10.617 16.794,-15.957 1.058,-1.499 -3.36,-2.233 -1.152,-4.059 2.001,-0.63 2.34,-3.863 0.233,-4.484 -1.735,-2.548 1.57,-3.899 3.654,-3.62 2.9,0.133 5.888,-0.631 8.725,0.174 1.561,1.493 3,-2.255 4.532,-3.099 3.03,-3.047 6.063,-6.092 9.058,-9.173 A 80.56,80.56 0 0 0 344.69,125.44 Z"
         id="path3" />
    </g>
    <g
       fill="#083d9c"
       stroke="#083d9c"
       stroke-width="1.929"
       id="g5">
      <path
         d="m 279.88,275.41 c -6.178,0.349 -12.334,4.518 -15.219,6.75 5.18,2.267 10.71,4.037 16.594,5.25 9.375,1.574 18.75,1.563 28.125,1.563 1.53,-0.193 3.045,-0.411 4.531,-0.657 l 19.75,-6.656 c 0,0 -9.5,-6.271 -17.03,-6 -7.532,0.271 -12.616,7.638 -18.689,7.094 -6.072,-0.544 -8.505,-7.344 -17.25,-7.344 -0.273,0 -0.539,-0.015 -0.812,0 z"
         stroke-width="2.053"
         id="path4" />
      <path
         d="m 356.24,270.79 c 0,0 -9.716,-10.323 -21.134,-10.563 -11.417,-0.241 -8.258,4.802 -17.003,5.52 -8.744,0.722 -10.932,-5.28 -18.948,-5.04 -8.015,0.239 -12.632,5.04 -18.703,5.282 -6.073,0.24 -13.846,-6.003 -18.462,-5.762 -4.616,0.24 -21.134,7.202 -21.134,7.202 l 3.154,2.881 z m -126.56,-13.69 138.46,0.481 c 2.186,-3.12 -6.802,-10.563 -15.06,-11.284 -6.804,0.24 -11.66,6.962 -17.247,7.203 -5.587,0.24 -11.902,-6.963 -18.219,-6.721 -6.315,0.24 -12.874,6.721 -19.19,6.721 -6.315,0 -10.931,-6.963 -18.946,-6.963 -8.016,0 -11.66,7.682 -17.733,7.203 -6.074,-0.48 -11.418,-7.682 -17.247,-7.682 -5.83,0 -15.546,8.642 -17.489,8.161 -1.943,-0.48 2.671,2.881 2.671,2.881 z m 53.53,-13.24 30.908,-0.018 c 0,0 -6.92,-10.55 -15.449,-9.823 -9.502,0.246 -15.459,9.84 -15.459,9.841 z m 98.56,-0.74 h -42.294 c 0,0 5.474,-3.197 6.966,-6.147 2.736,1.475 1.99,2.95 7.464,3.196 5.473,0.246 10.697,-6.146 15.923,-5.9 5.224,0.245 11.941,8.851 11.941,8.851 z m -166.67,0 h 42.294 c 0,0 -5.474,-3.197 -6.966,-6.147 -2.736,1.475 -1.99,2.95 -7.464,3.196 -5.472,0.246 -10.697,-6.146 -15.923,-5.9 -5.224,0.245 -11.941,8.851 -11.941,8.851 z m 33.281,-12.9 c 0,0 -1.943,-4.08 -2.186,-9.122 -7.775,-2.64 -14.09,5.761 -19.676,6.001 -5.586,0.24 -11.415,-6.001 -11.415,-6.001 l 3.156,8.882 z m 130.689,-0.24 -30.122,0.24 c 0,0 1.944,-4.08 2.186,-9.122 7.775,-2.64 14.09,5.761 19.677,6.001 5.587,0.24 11.416,-6.001 11.416,-6.001 z m -88.18,0.24 15.302,0.008 c 0,0 0.244,-5.049 -7.773,-5.049 -8.016,0 -7.529,5.041 -7.529,5.041 z"
         id="path5" />
    </g>
    <g
       stroke="#630810"
       id="g12">
      <g
         fill="#ce1126"
         stroke-linejoin="round"
         stroke-width="1.929"
         id="g6">
        <path
           d="m 282.87,181 31.823,8.403 v -44.895 c -14.576,0.721 -26.72,-27.368 -0.972,-29.288 -25.263,-3.601 -28.179,2.881 -31.093,9.843 L 282.871,181 Z m 7.07,40.58 c -6.921,11.33 -25.425,7.97 -29.752,0.06 -1.296,-0.363 -0.53,-48.8 -0.53,-48.8 0,0 -2.067,-0.93 -2.163,-2.42 -0.094,-1.504 2.812,-1.64 2.812,-3.565 0,-1.924 -2.968,-1.17 -3.027,-3.106 0.012,-1.852 3.168,-1.597 3.027,-3.308 -0.167,-1.928 -3.534,-1.643 -3.677,-3.42 -0.11,-1.413 2.408,-2.644 3.108,-3.28 l -2.35,-0.033 -5.3,0.107 c -3.766,0.004 0.064,0.811 0.01,2.958 -0.035,1.403 -1.91,2.336 -2.078,3.556 -0.06,1.252 2.683,2.131 2.717,3.634 0.032,1.34 -2.694,1.432 -2.596,2.677 0.17,2.109 2.414,2.573 2.38,3.85 -0.034,1.274 -3.02,1.76 -3.028,2.778 0.104,1.968 0.432,49.807 0.432,49.807 4.759,24.37 32.228,30.57 40.015,-1.495 z m 18.11,0 c 6.921,11.33 25.424,7.97 29.751,0.06 1.296,-0.363 0.53,-48.8 0.53,-48.8 0,0 2.068,-0.93 2.163,-2.42 0.094,-1.504 -2.63,-1.64 -2.63,-3.565 0,-1.924 2.787,-1.17 2.845,-3.106 -0.012,-1.852 -2.925,-1.716 -2.784,-3.428 0.166,-1.928 2.454,-1.703 2.584,-3.48 0.109,-1.531 -1.436,-2.464 -2.136,-3.099 l 2.23,-0.034 5.299,0.107 c 3.766,0.004 -0.065,0.811 -0.01,2.958 0.035,1.403 1.91,2.336 2.078,3.556 0.059,1.252 -2.684,2.131 -2.718,3.634 -0.03,1.34 2.695,1.432 2.596,2.678 -0.17,2.108 -2.414,2.572 -2.38,3.848 0.034,1.275 3.021,1.761 3.028,2.779 -0.103,1.968 -0.431,49.807 -0.431,49.807 -4.76,24.37 -32.228,30.57 -40.015,-1.495 z"
           id="path6" />
      </g>
      <g
         fill="#630810"
         stroke-linecap="round"
         stroke-width="2.787"
         id="g11">
        <path
           d="m 281.66,223.73 c 2.672,-1.442 5.101,-2.88 6.802,-6.243 l -10.446,0.24 c 0,0 -4.856,2.882 -7.287,6.003 z m 33.76,0 c -2.672,-1.442 -5.1,-2.88 -6.801,-6.243 l 10.445,0.24 c 0,0 4.857,2.882 7.286,6.003 z m -52.71,-10.08 71.903,0.24"
           id="path7" />
        <g
           id="b"
           stroke-width="2.787">
          <path
             d="m 266.11,196.61 8.502,11.284 m -8.502,-0.004 9.232,-11.043 m -4.372,-0.967 -0.243,6.962"
             id="path8" />
        </g>
        <use
           height="100%"
           width="100%"
           x="13.604"
           xlink:href="#b"
           id="use8" />
        <use
           height="100%"
           width="100%"
           x="27.450001"
           xlink:href="#b"
           id="use9" />
        <use
           height="100%"
           width="100%"
           x="41.782001"
           xlink:href="#b"
           id="use10" />
        <use
           height="100%"
           width="100%"
           x="55.627998"
           xlink:href="#b"
           id="use11" />
      </g>
    </g>
  </g>
</svg>
