<?xml version="1.0" encoding="UTF-8" standalone="no"?>
<svg
   viewBox="0 0 960 576"
   height="450"
   width="750"
   version="1.1"
   id="svg6"
   xmlns:xlink="http://www.w3.org/1999/xlink"
   xmlns="http://www.w3.org/2000/svg"
   xmlns:svg="http://www.w3.org/2000/svg">
  <defs
     id="defs6" />
  <path
     d="M 0,0 H 960 V 576 H 0 Z"
     id="path1"
     style="display:inline;stroke-width:1.11803" />
  <path
     fill="#ce1126"
     d="M 0,0 H 960 V 576 Z"
     id="path2"
     style="display:inline;stroke-width:1.11803" />
  <path
     fill="#fcd116"
     d="m 611.95364,157.88391 c -5.80825,7.50066 -19.55023,-7.5457 -36.01359,-7.88971 -16.46335,-0.34299 -28.12591,15.77738 -32.9267,21.26516 -4.80181,5.48881 -20.23621,34.29865 -19.89322,37.38553 0.34299,3.08688 9.60362,-8.57364 13.03349,-10.63156 0.34299,4.11584 -3.77285,8.91765 -2.74389,10.2896 1.02896,1.37195 12.0035,-8.23168 15.77738,-8.57466 1.02896,2.74389 -2.05792,5.48778 -1.02896,9.60362 1.37194,1.37195 7.5457,-6.85973 11.66154,-8.57466 0.68597,3.08687 -3.77285,8.91765 -1.37195,12.6905 1.71493,0.34196 12.00351,-11.66154 15.43439,-13.03349 3.42987,-1.37297 -1.71595,11.31753 0,12.34751 3.08688,-2.05791 12.69051,-13.03451 15.77738,-14.40543 3.08688,-1.37195 -0.34196,14.06245 1.02896,14.06245 3.77286,-2.74389 13.37648,-15.77738 14.40544,-17.8353 1.02896,-2.05792 -1.02896,19.89322 9.60362,31.55476 10.63258,11.66154 26.75397,25.03801 28.46788,25.03801 2.05792,-3.77285 -0.68495,-11.66154 1.02896,-11.31855 4.80181,5.1448 13.71946,12.6905 15.77738,12.6905 2.05792,0 -1.37195,-8.23168 1.37195,-8.23168 5.48778,5.1448 21.26516,25.38101 52.13395,34.64164 -2.05792,-5.83077 -6.51777,-10.97557 -6.85973,-13.71946 2.05791,0.34299 9.26166,3.77388 10.63258,3.42987 1.37194,-0.34401 -15.09141,-20.57919 -14.06245,-23.32309 3.77285,-0.34298 5.48778,2.05792 6.85973,0.34197 -1.71493,-2.7439 -16.12037,-18.86324 -16.12037,-22.63711 0,-3.77286 4.45985,0.68597 5.83078,0 1.37194,-0.68598 -5.48779,-15.09141 -4.11584,-16.80532 1.37194,-1.71493 16.46335,9.26064 20.2362,9.26064 3.77285,0 1.02896,-13.37648 2.74389,-14.06347 1.71494,-0.68598 14.40646,7.20271 17.14933,7.20271 2.74389,0 2.4009,-5.83077 3.42986,-5.1448 1.02896,0.68598 30.86879,30.52683 20.5792,65.51145 -10.2896,25.03802 -30.86777,38.41449 -61.0516,27.43892 1.71493,2.7439 17.83529,16.12037 35.32761,11.31856 17.49231,-4.80181 38.75645,-18.52127 36.35657,-52.81992 -2.40091,-34.29866 -13.72049,-39.10047 -15.4344,-44.24526 -1.71493,-5.1448 2.74492,1.37194 6.51675,2.74389 3.77285,1.37297 -0.68598,-7.20272 -1.71493,-10.97557 -1.02896,-3.77388 11.31855,7.88869 14.40543,8.91765 3.08688,1.02896 -7.20272,-28.1249 -10.2896,-30.18282 -3.08688,-2.05791 3.08688,0.68598 5.1448,1.37195 2.05792,0.68597 -18.86528,-31.89774 -23.32308,-31.89774 -4.45883,0 3.77183,-1.71596 6.17376,-1.71596 2.4009,0 -24.00804,-21.26516 -28.46789,-21.26516 -4.45882,0 9.6026,-5.48779 10.97557,-5.83078 2.40091,0.34197 -30.5258,-17.49231 -60.02264,0.34197 -1.71493,-1.3699 13.89249,-12.17449 14.40544,-16.80429 0.172,-1.20097 -5.14378,-3.77388 -5.48779,-5.1448 -0.34298,-1.371948 8.23168,-5.487786 8.57467,-8.574665 -2.05792,-2.743892 -5.83078,-1.714933 -7.88869,-2.400906 -0.51397,-2.571886 7.20374,-8.917649 6.51674,-11.661541 -0.51397,-1.542927 -6.17376,-2.057919 -7.5457,-1.027936 -1.37195,1.02896 3.60187,-7.202716 2.74389,-9.603622 -0.68597,-1.02896 -3.42987,-0.342987 -6.17376,0.342986 -1.71493,-0.342986 8.91765,-15.091406 6.85973,-17.149325 -2.05792,-2.057919 -30.86878,15.090383 -41.50137,34.297627 -10.63258,19.207242 -2.39988,34.641642 -3.77285,41.158382 -1.37194,6.51674 -3.0879,13.03349 -7.5457,13.03349 -4.45883,0 -14.7474,-6.85973 -18.17829,-10.2896 -3.42986,-3.42986 -4.11584,-5.83077 -8.91765,-7.20271 -4.80181,-1.37195 -15.77738,2.74389 -19.89321,3.08687 -4.11584,0.34299 -20.23621,-3.08687 -21.26517,-2.05792 -1.02896,1.02896 15.77738,7.20272 19.55023,9.26064 3.77286,2.05792 4.11687,4.80181 6.85973,6.51674 2.7439,1.71391 28.46788,9.26064 20.23621,19.89322 z m 100.49505,48.3611 c 8.23167,8.23168 63.79549,45.27422 63.79549,90.54844 0,45.27422 -40.47241,43.90227 -52.13395,42.53033 13.03349,10.97557 62.42354,8.91765 62.42354,-42.53033 0,-45.27422 -63.79549,-90.54844 -72.02716,-94.66428 -8.23168,-4.11584 -10.2896,-4.11584 -2.05792,4.11584 z"
     id="path3"
     style="display:inline;stroke-width:1.02384" />
  <g
     transform="matrix(0.768,0,0,0.768,55.04,7.68)"
     fill="#ffffff"
     id="g6">
    <path
       d="m 250,230 11.756,33.82 35.797,0.73 -28.532,21.63 10.368,34.27 L 250,300 l -29.39,20.45 10.369,-34.27 -28.532,-21.63 35.797,-0.73 z"
       id="a" />
    <use
       x="-110"
       y="150"
       xlink:href="#a"
       id="use3" />
    <use
       y="350"
       xlink:href="#a"
       id="use4" />
    <use
       x="100"
       y="140"
       xlink:href="#a"
       id="use5" />
    <use
       transform="matrix(0.5,0,0,0.5,175,380)"
       xlink:href="#a"
       id="use6" />
  </g>
</svg>
