<?xml version="1.0" encoding="UTF-8" standalone="no"?>
<svg
   width="1000"
   height="600"
   viewBox="0 0 25 15"
   version="1.1"
   id="svg53"
   xmlns="http://www.w3.org/2000/svg"
   xmlns:svg="http://www.w3.org/2000/svg">
  <defs
     id="defs53">
    <clipPath
       id="a-0">
      <path
         d="M 0,0 V 30 H 60 V 0 Z"
         id="path1-3" />
    </clipPath>
    <clipPath
       id="b">
      <path
         d="m 30,15 h 30 v 15 z m 0,0 V 30 H 0 Z m 0,0 H 0 V 0 Z m 0,0 V 0 h 30 z"
         id="path2-4" />
    </clipPath>
  </defs>
  <clipPath
     id="a">
    <path
       d="m 0,0 v 75 h 350 v 75 H 300 Z M 300,0 H 150 V 200 H 0 v -50 z"
       id="path1" />
  </clipPath>
  <path
     fill="#012169"
     d="M 0,0 H 25 V 15 H 0 Z"
     id="path2"
     style="stroke-width:0.912871" />
  <g
     fill="#f7e017"
     stroke="#000000"
     stroke-width="0.015"
     id="g53"
     transform="translate(-3.45)">
    <path
       d="m 20.018,7.954 c -0.32,0.271 -0.625,0.667 -0.7,1.025 -0.211,1.007 -0.491,1.231 -0.923,1.015 0,0.541 0.474,0.582 0.682,0.266 0,0.507 0.184,0.947 0.599,1.322 0.175,0.158 0.208,0.05 0.125,-0.125 -0.083,-0.175 -0.083,-0.74 -0.249,-1.064 0.266,0.191 0.657,0.083 0.624,-0.441 -0.341,0.2 -0.68,0.192 -0.715,-0.283 -0.043,-0.557 0.174,-1.366 0.557,-1.715 z M 19.613,3.949 c 0.023,-0.2 -0.02,-0.405 -0.166,-0.534 -0.282,-0.248 -0.558,-0.166 -0.764,0.034 -0.308,-0.166 -0.471,0.423 -0.82,0.324 0.058,0.191 0.15,0.274 0.324,0.208 -0.183,0.166 0,0.366 -0.216,0.565 0.391,0.125 0.599,-0.091 0.582,-0.466 0.15,0.133 0.382,0.125 0.507,-0.025 C 18.852,3.988 18.851,3.808 18.935,3.639 19.06,3.39 19.646,3.4 19.613,3.949 Z"
       id="path8" />
    <path
       fill="#337321"
       d="m 20.515,6.842 c -0.441,0.233 -1.247,0.133 -1.322,-0.441 -0.075,-0.574 0.482,-0.832 0.632,-0.906 0.233,-0.117 0.416,0.091 0.341,0.333 a 0.377,0.377 0 0 0 0.191,-0.565 c 0.341,0.025 0.657,-0.233 0.79,-0.599 -0.12,0.114 -0.446,0.037 -0.714,0.02 C 20.516,4.593 20.515,4.415 20.49,4.323 20.208,4.613 19.8,4.48 19.26,5.32 19.343,5.029 19.501,4.447 19.593,4.064 19.602,4.026 19.609,3.988 19.614,3.949 19.646,3.4 19.061,3.39 18.936,3.64 19.073,3.794 19.001,3.974 18.952,4.247 18.894,4.571 18.769,5.32 18.661,5.569 18.628,5.178 18.37,5.153 18.32,4.962 c -0.075,0.05 -0.116,0.183 -0.1,0.274 -0.092,-0.1 -0.408,0.025 -0.524,-0.125 -0.125,0.249 0.075,0.499 0.283,0.607 -0.121,0.008 -0.15,0.154 -0.283,0.154 0.179,0.208 0.362,0.291 0.574,0.308 0.212,0.017 0.37,0.096 0.499,0.353 0.208,0.417 1,0.687 1.746,0.309 z"
       id="path9" />
    <path
       d="M 21.613,6.334 C 21.364,7.024 20.682,7.515 20.374,7.59 19.85,7.717 18.782,8.236 18.496,8.503 A 0.332,0.332 0 0 1 18.378,8.455 C 18.237,8.355 18.12,8.031 18.37,7.756 19.152,7.024 19.992,7.34 20.516,6.841 20.075,7.074 19.269,6.974 19.194,6.4 a 2.029,2.029 0 0 0 2.012,-0.599 c 0.091,0.101 0.357,0.417 0.407,0.533 z"
       id="path10" />
    <path
       fill="#337321"
       d="m 20.018,7.954 c -0.395,0.335 -0.6,1.158 -0.558,1.715 0.012,0.155 0.055,0.26 0.121,0.324 C 19.61,9.677 19.83,8.86 20.391,8.496 20.865,8.188 21.605,7.498 21.88,6.708 A 0.634,0.634 0 0 0 21.589,6.367 c -0.273,0.746 -1.002,1.104 -1.571,1.587 z"
       id="path11" />
    <path
       fill="#316d3a"
       d="m 21.359,6.014 a 1.854,1.854 0 0 1 -0.769,0.62 0.403,0.403 0 0 0 0.091,-0.249 c -0.391,0.15 -1.173,0.133 -1.489,0.017 a 2.029,2.029 0 0 0 2.012,-0.599 c 0.068,0.074 0.126,0.14 0.155,0.211 z"
       id="path12" />
    <path
       fill="#337321"
       d="m 18.37,7.756 c -0.636,0.595 -0.216,1.114 0.033,1.231 -0.066,0.416 0.324,0.366 0.316,0.715 0.158,-0.091 0.2,-0.333 0.175,-0.524 0.2,0.216 0.707,-0.025 0.815,0.374 C 19.776,9.111 19.435,8.671 19.011,8.712 19.186,8.554 19.086,8.296 18.92,8.23 18.887,8.554 18.521,8.554 18.379,8.455 18.237,8.355 18.12,8.031 18.37,7.756 Z"
       id="path13" />
    <path
       d="m 19.746,11.54 c -0.069,0.04 -0.064,0.129 -0.021,0.187 0.087,0.116 -0.062,0.38 0.22,0.437 0.083,0.017 0.147,-0.034 0.179,-0.129 0.087,-0.262 -0.191,-0.291 -0.216,-0.416 -0.025,-0.125 -0.104,-0.112 -0.162,-0.079 z"
       id="path14" />
    <path
       d="m 19.983,12.031 c -0.093,0.043 -0.175,0.104 -0.137,0.403 0.015,0.124 0.008,0.424 -0.1,0.428 0.066,0.033 0.208,0.069 0.266,-0.008 0.056,0.094 0.183,0.067 0.233,-0.05 0.066,0.054 0.158,-0.037 0.158,-0.116 0.058,0.037 0.175,-0.017 0.145,-0.195 0.071,0.025 0.162,-0.025 0.195,-0.071 -0.104,-0.021 -0.366,-0.162 -0.428,-0.274 -0.062,-0.113 -0.224,-0.167 -0.332,-0.117 z"
       id="path15" />
    <g
       fill="none"
       id="g16">
      <path
         d="M 18.542,3.62 C 18.584,3.558 18.631,3.5 18.683,3.449 m 1.441,1.272 c 0.073,-0.042 0.185,-0.047 0.309,-0.039 m -0.421,8.172 c -0.029,-0.042 -0.04,-0.216 -0.019,-0.322 m 0.252,0.272 a 0.493,0.493 0 0 1 -0.148,-0.262 m 0.306,0.146 c -0.058,-0.027 -0.2,-0.21 -0.231,-0.328 m 0.376,0.132 a 0.825,0.825 0 0 1 -0.366,-0.297"
         id="path16" />
    </g>
    <path
       d="m 24.382,7.765 c 1.023,0.857 1.089,1.538 0.931,1.938 C 25.23,9.329 24.806,8.747 24.365,8.597 Z"
       id="path17" />
    <path
       fill="#337321"
       d="m 22.553,7.282 h 1.896 v 2.245 c 0,1.913 -1.064,3.044 -2.146,3.642 -1.081,-0.599 -2.146,-1.73 -2.146,-3.642 V 7.282 h 1.331 a 0.729,0.729 0 0 0 0.15,0.466 c 0.314,-0.031 0.669,-0.266 0.915,-0.466 z"
       id="path18" />
    <path
       fill="#006ec7"
       d="m 24.449,7.282 v 2.245 c 0,0.577 -0.097,1.084 -0.262,1.525 L 22.304,7.597 20.421,11.052 A 4.327,4.327 0 0 1 20.159,9.527 V 7.282 Z"
       id="path19" />
    <path
       d="m 24.244,10.887 a 4.274,4.274 0 0 1 -0.14,0.369 l -1.8,-3.346 -1.8,3.346 a 3.969,3.969 0 0 1 -0.14,-0.369 l 1.941,-3.598 z"
       stroke="none"
       id="path20" />
    <path
       d="m 23.159,12.118 c 0.05,0.025 0.142,0.071 0.183,0.088 0.1,-0.2 0.116,-0.482 0.083,-0.732 -0.108,0.275 -0.474,0.266 -0.574,0.432 0.061,0.031 0.118,0.071 0.167,0.106 -0.125,0.125 -0.417,0.334 -0.583,0.384 v -1.784 c 0,-0.125 -0.042,-0.229 -0.042,-0.333 V 9.91 c 0,-0.083 -0.017,-0.204 -0.091,-0.204 -0.075,0 -0.091,0.121 -0.091,0.204 v 0.369 c 0,0.104 -0.042,0.225 -0.042,0.333 v 1.784 c -0.091,-0.266 -0.45,-0.175 -0.616,-0.441 a 0.466,0.466 0 0 1 0.2,-0.008 c -0.125,-0.424 -0.466,-0.457 -0.532,-0.582 0,0.175 -0.075,0.582 0.042,0.757 a 0.437,0.437 0 0 1 0.113,-0.092 c 0.141,0.308 0.777,0.309 0.927,0.816 0.12,-0.187 0.553,-0.403 0.856,-0.728 z"
       id="path21" />
    <path
       d="m 22.303,10.634 c 0.141,0 0.59,-0.046 0.753,-0.046 0.042,0 0.077,-0.063 0.077,-0.141 0,-0.078 -0.034,-0.141 -0.077,-0.141 -0.162,0 -0.611,-0.046 -0.753,-0.046 -0.141,0 -0.59,0.046 -0.753,0.046 -0.042,0 -0.077,0.063 -0.077,0.141 0,0.078 0.034,0.141 0.077,0.141 0.163,0 0.612,0.046 0.753,0.046 z"
       id="path22" />
    <path
       d="M 22.212,9.903 A 0.18,0.18 0 0 0 22.099,9.864 c -0.094,0 -0.171,0.07 -0.171,0.156 0,0.086 0.076,0.156 0.171,0.156 0.094,0 0.17,-0.07 0.17,-0.156 0,-0.067 0.097,-0.067 0.097,0 0,0.135 -0.12,0.244 -0.267,0.244 -0.148,0 -0.267,-0.109 -0.267,-0.244 0,-0.135 0.12,-0.244 0.267,-0.244 0.044,0 0.086,0.01 0.123,0.027 -0.003,0.022 -0.01,0.064 -0.01,0.1 z m -0.661,0.685 c 0.042,0 0.076,-0.063 0.076,-0.141 0,-0.078 -0.034,-0.141 -0.076,-0.141"
       id="path23" />
    <path
       d="m 21.613,10.588 c 0.042,0 0.076,-0.063 0.076,-0.141 0,-0.078 -0.034,-0.141 -0.076,-0.141 m 0.411,0.311 c 0.051,0 0.092,-0.076 0.092,-0.17 0,-0.094 -0.041,-0.17 -0.092,-0.17 m 0.095,0.347 c 0.053,0 0.096,-0.08 0.096,-0.178 0,-0.098 -0.043,-0.178 -0.096,-0.178 m 0.32,0.358 c 0.054,0 0.097,-0.081 0.097,-0.18 0,-0.099 -0.044,-0.18 -0.097,-0.18 m 0.1,0.355 c 0.053,0 0.096,-0.078 0.096,-0.174 0,-0.096 -0.043,-0.174 -0.096,-0.174 m 0.447,0.317 c 0.043,0 0.078,-0.064 0.078,-0.144 0,-0.08 -0.035,-0.144 -0.078,-0.144 m -1.61,1.728 a 0.618,0.618 0 0 1 0.178,-0.074 m 1.514,0.091 -0.049,-0.035 m 0.14,0.106 c 0.116,-0.125 0.213,-0.266 0.267,-0.428"
       id="path24" />
    <path
       fill="#ffffff"
       d="m 21.922,8.87 c 0,-0.041 0.033,-0.058 0.072,-0.087 0.047,-0.035 0.066,-0.052 0.108,-0.052 h 0.546 c 0.04,0 0.05,0.01 0.05,0.048 V 9.52 c 0,0.037 -0.009,0.048 -0.05,0.048 H 21.922 V 8.862"
       id="path25" />
    <path
       fill="#e5e5e5"
       d="m 22.513,9.633 c 0.072,0 0.059,-0.002 0.109,-0.052 C 22.675,9.529 22.67,9.533 22.67,9.485 V 8.806 c 0,-0.035 -0.009,-0.045 -0.046,-0.045 h -0.505 c -0.04,0 -0.057,0.016 -0.1,0.049 -0.036,0.027 -0.066,0.044 -0.066,0.082 v 0.741 z"
       id="path26" />
    <path
       fill="#ffffff"
       d="m 22.567,9.617 c 0,0.037 -0.009,0.048 -0.05,0.048 h -0.546 c -0.041,0 -0.049,-0.01 -0.049,-0.048 V 8.875 c 0,-0.037 0.009,-0.048 0.049,-0.048 h 0.546 c 0.041,0 0.05,0.01 0.05,0.048 z"
       id="path27" />
    <path
       fill="#96877d"
       d="m 23.625,6.847 a 0.419,0.419 0 0 1 0.083,0.434 H 23.55 C 23.616,7.081 23.575,6.891 23.292,6.866 22.869,6.829 22.377,7.648 21.637,7.747 21.421,7.489 21.432,6.998 21.707,6.765 21.565,6.356 21.266,5.906 21.058,5.712 A 2.03,2.03 0 0 0 20.664,5.685 C 20.772,5.452 21.08,5.207 21.33,5.107 21.37,5.048 21.414,4.991 21.454,4.94 c 0.025,-0.32 1.547,-0.17 1.871,0.029 0.001,0.359 0.142,1.554 0.3,1.878 z"
       id="path28" />
    <g
       fill="#000000"
       stroke="none"
       id="g29">
      <path
         d="m 21.781,7.066 c -0.036,-0.554 -0.26,-1.011 -0.575,-1.322 0.15,0.042 0.457,0.042 0.665,-0.108 0.274,-0.183 0.99,-0.503 1.252,-0.366 0.021,0.046 0.033,0.15 0.017,0.216 C 23.078,5.32 22.387,5.577 22.192,5.656 22.005,5.743 21.922,5.86 21.988,6.122 21.88,6.031 21.917,5.943 21.805,5.877 21.85,5.985 21.887,6.18 21.9,6.338 21.858,6.226 21.784,5.985 21.621,5.843 c 0.141,0.274 0.264,0.933 0.206,1.283 0.112,0 0.36,-0.11 0.459,-0.189 C 22.199,7.062 21.947,7.149 21.785,7.182 21.712,7.269 21.662,7.494 21.666,7.619 21.655,7.465 21.703,7.09 21.781,7.066 Z M 23.625,6.847 C 23.487,6.694 23.23,6.611 22.902,6.7 22.952,6.675 23.06,6.633 23.156,6.617 23.144,6.53 23.065,6.155 23.052,6.064 l 0.092,-0.037 c 0.046,0.225 0.104,0.482 0.141,0.586 0.029,0.008 0.096,0.021 0.154,0.05 C 23.414,6.576 23.273,5.948 23.277,5.881 l 0.125,-0.067 c 0.049,0.341 0.128,0.836 0.223,1.033 z"
         id="path29" />
    </g>
    <path
       fill="#96877d"
       d="m 23.551,7.282 c 0.066,-0.2 0.025,-0.39 -0.258,-0.415 -0.219,-0.019 -0.457,0.194 -0.738,0.415 z M 21.713,5.49 A 1.648,1.648 0 0 1 21.168,5.436 0.64,0.64 0 0 1 21.209,5.318 c -0.087,0.058 -0.253,0.172 -0.316,0.251 0.2,0.042 0.612,0.063 0.82,-0.079 z"
       id="path30" />
    <path
       fill="none"
       d="m 21.708,6.766 c 0.046,0.133 0.076,0.261 0.08,0.375 M 21.331,5.108 c -0.075,0.11 -0.141,0.228 -0.163,0.328 0.141,0.046 0.42,0.071 0.545,0.054"
       id="path31" />
    <path
       fill="none"
       d="m 21.059,5.713 c 0.054,0.009 0.104,0.019 0.147,0.031 0.15,0.042 0.457,0.042 0.665,-0.108 0.208,-0.15 0.773,-0.615 1.414,-0.665"
       id="path32" />
    <path
       fill="none"
       d="m 20.894,5.569 c 0.2,0.042 0.612,0.062 0.819,-0.079 0.482,-0.328 0.948,-0.52 1.414,-0.545"
       id="path33" />
    <path
       fill="#337321"
       d="m 24.382,7.765 c 0.698,0.482 1.214,0.948 1.364,1.696 0.15,0.748 0.433,0.948 0.782,0.748 -0.083,0.432 -0.516,0.482 -0.881,0.15 0.033,0.499 -0.166,1.098 -0.682,1.314 -0.033,-0.299 0.165,-0.536 0.108,-0.782 -0.025,-0.108 -0.033,-0.358 0.108,-0.474 -0.274,0.091 -0.707,-0.083 -0.748,-0.491 0.316,0.15 0.723,0.175 0.881,-0.225 0.157,-0.398 0.091,-1.08 -0.932,-1.936 z M 25.264,3.873 C 25.48,3.308 26.046,3.366 26.237,3.607 26.794,3.291 26.869,4.006 27.343,3.865 27.335,3.998 27.177,4.123 27.002,4.114 27.185,4.28 26.927,4.53 27.318,4.679 26.985,4.845 26.52,4.671 26.395,4.213 26.287,4.429 25.896,4.429 25.738,4.255 26.079,4.164 26.054,3.848 25.863,3.723 25.67,3.597 25.33,3.648 25.264,3.873 Z m -1.687,1.245 c 0.155,0.5 0.476,0.966 0.822,1.283 0.399,0.366 1.002,0.274 1.339,-0.075 0.008,0.696 -0.713,0.75 -1.114,0.532 -0.177,-0.096 -0.32,-0.046 -0.15,0.108 0.258,0.233 0.822,0.406 1.488,0.549 1.164,0.249 0.749,1.173 0.408,1.164 C 26.468,8.677 26.548,8.575 26.407,8.448 25.397,7.539 23.343,7.897 23.376,5.868 23.16,6.4 22.27,6.192 22.686,5.56 c 0.133,0.108 0.366,0.116 0.433,-0.05 0.052,-0.129 0.018,-0.354 -0.215,-0.548 0.038,-0.003 0.121,0 0.112,-0.096 0.01,0.056 0.061,0.139 0.192,0.111 0.037,0.059 0.077,0.098 0.13,0.077 0.01,-0.004 0.042,-0.02 0.029,-0.079 0.01,0.112 0.141,0.151 0.21,0.143 z"
       id="path34" />
    <path
       d="m 24.623,6.858 c 0.482,0.316 1.028,0.316 1.53,-0.266 C 26.311,6.409 26.56,6.251 26.735,6.234 26.91,6.217 26.901,6.051 27.034,6.018 26.951,5.993 26.918,5.893 26.793,5.906 27.105,5.798 27.013,5.548 27.167,5.428 27.042,5.474 26.847,5.287 26.668,5.524 26.714,5.416 26.651,5.287 26.606,5.237 26.623,5.362 26.361,5.387 26.311,5.703 26.283,5.88 26.186,5.869 26.17,5.595 26.158,5.394 26.062,4.838 25.946,4.556 25.83,4.273 25.803,3.885 25.961,3.827 A 0.308,0.308 0 0 0 25.863,3.725 C 25.67,3.599 25.331,3.65 25.264,3.875 25.048,4.44 25.655,4.765 25.605,5.38 25.514,4.923 24.773,4.806 24.782,4.357 24.541,4.465 24.574,4.665 24.666,4.823 24.516,4.59 24.175,4.973 23.884,4.657 c -0.033,0.416 0.333,0.574 0.632,0.59 -0.15,0.266 0.05,0.491 0.249,0.565 0.008,-0.466 0.963,-0.275 0.973,0.524 0.008,0.68 -0.724,0.738 -1.115,0.522 z m 1.339,0.657 C 27.126,7.764 26.711,8.688 26.37,8.679 26.153,8.674 25.946,8.492 25.933,8.334 25.684,8.467 25.75,8.729 25.941,8.833 25.417,8.771 25.197,9.116 25.184,9.494 25.28,9.319 25.571,9.307 25.679,9.344 25.787,9.381 26.066,9.402 26.178,9.277 26.086,9.356 26.236,9.539 26.107,9.68 26.544,9.663 26.735,9.256 26.66,9.077 27.226,8.563 27.118,7.723 25.962,7.515 Z m -0.886,3.951 c 0.076,0.047 0.066,0.147 0.015,0.21 -0.103,0.126 0.052,0.427 -0.265,0.478 -0.094,0.015 -0.163,-0.045 -0.194,-0.152 -0.086,-0.296 0.226,-0.316 0.259,-0.455 0.034,-0.138 0.121,-0.121 0.185,-0.081 z"
       id="path35" />
    <path
       d="m 24.79,12.003 c 0.102,0.052 0.19,0.124 0.136,0.456 -0.023,0.138 -0.028,0.473 0.093,0.482 -0.076,0.034 -0.235,0.067 -0.297,-0.021 -0.067,0.102 -0.207,0.066 -0.258,-0.066 -0.077,0.057 -0.175,-0.049 -0.171,-0.137 -0.067,0.039 -0.194,-0.026 -0.154,-0.224 -0.08,0.025 -0.18,-0.035 -0.215,-0.087 0.117,-0.019 0.415,-0.165 0.49,-0.288 0.074,-0.122 0.257,-0.175 0.376,-0.115 z"
       id="path36" />
    <path
       fill="none"
       d="m 24.721,12.921 c 0.034,-0.045 0.054,-0.24 0.035,-0.359 m -0.292,0.293 a 0.545,0.545 0 0 0 0.176,-0.286 m -0.348,0.149 c 0.066,-0.028 0.232,-0.226 0.272,-0.357 m -0.426,0.133 c 0.077,-0.013 0.318,-0.157 0.421,-0.316"
       id="path37" />
    <path
       d="m 23.376,5.869 c -0.014,0.852 0.34,1.284 0.831,1.564 C 24.025,7.324 24.104,6.95 23.858,6.829 23.916,6.825 24.008,6.908 24.153,6.875 24.082,6.717 23.966,6.476 23.696,6.443 23.767,6.435 23.921,6.46 24.02,6.422 23.879,6.205 23.505,6.309 23.376,5.869 Z M 23.288,5.058 c -0.03,-0.01 -0.055,-0.04 -0.08,-0.079 -0.131,0.028 -0.182,-0.055 -0.192,-0.111 0.008,0.096 -0.074,0.092 -0.113,0.095 0.234,0.194 0.268,0.419 0.216,0.548 -0.067,0.166 -0.299,0.158 -0.433,0.05 -0.017,0.353 0.441,0.47 0.607,0.025 0,0.075 0.096,0.067 0.121,0.166 0.118,-0.191 0.028,-0.466 -0.126,-0.694 z"
       id="path38" />
    <path
       fill="#337321"
       d="M 22.557,3.37 A 0.994,0.994 0 0 1 22.262,2.676 c 0.008,-0.183 0.083,-0.383 0.349,-0.299 -0.083,0 -0.025,0.166 -0.112,0.183 0.071,0.025 0.166,-0.033 0.179,-0.071 0.017,0.058 0.125,0.042 0.133,0.108 C 22.853,2.564 22.807,2.402 22.745,2.368 22.791,2.343 22.816,2.214 22.795,2.152 22.753,2.16 22.691,2.219 22.679,2.302 22.7,2.235 22.675,2.069 22.558,2.044 22.525,2.09 22.516,2.202 22.562,2.264 22.454,2.239 22.296,2.31 22.258,2.401 22.266,2.291 22.282,2.134 22.35,2.035 22.373,2.002 22.317,1.944 22.273,2.023 22.192,1.865 21.976,1.782 21.88,1.861 21.784,1.94 21.656,1.824 21.577,1.948 c -0.079,0.125 -0.347,0.138 -0.333,0.27 0.008,0.079 -0.011,0.201 -0.05,0.245 -0.096,0.108 0.046,0.187 0.071,0.283 -0.017,-0.316 0.486,-0.931 0.99,-0.69 -0.046,0.079 -0.086,0.237 -0.1,0.428 -0.021,0.283 0.021,0.682 0.295,0.915 z"
       id="path39" />
    <path
       fill="#c8102e"
       d="m 22.706,2.38 c -0.003,-0.075 0.127,-0.172 0.301,-0.17 0.21,0.002 0.372,0.193 0.54,0.175 0.168,-0.019 0.085,0.075 0.05,0.1 C 23.562,2.51 23.541,2.547 23.553,2.593 23.565,2.639 23.544,2.669 23.476,2.626 23.326,2.532 23.177,2.663 22.979,2.591 22.81,2.527 22.711,2.492 22.706,2.38 Z"
       id="path40" />
    <path
       fill="#96877d"
       d="M 21.85,4.343 C 21.767,4.081 21.451,3.794 21.297,3.728 L 21.289,3.587 c 0.083,-0.033 0.283,-0.191 0.374,-0.279 0.624,0.299 1.472,-0.125 1.863,-0.565 l 0.15,0.091 -0.075,0.1 -0.079,-0.042 A 4.777,4.777 0 0 1 22.961,3.415 C 23.106,3.452 23.305,3.477 23.36,3.474 23.709,3.224 23.983,3 24.116,2.983 l 0.112,0.15 -0.1,0.071 -0.079,-0.046 C 23.675,3.466 23.251,4.139 23.084,4.588 22.852,4.538 22.02,4.571 21.85,4.343 Z"
       id="path41" />
    <path
       fill="none"
       d="M 22.961,3.415 A 0.607,0.607 0 0 1 22.832,3.37 c -0.067,0.062 -0.233,0.116 -0.445,0.125"
       id="path42" />
    <path
       fill="none"
       d="m 21.883,4.251 c -0.056,-0.31 0.033,-0.653 0.191,-0.757 0.345,0.229 0.936,0.229 1.285,-0.021"
       id="path43" />
    <path
       fill="none"
       d="m 21.883,4.089 a 8.87,8.87 0 0 1 0.985,0.058 c 0.141,0.021 0.378,0.079 0.345,0.15 M 22.006,4.045 22.083,3.969 22.006,3.893 21.93,3.968 Z"
       id="path44" />
    <path
       fill="#337321"
       d="m 22.187,2.497 c -0.096,-0.133 -0.359,-0.175 -0.416,0.004 -0.025,0.079 -0.062,0.162 -0.125,0.2 -0.062,0.037 -0.048,0.151 -0.021,0.2 0.066,0.121 0.008,0.237 0.137,0.316 0,-0.096 0.141,-0.195 0.262,-0.22 0.121,-0.025 0.303,-0.133 0.328,-0.254 0.026,-0.122 0.068,-0.222 -0.165,-0.246 z"
       id="path45" />
    <path
       fill="#96877d"
       d="m 21.588,3.694 h 0.033 l 0.001,0.227 a 0.075,0.075 0 0 1 0.02,0.01 l 0.196,-0.113 0.017,0.029 -0.197,0.114 c 10e-4,0.007 0.002,0.015 10e-4,0.022 L 21.855,4.096 21.838,4.125 21.64,4.013 A 0.047,0.047 0 0 1 21.621,4.025 V 4.251 H 21.588 V 4.024 a 0.075,0.075 0 0 1 -0.02,-0.01 L 21.372,4.127 21.355,4.098 21.552,3.984 C 21.551,3.977 21.55,3.969 21.551,3.962 L 21.355,3.849 21.372,3.82 21.569,3.933 a 0.047,0.047 0 0 1 0.019,-0.012 z"
       id="path46" />
    <path
       fill="#96877d"
       d="M 21.884,4.25 A 0.393,0.393 0 1 1 21.917,3.733 0.887,0.887 0 0 0 21.871,3.944 0.27,0.27 0 1 0 21.603,4.24 0.276,0.276 0 0 0 21.866,4.038 c 0.001,0.052 0.003,0.171 0.018,0.212 z"
       id="path47" />
    <path
       fill="#337321"
       d="M 21.438,4.625 C 21.413,4.596 21.367,4.517 21.372,4.459 a 0.217,0.217 0 0 1 0.141,0.054 C 21.509,4.471 21.492,4.38 21.501,4.338 a 0.38,0.38 0 0 1 0.175,0.133 0.603,0.603 0 0 1 -0.008,-0.216 c 0.05,0.029 0.133,0.108 0.15,0.162 A 0.716,0.716 0 0 1 21.876,4.163 C 21.913,4.2 21.972,4.234 22.009,4.284 22.017,4.217 22.051,4.138 22.1,4.118 a 0.483,0.483 0 0 1 0.108,0.245 c 0.037,-0.012 0.087,-0.075 0.108,-0.108 a 0.228,0.228 0 0 1 0.029,0.162 c 0.046,-0.042 0.1,-0.1 0.112,-0.15 a 0.319,0.319 0 0 1 0.112,0.154 C 22.561,4.367 22.565,4.271 22.548,4.217 a 0.24,0.24 0 0 1 0.125,0.154 C 22.69,4.313 22.727,4.209 22.76,4.184 a 0.455,0.455 0 0 1 0.062,0.212 c 0.021,-0.042 0.054,-0.116 0.087,-0.133 0.029,0.046 0.025,0.146 0.017,0.2 a 0.4,0.4 0 0 1 0.116,-0.108 0.348,0.348 0 0 1 0,0.112 c 0.037,-0.021 0.1,-0.133 0.121,-0.191 a 0.29,0.29 0 0 1 0.121,0.179 0.452,0.452 0 0 0 0.15,-0.133 c 0,0.029 0.013,0.108 -0.004,0.17 0.025,-0.025 0.05,-0.075 0.062,-0.096 0.017,0.042 0.004,0.141 -0.013,0.195 A 0.219,0.219 0 0 1 23.604,4.537 C 23.608,4.608 23.558,4.732 23.512,4.824 23.114,4.713 22.278,4.671 21.438,4.625 Z"
       id="path48" />
    <path
       d="m 22.83,2.423 c -0.002,-0.031 0.066,-0.1 0.189,-0.099 0.147,0.001 0.283,0.109 0.4,0.101 0.118,-0.008 0.06,0.031 0.035,0.041 -0.025,0.01 -0.039,0.026 -0.031,0.044 0.009,0.019 -0.006,0.031 -0.054,0.014 C 23.264,2.486 23.159,2.539 23.021,2.51 22.902,2.483 22.833,2.469 22.83,2.423 Z"
       stroke="none"
       id="path49" />
    <path
       d="M 21.567,4.875 C 21.442,5.025 21.318,5 21.293,4.904 21.268,4.808 21.36,4.763 21.326,4.679 21.293,4.596 21.38,4.558 21.422,4.596 21.464,4.633 21.597,4.513 21.655,4.638 21.713,4.763 21.759,4.85 21.726,4.9 21.692,4.95 21.592,4.925 21.567,4.875 Z M 22.103,4.65 c -0.023,-0.055 0.106,-0.16 0.173,-0.085 0.067,0.075 0.171,-0.081 0.229,0.037 0.058,0.119 0.077,0.181 0.106,0.247 0.029,0.067 -0.158,0.102 -0.216,0.044 0.008,0.039 -0.162,0.07 -0.208,-0.042 C 22.162,4.792 22.135,4.723 22.103,4.65 Z m 0.865,0.069 c -0.031,-0.058 0.121,-0.141 0.2,-0.035 0.021,-0.044 0.171,-0.052 0.181,0.075 l 0.019,0.252 C 23.372,5.061 23.277,5.107 23.208,4.98 23.085,5.005 23.029,4.936 23.015,4.864 A 0.54,0.54 0 0 0 22.968,4.719 Z"
       id="path50" />
    <path
       fill="#337321"
       d="M 21.648,4.636 C 21.629,4.594 21.754,4.511 21.839,4.574 21.924,4.636 22.042,4.52 22.093,4.632 22.195,4.859 22.201,4.875 22.17,4.919 22.139,4.963 22.006,4.946 21.972,4.886 21.966,4.928 21.851,4.921 21.791,4.888 21.723,4.85 21.675,4.711 21.648,4.636 Z m 0.875,0.01 C 22.494,4.582 22.689,4.525 22.775,4.638 22.819,4.598 22.914,4.596 22.968,4.719 23.022,4.842 23.03,4.91 22.991,4.941 22.963,4.963 22.862,4.98 22.829,4.924 22.783,4.953 22.642,4.928 22.611,4.849 22.58,4.771 22.553,4.702 22.523,4.646 Z m 0.828,0.123 c -0.004,-0.058 0.102,-0.085 0.141,0 0.04,0.085 0.166,0.008 0.177,0.15 C 23.671,4.946 23.654,5.05 23.615,5.1 23.576,5.15 23.382,5.1 23.37,4.994 A 2.419,2.419 0 0 1 23.351,4.769 Z"
       id="path51" />
    <g
       fill="none"
       id="g52">
      <path
         d="M 21.567,4.875 C 21.521,4.813 21.459,4.713 21.38,4.821 m 0.593,0.064 A 0.49,0.49 0 0 1 21.898,4.746 m 0.497,0.148 A 0.345,0.345 0 0 1 22.299,4.788 m 0.058,-0.113 c 0.073,0.008 0.123,0.077 0.145,0.108 0.023,0.031 0.071,0.087 0.108,0.094 m 0.219,0.048 C 22.804,4.885 22.779,4.85 22.773,4.821 m 0.002,-0.183 a 0.483,0.483 0 0 1 0.058,0.098 m 0.374,0.243 A 0.345,0.345 0 0 0 23.078,4.836 M 23.191,4.75 c 0.004,0.123 0.168,0.131 0.175,0.218 m 0.126,-0.199 a 0.238,0.238 0 0 1 0.025,0.114"
         id="path52" />
    </g>
  </g>
  <g
     clip-path="url(#a-0)"
     id="g7"
     transform="scale(0.21666667,0.24166667)">
    <path
       d="M 0,0 V 30 H 60 V 0 Z"
       fill="#012169"
       id="path3" />
    <path
       d="M 0,0 60,30 M 60,0 0,30"
       stroke="#ffffff"
       stroke-width="6"
       id="path4" />
    <path
       d="M 0,0 60,30 M 60,0 0,30"
       clip-path="url(#b)"
       stroke="#c8102e"
       stroke-width="4"
       id="path5" />
    <path
       d="M 30,0 V 30 M 0,15 h 60"
       stroke="#ffffff"
       stroke-width="10"
       id="path6" />
    <path
       d="M 30,0 V 30 M 0,15 h 60"
       stroke="#c8102e"
       stroke-width="6"
       id="path7" />
  </g>
</svg>
