<?xml version="1.0" encoding="UTF-8" standalone="no"?>
<svg
   width="999.99994"
   height="600"
   version="1.1"
   id="svg35"
   xmlns="http://www.w3.org/2000/svg"
   xmlns:svg="http://www.w3.org/2000/svg">
  <defs
     id="defs35" />
  <path
     d="M 0,0 H 999.99996 V 600 H 0 Z"
     fill="#0038a8"
     id="path1"
     style="stroke-width:0.870388" />
  <path
     d="M 0,0 H 999.99996 V 400 H 0 Z"
     fill="#ffffff"
     id="path2"
     style="stroke-width:0.870388" />
  <path
     d="M 0,0 H 999.99996 V 200 H 0 Z"
     fill="#d52b1e"
     id="path3"
     style="stroke-width:0.870388" />
  <path
     d="m 584.79606,300.66204 c 0,46.218 -37.442,83.678 -83.658,83.678 -46.193,0 -83.654,-37.46 -83.654,-83.678 0,-46.198 37.462,-83.634 83.654,-83.634 46.216,0 83.658,37.436 83.658,83.634 z"
     stroke-miterlimit="10"
     fill="#ffffff"
     stroke="#000000"
     stroke-width="3.687"
     id="path4" />
  <path
     d="m 541.58807,287.70404 c -2.031,-0.08 -2.043,2.158 -2.043,2.158 0,0 0.07,-0.662 0.012,0.09 -0.039,0.743 0.333,2.555 1.833,2.703 1.583,0.139 2.109,-1.711 2.122,-2.609 0,-0.356 -0.116,-2.296 -1.924,-2.34"
     fill="#009b3a"
     stroke="#000000"
     stroke-width="0.985"
     id="path5" />
  <path
     d="m 448.65606,334.15204 -0.71699,-1.187 c -0.072,-0.132 -0.259,-0.35 -0.558,-0.675 a 0.817,0.817 0 0 0 -0.554,-0.273 0.988,0.988 0 0 0 -0.652,0.132 c -0.278,0.17 -0.46,0.397 -0.49,0.675 -0.053,0.283 0.079,0.672 0.393,1.197 l 0.725,1.235 z m 7.08,-0.408 -9.1,5.412 -2.778,-4.668 c -0.515,-0.876 -0.828,-1.572 -0.95,-2.122 -0.143,-0.559 -0.075,-1.083 0.156,-1.604 0.23,-0.526 0.648,-0.964 1.23,-1.313 a 3.156,3.156 0 0 1 1.48,-0.457 c 0.51,0 0.97501,0.126 1.426,0.365 0.27801,0.16 0.602,0.408 0.955,0.768 -0.084,-0.389 -0.132,-0.696 -0.113,-0.934 a 6.02,6.02 0 0 1 0.221,-0.73 c 0.123,-0.34 0.24,-0.578 0.313,-0.729 l 1.839,-2.928 1.875,3.18 -1.875,3.157 c -0.235,0.399 -0.378,0.706 -0.397,0.92 -0.011,0.296 0.054,0.554 0.195,0.807 l 0.156,0.258 3.687,-2.194 z m -16.01999,-7.41 -2.77801,-8.302 2.142,-0.72 1.74,5.204 1.606,-0.54 -1.636,-4.83 2.058,-0.671 1.616,4.806 1.97,-0.637 -1.778,-5.355 2.273,-0.774 2.822,8.458 z m 0.29599,-16.9 -0.112,-0.777 c -0.073,-0.648 -0.23,-1.066 -0.47,-1.284 a 1.133,1.133 0 0 0 -0.896,-0.282 1.3,1.3 0 0 0 -0.79,0.417 c -0.21,0.254 -0.28,0.672 -0.192,1.28 l 0.089,0.934 z m -4.11599,3.79 -0.631,-5.394 c -0.127,-1.158 0.04,-2.082 0.524,-2.734 0.5,-0.646 1.265,-1.035 2.293,-1.152 1.059,-0.132 1.936,0.096 2.602,0.657 0.658,0.569 1.079,1.517 1.236,2.82 l 0.19999,1.776 3.89601,-0.453 0.382,3.264 z m -0.36701,-20.64 0.33801,-3.25 6.28199,0.676 a 5.523,5.523 0 0 1 1.71,0.482 3.54,3.54 0 0 1 1.362,1.074 c 0.363,0.468 0.618,0.915 0.736,1.397 0.16001,0.636 0.205,1.415 0.102,2.31 a 11.916,11.916 0 0 1 -0.294,1.654 c -0.132,0.597 -0.337,1.09 -0.593,1.469 a 3.852,3.852 0 0 1 -1.019,1.03 3.324,3.324 0 0 1 -1.289,0.55 c -0.696,0.142 -1.293,0.17 -1.812,0.112 l -6.253,-0.66 0.337,-3.255 6.416,0.696 c 0.578,0.058 1.038,-0.049 1.395,-0.342 0.359,-0.287 0.56,-0.704 0.628,-1.254 0.06,-0.58 -0.059,-1.026 -0.339,-1.371 -0.278,-0.356 -0.71,-0.555 -1.293,-0.623 z m 10.52301,-8.892 0.564,-1.566 c 0.171,-0.53 0.22,-0.94 0.103,-1.236 a 0.98,0.98 0 0 0 -0.642,-0.578 c -0.315,-0.108 -0.574,-0.088 -0.828,0.068 -0.264,0.16 -0.491,0.5 -0.672,1.03 l -0.558,1.576 z m -3.924,-1.376 0.475,-1.329 c 0.16,-0.486 0.205,-0.855 0.087,-1.104 -0.087,-0.239 -0.294,-0.428 -0.612,-0.52 a 0.91,0.91 0 0 0 -0.774,0.034 c -0.23,0.136 -0.42201,0.427 -0.578,0.895 l -0.496,1.366 z m -4.995,1.755 2.01,-5.792 c 0.348,-0.964 0.843,-1.606 1.509,-1.97 a 2.518,2.518 0 0 1 2.04,-0.152 c 0.577,0.228 1.017,0.58 1.322,1.095 0.18,0.34 0.294,0.788 0.294,1.308 0.416,-0.66 0.896,-1.08 1.43,-1.26 0.544,-0.194 1.137,-0.184 1.779,0.04 0.504,0.174 0.926,0.461 1.26,0.84 0.318,0.4 0.528,0.838 0.632,1.334 0.048,0.32 0.024,0.748 -0.089,1.279 -0.166,0.744 -0.264,1.215 -0.348,1.435 l -1.862,5.33 z m 5.392,-13.555 1.71,-2.791 6.81099,4.128 2.652,-4.356 2.22001,1.356 -4.32201,7.145 z m 6.986,-10.406 2.103,-2.505 8.07,6.823 -2.106,2.505 z m 14.657,-5.686 2.75,-1.176 c 0.35299,0.74 0.55399,1.444 0.58199,2.135 a 4.09,4.09 0 0 1 -0.38999,1.92 c -0.31501,0.608 -0.829,1.197 -1.534,1.815 -0.89801,0.73 -1.721,1.206 -2.5,1.415 -0.77,0.2 -1.632,0.151 -2.592,-0.151 -0.926,-0.306 -1.808,-0.972 -2.66,-1.97 -1.108,-1.355 -1.618,-2.684 -1.505,-3.988 0.108,-1.327 0.82299,-2.519 2.12599,-3.618 1.03501,-0.856 1.995,-1.303 2.94,-1.376 0.92201,-0.088 1.90201,0.19 2.886,0.807 l -1.807,2.344 c -0.275,-0.18 -0.504,-0.3 -0.7,-0.34 a 1.586,1.586 0 0 0 -0.878,-0.01 1.86,1.86 0 0 0 -0.804,0.399 c -0.574,0.48 -0.82299,1.074 -0.74,1.784 0.049,0.53 0.387,1.149 0.97501,1.883 0.75999,0.9 1.41599,1.404 1.956,1.507 0.568,0.117 1.092,-0.043 1.582,-0.452 0.476,-0.408 0.735,-0.836 0.745,-1.303 0.014,-0.497 -0.11801,-1.036 -0.432,-1.625 m 10.7,-6.355 -2.763,-2.86 0.696,3.924 z m 1.647,1.736 -3.312,1.684 0.338,1.794 -2.975,1.512 -1.26,-11.23 3.17999,-1.625 8.346,7.623 -3.043,1.556 z m 12.863,-11.025 0.813,5.71 0.79499,-0.117 c 0.68,-0.084 1.156,-0.234 1.425,-0.424 0.26,-0.209 0.437,-0.476 0.544,-0.895 0.117,-0.389 0.117,-0.996 -0.004,-1.843 -0.156,-1.104 -0.451,-1.843 -0.863,-2.194 -0.42,-0.35 -1.054,-0.476 -1.896,-0.35 z m -3.557,-1.912 4.802,-0.691 c 0.946,-0.126 1.715,-0.117 2.332,0.059 a 3.84,3.84 0 0 1 1.62199,0.9 4.58,4.58 0 0 1 1.059,1.556 7.428,7.428 0 0 1 0.548,1.998 c 0.172,1.109 0.172,2.004 -0.01,2.641 a 4.464,4.464 0 0 1 -0.83299,1.716 c -0.40201,0.473 -0.848,0.828 -1.343,1.027 a 7.334,7.334 0 0 1 -1.896,0.579 l -4.812,0.677 z m 14.39099,-2.05 8.727,0.647 -0.162,2.251 -5.464,-0.408 -0.127,1.678 5.068,0.374 -0.183,2.145 -5.041,-0.36 -0.148,2.063 5.621,0.417 -0.176,2.383 -8.895,-0.656 z m 13.44601,1.234 3.142,0.876 -2.172,7.685 4.906,1.386 -0.716,2.49 -8.05201,-2.28 z m 17.84,11.732 0.676,0.438 c 0.52,0.345 0.96,0.491 1.28,0.456 a 0.982,0.982 0 0 0 0.78,-0.486 1.3,1.3 0 0 0 0.2,-0.895 c -0.064,-0.31 -0.353,-0.626 -0.863,-0.962 l -0.78,-0.526 z m -0.26,-5.569 4.544,2.997 c 0.984,0.646 1.562,1.376 1.74,2.163 0.19,0.798 0,1.635 -0.585,2.501 -0.567,0.88 -1.303,1.396 -2.175,1.546 -0.882,0.141 -1.848,-0.131 -2.95,-0.856 l -1.494,-0.992 -2.14701,3.273 -2.74,-1.814 z m 11.472,16.122 1.842,-3.525 -3.498,1.892 z m -1.117,2.101 -2.652,-2.606 -1.596,0.876 -2.376,-2.335 4.884,-2.256 5.381,-2.487 2.528,2.501 -4.596,10.335 -2.43,-2.412 z m 9.821,4.587 0.745,1.177 c 0.089,0.118 0.25,0.346 0.583,0.656 a 0.87,0.87 0 0 0 0.57,0.249 0.91,0.91 0 0 0 0.626,-0.156 c 0.28,-0.18 0.436,-0.403 0.486,-0.69 0.038,-0.273 -0.108,-0.682 -0.437,-1.177 l -0.755,-1.206 z m -7.07,0.627 8.913,-5.69 2.926,4.586 c 0.543,0.846 0.887,1.542 1.053,2.082 a 2.58,2.58 0 0 1 -0.138,1.605 c -0.216,0.535 -0.612,0.978 -1.17,1.344 -0.505,0.32 -0.99,0.5 -1.49,0.5 -0.475,0.029 -0.96,-0.092 -1.436,-0.293 a 5.476,5.476 0 0 1 -0.965,-0.753 c 0.093,0.389 0.152,0.705 0.141,0.924 a 5.78,5.78 0 0 1 -0.186,0.73 3.863,3.863 0 0 1 -0.318,0.748 l -1.725,2.987 -2,-3.118 1.79499,-3.2 c 0.24,-0.428 0.357,-0.734 0.357,-0.948 0.01,-0.288 -0.035,-0.56 -0.225,-0.804 l -0.142,-0.242 -3.626,2.31 z m 12.496,14.24 3.17,-2.393 -3.963,0.22 z m -1.924,1.416 -1.27,-3.497 -1.804,0.126 -1.152,-3.137 11.3,0.132 1.221,3.336 -8.58,7.354 -1.17601,-3.23 z m 5.06,11.246 2.176,-0.287 0.63,5.04 -4.473,0.54 c -0.755,-0.876 -1.332,-1.66 -1.641,-2.375 -0.344,-0.709 -0.564,-1.57 -0.69,-2.577 -0.162,-1.245 -0.08,-2.286 0.268,-3.123 0.314,-0.836 0.873,-1.532 1.656,-2.082 0.79,-0.52 1.721,-0.865 2.804,-0.996 1.142,-0.15 2.175,-0.034 3.076,0.34 0.903,0.36 1.628,0.968 2.192,1.824 0.435,0.677 0.724,1.606 0.861,2.812 0.162,1.152 0.162,2.032 0.01,2.631 a 3.163,3.163 0 0 1 -0.798,1.56 4.092,4.092 0 0 1 -1.554,1.061 l -0.95,-3.05 c 0.378,-0.189 0.656,-0.431 0.823,-0.778 0.172,-0.33 0.216,-0.749 0.172,-1.206 -0.118,-0.72 -0.412,-1.254 -0.95,-1.614 -0.554,-0.36 -1.36901,-0.473 -2.437,-0.34 -1.136,0.14 -1.905,0.466 -2.352,0.938 -0.42,0.496 -0.577,1.132 -0.499,1.892 0.04,0.36 0.14599,0.696 0.28399,1.007 0.15201,0.33 0.372,0.666 0.67601,1.085 l 0.996,-0.137 z m 6.694,15.856 -0.372,3.238 -6.252,-0.705 a 5.311,5.311 0 0 1 -1.726,-0.492 3.814,3.814 0 0 1 -1.352,-1.074 c -0.358,-0.456 -0.603,-0.92 -0.72,-1.386 -0.153,-0.676 -0.192,-1.435 -0.09,-2.325 0.07,-0.506 0.169,-1.065 0.29,-1.663 0.143,-0.599 0.35299,-1.085 0.618,-1.464 a 4.14,4.14 0 0 1 1.01,-1.017 c 0.46,-0.287 0.881,-0.467 1.302,-0.54 0.687,-0.131 1.299,-0.174 1.814,-0.096 l 6.262,0.714 -0.372,3.23 -6.405,-0.736 c -0.583,-0.062 -1.044,0.04 -1.407,0.327 -0.352,0.291 -0.564,0.7 -0.621,1.26 -0.064,0.573 0.044,1.026 0.327,1.371 0.276,0.35 0.706,0.56 1.28,0.647 z m -9.732,12.034 3.984,0.142 -3.216,-2.345 z m -2.36301,-0.12 1.206,-3.507 -1.47599,-1.056 1.09799,-3.156 8.693,7.223 -1.196,3.379 -11.265,0.277 1.107,-3.239 z m 5.837,9.734 -1.839,3.127 -4.164,0.014 1.993,3.658 -1.827,3.089 -3.214,-6.66 -3.812,-2.246 1.675,-2.826 3.808,2.262 z"
     id="path6" />
  <path
     d="m 571.15007,300.68804 c 0,38.69 -31.352,70.045 -70.02301,70.045 -38.682,0 -70.033,-31.356 -70.033,-70.044 0,-38.662 31.35,-70.012 70.032,-70.012 38.67201,0 70.02301,31.35 70.02301,70.01 z"
     stroke-miterlimit="10"
     fill="none"
     stroke="#000000"
     stroke-width="1.475"
     id="path7" />
  <path
     d="m 553.23306,300.43804 c 0,28.799 -23.32299,52.124 -52.107,52.124 -28.78499,0 -52.118,-23.325 -52.118,-52.124 0,-28.77 23.33301,-52.102 52.11601,-52.102 28.786,0 52.11,23.332 52.11,52.102 z"
     stroke-miterlimit="10"
     fill="none"
     stroke="#000000"
     stroke-width="1.475"
     id="path8" />
  <path
     d="m 501.13006,281.69604 4.377,12.53 13.24401,0.296 -10.55401,8.026 3.83701,12.698 -10.90401,-7.548 -10.908,7.548 3.818,-12.698 -10.57,-8.026 13.27,-0.296 z"
     fill="#fedf00"
     stroke="#000000"
     stroke-width="0.602"
     id="path9" />
  <path
     d="m 525.19207,336.41304 c -0.442,0.37 -2.22,0.569 -2.69,0.648 -0.476,0.062 -2.343,0.081 -3.13301,0.11 -0.43499,0.03 -1.273,0.151 -1.70899,0.151 -3.828,-0.436 6.219,-0.375 7.532,-0.91 m -10.031,-2.96 c 0.25,-0.448 1.505,-3.24 1.956,-4.033 0.46,-0.779 1.499,-2.856 2.12,-3.72 0.32,-0.468 1.569,-1.824 1.867,-1.217 -2.175,1.88 -3.89,5.163 -4.804,7.37 -0.118,0.238 -0.833,1.467 -1.097,1.789 -0.256,0.315 -0.151,0.912 -0.552,0.96 -0.423,0.053 -0.127,0.13 -0.127,0.13 0,0 0.362,-0.808 0.637,-1.28 z m 14.431,2.135 c 0,0 -1.73,-0.259 -2.803,-0.638 -1.068,-0.36 -2.862,-0.636 -4.391,-0.598 -1.514,0.02 -2.9,0.477 -4.135,0.948 -1.23,0.457 -2.823,0.496 -2.823,0.496 0,0 -0.902,0.141 -0.48,-0.067 0.401,-0.2 1.798,-1.29 1.798,-1.29 l 0.902,-1.235 c 0.26,-0.072 4.836,-6.077 4.338,-7.689 0.701,-1.186 1.522,-3.303 1.214,-3.672 -0.147,-0.15 -3.563,1.084 -4.312,1.764 -0.868,0.75 -1.48,2.312 -1.74,3.212 -0.254,0.894 -1.568,1.633 -1.568,1.633 -1.068,0.768 -1.842,3.2 -2.205,5.19 -0.367,1.964 -5.208,3.053 -5.208,3.053 0,0 -1.343,0.501 -0.151,0.88 0.205,0.058 0.737,0.957 1.164,0.971 0.592,0.069 3.598,-1.218 4.063,-1.116 a 35.664,35.664 0 0 1 3.028,0.828 c 1.147,0.389 2.093,0.588 2.895,0.292 0.814,-0.293 1.976,-0.18 2.848,-0.01 0.858,0.185 1.818,0.107 2.371,-0.064 0.593,-0.18 2.152,-1.046 2.152,-1.046 0,0 1.686,-0.73 2.66,-1.187 0.976,-0.456 0.383,-0.656 0.383,-0.656"
     fill="#009b3a"
     stroke="#000000"
     stroke-width="0.754"
     id="path10" />
  <path
     d="m 516.43907,341.42904 c 0,0 -6.66501,-3.487 -7.02301,-3.57 -0.21,-0.029 -3.024,-1.58 -4.311,-1.98 -0.931,-0.301 -2.215,-0.38 -2.676,-0.35 -1.097,0.077 -2.889,0.561 -2.889,0.561 l 1.656,0.677 c 0,0 1.554,0.763 2.314,1.172 1.087,0.574 1.136,1.273 1.136,1.273 l 6.035,2.655 1.224,0.88 c 0,0 1.114,-1.537 4.534,-1.318"
     fill="#009b3a"
     stroke="#000000"
     stroke-width="0.602"
     id="path11" />
  <path
     d="m 523.14206,327.58704 c 2.096,-1.87 3.121,-4.528 4.846,-6 0.28,0.2 0.28,0.534 -0.062,1.123 -0.326,0.58 -0.76,0.78 -0.95,1.082 -0.352,0.472 -1.402,1.344 -1.686,1.868 -0.252,0.496 -0.578,1.19 -1.493,1.718 -0.91,0.544 -0.624,1.409 -0.7,1.772 -0.073,0.4 -1.475,1.404 -2.152,2.645 -0.129,1.294 -0.187,0.751 -0.972,1.211 1.428,-2.153 2.179,-3.54 3.169,-5.42 m -4.711,5.917 c -0.135,0.283 -4.269,2.63 -2.976,2.282 1.285,-0.338 5.105,-1.717 6.19,-2.2 1.327,-0.579 2.123,-1.795 3.12,-2.783 1.017,-1.01 4.163,-4.017 4.707,-5.176 0.532,-1.194 1.016,-2.854 -1.117,-6.582 0,0 -0.331,0.713 -1.126,1.41 -0.786,0.713 -1.958,1.502 -1.958,1.502 l -1.368,1.293 c 0,0 -4.831,8.875 -5.472,10.255"
     fill="#009b3a"
     stroke="#000000"
     stroke-width="0.794"
     id="path12" />
  <path
     d="m 535.22607,330.38004 c 0,0 -2.646,-0.237 -2.876,-0.237 -0.25,0 -1.7,-0.2 -3.808,-0.2 -2.088,0 -2.872,0.724 -3.42,1.307 -0.593,0.653 -2.24,2.16 -2.24,2.16 l 0.888,-0.078 c 2.116,-1.648 3.763,-1.044 4.42,-1.092 0.686,-0.024 1.511,0.044 3.63,-0.706 2.15,-0.754 2.024,-0.048 1.788,0.024 a 11.158,11.158 0 0 1 -3.192,0.644 c -1.596,0.088 -2.997,0.397 -3.624,0.397 -0.632,0 -5.29,1.275 -5.29,1.275 0,0 5.04,0.295 5.584,0.475 0.54,0.22 1.388,0.117 2.088,-0.219 1.931,-0.89 2.804,-1.06 3.597,-1.24 0.79899,-0.155 1.75,-0.695 1.75,-0.695 0,0 0.50999,-0.322 0.98,-1.176 0.485,-0.876 -0.276,-0.639 -0.276,-0.639 m 2.474,-13.81 c 0.318,-0.789 1.113,-2.642 1.956,-3.371 0.514,-0.448 1.4,-0.657 1.871,-0.856 0.2,-0.068 1.648,-0.138 -0.16,0.359 -0.75,0.2 -1.764,0.643 -2.214,1.398 -0.632,1.754 -1.184,3.283 -2.358,4.404 -0.862,0.905 -1.408,2.083 -1.408,2.083 l -0.924,0.32 c 1.694,-1.037 2.43,-2.961 3.237,-4.337 z m 8.193,-0.988 c -0.965,0.322 -1.304,0.588 -1.304,0.588 -2.16,0.648 -3.044,2.004 -3.99,3.108 -0.48,0.578 -1.156,1.01 -3.435,1.987 -2.082,0.895 -3.693,2.278 -3.732,2.278 0,0 -0.66,0.135 -0.534,0.456 0.049,0.152 0.612,0.03 0.612,0.03 0,0 4.29,-0.612 6.078,-1.7 1.142,-0.716 1.788,-1.237 2.87,-2.91 0.485,-0.739 1.029,-2.13 1.054,-1.235 0.084,2.373 -3.603,4.674 -5.208,5.384 -0.86,0.365 -2.005,0.516 -3.504,0.763 -1.481,0.273 -2.382,0.191 -2.274,-0.135 0.151,-0.472 0.324,-0.57 0.715,-1.036 0.706,-0.841 2.41,-1.139 3.665,-1.728 1.485,-0.665 2.892,-1.644 3.597,-2.48 0.72,-0.845 0.97,-1.157 1.166,-1.871 0.55,-1.869 0.578,-2.904 1.093,-3.571 1.812,-2.232 2.077,-2.952 2.166,-3.948 0.019,-0.23 -0.941,0.529 -1.44,0.806 -0.976,0.578 -1.338,0.578 -3.337,1.1 -2.03,0.506 -1.985,1.814 -2.3,2.432 -0.092,0.247 -0.915,1.274 -1.308,1.464 -0.392,0.199 -1.357,1.594 -1.714,2.412 -0.264,0.597 -0.736,1.026 -1.113,0.978 -0.396,-0.074 0.76,-4.397 1.014,-5.112 0.275,-0.71 0.329,-2.097 0.329,-2.564 0,-0.447 0.016,-1.624 -0.768,-1.756 -0.78,-0.132 -0.81601,-1.209 -0.81601,-1.209 -1.87599,1.625 -0.82799,4.488 -0.62599,6.185 0.201,1.682 -0.387,4.795 -0.387,4.795 1.812,0.774 0.387,2.976 -0.176,3.688 -0.593,0.723 -1.716,0.855 -2.22001,1.493 -0.534,0.656 -4.331,5.943 -4.331,5.943 l 4.723,-1.338 c 0,0 0.44,0.078 -0.265,-0.456 -0.715,-0.512 0.23,-2.496 0.838,-2.982 1.161,-0.91 2.73,-0.248 2.73,-0.248 0,0 2.19,0.336 4.875,-0.73 2.244,-0.885 3.209,-2.32 4.272,-3.4 0.579,-0.587 1.637,-2.539 2.304,-3.695 0.402,-0.668 1.122,-1.937 0.68,-1.786"
     fill="#009b3a"
     stroke="#000000"
     stroke-width="0.754"
     id="path13" />
  <path
     d="m 532.50007,328.27904 c 0.36,-0.146 0.414,-0.211 1.075,-0.932 0.65,-0.72 0.077,-1.936 -0.929,-1.887 -0.492,0.033 -1.015,-0.081 -1.982,1.22 -0.934,1.302 0.447,1.778 0.972,1.832 0.224,0.012 0.52,-0.086 0.864,-0.233"
     fill="#009b3a"
     stroke="#000000"
     stroke-width="0.84"
     id="path14" />
  <path
     d="m 530.05807,320.04704 c -0.626,1.047 -0.96,2.249 -0.468,2.62 0.11,0.061 0.546,0.444 0.914,0.444 0.362,0 1.39,-0.493 1.975,-1.397 0.587,-0.876 1.067,-1.838 -0.133,-2.436 -1.088,-0.539 -1.836,-0.035 -2.288,0.768"
     fill="#009b3a"
     stroke="#000000"
     stroke-width="0.858"
     id="path15" />
  <path
     d="m 533.63107,307.26404 c 0,0 0.099,-0.161 -0.313,-0.588 -0.65201,-0.668 -1.468,-1.857 -1.468,-1.857 -1.298,0.71 -1.73,2.145 -1.73,2.715 0,0.592 0.22,1.881 0.02,3.195 -0.07,0.447 -0.14201,0.958 -0.784,2.583 -0.657,1.604 0.093,3.078 0.24,3.598 0.112,0.516 0.648,2.12 0.648,2.12 0,0 0.508,-0.326 0.68,-0.364 0.2,-0.054 0.892,-0.024 0.892,-0.024 0,0 0.782,-1.414 0.81,-2.2 0.015,-0.58 -0.077,-1.562 -0.352,-3.07 -0.382,-2.194 -0.358,-2.82 -0.098,-4.047 0.26,-1.245 1.455,-2.063 1.455,-2.063"
     fill="#009b3a"
     stroke="#000000"
     stroke-width="0.754"
     id="path16" />
  <path
     d="m 535.56807,309.45404 c 0,0 0.737,-0.176 1.10799,-0.844 0.468,-0.806 0.34501,-1.662 0.34501,-1.662 -1.14201,-2.213 -2.67601,-0.427 -2.67601,-0.427 -1.374,2.81 1.222,2.934 1.222,2.934"
     fill="#009b3a"
     stroke="#000000"
     stroke-width="0.828"
     id="path17" />
  <path
     d="m 539.45507,305.39804 c -1.704,0.088 -2.542,3.15 -2.542,3.15 0,0 -0.276,0.757 -1.184,1.342 -0.966,0.597 -0.396,1.455 -0.396,2.98 0,1.524 -1.063,4.22 -1.063,4.22 l -0.396,0.914 c 0,0 0.037,0.686 0.658,-0.56 1.056,-2.096 2.214,-1.587 2.65,-3.843 0.276,-1.678 3.054,-2.212 3.054,-2.212 l -0.781,-0.146 c -2.887,-1.353 0.167,-4.727 0.66,-5.325 0.524,-0.596 1.023,-0.596 -0.66,-0.52"
     fill="#009b3a"
     stroke="#000000"
     stroke-width="0.984"
     id="path18" />
  <path
     d="m 538.96906,309.03004 c -0.77999,1.673 1.44001,1.754 1.952,1.462 0.207,-0.12 0.67601,-0.677 0.67601,-0.677 0.9,-1.294 0.077,-2.17 -0.393,-2.295 -0.452,-0.15 -1.41701,-0.265 -2.23501,1.51"
     fill="#009b3a"
     stroke="#000000"
     stroke-width="0.838"
     id="path19" />
  <path
     d="m 534.75207,302.53804 c 0.58299,1.085 2.21,4.104 2.59199,3.916 0.24,-0.117 0.05,-0.735 0.05,-0.735 0,0 -0.049,-0.817 -0.314,-1.805 -0.26,-0.996 -0.197,-2.271 -0.716,-3.088 -0.504,-0.816 -1.714,-1.785 -2.19,-3.074 -0.47,-1.293 -0.101,-3.74 -0.062,-4.041 0.048,-0.282 0.191,-0.097 -0.06,-0.389 -0.254,-0.317 -2.30999,-1.411 -2.30999,-1.411 0,0 0.12,0.798 0.07,2.243 -0.02,0.35 -0.118,0.758 -0.172,1.366 -0.048,0.579 0.29999,1.308 1.143,2.972 0.979,1.926 1.45,3.108 1.969,4.046 m 12.336,-14.363 c 0,0 -0.593,0.988 -0.804,1.206 -0.22,0.22 -3.571,3.099 -3.762,3.22 -0.162,0.127 -1.912,0.686 -3.504,4.99 -1.597,4.29 -0.906,8.302 -0.906,8.302 l 0.774,-0.096 0.132,-0.42 c 0,0 0.26,-1.424 0.46,-2.504 0.222,-1.065 1.416,-2.554 2.209,-3.653 0.756,-1.075 1.365,-2.62 1.365,-2.62 0.898,-1.81 1.33,-3.428 2.22,-4.69 0.035,1.503 -5.677,10.742 -6.289,13.886 l 1.692,-0.258 c 1.351,-1.235 3.12,-3.828 4.317,-5.5 1.204,-1.678 1.716,-4.3 1.935,-5.462 0.21,-1.148 0.162,-6.4 0.162,-6.4"
     fill="#009b3a"
     stroke="#000000"
     stroke-width="0.754"
     id="path20" />
  <path
     d="m 535.70006,289.12604 c -0.863,-0.798 -1.534,-1.037 -1.534,-1.037 0,0 0.20601,1.566 0.20601,2.52 0,0.957 0.084,2.563 0.034,3.42 -0.034,0.854 -0.46,2.27 0.14701,3.656 0.623,1.367 1.323,2.063 1.818,2.923 0.451,0.842 1.277,5.217 1.277,5.217 0,0 -0.302,-5.916 -0.042,-7.59 0.24,-1.644 0.319,-4.207 -0.048,-5.491 -0.383,-1.29 -1.016,-2.801 -1.858,-3.618 m 3.943,-5.776 c 0.26,-0.506 0.868,-1.552 1.122,-3.143 0.093,-0.675 0.15599,-1.77 0.13199,-2.528 -0.019,-0.507 -0.22,-1.386 0,-1.445 0.19601,-0.048 0.033,0.274 0.144,1.024 0.054,0.267 -0.13,1.008 -0.16399,1.956 -0.045,0.758 -0.075,1.392 -0.41301,2.418 -0.29399,0.904 -0.028,1.908 -0.20899,2.19 -0.19501,0.286 -0.715,1.371 -0.715,1.371 0,0 -0.318,0.876 -0.264,1.673 0.029,0.816 0.078,1.698 0.078,1.698 0,0 0.377,-0.7 1.22001,-0.817 0,0 0.191,-1.368 0.191,-1.795 0,-0.429 0.549,-3.23 0.828,-4.086 0.38199,-1.254 0.652,-3.438 0.045,-5.973 -0.168,-0.685 -0.28999,-2.83 -0.28999,-2.83 0,0 -0.808,0.647 -1.28801,3.093 -0.148,0.744 0.16601,2.738 0.043,4.864 -0.048,1.172 -1.173,5.923 -1.32501,6.22"
     fill="#009b3a"
     stroke="#000000"
     stroke-width="0.754"
     id="path21" />
  <path
     d="m 539.64307,283.35004 c -0.04,0.072 -0.054,0.102 -0.054,0.102 0,0 0.034,-0.03 0.054,-0.102"
     fill="#009b3a"
     stroke="#000000"
     stroke-width="0.754"
     id="path22" />
  <path
     d="m 536.45707,271.01904 c 0.432,0 0.432,0.467 0.343,0.836 -0.068,0.38 -0.058,1.085 -0.058,1.23 0,0.166 0.17999,1.173 0.32399,1.698 0.156,0.54 0.42601,0.71 0.308,1.794 -0.08,0.682 -0.78,1.483 -0.534,2.641 0.132,0.609 0.568,1.246 0.784,1.77 0.18,0.365 0.082,1.257 0.132,1.986 0.019,0.71 0.411,1.19 0.411,1.19 0,0 -0.485,0.906 -0.647,-0.227 -0.176,-1.3 -0.235,-1.878 -0.484,-2.466 -0.407,-0.964 -0.78,-2.697 -0.148,-4.033 0.108,-0.258 0.192,-0.738 0.192,-1.308 0,-0.579 -0.356,-1.568 -0.425,-2.18 -0.06,-0.487 -0.02,-1.513 -0.02,-1.884 m -2.265,5.44 c 0.102,0.734 0.338,1.152 1.166,2.748 0.255,0.526 0.834,1.868 0.921,2.296 0.103,0.428 0.192,0.944 0.192,1.075 0,0.141 0.093,1.148 0.093,1.148 v 0.418 c 0,0 -2.294,-1.337 -3.298,-2.052 -1,-0.72 -2.136,-1.708 -2.862,-2.305 -0.823,-0.677 -2.784,-3.002 -2.808,-4.864 l -0.901,-0.817 c 0,0 -0.687,4.139 2.55701,6.818 0.936,0.768 1.956,1.615 4.13599,2.602 2.18601,1.008 1.899,1.909 2.81,3.845 0.897,1.945 1.459,3.064 1.572,3.614 0.078,0.588 -0.249,8.857 -0.249,8.857 l 0.078,0.75 c 0,0 1.998,-7.66 2.958,-8.515 0,0 -1.905,-0.293 -1.754,-3.288 l -0.334,-1.975 c 0,0 -0.381,-2.374 0.334,-3.847 0,0 0.848,-2.7 0.559,-5.034 -0.181,-1.396 -0.246,-1.814 -0.416,-3.152 -0.26,-2.082 -1.094,-5.058 -1.187,-5.418 -0.285,-1.045 -0.382,-1.206 -0.715,-2.032 -0.099,-0.292 -0.285,-1.256 -0.593,-1.27 -0.177,-0.01 -0.447,1.24 -0.447,1.24 0,0 -0.4,1.362 -0.484,1.731 -0.26,1.1 -0.868,2.023 -1.146,4.494 -0.05,0.448 -0.099,1.654 -0.153,1.815 -0.029,0.136 -0.087,0.846 -0.029,1.118"
     fill="#009b3a"
     stroke="#000000"
     stroke-width="0.754"
     id="path23" />
  <path
     d="m 536.07307,287.95704 c 0,0 -0.333,-0.74 -0.672,-1.119 -0.68,-0.802 -1.596,-1.483 -4.203,-2.757 -2.597,-1.294 -3.284,-3.42 -4.607,-4.295 -0.607,-0.419 -1.783,-0.618 -1.783,-0.618 0,0 1.15599,1.591 1.42999,2.14 0.353,0.7 0.43701,1.177 1.867,2.51 1.42101,1.338 3.156,1.805 4.273,2.136 1.578,0.49 3.69501,2.004 3.69501,2.004 m -8.185,-12.292 c 0.07,0.21 0.74,2.496 2.146,4.272 2.15,2.718 6.291,4.66 6.291,4.66 -0.387,-1.692 -1.062,-3.648 -1.596,-4.514 -1.883,-3.04 -6.855,-4.53 -6.855,-4.53 0,0 -0.088,-0.116 0.014,0.112 m 5.936,1.282 c 1.114,-2.44 -2.212,-4.77 -3.15,-6.47 0.347,-0.276 0.759,0.448 1.14,0.93 0.545,0.724 2.079,2.82 2.079,2.82 l 0.475,-2.232 -3.961,-3.604 c -0.048,0.524 -1.272,0.955 -1.272,0.955 -0.593,3.336 4.69,7.6 4.69,7.6"
     fill="#009b3a"
     stroke="#000000"
     stroke-width="0.754"
     id="path24" />
  <path
     d="m 526.92707,271.29404 c -0.955,0.428 -1.294,0.428 -1.294,0.428 l 0.533,1.414 0.31,0.384 c 0,0 1.244,1.8 1.969,2.024 0.303,0.112 1.436,0.31 2.573,0.797 1.43,0.608 3.765,2.65 3.765,2.65 0,0 -3.884,-4.38 -5.373,-7.664 l -0.502,-1.892 -1.408,0.093 c 0,0 0.38699,1.329 -0.573,1.767"
     fill="#009b3a"
     stroke="#000000"
     stroke-width="0.754"
     id="path25" />
  <path
     d="m 512.39107,268.49304 a 13.879,13.879 0 0 0 2.11199,1.566 c 0.857,0.516 3.327,1.969 5.175,2.32 0.432,0.068 2.752,0.36 2.752,0.36 0.093,-1.017 1.196,-1.105 1.196,-1.105 l -3.287,-0.36 c -2.651,-0.196 -4.668,-1.304 -6.238,-3.078 2.106,1.277 5.134,3.288 7.588,3.18 10.075,-0.99 -3.036,-1.24 -4.173,-1.969 -1.206,-0.744 -2.234,-1.98 -2.234,-1.98 l -2.954,-0.132 c 0,0 -1.452,-0.091 0.063,1.198"
     fill="#009b3a"
     stroke="#000000"
     stroke-width="0.754"
     id="path26" />
  <path
     d="m 524.25307,274.23004 c 0.652,-0.048 1.108,-0.17 1.255,-0.884 0.132,-0.798 -0.171,-1.377 -1.132,-1.587 -0.534,-0.132 -1.47,-0.16 -1.852,0.789 -0.416,0.972 1.097,1.596 1.097,1.596 0,0 0.289,0.126 0.632,0.086 m 1.13,-5.776 c -0.853,0 -1.142,0.696 -0.96,2.052 0.225,1.368 2.317,0.77 2.317,0.77 l 0.387,-0.2 c 0,0 0.28499,-0.22 0.12699,-1.308 -0.147,-1.114 -1.014,-1.314 -1.872,-1.314 m 3.42601,0.96 h -0.033 c -0.016,0.01 0.033,0 0.033,0"
     fill="#009b3a"
     stroke="#000000"
     stroke-width="0.754"
     id="path27" />
  <path
     d="m 528.77607,269.41404 c 0.024,-0.01 0.083,-0.04 0.30399,-0.102 0.435,-0.165 0.876,-1.212 0.876,-1.212 0.22,-1.414 -0.792,-1.764 -0.792,-1.764 -1.707,-0.34 -1.751,1.157 -1.751,1.157 -0.47,1.95 1.112,1.931 1.362,1.92 m -7.595,-6.697 c 0.095,0.648 1.015,1.586 1.158,1.747 0.166,0.145 1.343,1.372 1.74,1.92 0.396,0.551 1.716,3.043 1.716,3.043 0,0 0.23,-0.038 0.328,-0.228 0.23,-0.388 -0.884,-3.408 -0.996,-3.616 -0.408,-0.917 -1.074,-1.601 -1.745,-2.316 -0.156,-0.101 -0.706,-0.807 -1.308,-1.565 1.193,1.526 4.25,5.865 5.151,7.794 0,0 -0.109,-2.056 -0.222,-3.16 -0.381,-3.22 -1.22,-4.217 -1.489,-4.683 -0.475,-0.87 -1.68,-1.716 -2.544,-2.014 -0.861,-0.312 -1.881,-0.74 -2.973,-1.09 -1.128,-0.344 -0.26,0.672 0.156,1.548 0.52,1.036 0.936,1.965 1.03,2.621"
     fill="#009b3a"
     stroke="#000000"
     stroke-width="0.754"
     id="path28" />
  <path
     d="m 516.97507,268.01304 c 1.113,0.943 1.612,1.6 3.92,1.94 2.327,0.365 2.523,0.21 2.523,0.21 0,0 1.207,-0.583 0.594,-1.094 -3.42,-1.504 -6.658,-3.294 -8.302,-5.307 0,0 0.285,-0.277 1.47,0.91 0.687,0.696 1.148,1.045 1.569,1.372 1.244,0.87 1.783,1.118 3.024,1.794 0.66,0.36 2.312,0.748 2.312,0.748 0,0 0.235,-0.5 0.445,-0.559 0.202,-0.048 -0.127,-0.833 -1.563,-1.995 a 11.453,11.453 0 0 1 -2.097,-2.277 c 0,0 -1.7,-0.372 -3.542,-0.679 -1.373,-0.218 -3.955,-2.222 -3.91,-1.678 0.047,0.56 0.387,2.296 1.083,3.4 0.7,1.109 1.367,2.243 2.474,3.216"
     fill="#009b3a"
     stroke="#000000"
     stroke-width="0.754"
     id="path29" />
  <path
     d="m 497.75006,337.59804 c -1.008,0.297 -8.572,3.137 -8.572,3.137 l -2.11199,0.846 c 2.916,-0.656 5.15,0.813 5.15,0.813 l 8.42499,-3.9 c 0,0 -0.024,-0.128 -0.234,-0.279 -0.221,-0.15 -1.637,-0.924 -2.657,-0.617"
     fill="#009b3a"
     stroke="#000000"
     stroke-width="0.602"
     id="path30" />
  <path
     d="m 486.74706,341.83704 c -0.056,0.048 -0.113,0.248 0.034,0.312 0.42,0.233 0.307,0.325 2.216,0.554 1.925,0.209 3.18,-0.156 3.509,-0.52 0.386,-0.423 -4.769,-1.211 -5.76,-0.346"
     fill="#009b3a"
     stroke="#000000"
     stroke-width="0.644"
     id="path31" />
  <path
     d="m 474.64406,314.62804 -0.35,-2.364 c 0,0 -0.44,-6.392 -1.166,-7.674 -0.139,-0.284 -0.076,-0.948 -0.537,-0.959 -0.882,-0.066 -0.882,2.013 -0.989,3.897 -1.434,9.5 6.143,16.754 6.143,16.754 z"
     fill="#009b3a"
     stroke="#000000"
     stroke-width="0.836"
     id="path32" />
  <path
     d="m 512.14007,342.77604 c 0,0 -0.795,-0.177 -0.29201,-0.798 0.482,-0.59 1.915,-0.906 2.20201,-0.906 0.282,-0.012 1.086,0.058 1.68399,0.225 0.60401,0.149 1.438,0.681 1.194,1.067 -0.255,0.367 -1.071,0.825 -2.187,0.825 -0.957,0 -1.447,-0.024 -1.869,-0.144 -0.408,-0.155 -0.733,-0.269 -0.733,-0.269"
     fill="#009b3a"
     stroke="#000000"
     stroke-width="0.77"
     id="path33" />
  <path
     d="m 503.92506,338.25604 c 0,0 -2.601,-1.196 -5.066,-2.402 -3.25,-1.587 -7.155,-3.79 -9.874,-7.832 -3.405,-5.004 -6.366,-7.684 -7.081,-8.223 -0.736,-0.54 -0.842,-0.74 -1.112,-0.36 -0.245,0.33 -0.074,0.617 0.132,0.967 0.7,1.139 2.421,3.278 3.038,4.427 1.063,2.052 3.264,4.293 3.244,5.622 0,0.185 -0.642,-0.132 -0.642,-0.132 0,0 -5.15,-1.764 -7.236,-8.004 -1.52,-4.524 -0.874,-5.853 -1.227,-8.113 -0.602,-4.018 -0.725,-4.344 -2.714,-8.848 -0.054,-0.112 -1.216,-1.994 -1.372,-1.576 -0.216,0.54 0.196,2.554 0.196,2.554 l 0.211,2.32 c 0,0 -0.168,5.15 -0.168,5.462 0,0.312 -1.297,3.526 4.214,8.93 0,0 0.084,0.918 -0.65599,0.11 -0.524,-0.578 -4.46901,-3.608 -5.669,-8.592 -1.236,-4.986 -1.41601,-9.976 -0.48,-12.048 0.84699,-1.872 2.548,-6.45 1.82299,-10.448 -0.084,-0.417 -0.202,-1.644 -0.466,-1.322 -0.11199,0.156 -0.60799,2.18 -0.907,2.88 -0.416,0.958 -1.063,1.9 -1.263,2.562 -0.388,1.123 -2.289,2.86 -1.917,6.055 0.421,3.672 0.661,4.246 1.103,5.555 0.151,0.476 0.52,1.692 0.28,1.814 -0.221,0.117 -1,-1.454 -1,-1.454 0,0 -3.49,-6.858 -1.338,-12.422 2.176,-5.54 7.634,-10.793 7.634,-10.793 0,0 4.434,-3.677 5.337,-4.533 0.353,-0.33 0.269,-0.578 0.151,-0.54 -1.102,0.278 -9.634,2.043 -12.632,12.208 0,0 -0.156,0.428 -0.377,0.322 -0.275,-0.123 0,-0.6 0,-0.6 0,0 1.877,-7.206 7.143,-10.475 5.748,-3.585 5.073,-3.06 6.974,-4.188 1.196,-0.744 2.278,-1.74 3.616,-3.954 0.137,-0.247 0.68,-1.536 0.608,-1.756 -0.06,-0.218 -0.318,0.083 -0.44,0.448 0,0 -1.628,2.514 -4.064,3.36 -2.444,0.847 -4.43,-0.36 -6.884,2.354 -2.46,2.729 -4.415,6.508 -4.415,6.508 0,0 -0.642,0.978 -0.784,0.948 -0.27,-0.082 0.132,-1.04 0.132,-1.04 0,0 3.283,-6.965 5.92,-8.38 2.64,-1.426 4.992,-2.793 6.492,-3.95 1.824,-1.43 4.964,-4.931 6.096,-6.137 0.24,-0.258 1.926,-1.966 2.298,-2.52 0.225,-0.302 0.76,-0.74 0.672,-0.816 -0.24,-0.18 -1.839,0.588 -1.839,0.588 0,0 -8.695,2.396 -14.104,10.567 -0.25,0.379 -0.845,1.15 -1.164,1.476 -0.578,0.599 -0.867,1.597 -0.867,1.597 -0.353,-0.292 3.058,-4.555 3.058,-4.555 l 0.597,-2.758 c 0,0 1.01,-4.143 3.132,-7.068 0.21,-0.266 1.464,-1.531 1.676,-1.794 0.42,-0.456 -0.8,0.4 -0.584,0.209 0,0 -8.11,5.822 -8.11,13.157 0,1.317 -0.818,2.52 -1.95,4.158 -1.323,1.902 -1.764,3.07 -2.337,5.9 a 231.492,231.492 0 0 1 -0.745,3.564 c 0,0 0.078,1.047 -0.26,0.969 -0.353,-0.078 -0.23,-0.944 -0.23,-0.944 0,0 0.828,-5.467 1.416,-7.15 0.573,-1.634 0.95,-2.747 0.95,-2.747 0,0 -0.338,-4.11 0.574,-6.363 0.774,-1.964 2.734,-4.551 3.038,-5.198 0.132,-0.282 1.039,-2.125 1.293,-4.226 0.035,-0.282 -0.186,-0.048 -0.553,0.772 -0.892,2.01 -1.637,2.535 -3.102,4.426 0,0 -3.758,2.724 -5.12,10.826 0,0 -0.045,3.02 -0.504,7.754 -0.334,3.468 -0.05,6.716 0.342,8.672 0.25,1.196 0.726,1.206 0.432,1.351 -0.183,0.093 0.116,0.016 -0.31,-0.888 -0.52,-1.085 -0.918,-2.754 -0.918,-5.06 0,-4.227 0.367,-7.62 0.367,-7.62 0,0 0.276,-6.83 -2.556,-9.909 -0.137,-0.16 0.496,1.382 0.78,2.919 0.348,1.907 -0.284,4.553 -0.47,5.583 -0.181,1.036 -2.069,5.55 -1.402,9.786 0,0 1.596,7.184 3.655,10.666 0,0 1.28,1.5 0.148,0.094 -1.122,-1.406 -3.426,-6.996 -3.626,-7.472 -0.177,-0.457 -1.828,-3.936 -3.382,-5.35 -0.804,-0.75 -3.013,-2.076 -3.013,-2.076 0,0 -1.2,-0.915 -0.29,0.3 0.72,0.96 1.687,2.68 2.146,3.43 a 40.243,40.243 0 0 1 2.549,4.823 c 0.74,1.626 2.46,6.407 2.46,6.407 l 1.1,3.032 c 0,0 1.845,1.024 2.85,2.142 0.822,0.905 2.528,2.982 3.944,6.678 0.637,1.635 1.908,3.132 1.908,3.132 0,0 -0.27,0.519 -1.402,-1.44 -1.116,-1.986 -2.21,-5.71 -4.9,-8.607 -2.044,-2.224 -7.543,-4.465 -7.543,-4.465 0,0 3.533,6.157 4.41,7.256 1.485,1.76 3.631,4.231 4.185,4.884 0.573,0.666 3.896,4.77 4.386,5.428 0.774,1.026 1.284,1.478 1.69,1.896 0.876,0.933 3.473,2.636 3.675,2.904 0.038,0.272 0.09,0.048 -0.13,-0.113 -1.152,-0.687 -2.527,-1.771 -3.948,-2.695 -1.416,-0.939 -6.884,-3.273 -10.568,-8.35 -0.873,-1.502 -1.289,-2.1 -1.583,-1.945 -0.451,0.239 2.48,9.936 8.507,13.02 0,0 6.649,2.957 8.124,3.847 0.809,0.486 2.44,1.206 3.195,1.814 0.431,0.356 -0.392,0.336 -0.446,0.326 -3.533,-0.276 -8.604,-0.744 -11.717,-2.55 0,0 -1.337,-0.938 -0.24,0.381 0.873,1.02 2.529,3.535 5.724,4.951 3.2,1.404 7.85,2.223 9.551,2.31 1.67,0.093 7.62801,0.122 8.77,0.492 1.117,0.378 3.019,1.596 4.107,1.947 0.989,0.32 3.973,1.464 3.973,1.464 0,0 0.898,0.492 1.378,0.666 0.539,0.215 2.774,0.195 2.932,-0.223 0.15,-0.375 -0.639,-0.946 -0.639,-0.946"
     fill="#009b3a"
     stroke="#000000"
     stroke-width="0.602"
     id="path34" />
  <path
     d="m 542.56307,287.75904 c 0.67499,0.247 0.974,2.251 0.974,2.251 0,0 -0.059,-1.147 -0.059,-1.712 0,-0.57 -0.278,-2.704 -0.278,-2.704 l -0.599,0.428 c -0.715,0.57 -1.112,1.576 -1.112,1.576 0,0 0.411,-0.068 1.074,0.16"
     fill="#009b3a"
     stroke="#000000"
     stroke-width="0.754"
     id="path35" />
</svg>
