<?xml version="1.0" encoding="UTF-8" standalone="no"?>
<svg
   width="1500"
   height="900"
   version="1.1"
   id="svg114"
   xmlns:xlink="http://www.w3.org/1999/xlink"
   xmlns="http://www.w3.org/2000/svg"
   xmlns:svg="http://www.w3.org/2000/svg">
  <defs
     id="defs114" />
  <style
     id="style1">.base{stroke:#21231e;stroke-width:1;stroke-linecap:round}.white{fill:#fff;stroke-linejoin:round}.blue,.gold,.white{stroke:#21231e;stroke-width:1}.gold{fill:#edb92e;stroke-linejoin:round}.blue{fill:#0c4076}.red{fill:#c6363c;stroke-width:2.5}</style>
  <path
     fill="#ffffff"
     d="M 0,0 H 1500 V 900 H 0 Z"
     id="path1"
     style="stroke-width:1.05409" />
  <path
     fill="#0c4076"
     d="M 0,0 H 1500 V 600 H 0 Z"
     id="path2"
     style="stroke-width:1.05409" />
  <path
     fill="#c6363c"
     d="M 0,0 H 1500 V 300 H 0 Z"
     id="path3"
     style="stroke-width:1.05409" />
  <g
     transform="translate(523.49726)"
     id="g114">
    <circle
       cy="122"
       r="17"
       class="blue"
       id="circle3"
       cx="0" />
    <g
       class="gold"
       id="g9">
      <path
         d="m 3,85 a 3,3 0 0 0 0,-6 3,3 0 0 0 -6,0 3,3 0 0 0 0,6 v 6.5 h -5.5 a 3,3 0 0 0 -6,0 3,3 0 0 0 0,6 3,3 0 0 0 6,0 H -3 V 119 H 3 V 97.5 h 5.5 a 3,3 0 0 0 6,0 3,3 0 0 0 0,-6 3,3 0 0 0 -6,0 H 3 Z"
         id="path4" />
      <path
         d="m 3,105.2 a 17,17 0 0 0 -6,0 v 17 h 6 z"
         id="path5" />
      <path
         d="m 16.8,119 a 17,17 0 0 1 0,6 Q 0,124.2 -16.8,125 a 17,17 0 0 1 0,-6 Q 0,118.2 16.8,119 Z M 101,264 q 6,-12 11,-18 -17,13 -18,-6 -16,22 -27,-4 -19,27 -31,-2 -20,25 -36,-2 -16,27 -36,2 -12,29 -31,2 -11,26 -27,4 -1,19 -18,6 5,6 11,18 z"
         id="path6" />
      <path
         d="m -101,264.7 6,31 H 95 l 6,-31 -101,-5 z"
         id="path7" />
      <path
         d="m 111,235.7 c -7,18 -13,18 -14,2 1,-1 0.8,-3.8 2.6,-2.6 0.9,0.6 2.3,-1.2 1.4,-2 -1.8,-1.6 -4,-1.4 -6,0.6 -0.5,-3 -2.5,-4 -5,-3 -1,0.4 -1,2.5 0,2.4 2,-0.2 1.5,1.6 2,2.6 q -20,25 -17,-7 l -10,-2 q -17,34 -26,3 c 1,-1 1,-3.4 3,-2.6 1,0.4 2,-1.4 0.8,-2.4 -2.4,-2 -4.8,-1 -6.8,1 -1,-3 -3.9,-3.8 -6.6,-2 -1.2,0.8 -0.4,2.9 0.8,2.6 2.4,-0.6 1.3,2.4 2.8,3.4 -5,20 -31,21 -26.5,-8 h -13 c 4.5,29 -21.5,28 -26.5,8 1.5,-1 0.4,-4 2.8,-3.4 1.2,0.3 2,-1.8 0.8,-2.6 -2.7,-1.8 -5.6,-1 -6.6,2 -2,-2 -4.4,-3 -6.8,-1 -1.2,1 -0.2,2.8 0.8,2.4 2,-0.8 2,1.6 3,2.6 q -9,31 -26,-3 l -10,2 q 3,32 -17,7 c 0.5,-1 0,-2.8 2,-2.6 1,0.1 1,-2 0,-2.4 -2.5,-1 -4.5,0 -5,3 -2,-2 -4.2,-2.2 -6,-0.6 -0.9,0.8 0.5,2.6 1.4,2 1.8,-1.2 1.6,1.6 2.6,2.6 -1,16 -7,16 -14,-2 l -4,1 c 0,4 1.5,9 4,12 10,12 18,10 18.5,-5 13.5,16 24.5,14 26.5,-3 11,22 30,11 30.5,-2 5.5,19 33.5,19 35.5,-3 2,22 30,22 35.5,3 0.5,13 19.5,24 30.5,2 2,17 13,19 26.5,3 0.5,15 8.5,17 18.5,5 2.5,-3 4,-8 4,-12 z"
         id="path8" />
      <path
         d="m -101,267.5 c -5,0.5 -5,-4.5 0,-5 q 101,-10.1 202,0 c 5,0.5 5,5.5 0,5 q -101,-10.1 -202,0 z m 91,-68 -7,-9 q 3,-29 0,-53 -2,-7 4,-4 13,6.5 26,0 6,-3 4,4 -3,24 0,53 l -7,9 z"
         id="path9" />
    </g>
    <path
       fill="#edb92e"
       d="M 23,276 0,287.5 -23,276 0,264.5 Z"
       class="base"
       id="path10" />
    <g
       id="a">
      <g
         class="gold"
         id="g12">
        <path
           d="m 99.7,159 27.6,13 3,12 -10.9,17 1,14 h 8.9 l 14.8,-40 -18.8,-16 -43.4,-15 17.8,15"
           id="path11" />
        <path
           d="m 121.3,213.6 a 34,34 0 0 0 1.229,-4.72 c 0.536,-2.709 0.306,-5.516 -0.584,-8.15 2.936,-4.21 6.23,-8.784 8.607,-13.329 1.697,-3.245 3,-6.857 2.01,-10.558 -1.065,-3.947 -4.435,-6.636 -7.48,-9.011 -3.647,-2.846 -8.51,-5.338 -13.433,-7.466 -11.025,-4.634 -19.79,-6.902 -26.213,-7.108 l 4.077,3.835 c 11.952,3.917 26.058,9.084 32.844,14.38 8.78,6.85 8.563,8.47 -4.175,26.752 -0.397,0.57 -1.315,2.026 -1,2.688 0.612,1.309 1.739,7.341 -0.134,11.483 1.1,2.101 2.694,1 4.258,1.204 z M 37.9,202.15 c -3.416,-0.232 -2.57,5.894 -1.897,7.26 0.88,1.781 1.698,1.838 2.808,0.19 0.85,-1.262 2.504,-7.218 -0.911,-7.45 z m 64.5,8.65 c -3.262,-1.046 -3.891,5.107 -3.56,6.594 0.434,1.942 1.215,2.193 2.683,0.86 1.124,-1.02 4.14,-6.408 0.877,-7.454 z"
           id="path12" />
      </g>
      <g
         class="white"
         id="g24">
        <circle
           cx="87"
           cy="145"
           r="6.4000001"
           id="circle12" />
        <circle
           cx="99"
           cy="149"
           r="6.4000001"
           id="circle13" />
        <circle
           cx="111"
           cy="153"
           r="6.4000001"
           id="circle14" />
        <circle
           cx="123"
           cy="158.5"
           r="6.4000001"
           id="circle15" />
        <circle
           cx="134"
           cy="165"
           r="6.4000001"
           id="circle16" />
        <circle
           cx="129"
           cy="210"
           r="6.4000001"
           id="circle17" />
        <circle
           cx="135"
           cy="199"
           r="6.4000001"
           id="circle18" />
        <circle
           cx="140"
           cy="188"
           r="6.4000001"
           id="circle19" />
        <circle
           cx="142"
           cy="175"
           r="6.4000001"
           id="circle20" />
        <circle
           cx="24"
           cy="284"
           r="3.2"
           id="circle21" />
        <circle
           cx="73"
           cy="287"
           r="3.2"
           id="circle22" />
        <circle
           cx="75"
           cy="272"
           r="3.2"
           id="circle23" />
        <circle
           cx="25"
           cy="269"
           r="3.2"
           id="circle24" />
        <path
           d="m 39.8,223 c 2,-3 5.8,-17 -2.2,-17.5 -8,-0.5 -6,14 -4.5,17 2,4 4.1,4.4 6.7,0.5 z m 53.3,6.5 c 1,4.5 2.7,5.1 6.3,1.9 2.7,-2.4 9.7,-14.9 2,-17.4 -7.7,-2.5 -9.1,11.9 -8.3,15.5 z"
           id="path24" />
      </g>
      <g
         class="gold"
         id="g26">
        <path
           d="m 16,140 35,1 22,7 6,14 -16,31 7,20 21,-18 10,-37 -27,-23 -57,-4 z"
           id="path25" />
        <path
           d="m 17.8,137.8 c 17.233,-1.568 34.854,0.195 52.298,7.171 14.703,5.881 13.262,23.054 -4.666,46.89 1.622,3.02 2.545,6.775 2.69,11.11 -1.896,-0.105 -3.226,-0.056 -4.9,-0.098 1.3,-2.888 -0.155,-6.425 -1.796,-8.916 -1.07,-1.628 -1.29,-1.341 0,-3.155 10.672,-15 17.744,-28.125 13.584,-36.055 C 69.955,145.11 50.354,140.09 17.295,140.825 q 0.091,-1.32 0.181,-2.663 0.157,-0.179 0.324,-0.362 z m 70,6.2 q -0.908,1.228 -1.838,2.456 c 9.7,5.361 13.717,11.016 12.77,16.702 -0.161,0.976 -3.111,11.382 -9.7,31.549 q -6.755,4.7 -10.07,8.412 c 0.248,0.282 -0.71,1.16 -0.424,1.4 -0.673,3.08 2.775,2.454 5.1,1.694 1.115,-2.961 4.516,-6.103 6.47,-7.446 0.398,-0.273 1.837,-0.98 1.98,-1.44 3.526,-11.349 7.068,-21.843 10.106,-31.615 3.052,-9.82 -3.56,-16.78 -14.384,-21.712 z"
           id="path26" />
      </g>
      <g
         class="white"
         id="g36">
        <circle
           cx="22"
           cy="130"
           r="6.4000001"
           id="circle26" />
        <circle
           cx="34.5"
           cy="130"
           r="6.4000001"
           id="circle27" />
        <circle
           cx="47"
           cy="131.5"
           r="6.4000001"
           id="circle28" />
        <circle
           cx="59"
           cy="134"
           r="6.4000001"
           id="circle29" />
        <circle
           cx="71"
           cy="138"
           r="6.4000001"
           id="circle30" />
        <circle
           cx="82"
           cy="143"
           r="6.4000001"
           id="circle31" />
        <circle
           cx="89"
           cy="151"
           r="6.4000001"
           id="circle32" />
        <circle
           cx="76"
           cy="197"
           r="6.4000001"
           id="circle33" />
        <circle
           cx="81"
           cy="186"
           r="6.4000001"
           id="circle34" />
        <circle
           cx="86"
           cy="175"
           r="6.4000001"
           id="circle35" />
        <circle
           cx="90"
           cy="163"
           r="6.4000001"
           id="circle36" />
      </g>
      <g
         class="gold"
         id="g45">
        <path
           d="m 124,217 0.363,1.98 q 4.181,0.99 7.15,0.494 c -3.311,-3.299 -5.777,-4 -7.513,-2.474 z"
           id="path36" />
        <path
           d="m 125,212.3 c -1.77,0.434 -1.934,0.735 -2.706,0.87 -1,0.172 -2.359,0.102 -3.3,-0.729 -3.838,-2.319 -3.92,1.858 -2.43,4.986 1.082,2.266 2.079,5.171 1.047,7.111 -1.22,2.291 -0.96,3.34 -0.097,3.96 0.597,0.393 1.166,0.762 1.677,1.09 1.033,1.23 1.819,1.017 1.965,-0.59 3.831,-1.59 3.549,-5.637 4.696,-8.896 1.677,-4.766 7.77,-5.893 -0.853,-7.802 z"
           id="path37" />
        <path
           d="m 123,212.5 c -3.336,1.198 -3.709,-0.666 -5.96,-0.571 0.887,5.141 1.784,7.801 7.11,5.042 2.939,-1.523 6.701,0.706 7.416,2.36 0.261,0.604 1.97,-0.65 2.595,-2.025 2.616,-5.757 -6.688,-6.412 -11.161,-4.806 z m -11.8,24.9 c -2.417,-0.743 -6.195,4.636 -7.094,4.544 -1.189,-3.077 1.237,-10.433 5.533,-16.257 2.918,-0.959 3.18,-2.848 3.783,-7.23 0.18,-1.312 2.68,-0.408 2.725,1.823 0.05,2.39 0.234,3.714 -0.298,5.755 -0.208,0.805 -0.093,1.576 0.8,2.31 -4.551,1.815 -5.669,4.04 -5.449,9.055 z"
           id="path38" />
        <path
           d="m 113.4,218.5 c 0.417,1 0.543,1.835 0.643,3.367 0.077,1.168 -0.35,2.261 -1.092,3.23 -0.745,0.972 -1.81,1.829 -3,2.524 -0.741,0.432 -1.592,1.625 -2.265,2.981 -0.67,1.35 -1.16,2.872 -1.188,3.955 -0.096,3.58 -0.79,6.708 -2.417,7.325 -1.065,0.404 -1.491,0.341 -2.316,0.149 0.233,-0.643 0.144,-1.549 0.718,-2.446 0.74,-1.157 1.388,-2.486 1.446,-3.649 0.051,-0.904 0.475,-1.508 0.125,-3.29 -0.225,-1.155 -0.972,-1.592 -0.84,-2.656 0.257,-2.062 1.874,-6.02 4.248,-6.02 2.341,0 3.435,-0.254 4.646,-3.37 0.412,-1.06 0.95,-1.57 1.3,-2.1 z"
           id="path39" />
        <path
           d="m 122.2,227.1 c -0.635,-0.49 -1.405,-0.853 -2.128,-1.135 -1.231,-0.481 -2.544,-0.555 -3.812,-0.171 -5.613,1.697 -8.07,11.668 -1.92,14.064 1.211,0.148 2.328,-0.948 3.416,-3.354 1.282,-3.185 2.645,-5.395 4.106,-6.747 0.895,-1.13 0.925,-2.086 0.338,-2.657 z"
           id="path40" />
        <path
           d="m 119.4,227.7 c -5.392,-2.105 -9.361,8.226 -4.322,10.189 2.705,1.053 2.962,-2.33 3.488,-4.212 0.709,-2.54 6.012,-3.955 0.834,-5.977 z M 7.7,198 q 4.051,-7.546 8.596,-9.65 c -4.176,-13.155 -5.158,-30.146 -2.703,-51.096 0.249,-3.13 1.02,-4.479 2.213,-4.457 1.046,0.02 1.679,1.616 1.781,5.22 -0.759,11.526 -1.692,21.607 -1.17,30.166 0.469,7.642 2.263,14 4.238,21.155 0.274,1 -0.43,1.775 -3.869,3.712 -2.536,1.443 -4.133,3.217 -4.666,5.073 -0.735,-0.296 -1.207,-0.207 -1.472,-0.13 -2.547,0.739 -3.622,0.538 -2.948,0 z m 16,16.6 c -1.565,-0.986 -1.872,-0.724 -2.374,-1.371 -0.647,-0.832 -0.656,-2.198 -0.453,-3.508 0.82,-5.285 -2.335,-4.547 -5.882,-2.21 -1.774,1.168 -3.559,3.882 -5.083,5.298 -1.524,1.416 -2.788,1.537 -3.168,2.096 -0.048,2.028 -0.057,3.78 -0.043,4.573 -0.014,0.793 0,2.542 0.043,4.57 0.38,0.56 1.645,0.68 3.168,2.096 1.524,1.417 3.309,4.13 5.083,5.298 3.548,2.338 6.701,3.074 5.882,-2.21 -0.201,-1.31 -0.194,-2.676 0.453,-3.509 0.502,-0.647 0.81,-0.384 2.374,-1.37 1.016,-0.64 1.777,-1.409 2.285,-2.244 0.507,-0.835 0.231,-1.735 0.231,-2.635 0,-0.9 0.276,-1.8 -0.231,-2.635 -0.508,-0.835 -1.27,-1.605 -2.285,-2.239 z"
           id="path41" />
        <path
           d="m 21,207.3 c -1.141,0.469 -2.384,0.972 -3.437,2 -1.6,1.553 -0.563,4.13 1.505,6.624 0.651,0.787 0.966,2.177 0.962,3.561 0,1.384 -0.332,2.763 -0.962,3.524 -2.067,2.494 -3.104,5.072 -1.505,6.624 1.052,1.023 2.295,1.523 3.436,2 0.11,-0.601 0.098,-1.39 -0.059,-2.401 -0.203,-1.31 -0.195,-2.676 0.452,-3.509 0.503,-0.647 0.809,-0.384 2.375,-1.37 1.015,-0.64 1.776,-1.409 2.285,-2.244 0.507,-0.834 0.231,-1.734 0.231,-2.635 0,-0.901 0.277,-1.8 -0.231,-2.635 -0.509,-0.835 -1.27,-1.605 -2.285,-2.244 -1.566,-0.986 -1.872,-0.724 -2.375,-1.37 -0.647,-0.833 -0.655,-2.2 -0.452,-3.509 0.157,-1.011 0.169,-1.802 0.06,-2.403 z M 71.4,200 c -1.329,1.686 -1.169,2.09 -1.89,2.574 -0.94,0.624 -2.216,0.406 -3.4,-0.046 -4.858,-1.86 -4.86,2 -3.448,6.428 0.684,2.146 2.756,4.472 3.68,6.296 0.908,1.787 0.713,3.126 1.12,3.583 1.762,0.292 3.275,0.506 3.964,0.585 0.674,0.109 2.175,0.302 3.907,0.489 0.567,-0.324 1,-1.594 2.612,-2.988 1.612,-1.4 4.402,-2.917 5.903,-4.63 3.043,-3.473 4.662,-6.81 -0.125,-6.694 -1.19,0.03 -2.382,-0.188 -2.916,-1.044 -0.422,-0.669 -0.105,-0.972 -0.515,-2.928 -0.269,-1.284 -0.74,-2.307 -1.343,-3.043 -0.614,-0.75 -1.51,-0.585 -2.334,-0.738 -0.832,-0.157 -1.589,-0.648 -2.508,-0.182 -0.918,0.465 -1.845,1.237 -2.706,2.338 z"
           id="path42" />
        <path
           d="m 63.8,202 c 0.18,1.423 0.365,2.954 1.072,4.319 1.063,2.054 3.684,1.263 6.483,-0.699 0.88,-0.618 2.23,-0.761 3.477,-0.541 1.243,0.219 2.383,0.791 2.88,1.613 1.595,2.638 3.511,4.12 5.309,2.613 1.191,-1 2,-2.291 2.751,-3.477 -0.482,-0.21 -1.165,-0.315 -2.09,-0.292 -1.191,0.03 -2.382,-0.188 -2.916,-1.044 -0.423,-0.669 -0.107,-0.972 -0.517,-2.924 -0.27,-1.286 -0.738,-2.308 -1.342,-3.047 -0.613,-0.75 -1.51,-0.58 -2.334,-0.735 -0.832,-0.155 -1.588,-0.65 -2.507,-0.184 -0.918,0.464 -1.846,1.237 -2.712,2.337 -1.328,1.686 -1.163,2.09 -1.89,2.577 -0.94,0.62 -2.217,0.4 -3.4,-0.05 C 65.148,202.12 64.401,201.975 63.8,202 Z m 26.6,19.2 c -0.775,-0.942 -1.083,-0.732 -1.225,-1.324 -0.179,-0.765 0.271,-1.963 0.854,-3.104 2.331,-4.57 -0.15,-4.185 -3.512,-2.383 -0.852,0.457 -1.842,1.268 -2.824,2.104 -1,0.843 -1.975,1.726 -2.798,2.317 -1.667,1.2 -2.696,1.235 -3.181,1.72 a 156,156 0 0 0 -1.612,4.193 167,167 0 0 0 -1.541,4.178 c 0.106,0.516 1.065,0.66 1.781,1.979 0.704,1.3 1.258,3.658 2.12,4.795 1.264,1.666 2.42,2.658 3.32,2.494 0.897,-0.163 1.537,-1.477 1.777,-4.381 0.094,-1.128 0.739,-2.322 1.483,-3.03 0.58,-0.552 0.709,-0.32 2.144,-1.128 a 9.3,9.3 0 0 0 2.345,-1.865 c 0.627,-0.698 0.724,-1.478 1.015,-2.248 0.292,-0.773 0.778,-1.533 0.703,-2.267 A 3.8,3.8 0 0 0 90.4,221.2 Z"
           id="path43" />
        <path
           d="m 90.8,213.8 c -1,0.366 -1.66,0.821 -2.802,1.767 -0.87,0.72 -1.344,1.76 -1.513,2.947 -0.17,1.193 -0.04,2.545 0.293,3.885 0.206,0.831 -0.046,2.248 -0.536,3.644 -0.487,1.388 -1.217,2.761 -1.956,3.5 -2.444,2.45 -4.16,5.04 -3.477,6.642 0.446,1.05 0.784,1.322 1.484,1.798 0.29,-0.599 0.986,-1.135 1.22,-2.152 0.304,-1.313 0.792,-2.672 1.567,-3.487 0.6,-0.639 0.732,-1.352 2.22,-2.279 0.964,-0.603 1.782,-0.344 2.438,-1.15 1.269,-1.56 2.933,-5.375 1.306,-7.117 -1.604,-1.719 -2.178,-2.69 -0.824,-5.649 0.46,-1 0.449,-1.74 0.58,-2.35 z m -42.7,12.4 c 1.277,1.102 1.6,0.884 1.957,1.549 0.452,0.845 0.24,2.129 -0.149,3.334 -1.537,4.753 1.361,4.335 4.842,2.517 1.732,-0.905 3.754,-3.217 5.325,-4.379 1.578,-1.16 2.686,-1.15 3.118,-1.63 0.442,-1.878 0.796,-3.526 0.943,-4.284 0.171,-0.749 0.52,-2.43 0.89,-4.407 -0.216,-0.59 -1.304,-0.861 -2.372,-2.46 -1.085,-1.617 -2.166,-4.636 -3.57,-6.105 -2.876,-3.013 -5.765,-4.307 -5.925,1.479 -0.04,1.402 -0.286,2.82 -1.037,3.586 -0.589,0.603 -0.832,0.292 -2.471,1.102 -1.069,0.527 -1.922,1.216 -2.534,2 -0.615,0.789 -0.489,1.73 -0.625,2.63 -0.135,0.897 -0.533,1.764 -0.178,2.643 0.351,0.87 0.946,1.698 1.786,2.425 z"
           id="path44" />
        <path
           d="m 49.5,233.3 c 1.085,-0.336 2.272,-0.688 3.364,-1.531 1.664,-1.287 1.18,-3.78 -0.248,-6.354 -0.459,-0.825 -0.513,-2.209 -0.275,-3.565 0.239,-1.364 0.772,-2.7 1.49,-3.387 2.345,-2.262 3.78,-4.757 2.589,-6.586 -0.796,-1.22 -1.882,-1.932 -2.875,-2.603 -0.21,0.63 -0.35,1.47 -0.38,2.554 -0.036,1.402 -0.28,2.819 -1.032,3.586 -0.588,0.603 -0.832,0.292 -2.47,1.102 -1.07,0.527 -1.923,1.216 -2.535,2 -0.615,0.789 -0.488,1.73 -0.624,2.63 -0.135,0.897 -0.534,1.764 -0.178,2.643 0.35,0.869 0.945,1.699 1.786,2.421 1.277,1.102 1.6,0.884 1.956,1.55 0.453,0.845 0.24,2.127 -0.148,3.333 -0.296,0.915 -0.43,1.642 -0.42,2.203 z"
           id="path45" />
      </g>
      <g
         fill="#edb92e"
         class="base"
         id="g46">
        <path
           d="m 73.3,279.1 -22,-12.9 -23.4,10.1 22,12.8 z m 26.5,-9.2 -23.8,9.4 19.652,12.848 c 5.088,-1.704 9.122,-19.12 4.148,-22.298 z"
           id="path46" />
      </g>
      <g
         fill="#21231e"
         id="g47">
        <path
           d="m 6.7,221.1 q 5.4,0.7 9.6,4.3 -2.9,-4.2 -9.7,-5.2 z m 0,-3.4 q 5.4,-0.7 9.6,-4.3 -2.9,4.2 -9.7,5.2 z m 113,8.1 q 2.2,-3.1 1.3,-6.3 2.1,2.6 -0.6,6.6 z m -46.8,-6.4 q 2,-5.5 6.3,-9.6 -4.5,2.5 -7.1,9.6 z M 70,219 q 0.7,-5.8 -1.6,-10.9 3.1,3.7 2.3,11.1 z m 5.4,8 q 4.1,1.1 6,4.9 -1,-4.5 -5.8,-5.8 z m 1.2,-3.4 q 4.7,-0.5 9.2,-3.9 -4.1,4.2 -9.6,4.8 z m -12.3,-1.9 q -4.6,-1.2 -7.8,-5.4 1.8,4.6 7.7,6.3 z m -0.7,3.2 q -4.8,0.1 -9.2,3.2 3.3,-3.8 9.5,-4 z"
           id="path47" />
      </g>
      <ellipse
         cx="50.5"
         cy="277.5"
         fill="#c6363c"
         stroke="#21231e"
         rx="10"
         ry="7"
         transform="rotate(4,50.5,277.5)"
         id="ellipse47" />
      <path
         d="m 71.6,216.5 c -4.026,-0.198 -7.914,3.324 -8.486,7.634 -0.57,4.31 2.244,7.657 6.103,7.702 3.86,0.046 7.445,-3.113 8.183,-7.273 0.738,-4.16 -1.774,-7.864 -5.8,-8.063 z"
         class="gold"
         id="path48" />
      <path
         d="m 71.3,218.6 c -2.945,-0.129 -5.77,2.422 -6.202,5.574 -0.435,3.152 1.586,5.648 4.458,5.696 2.834,0.05 5.52,-2.338 6.039,-5.377 0.533,-3.106 -1.351,-5.764 -4.295,-5.893 z"
         class="gold"
         id="path49" />
      <g
         class="blue"
         id="g50">
        <path
           d="m 118.793,229.27 c -2.628,-1.025 -6.238,5.137 -2.948,6.536 2.221,0.946 3.977,-0.298 4.69,-2.155 0.713,-1.857 0.102,-3.662 -1.742,-4.381 z M 99,274 c -5.7,-0.6 -10.5,2 -10.9,5.8 -0.4,3.8 3.9,7.2 9.6,7.8 3.8,0.4 5.9,-2 6.3,-5.8 0.4,-3.8 -1.2,-7.4 -5,-7.8 z M 71,220.7 c -1.842,-0.068 -3.603,1.514 -3.888,3.489 -0.285,1.975 0.986,3.568 2.789,3.607 1.803,0.037 3.5,-1.464 3.822,-3.406 0.32,-1.944 -0.882,-3.62 -2.723,-3.69 z"
           id="path50" />
      </g>
    </g>
    <use
       xlink:href="#a"
       transform="scale(-1,1)"
       id="use50" />
    <g
       class="white"
       id="g55">
      <circle
         cy="189"
         r="6.4000001"
         id="circle50"
         cx="0" />
      <circle
         cy="177"
         r="6.4000001"
         id="circle51"
         cx="0" />
      <circle
         cy="165.5"
         r="6.4000001"
         id="circle52"
         cx="0" />
      <circle
         cy="133"
         r="6.4000001"
         id="circle53"
         cx="0" />
      <circle
         cy="143"
         r="6.4000001"
         id="circle54"
         cx="0" />
      <circle
         cy="154"
         r="6.4000001"
         id="circle55"
         cx="0" />
    </g>
    <path
       d="m 0,193 c 0.9,0 1.8,-0.3 2.6,0.2 0.8,0.5 1.6,1.3 2.2,2.3 0.9,1.5 0.6,2 1.4,2.4 1,0.5 2.2,0.7 3.5,0.5 5.2,-0.8 4.6,2.3 2.2,5.9 -1.2,1.8 -3.9,3.6 -5.3,5.1 -1.4,1.5 -1.5,2.8 -2.1,3.2 h -9 c -0.6,-0.4 -0.7,-1.7 -2.1,-3.2 -1.4,-1.5 -4.1,-3.3 -5.3,-5.1 -2.4,-3.6 -3,-6.7 2.2,-5.9 1.3,0.2 2.5,0 3.5,-0.5 0.8,-0.4 0.5,-0.9 1.4,-2.4 0.6,-1 1.4,-1.8 2.2,-2.3 0.8,-0.5 1.7,-0.2 2.6,-0.2"
       class="gold"
       id="path55" />
    <path
       id="g"
       fill="#21231e"
       d="M 1.6,212.6 Q 2.3,207.2 6,203 1.7,205.9 0.7,212.8 Z" />
    <use
       xlink:href="#g"
       transform="scale(-1,1)"
       id="use55" />
    <g
       class="gold"
       id="g57">
      <path
         d="m 0,193 c 0.9,0 1.8,-0.3 2.6,0.2 0.8,0.5 1.6,1.3 2.2,2.3 0.9,1.5 0.6,2 1.4,2.4 1,0.5 2.2,0.7 3.5,0.5 1,-0.2 1.8,-0.2 2.4,-0.1 -0.5,1.1 -1,2.5 -2,3.5 -1.5,1.5 -3.6,0.4 -6.6,-1.6 -0.9,-0.6 -2.1,-0.9 -3.5,-0.9 -1.4,0 -2.6,0.3 -3.5,0.9 -3,2 -5.1,3.1 -6.6,1.6 -1,-1 -1.5,-2.4 -2,-3.5 0.6,-0.1 1.4,-0.1 2.4,0.1 1.3,0.2 2.5,0 3.5,-0.5 0.8,-0.4 0.5,-0.9 1.4,-2.4 0.6,-1 1.4,-1.8 2.2,-2.3 0.8,-0.5 1.7,-0.2 2.6,-0.2 z m 0,18.65 c 4.27,0 7.732,3.488 7.732,7.79 0,4.302 -3.462,7.79 -7.732,7.79 -4.27,0 -7.73,-3.488 -7.73,-7.79 0,-4.302 3.46,-7.79 7.73,-7.79 z m 98,84.85 q 0,-2.7 -4.9,-3.1 -93.1,-7.6 -186.2,0 -4.9,0.4 -4.9,3.1 0,2.7 4.9,3.1 93.1,7.6 186.2,0 4.9,-0.4 4.9,-3.1"
         id="path56" />
      <circle
         cy="219.39999"
         r="7.6999998"
         id="circle56"
         cx="0" />
      <circle
         cy="219.39999"
         r="5.6999998"
         id="circle57"
         cx="0" />
    </g>
    <g
       class="blue"
       id="g58">
      <ellipse
         cy="276"
         rx="10"
         ry="7"
         id="ellipse57"
         cx="0" />
      <circle
         cy="219.39999"
         r="3.7"
         id="circle58"
         cx="0" />
    </g>
    <path
       fill="none"
       d="m -47,300 q -10.6,-0.8 -23,-2.1 70,-5 140,0 -12.4,1.3 -23,2.1"
       class="base"
       id="path58" />
    <path
       stroke="#ffffff"
       d="M 168.75,301.25 V 576 c 0,45 -20,89 -50,121 -30,32 -72,54 -118.75,54 -46.75,0 -88.75,-22 -118.75,-54 -30,-32 -50,-76 -50,-121 V 301.25 Z"
       class="red"
       id="path59" />
    <g
       class="white"
       id="g79">
      <path
         d="m -1.53,734.79 c -1.455,-0.24 -3.913,0.067 -5.77,-1.393 -2.47,-1.943 -1.49,-9.787 -1.267,-14.751 1.135,-25.354 2.173,-68.034 3.463,-127.97 2.113,-0.288 3.65,-0.14 5.095,0.078 1.444,-0.218 2.982,-0.366 5.094,-0.078 1.29,59.939 2.328,102.62 3.465,127.97 0.221,4.964 1.202,12.809 -1.27,14.75 -1.856,1.461 -4.313,1.153 -5.769,1.394 z"
         id="path60" />
      <path
         d="m -17.41,734.06 c 1.472,-0.106 3.89,0.423 5.872,-0.862 2.636,-1.71 2.853,-9.733 3.08,-14.696 1.163,-25.353 3.508,-67.83 7.646,-127.64 -2.077,-0.479 -3.623,-0.47 -5.08,-0.385 a 27,27 0 0 0 -0.694,-0.16 c -9.527,59.167 -13.124,101.14 -19.648,126.46 -0.9,3.495 -2.835,12.253 0.176,15.1 1.717,1.622 4.192,1.54 5.62,1.91 l 3.028,0.276 z"
         id="path61" />
      <path
         d="m -36.1,731.4 c 1.475,0.027 3.836,0.774 5.926,-0.327 2.78,-1.464 2.667,-9.472 3.906,-14.28 6.525,-25.32 10.122,-67.309 19.653,-126.5 -2.026,-0.666 -3.564,-0.797 -5.025,-0.844 -15.15,57.536 -19.691,98.095 -31.45,123.15 -1.089,3.471 -4.053,12.69 -1.22,15.903 1.565,1.773 4.037,1.914 5.425,2.413 l 3,0.55 z"
         id="path62" />
      <path
         d="m -54.84,726.08 c 1.465,0.174 3.935,1.54 6.123,0.65 2.911,-1.18 3.366,-9.746 5.461,-14.208 11.813,-25.17 16.342,-65.982 31.66,-123.94 -1.95,-0.862 -3.47,-1.146 -4.918,-1.337 -1.327,-0.61 -1.075,-0.924 -3.185,-1.233 -17.797,57.241 -23.578,97.056 -40.366,121.76 -2.71,3.988 -4.694,11.975 -2.856,14.525 1.382,1.919 3.827,2.304 5.16,2.939 l 2.922,0.842 z m 72.23,7.98 c -1.472,-0.106 -3.89,0.423 -5.872,-0.862 -2.637,-1.71 -2.853,-9.733 -3.08,-14.696 -1.164,-25.353 -3.508,-67.83 -7.646,-127.64 2.077,-0.479 3.622,-0.47 5.08,-0.385 q 0.341,-0.084 0.694,-0.16 c 9.527,59.167 13.124,101.14 19.648,126.46 0.9,3.495 2.833,12.253 -0.176,15.1 -1.718,1.622 -4.192,1.54 -5.62,1.91 l -3.029,0.276 z"
         id="path63" />
      <path
         d="m 36.1,731.4 c -1.474,0.027 -3.836,0.774 -5.926,-0.327 -2.779,-1.464 -2.666,-9.472 -3.905,-14.28 -6.524,-25.32 -10.122,-67.309 -19.655,-126.5 2.026,-0.666 3.566,-0.797 5.026,-0.844 15.15,57.536 19.693,98.095 31.45,123.15 1.09,3.471 4.054,12.69 1.22,15.903 -1.564,1.773 -4.036,1.914 -5.425,2.413 l -3,0.55 z"
         id="path64" />
      <path
         d="m 54.83,726.08 c -1.465,0.174 -3.935,1.54 -6.123,0.65 -2.911,-1.18 -3.367,-9.746 -5.462,-14.208 -11.812,-25.17 -16.341,-65.982 -31.66,-123.94 1.951,-0.862 3.47,-1.146 4.918,-1.337 1.328,-0.61 1.076,-0.924 3.186,-1.233 17.797,57.241 23.578,97.056 40.366,121.76 2.71,3.988 4.693,11.975 2.856,14.525 -1.382,1.919 -3.827,2.304 -5.16,2.939 l -2.922,0.842 z m -99.74,-43.24 c 1.34,0.081 3.36,0.899 5.464,-0.105 2.799,-1.334 4.626,-9.066 6.126,-13.873 11.915,-23.54 22.791,-65.347 40.632,-123.45 -1.727,-0.728 -3.108,-0.914 -4.432,-1.012 -1.175,-0.517 -2.454,-0.988 -4.378,-1.162 -19.215,57.497 -27.843,99.074 -46.623,121.97 -3.101,3.78 -5.407,12.025 -3.932,14.414 1.107,1.797 3.337,2.026 4.515,2.567 l 2.63,0.648 z"
         id="path65" />
      <path
         d="m -29.71,685.82 c 1.344,-0.027 3.45,0.627 5.427,-0.54 2.632,-1.553 3.562,-9.395 4.501,-14.3 4.802,-25.052 13.658,-67.097 26.244,-126.12 -1.804,-0.587 -3.2,-0.66 -4.528,-0.655 -1.23,-0.42 -2.556,-0.787 -4.492,-0.807 -14.871,58.657 -18.311,102.58 -32.376,125.13 -2.563,4.109 -4,12.402 -2.257,14.663 1.31,1.7 3.556,1.75 4.8,2.195 l 2.692,0.436 z"
         id="path66" />
      <path
         d="m -14.24,687.58 c 1.335,-0.134 3.505,0.349 5.34,-0.97 2.44,-1.757 2.464,-9.636 2.835,-14.592 1.897,-25.321 5.876,-67.88 11.614,-127.64 -1.863,-0.44 -3.26,-0.403 -4.583,-0.29 -1.272,-0.32 -2.634,-0.58 -4.563,-0.445 -8.055,59.573 -12.736,102.71 -17.833,127.14 -1.017,4.873 -2.552,12.664 -0.558,14.776 1.499,1.588 3.74,1.458 5.018,1.803 z"
         id="path67" />
      <path
         d="m 44.9,682.84 c -1.34,0.081 -3.36,0.899 -5.464,-0.105 -2.799,-1.334 -4.626,-9.066 -6.126,-13.873 -11.915,-23.54 -22.791,-65.347 -40.632,-123.45 1.728,-0.728 3.108,-0.914 4.432,-1.012 1.174,-0.517 2.454,-0.988 4.378,-1.162 19.215,57.497 27.843,99.074 46.623,121.97 3.1,3.78 5.407,12.025 3.932,14.414 -1.108,1.797 -3.337,2.026 -4.515,2.567 l -2.63,0.648 z"
         id="path68" />
      <path
         d="m 29.7,685.82 c -1.343,-0.027 -3.448,0.627 -5.427,-0.54 -2.632,-1.553 -3.56,-9.395 -4.5,-14.3 -4.801,-25.052 -13.659,-67.097 -26.245,-126.12 1.805,-0.587 3.2,-0.66 4.53,-0.655 1.228,-0.42 2.554,-0.787 4.49,-0.807 14.872,58.657 18.312,102.58 32.379,125.13 2.562,4.109 4,12.402 2.255,14.663 -1.31,1.7 -3.555,1.75 -4.789,2.195 l -2.693,0.436 z"
         id="path69" />
      <path
         d="m 14.22,687.58 c -1.335,-0.134 -3.504,0.349 -5.34,-0.97 -2.44,-1.757 -2.464,-9.636 -2.836,-14.592 -1.898,-25.321 -5.876,-67.88 -11.614,-127.64 1.864,-0.44 3.26,-0.403 4.582,-0.29 1.273,-0.32 2.634,-0.58 4.565,-0.445 8.054,59.573 12.735,102.71 17.832,127.14 1.017,4.873 2.553,12.664 0.56,14.776 -1.5,1.588 -3.74,1.458 -5.02,1.803 l -2.73,0.218 z"
         id="path70" />
      <path
         d="m -1.38,688.09 c -1.312,-0.24 -3.528,0.068 -5.203,-1.392 -2.228,-1.942 -1.344,-9.788 -1.143,-14.752 1.024,-25.356 1.96,-68.036 3.123,-127.98 1.906,-0.288 3.292,-0.14 4.595,0.078 1.303,-0.217 2.688,-0.366 4.594,-0.078 1.164,59.942 2.1,102.62 3.124,127.98 0.2,4.964 1.084,12.81 -1.143,14.752 -1.676,1.46 -3.891,1.152 -5.204,1.392 z"
         id="path71" />
      <path
         d="m -34.4,647.97 c 1.027,0.081 2.574,0.9 4.186,-0.103 2.143,-1.336 3.542,-9.067 4.691,-13.873 9.126,-23.54 17.457,-65.347 31.123,-123.45 l -6.748,-2.175 c -14.718,57.497 -21.327,99.074 -35.711,121.97 -2.375,3.78 -4.141,12.025 -3.012,14.415 0.849,1.796 2.557,2.026 3.458,2.566 z"
         id="path72" />
      <path
         d="m -22.76,650.96 c 1.03,-0.027 2.641,0.626 4.157,-0.54 2.016,-1.552 2.728,-9.395 3.448,-14.3 3.677,-25.054 10.46,-67.1 20.1,-126.12 l -6.908,-1.462 c -11.391,58.657 -14.025,102.58 -24.8,125.13 -1.964,4.109 -3.063,12.402 -1.73,14.663 1,1.7 2.724,1.75 3.67,2.195 0.685,0.146 1.38,0.291 2.062,0.433 z"
         id="path73" />
      <path
         d="m -10.91,652.72 c 1.022,-0.135 2.684,0.349 4.09,-0.972 1.87,-1.755 1.887,-9.635 2.172,-14.592 1.452,-25.32 4.5,-67.88 8.895,-127.64 l -7,-0.733 c -6.17,59.573 -9.755,102.71 -13.66,127.14 -0.778,4.873 -1.954,12.664 -0.427,14.776 1.148,1.588 2.865,1.458 3.844,1.801 l 2.093,0.22 z"
         id="path74" />
      <path
         d="m 34.39,647.97 c -1.027,0.081 -2.574,0.9 -4.186,-0.103 C 28.061,646.531 26.662,638.8 25.513,633.994 16.387,610.454 8.056,568.647 -5.61,510.544 l 6.748,-2.175 c 14.718,57.497 21.327,99.074 35.711,121.97 2.375,3.78 4.142,12.025 3.012,14.415 -0.849,1.796 -2.557,2.026 -3.458,2.566 z"
         id="path75" />
      <path
         d="m 22.75,650.96 c -1.029,-0.027 -2.641,0.626 -4.157,-0.54 -2.015,-1.552 -2.728,-9.395 -3.447,-14.3 C 11.468,611.066 4.684,569.02 -4.954,510 l 6.908,-1.462 c 11.39,58.657 14.025,102.58 24.8,125.13 1.962,4.109 3.062,12.402 1.727,14.663 -1,1.7 -2.723,1.75 -3.667,2.195 -0.687,0.146 -1.381,0.291 -2.064,0.433 z"
         id="path76" />
      <path
         d="m 10.89,652.72 c -1.023,-0.135 -2.685,0.349 -4.09,-0.972 -1.87,-1.755 -1.888,-9.635 -2.172,-14.592 -1.453,-25.32 -4.5,-67.88 -8.895,-127.64 l 7,-0.733 c 6.17,59.573 9.756,102.71 13.66,127.14 0.78,4.873 1.955,12.664 0.427,14.776 -1.148,1.588 -2.864,1.458 -3.843,1.801 l -2.092,0.22 z"
         id="path77" />
      <path
         d="m -1.06,653.23 c -1,-0.24 -2.703,0.068 -3.986,-1.392 -1.707,-1.942 -1.03,-9.787 -0.877,-14.751 0.785,-25.357 1.503,-68.037 2.394,-127.98 H 3.51 c 0.892,59.942 1.61,102.62 2.394,127.98 0.154,4.964 0.83,12.809 -0.876,14.75 -1.283,1.461 -2.98,1.153 -3.986,1.393 z"
         id="path78" />
      <path
         d="m 18.1,575.2 c 0,4.8 -11.9,55.4 -18.1,55.4 -6.2,0 -18.1,-50.6 -18.1,-55.4 z"
         id="path79" />
    </g>
    <g
       id="b">
      <g
         class="gold"
         id="g82">
        <path
           d="m 82,638 c 0.3,0 0.6,0.7 0.7,1 1,3 4.9,8 7.9,11 4.7,4.7 3.4,12 0.4,16 -3.3,4.4 -5.2,9.2 -5.9,12.7 -0.5,2.5 -1.2,7.6 -0.6,15.6 0.3,4 2.7,5.9 4.9,7.7 1.1,0.9 -0.8,3.3 -4.4,6 -0.4,0.3 -1.4,0.9 -2,3 -0.1,0.3 -1.9,0.3 -2,0 -0.6,-2.1 -1.6,-2.7 -2,-3 -3.6,-2.7 -5.5,-5.1 -4.4,-6 2.2,-1.8 4.6,-3.7 4.9,-7.7 0.6,-8 -0.1,-13.1 -0.6,-15.6 -0.7,-3.5 -2.6,-8.3 -5.9,-12.7 -3,-4 -4.3,-11.3 0.4,-16 3,-3 6.9,-8 7.9,-11 0.1,-0.3 0.4,-1 0.7,-1 z"
           id="path80" />
        <path
           id="c"
           d="m 94.7,701.2 c -8,6 -15.4,-8.4 -8.2,-27.6 5.4,-14.4 31.3,-8.4 16.6,10.5 -0.7,0.9 -1.7,0.5 -1.5,-0.5 0.8,-4 -1.4,-6.3 -5.6,-5.5 -10.5,2 -10.9,22 0.6,17.5 2.1,-0.2 0.1,4.1 -1.9,5.6" />
        <use
           xlink:href="#c"
           x="-164"
           transform="scale(-1,1)"
           id="use80" />
        <path
           d="m 76,685.5 a 3.5,3.5 0 0 0 0,7 h 12 a 3.5,3.5 0 0 0 0,-7 z M 88.1,596 c 5,11 11,21 17,30 3,1 5,2.5 7,3.1 2,0.6 16,0.4 16.5,-0.6 4.5,-3.5 11.5,-0.5 8.5,3.5 2,2 -2,7.4 -5,5 -3,-2.4 -13,0 -16,-1 1,3 11,4.7 17,5 6,0.3 5,6 3,11 l -2,1 c -2,4 -7.8,2.8 -8,-1 -0.2,-3.8 -14,-9 -16,-12 2,6 8,12 11,18 3,3 5,3 1,9 l -7,1 c -6,0 -7,-2 -6,-7 1,-5 -3.7,-14 -5,-16.6 -1.2,-2.4 -1.5,-4.9 -2.7,-6.3 -2.1,-2.8 -12.8,-7.4 -15.3,-6.1 -5,2.6 -8.5,1 -9,-4 1,-1 0,-8 3.6,-8.6 3,-0.5 4.4,1 6.9,3 4,3.2 6.2,5 7.4,4.7 3.2,-0.8 -5.7,-5.1 -13.7,-15.7 -8,-10.6 -11.2,-26.4 6.8,-15.4 z"
           id="path81" />
        <path
           d="m 136.92,634.54 c 4.012,-2.352 6.318,-2.26 7.875,-0.509 0.855,0.963 1.948,0.464 1.308,-1.047 -2.668,-6.313 -6.923,-7.1 -10.74,-4.14 -1.07,1 -1.929,1.842 -2.789,2.692 0.64,0.948 3.829,2.277 4.346,3 z m -57.46,-5.65 c -4.259,-2.9 -8.25,-3.468 -10.436,-1.839 -1.202,0.896 -2.39,0.253 -1.332,-1.236 4.417,-6.22 9.594,-6.536 13.5,-3.029 1.06,1.15 1.903,2.13 2.745,3.11 -1.337,1.465 -4.291,3.119 -4.477,3 z m 33.55,35.66 c -0.129,-0.257 0.978,-5.44 2.712,-7.059 1.348,1.081 2.863,2.035 4.286,3.523 4.26,4.451 4.241,11.01 -2.413,16.728 -1.643,1.412 -2.393,-0.077 -1.73,-1.7 1.136,-2.777 -0.243,-6.319 -2.855,-11.492 z M 129.6,650.9 c 3.956,1.644 5.321,3.727 5.177,6.463 -0.079,1.505 0.909,2.066 1.467,0.316 4.837,-11.243 -0.18,-13.347 -7.43,-12.938 -0.416,1.959 0.615,6.087 0.786,6.159 z"
           id="path82" />
      </g>
      <path
         fill="none"
         d="m 76.3,603.9 c 1.9,-1.8 3.9,-3.7 5.8,-1.5 1.9,2.2 0.9,4.3 -1.9,7.2 1.8,-1.2 4,-5.2 6,-2.4 2,2.8 0.2,5.2 -2,7.5 2.3,-1.9 4.1,-4.8 6.1,-2.4 2,2.4 0,4.8 -1.8,6.6 2,-1.6 4,-3.1 5.2,-1.7 1.8,2.1 0.3,3.5 -1.6,5.3 2.2,-1.6 3.7,-3.2 5.3,-1.4 1.6,1.8 -0.5,4 -1.7,4.8"
         class="base"
         id="path83" />
      <g
         class="white"
         id="g101">
        <path
           d="m 76.65,469 c -0.182,8.678 1.356,66.559 1.84,74.738 0.483,8.144 4.092,13.695 7.938,16.877 3.527,-4.849 5.632,-11.392 6.134,-19.156 0.255,-3.958 -0.474,-58.733 -0.778,-70 z"
           id="path84" />
        <path
           d="m 114.27,454.83 2.456,79.583 c 0.775,7.06 -8.417,49.073 -13.442,57.361 -12.436,-5.318 -15.062,-33.821 -12.721,-61.594 2.34,-27.775 -0.392,-51.76 -2.288,-56.751 z"
           id="path85" />
        <path
           d="m 129.01,467.85 -1.689,79.603 c 0.406,7.094 -10.96,48.541 -16.409,56.542 -12.613,-9.79 -10.075,-49.808 -8.142,-61.917 3.852,-24.13 3.197,-52.079 1.869,-56.621 z"
           id="path86" />
        <path
           d="m 139.95,486.7 -20.911,-0.533 c 1.777,8.683 0.355,35.655 -3.252,56.214 -3.383,19.277 -8.107,69.272 11.96,81.276 12.444,-26.38 2.97,-52.014 9.24,-74.92 z M 60,454.38 l 4.103,74.644 c 0.73,8.124 4.503,13.556 8.444,16.614 3.38,-4.96 5.285,-11.567 5.55,-19.342 0.136,-3.964 -2.252,-58.69 -2.896,-69.933 z m 37.15,-47.15 c 0.557,18.646 0.875,59.108 0.759,62.547 -0.265,7.776 -3.331,17.672 -6.709,22.631 -3.94,-3.058 -7.716,-8.49 -8.446,-16.615 -0.6,-6.68 -0.81,-39.483 -0.91,-55.923 z"
           id="path87" />
        <path
           d="m 82.21,419.25 c 0.37,20.09 0.154,51.736 0.066,54.309 -0.265,7.775 -2.172,14.383 -5.55,19.344 -3.941,-3.06 -8.104,-8.685 -8.832,-16.809 -0.448,-5 -1.838,-26.451 -1.968,-42.913 z m 12.85,-13.7 14.24,-20.52 c 2.878,10.123 6.387,82.767 2.268,88.725 -0.265,7.776 -3.071,14.355 -6.45,19.314 -3.941,-3.058 -9.823,-8.556 -8.123,-16.78 1.698,-8.224 -0.207,-62.257 -1.935,-70.739 z"
           id="path88" />
        <path
           d="m 124.26,451.24 0.966,22.814 c -0.266,7.777 -2.172,14.383 -5.55,19.344 -3.942,-3.058 -8.96,-8.475 -8.445,-16.615 2,-31.459 -1.448,-61.093 -5.453,-89.577 l 12.451,-7.633 z"
           id="path89" />
        <path
           d="m 138.5,471.82 -3.861,14.631 c -0.266,7.776 -5.067,14.196 -8.446,19.156 -3.94,-3.058 -7.52,-8.088 -6.515,-16.18 5.779,-46.464 3.713,-77.204 -6.033,-115.07 22.039,15.045 32.255,46.787 24.855,97.453 z m -1.13,14.4 20.223,-6.717 c 2.577,20.221 -1.384,45.621 -6.83,79.114 -4.676,28.76 -2.217,51.522 1.358,66.121 -21.575,-2.955 -30.695,-30.772 -19.88,-83.093 2.83,-13.695 5.676,-31.2 5.129,-55.425 z"
           id="path90" />
        <path
           d="m 129.54,392.777 c 4.963,24.275 8.235,52.876 4.483,84.25 -1.392,11.64 -3.86,21.16 -7.48,28.517 14.559,-1.653 23.89,-15.872 22.683,-40.67 l -3.27,-69.313 z"
           id="path91" />
        <path
           d="m 140.106,395.934 c 1.09,6.289 4.83,13.704 5.605,21.729 2.566,26.596 2.576,59.898 -5.416,81.186 14.559,-1.653 19.556,-14.853 20.028,-39.678 0.39,-20.523 0.456,-44.72 -4.693,-72.661 z m -30.256,-5.964 13.435,-1.567 c 2.469,12.704 4.357,21.686 4.815,26.212 0.898,8.876 -1.792,17.014 -4.868,23.075 -4.954,-2.987 -7.255,-9.511 -9.34,-18.66 z M 75,418.58 l 11.924,0.125 c 0.408,10.96 0.704,18.379 0.509,22.24 -0.382,7.576 -2.272,14 -5.506,18.796 -3.622,-3.02 -7.05,-8.35 -7.59,-16.274 -0.543,-7.958 0.589,-16.43 0.663,-24.887 z"
           id="path92" />
        <path
           d="m 74.063,424.782 c 0.027,10.969 0.065,18.392 -0.264,22.246 -0.645,7.557 -2.757,13.906 -6.156,18.59 -3.516,-3.144 -6.755,-8.59 -7.02,-16.528 z M 87.14,412.42 99.035,411.575 c 1.294,10.893 2.19,18.263 2.308,22.127 0.234,7.582 -1.13,14.133 -3.966,19.18 -3.856,-2.714 -7.702,-7.748 -8.882,-15.603 -1.186,-7.888 -0.744,-16.423 -1.355,-24.859 z"
           id="path93" />
        <path
           d="m 111.326,394.161 c 2.225,8.824 5.23,37.867 -0.111,50.133 -4.347,-2.953 -8.726,-8.493 -10.188,-17.225 -1.468,-8.77 -1.907,-18.098 -2.747,-27.489 z m -46.7,174.115 19.732,10.136 c 5.683,12.56 11.058,19.246 17.873,25.141 -9.877,1.845 -18.248,-0.11 -23.64,-7.356 -7.277,-9.775 -11.168,-15.697 -13.581,-17 z"
           id="path94" />
        <path
           d="m 68.769,575.665 c 4.833,9.853 8.123,16.512 9.493,20.127 2.687,7.09 3.421,13.768 2.178,19.535 -4.786,-1.219 -10.314,-4.633 -14.051,-11.652 z"
           id="path95" />
        <path
           d="m 66.233,578.689 c 2.285,10.735 3.853,18 4.3,21.839 0.877,7.532 -0.037,14.186 -2.65,19.477 -4.344,-2.352 -8.872,-7.016 -10.785,-14.736 -1.922,-7.752 -2.156,-16.298 -3.509,-24.649 z"
           id="path96" />
        <path
           d="m 40.488,585.253 c 6.655,12.07 8.793,20.385 9.438,29.382 7.38,-6.831 10.818,-14.723 8.243,-23.384 -3.474,-11.687 -6.853,-25.118 -6.459,-27.841 z"
           id="path97" />
        <path
           d="m 60.405,553.88 c 4.261,10.115 7.164,16.95 8.325,20.639 2.276,7.233 2.628,13.94 1.055,19.629 -4.708,-1.492 -10.674,-4.575 -14,-11.796 -3.34,-7.252 -4.534,-16.245 -7.431,-24.192 z"
           id="path98" />
        <path
           d="m 59.185,533.335 c 2.769,-0.75 6.448,5.729 10.048,9.51 0.83,0.871 1.784,1.691 2.508,2.766 a 23.3,23.3 0 0 1 3.417,7.956 c 3.012,13.456 7.4,20.454 12.874,27.615 C 77.987,580.974 70.188,577.352 66.38,569.159 61.243,558.104 58.637,551.514 56.54,549.74 Z M 29.133,597.44 C 20.629,608.283 17.186,616.144 15.108,624.92 8.918,616.991 6.79,608.65 10.72,600.515 25.269,583.793 25.163,583.871 29.133,597.44 Z"
           id="path99" />
        <path
           d="M 26.773,589.512 C 18.27,600.355 9.435,608.556 7.358,617.33 1.168,609.402 -1.465,601.059 2.464,592.923 Z"
           id="path100" />
        <path
           d="m 42.323,586 c -8.505,10.844 -11.947,18.706 -14.025,27.482 -6.19,-7.93 -8.32,-16.271 -4.39,-24.407 z"
           id="path101" />
      </g>
    </g>
    <use
       xlink:href="#b"
       transform="scale(-1,1)"
       id="use101" />
    <path
       d="M 0,387.5 C -1.9,366 -5.8,351 -15.1,336 c 4.3,0.5 8.8,-0.4 6.7,-10.8 -6.1,-1.4 -8.4,0.9 -25.4,-7.2 -13.9,-6.5 -34.3,-8.9 -33,-1.9 2.6,14 11.8,24 21.3,31.1 4.5,11.2 15.5,32.4 7.9,44.1 -7.6,11.7 -13.9,17.3 -21.5,22.1 1.7,0.6 3.3,1.1 4.9,1.4 -1.2,1.6 -11,4.6 -12.2,3.8 -7.8,-5.2 -15,-17.9 -21.4,-25.2 -18.3,-20.7 -27.9,-36.9 -24.2,-49.6 4.1,-14.1 21,-29.5 -0.7,-26.8 -21.7,2.7 -39.9,33.1 -45.3,68.2 -2,13 -3.4,24.4 -4.9,33.5 11.8,-4.2 17.1,-8.5 20.2,-13.7 -1.4,5 -2.5,9.7 -3.2,14.1 9.7,-1.7 16.4,-6.6 19.2,-15.1 1,-3.4 2.3,-6.4 3.6,-8.9 3,1.1 6.8,1 11.5,-0.1 1.8,4.2 15.1,19.1 22.3,30 8,12.3 20.2,21.7 24.2,22.3 H 65.1 c 4,-0.6 16.2,-10 24.2,-22.3 7.2,-10.9 20.5,-25.8 22.3,-30 4.7,1.1 8.5,1.2 11.5,0.1 1.3,2.5 2.6,5.5 3.6,8.9 2.8,8.5 9.5,13.4 19.2,15.1 -0.7,-4.4 -1.8,-9.1 -3.2,-14.1 3.1,5.2 8.4,9.5 20.2,13.7 -1.5,-9.1 -2.9,-20.5 -4.9,-33.5 -5.4,-35.1 -23.6,-65.5 -45.3,-68.2 -21.7,-2.7 -4.8,12.7 -0.7,26.8 3.7,12.7 -5.9,28.9 -24.2,49.6 -6.4,7.3 -13.6,20 -21.4,25.2 -1.2,0.8 -11,-2.2 -12.2,-3.8 1.6,-0.3 3.2,-0.8 4.9,-1.4 C 51.5,408.6 45.2,403 37.6,391.3 30,379.6 41,358.4 45.5,347.2 c 9.5,-7.1 18.7,-17.1 21.3,-31.1 1.3,-7 -19.1,-4.6 -33,1.9 -17,8.1 -19.3,5.8 -25.4,7.2 -2.1,10.4 2.4,11.3 6.7,10.8 C 5.8,351 1.9,366 0,387.5 Z"
       class="white"
       id="path102" />
    <g
       id="d">
      <g
         class="gold"
         id="g104">
        <path
           d="m 40.4,356.4 19.1,2.8 c 14.8,0.7 23.4,-4 25.3,-13.5 -5.5,6.6 -12.3,9.9 -19.8,8.1 -10,-2.4 -16.3,-4.6 -18.6,-4 z"
           id="path103" />
        <path
           d="m 76.2,317.8 c 16.6,1.8 15.8,12.5 0.3,28 -3.2,3.1 -3.8,3 -4.6,-0.2 -1.4,-5.6 -7.1,-8.3 -10.1,-4.4 -2,2.6 -1.7,4.3 -8.7,3.3 -8.9,7.5 -16,12.8 -4.5,12.3 4.6,-0.2 9.1,2.8 15.7,2.5 -1.9,3.9 -2.3,4.4 -3.4,4.6 -6.6,1 -13.2,-2.7 -19.8,-1.5 -14.3,2.6 22.9,-38.7 22.5,-40.3 -1,-4 8.9,-11.6 12.6,-4.3 z"
           id="path104" />
      </g>
      <g
         fill="#21231e"
         id="g105">
        <path
           d="m 52.5,330.9 2.19,-2.193 q 1.601,-2.028 -1.853,-5.401 c -1.685,0.73 -3.032,1.293 -4.381,1.856 q 1.348,4.556 4.044,5.738"
           id="path105" />
        <circle
           cx="78"
           cy="326"
           r="1.4"
           id="circle105" />
      </g>
      <g
         fill="none"
         stroke-linejoin="round"
         class="base"
         id="g109">
        <path
           d="m 147.7,496.7 c -0.8,18 -2,32 -5.5,47 -3.5,15 -4,25 -4.5,40 m 2.6,-84.9 c 8.4,-22.3 8.2,-56.8 5.3,-79.6 -2.9,-22.8 -17.2,-52.7 -22.4,-56.1 m -47,-45.3 q -1,5 -8.4,10.6 m -36.2,78.8 q 10.7,12 27.4,6.3"
           id="path106" />
        <path
           d="m 30.4,401.1 q 0,4.5 4.7,16.5 -10,-2.3 -14.9,-9.1"
           id="path107" />
        <path
           d="m 21.54,400.3 q -1.3,10.3 -5.5,16 -5.6,-4.1 -7.8,-12 M 42.8,327.6 c 1.6,3.1 4.5,7.1 8,5 5,-3 5.9,-6.8 8.2,-10.3"
           id="path108" />
        <path
           d="m 38.1,328.2 c 2.1,0.1 4.4,-0.8 9.5,-2.6 5.1,-1.8 10.6,-4 15.8,-3.6 m -38.6,12 q -3.9,1.2 -9.7,2"
           id="path109" />
      </g>
    </g>
    <use
       xlink:href="#d"
       transform="scale(-1,1)"
       id="use109" />
    <path
       d="m -8.9,398.7 q 0.8,11.7 8.9,22.2 8.2,-10.5 8.9,-22.2"
       class="white"
       id="path110" />
    <path
       stroke="#21231e"
       d="m 67.5,422 v 108.5 c 0,19.4 -8,37.1 -20,49.8 C 35.5,593 18,602 0,602 c -18,0 -35.5,-9 -47.5,-21.7 -12,-12.7 -20,-30.4 -20,-49.8 V 422 Z"
       class="red"
       id="path111" />
    <path
       fill="#ffffff"
       d="m 67,488.5 v 28 H 13.5 v 83 q -13.5,3 -27,0 v -83 H -67 v -28 h 53.5 v -66 h 27 v 66 z"
       class="base"
       id="path112" />
    <path
       id="e"
       d="m 23,528 c 8,-3 30,-10 30,7.5 0,8.4 -10.2,13.9 -13,6.5 -1.4,-3.7 0.1,-6.1 2.2,-6.9 2.1,-0.8 4.4,1 3.8,3.7 8.8,-4.7 -8.3,-14.3 -15.5,-1.7 -2,3.5 3.7,7.6 3.7,10.4 0,2.8 -5.7,6.9 -3.7,10.4 7.2,12.6 24.3,3 15.5,-1.7 0.6,2.7 -1.7,4.5 -3.8,3.7 -2.1,-0.8 -3.6,-3.2 -2.2,-6.9 2.8,-7.4 13,-1.9 13,6.5 C 53,577 31,570 23,567 Z"
       class="white" />
    <use
       xlink:href="#e"
       y="-90"
       transform="scale(-1,1)"
       id="use112" />
    <use
       xlink:href="#e"
       y="-90"
       id="use113" />
    <use
       xlink:href="#e"
       transform="scale(-1,1)"
       id="use114" />
  </g>
</svg>
