<?xml version="1.0" encoding="UTF-8" standalone="no"?>
<svg
   width="1000"
   height="600"
   viewBox="0 0 200 120"
   fill="#0000ff"
   version="1.1"
   id="svg6"
   xmlns:xlink="http://www.w3.org/1999/xlink"
   xmlns="http://www.w3.org/2000/svg"
   xmlns:svg="http://www.w3.org/2000/svg">
  <defs
     id="defs6" />
  <path
     d="M 0,0 H 200 V 120 H 0 Z"
     fill="#ff0000"
     id="path1"
     style="stroke-width:0.912871" />
  <path
     d="M 0,0 H 200 V 80 H 0 Z"
     id="path2"
     style="stroke-width:0.912871" />
  <path
     d="M 0,0 H 200 V 40 H 0 Z"
     fill="#ffffff"
     id="path3"
     style="stroke-width:0.912871" />
  <g
     transform="matrix(0.3914,0,0,0.3914,55.2,60)"
     id="g6">
    <path
       d="m -37.175,-94.368 a 92.195,92.195 0 0 1 74.35,0 Q 43,-12 0,-1 -43,-12 -37.175,-94.368 Z"
       id="path4" />
    <path
       id="a"
       d="M 0,-84.5 1.125,-81.949 3.897,-82.25 2.25,-80 3.897,-77.75 1.125,-78.051 0,-75.5 l -1.125,-2.551 -2.772,0.301 1.647,-2.25 -1.647,-2.25 2.772,0.301"
       fill="#ffff00" />
    <use
       xlink:href="#a"
       x="-10.5"
       y="-14"
       id="use4" />
    <use
       xlink:href="#a"
       x="10.5"
       y="-14"
       id="use5" />
    <path
       d="m 0,-70 9,18 6,-8 15,20 A 10,10 0 0 1 29.615,-37.253 46.4,46.4 0 0 1 0,-6.09 46.4,46.4 0 0 1 -29.615,-37.252 10,10 0 0 1 -30,-40 l 15,-20 6,8 z"
       fill="#ffffff"
       id="path5" />
    <path
       id="b"
       d="m -29.615,-37.253 a 10,10 0 0 0 14.615,5.913 10,10 0 0 1 10,0 10,10 0 0 0 10,0 10,10 0 0 1 10,0 10,10 0 0 0 14.615,-5.913 l 0.385,0.14 v 7.32 a 10,10 0 0 0 -5,1.34 10,10 0 0 1 -10,0 10,10 0 0 0 -10,0 10,10 0 0 1 -10,0 10,10 0 0 0 -10,0 10,10 0 0 1 -10,0 10,10 0 0 0 -5,-1.34 v -7.32" />
    <use
       xlink:href="#b"
       y="5.7740002"
       id="use6" />
    <path
       d="m -40,-93.066 a 92.195,92.195 0 0 1 2.825,-1.302 l 2.97,47.449 A 49.301,49.301 0 0 0 0,-3.036 49.301,49.301 0 0 0 34.205,-46.92 l 2.97,-47.45 A 92.195,92.195 0 0 1 40,-93.065 l -2.9,46.328 A 52.202,52.202 0 0 1 0,0 52.202,52.202 0 0 1 -37.1,-46.738 Z"
       fill="#ff0000"
       id="path6" />
  </g>
</svg>
