<?xml version="1.0" encoding="UTF-8" standalone="no"?>
<svg
   width="900"
   height="540"
   viewBox="0 0 10800 6480"
   fill="#ee1c25"
   version="1.1"
   id="svg5"
   xmlns:xlink="http://www.w3.org/1999/xlink"
   xmlns="http://www.w3.org/2000/svg"
   xmlns:svg="http://www.w3.org/2000/svg">
  <defs
     id="defs1">
    <clipPath
       id="b">
      <path
         id="a"
         d="m 4678,1746 c 0,0 56,561 56,1683 -8,1146 -865,1726 -1494,2031 -629,-305 -1486,-885 -1494,-2031 0,-1122 56,-1683 56,-1683 z" />
    </clipPath>
  </defs>
  <path
     fill="#ffffff"
     d="M 0,0 H 10800 V 6480.0001 H 0 Z"
     id="path1"
     style="stroke-width:0.948683" />
  <path
     fill="#0b4ea2"
     d="m 0,2160.0001 h 10800 v 4320 H 0 Z"
     id="path2"
     style="stroke-width:0.948683" />
  <path
     d="M 0,4319.9999 H 10800 V 6480.0001 H 0 Z"
     id="path3"
     style="stroke-width:0.948683" />
  <use
     xlink:href="#a"
     id="use3"
     transform="translate(0,-360)" />
  <path
     fill="#ffffff"
     d="M 3113,4440 V 3037 c -475,0 -610,42 -752,85 a 2323,2323 0 0 0 0,-431 c 142,43 277,85 752,85 v -390 c -150,0 -357,6 -595,87 a 2323,2323 0 0 0 0,-432 c 238,80 445,86 595,86 0,-113 -35,-356 -79,-557 a 2323,2323 0 0 0 412,0 c -44,201 -79,444 -79,557 150,0 357,-6 595,-86 a 2323,2323 0 0 0 0,432 c -238,-81 -445,-87 -595,-87 v 390 c 475,0 610,-42 752,-85 a 2323,2323 0 0 0 0,431 c -142,-43 -277,-85 -752,-85 v 1403 z"
     id="path4" />
  <path
     clip-path="url(#b)"
     fill="#0b4ea2"
     d="m 2463,5903 a 507,867 0 1 1 319,-1541 584,1084 0 0 1 916,0 507,867 0 1 1 319,1541 z"
     id="path5"
     transform="translate(0,-360)" />
  <use
     xlink:href="#a"
     fill="none"
     stroke="#ffffff"
     stroke-width="108"
     id="use5"
     transform="translate(0,-360)" />
</svg>
