<?xml version="1.0" encoding="UTF-8" standalone="no"?>
<svg
   height="450"
   width="750"
   version="1.1"
   id="svg49"
   xmlns="http://www.w3.org/2000/svg"
   xmlns:svg="http://www.w3.org/2000/svg">
  <defs
     id="defs49" />
  <path
     d="M 0,0 H 750 V 450 H 0 Z"
     fill="#012a87"
     id="path1"
     style="stroke-width:1.0541" />
  <path
     d="M 0,0 H 750 V 225 H 0 Z"
     fill="#dc171d"
     id="path2"
     style="stroke-width:1.0541" />
  <path
     d="M 0,0 V 450 L 300,225 Z"
     fill="#ffffff"
     id="path3" />
  <path
     d="m 151.55292,169.84765 0.0945,-3.48094 c 0,0 -1.87087,-2.98205 0.29858,-6.18331 0,0 -4.61102,-2.4378 -3.53764,-6.25891 0,0 -4.1726,-1.06582 -3.86646,-5.65417 0,0 -4.49764,-0.3137 -4.9663,-4.14615 0,0 -4.50142,0.74079 -6.48189,-2.99338 0,0 -4.39182,0.85795 -5.6315,-2.21859 0,0 -4.27087,1.4778 -6.80316,-2.13921 0,0 -4.5052,1.82173 -6.39496,-1.59496 -1.86331,3.40157 -6.37229,1.59496 -6.37229,1.59496 -2.50205,3.60567 -6.80315,2.10897 -6.80315,2.10897 -1.194334,3.09166 -5.57481,2.21481 -5.57481,2.21481 -1.972914,3.73418 -6.470555,2.98961 -6.470555,2.98961 -0.442205,3.8211 -4.936066,4.1348 -4.936066,4.1348 0.355276,4.59969 -3.809766,5.64284 -3.809766,5.64284 1.096063,3.81733 -3.507404,6.25134 -3.507404,6.25134 2.226143,3.22016 0.374173,6.17576 0.374173,6.17576 l -0.105827,3.2126 74.505875,0.34393 z"
     fill="#f9d90f"
     stroke="#000000"
     stroke-width="0.40063"
     id="path4" />
  <g
     stroke-width="2.022"
     transform="matrix(1.8697,0,0,1.8687,193.7,289.09)"
     id="g6">
    <path
       d="m -42.413,-75.046 c 1.068,1.078 0.07,1.668 -0.916,1.114 -2.434,-1.843 -5.28,-2.865 -9.193,-1.751 -5.623,0.02 -11.597,-0.318 -14.328,2.667 -0.195,0.575 -1.72,2.745 4.179,-0.438 -0.368,2.201 2.376,0.402 4.497,-0.597 -1.461,1.528 2.238,1.779 4.577,0.278 -1.15,1.544 0.87,1.502 2.786,1.513 2.803,0.087 1.254,2.526 -3.542,2.627 -0.35,-0.025 -1.695,0.606 0.12,1.074 0.84,0.042 0.156,1.214 3.064,-0.278 -0.18,0.873 1.065,0.704 2.826,0.159 0.998,0.785 1.808,-0.029 2.666,-0.438 3.674,1.437 8.526,2.875 9.83,-2.11 3.067,-0.353 5.605,-0.803 4.231,-1.97 3.995,1.629 4.226,1 4.165,0.196 1.916,0.725 4.144,1.705 3.237,0.113 1.841,0.47 3.858,0.635 5.431,1.576 1.594,0.826 1.078,-0.617 0.704,-1.266 -0.817,-1.307 -1.848,-1.692 -4.176,-1.74 -1.973,-0.04 -11.22,-2.62 -16.03,0.164 h 0.027 c -0.085,0 -1.998,-1.801 -1.998,-1.801 0.44,-0.012 0.758,-0.234 1.013,-0.563 a 17.995,17.995 0 0 0 5.629,-0.591 c 0.855,-0.267 1.342,0.242 1.323,0.619 0.782,-1.376 -0.301,-1.661 -1.098,-1.604 -3.174,0.18 -5.079,0.014 -6.613,-0.254 -3.043,-1.518 -6.704,0.811 -3.321,2.73 z"
       fill="#bc715f"
       stroke="#000000"
       stroke-width="0.214"
       id="path5" />
    <path
       d="m -41.698,-77.742 c -0.637,0.095 -1.294,0.172 -1.548,0.613 0.019,-0.726 1.099,-0.776 1.548,-0.613 z"
       id="path6" />
    <ellipse
       cx="-42.035999"
       cy="-77.473999"
       rx="0.27399999"
       ry="0.28099999"
       id="ellipse6" />
  </g>
  <g
     stroke="#000000"
     id="g36">
    <path
       d="m -136.207,91.44 c 0.622,3.528 1.312,7.143 1.65,10.836 0.74,5.469 -2.588,10.06 -1.223,15.464 0.815,2.592 3.666,4.099 6.275,4.398 3.462,0.654 7.646,0.002 10.173,2.59 2.527,-2.589 6.712,-1.936 10.173,-2.59 2.61,-0.299 5.46,-1.806 6.275,-4.398 1.365,-5.403 -1.962,-9.995 -1.223,-15.464 0.339,-3.693 1.029,-7.308 1.65,-10.835 -6.093,3.308 -12.114,-0.996 -16.875,1.756 -4.76,-2.752 -10.782,1.552 -16.875,-1.756 z"
       fill="#dc171d"
       stroke-width="0.106"
       transform="matrix(3.77953,0,0,3.77953,565.385,-184.831)"
       id="path7" />
    <path
       d="m -133.935,94.29 c 0.537,2.91 1.133,5.893 1.426,8.94 0.637,4.512 -2.236,8.3 -1.057,12.758 0.703,2.14 3.166,3.383 5.42,3.629 2.99,0.54 6.604,10e-4 8.786,2.138 2.182,-2.137 5.797,-1.598 8.786,-2.138 2.254,-0.246 4.717,-1.49 5.42,-3.629 1.179,-4.457 -1.694,-8.246 -1.057,-12.758 0.293,-3.047 0.89,-6.03 1.426,-8.94 -5.263,2.73 -10.463,-0.821 -14.575,1.449 -4.112,-2.27 -9.312,1.28 -14.575,-1.45 z"
       fill="#62afe1"
       stroke-width="0.106"
       transform="matrix(3.77953,0,0,3.77953,565.385,-184.831)"
       id="path8" />
    <g
       stroke-width="0.238"
       id="g18">
      <g
         fill="#ffffff"
         id="g15">
        <g
           stroke-linecap="round"
           id="g12">
          <path
             d="m -90.037,-62.937 -6.158,4.22 v 5.08 h 18.029 v -5.08 l -6.158,-4.22 z"
             transform="matrix(3.77953,0,0,3.77953,443.763,440.25)"
             id="path9" />
          <path
             d="m -97.658,-54.477 v 0.971 h 0.593 v 4.99 h 19.768 v -4.99 h 0.593 v -0.971 z m 10.477,-13.963 -2.856,2.78 v 2.723 h 5.713 v -2.723 z m -8.124,10.412 h 1.806 v 2.861 h -1.806 z m 5.128,0 h 1.806 v 2.861 h -1.806 z m 11.12,0 h -1.806 v 2.861 h 1.806 z m -5.127,0 h -1.807 v 2.861 h 1.807 z"
             transform="matrix(3.77953,0,0,3.77953,443.763,440.25)"
             id="path10" />
          <path
             d="m -95.305,-53.053 h 1.806 v 2.86 h -1.806 z m 16.248,0 h -1.806 v 2.86 h 1.806 z m -6.708,-0.162 h -2.832 v 4.699 h 2.832 z m -4.478,-1.262 h -1.27 v 5.961 h 1.27 z m 6.124,0 h 1.271 v 5.961 h -1.27 z"
             transform="matrix(3.77953,0,0,3.77953,443.763,440.25)"
             id="path11" />
          <path
             d="m -82.377,-54.273 v -1.472 h -9.608 v 1.472 z"
             transform="matrix(3.77953,0,0,3.77953,443.763,440.25)"
             id="path12" />
        </g>
        <path
           d="m -90.037,-65.66 h 5.713 m -11.871,6.943 h 18.029"
           transform="matrix(3.77953,0,0,3.77953,443.763,440.25)"
           id="path13" />
        <g
           stroke-linecap="round"
           id="g14">
          <path
             d="m -98.11,-49.139 h 21.859 v 1.545 h -21.86 z m 12.019,-15.932 h -2.18 v 1.544 h 2.18 z"
             transform="matrix(3.77953,0,0,3.77953,443.763,440.25)"
             id="path14" />
        </g>
      </g>
      <g
         fill="none"
         id="g17">
        <g
           stroke-width="0.265"
           id="g16">
          <path
             d="m -91.299,-55.745 v 1.472 m 8.236,-1.472 v 1.472 m -0.687,-1.472 v 1.472 m -0.686,-1.472 v 1.472 m -0.686,-1.472 v 1.472 m -0.686,-1.472 v 1.472 m -0.687,-1.472 v 1.472 m -0.685,-1.472 v 1.472 m -0.687,-1.472 v 1.472 m -0.686,-1.472 v 1.472 m -0.687,-1.472 v 1.472 m -0.686,-1.472 v 1.472 m -0.686,-1.472 v 1.472"
             transform="matrix(3.77953,0,0,3.77953,443.763,440.25)"
             id="path15" />
        </g>
        <path
           d="m -82.377,-55.645 v 1.372"
           transform="matrix(3.77953,0,0,3.77953,443.763,440.25)"
           id="path16" />
      </g>
    </g>
    <g
       fill="#008830"
       stroke-width="0.255"
       id="g26">
      <path
         d="m -30.543,-85.287 c 2.909,1.856 4.284,3.573 4.291,5.165 -3.62,-0.193 -6.893,-1.897 -4.29,-5.165 z"
         transform="matrix(1.76318,0,0,1.76283,133.11,330.853)"
         id="path18" />
      <path
         d="m -28.2,-83.598 c 2.8,1.594 4.38,3.329 4.866,5.19 -2.846,0.496 -5.882,-0.847 -4.866,-5.19 z m -3.621,2.738 c 0.377,3.202 -0.085,5.502 -1.296,6.997 -2.085,-1.998 -2.804,-5.239 1.296,-6.996 z"
         transform="matrix(1.76318,0,0,1.76283,133.11,330.853)"
         id="path19" />
      <path
         d="m -31.818,-80.85 c 2.632,1.862 4.032,3.744 4.334,5.644 -2.88,0.214 -5.77,-1.42 -4.334,-5.643 z"
         transform="matrix(1.76318,0,0,1.76283,133.11,330.853)"
         id="path20" />
      <path
         d="m -30.07,-83.411 1.212,0.757 1.302,-0.128 0.545,0.899 c 0,0 -0.146,1.848 -0.147,2.016 -10e-4,0.169 0.402,1.202 0.402,1.202 l -0.886,0.644 -2.372,0.972 -2.218,-1.802 -1.399,0.145 -0.613,-1.738 0.689,-1.482 1.731,-1.124 z"
         transform="matrix(1.76318,0,0,1.76283,133.11,330.853)"
         id="path21" />
      <path
         d="m -32.347,-82.492 c -1.14,3.015 -2.61,4.843 -4.373,5.613 -0.93,-2.734 -0.075,-5.942 4.373,-5.613 z"
         transform="matrix(1.76318,0,0,1.76283,133.11,330.853)"
         id="path22" />
      <path
         d="m -32.353,-82.272 c -3.162,-0.623 -5.21,-1.767 -6.262,-3.378 2.541,-1.373 5.846,-1.063 6.262,3.378 z m 6.047,0.108 c 3.21,0.285 5.496,-0.243 6.956,-1.496 -2.057,-2.028 -5.318,-2.652 -6.956,1.496 z"
         transform="matrix(1.76318,0,0,1.76283,133.11,330.853)"
         id="path23" />
      <path
         d="m -26.296,-82.16 c 1.936,2.576 3.857,3.922 5.765,4.169 0.131,-2.886 -1.586,-5.727 -5.765,-4.17 z m -1.009,1.574 c 2.413,2.137 3.6,4.16 3.693,6.083 -2.887,-0.102 -5.581,-2.042 -3.693,-6.083 z"
         transform="matrix(1.76318,0,0,1.76283,133.11,330.853)"
         id="path24" />
      <path
         d="m -28.3,-77.045 c 1.652,2.768 2.17,5.056 1.675,6.916 -2.72,-0.973 -4.699,-3.638 -1.674,-6.916 z"
         transform="matrix(1.76318,0,0,1.76283,133.11,330.853)"
         id="path25" />
      <path
         d="m -29.46,-77.224 c 0.365,3.202 -0.105,5.5 -1.321,6.992 -2.079,-2.006 -2.785,-5.25 1.32,-6.992 z"
         transform="matrix(1.76318,0,0,1.76283,133.11,330.853)"
         id="path26" />
    </g>
    <g
       fill="#f9d90f"
       id="g35">
      <g
         stroke-width="0.262"
         id="g28">
        <path
           d="m -31.378,-80.613 a 1.165,1.165 0 0 1 -0.458,-0.752 c -0.036,-0.247 -0.016,-0.406 0.096,-0.754 0.056,-0.177 0.1,-0.325 0.1,-0.33 a 0.345,0.345 0 0 0 -0.099,-0.03 c -0.091,-0.018 -0.102,-0.012 -0.266,0.14 -0.56,0.516 -1.07,0.764 -1.42,0.688 -0.404,-0.088 -0.56,-0.65 -0.334,-1.213 0.191,-0.479 0.55,-0.772 1.01,-0.824 a 0.933,0.933 0 0 1 0.439,0.042 c 0.13,0.035 0.231,0.054 0.225,0.041 a 1.51,1.51 0 0 0 -0.22,-0.156 c -0.565,-0.359 -0.9,-0.773 -0.922,-1.144 -0.016,-0.27 0.16,-0.528 0.462,-0.677 a 1.124,1.124 0 0 1 1.437,0.404 c 0.142,0.229 0.179,0.41 0.179,0.881 0,0.273 0.01,0.43 0.031,0.438 0.018,0.008 0.064,0.05 0.104,0.095 l 0.071,0.08 0.28,-0.229 c 0.286,-0.234 0.493,-0.377 0.724,-0.5 0.321,-0.17 0.699,-0.22 0.888,-0.114 0.415,0.232 0.413,0.986 -0.003,1.502 -0.338,0.419 -0.851,0.566 -1.32,0.38 a 3.753,3.753 0 0 0 -0.331,-0.114 l -0.14,-0.038 0.216,0.275 c 0.292,0.37 0.455,0.635 0.568,0.92 0.213,0.536 0.105,0.95 -0.295,1.127 -0.308,0.137 -0.711,0.082 -1.022,-0.138 z"
           transform="matrix(1.7209,0,0,1.72057,131.465,327.089)"
           id="path27" />
        <path
           d="m -59.336,-65.64 a 0.649,0.73 0 0 1 -0.65,0.73 0.649,0.73 0 0 1 -0.648,-0.73 0.649,0.73 0 0 1 0.649,-0.73 0.649,0.73 0 0 1 0.649,0.73 z"
           transform="matrix(1.59864,0.63693,-0.63705,1.59834,131.465,327.089)"
           id="path28" />
      </g>
      <g
         stroke-width="0.255"
         id="g30">
        <path
           d="m -28.657,-84.003 c 0.002,0.248 0.044,0.404 0.198,0.741 0.078,0.171 0.141,0.315 0.14,0.32 0,0.005 -0.04,0.022 -0.087,0.036 -0.082,0.026 -0.094,0.02 -0.269,-0.116 -0.597,-0.47 -1.11,-0.676 -1.426,-0.574 -0.367,0.119 -0.43,0.688 -0.139,1.23 0.248,0.46 0.626,0.722 1.063,0.738 a 0.81,0.81 0 0 0 0.405,-0.075 c 0.116,-0.045 0.209,-0.072 0.205,-0.059 -0.004,0.014 -0.086,0.09 -0.183,0.172 -0.478,0.4 -0.73,0.837 -0.698,1.207 0.023,0.268 0.225,0.51 0.53,0.635 a 0.977,0.977 0 0 0 1.286,-0.512 c 0.1,-0.237 0.108,-0.42 0.04,-0.887 -0.04,-0.271 -0.052,-0.427 -0.034,-0.437 a 0.424,0.424 0 0 0 0.083,-0.102 l 0.055,-0.086 0.295,0.206 c 0.301,0.21 0.515,0.336 0.75,0.44 0.324,0.145 0.685,0.164 0.847,0.045 0.354,-0.262 0.244,-1.01 -0.22,-1.49 -0.376,-0.389 -0.878,-0.496 -1.29,-0.274 -0.092,0.05 -0.224,0.112 -0.292,0.138 l -0.126,0.049 0.163,-0.29 c 0.219,-0.39 0.334,-0.665 0.399,-0.956 0.122,-0.548 -0.04,-0.95 -0.439,-1.096 -0.308,-0.111 -0.677,-0.026 -0.906,0.188 -0.229,0.214 -0.353,0.519 -0.35,0.81 z"
           transform="matrix(1.76318,0,0,1.76283,133.11,330.477)"
           id="path29" />
        <path
           d="m -28.622,-82.545 a 0.635,0.732 32.565 0 1 0.9,-0.408 0.635,0.732 32.565 0 1 0.271,0.91 0.635,0.732 32.565 0 1 -0.9,0.408 0.635,0.732 32.565 0 1 -0.271,-0.91 z"
           transform="matrix(1.76318,0,0,1.76283,133.11,330.477)"
           id="path30" />
      </g>
      <g
         stroke-width="0.224"
         id="g32">
        <path
           d="m -31.603,-77.281 c -0.12,-0.228 -0.158,-0.391 -0.183,-0.775 a 6.262,6.262 0 0 0 -0.028,-0.361 0.306,0.306 0 0 0 -0.098,0.01 c -0.088,0.017 -0.096,0.027 -0.188,0.239 -0.315,0.722 -0.683,1.163 -1.022,1.225 -0.393,0.072 -0.73,-0.417 -0.73,-1.055 0,-0.542 0.217,-0.968 0.608,-1.197 a 0.84,0.84 0 0 1 0.407,-0.13 c 0.128,-0.016 0.226,-0.038 0.216,-0.048 -0.01,-0.01 -0.123,-0.04 -0.252,-0.067 -0.632,-0.13 -1.078,-0.405 -1.23,-0.759 -0.11,-0.256 -0.045,-0.577 0.171,-0.84 0.364,-0.443 0.994,-0.516 1.427,-0.165 0.208,0.168 0.305,0.331 0.472,0.791 0.097,0.267 0.163,0.416 0.184,0.416 a 0.44,0.44 0 0 1 0.126,0.052 l 0.093,0.051 0.168,-0.333 c 0.172,-0.34 0.306,-0.56 0.469,-0.77 0.225,-0.292 0.545,-0.487 0.752,-0.457 0.452,0.064 0.718,0.801 0.53,1.468 -0.152,0.54 -0.558,0.884 -1.043,0.884 -0.108,0 -0.26,0.008 -0.335,0.018 l -0.138,0.018 0.29,0.184 c 0.392,0.248 0.632,0.444 0.834,0.677 0.38,0.442 0.431,0.888 0.137,1.217 a 0.948,0.948 0 0 1 -0.919,0.274 1.156,1.156 0 0 1 -0.718,-0.567 z"
           transform="matrix(1.93975,0.51978,-0.5195,1.93888,97.464,361.016)"
           id="path31" />
        <path
           d="m -31.259,-79.217 a 0.623,0.767 0 0 1 -0.623,0.767 0.623,0.767 0 0 1 -0.623,-0.767 0.623,0.767 0 0 1 0.623,-0.767 0.623,0.767 0 0 1 0.623,0.767 z"
           transform="matrix(1.93975,0.51978,-0.5195,1.93888,97.464,361.016)"
           id="path32" />
      </g>
      <g
         stroke-width="0.229"
         id="g34">
        <path
           d="m -28.182,-76.458 c -0.12,-0.228 -0.158,-0.39 -0.183,-0.775 a 6.272,6.272 0 0 0 -0.028,-0.36 0.306,0.306 0 0 0 -0.098,0.01 c -0.088,0.017 -0.096,0.027 -0.188,0.238 -0.315,0.723 -0.683,1.163 -1.022,1.225 -0.392,0.072 -0.73,-0.416 -0.73,-1.054 0,-0.543 0.217,-0.969 0.608,-1.198 a 0.84,0.84 0 0 1 0.407,-0.13 c 0.129,-0.016 0.226,-0.037 0.216,-0.048 -0.01,-0.01 -0.123,-0.04 -0.252,-0.066 -0.632,-0.13 -1.078,-0.406 -1.23,-0.76 -0.11,-0.256 -0.045,-0.577 0.172,-0.84 0.363,-0.443 0.993,-0.515 1.426,-0.165 0.208,0.168 0.306,0.332 0.473,0.792 0.096,0.266 0.162,0.415 0.184,0.415 a 0.44,0.44 0 0 1 0.126,0.052 l 0.092,0.051 0.169,-0.333 c 0.171,-0.34 0.305,-0.56 0.468,-0.77 0.225,-0.292 0.545,-0.487 0.752,-0.457 0.452,0.064 0.719,0.801 0.53,1.468 -0.152,0.54 -0.558,0.885 -1.043,0.885 -0.108,0 -0.26,0.007 -0.335,0.017 l -0.138,0.018 0.29,0.184 c 0.392,0.249 0.632,0.444 0.834,0.678 0.381,0.44 0.431,0.887 0.138,1.216 a 0.948,0.948 0 0 1 -0.92,0.274 1.156,1.156 0 0 1 -0.718,-0.567 z"
           transform="matrix(1.8813,-0.55579,-0.5556,-1.88072,94,29.974)"
           id="path33" />
        <path
           d="m -82.333,7.207 a 0.69,0.767 0 0 1 -0.69,0.766 0.69,0.767 0 0 1 -0.69,-0.766 0.69,0.767 0 0 1 0.69,-0.767 0.69,0.767 0 0 1 0.69,0.767 z"
           transform="matrix(-0.04988,-1.96048,-1.961,0.04996,94,29.974)"
           id="path34" />
      </g>
    </g>
    <path
       d="m -107.372,102.758 h -0.757 v -0.538 h -0.644 v -0.614 h -0.738 v -3.9 l -0.841,-1.47 -0.84,1.47 v 3.9 h -0.739 v 0.614 h -0.644 v 0.538 h -0.757 v 0.794 l 5.96,0.017 z"
       fill="#ffffff"
       stroke-width="0.212"
       transform="matrix(3.77953,0,0,3.77953,565.385,-184.831)"
       id="path35" />
  </g>
  <path
     d="m 114.511,296.058 c 11.445,0.037 25.52,-2.3 32.114,-5.708 l 14.48,-1.283 0.289,17.668 c -12.267,6.763 -40.59,8.216 -46.821,8.167 -6.238,0.05 -34.91,-1.428 -47.232,-8.216 l 0.16,-17.68 14.51,1.306 c 6.594,3.392 21.099,5.746 32.531,5.746 h -0.03"
     fill="#f9d90f"
     id="path36" />
  <path
     d="M 67.34,306.686 82.274,303.27 67.391,301.14 Z"
     fill="#f9b60f"
     id="path37" />
  <path
     d="m 30.063,220.7 12.757,4.06 -3.858,20.654 -12.076,1.875 c 0,0 -2.036,-10.86 3.177,-26.6"
     fill="#f9d90f"
     id="path38" />
  <path
     d="m 26.886,247.29 7.845,-10.824 4.231,8.948 z"
     fill="#f9b60f"
     id="path39" />
  <g
     fill="none"
     stroke="#000000"
     stroke-width="0.106"
     id="g40">
    <path
       d="m -109.425,-58.09 3.375,1.075 -1.02,5.464 -3.196,0.497 c 0,0 -0.538,-2.874 0.84,-7.039 v 0.004 z m 9.863,22.75 3.976,-0.903 m -12.601,-17.692 1.116,2.384"
       transform="matrix(3.77953,0,0,3.77953,443.638,440.25)"
       id="path40" />
  </g>
  <path
     d="m 161.394,306.735 -14.933,-3.416 14.883,-2.13 z"
     fill="#f9b60f"
     id="path41" />
  <path
     d="m 198.672,220.75 -12.758,4.06 3.858,20.653 12.077,1.876 c 0,0 2.036,-10.86 -3.177,-26.602"
     fill="#f9d90f"
     id="path42" />
  <path
     d="m 201.849,247.339 -7.845,-10.824 -4.232,8.948 z"
     fill="#f9b60f"
     id="path43" />
  <g
     fill="none"
     stroke="#000000"
     stroke-width="0.106"
     id="g44">
    <path
       d="m -64.814,-58.076 -3.375,1.074 1.02,5.464 3.195,0.497 c 0,0 0.54,-2.874 -0.84,-7.039 z m -9.863,22.75 -3.976,-0.904 m 12.601,-17.692 -1.117,2.384 m -19.912,13.387 c 3.028,0.01 6.752,-0.608 8.496,-1.51 l 3.832,-0.34 0.076,4.675 c -3.246,1.79 -10.74,2.174 -12.388,2.16 -1.65,0.014 -9.237,-0.377 -12.497,-2.173 l 0.042,-4.678 3.84,0.346 c 1.744,0.897 5.582,1.52 8.607,1.52 h -0.008"
       transform="matrix(3.77953,0,0,3.77953,443.638,440.25)"
       id="path44" />
  </g>
  <path
     d="m 206.301,235.627 -12.297,0.888 c -0.276,10.42 -1.54,50.18 -49.023,52.338 l 1.478,14.466 c 57.8,0.6 62.191,-48.769 59.842,-67.692"
     fill="#f9d90f"
     id="path45" />
  <path
     d="m 206.30241,235.62625 -12.29859,0.88819 c -0.2759,10.42016 -1.53827,50.18082 -49.0205,52.33893 l 1.47402,14.46426 c 57.80035,0.60094 62.19216,-48.76728 59.84507,-67.69138 z"
     fill="none"
     stroke="#000000"
     stroke-width="0.40063"
     id="path46" />
  <path
     d="m 22.433,235.578 12.298,0.888 c 0.275,10.42 1.539,50.18 49.022,52.338 l -1.478,14.466 c -57.8,0.6 -62.19,-48.769 -59.842,-67.692"
     fill="#f9d90f"
     id="path47" />
  <path
     d="m 22.432059,235.57711 12.29859,0.88819 c 0.275906,10.42017 1.538269,50.18082 49.020504,52.33893 l -1.474016,14.46426 C 24.476784,303.86944 20.084971,254.50122 22.432059,235.57711 Z"
     fill="none"
     stroke="#000000"
     stroke-width="0.40063"
     id="path48" />
  <g
     fill="#012a87"
     stroke-width="0.026"
     id="g49">
    <path
       d="m 106.45,304.766 c -0.326,0.208 -0.767,0.264 -1.276,0.239 l -2.294,-0.117 0.196,-2.863 2.276,0.122 c 0.447,0.03 0.803,0.117 1.024,0.252 0.46,0.239 0.662,0.681 0.62,1.294 -0.031,0.527 -0.215,0.87 -0.553,1.073 m -3.851,4.507 0.227,-3.49 2.674,0.185 c 0.865,0.068 1.509,-0.16 1.944,-0.601 0.454,-0.43 0.687,-0.993 0.718,-1.63 0.055,-0.743 -0.135,-1.35 -0.577,-1.798 -0.423,-0.43 -1.024,-0.656 -1.779,-0.73 l -3.82,-0.238 -0.528,8.216 1.135,0.074 m 8.699,-6.862 2.797,0.03 c 0.405,0.037 0.724,0.086 0.957,0.197 0.43,0.202 0.632,0.607 0.632,1.195 0,0.553 -0.16,0.92 -0.473,1.141 -0.3,0.202 -0.736,0.294 -1.257,0.294 l -2.686,-0.03 0.024,-2.827 m -0.043,7.278 0.025,-3.507 2.625,0.037 c 0.466,0 0.81,0.037 1.049,0.153 0.386,0.178 0.576,0.553 0.595,1.067 l 0.067,1.38 c 0.019,0.33 0.025,0.534 0.043,0.668 0.037,0.098 0.055,0.202 0.104,0.277 h 1.411 l -0.025,-0.179 c -0.159,-0.086 -0.288,-0.25 -0.343,-0.503 -0.05,-0.159 -0.074,-0.398 -0.086,-0.699 l -0.024,-1.097 c -0.019,-0.497 -0.105,-0.84 -0.295,-1.03 a 1.47,1.47 0 0 0 -0.742,-0.528 c 0.393,-0.208 0.687,-0.447 0.902,-0.742 0.202,-0.325 0.306,-0.736 0.306,-1.238 0,-0.944 -0.386,-1.589 -1.171,-1.938 -0.423,-0.19 -0.963,-0.288 -1.6,-0.3 l -3.945,-0.038 -0.03,8.242 h 1.135 m 9.343,-1.748 c -0.504,-0.612 -0.774,-1.379 -0.835,-2.286 -0.055,-1.141 0.166,-2.012 0.687,-2.6 0.527,-0.639 1.208,-0.945 2.097,-0.994 0.896,-0.049 1.632,0.24 2.178,0.803 0.558,0.552 0.877,1.319 0.932,2.276 0.03,0.919 -0.129,1.734 -0.552,2.452 -0.417,0.73 -1.11,1.141 -2.134,1.165 -1.068,0.056 -1.865,-0.196 -2.374,-0.816 m -1.35,-5.187 c -0.527,0.815 -0.741,1.76 -0.686,2.9 0.08,1.233 0.46,2.251 1.177,3.018 0.798,0.766 1.853,1.152 3.153,1.078 1.392,-0.061 2.44,-0.588 3.152,-1.557 0.577,-0.877 0.853,-1.895 0.792,-3.152 -0.08,-1.122 -0.405,-2.036 -1.012,-2.717 -0.767,-0.913 -1.89,-1.317 -3.41,-1.256 -1.436,0.091 -2.49,0.619 -3.171,1.686 m -91.16,-51.887 0.19,1.029 c -0.46,0.092 -0.828,0.277 -1.098,0.516 -0.485,0.453 -0.65,1.134 -0.485,2.06 0.074,0.392 0.215,0.778 0.393,1.085 0.368,0.626 0.846,0.877 1.454,0.779 0.447,-0.08 0.742,-0.251 0.883,-0.57 0.135,-0.313 0.233,-0.792 0.264,-1.404 l 0.055,-1.16 c 0.038,-0.717 0.116,-1.28 0.276,-1.594 0.251,-0.564 0.723,-0.914 1.429,-1.03 a 2.457,2.457 0 0 1 1.987,0.466 c 0.576,0.398 0.957,1.091 1.098,2.011 0.178,0.84 0.098,1.595 -0.233,2.275 -0.32,0.663 -0.933,1.067 -1.871,1.239 l -0.184,-1.042 c 0.435,-0.16 0.76,-0.314 0.975,-0.528 0.368,-0.411 0.478,-1.005 0.337,-1.82 -0.11,-0.664 -0.337,-1.093 -0.68,-1.307 -0.338,-0.252 -0.675,-0.35 -1.043,-0.288 -0.411,0.061 -0.681,0.288 -0.81,0.656 -0.08,0.245 -0.14,0.754 -0.196,1.533 l -0.055,1.201 c -0.03,0.564 -0.117,1.031 -0.307,1.35 -0.3,0.588 -0.81,0.95 -1.551,1.066 -0.939,0.16 -1.663,-0.055 -2.178,-0.656 -0.527,-0.588 -0.852,-1.294 -1.018,-2.17 -0.184,-1.043 -0.049,-1.852 0.368,-2.502 0.423,-0.668 1.092,-1.055 2,-1.183 m -0.522,10.86 8.109,-2.441 1.889,5.708 -0.988,0.313 -1.545,-4.69 -2.466,0.742 1.429,4.334 -0.945,0.301 -1.416,-4.347 -2.748,0.821 1.57,4.795 -0.969,0.277 -1.92,-5.813 m 3.594,9.896 7.458,-3.954 0.798,1.391 -5.128,5.42 7.49,-1.28 0.772,1.38 -7.44,3.93 -0.527,-0.914 4.391,-2.311 c 0.16,-0.093 0.405,-0.228 0.76,-0.417 0.35,-0.16 0.743,-0.375 1.135,-0.577 l -7.458,1.269 -0.546,-0.969 5.091,-5.402 -0.245,0.123 c -0.16,0.091 -0.436,0.227 -0.81,0.44 a 6.141,6.141 0 0 1 -0.822,0.442 l -4.379,2.349 -0.54,-0.931 m 13.898,10.993 c -0.374,-0.084 -0.742,-0.3 -1.104,-0.674 l -1.576,-1.625 2.122,-1.944 1.589,1.62 c 0.306,0.3 0.503,0.594 0.607,0.846 0.147,0.484 0,0.926 -0.448,1.342 -0.405,0.374 -0.81,0.528 -1.19,0.436 m -5.992,0.754 2.6,-2.385 1.847,1.87 c 0.595,0.607 1.202,0.883 1.84,0.871 a 2.595,2.595 0 0 0 1.699,-0.742 c 0.552,-0.49 0.815,-1.067 0.815,-1.686 -0.007,-0.602 -0.282,-1.165 -0.79,-1.692 l -2.65,-2.705 -6.17,5.666 0.797,0.803 m 7.452,6.623 4.47,-7.01 5.288,3.214 -0.552,0.835 -4.343,-2.6 -1.343,2.121 3.993,2.422 -0.515,0.804 -4,-2.41 -1.52,2.372 4.397,2.644 -0.527,0.828 z m 13.235,-1.355 2.687,0.853 c 0.38,0.115 0.656,0.263 0.84,0.429 0.343,0.325 0.435,0.79 0.233,1.354 -0.165,0.49 -0.417,0.81 -0.81,0.945 -0.35,0.061 -0.79,0.061 -1.306,-0.098 l -2.533,-0.81 0.89,-2.673 m -2.319,6.886 1.116,-3.342 2.503,0.815 c 0.447,0.118 0.772,0.277 0.932,0.442 0.306,0.276 0.399,0.687 0.245,1.196 l -0.374,1.33 c -0.086,0.325 -0.129,0.54 -0.166,0.638 0,0.105 0,0.215 0.02,0.288 l 1.318,0.43 0.08,-0.19 c -0.141,-0.11 -0.221,-0.313 -0.215,-0.564 0.03,-0.154 0.074,-0.399 0.16,-0.681 l 0.319,-1.067 c 0.128,-0.466 0.178,-0.816 0.06,-1.067 a 1.685,1.685 0 0 0 -0.539,-0.73 c 0.417,-0.074 0.779,-0.202 1.086,-0.43 0.288,-0.25 0.533,-0.6 0.68,-1.09 0.3,-0.89 0.135,-1.632 -0.527,-2.196 -0.331,-0.294 -0.804,-0.546 -1.423,-0.779 l -3.753,-1.158 -2.625,7.818 1.097,0.337 m 100.025,-5.206 c 0.794,-0.12 1.48,-0.07 2.101,0.155 0.915,0.305 1.522,0.998 1.89,2.047 l -1.138,0.138 c -0.235,-0.568 -0.578,-0.96 -1.046,-1.184 -0.456,-0.21 -1.032,-0.27 -1.696,-0.184 a 2.646,2.646 0 0 0 -1.848,1.089 c -0.441,0.653 -0.586,1.535 -0.416,2.666 0.142,0.935 0.471,1.732 1.026,2.27 0.51,0.548 1.274,0.752 2.276,0.63 0.75,-0.11 1.357,-0.398 1.79,-0.906 0.45,-0.482 0.592,-1.222 0.463,-2.181 l -2.65,0.357 -0.12,-0.91 3.69,-0.498 0.638,4.373 -0.731,0.097 -0.436,-1.014 c -0.315,0.449 -0.628,0.793 -0.901,0.99 -0.46,0.347 -1.078,0.563 -1.846,0.66 -0.997,0.134 -1.901,-0.06 -2.713,-0.603 -0.89,-0.685 -1.454,-1.688 -1.65,-3.071 -0.214,-1.36 0.022,-2.515 0.664,-3.417 0.611,-0.872 1.485,-1.37 2.653,-1.516 m 8.333,-0.473 2.655,-0.908 c 0.364,-0.128 0.677,-0.166 0.947,-0.13 0.483,0.045 0.834,0.34 1.026,0.92 0.18,0.494 0.173,0.923 -0.047,1.22 -0.233,0.308 -0.593,0.529 -1.111,0.71 l -2.494,0.843 -0.976,-2.655 m 2.513,6.86 -1.228,-3.328 2.47,-0.839 c 0.462,-0.138 0.782,-0.212 1.02,-0.183 0.435,0.063 0.762,0.333 0.973,0.84 l 0.535,1.267 c 0.117,0.314 0.212,0.506 0.29,0.594 0.035,0.11 0.113,0.18 0.173,0.254 l 1.34,-0.466 -0.07,-0.179 c -0.197,-0.003 -0.385,-0.117 -0.522,-0.335 -0.101,-0.155 -0.195,-0.377 -0.332,-0.637 l -0.416,-1.039 c -0.188,-0.45 -0.386,-0.73 -0.616,-0.9 a 2.104,2.104 0 0 0 -0.872,-0.255 c 0.275,-0.308 0.477,-0.617 0.557,-0.984 0.087,-0.372 0.058,-0.79 -0.112,-1.258 -0.32,-0.883 -0.931,-1.373 -1.801,-1.45 -0.46,-0.045 -0.988,0.043 -1.6,0.246 l -3.727,1.251 2.85,7.804 1.093,-0.379 m 9.715,-3.931 -4.578,-6.947 5.224,-3.198 0.555,0.838 -4.28,2.626 1.408,2.124 3.952,-2.443 0.519,0.813 -3.952,2.443 1.552,2.34 4.355,-2.674 0.556,0.82 -5.317,3.258 m 4.342,-12.053 1.377,-1.459 c 0.637,-0.65 1.305,-0.939 2.027,-0.84 0.722,0.075 1.451,0.468 2.224,1.17 0.211,0.169 0.397,0.387 0.59,0.63 0.335,0.453 0.53,0.85 0.651,1.244 0.102,0.493 0.07,0.94 -0.11,1.366 -0.109,0.213 -0.297,0.46 -0.579,0.757 l -1.382,1.446 -4.797,-4.325 m 7.066,3.36 c 0.976,-1.036 1.205,-2.167 0.67,-3.458 a 5.86,5.86 0 0 0 -1.472,-1.984 c -0.85,-0.782 -1.745,-1.191 -2.694,-1.282 -1.053,-0.1 -1.956,0.265 -2.75,1.103 l -2.345,2.422 6.24,5.647 2.345,-2.435 m 5.035,-6.318 -7.22,-4.419 0.613,-0.932 7.232,4.394 -0.62,0.97 m 2.949,-4.938 -7.822,-3.296 2.426,-5.5 0.95,0.385 -1.979,4.533 2.356,0.976 1.85,-4.174 0.9,0.391 -1.83,4.168 2.635,1.127 2.028,-4.587 0.95,0.379 -2.47,5.598 m 3.801,-9.609 -8.257,-1.985 0.3,-1.276 7.706,-2.447 -6.7,-1.607 0.263,-1.001 8.259,1.935 -0.287,1.24 -7.72,2.503 6.701,1.576 -0.259,1.062 m -0.47,-10.54 0.124,-1.04 c 0.478,0.021 0.884,-0.045 1.193,-0.205 0.607,-0.314 0.968,-0.926 1.077,-1.839 0.044,-0.428 0.033,-0.803 -0.059,-1.16 -0.165,-0.69 -0.544,-1.077 -1.163,-1.15 -0.459,-0.057 -0.792,0.047 -1.036,0.295 -0.22,0.284 -0.454,0.696 -0.636,1.282 l -0.4,1.078 c -0.259,0.706 -0.495,1.193 -0.745,1.464 -0.402,0.509 -0.957,0.676 -1.661,0.614 -0.753,-0.093 -1.36,-0.405 -1.786,-0.989 -0.438,-0.535 -0.608,-1.293 -0.48,-2.223 0.089,-0.85 0.384,-1.563 0.897,-2.13 0.476,-0.519 1.204,-0.757 2.128,-0.642 l -0.105,1.04 c -0.453,-0.008 -0.817,0.065 -1.084,0.244 -0.483,0.255 -0.757,0.808 -0.851,1.622 -0.08,0.674 0.004,1.129 0.255,1.477 0.252,0.293 0.574,0.483 0.954,0.52 0.404,0.044 0.725,-0.079 0.951,-0.387 0.164,-0.212 0.362,-0.674 0.634,-1.424 l 0.395,-1.133 c 0.193,-0.524 0.421,-0.925 0.684,-1.208 0.469,-0.47 1.073,-0.662 1.827,-0.592 0.918,0.114 1.567,0.507 1.891,1.212 0.319,0.711 0.433,1.492 0.337,2.374 -0.122,0.996 -0.461,1.776 -1.072,2.292 -0.61,0.528 -1.362,0.698 -2.269,0.608"
       id="path49" />
  </g>
</svg>
