<?xml version="1.0" encoding="UTF-8" standalone="no"?>
<svg
   width="900"
   height="540"
   version="1.1"
   id="svg44"
   xmlns="http://www.w3.org/2000/svg"
   xmlns:svg="http://www.w3.org/2000/svg">
  <defs
     id="defs44" />
  <path
     fill="#78a3cd"
     d="M 0,0 H 900 V 540 H 0 Z"
     id="path1"
     style="stroke-width:0.948683" />
  <path
     fill="#f5e03d"
     d="M 0,85 H 900 V 455 H 0 Z"
     id="path2"
     style="stroke-width:0.993311" />
  <path
     fill="#c20002"
     d="M 0,125 H 900 V 415 H 0 Z"
     id="path3"
     style="stroke-width:0.983193" />
  <g
     fill="#ffffff"
     stroke="#000000"
     id="g10"
     transform="translate(0,-30)">
    <path
       stroke-width="1.5"
       d="M 184.275,258.009 H 719.97 v 8.571 H 184.275 Z"
       id="path4" />
    <path
       fill="#d8d8d8"
       stroke-width="1.5"
       d="m 683.204,262.2 h 0.18 v 4 h -0.18 z m 11.997,0 h 0.18 v 4 h -0.18 z m -3,0 h 0.18 v 4 h -0.18 z m -3,0 h 0.18 v 4 h -0.18 z m -3,0 h 0.18 v 4 h -0.18 z"
       id="path5" />
    <path
       stroke-width="1.5"
       d="m 152.372,284.735 h 535.695 v 8.57 H 152.371 Z"
       id="path6" />
    <path
       fill="#999999"
       stroke-width="1.5"
       d="m 681.002,276.155 v 25.713 L 731,289.01 Z M 713,248.92 v 25.712 l 49.999,-12.856 z"
       id="path7" />
    <path
       fill-rule="evenodd"
       stroke="none"
       d="m 361.21,242.676 9.417,-36.322 6.728,43.72 -1.346,-51.794 16.815,53.813 -12.106,-51.121 20.851,49.102 -10.089,-51.794"
       id="path8" />
    <path
       stroke-width="1.62"
       d="m 89.718,310 h 728.55 v 12.857 H 89.718 Z"
       id="path9" />
    <path
       stroke-width="1.512"
       d="m 674.209,300.829 c -30.076,67.741 -109.936,127.737 -224.224,127.737 -100.002,0 -171.42,-85.712 -214.29,-128.566 42.857,-42.861 114.282,-128.574 214.29,-128.574 114.282,0 188.08,56.789 224.115,129.274 h 0.3 -0.1 l -0.1,0.1 z"
       id="path10" />
  </g>
  <path
     d="m 435.03,186.15 c 11.402,12.823 1.881,17.994 13.95,18.835 12.727,0.935 -4.578,16.242 6.128,16.681 7.485,0.327 2.616,26.862 9.82,36.729 7.34,10.286 7.434,3.687 7.563,11.117 0.127,7.686 -11.232,6.911 -11.584,30.585 -0.59,13.644 -12.929,14.517 -13.711,23.297 -0.972,8.257 11.409,13.565 10.965,20.957 -0.456,7.37 -4.941,5.543 -6.483,13.948 -0.79,7.55 23.781,15.755 27.759,37.588 -7.38,2.413 -13.581,2.667 -29.451,2.679 C 350.001,398.638 278.566,362.622 225.7,270 280.586,173.32 349.993,141.418 450.001,141.418 c 0,0 -29.683,27.123 -14.956,44.723 z"
     id="path11" />
  <g
     stroke="#ffffff"
     id="g13"
     transform="translate(0,-30)">
    <path
       fill="#6b3f2a"
       stroke="#000000"
       stroke-width="1.5"
       d="m 710.77,307.167 c 1.173,-4.21 37.797,-6.48 42.377,-1.344 3.168,3.554 3.261,18.747 -1.008,22.533 -6.135,5.442 -40.512,4.026 -41.367,0.338 -1.1,-4.748 -0.995,-17.968 -0.002,-21.527 z"
       id="path12" />
    <path
       stroke-width="10.3905"
       d="M 292.9,288.566 V 254.28 m 28.77,0 v 34.286 m 28.793,-34.286 v 34.286 M 292.9,345.716 V 311.43 m 28.77,0 v 34.286 m 28.793,-34.286 v 34.286 m 28.774,-57.15 V 254.28 m 28.77,0 v 34.286 M 436.8,254.28 v 34.286 m -57.563,57.15 V 311.43 m 28.77,0 v 34.286 M 436.8,311.43 v 34.286"
       id="path13" />
  </g>
  <path
     stroke="#000000"
     stroke-width="10.39"
     d="M 466.001,258.566 V 224.28 m 28.772,0 v 34.286 m 28.792,-34.286 v 34.286 m -57.564,57.15 V 281.43 m 28.772,0 v 34.286 m 28.792,-34.286 v 34.286 m 28.773,-57.15 V 224.28 m 28.77,0 v 34.286 M 609.9,224.28 v 34.286 m -57.563,57.15 V 281.43 m 28.77,0 v 34.286 M 609.9,281.43 v 34.286"
     id="path14" />
  <g
     fill="#222222"
     id="g17"
     transform="translate(0,-30)">
    <g
       stroke="#222222"
       id="g16">
      <path
         stroke-width="1.282"
         d="m 767.025,311.311 c -6.492,11.244 4.982,-3.74 32.978,15.084 5.188,3.497 9.721,12.734 9.721,19.139 -1.317,-0.881 -2.295,-2.841 -3.745,-4.115 -2.031,2.035 1.939,11.366 2.52,15.775 -4.377,-2.449 -3.956,-3.609 -5.41,-6.619 0.29,3.639 -2.096,10.297 -0.355,14.157 -3.45,-0.986 -2.548,-5.78 -4.349,-6.338 1.225,4.368 -0.395,10.467 0.213,15.378 -2.015,-1.995 -6.181,-6.921 -7.118,-7.727 -0.157,2.338 -2.532,10.502 -2.616,12.713 -1.71,-1.033 -4.193,-5.335 -4.478,-6.42 -2.126,2.671 -11.026,7.829 -11.51,10.838 -5.822,-5.142 -16.699,-4.883 -18.64,-11.529 -1.716,3.772 -4.2,5.046 -9.11,7.8 -1.939,-10.533 -9.194,-22.372 -5.314,-31.401 -2.75,1.63 -5.013,3.261 -7.761,5.267 2.604,-15.255 15.88,-33.143 34.979,-42.002 z"
         id="path15" />
      <path
         stroke-width="1.6"
         d="m 121.174,322.141 c -0.363,-3.274 0.338,-3.666 -1.677,-6.135 2.933,1.227 3.044,4.488 6.61,2.174 1.309,-0.678 1.88,-0.7 0.289,-4.337 3.718,0.173 15.894,4.348 17.844,4.444 5.12,0.236 14.466,-5.378 20.953,1.525 6.227,6.294 4.148,12.826 4.148,21.543 -2.502,-1.199 -1.296,-1.79 -3.951,-4.907 1.99,7.619 -0.106,21.356 -0.106,29.436 -1.022,-1.948 -0.872,-1.103 -1.871,-3.12 -2.655,7.375 -3.146,0.149 -3.146,8.866 -0.958,-3.418 -3.397,-4.714 -4.463,-6.512 -2.58,5.6 -13.836,6.349 -7.166,11.993 -6.02,-3.53 -12.023,-4.504 -14.753,-7.679 -1.177,0.759 -6.82,4.213 -7.914,6.182 -10.585,-4.87 -4.109,-1.249 -12.402,-8.266 -1.435,2.942 -0.781,2.516 -2.332,7.304 -1.679,-6.651 -2.138,-10.877 -4.026,-15.767 -1.629,2.71 -1.484,1.671 -4.442,5.768 -1.224,-8.102 -3.216,-10.014 -2.428,-15.375 -3.144,2.218 -1.086,1.32 -4.229,4.05 2.978,-20.76 15.837,-36.101 25.065,-31.188 z"
         id="path16" />
    </g>
    <path
       stroke="#999999"
       stroke-width="1.239"
       d="m 380.7,194.25 c -5.937,11.482 10.395,-3.819 35.997,15.404 4.745,3.571 11.546,17.68 11.546,24.22 -5.451,-1.16 -15.104,-6.54 -15.104,-6.54 0,0 12.673,7.31 12.673,20.39 -4.002,-2.502 -7.349,-3.472 -8.68,-6.544 0,4.234 3.56,9.623 3.56,16.163 -2.435,-1.956 -6.384,-4.365 -9.125,-5.862 3.776,6.54 -9.571,5.773 -4.238,10.008 -9.327,-1.349 -14.834,-1.926 -18.61,-8.466 -2.001,1.348 -4.909,3.466 -4.987,5.723 0.294,0.245 -10.162,-4.03 -8.83,-8.256 -1.944,2.727 -6.253,4.226 -6.697,7.3 -5.323,-5.25 -7.512,-5.791 -9.288,-12.579 -2.365,3.073 -2.514,3.073 -4.88,6.147 -1.774,-10.757 -1.774,-10.373 1.775,-19.592 -2.514,1.665 -4.584,3.33 -7.098,5.38 2.38,-15.578 14.523,-33.845 31.988,-42.892 z"
       id="path17" />
  </g>
  <g
     fill="#999999"
     stroke="#999999"
     id="g44"
     transform="translate(0,-30)">
    <path
       d="m 273.401,250.158 h 2 v 47.141 h -2 z"
       transform="matrix(0.94490893,0.32733334,-0.26114287,0.96783849,174.86556,-129.92266)"
       id="path18" />
    <path
       d="m 295.46,256.853 h 2 v 48.719 h -2 z"
       transform="matrix(0.73311292,-0.68010694,0.50800836,0.89276832,34.417165,177.22708)"
       id="path19" />
    <path
       d="m 285.363,282.652 h 2 v 53.438 h -2 z"
       transform="matrix(0.98427895,-0.17662093,0.10965759,0.99629498,64.29184,-30.381992)"
       id="path20" />
    <path
       d="m 302.024,250.314 h 2 v 47.48 h -2 z"
       transform="matrix(0.6427475,-0.7660781,0.60829933,0.83080091,42.595737,231.19261)"
       id="path21" />
    <path
       d="m 290.965,272.571 h 2 v 51.532 h -2 z"
       transform="matrix(0.88871327,-0.45846343,0.30607392,0.96732695,37.272742,72.68301)"
       id="path22" />
    <path
       d="m 371.096,200.298 h 2 v 53.764 h -2 z"
       id="path23" />
    <path
       d="m 302.024,179.445 h 2 v 34.037 h -2 z"
       transform="matrix(0.25876847,-0.96593938,0.90394352,0.49018863,148.04251,407.7363)"
       id="path24" />
    <path
       d="m 370.811,200.42 1.98,0.279 -6.958,49.513 -1.98,-0.278 z"
       id="path25" />
    <path
       d="m 302.024,204.799 h 2 v 38.847 h -2 z"
       transform="matrix(0.35831907,-0.93359919,0.84564063,0.58749481,106.61653,369.61532)"
       id="path26" />
    <path
       d="m 252.817,242.26 h 1.849 v 45.652 h -1.849 z"
       transform="matrix(0.70477042,0.70943544,-0.63626883,0.77842135,104.90065,-52.937817)"
       id="path27" />
    <path
       d="m 279.221,243.392 h 1.89 v 46.165 h -1.89 z"
       transform="matrix(0.94229726,-0.33477736,0.0580517,1.0406118,-138.57071,163.94629)"
       id="path28" />
    <path
       d="m 262.622,275.036 h 1.84 v 51.999 h -1.84 z"
       transform="matrix(0.9693811,0.24556118,-0.32806997,0.94848018,-28.155546,-7.9027649)"
       id="path29" />
    <path
       d="m 287.542,201.58 h 1.904 v 38.236 h -1.904 z"
       transform="matrix(0.89355168,-0.44896034,0.17439227,1.031507,-148.09341,249.74777)"
       id="path30" />
    <path
       d="m 270.789,262.279 h 1.861 v 49.587 h -1.861 z"
       transform="matrix(0.99790998,-0.06461939,-0.14942328,1.0117703,-93.111214,72.676521)"
       id="path31" />
    <path
       d="m 132.188,315.027 1.665,0.776 -22.153,47.508 -1.665,-0.776 z"
       id="path32" />
    <path
       d="m 293.355,165.444 h 1.943 v 31.381 h -1.943 z"
       transform="matrix(0.63154227,-0.77534145,0.59709721,0.85037187,-138.96464,411.74228)"
       id="path33" />
    <path
       d="m 341.269,181.392 h 1.839 v 48.689 h -1.839 z"
       transform="matrix(0.83403029,0.55171866,-0.53799057,0.84311155,-55.141387,-26.194287)"
       id="path34" />
    <path
       d="m 292.333,189.481 h 1.935 v 35.942 h -1.935 z"
       transform="matrix(0.70559954,-0.70861082,0.49921419,0.91588981,-157.74237,361.98006)"
       id="path35" />
    <path
       d="m 263.38,264.949 h 1.927 v 49.927 h -1.927 z"
       transform="matrix(0.93089014,0.36529925,-0.2340238,0.98240516,570.18261,-36.323782)"
       id="path36" />
    <path
       d="m 298.208,259.652 h 2.017 v 49.249 h -2.017 z"
       transform="matrix(0.68936672,-0.72441254,0.47691818,0.94944312,436.86991,293.87874)"
       id="path37" />
    <path
       d="m 272.02,302.535 h 1.906 v 57.197 h -1.906 z"
       transform="matrix(0.97995949,-0.1991969,0.09723644,1.000685,465.22062,70.686103)"
       id="path38" />
    <path
       d="m 309.541,222.082 h 2.05 v 42.124 h -2.05 z"
       transform="matrix(0.5951875,-0.80358686,0.57990615,0.89718793,460.36423,376.22172)"
       id="path39" />
    <path
       d="m 284.244,284.681 h 1.954 v 53.823 h -1.954 z"
       transform="matrix(0.86338674,-0.50454269,0.27813405,0.99569457,439.58827,181.48983)"
       id="path40" />
    <path
       d="m 756.404,318.685 h 1.899 v 55 h -1.899 z"
       id="path41" />
    <path
       d="m 322.286,171.577 h 2.134 v 32.544 h -2.134 z"
       transform="matrix(0.23015165,-0.97315478,0.89723988,0.55114413,544.70922,541.69147)"
       id="path42" />
    <path
       d="m 353.157,199.711 h 1.903 v 53.607 h -1.903 z"
       transform="matrix(0.98756517,0.15721015,-0.12318955,0.9929809,431.9486,64.977161)"
       id="path43" />
    <path
       d="m 320.062,197.18 h 2.12 v 37.402 h -2.12 z"
       transform="matrix(0.32089402,-0.94711511,0.83357511,0.65600605,505.39998,500.71205)"
       id="path44" />
  </g>
</svg>
