<?xml version="1.0" encoding="UTF-8" standalone="no"?>
<svg
   width="600"
   height="360"
   version="1.1"
   id="svg9"
   xmlns:xlink="http://www.w3.org/1999/xlink"
   xmlns="http://www.w3.org/2000/svg"
   xmlns:svg="http://www.w3.org/2000/svg">
  <defs
     id="defs1">
    <path
       id="a"
       fill="#ffffff"
       d="m 0,-1 0.588,1.809 -1.54,-1.118 h 1.904 l -1.54,1.118 z"
       transform="scale(21)" />
  </defs>
  <path
     fill="#002654"
     d="M 0,0 H 600 V 360 H 0 Z"
     id="path1"
     style="stroke-width:0.948683" />
  <path
     fill="#ffffff"
     d="M 0,0 H 244 V 164 H 0 Z"
     id="path2" />
  <path
     fill="#002654"
     d="M 0,0 H 80 V 160 H 0 Z"
     id="path3" />
  <path
     fill="#ce1126"
     d="m 160,0 h 80 v 160 h -80 z"
     id="path4" />
  <path
     fill="#ffffff"
     d="m 355,150 12.875,20.5 H 404.5 V 242 L 377,199 340,258 h 18 l 19,-34 39,70 39,-70 19,34 h 18 l -37,-59 -27.5,43 V 202.5 H 444 L 456.25,183 H 427.5 v -12.5 h 36.625 L 477,150 Z m 43,87.5 h -40 v 14 h 40 z m 76,0 h -40 v 14 h 40 z"
     id="path5" />
  <use
     xlink:href="#a"
     x="416"
     y="362"
     id="use5"
     transform="translate(0,-33)" />
  <use
     xlink:href="#a"
     x="371"
     y="328"
     id="use6"
     transform="translate(0,-33)" />
  <use
     xlink:href="#a"
     x="461"
     y="328"
     id="use7"
     transform="translate(0,-33)" />
  <use
     xlink:href="#a"
     x="333"
     y="227"
     id="use8"
     transform="translate(0,-33)" />
  <use
     xlink:href="#a"
     x="499"
     y="227"
     id="use9"
     transform="translate(0,-33)" />
</svg>
