<?xml version="1.0" encoding="UTF-8" standalone="no"?>
<svg
   width="1000.0001"
   height="600"
   viewBox="0 0 1166.6667 700"
   version="1.1"
   id="svg12"
   xmlns:xlink="http://www.w3.org/1999/xlink"
   xmlns="http://www.w3.org/2000/svg"
   xmlns:svg="http://www.w3.org/2000/svg">
  <defs
     id="defs12" />
  <path
     fill="#006600"
     d="M 0,0 H 1166.6667 V 700 H 0 Z"
     id="path1"
     style="stroke-width:0.912871" />
  <path
     fill="#ffffff"
     d="M 0,0 H 1166.6667 V 500 H 0 Z"
     id="path2"
     style="stroke-width:0.912871" />
  <path
     fill="#cc0000"
     d="M 0,0 H 1166.6667 V 200 H 0 Z"
     id="path3"
     style="stroke-width:0.912871" />
  <g
     transform="translate(-116.66667,-0.334)"
     fill="#f8c300"
     id="g12">
    <path
       d="m 672,340.7 a 12.5,12.5 0 0 1 23.3,5.9 v 50 h 9.4 v -50 a 12.5,12.5 0 0 1 23.3,-5.9 29.5,29.5 0 1 0 -56,0"
       id="path4" />
    <path
       d="m 678.7,327.65 a 20,20 0 0 1 21.3,9.55 20,20 0 0 1 21.3,-9.55 21.5,21.5 0 0 0 -42.6,0"
       fill="#ffffff"
       id="path5" />
    <path
       id="a"
       d="m 695.3,376.627 a 38,38 0 0 1 -63.845,24.316 39.5,39.5 0 0 1 -59.734,17.467 c 3.65,36.426 58.252,28.989 62.32,-6.429 17.154,30.115 54.873,21.49 65.91,-15.4 z" />
    <use
       xlink:href="#a"
       transform="matrix(-1,0,0,1,1400,0)"
       width="100%"
       height="100%"
       id="use5" />
    <path
       id="b"
       d="m 658.84,441.31 c -7.618,16.446 -22.845,19.271 -36.164,5.995 0,0 5.354,-3.783 11.086,-4.826 -1.075,-4.574 1.13,-10.902 4.235,-14.324 3.258,2.227 7.804,6.689 8.96,11.874 8.03,-1.04 11.883,1.282 11.883,1.282 z" />
    <use
       xlink:href="#b"
       transform="rotate(9.37,700,804)"
       width="100%"
       height="100%"
       id="use6" />
    <use
       xlink:href="#b"
       transform="rotate(18.74,700,804)"
       width="100%"
       height="100%"
       id="use7" />
    <path
       d="m 603,478 a 340,340 0 0 1 194,0"
       fill="none"
       stroke-width="16"
       stroke="#f8c300"
       id="path7" />
    <g
       transform="translate(700,380)"
       id="g11">
      <g
         transform="translate(0,-140)"
         id="g7">
        <path
           id="c"
           transform="matrix(4.8668963e-5,1.146002e-5,-1.146002e-5,4.8668963e-5,0,0)"
           d="M -488533,-158734 H 488533 L -301930,415571 0,-513674 301930,415571 Z" />
      </g>
      <g
         id="d">
        <use
           xlink:href="#c"
           transform="translate(-70,-121.244)"
           width="100%"
           height="100%"
           id="use8" />
        <use
           xlink:href="#c"
           transform="translate(-121.244,-70)"
           width="100%"
           height="100%"
           id="use9" />
        <use
           xlink:href="#c"
           transform="translate(-140)"
           width="100%"
           height="100%"
           id="use10" />
      </g>
      <use
         xlink:href="#d"
         transform="scale(-1,1)"
         width="100%"
         height="100%"
         id="use11" />
    </g>
  </g>
</svg>
