<?xml version="1.0" encoding="UTF-8" standalone="no"?>
<svg
   width="1700"
   height="1020"
   version="1.1"
   id="svg9"
   xmlns:xlink="http://www.w3.org/1999/xlink"
   xmlns="http://www.w3.org/2000/svg"
   xmlns:svg="http://www.w3.org/2000/svg">
  <defs
     id="defs5">
    <g
       id="b">
      <g
         id="a">
        <path
           d="M 1,0 H 0 v 0.5 z"
           transform="translate(0,-0.325)"
           id="path1" />
        <path
           d="M 1,0 H 0 v -0.5 z"
           transform="rotate(-36,0.5,-0.162)"
           id="path2" />
      </g>
      <use
         xlink:href="#a"
         transform="rotate(72)"
         id="use2" />
      <use
         xlink:href="#a"
         transform="rotate(144)"
         id="use3" />
      <use
         xlink:href="#a"
         transform="rotate(-144)"
         id="use4" />
      <use
         xlink:href="#a"
         transform="rotate(-72)"
         id="use5" />
    </g>
  </defs>
  <path
     fill="#012169"
     d="M 0,0 H 1700 V 1020 H 0 Z"
     id="path5"
     style="stroke-width:1.03459" />
  <g
     fill="#ffd100"
     id="g6"
     transform="translate(-40,60)">
    <path
       d="M 329.376,777.265 C 311.442,777.115 498,677.834 654.146,550.665 858.788,384 1299.54,117.157 1429.115,73.796 c 13.543,-4.532 -27.776,23.073 -33.14,32.016 -138.341,163.74 -27.925,472.724 144.973,628.048 51.99,39.763 49.327,41.85 145.707,45.746 v 9 l -1357.28,-11.34 z m -11.251,18.06 c 0,0 -13.163,9.402 -13.125,16.405 0.043,7.772 14.766,18.047 14.766,18.047 l 1338.745,14.765 24.609,-16.406 -34.453,-21.328 -1330.542,-11.484 z"
       id="path6" />
  </g>
  <g
     fill="#ffffff"
     id="g9"
     transform="translate(-40,60)">
    <use
       xlink:href="#b"
       transform="matrix(45,0,0,45,342.957,112.581)"
       id="use6" />
    <use
       xlink:href="#b"
       transform="matrix(37.5,0,0,37.5,521.205,267.53)"
       id="use7" />
    <use
       xlink:href="#b"
       transform="matrix(45,0,0,45,135,321.808)"
       id="use8" />
    <use
       xlink:href="#b"
       transform="matrix(52.5,0,0,52.5,342.957,652.581)"
       id="use9" />
  </g>
</svg>
