<?xml version="1.0" encoding="UTF-8" standalone="no"?>
<svg
   height="600"
   width="1000"
   version="1.1"
   id="svg115"
   xmlns:xlink="http://www.w3.org/1999/xlink"
   xmlns="http://www.w3.org/2000/svg"
   xmlns:svg="http://www.w3.org/2000/svg">
  <defs
     id="defs115" />
  <path
     fill="#00843d"
     d="M 0,0 H 1000 V 600 H 0 Z"
     id="path1"
     style="stroke-width:1" />
  <g
     fill="#ffffff"
     id="g5"
     transform="translate(21.076596)">
    <path
       d="m 446.821,66.543 c 26.6,11.42 45.236,37.85 45.236,68.627 0,41.225 -33.43,74.655 -74.654,74.655 -18.455,0 -35.345,-6.704 -48.377,-17.805 a 74.443,74.443 0 0 0 26.15,5.951 c 41.185,1.798 76.042,-30.142 77.84,-71.327 1.044,-23.91 -9.287,-45.687 -26.195,-60.101 z"
       id="path2" />
    <path
       d="m 375.616,121.42 8.458,-26.033 -22.145,16.09 h 27.373 l -22.145,-16.09 z"
       id="a" />
    <use
       height="600"
       y="-38.400002"
       xlink:href="#a"
       id="use2" />
    <use
       y="-18.722"
       x="37.937"
       xlink:href="#a"
       id="use3" />
    <use
       y="18.722"
       x="-37.936001"
       xlink:href="#a"
       id="use4" />
    <use
       height="600"
       y="38.400002"
       xlink:href="#a"
       id="use5" />
  </g>
  <path
     style="fill:#d22630"
     d="m 129.0746,0 h 162 v 600 h -162 z"
     id="path5" />
  <g
     id="b"
     style="fill:#383739"
     transform="translate(21.076596)">
    <path
       d="m 107.998,-39.619 v 5.88 l 9.11,8.527 -3.072,2.86 6.515,6.038 -2.86,2.596 v -3.761 h -5.562 v 4.502 l 12.553,11.759 h 6.356 l 0.689,-4.132 h -3.655 l 3.972,-3.707 9.958,9.057 -9.958,9.11 -3.972,-3.708 h 3.655 l -0.689,-4.184 h -6.356 L 112.13,12.977 v 4.502 h 5.562 v -3.76 l 2.86,2.594 -6.515,6.039 3.072,2.913 -9.11,8.474 v 5.88 l 15.413,-14.354 -3.072,-2.913 6.462,-6.039 -5.562,-5.19 3.708,-3.39 7.097,6.568 L 147.617,0 l -15.573,-14.3 -7.097,6.62 -3.708,-3.443 5.562,-5.19 -6.462,-6.039 3.072,-2.86 z m 0,28.549 V 11.07 L 111.6,7.415 v -4.29 h 3.813 L 118.485,0 115.413,-3.072 H 111.6 v -4.343 z m 26.271,7.839 -0.53,3.019 0.53,3.072 3.284,-3.072 z"
       id="path6" />
    <path
       style="fill:#ffc72c"
       d="m 107.998,-38.983 v 4.66 l 9.746,9.11 -3.072,2.861 6.514,6.038 -3.919,3.655 v -4.396 h -4.714 v 3.92 l 12.341,11.493 h 5.72 l 0.583,-3.284 H 126.96 L 132.044,-9.693 142.638,0 132.044,9.693 126.96,4.979 h 4.237 l -0.584,-3.337 h -5.72 L 112.55,13.135 v 3.92 h 4.715 v -4.396 l 3.919,3.654 -6.515,6.038 3.072,2.913 -9.745,9.058 v 4.66 l 14.777,-13.718 -3.072,-2.913 6.462,-6.038 -5.562,-5.19 4.344,-4.026 7.097,6.62 L 146.927,0 l -14.884,-13.718 -7.097,6.62 -4.344,-4.025 5.562,-5.19 -6.462,-6.039 3.072,-2.86 -14.777,-13.771 z m 0,28.548 v 20.87 l 3.178,-3.179 V 2.648 h 4.078 L 117.903,0 115.254,-2.648 h -4.078 v -4.609 l -3.178,-3.177 z m 26.589,8.051 -0.37,2.172 0.37,2.172 2.33,-2.172 z"
       id="path7" />
  </g>
  <use
     height="100%"
     width="100%"
     y="109.207"
     xlink:href="#b"
     style="fill:#383739"
     id="use7" />
  <use
     height="100%"
     width="100%"
     y="222.005"
     xlink:href="#b"
     style="fill:#383739"
     id="use8" />
  <use
     height="100%"
     width="100%"
     y="334.802"
     xlink:href="#b"
     style="fill:#383739"
     id="use9" />
  <use
     height="100%"
     width="100%"
     y="447.59799"
     xlink:href="#b"
     style="fill:#383739"
     id="use10" />
  <g
     transform="matrix(-1,0,0,1,399.0726,0)"
     style="fill:#383739"
     id="g14">
    <path
       d="m 107.998,-39.619 v 5.88 l 9.11,8.527 -3.072,2.86 6.515,6.038 -2.86,2.596 v -3.761 h -5.562 v 4.502 l 12.553,11.759 h 6.356 l 0.689,-4.132 h -3.655 l 3.972,-3.707 9.958,9.057 -9.958,9.11 -3.972,-3.708 h 3.655 l -0.689,-4.184 h -6.356 L 112.13,12.977 v 4.502 h 5.562 v -3.76 l 2.86,2.594 -6.515,6.039 3.072,2.913 -9.11,8.474 v 5.88 l 15.413,-14.354 -3.072,-2.913 6.462,-6.039 -5.562,-5.19 3.708,-3.39 7.097,6.568 L 147.617,0 l -15.573,-14.3 -7.097,6.62 -3.708,-3.443 5.562,-5.19 -6.462,-6.039 3.072,-2.86 z m 0,28.549 V 11.07 L 111.6,7.415 v -4.29 h 3.813 L 118.485,0 115.413,-3.072 H 111.6 v -4.343 z m 26.271,7.839 -0.53,3.019 0.53,3.072 3.284,-3.072 z"
       id="path10" />
    <path
       style="fill:#ffc72c"
       d="m 107.998,-38.983 v 4.66 l 9.746,9.11 -3.072,2.861 6.514,6.038 -3.919,3.655 v -4.396 h -4.714 v 3.92 l 12.341,11.493 h 5.72 l 0.583,-3.284 H 126.96 L 132.044,-9.693 142.638,0 132.044,9.693 126.96,4.979 h 4.237 l -0.584,-3.337 h -5.72 L 112.55,13.135 v 3.92 h 4.715 v -4.396 l 3.919,3.654 -6.515,6.038 3.072,2.913 -9.745,9.058 v 4.66 l 14.777,-13.718 -3.072,-2.913 6.462,-6.038 -5.562,-5.19 4.344,-4.026 7.097,6.62 L 146.927,0 l -14.884,-13.718 -7.097,6.62 -4.344,-4.025 5.562,-5.19 -6.462,-6.039 3.072,-2.86 -14.777,-13.771 z m 0,28.548 v 20.87 l 3.178,-3.179 V 2.648 h 4.078 L 117.903,0 115.254,-2.648 h -4.078 v -4.609 l -3.178,-3.177 z m 26.589,8.051 -0.37,2.172 0.37,2.172 2.33,-2.172 z"
       id="path11" />
    <use
       height="100%"
       width="100%"
       y="109.207"
       xlink:href="#b"
       id="use11"
       transform="translate(-21.076596)" />
    <use
       height="100%"
       width="100%"
       y="222.005"
       xlink:href="#b"
       id="use12"
       transform="translate(-21.076596)" />
    <use
       height="100%"
       width="100%"
       y="334.802"
       xlink:href="#b"
       id="use13"
       transform="translate(-21.076596)" />
    <use
       height="100%"
       width="100%"
       y="447.59799"
       xlink:href="#b"
       id="use14"
       transform="translate(-21.076596)" />
  </g>
  <path
     d="m 142.2166,530.824 c 0.8,3.407 3.508,5.979 4.154,9.513 1.292,-3.685 2.484,-6.773 1.594,-10.804 -0.637,-2.883 -3.062,-4.94 -3.343,-7.902 -2.644,2.377 -3.213,5.749 -2.405,9.193 z m -0.67,14.276 c 2.243,3.075 5.36,5.434 8.803,7.007 -0.678,-2.694 0.594,-4.722 2.006,-6.86 1.7,-2.574 2.53,-5.103 1.143,-8.067 -0.646,1.541 -1.514,2.821 -2.533,4.139 -1.506,2.055 -2.497,3.883 -2.73,6.52 -1.742,-1.292 -2.507,-3.22 -3.439,-5.086 -1.42,-2.673 -3.712,-4.908 -6.345,-6.369 0.7,2.998 1.238,6.169 3.095,8.716 z m 12.578,9.166 c -0.48,1.708 -0.893,3.4 -0.8,5.186 -1.482,-1.597 -3.45,-2.799 -5.206,-4.085 -2.39,-1.934 -5.178,-3.298 -7.133,-5.76 0.292,3.624 1.843,6.578 4.788,8.783 3.113,2.33 6.867,3.583 9.933,6.03 -0.46,-3.297 0.752,-5.937 1.784,-8.967 0.86,-2.895 0.028,-5.834 -1.935,-8.04 0.029,2.445 -0.743,4.545 -1.43,6.853 z m 6.986,11.133 c 0.645,2.5 2.437,4.534 3.66,6.764 -3.299,-1.023 -6.21,-2.812 -9.191,-4.495 -3.552,-1.934 -7.41,-3.165 -10.625,-5.719 1.6,5.924 5.567,9.359 11.369,11.11 3.967,1.198 7.31,0.6 12.124,2.546 -0.552,-3.259 -1.525,-6.776 -3.066,-9.714 -1.195,-2.125 -2.521,-4.221 -3.26,-6.562 -1.07,1.923 -1.576,3.879 -1.011,6.07 z m 12.139,9.065 a 15.21,15.21 0 0 0 4.494,4.875 c -4.683,0.299 -8.451,-2.669 -13.017,-2.798 -2.82,-0.08 -5.497,0.796 -8.373,0.533 3.413,2.303 6.986,4.314 11.141,4.851 5.401,0.699 10.382,-0.66 16.341,-0.129 -2.785,-1.965 -4.178,-4.595 -5.914,-7.423 -2.26,-3.533 -4.393,-6.05 -8.789,-6.618 1.765,1.983 2.792,4.44 4.117,6.71 z m 16.631,7.773 c -8.25,1.403 -16.156,3.218 -24.581,3.301 9.431,3.288 18.318,3.883 27.672,0.488 5.055,-1.835 8.93,-2.817 12.748,-2.544 5.58,0.401 12.36,2.603 19.865,10.517 l 2.95,-2.36 c -10.756,-9.583 -24.829,-11.753 -38.654,-9.403 z"
     style="fill:#ffc72c"
     id="path14" />
  <path
     d="m 149.3426,70.34 -12.981,-7.961 V 43.244 l 12.981,-7.96 V 25.159 l 12.267,-7.388 h 9.8 l 18.648,-10.488 h 40.033 l 18.648,10.488 h 9.8 l 12.267,7.388 v 10.125 l 12.981,7.96 v 19.135 l -12.98,7.96 v 10.125 l -12.268,7.387 h -9.8 l -18.648,10.489 h -40.033 l -18.648,-10.489 h -9.8 l -12.267,-7.387 z"
     style="fill:#383739"
     id="path15" />
  <path
     style="fill:#00843d"
     d="m 190.1446,7.733 -18.644,10.487 h -9.746 l -11.97,7.203 V 35.54 l -12.977,7.945 v 18.644 l 12.977,7.945 v 10.17 l 11.917,7.203 h 9.799 l 18.644,10.487 h 39.83 l 18.644,-10.487 h 9.8 l 11.97,-7.204 v -10.17 l 12.976,-7.944 V 43.485 L 270.3886,35.54 V 25.423 l -11.97,-7.203 h -9.8 L 229.9746,7.733 Z m 1.112,3.866 h 37.66 l 18.643,10.488 h 9.746 l 9.057,5.455 V 37.66 l 13.03,7.945 V 60.01 l -13.03,7.945 v 10.117 l -9.057,5.455 h -9.746 l -18.643,10.488 h -37.66 l -18.644,-10.488 h -9.745 l -9.11,-5.455 V 67.955 L 140.7806,60.01 V 45.604 l 12.976,-7.945 V 27.542 l 9.11,-5.455 h 9.746 z"
     id="path16" />
  <path
     style="fill:#ffc72c"
     d="M 209.8596,53.025 V 12.017 h -18.506 l -18.647,10.488 h -9.722 l -8.795,5.296 v 10.1 l -12.98,7.96 v 6.736 h 69.08 v 41.009 h 18.506 l 18.648,-10.489 h 9.723 l 8.794,-5.296 v -10.1 l 12.98,-7.96 v -6.735 z"
     id="path17" />
  <path
     style="fill:#ffffff"
     d="m 141.2076,53.025 v 6.736 l 12.98,7.96 v 10.1 l 8.795,5.296 h 9.722 l 18.648,10.489 h 18.506 v -41.01 h 69.081 v -6.735 l -12.98,-7.96 v -10.1 l -8.795,-5.296 h -9.723 l -18.648,-10.488 h -18.505 v 41.008 z"
     id="path18" />
  <g
     id="d"
     style="fill:#383739"
     transform="translate(21.076596)">
    <g
       id="c">
      <path
         d="m 148.448,26.28 -3.196,-2.978 -3.166,1.952 3.201,2.985 -4.11,2.546 h 8.969 l 7.73,7.29 2.472,-2.61 -7.515,-7.09 v -4.811 z"
         id="path19" />
      <path
         d="m 163.573,24.972 -3.196,-2.978 -3.166,1.952 3.201,2.984 -4.11,2.547 h 8.969 l 7.73,7.29 2.472,-2.61 -7.515,-7.09 v -4.812 z m -16.234,9.864 -3.196,-2.979 -3.165,1.953 3.2,2.984 -4.11,2.547 h 8.97 l 7.728,7.29 2.473,-2.611 -7.515,-7.089 v -4.812 z"
         id="path20" />
      <path
         d="m 188.997,11.589 h -8.093 l -4.235,4.081 h -8.255 l -6.1,3.166 1.422,3.467 5.44,-2.858 h 2.383 l 8.341,9.647 9.097,-5.54 z"
         id="path21" />
      <path
         style="fill:#d22630"
         d="m 145.199,23.838 2.872,2.676 -2.406,1.49 -2.876,-2.68 z m 7.205,0.495 v 4.227 l 7.338,6.921 -1.884,1.99 -7.542,-7.114 h -7.635 z m 7.92,-1.803 2.872,2.676 -2.406,1.49 -2.876,-2.68 z m 7.205,0.494 v 4.227 l 7.338,6.922 -1.884,1.99 -7.542,-7.114 h -7.635 z"
         id="path22" />
      <path
         style="fill:#d22630"
         d="m 144.091,32.393 2.871,2.677 -2.406,1.49 -2.875,-2.68 z m 7.205,0.495 v 4.227 l 7.337,6.922 -1.883,1.99 -7.542,-7.114 h -7.636 z m 37.487,-20.871 h -7.706 l -4.235,4.08 h -8.324 l -5.66,2.938 1.095,2.67 5.117,-2.688 h 2.685 l 8.232,9.521 8.796,-5.356 z"
         id="path23" />
    </g>
    <use
       height="100%"
       width="100%"
       transform="matrix(1,0,0,-1,0,105.623)"
       xlink:href="#c"
       id="use23" />
    <path
       d="m 143.054,39.71 -3.859,-1.441 -0.092,0.064 -4.982,3.457 v 0.93 l -7.98,10.091 7.98,10.092 v 0.93 l 5.074,3.52 3.859,-1.441 -2.355,-1.56 v -2.967 l 0.936,-1.12 h 4.181 V 45.358 h -4.181 l -0.936,-1.12 V 41.27 Z"
       id="path24" />
    <path
       style="fill:#d22630"
       d="m 134.549,42.014 4.706,-3.266 2.862,1.07 -1.846,1.223 v 3.352 l 1.164,1.392 h 3.952 v 14.053 h -3.952 l -1.164,1.392 v 3.352 l 1.846,1.223 -2.862,1.07 -4.706,-3.266 v -0.855 l -7.862,-9.943 7.863,-9.943 z"
       id="path25" />
  </g>
  <use
     height="100%"
     width="100%"
     transform="matrix(-1,0,0,1,420.1472,0)"
     xlink:href="#d"
     style="fill:#383739"
     id="use25" />
  <path
     d="m 157.2796,61.282 -2.173,-1.88 v -0.906 l -4.66,-5.685 4.661,-5.685 V 46.22 l 2.173,-1.88 3.902,3.174 -2.252,-0.017 3.328,3.378 h 7.605 l 5.98,-4.677 V 33.863 h 14.96 l 17.372,-10.66 v -2.796 l -2.657,-1.771 h -0.842 l -2.893,1.936 -0.448,1.444 -2.264,-3.09 4.399,-3.695 h 0.703 l 4.964,-3.642 h 1.871 l 4.964,3.642 h 0.703 l 4.399,3.695 -2.263,3.09 -0.448,-1.444 -2.894,-1.936 h -0.841 l -2.657,1.77 v 2.797 l 17.372,10.66 h 14.959 v 12.335 l 5.98,4.677 h 7.606 l 3.328,-3.378 -2.253,0.017 3.903,-3.173 2.172,1.88 v 0.905 l 4.662,5.685 -4.662,5.685 v 0.906 l -2.172,1.88 -3.903,-3.173 2.253,0.017 -3.328,-3.378 h -7.605 l -5.981,4.677 V 71.76 h -14.959 l -17.372,10.66 v 2.796 l 2.657,1.77 h 0.841 l 2.894,-1.935 0.448,-1.445 2.263,3.09 -4.399,3.696 h -0.703 l -4.964,3.642 h -1.871 l -4.964,-3.642 h -0.703 l -4.4,-3.696 2.265,-3.09 0.448,1.445 2.892,1.936 h 0.842 l 2.658,-1.77 V 82.42 l -17.373,-10.66 h -14.958 V 59.424 l -5.982,-4.677 h -7.604 l -3.328,3.378 2.252,-0.017 z"
     style="fill:#383739"
     id="path26" />
  <path
     style="fill:#ffc72c"
     d="m 210.2876,87.319 1.901,1.454 -1.901,1.453 V 87.32 Z m -6.044,2.644 h 0.07 l 4.964,3.643 h 0.58 v -2.842 l -2.604,-1.991 2.604,-1.992 v -5.337 l -18.589,-11.408 h -13.742 V 58.574 l -7.095,-5.55 h -10.701 l -2.69,3.042 -2.69,-3.041 h -3.176 l 4.36,5.318 v 0.863 l 1.727,1.5 2.774,-2.16 -1.628,0.013 v -0.54 l 3.629,-3.7 h 7.974 l 6.262,4.898 V 71.33 h 14.651 l 17.68,10.85 v 3.264 l -2.956,1.97 h -1.103 l -3.126,-2.093 -0.24,-0.777 -1.525,2.08 3.973,3.338 h 0.617 z m -47.2,-39.76 2.117,2.394 h -4.236 z m 52.815,-34.807 -1.9,1.453 1.9,1.454 z m 51.127,37.63 2.118,2.393 2.118,-2.394 z m -45.154,-37.367 -4.964,-3.642 h -0.58 v 2.84 l 2.606,1.993 -2.606,1.992 v 5.337 l 18.59,11.407 h 13.741 V 47.05 l 7.095,5.549 h 10.7 l 2.69,-3.041 2.69,3.04 h 3.177 l -4.36,-5.317 v -0.864 l -1.726,-1.5 -2.775,2.16 1.629,-0.013 v 0.54 l -3.63,3.7 h -7.973 l -6.262,-4.898 V 34.29 h -14.652 l -17.679,-10.85 v -3.264 l 2.956,-1.97 h 1.102 l 3.127,2.094 0.24,0.776 1.525,-2.08 -3.973,-3.339 h -0.688 z"
     id="path27" />
  <path
     style="fill:#ffffff"
     d="m 209.8586,90.226 -1.9,-1.453 1.9,-1.453 z m -50.698,-37.2 -2.118,2.394 -2.118,-2.394 z m 56.741,36.937 h -0.07 l -4.964,3.643 h -0.58 v -2.84 l 2.606,-1.993 -2.606,-1.993 v -5.336 l 18.59,-11.408 h 13.741 V 58.574 l 7.095,-5.549 h 10.7 l 2.69,3.041 2.69,-3.041 h 3.177 l -4.36,5.318 v 0.863 l -1.726,1.5 -2.775,-2.16 1.629,0.013 v -0.54 l -3.63,-3.7 h -7.973 l -6.262,4.898 v 12.115 h -14.652 l -17.679,10.848 v 3.264 l 2.956,1.97 h 1.102 l 3.127,-2.093 0.24,-0.777 1.525,2.081 -3.973,3.337 h -0.618 z m 47.202,-39.76 -2.118,2.394 h 4.237 z m -58.787,-34.543 4.963,-3.642 h 0.58 v 2.84 l -2.605,1.993 2.606,1.992 v 5.337 l -18.59,11.408 h -13.74 V 47.05 l -7.096,5.549 h -10.703 l -2.69,-3.041 -2.69,3.04 h -3.175 l 4.36,-5.317 v -0.863 l 1.727,-1.5 2.773,2.16 -1.628,-0.014 v 0.541 l 3.63,3.698 h 7.973 l 6.262,-4.897 V 34.291 h 14.651 l 17.68,-10.849 v -3.265 l -2.956,-1.969 h -1.102 l -3.127,2.093 -0.24,0.776 -1.525,-2.08 3.974,-3.338 h 0.687 z m 5.972,2.645 1.901,-1.454 -1.901,-1.454 z"
     id="path28" />
  <path
     style="fill:#00843d"
     d="M 209.8596,53.025 V 24.68 l -18.469,11.334 h -13.434 v 11.243 l -6.828,5.34 h 39.16 v 28.345 l 18.467,-11.334 h 13.435 V 58.366 l 6.828,-5.34 z"
     id="path29" />
  <path
     style="fill:#d22630"
     d="m 171.1276,53.025 6.829,5.34 v 11.243 h 13.434 l 18.469,11.334 V 52.596 l 39.159,0.001 -6.828,-5.34 V 36.014 h -13.435 l -18.467,-11.333 v 28.344 z"
     id="path30" />
  <path
     d="m 190.1946,39.063 -3.195,-2.978 -3.166,1.952 3.2,2.984 -4.11,2.547 h 8.97 l 7.729,7.29 2.472,-2.61 -7.515,-7.09 v -4.811 z m 39.755,27.497 3.196,2.978 3.165,-1.953 -3.2,-2.984 4.11,-2.546 h -8.97 l -7.728,-7.291 -2.473,2.611 7.515,7.09 v 4.811 z m -39.755,0 -3.196,2.978 -3.165,-1.953 3.2,-2.984 -4.11,-2.546 h 8.97 l 7.728,-7.291 2.473,2.611 -7.515,7.09 v 4.811 z m 39.755,-27.497 3.196,-2.978 3.165,1.952 -3.2,2.984 4.11,2.547 h -8.97 l -7.728,7.29 -2.473,-2.61 7.515,-7.09 v -4.811 z"
     style="fill:#383739"
     id="path31" />
  <path
     style="fill:#d22630"
     d="m 233.1986,69.002 -2.871,-2.677 2.406,-1.49 2.875,2.68 z m -7.205,-0.495 V 64.28 l -7.337,-6.921 1.884,-1.99 7.541,7.114 h 7.636 z m -39.047,-31.887 2.872,2.677 -2.407,1.49 -2.875,-2.68 z m 7.206,0.496 v 4.226 l 7.337,6.922 -1.884,1.99 -7.541,-7.114 h -7.636 z"
     id="path32" />
  <path
     style="fill:#00843d"
     d="m 233.1986,36.62 -2.871,2.677 2.406,1.49 2.875,-2.68 z m -7.205,0.496 v 4.226 l -7.337,6.922 1.884,1.99 7.541,-7.114 h 7.636 z m -39.047,31.886 2.871,-2.677 -2.406,-1.49 -2.875,2.68 z m 7.205,-0.495 V 64.28 l 7.338,-6.921 -1.884,-1.99 -7.541,7.114 h -7.636 z"
     id="path33" />
  <path
     d="m 229.9326,52.812 -19.859,13.235 -19.859,-13.235 19.859,-13.236 z"
     style="fill:#383739"
     id="path34" />
  <path
     style="fill:#ffffff"
     d="m 209.8596,40.233 -18.551,12.364 h 37.531 L 210.2886,40.233 V 65.39 l 18.552,-12.365 h -37.533 l 18.552,12.365 z"
     id="path35" />
  <path
     d="m 215.3846,57.363 v 3.639 h -10.62 v -3.64 h -6.874 V 48.26 h 6.873 v -3.64 h 10.621 v 3.64 h 6.873 v 9.103 z"
     style="fill:#383739"
     id="path36" />
  <path
     style="fill:#d22630"
     d="m 205.1926,45.048 v 3.64 h -6.873 v 3.909 h 11.54 v -7.549 z m 5.096,7.549 h 11.54 v -3.91 h -6.872 v -3.639 h -4.668 z m -11.969,0.428 v 3.91 h 6.873 v 3.639 h 4.667 v -7.549 z m 11.97,7.549 h 4.667 v -3.639 h 6.873 v -3.91 h -11.54 v 7.55 z"
     id="path37" />
  <path
     d="m 243.9536,203.61 v -5.83 h 15.988 v -5.83 h 15.988 v -52.682 h -15.988 v -5.83 h -15.988 v -5.83 h -15.988 v -5.83 h -35.782 v 5.83 h -15.989 v 5.83 h -15.988 v 5.83 h -15.99 v 52.682 h 15.989 v 5.83 h 15.988 v 5.83 h 15.989 v 5.83 h 35.782 v -5.83 z"
     style="fill:#383739"
     id="path38" />
  <path
     style="fill:#ffc72c;fill-opacity:1"
     d="m 192.6346,122.193 v 5.826 h -15.996 v 5.827 h -15.996 v 5.826 h -15.996 v 51.854 h 15.996 v 5.827 h 15.996 v 5.825 h 15.996 v 5.826 h 34.903 v -5.826 h 15.997 v -5.825 h 15.997 v -5.827 h 15.994 v -51.854 h -15.994 v -5.826 h -15.997 v -5.827 h -15.997 v -5.826 z m 4.237,4.237 h 26.43 v 5.826 h 15.996 v 5.827 h 15.996 v 5.826 h 15.995 v 43.38 h -15.995 v 5.826 h -15.996 v 5.826 h -15.997 v 5.825 h -26.429 v -5.825 h -15.995 v -5.826 h -15.996 v -5.827 h -15.996 v -43.38 h 15.996 v -5.825 h 15.996 v -5.827 h 15.996 z"
     id="path39" />
  <path
     style="fill:#d22630"
     d="m 181.2856,198.519 v -5.83 h -15.988 v -5.83 h -15.989 v -42.5 h 15.989 v -5.831 h 15.988 v -5.83 h 15.988 v -5.83 h 25.601 v 5.83 h 15.989 v 5.83 h 15.987 v 5.83 h 15.99 v 42.5 h -15.99 v 5.83 h -15.987 v 5.831 h -15.989 v 5.83 h -25.6 v -5.83 z"
     id="path40" />
  <path
     d="m 184.9976,137.014 -4.141,-3.13 v 6.01 l -3.966,2.52 -0.01,-3.762 -3.803,3.416 -3.804,-3.416 -0.01,3.763 -4.394,-2.793 v 5.573 l -3.552,2.571 -0.01,-3.417 -4.219,3.056 -4.219,-3.056 -0.01,3.417 -3.98,-2.881 v 16.881 h -4.662 v 7.685 h 4.662 v 16.881 l 3.98,-2.882 0.01,3.418 4.22,-3.056 4.218,3.056 0.01,-3.418 3.551,2.571 v 5.574 l 4.395,-2.793 0.01,3.763 3.803,-3.416 3.804,3.416 0.01,-3.763 3.965,2.52 v 6.011 l 4.142,-3.13 0.009,4.198 4.058,-3.63 4.059,3.63 0.009,-4.198 3.713,2.806 v 6.411 l 5.551,-5.06 v 5.946 l 7.678,-4.936 7.678,4.936 v -5.946 l 5.551,5.06 v -6.41 l 3.712,-2.807 0.01,4.198 4.058,-3.63 4.06,3.63 0.008,-4.198 4.14,3.13 v -6.011 l 3.967,-2.52 0.01,3.763 3.804,-3.416 3.803,3.416 0.01,-3.763 4.395,2.793 v -5.574 l 3.552,-2.57 0.01,3.417 4.218,-3.056 4.22,3.056 0.01,-3.418 3.98,2.882 V 169.45 h 4.661 v -7.685 h -4.662 v -16.881 l -3.98,2.881 -0.01,-3.417 -4.219,3.056 -4.219,-3.056 -0.009,3.417 -3.551,-2.571 v -5.573 l -4.395,2.793 -0.01,-3.763 -3.804,3.416 -3.804,-3.416 -0.01,3.763 -3.966,-2.521 v -6.01 l -4.14,3.13 -0.01,-4.199 -4.058,3.63 -4.06,-3.63 -0.008,4.199 -3.713,-2.807 v -6.41 l -5.55,5.06 v -5.946 l -7.679,4.936 -7.678,-4.936 v 5.946 l -5.55,-5.06 v 6.41 l -3.714,2.807 -0.009,-4.199 -4.059,3.63 -4.058,-3.63 z"
     style="fill:#383739"
     id="path41" />
  <g
     style="fill:#00843d"
     id="g42"
     transform="translate(21.076596)">
    <path
       d="m 132.21,148.604 0.01,-3.418 3.793,2.748 0.127,-0.093 3.665,-2.655 0.01,3.418 3.978,-2.88 v 39.769 l -3.978,-2.88 -0.01,3.418 -3.792,-2.748 -3.793,2.748 -0.01,-3.418 -3.978,2.88 v -16.471 h -4.662 v -6.827 h 4.662 v -16.47 z m 32.146,-14.832 3.632,3.248 3.633,-3.248 0.009,4.102 4.139,-3.129 v 61.728 l -4.14,-3.13 -0.008,4.103 -3.633,-3.249 -3.632,3.249 -0.008,-4.102 -4.139,3.129 v -61.728 l 4.139,3.13 z m 49.284,0 -3.632,3.248 -3.633,-3.248 -0.009,4.102 -4.138,-3.129 v 61.728 l 4.138,-3.13 0.01,4.103 3.632,-3.249 3.632,3.249 0.009,-4.102 4.139,3.129 v -61.728 l -4.139,3.13 z m 32.146,14.832 -0.01,-3.418 -3.793,2.748 -0.128,-0.093 -3.665,-2.655 -0.01,3.418 -3.977,-2.88 v 39.769 l 3.977,-2.88 0.01,3.418 3.793,-2.748 3.793,2.748 0.01,-3.418 3.977,2.88 v -16.471 h 4.662 v -6.827 h -4.662 v -16.47 z"
       id="path42" />
  </g>
  <g
     style="fill:#ffc72c"
     id="g43"
     transform="translate(21.076596)">
    <path
       d="m 148.623,139.611 3.377,3.034 3.378,-3.034 0.01,3.583 4.392,-2.792 v 50.413 l -4.392,-2.791 -0.01,3.582 -3.378,-3.033 -3.377,3.033 -0.01,-3.582 -4.393,2.791 v -50.413 l 4.393,2.792 z m 33.125,-5.784 -5.551,-5.06 v 73.683 l 5.551,-5.06 v 6.131 l 7.249,-4.66 7.25,4.66 v -6.131 l 5.55,5.06 v -73.683 l -5.55,5.06 v -6.131 l -7.25,4.66 -7.249,-4.66 z m 47.625,5.784 -3.377,3.034 -3.378,-3.034 -0.01,3.583 -4.393,-2.792 v 50.413 l 4.394,-2.791 0.009,3.582 3.378,-3.033 3.377,3.033 0.01,-3.582 4.393,2.791 v -50.413 l -4.393,2.792 z"
       id="path43" />
  </g>
  <g
     id="f"
     style="fill:#383739"
     transform="translate(21.076596)">
    <g
       id="e">
      <path
         d="m 134.288,158.366 c 0.485,0.49 1.066,0.737 1.724,0.737 0.659,0 1.239,-0.247 1.725,-0.737 1.518,-1.53 1.57,-4.297 1.554,-6.289 l -2.072,2.19 -1.207,-2.083 c 0,0 -0.985,1.702 -1.207,2.083 l -2.072,-2.19 c -0.015,1.992 0.036,4.759 1.555,6.289 z m 16.678,-4.286 -1.28,-1.278 v -2.546 l -2.937,2.722 5.251,5.252 5.252,-5.252 -2.938,-2.722 v 2.546 l -1.279,1.278 v -4.511 l 2.265,-1.945 -3.3,-2.834 -3.3,2.834 2.266,1.945 z m 15.987,-5.06 -1.279,-1.279 v -2.546 l -2.937,2.723 5.251,5.251 5.251,-5.251 -2.937,-2.723 v 2.546 l -1.28,1.279 v -4.512 l 2.266,-1.945 -3.3,-2.833 -3.3,2.833 2.265,1.945 z"
         id="path44" />
      <path
         style="fill:#ffffff"
         d="m 136.013,153.039 1.123,1.94 1.709,-1.806 c -0.06,2.25 -0.553,4.026 -1.412,4.89 -0.402,0.406 -0.88,0.612 -1.42,0.612 -0.54,0 -1.018,-0.206 -1.42,-0.611 -0.859,-0.865 -1.353,-2.642 -1.412,-4.89 l 1.708,1.805 z m 32.582,-8.727 v 5.743 l 2.136,-2.135 v -1.743 l 1.891,1.754 -4.633,4.633 -4.634,-4.633 1.891,-1.754 v 1.743 l 2.136,2.135 v -5.743 l -2.035,-1.748 2.642,-2.268 2.642,2.268 z"
         id="path45" />
      <path
         style="fill:#d22630"
         d="m 152.607,149.372 v 5.743 l 2.136,-2.136 v -1.742 l 1.891,1.753 -4.634,4.634 -4.633,-4.634 1.891,-1.753 v 1.742 l 2.136,2.136 v -5.743 l -2.035,-1.748 2.641,-2.268 2.643,2.268 z"
         id="path46" />
    </g>
    <use
       height="100%"
       width="100%"
       transform="matrix(-1,0,0,1,377.996,0)"
       xlink:href="#e"
       id="use46" />
    <path
       d="m 195.282,150.937 -1.72,-2.377 4.411,-4.072 -4.113,-3.38 v 2.394 l -1.72,1.472 v -4.342 l 3.885,-2.864 -7.029,-5.18 -7.029,5.18 3.887,2.864 v 4.342 l -1.72,-1.472 v -2.394 l -4.114,3.38 4.412,4.072 -1.72,2.377 z"
       id="path47" />
    <path
       style="fill:#d22630"
       d="m 183.552,150.509 1.45,-2.006 -4.328,-3.996 3.032,-2.491 v 1.684 l 2.577,2.206 v -5.49 l -3.592,-2.647 6.307,-4.649 6.306,4.649 -3.591,2.647 v 5.49 l 2.577,-2.206 v -1.684 l 3.032,2.491 -4.329,3.996 1.451,2.006 z"
       id="path48" />
    <path
       d="m 185.785,137.769 3.212,2.367 3.212,-2.367 -3.212,-2.368 -0.127,0.095 z"
       id="path49" />
    <path
       style="fill:#00843d"
       d="m 188.997,135.934 2.49,1.835 -2.49,1.835 -2.49,-1.835 z"
       id="path50" />
  </g>
  <use
     height="100%"
     width="100%"
     transform="matrix(1,0,0,-1,0,331.216)"
     xlink:href="#f"
     style="fill:#383739"
     id="use50" />
  <path
     d="m 266.9786,163.15 h -7.037 v -2.805 h -21.511 l -14.974,-9.836 h -26.765 l -14.974,9.836 h -21.51 v 2.805 h -7.038 v 4.918 h 7.037 v 2.805 h 21.511 l 14.974,9.836 h 26.765 l 14.974,-9.836 h 21.51 v -2.805 h 7.038 z"
     style="fill:#383739"
     id="path51" />
  <path
     style="fill:#d22630"
     d="m 196.8186,150.953 -14.99,9.799 h -21.186 v 2.807 h -7.044 v 4.078 h 7.044 v 2.808 h 21.187 l 14.989,9.851 h 26.536 l 14.936,-9.851 h 21.24 v -2.808 h 7.044 v -4.078 h -7.044 v -2.807 h -21.24 l -14.936,-9.799 z m 0.318,1.43 h 25.847 l 13.718,9.004 v 1.377 h 15.308 v 5.72 h -15.308 v 1.378 l -13.718,8.951 h -25.847 l -13.665,-8.951 v -1.377 h -15.36 v -5.72 h 15.36 v -1.378 z"
     id="path52" />
  <path
     style="fill:#d22630"
     d="m 222.8756,152.826 13.379,8.783 v 1.56 h 15.332 v 4.88 h -15.332 v 1.559 l -13.379,8.783 h -25.604 l -13.38,-8.783 v -1.56 h -15.331 v -4.88 h 15.332 v -1.559 l 13.379,-8.783 z"
     id="path53" />
  <g
     style="fill:#383739"
     id="g57"
     transform="translate(21.076596)">
    <path
       d="m 169.551,170.598 5.793,4.349 3.81,-2.862 -2.215,-1.663 -1.595,1.198 -1.362,-1.022 21.815,-16.379 h -4.43 z m 12.645,6.4 h 4.43 l 21.816,-16.378 -5.792,-4.348 -3.811,2.86 2.215,1.663 1.596,-1.198 1.362,1.023 z m 9.171,0 h 4.43 l -21.815,-16.378 1.362,-1.023 1.595,1.198 2.216,-1.662 -3.811,-2.861 -5.793,4.348 z m 12.645,-6.4 -1.362,1.022 -1.596,-1.198 -2.215,1.663 3.811,2.862 5.792,-4.349 -21.816,-16.379 h -4.43 z m -38.848,-4.989 3.893,2.586 3.894,-2.586 -3.894,-2.586 z"
       id="path54" />
    <path
       d="m 185.104,165.609 3.893,2.586 3.894,-2.586 -3.894,-2.586 z m 27.728,0 -3.893,2.586 -3.894,-2.586 3.894,-2.586 z"
       id="path55" />
    <path
       style="fill:#ffc72c"
       d="m 207.729,170.598 -5.078,3.813 -3.098,-2.326 1.502,-1.127 1.596,1.198 2.075,-1.558 -21.245,-15.95 h 3.003 z m -13.216,5.972 h -3.003 l -21.244,-15.95 5.079,-3.813 3.096,2.326 -1.501,1.126 -1.595,-1.198 -2.076,1.559 z m -8.029,0 h -3.003 l 21.245,-15.95 -2.075,-1.559 -1.596,1.198 -1.502,-1.126 3.098,-2.326 5.078,3.813 z m 5.026,-21.922 h 3.003 l -21.244,15.95 2.076,1.558 1.595,-1.198 1.501,1.127 -3.096,2.326 -5.08,-3.813 z"
       id="path56" />
    <path
       style="fill:#00843d"
       d="m 169.057,163.538 3.119,2.071 -3.119,2.071 -3.119,-2.07 z m 19.941,0 3.119,2.071 -3.119,2.071 -3.118,-2.07 z m 19.941,0 -3.119,2.071 3.119,2.071 3.118,-2.07 z"
       id="path57" />
  </g>
  <g
     style="fill:#383739"
     id="g60"
     transform="translate(21.076596)">
    <path
       d="m 120.514,274.151 -1.528,2.16 2.739,2.095 -2.74,2.094 1.528,2.16 3.182,0.37 3.081,-2.38 7.682,4.88 v -4.053 l -4.835,-3.071 4.835,-3.071 v -4.053 l -7.682,4.88 -3.08,-2.38 z"
       id="path58" />
    <path
       d="m 120.514,260.073 -1.528,2.161 2.739,2.094 -2.74,2.094 1.528,2.161 3.182,0.37 3.081,-2.381 7.682,4.88 v -4.053 l -4.835,-3.07 4.835,-3.072 v -4.053 l -7.682,4.88 -3.08,-2.38 z m 0,36.666 -1.528,-2.16 2.739,-2.095 -2.74,-2.094 1.528,-2.16 3.182,-0.37 3.081,2.38 7.682,-4.88 v 4.053 l -4.835,3.071 4.835,3.071 v 4.053 l -7.682,-4.88 -3.08,2.38 z m 136.968,-22.588 1.528,2.16 -2.739,2.095 2.739,2.094 -1.528,2.16 -3.181,0.37 -3.081,-2.38 -7.683,4.88 v -4.053 l 4.836,-3.071 -4.836,-3.071 v -4.053 l 7.683,4.88 3.08,-2.38 z"
       id="path59" />
    <path
       d="m 257.482,260.073 1.528,2.161 -2.739,2.094 2.739,2.094 -1.528,2.161 -3.181,0.37 -3.081,-2.381 -7.683,4.88 v -4.053 l 4.836,-3.07 -4.836,-3.072 v -4.053 l 7.683,4.88 3.08,-2.38 z m 0,36.666 1.528,-2.16 -2.739,-2.095 2.739,-2.094 -1.528,-2.16 -3.181,-0.37 -3.081,2.38 -7.683,-4.88 v 4.053 l 4.836,3.071 -4.836,3.071 v 4.053 l 7.683,-4.88 3.08,2.38 z M 226.727,235.73 v 5.856 h 4.26 v 2.588 h 4.184 v -4.713 h -3.732 v -3.731 z m 12.556,9.235 v 5.855 h 4.255 v 2.589 h 4.189 v -4.713 h -3.732 v -3.731 z m -88.014,-9.235 v 5.856 h -4.26 v 2.588 h -4.184 v -4.713 h 3.732 v -3.731 z m 75.458,85.353 v -5.856 h 4.26 v -2.588 h 4.184 v 4.712 h -3.732 v 3.732 z m -75.458,0 v -5.856 h -4.26 v -2.588 h -4.184 v 4.712 h 3.732 v 3.732 z m 88.014,-9.235 v -5.855 h 4.255 v -2.589 h 4.189 v 4.712 h -3.732 v 3.732 z M 138.714,244.965 v 5.855 h -4.256 v 2.589 h -4.188 v -4.713 h 3.732 v -3.731 z m 0,66.883 v -5.855 h -4.256 v -2.589 h -4.188 v 4.712 h 3.732 v 3.732 z m 66.039,-76.254 -3.25,-3.156 -3.194,2.959 2.783,2.701 -3.592,3.488 h 5.334 l 1.919,-1.863 1.92,1.863 h 5.333 l -3.593,-3.488 2.783,-2.701 -3.193,-2.959 c -1.085,1.05 -2.167,2.104 -3.25,3.156 z m -15.755,0 -3.25,-3.156 -3.193,2.959 2.783,2.701 -3.593,3.488 h 5.334 l 1.919,-1.863 1.92,1.863 h 5.333 l -3.592,-3.488 2.782,-2.701 -3.192,-2.959 c -1.085,1.05 -2.167,2.104 -3.251,3.156 z m -15.754,0 3.25,-3.156 3.194,2.959 -2.783,2.701 3.592,3.488 h -5.334 l -1.919,-1.863 -1.92,1.863 h -5.333 l 3.593,-3.488 -2.783,-2.701 3.193,-2.959 c 1.085,1.05 2.167,2.104 3.25,3.156 z m 31.509,85.625 -3.25,3.155 -3.194,-2.958 2.783,-2.701 -3.592,-3.488 h 5.334 l 1.919,1.863 1.92,-1.863 h 5.333 l -3.593,3.488 2.783,2.7 -3.193,2.96 c -1.085,-1.051 -2.167,-2.104 -3.25,-3.156 z m -15.755,0 -3.25,3.155 -3.193,-2.958 2.783,-2.701 -3.593,-3.488 h 5.334 l 1.919,1.863 1.92,-1.863 h 5.333 l -3.592,3.488 2.782,2.7 -3.192,2.96 c -1.085,-1.051 -2.167,-2.104 -3.251,-3.156 z m -15.754,0 3.25,3.155 3.194,-2.958 -2.783,-2.701 3.592,-3.488 h -5.334 l -1.919,1.863 -1.92,-1.863 h -5.333 l 3.593,3.488 -2.783,2.7 3.193,2.96 c 1.085,-1.051 2.167,-2.104 3.25,-3.156 z"
       id="path60" />
  </g>
  <g
     style="fill:#00843d"
     id="g61"
     transform="translate(21.076596)">
    <path
       d="m 134.029,281.713 v 3.037 l -7.278,-4.623 -3.18,2.458 -2.819,-0.327 -1.178,-1.668 2.856,-2.184 -2.856,-2.184 1.179,-1.667 2.817,-0.327 3.181,2.458 7.278,-4.623 v 3.036 l -5.206,3.307 z m 0,-14.078 v 3.037 l -7.278,-4.623 -3.18,2.458 -2.819,-0.327 -1.178,-1.668 2.856,-2.184 -2.856,-2.183 1.179,-1.667 2.817,-0.328 3.181,2.458 7.278,-4.623 v 3.037 l -5.206,3.306 z m 0,21.543 v -3.037 l -7.278,4.623 -3.18,-2.458 -2.819,0.327 -1.178,1.668 2.856,2.184 -2.856,2.184 1.179,1.667 2.817,0.327 3.181,-2.458 7.278,4.623 v -3.036 l -5.206,-3.307 z m 109.938,-7.465 v 3.037 l 7.278,-4.623 3.18,2.458 2.818,-0.327 1.179,-1.668 -2.856,-2.184 2.856,-2.184 -1.179,-1.667 -2.818,-0.327 -3.18,2.458 -7.278,-4.623 v 3.036 l 5.206,3.307 z m 0,-14.078 v 3.037 l 7.278,-4.623 3.18,2.458 2.818,-0.327 1.179,-1.668 -2.856,-2.184 2.856,-2.183 -1.179,-1.667 -2.818,-0.328 -3.18,2.458 -7.278,-4.623 v 3.037 l 5.206,3.306 z m 0,21.543 v -3.037 l 7.278,4.623 3.18,-2.458 2.818,0.327 1.179,1.668 -2.856,2.184 2.856,2.184 -1.179,1.667 -2.818,0.327 -3.18,-2.458 -7.278,4.623 v -3.036 l 5.206,-3.307 z m -12.956,-53.019 v 3.732 h 3.731 v 3.855 h -3.326 v -2.588 h -4.26 v -4.999 z m 12.555,9.234 v 3.731 h 3.731 v 3.856 h -3.327 v -2.588 h -4.259 v -4.999 z m -96.581,-9.234 v 3.732 h -3.731 v 3.855 h 3.327 v -2.588 h 4.259 v -4.999 z m 84.026,84.494 v -3.731 h 3.731 v -3.855 h -3.326 v 2.587 h -4.26 v 4.999 z m -84.026,0 v -3.731 h -3.732 v -3.855 h 3.327 v 2.587 h 4.26 v 4.999 z m 96.581,-9.234 v -3.731 h 3.731 v -3.855 h -3.327 v 2.587 h -4.259 v 4.999 z M 134.43,245.393 v 3.731 h -3.731 v 3.856 h 3.327 v -2.588 h 4.259 v -4.999 z m 0.001,66.026 v -3.731 h -3.732 v -3.855 h 3.327 v 2.587 h 4.26 v 4.999 z m 67.065,-78.39 3.257,3.162 3.257,-3.162 2.564,2.375 -2.776,2.694 3.151,3.06 h -4.102 l -2.094,-2.033 -2.094,2.033 h -4.102 l 3.151,-3.06 -2.776,-2.694 z m -15.755,0 3.257,3.162 3.257,-3.162 2.563,2.375 -2.775,2.694 3.151,3.06 h -4.103 l -2.093,-2.033 -2.094,2.033 h -4.102 l 3.15,-3.06 -2.775,-2.694 z m -9.239,0 -3.257,3.162 -3.257,-3.162 -2.564,2.375 2.776,2.694 -3.151,3.06 h 4.102 l 2.094,-2.033 2.094,2.033 h 4.102 l -3.151,-3.06 2.776,-2.694 z m 24.994,90.755 3.257,-3.163 3.257,3.163 2.564,-2.375 -2.776,-2.694 3.151,-3.06 h -4.102 l -2.094,2.032 -2.094,-2.032 h -4.102 l 3.151,3.06 -2.776,2.694 z m -15.755,0 3.257,-3.163 3.257,3.163 2.563,-2.375 -2.775,-2.694 3.151,-3.06 h -4.103 l -2.093,2.032 -2.094,-2.032 h -4.102 l 3.15,3.06 -2.775,2.694 z m -9.239,0 -3.257,-3.163 -3.257,3.163 -2.564,-2.375 2.776,-2.694 -3.151,-3.06 h 4.102 l 2.094,2.032 2.094,-2.032 h 4.102 l -3.151,3.06 2.776,2.694 z"
       id="path61" />
  </g>
  <path
     d="m 167.6566,306.421 v 9.234 h 84.836 v -9.234 h 12.55 v -56.03 h -12.55 v -9.233 h -84.836 v 9.234 h -12.55 v 56.029 z"
     style="fill:#383739"
     id="path62" />
  <path
     style="fill:#ffc72c;fill-opacity:1"
     d="m 168.1106,241.578 v 9.217 h -12.553 v 55.19 h 12.553 v 9.217 h 83.95 v -9.217 h 12.555 v -55.19 h -12.554 v -9.217 z m 5.403,3.55 h 73.146 v 8.897 l 3.019,2.226 h 11.388 v 44.332 h -11.44 l -2.967,2.171 v 8.951 h -73.146 v -8.898 l -3.02,-2.224 h -11.44 v -44.332 h 11.388 l 3.072,-2.226 v -8.898 z"
     id="path63" />
  <path
     style="fill:#d22630"
     d="m 173.9366,245.551 v 8.158 l 11.017,-8.158 z m 61.228,0 11.017,8.158 v -8.158 z m -75.635,11.124 v 7.627 l 10.382,-7.627 h -10.381 z m 90.679,0 10.434,7.68 v -7.68 z m 10.434,35.75 -10.434,7.734 h 10.434 z m -101.113,0.053 v 7.681 h 10.381 z m 14.407,10.647 v 8.104 h 10.964 z m 72.245,0 -10.963,8.104 h 10.963 z"
     id="path64" />
  <path
     style="fill:#00843d"
     d="m 234.4536,245.559 26.188,19.342 v 27.01 l -26.188,19.342 h -48.76 l -26.187,-19.342 V 264.9 l 26.187,-19.342 z"
     id="path65" />
  <path
     d="m 165.7436,295.021 -3.01,-3.494 2.826,-3.28 -2.827,-3.28 2.827,-3.28 -2.827,-3.28 2.827,-3.28 -2.827,-3.281 2.826,-3.28 -2.826,-3.28 3.011,-3.494 h 88.661 l 3.011,3.494 -2.826,3.28 2.826,3.28 -2.826,3.28 2.826,3.28 -2.826,3.28 2.826,3.28 -2.826,3.28 2.826,3.28 -3.01,3.495 z m 60.946,-45.236 -3.495,-3.011 -3.28,2.826 -3.28,-2.826 -3.28,2.826 -3.28,-2.826 -3.28,2.826 -3.281,-2.826 -3.28,2.826 -3.28,-2.826 -3.494,3.01 v 57.244 l 3.494,3.011 3.28,-2.827 3.28,2.826 3.28,-2.826 3.28,2.826 3.28,-2.826 3.28,2.826 3.28,-2.826 3.281,2.827 3.495,-3.011 z"
     style="fill:#383739"
     id="path66" />
  <g
     style="fill:#ffc72c"
     id="g68"
     transform="translate(21.076596)">
    <path
       d="m 198.623,249.981 -3.065,-2.642 -3.066,2.642 v 56.85 l 3.066,2.641 3.065,-2.641 z m -13.12,0 -3.066,-2.642 -3.065,2.642 v 56.85 l 3.065,2.641 3.066,-2.641 z"
       id="path67" />
    <path
       d="m 144.863,294.593 -2.641,-3.066 2.641,-3.066 h 88.269 l 2.641,3.066 -2.641,3.066 z m 88.269,-19.253 2.642,3.066 -2.642,3.065 h -88.268 l -2.642,-3.065 2.642,-3.066 z m 0,-6.988 2.641,-3.066 -2.641,-3.065 h -88.269 l -2.641,3.065 2.641,3.066 z"
       id="path68" />
  </g>
  <g
     style="fill:#d22630"
     id="g71"
     transform="translate(21.076596)">
    <path
       d="m 205.184,249.981 -3.065,-2.642 -3.066,2.642 v 56.85 l 3.066,2.641 3.064,-2.64 z m -26.241,0 -3.066,-2.642 -3.066,2.642 v 56.85 l 3.066,2.641 3.066,-2.641 z"
       id="path69" />
    <path
       d="m 144.864,288.032 -2.642,-3.066 2.642,-3.066 h 88.268 l 2.642,3.066 -2.642,3.066 z m 0,-13.12 -2.642,-3.066 2.642,-3.066 h 88.268 l 2.642,3.066 -2.642,3.066 z"
       id="path70" />
    <path
       d="m 192.064,306.831 -3.066,2.641 -3.066,-2.641 v -56.85 l 3.066,-2.642 3.066,2.642 z"
       id="path71" />
  </g>
  <path
     d="m 239.7076,251.09 h -59.48 v 4.724 h -7.602 v 45.185 h 7.602 v 4.723 h 59.694 v -4.723 h 7.602 v -45.185 h -7.602 v -4.724 z"
     style="fill:#383739"
     id="path72" />
  <path
     style="fill:#d22630"
     d="m 180.6636,251.535 v 4.715 h -7.627 v 44.332 h 7.627 v 4.714 h 6.25 l -12.447,-10.434 V 261.97 l 12.447,-10.434 h -6.25 z m 52.596,0 12.393,10.434 v 32.893 l -12.393,10.434 h 6.25 v -4.714 h 7.574 V 256.25 h -7.575 v -4.715 z"
     id="path73" />
  <g
     style="fill:#00843d"
     id="g75"
     transform="translate(21.076596)">
    <path
       d="m 166.525,251.535 -12.712,10.646 v 32.468 c 0.15,0.127 12.594,10.547 12.712,10.646 h 44.968 l 12.659,-10.646 v -32.468 l -12.659,-10.646 z m 0.636,1.8 h 43.644 l 11.546,9.694 v 30.773 l -11.546,9.64 H 167.16 l -11.494,-9.64 v -30.773 z"
       id="path74" />
    <path
       d="m 178.72,294.289 1.954,0.844 0.359,2.282 -2.46,2.164 3.573,3.454 h -3.437 l -2.458,-2.366 -2.458,2.366 h -3.438 l 3.573,-3.454 -2.46,-2.164 0.36,-2.282 1.953,-0.844 2.47,1.975 0.134,-0.107 z m 12.748,0 1.953,0.844 0.36,2.282 -2.46,2.164 3.573,3.454 h -3.437 l -2.459,-2.366 -2.457,2.366 h -3.438 l 3.573,-3.454 -2.46,-2.164 0.36,-2.282 1.953,-0.844 2.47,1.975 0.133,-0.107 z m 7.809,0 -1.953,0.844 -0.36,2.282 2.46,2.164 -3.573,3.454 h 3.437 l 2.459,-2.366 2.457,2.366 h 3.438 l -3.573,-3.454 2.46,-2.164 -0.36,-2.282 -1.953,-0.844 -2.47,1.975 -0.134,-0.107 z m -20.557,-31.766 1.954,-0.844 0.359,-2.281 -2.46,-2.164 3.573,-3.454 h -3.437 l -2.458,2.365 -2.458,-2.365 h -3.438 l 3.573,3.454 -2.46,2.163 0.36,2.282 1.953,0.844 2.47,-1.974 0.134,0.107 z m 12.748,0 1.953,-0.844 0.36,-2.281 -2.46,-2.164 3.573,-3.454 h -3.437 l -2.459,2.365 -2.457,-2.365 h -3.438 l 3.573,3.454 -2.46,2.163 0.36,2.282 1.953,0.844 2.47,-1.974 0.133,0.107 z m 7.809,0 -1.953,-0.844 -0.36,-2.281 2.46,-2.164 -3.573,-3.454 h 3.437 l 2.459,2.365 2.457,-2.365 h 3.438 l -3.573,3.454 2.46,2.163 -0.36,2.282 -1.953,0.844 -2.47,-1.974 -0.134,0.107 z m 22.624,3.644 -1.95,1.615 1.95,1.614 v 2.676 l -2.999,-2.471 -2.152,1.95 -2.308,-0.29 -0.813,-1.5 1.986,-1.98 -1.986,-1.98 0.813,-1.5 c 0.192,-0.023 2.135,-0.268 2.308,-0.29 l 2.152,1.95 2.999,-2.47 z m 0,10.625 -1.95,1.615 1.95,1.613 v 2.677 l -2.999,-2.471 -2.152,1.95 c -0.173,-0.022 -2.116,-0.267 -2.308,-0.29 l -0.813,-1.5 1.986,-1.98 -1.986,-1.98 0.813,-1.5 c 0.192,-0.023 2.135,-0.268 2.308,-0.29 l 2.152,1.95 2.999,-2.47 z m 0,13.854 -1.95,-1.615 1.95,-1.614 v -2.676 l -2.999,2.471 -2.152,-1.95 -2.308,0.29 -0.813,1.5 1.986,1.98 -1.986,1.98 0.813,1.5 c 0.192,0.023 2.135,0.268 2.308,0.29 l 2.152,-1.95 2.999,2.47 z m -65.804,-24.479 1.95,1.615 -1.95,1.614 v 2.676 l 2.999,-2.471 2.152,1.95 2.308,-0.29 0.813,-1.5 -1.986,-1.98 1.986,-1.98 -0.813,-1.5 c -0.192,-0.023 -2.136,-0.268 -2.308,-0.29 l -2.152,1.95 -2.999,-2.47 z m 0,10.625 1.95,1.615 -1.95,1.613 v 2.677 l 2.999,-2.471 2.152,1.95 c 0.172,-0.022 2.116,-0.267 2.308,-0.29 l 0.813,-1.5 -1.986,-1.98 1.986,-1.98 -0.813,-1.5 c -0.192,-0.023 -2.136,-0.268 -2.308,-0.29 l -2.152,1.95 -2.999,-2.47 z m 0,13.854 1.95,-1.615 -1.95,-1.614 v -2.676 l 2.999,2.471 2.152,-1.95 2.308,0.29 0.813,1.5 -1.986,1.98 1.986,1.98 -0.813,1.5 c -0.192,0.023 -2.136,0.268 -2.308,0.29 l -2.152,-1.95 -2.999,2.47 z"
       id="path75" />
  </g>
  <path
     style="fill:#d22630"
     d="m 188.3966,253.761 c -0.116,0.097 -10.602,8.876 -11.07,9.27 0.945,0.783 1.86,1.602 2.807,2.383 0.24,-0.217 2.066,-1.855 2.066,-1.855 l 2.701,0.371 1.06,1.96 -1.907,1.907 c 0.259,0.257 1.906,1.906 1.906,1.906 l -1.059,1.96 -2.701,0.318 c 0,0 -1.826,-1.584 -2.066,-1.8 l -2.966,2.488 v 0.848 c 0.998,0.826 1.965,1.664 2.966,2.49 0.24,-0.217 2.066,-1.801 2.066,-1.801 l 2.701,0.317 1.06,1.96 -1.907,1.907 c 0.259,0.257 1.906,1.907 1.906,1.907 l -1.059,2.012 -2.701,0.318 c 0,0 -1.826,-1.636 -2.066,-1.854 l -2.966,2.49 v 0.9 l 2.966,2.49 c 0.24,-0.217 2.066,-1.854 2.066,-1.854 l 2.701,0.37 1.06,1.96 -1.907,1.907 1.906,1.907 -1.059,1.96 -2.701,0.37 c 0,0 -1.826,-1.636 -2.066,-1.854 -0.944,0.778 -1.865,1.554 -2.807,2.331 l 11.07,9.27 h 2.436 l 3.55,-3.444 -2.278,-2.012 0.423,-2.755 2.384,-1.006 2.436,1.907 2.384,-1.907 2.383,1.006 0.477,2.755 -2.33,2.012 3.442,3.284 3.443,-3.284 -2.33,-2.012 0.423,-2.755 2.437,-1.006 2.383,1.907 2.436,-1.907 2.384,1.006 0.424,2.755 -2.278,2.012 3.39,3.337 3.443,-3.337 -2.278,-2.012 0.424,-2.755 2.436,-1.006 2.384,1.907 2.383,-1.907 2.437,1.006 0.424,2.755 -2.278,2.012 3.549,3.443 h 2.383 l 11.07,-9.269 c -0.943,-0.777 -1.862,-1.551 -2.807,-2.33 -0.24,0.217 -2.013,1.853 -2.013,1.853 l -2.701,-0.37 -1.112,-1.96 1.906,-1.907 -1.906,-1.907 1.112,-1.96 2.701,-0.37 c 0,0 1.773,1.637 2.013,1.854 l 2.966,-2.49 v -0.9 l -2.966,-2.49 c -0.24,0.218 -2.013,1.854 -2.013,1.854 l -2.701,-0.318 -1.112,-2.012 1.906,-1.907 -1.906,-1.907 1.112,-1.96 2.701,-0.317 c 0,0 1.773,1.584 2.013,1.8 0.994,-0.819 1.974,-1.62 2.966,-2.436 v -0.953 l -2.966,-2.437 c -0.24,0.217 -2.013,1.8 -2.013,1.8 l -2.701,-0.317 -1.112,-1.96 1.906,-1.906 -1.906,-1.907 1.112,-1.96 2.701,-0.37 c 0,0 1.773,1.637 2.013,1.853 0.95,-0.782 1.911,-1.548 2.86,-2.33 l -11.123,-9.322 h -2.383 l -3.549,3.442 2.277,2.013 -0.423,2.754 -2.437,1.06 -2.383,-1.907 -2.384,1.907 -2.436,-1.06 -0.424,-2.754 2.278,-2.013 -3.39,-3.284 -3.443,3.284 2.278,2.013 -0.424,2.754 -2.384,1.06 -2.436,-1.907 -2.383,1.907 -2.437,-1.06 -0.424,-2.754 2.33,-2.013 -3.442,-3.284 -3.443,3.284 2.33,2.013 -0.476,2.754 -2.383,1.06 -2.384,-1.907 -2.436,1.907 -2.384,-1.06 -0.423,-2.754 2.277,-2.013 -3.602,-3.442 z m -11.229,23.57 v 2.171 l 1.271,-1.112 z"
     id="path76" />
  <g
     style="fill:#ffffff"
     id="g77"
     transform="translate(21.076596)">
    <path
       d="m 176.271,301.271 -1.854,1.747 h 3.654 z m 12.712,0 -1.8,1.747 h 3.654 z m 12.764,0 -1.853,1.747 h 3.707 z m -27.383,-47.51 1.907,1.8 1.854,-1.8 z m 12.765,0 1.854,1.8 1.907,-1.8 z m 12.766,0 1.853,1.8 1.854,-1.8 z m 21.98,12.976 -1.271,1.06 1.271,1.006 z m 0,10.593 -1.271,1.06 1.271,1.059 z m 0,10.646 -1.271,1.06 1.271,1.059 z m -65.784,-21.291 v 2.171 l 1.271,-1.06 z m 0,10.645 v 2.171 l 1.271,-1.112 z m 0,10.594 v 2.171 l 1.271,-1.06 z"
       id="path77" />
  </g>
  <g
     style="fill:#383739"
     id="g84"
     transform="translate(21.076596)">
    <path
       d="m 199.901,274.857 v -3.791 h -3.837 v -4.157 h -14.132 v 4.157 h -3.837 v 3.791 h -5.299 v 7.098 h 5.3 v 3.79 h 3.836 v 4.158 h 14.132 v -4.157 h 3.837 v -3.791 h 5.299 v -7.098 z"
       id="path78" />
    <path
       style="fill:#ffc72c"
       d="m 188.783,267.338 v 4.285 l -6.074,3.453 v 3.116 h -9.485 v -2.906 h 5.299 v -3.791 h 3.837 v -4.157 z m 0.429,22.137 v -4.285 l 6.074,-3.453 v -3.116 h 9.485 v 2.906 h -5.299 v 3.791 h -3.837 v 4.157 z"
       id="path79" />
    <path
       style="fill:#ffffff"
       d="m 195.286,278.192 v -3.116 l -6.074,-3.453 v -4.285 h 6.423 v 4.157 h 3.837 v 3.79 h 5.299 v 2.907 z m -22.061,0.429 h 9.484 v 3.116 l 6.075,3.453 v 4.285 h -6.423 v -4.157 h -3.837 v -3.791 h -5.299 z"
       id="path80" />
    <path
       style="fill:#d22630"
       d="m 183.138,278.621 v 2.888 l 5.645,3.21 v -6.098 z"
       id="path81" />
    <path
       style="fill:#00843d"
       d="m 188.783,272.094 -5.645,3.21 v 2.888 h 5.645 z"
       id="path82" />
    <path
       style="fill:#d22630"
       d="m 194.858,278.192 v -2.888 l -5.645,-3.21 v 6.098 z"
       id="path83" />
    <path
       style="fill:#00843d"
       d="m 189.212,284.719 5.645,-3.21 v -2.888 h -5.645 z"
       id="path84" />
  </g>
  <path
     d="m 158.7236,353.73 v 11.717 h -11.165 v 10.627 h -11.317 v 30.259 h 11.317 v 10.627 h 11.165 v 11.717 h 40.598 l 7.14,4.29 -3.432,2.06 h -14.476 l -1.248,-1.408 h 13.119 l -3.696,-3.721 h -18.767 l 8.503,8.851 h 17.598 l 6.011,-3.612 6.012,3.612 h 17.599 l 8.502,-8.851 h -18.766 l -3.696,3.721 h 13.12 l -1.25,1.409 h -14.477 l -3.43,-2.061 7.14,-4.29 h 40.597 V 416.96 h 11.166 v -10.627 h 11.316 v -30.259 h -11.316 v -10.627 h -11.166 V 353.73 h -40.597 l -7.14,-4.29 3.43,-2.061 h 14.477 l 1.25,1.408 h -13.12 l 3.696,3.722 h 18.766 l -8.502,-8.852 h -17.6 l -6.01,3.612 -6.012,-3.612 h -17.598 l -8.503,8.852 h 18.767 l 3.696,-3.722 h -13.12 l 1.25,-1.408 h 14.475 l 3.431,2.062 -7.14,4.289 z"
     style="fill:#d22630;fill-opacity:1"
     id="path85" />
  <path
     style="fill:#ffc72c;fill-opacity:1"
     d="m 220.7056,428.23 h 40.307 v -11.706 h 11.123 v -10.646 h 11.335 v -29.396 h -11.335 v -10.593 h -11.123 v -11.706 h -40.306 l -16.737,-10.116 h -17.32 l -7.68,7.998 h 17.584 l 2.86,-2.86 h -13.082 l 2.013,-2.278 h 14.83 l 18.962,11.44 h 34.64 v 11.706 h 11.176 v 10.646 h 11.335 v 20.975 h -11.335 v 10.646 h -11.176 v 11.706 h -34.64 l -18.962,11.387 h -14.83 l -2.013,-2.224 h 13.083 l -2.86,-2.86 h -17.585 l 7.68,7.998 h 17.32 z m -22.722,-4.184 h -34.64 V 412.34 h -11.123 v -10.646 h -11.335 v -20.975 h 11.335 v -10.646 h 11.123 v -11.705 h 34.64 l 19.014,-11.441 h 14.779 l 2.013,2.278 h -13.03 l 2.86,2.86 h 17.585 l -7.68,-7.998 h -17.32 l -16.737,10.116 h -40.307 v 11.706 h -11.176 v 10.593 h -11.335 v 29.396 h 11.335 v 10.647 h 11.176 v 11.705 h 40.307 l 16.737,10.117 h 17.32 l 7.68,-7.998 h -17.585 l -2.86,2.86 h 13.03 l -2.013,2.224 h -14.777 z"
     id="path86" />
  <path
     style="fill:none"
     d="m 210.0596,351.59 -11.97,7.203 h -34.323 V 370.5 h -11.123 v 10.646 h -11.335 v 20.127 h 11.335 v 10.646 h 11.123 v 11.706 h 34.322 l 11.97,7.15 11.97,-7.15 h 34.322 v -11.706 h 11.176 v -10.646 h 11.335 v -20.127 h -11.335 V 370.5 h -11.176 v -11.706 h -34.322 z m 0,2.966 11.282,6.78 h 32.521 v 11.705 h 11.176 v 10.593 h 11.282 v 15.096 h -11.282 v 10.646 h -11.176 v 11.705 h -32.521 l -11.282,6.78 -11.229,-6.78 h -32.521 v -11.705 h -11.176 V 398.73 h -11.334 v -15.096 h 11.334 v -10.593 h 11.176 v -11.705 h 32.521 z"
     id="path87" />
  <path
     style="fill:#00843d"
     d="m 253.4186,408.954 v 11.717 h -32.2 l -11.145,6.696 -11.144,-6.696 h -32.2 v -11.717 h -11.166 v -10.628 h -11.316 V 384.08 h 11.316 v -10.627 h 11.166 v -11.717 h 32.2 l 11.144,-6.696 11.145,6.696 h 32.2 v 11.717 h 11.165 v 10.627 h 11.316 v 14.246 h -11.316 v 10.628 z"
     id="path88" />
  <g
     style="fill:#383739"
     id="g90"
     transform="translate(21.076596)">
    <path
       d="m 149.869,404.849 v 11.34 h 17.7 l -17.7,-11.74 z m 0,-27.291 v -11.34 h 17.7 l -17.7,11.739 z m 78.258,27.291 v 11.34 h -17.7 l 17.7,-11.74 z m 0,-27.291 v -11.34 h -17.7 l 17.7,11.739 z"
       id="path89" />
    <path
       style="fill:#d22630"
       d="m 150.298,405.248 15.85,10.513 h -15.85 z m 0,-28.089 c 0.616,-0.41 14.77,-9.797 15.85,-10.513 h -15.85 z m 77.4,28.089 -15.85,10.513 h 15.85 z m 0,-28.089 -15.85,-10.513 h 15.85 z"
       id="path90" />
  </g>
  <g
     id="g"
     style="fill:#383739"
     transform="translate(21.076596)">
    <path
       d="m 172.445,388.094 v -5.791 h -1.975 l -9.477,-5.925 -0.113,0.071 -9.362,5.854 h -1.976 v 5.791 h -4.455 v 6.22 h 4.455 v 5.79 h 1.976 l 9.475,5.925 9.477,-5.925 h 1.975 v -5.79 h 6.782 v -6.22 z"
       id="path91" />
    <path
       style="fill:#d22630"
       d="m 160.994,376.884 8.668,5.42 h -17.335 z m 8.667,23.22 -8.667,5.42 -8.666,-5.42 z m -2.099,-11.581 v 5.363 h -10.809 v -5.363 z"
       id="path92" />
    <g
       style="fill:#ffc72c"
       id="g93">
      <path
         d="m 172.017,394.313 v 5.363 h -10.809 v -5.363 z m -11.237,0 v 5.363 h -10.809 v -5.363 z m 18.019,-5.79 v 5.363 H 167.99 v -5.363 z m -22.474,0 v 5.363 h -10.809 v -5.363 z m 15.692,-5.791 v 5.362 h -10.809 v -5.362 z m -11.237,0 v 5.362 h -10.809 v -5.362 z"
         id="path93" />
    </g>
    <path
       d="m 153.349,389.714 v 2.98 h -4.855 v -2.98 z m 4.455,-5.791 v 2.98 h -4.855 v -2.98 z m 11.236,0 v 2.98 h -4.855 v -2.98 z m -4.455,5.791 v 2.98 h -4.855 v -2.98 z m 11.237,0 v 2.98 h -4.855 v -2.98 z m -6.782,5.791 v 2.98 h -4.855 v -2.98 z m -11.236,0 v 2.98 h -4.855 v -2.98 z"
       id="path94" />
    <g
       style="fill:#ffffff"
       id="g95">
      <path
         d="m 152.891,390.171 h -3.94 v 2.065 h 3.94 z m 4.455,-5.791 h -3.94 v 2.065 h 3.94 z m 11.237,0 h -3.94 v 2.065 h 3.94 z m -4.455,5.791 h -3.94 v 2.065 h 3.94 z m 11.237,0 h -3.94 v 2.065 h 3.94 z m -6.782,5.791 h -3.94 v 2.065 h 3.94 z m -11.237,0 h -3.94 v 2.065 h 3.94 z"
         id="path95" />
    </g>
  </g>
  <use
     height="100%"
     width="100%"
     transform="matrix(-1,0,0,1,420.1482,0)"
     xlink:href="#g"
     style="fill:#383739"
     id="use95" />
  <g
     id="h"
     style="fill:#383739"
     transform="translate(21.076596)">
    <path
       d="m 200.449,378.42 v 5.79 h -1.975 l -9.477,5.926 -0.113,-0.071 -9.362,-5.854 h -1.976 v -5.791 h -5.618 v -6.22 h 5.618 v -5.79 h 1.976 l 9.475,-5.926 9.477,5.926 h 1.975 v 5.79 h 5.618 v 6.22 z"
       id="path96" />
    <path
       style="fill:#ffc72c"
       d="m 188.998,389.63 8.668,-5.42 H 180.33 Z m 8.667,-23.22 -8.667,-5.42 -8.666,5.42 z"
       id="path97" />
    <g
       style="fill:#d22630"
       id="g98">
      <path
         d="m 200.021,372.2 v -5.362 h -10.809 v 5.362 z m -11.237,0 v -5.362 h -10.809 v 5.362 z m 16.855,5.791 v -5.363 H 194.83 v 5.363 z m -11.237,0 v -5.363 h -10.809 v 5.363 z m -11.237,0 v -5.363 h -10.808 v 5.363 z m 16.856,5.791 v -5.363 h -10.809 v 5.363 z m -11.237,0 v -5.363 h -10.809 v 5.363 z"
         id="path98" />
    </g>
    <path
       d="m 185.807,368.029 v 2.98 h -4.855 v -2.98 z m 11.237,0 v 2.98 h -4.855 v -2.98 z m -16.856,5.791 v 2.98 h -4.855 v -2.98 z m 11.238,0 v 2.98 h -4.855 v -2.98 z m 11.237,0 v 2.98 h -4.855 v -2.98 z m -16.856,5.791 v 2.98 h -4.855 v -2.98 z m 11.237,0 v 2.98 h -4.855 v -2.98 z"
       id="path99" />
    <g
       style="fill:#ffffff"
       id="g100">
      <path
         d="m 185.35,368.486 h -3.94 v 2.065 h 3.94 z m 11.237,0 h -3.94 v 2.065 h 3.94 z m -16.856,5.791 h -3.94 v 2.065 h 3.94 z m 11.238,0 h -3.94 v 2.065 h 3.94 z m 11.236,0 h -3.94 v 2.065 h 3.94 z m -16.855,5.791 h -3.94 v 2.065 h 3.94 z m 11.237,0 h -3.94 v 2.065 h 3.94 z"
         id="path100" />
    </g>
  </g>
  <use
     height="100%"
     width="100%"
     y="31.788"
     xlink:href="#h"
     style="fill:#383739"
     id="use100" />
  <path
     d="m 148.7526,479.354 42.052,-22.631 h 38.539 l 42.051,22.631 v 37.29 l -42.051,22.63 h -38.54 l -42.051,-22.63 z"
     style="fill:#383739"
     id="path101" />
  <path
     style="fill:#00843d"
     d="m 190.9396,457.151 -41.738,22.458 v 36.757 l 41.738,22.458 h 38.293 l 41.74,-22.458 V 479.61 l -41.74,-22.458 z m 0.74,3.019 h 36.812 l 39.514,21.239 v 33.21 l -39.514,21.239 h -36.834 l -39.512,-21.24 v -33.21 z"
     id="path102" />
  <path
     style="fill:#ffc72c"
     d="m 210.2886,497.784 v 37.64 h 18.095 l 39.183,-21.087 v -16.124 h -57.706 v -37.64 h -18.095 l -39.184,21.086 v 16.125 z"
     id="path103" />
  <path
     style="fill:#ffffff"
     d="m 209.8596,497.784 v 37.64 h -18.095 l -39.183,-21.087 v -16.124 h 57.706 v -37.64 h 18.096 l 39.183,21.086 v 16.125 z"
     id="path104" />
  <path
     d="m 213.5906,533.317 v -10.88 l -3.517,2.232 -3.518,-2.231 v 10.879 h -10.942 l 7.383,-5.414 v -7.723 l -11.26,-7.144 h -7.867 v -30.073 h 7.868 l 11.26,-7.144 v -7.723 l -7.384,-5.414 h 10.942 v 10.88 l 3.518,-2.232 3.517,2.232 v -10.88 h 10.942 l -7.383,5.414 v 7.723 l 11.26,7.144 h 7.867 v 30.073 h -7.868 l -11.26,7.144 v 7.723 l 7.384,5.414 z"
     style="fill:#383739"
     id="path105" />
  <path
     style="fill:#ffc72c"
     d="m 214.0326,463.135 v 11.229 l -3.761,-2.383 v 3.178 l 17.214,10.962 h 5.667 v 11.655 h 2.702 v -14.407 h -7.575 l -11.545,-7.31 V 467.9 l 6.513,-4.766 h -9.215 z m -29.714,35.064 v 14.407 h 7.52 l 11.6,7.361 v 8.158 l -6.514,4.766 h 9.216 v -11.229 l 3.707,2.385 v -3.285 l -17.213,-10.857 h -5.615 v -11.706 z"
     id="path106" />
  <path
     style="fill:#ffffff"
     d="m 196.9236,463.135 6.515,4.766 v 8.158 l -11.6,7.31 h -7.52 v 14.407 h 2.7 V 486.12 h 5.615 l 17.214,-10.91 v -3.23 l -3.707,2.383 v -11.229 h -9.217 z m 36.229,35.064 v 11.705 h -5.668 l -17.214,10.858 v 3.285 l 3.761,-2.385 v 11.229 h 9.216 l -6.514,-4.766 v -8.158 l 11.546,-7.36 h 7.574 v -14.408 z"
     id="path107" />
  <path
     style="fill:#d22630"
     d="m 187.4286,509.458 h 5.338 l 17.307,10.98 17.307,-10.98 h 5.338 v -22.916 h -5.338 l -17.307,-10.981 -17.307,10.98 h -5.338 z"
     id="path108" />
  <path
     d="m 222.0536,503.445 h 3.695 v -1.748 h -2.78 v -3.179 h 5.942 v 8.106 h -5.696 v 5.53 h -11.724 v -7.946 h 5.16 v 3.178 h -1.999 v 1.59 h 5.402 v -3.039 l -21.961,-13.383 h -3.695 v 1.748 h 2.78 v 3.178 h -5.942 v -8.104 h 5.696 v -5.53 h 11.724 v 7.945 h -5.16 v -3.178 h 1.999 v -1.589 h -5.402 v 3.038 z m -2,-13.383 v -3.038 h -5.402 v 1.589 h 1.999 v 3.178 h -5.16 v -7.945 h 11.725 v 5.53 h 5.695 v 8.104 h -5.941 v -3.178 h 2.78 v -1.748 h -3.696 l -21.96,13.383 v 3.038 h 5.4 v -1.59 h -1.998 v -3.177 h 5.16 v 7.945 h -11.724 v -5.53 h -5.696 v -8.105 h 5.942 v 3.179 h -2.78 v 1.748 h 3.695 z"
     style="fill:#383739"
     id="path109" />
  <path
     style="fill:#ffffff"
     d="m 220.4826,505.697 v 3.707 h -6.26 v -2.446 h 2 v -2.321 h -4.303 v 7.088 h 10.867 v -5.53 h 5.696 v -7.247 h -5.085 v 2.32 h 2.78 v 2.606 h -4.244 l -22.27,-13.571 v -3.707 h 6.26 v 2.446 h -1.999 v 2.321 h 4.303 v -7.088 h -10.867 v 5.53 h -5.695 v 7.247 h 5.083 v -2.321 h -2.78 v -2.605 h 4.244 z m 1.451,-13.571 h 4.245 v 2.605 h -2.78 v 2.321 h 5.084 v -7.248 h -5.695 v -5.53 h -10.868 v 7.089 h 4.303 v -2.321 h -1.999 v -2.446 h 6.259 v 3.707 l -22.27,13.57 h -4.243 v -2.605 h 2.78 v -2.321 h -5.084 v 7.248 h 5.695 v 5.53 h 10.867 v -7.089 h -4.303 v 2.322 h 1.999 v 2.445 h -6.26 v -3.707 z"
     id="path110" />
  <g
     style="fill:#383739"
     id="g111"
     transform="translate(21.076596)">
    <path
       d="m 238.042,499.884 v 11.762 h -5.005 v -4.154 h -5.046 v 4.154 h -5.005 v -11.762 h 5.005 v 4.154 h 5.046 v -4.154 z m -17.91,15.615 v 11.762 h -5.005 v -4.154 h -5.046 v 4.154 h -5.005 v -11.762 h 5.005 v 4.154 h 5.046 V 515.5 Z m 17.91,-19.386 v -11.762 h -5.005 v 4.154 h -5.046 v -4.154 h -5.005 v 11.762 h 5.005 v -4.154 h 5.046 v 4.154 z m -98.089,3.771 v 11.762 h 5.005 v -4.154 h 5.046 v 4.154 h 5.005 v -11.762 h -5.005 v 4.154 h -5.046 v -4.154 z m 0,-3.771 v -11.762 h 5.005 v 4.154 h 5.046 v -4.154 h 5.005 v 11.762 h -5.005 v -4.154 h -5.046 v 4.154 z m 80.179,-15.614 v -11.762 h -5.005 v 4.154 h -5.046 v -4.154 h -5.005 V 480.5 h 5.005 v -4.154 h 5.046 v 4.154 z m -62.268,35 v 11.762 h 5.005 v -4.154 h 5.046 v 4.154 h 5.005 v -11.762 h -5.005 v 4.154 h -5.046 V 515.5 Z m 0,-35 v -11.762 h 5.005 v 4.154 h 5.046 v -4.154 h 5.005 V 480.5 h -5.005 v -4.154 h -5.046 v 4.154 z m 65.254,-8.243 v 8.932 h 16.597 z m -68.241,51.486 V 514.81 H 138.28 Z m 0,-51.486 v 8.932 H 138.28 Z m 68.241,51.486 v -8.932 h 16.597 z"
       id="path111" />
  </g>
  <g
     style="fill:#d22630"
     id="g112"
     transform="translate(21.076596)">
    <path
       d="m 233.465,507.064 v 4.154 h 4.148 v -10.905 h -4.148 v 4.154 h -5.903 v -4.154 h -4.148 v 10.905 h 4.148 v -4.154 z m -17.91,15.614 v 4.154 h 4.148 v -10.905 h -4.148 v 4.154 h -5.903 v -4.154 h -4.148 v 10.905 h 4.148 v -4.154 z m 17.91,-33.744 v -4.154 h 4.148 v 10.905 h -4.148 v -4.155 h -5.903 v 4.155 h -4.148 V 484.78 h 4.148 v 4.154 z m -88.935,18.13 v 4.154 h -4.148 v -10.905 h 4.148 v 4.154 h 5.903 v -4.154 h 4.148 v 10.905 h -4.148 v -4.154 z m 0,-18.13 v -4.154 h -4.148 v 10.905 h 4.148 v -4.155 h 5.903 v 4.155 h 4.148 V 484.78 h -4.148 v 4.154 z m 71.025,-15.614 v -4.154 h 4.148 v 10.905 h -4.148 v -4.155 h -5.903 v 4.155 h -4.148 v -10.905 h 4.148 v 4.154 z m -53.115,49.358 v 4.154 h -4.148 v -10.905 h 4.148 v 4.154 h 5.903 v -4.154 h 4.148 v 10.905 h -4.148 v -4.154 z m 0,-49.358 v -4.154 h -4.148 v 10.905 h 4.148 v -4.155 h 5.903 v 4.155 h 4.148 v -10.905 h -4.148 v 4.154 z"
       id="path112" />
  </g>
  <path
     style="fill:#ffc72c"
     d="m 244.6466,472.986 v 7.786 h 14.461 z m -83.58,42.268 14.46,7.786 v -7.786 z"
     id="path113" />
  <path
     style="fill:#ffffff"
     d="m 175.5256,472.986 -14.46,7.786 h 14.46 z m 69.12,42.268 v 7.786 l 14.461,-7.786 z"
     id="path114" />
  <path
     style="fill:#ffc72c"
     d="m 277.9726,530.824 c -0.799,3.407 -3.508,5.979 -4.153,9.513 -1.293,-3.685 -2.484,-6.773 -1.595,-10.804 0.637,-2.883 3.062,-4.94 3.343,-7.902 2.644,2.377 3.214,5.749 2.405,9.193 z m 0.67,14.276 c -2.242,3.075 -5.36,5.434 -8.803,7.007 0.678,-2.694 -0.594,-4.722 -2.005,-6.86 -1.701,-2.574 -2.53,-5.103 -1.144,-8.067 0.646,1.541 1.514,2.821 2.533,4.139 1.507,2.055 2.497,3.883 2.73,6.52 1.742,-1.292 2.508,-3.22 3.44,-5.086 1.42,-2.673 3.712,-4.908 6.344,-6.369 -0.7,2.998 -1.238,6.169 -3.094,8.716 z m -12.578,9.166 c 0.48,1.708 0.893,3.4 0.8,5.186 1.483,-1.597 3.45,-2.799 5.206,-4.085 2.391,-1.934 5.178,-3.298 7.133,-5.76 -0.292,3.624 -1.843,6.578 -4.787,8.783 -3.113,2.33 -6.867,3.583 -9.933,6.03 0.459,-3.297 -0.752,-5.937 -1.785,-8.967 -0.86,-2.895 -0.027,-5.834 1.936,-8.04 -0.03,2.445 0.742,4.545 1.43,6.853 z m -6.986,11.133 c -0.645,2.5 -2.436,4.534 -3.66,6.764 3.3,-1.023 6.21,-2.812 9.192,-4.495 3.552,-1.934 7.409,-3.165 10.624,-5.719 -1.6,5.924 -5.566,9.359 -11.368,11.11 -3.967,1.198 -7.31,0.6 -12.124,2.546 0.552,-3.259 1.524,-6.776 3.065,-9.714 1.196,-2.125 2.522,-4.221 3.26,-6.562 1.07,1.923 1.577,3.879 1.011,6.07 z m -12.138,9.065 a 15.21,15.21 0 0 1 -4.495,4.875 c 4.683,0.299 8.452,-2.669 13.017,-2.798 2.82,-0.08 5.497,0.796 8.373,0.533 -3.413,2.303 -6.986,4.314 -11.14,4.851 -5.402,0.699 -10.383,-0.66 -16.342,-0.129 2.785,-1.965 4.178,-4.595 5.914,-7.423 2.26,-3.533 4.393,-6.05 8.79,-6.618 -1.765,1.983 -2.792,4.44 -4.117,6.71 z m -16.632,7.773 c 8.25,1.403 16.156,3.218 24.582,3.301 -9.432,3.288 -18.318,3.883 -27.672,0.488 -5.055,-1.835 -8.931,-2.817 -12.749,-2.544 -5.58,0.401 -12.36,2.603 -19.864,10.517 l -2.95,-2.36 c 10.756,-9.583 24.828,-11.753 38.653,-9.403 z"
     id="path115" />
</svg>
