<?xml version="1.0" encoding="UTF-8" standalone="no"?>
<svg
   width="1000"
   height="600"
   viewBox="0 0 100 60"
   fill="#fedd00"
   version="1.1"
   id="svg16"
   xmlns:xlink="http://www.w3.org/1999/xlink"
   xmlns="http://www.w3.org/2000/svg"
   xmlns:svg="http://www.w3.org/2000/svg">
  <defs
     id="defs2">
    <clipPath
       id="a">
      <path
         d="M 0,0 H 120 V 60 H 0 Z"
         id="path1" />
    </clipPath>
    <clipPath
       id="b">
      <path
         d="m 0,0 v 15 h 62 v 16 z m 0,30 v 1 H 30 V 0 h 30 z"
         id="path2" />
    </clipPath>
    <path
       id="c"
       d="M 0,-5.257 3.09,4.253 -5,-1.625 H 5 l -8.09,5.878 z" />
    <path
       id="d"
       d="M 0,5.257 -3.09,-4.253 5,1.625 H -5 l 8.09,-5.878 z" />
  </defs>
  <path
     fill="#012169"
     d="M 0,0 H 100 V 60 H 0 Z"
     id="path3"
     style="display:inline;stroke-width:0.912871" />
  <g
     clip-path="url(#a)"
     fill="none"
     stroke="#c8102e"
     stroke-width="6"
     id="g7"
     style="display:inline"
     transform="scale(0.83333336,1)">
    <path
       stroke="#ffffff"
       d="M 0,0 60,30 M 0,30 60,0"
       id="path4" />
    <path
       stroke-width="4"
       clip-path="url(#b)"
       d="M 0,0 60,30 M 0,30 60,0"
       id="path5" />
    <path
       stroke="#ffffff"
       stroke-width="10"
       d="M 30,0 V 31 M 0,15 h 62"
       id="path6" />
    <path
       d="M 30,0 V 31 M 0,15 h 62"
       id="path7" />
  </g>
  <path
     fill="#009cde"
     d="M 50.000001,0 H 100 V 60 H 0 V 30 h 50.000001 z"
     id="path8"
     style="display:inline;stroke-width:0.912871" />
  <use
     xlink:href="#c"
     x="65.5"
     y="54"
     id="use8"
     transform="translate(-18)" />
  <use
     xlink:href="#d"
     x="78"
     y="38.5"
     id="use9"
     transform="translate(-18)" />
  <use
     xlink:href="#d"
     x="78"
     y="51"
     id="use10"
     transform="translate(-18)" />
  <use
     xlink:href="#d"
     x="90.5"
     y="21.5"
     id="use11"
     transform="translate(-18)" />
  <use
     xlink:href="#d"
     x="90.5"
     y="47.5"
     id="use12"
     transform="translate(-18)" />
  <use
     xlink:href="#d"
     x="101"
     y="17.5"
     id="use13"
     transform="translate(-18)" />
  <use
     xlink:href="#c"
     x="101"
     y="38.5"
     id="use14"
     transform="translate(-18)" />
  <use
     xlink:href="#c"
     x="111.5"
     y="8"
     id="use15"
     transform="translate(-18)" />
  <use
     xlink:href="#c"
     x="111.5"
     y="32"
     id="use16"
     transform="translate(-18)" />
</svg>
