<?xml version="1.0" encoding="UTF-8" standalone="no"?>
<svg
   width="1000"
   height="600"
   version="1.1"
   id="svg15"
   xmlns="http://www.w3.org/2000/svg"
   xmlns:svg="http://www.w3.org/2000/svg">
  <defs
     id="defs15" />
  <path
     d="M 0,0 H 1000 V 600 H 0 Z"
     id="path1"
     style="stroke-width:1.05409" />
  <path
     fill="#fcdc04"
     d="M 0,100 H 1000 V 250 H 0 Z M 0,400 H 1000 V 600 H 0 Z"
     id="path2"
     style="stroke-width:1.05409" />
  <path
     fill="#d90000"
     d="M 0,200 H 1000 V 300 H 0 Z M 0,500 H 1000 V 600 H 0 Z"
     id="path3"
     style="stroke-width:1.05409" />
  <circle
     cx="500"
     cy="300"
     r="93.5"
     fill="#ffffff"
     id="circle3" />
  <g
     stroke="#000000"
     id="g15"
     transform="translate(50)">
    <path
       d="m 433.52,228.39 -6.064,-11.17 c 2.34,-2.34 6.277,-4.149 12.553,-4.149 0,0.426 -0.638,12.235 -0.638,12.235 z"
       fill="#d90000"
       id="path4" />
    <path
       d="m 439.371,225.412 0.851,-12.34 c 0,0 12.554,-0.745 19.362,7.446 0.107,-0.106 -6.702,9.574 -6.702,9.574 z"
       fill="#fcdc04"
       id="path5" />
    <path
       d="m 453.095,229.986 6.17,-9.574 c 4.15,4.362 5.85,7.447 6.49,12.128 0.106,0.106 -9.788,2.446 -9.788,2.34 0,-0.107 -2.765,-4.788 -2.872,-4.894 z"
       fill="#d90000"
       id="path6" />
    <path
       d="m 436.605,388.073 c 0,0 11.596,-13.298 34.15,-10.425 -3.405,-5.533 -14.362,-4.894 -14.362,-4.894 0,0 -3.404,-25.851 -0.745,-27.128 2.66,-1.277 13.936,0.106 13.936,0.106 1.489,0 4.043,-4.042 2.022,-6.595 -2.022,-2.554 -7.98,-12.341 -5.533,-14.256 2.448,-1.915 15.745,1.064 15.745,1.064 l -37.553,-48.086 c 0,0 -3.83,-18.085 3.83,-26.809 9.256,-7.66 8.298,-15.957 7.979,-15.851 -1.277,-8.404 -14.043,-14.469 -22.66,-6.702 -5.107,6.17 -1.703,10.851 -1.703,10.851 0,0 -13.404,3.617 -13.936,5.957 -0.532,2.341 15.107,-0.425 15.107,-0.425 l -1.49,10.745 c 0,0 -30.426,27.66 -7.127,51.596 0.212,-0.106 0.744,-1.064 0.744,-1.064 0,0 8.192,10.107 16.809,12.34 8.085,8.299 7.34,7.022 7.34,7.022 0,0 1.596,13.086 0.107,15.639 -2.021,-0.639 -22.66,-1.383 -25.745,-0.213 -2.766,0.851 -13.404,0.319 -10.745,17.66 2.021,-4.681 3.83,-8.83 3.83,-8.83 0,0 -0.32,6.276 2.234,8.51 -0.425,-6.596 2.447,-11.063 2.447,-11.063 0,0 0.532,7.234 2.127,8.297 1.596,1.064 1.596,-11.702 10.427,-10.638 8.829,1.064 15.212,0.745 15.212,0.745 0,0 2.979,25 2.021,27.34 -6.383,-1.489 -21.595,0.64 -22.553,4.469 8.936,-0.532 13.086,0.531 13.086,0.531 0,0 -7.234,6.384 -5,10.107 z"
       id="path7" />
    <path
       d="m 440.191,251.66 c 0,0 -22.139,24.403 -12.587,43.076 0.508,-2.604 0.286,-4.24 0.606,-4.134 -0.532,-0.32 2.745,2.247 2.496,1.747 0.07,-1.35 -0.998,-4.243 -0.998,-4.243 l 2.995,0.749 -1.748,-3.245 4.244,0.499 c 0,0 -1.498,-3.994 -0.998,-3.994 0.499,0 3.494,0.25 3.494,0.25 -6.296,-11.3 -0.356,-20.683 2.496,-30.705 z m 7.691,-20.93 c 0,0 1.17,8.405 -3.404,10.852 -0.745,0.532 -3.617,1.49 -3.192,3.192 0.532,2.34 1.808,1.915 3.617,1.489 4.787,-0.851 10.32,-11.064 2.979,-15.532 z"
       fill="#9ca69c"
       stroke="#9ca69c"
       id="path8" />
    <circle
       cx="438"
       cy="238"
       r="1.8"
       fill="#ffffff"
       stroke="none"
       id="circle8" />
    <path
       d="m 432.563,244.986 c -1.17,0.958 -7.34,7.341 -1.277,9.681 6.277,-1.702 4.574,-2.872 5.958,-4.255 0.035,-2.872 -3.121,-3.617 -4.681,-5.426 z"
       fill="#d90000"
       id="path9" />
    <path
       d="m 445.967,305.307 c -0.32,1.383 -1.702,6.489 0.212,10.425 5.32,-2.234 7.767,-1.596 9.575,-0.426 -4.36,-3.51 -6.063,-5 -9.787,-10 z"
       fill="#9ca69c"
       stroke="#9ca69c"
       id="path10" />
    <path
       d="m 455.116,329.455 0.32,11.915 c 0,0 4.148,0.745 6.063,0 1.915,-0.745 -0.107,-8.298 -6.383,-11.915 z"
       fill="#ffffff"
       stroke="#ffffff"
       id="path11" />
    <path
       d="m 485.223,330.945 c 0,0 -7.66,-18.51 -27.235,-23.192 -19.575,-4.681 -17.022,-25.532 -15.426,-26.809 0.852,-1.809 1.49,-4.574 7.128,-1.914 5.639,2.66 31.596,15.744 35.32,16.382 3.723,0.639 0.532,35.959 0.213,35.533 z"
       fill="#9ca69c"
       id="path12" />
    <path
       d="m 466.606,307.647 c -0.32,0.212 26.17,15.637 18.191,28.936 7.554,-5 5.107,-13.723 5.107,-13.723 0,0 6.17,16.064 -8.83,23.936 1.596,1.384 2.66,1.064 2.66,1.064 l -2.554,2.553 c 0,0 -1.17,1.915 8.937,-2.98 -2.767,2.235 -2.979,3.83 -2.979,3.83 0,0 0.744,2.129 7.34,-3.616 -5.32,5.745 -6.49,8.723 -6.49,8.617 14.362,-1.277 45.64,-47.979 -9.893,-61.81 2.98,3.086 2.553,2.66 2.553,2.66 z"
       fill="#d90000"
       id="path13" />
    <path
       d="m 467.776,303.072 c 3.617,2.553 4.893,3.404 5.319,4.681 -3.298,-0.744 -6.277,-0.532 -6.277,-0.532 0,0 -7.127,-6.808 -8.404,-7.34 -0.958,0 -6.49,-3.511 -6.49,-3.511 -2.765,-1.383 -5.318,-10.957 4.895,-8.192 10.53,5 12.02,5.426 12.02,5.426 4.185,1.312 8.369,2.625 12.554,3.936 l 7.234,8.086 c 0,0 -12.872,-6.384 -14.468,-6.49 3.51,2.872 5.532,6.808 5.532,6.808 -4.078,-1.17 -7.624,-2.234 -11.915,-2.872 z"
       fill="#ffffff"
       id="path14" />
    <path
       d="m 417.669,245.944 c 0,0 12.34,-2.979 13.83,-2.553"
       stroke="#ffffff"
       id="path15" />
  </g>
</svg>
