<?xml version="1.0" encoding="UTF-8" standalone="no"?>
<svg
   height="630"
   viewBox="-5 -5 1050 630"
   width="1050"
   version="1.1"
   id="svg50"
   xmlns="http://www.w3.org/2000/svg"
   xmlns:svg="http://www.w3.org/2000/svg">
  <defs
     id="defs50" />
  <path
     d="M -5,-5 H 1045 V 625 H -5 Z"
     fill="#ffffff"
     id="path1"
     style="stroke-width:1.05409" />
  <g
     fill="#0038a8"
     id="g2">
    <path
       d="m 345,65 700,1.783799 V 136.7838 L 345,135 Z m 0,140 700,1.7838 v 70 L 345,275 Z m -350,140 1050,1.7838 v 70 L -5,415 Z m 0,140 1050,1.7838 v 70 L -5,555 Z"
       id="path2" />
  </g>
  <g
     transform="matrix(3.77953,0,0,3.77953,234.285,-392.52)"
     id="g50">
    <g
       stroke="#7b3f00"
       stroke-miterlimit="20"
       id="g41">
      <g
         fill="#fcd116"
         id="g38">
        <path
           d="m -19.106,157.888 3.066,4.578 c -12.597,9.115 -4.906,14.506 -13.833,17.424 5.552,-5.418 -0.734,-6.254 3.944,-17.547"
           stroke-linecap="square"
           stroke-width="0.611"
           id="path3" />
        <g
           stroke-width="0.6"
           id="g6">
          <path
             d="m -24.894,153.753 -1.07,5.405 c -15.352,-2.461 -13.726,6.788 -22.101,2.54 7.757,0.094 4.078,-5.01 15.371,-9.688"
             stroke-linecap="square"
             stroke-width="0.61119"
             id="path4" />
          <path
             d="m -24.894,153.754 -2.419,-0.436 0.025,0.1 c -6.453,1.582 -9.957,4.257 -12.701,6.29 -1.373,1.017 -2.558,1.881 -3.842,2.35 a 5.763,5.763 0 0 1 -2.666,0.32 c 6.662,2.367 6.221,-5.512 20.534,-3.218 z"
             fill="#7b3f00"
             stroke-linecap="square"
             stroke-width="0.278091"
             id="path5" />
          <path
             d="m -27.361,153.121 c -13.014,3.186 -14.245,10.862 -20.704,8.576"
             fill="none"
             stroke-width="0.61119"
             id="path6" />
        </g>
        <path
           d="m -17.009,148.833 -4.322,-4.321 -19.448,28.09 28.092,-19.447 -4.322,-4.322 -23.77,23.77"
           stroke-width="0.611"
           id="path7" />
        <g
           stroke-width="0.6"
           id="g37">
          <path
             d="m -26.064,146.737 -4.577,3.065 c -9.116,-12.596 -14.507,-4.906 -17.424,-13.833 5.418,5.552 6.305,-0.723 17.599,3.955"
             stroke-linecap="square"
             stroke-width="0.61119"
             id="path8" />
          <path
             d="m -26.064,146.738 -1.402,-2.019 -0.053,0.088 c -5.682,-3.445 -10.051,-4.03 -13.43,-4.534 -1.689,-0.252 -3.137,-0.478 -4.377,-1.055 a 5.763,5.763 0 0 1 -2.112,-1.658 c 3.038,6.384 8.297,0.5 16.796,12.244 z"
             fill="#7b3f00"
             stroke-linecap="square"
             stroke-width="0.278091"
             id="path9" />
          <path
             d="m -27.361,144.545 c -11.455,-6.95 -17.753,-2.392 -20.704,-8.576"
             fill="none"
             stroke-width="0.61119"
             id="path10" />
          <path
             d="m -17.009,148.833 v -6.112 l -33.615,6.112 33.615,6.112 v -6.112 h -33.615"
             stroke-width="0.61119"
             id="path11" />
          <path
             d="m -17.009,148.833 v 6.112 -6.112 h -33.615 l 33.615,6.112"
             fill="#7b3f00"
             stroke="none"
             id="path12" />
          <path
             d="m -21.929,140.948 -5.404,-1.069 c 2.46,-15.353 -6.789,-13.727 -2.54,-22.102 -0.095,7.757 5.272,4.699 9.95,15.992"
             stroke-linecap="square"
             stroke-width="0.61119"
             id="path13" />
          <path
             d="m -21.93,140.949 0.436,-2.42 -0.1,0.026 c -1.581,-6.454 -4.257,-9.958 -6.29,-12.702 -1.016,-1.373 -1.88,-2.557 -2.349,-3.842 a 5.763,5.763 0 0 1 -0.32,-2.665 c -2.367,6.661 5.512,6.22 3.218,20.534 z"
             fill="#7b3f00"
             stroke-linecap="square"
             stroke-width="0.278091"
             id="path14" />
          <path
             d="m -21.297,138.481 c -3.185,-13.014 -10.862,-14.244 -8.576,-20.704"
             fill="none"
             stroke-width="0.61119"
             id="path15" />
          <path
             d="m -17.009,148.833 4.322,-4.321 -28.092,-19.448 19.448,28.091 4.322,-4.322 -23.77,-23.77"
             stroke-width="0.61119"
             id="path16" />
          <path
             d="m -17.009,148.833 -4.322,4.322 4.322,-4.322 -23.77,-23.77 19.448,28.092"
             fill="#7b3f00"
             stroke="none"
             id="path17" />
          <path
             d="m -14.912,139.779 -3.066,-4.578 c 12.597,-9.116 4.906,-14.506 13.833,-17.424 -5.552,5.418 0.702,6.312 -3.976,17.605"
             stroke-linecap="square"
             stroke-width="0.61119"
             id="path18" />
          <path
             d="m -14.913,139.778 2.018,-1.402 -0.088,-0.053 c 3.445,-5.681 4.031,-10.05 4.534,-13.429 0.252,-1.69 0.478,-3.138 1.056,-4.378 a 5.763,5.763 0 0 1 1.657,-2.111 c -6.384,3.037 -0.5,8.296 -12.244,16.795 z"
             fill="#7b3f00"
             stroke-linecap="square"
             stroke-width="0.278091"
             id="path19" />
          <path
             d="m -12.72,138.481 c 6.949,-11.455 2.391,-17.753 8.575,-20.704"
             fill="none"
             stroke-width="0.61119"
             id="path20" />
          <path
             d="m -17.009,148.833 h 6.112 l -6.112,-33.615 -6.112,33.615 h 6.112 v -33.615"
             stroke-width="0.61119"
             id="path21" />
          <path
             d="m -17.009,148.833 h -6.112 6.112 v -33.615 l -6.112,33.615"
             fill="#7b3f00"
             stroke="none"
             id="path22" />
          <path
             d="m -9.124,143.913 1.07,-5.404 c 15.352,2.461 13.726,-6.789 22.102,-2.54 -7.758,-0.094 -4.302,5.036 -15.595,9.714"
             stroke-linecap="square"
             stroke-width="0.61119"
             id="path23" />
          <path
             d="m -9.124,143.912 2.419,0.436 -0.025,-0.1 c 6.453,-1.581 9.957,-4.256 12.701,-6.29 1.373,-1.016 2.558,-1.88 3.842,-2.349 a 5.763,5.763 0 0 1 2.666,-0.32 c -6.662,-2.367 -6.22,5.512 -20.534,3.218 z"
             fill="#7b3f00"
             stroke-linecap="square"
             stroke-width="0.278091"
             id="path24" />
          <path
             d="M -6.657,144.545 C 6.357,141.36 7.588,133.683 14.048,135.969"
             fill="none"
             stroke-width="0.61119"
             id="path25" />
          <path
             d="m -17.009,148.833 4.322,4.322 19.447,-28.091 -28.092,19.448 4.322,4.321 23.77,-23.77"
             stroke-width="0.61119"
             id="path26" />
          <path
             d="m -17.009,148.833 -4.322,-4.321 4.322,4.321 23.77,-23.77 -28.092,19.449"
             fill="#7b3f00"
             stroke="none"
             id="path27" />
          <path
             d="m -7.954,150.93 4.577,-3.065 c 9.116,12.596 14.507,4.906 17.425,13.832 -5.419,-5.552 -6.436,0.661 -17.73,-4.017"
             stroke-linecap="square"
             stroke-width="0.61119"
             id="path28" />
          <path
             d="m -7.954,150.93 1.402,2.018 0.053,-0.089 c 5.682,3.445 10.051,4.031 13.43,4.534 1.689,0.252 3.138,0.479 4.377,1.056 a 5.763,5.763 0 0 1 2.112,1.658 c -3.037,-6.384 -8.297,-0.501 -16.796,-12.244 z"
             fill="#7b3f00"
             stroke-linecap="square"
             stroke-width="0.278091"
             id="path29" />
          <path
             d="m -6.657,153.121 c 11.455,6.95 17.753,2.392 20.705,8.576"
             fill="none"
             stroke-width="0.61119"
             id="path30" />
          <path
             d="m -17.009,148.833 v 6.112 l 33.615,-6.112 -33.615,-6.112 v 6.112 h 33.615"
             stroke-width="0.61119"
             id="path31" />
          <path
             d="m -17.009,148.833 v -6.112 6.112 h 33.615 l -33.615,-6.112"
             fill="#7b3f00"
             stroke="none"
             id="path32" />
          <path
             d="m -12.089,156.719 5.405,1.069 c -2.462,15.353 6.788,13.726 2.54,22.102 0.094,-7.757 -5.014,-4.165 -9.691,-15.458"
             stroke-linecap="square"
             stroke-width="0.61119"
             id="path33" />
          <path
             d="m -12.088,156.718 -0.436,2.419 0.1,-0.025 c 1.582,6.453 4.257,9.957 6.29,12.702 1.016,1.373 1.88,2.557 2.349,3.842 a 5.763,5.763 0 0 1 0.321,2.665 c 2.367,-6.662 -5.513,-6.22 -3.219,-20.534 z"
             fill="#7b3f00"
             stroke-linecap="square"
             stroke-width="0.278091"
             id="path34" />
          <path
             d="m -12.72,159.186 c 3.184,13.014 10.86,14.244 8.574,20.704"
             fill="none"
             stroke-width="0.61119"
             id="path35" />
          <path
             d="m -17.009,148.833 -4.322,4.322 28.092,19.448 -19.448,-28.091 -4.322,4.321 23.77,23.77"
             stroke-width="0.61119"
             id="path36" />
          <path
             d="m -17.009,148.833 4.322,-4.321 -4.322,4.321 23.77,23.77 -19.448,-28.091"
             fill="#7b3f00"
             stroke="none"
             id="path37" />
        </g>
      </g>
      <path
         d="m -19.105,157.888 -2.018,1.403 0.088,0.053 c -3.445,5.681 -4.03,10.05 -4.534,13.429 -0.252,1.69 -0.478,3.138 -1.056,4.377 a 5.763,5.763 0 0 1 -1.657,2.112 c 6.384,-3.037 0.5,-8.297 12.244,-16.796 z"
         fill="#7b3f00"
         stroke-linecap="square"
         stroke-width="0.278"
         id="path38" />
      <g
         stroke-width="0.611"
         id="g40">
        <path
           d="m -21.297,159.186 c -6.95,11.454 -2.392,17.752 -8.576,20.704"
           fill="none"
           id="path39" />
        <path
           d="m -17.009,148.833 h -6.112 l 6.112,33.616 6.112,-33.616 h -6.112 v 33.616"
           fill="#fcd116"
           id="path40" />
      </g>
    </g>
    <path
       d="m -17.009,148.833 h 6.112 -6.112 v 33.616 l 6.112,-33.616"
       fill="#7b3f00"
       id="path41" />
    <path
       d="m -17.009,148.833 4.322,4.322 -4.322,-4.322 -23.77,23.77 28.092,-19.448"
       fill="#7b3f00"
       id="path42" />
    <circle
       cx="-17.009001"
       cy="148.83299"
       fill="#fcd116"
       r="11.205"
       stroke="#7b3f00"
       stroke-miterlimit="20"
       stroke-width="0.611"
       id="circle42" />
    <g
       fill="#7b3f00"
       id="g49">
      <path
         d="m -8.758,144.351 c -0.713,0.815 -1.12,-0.61 -3.667,-0.61 -2.547,0 -2.954,1.527 -3.362,1.221 -0.407,-0.305 2.14,-2.139 2.955,-2.24 0.814,-0.102 3.157,0.713 4.074,1.63 m -2.954,0.916 c 0.713,0.611 0.102,1.936 -0.611,1.936 -0.713,0 -2.037,-1.223 -1.426,-2.038"
         id="path43" />
      <path
         d="m -15.074,146.185 c 0.102,-1.223 1.121,-1.426 2.75,-1.426 1.63,0 2.344,1.222 2.955,1.528 -0.713,0 -1.324,-1.019 -2.954,-1.019 -1.63,0 -1.63,0 -2.75,1.019 m 0.305,0.203 c 0.408,-0.61 0.917,0.612 2.037,0.612 1.12,0 1.732,-0.306 2.445,-0.815 0.713,-0.51 -1.019,1.222 -2.139,1.222 -1.12,0 -2.649,-0.611 -2.343,-1.019 m -7.945,-1.324 c -0.51,0.204 -1.325,1.223 0,1.936 -1.02,-0.713 -0.204,-1.732 0,-1.936 z"
         id="path44" />
      <path
         d="m -11.304,145.166 c 0.203,0.204 1.018,1.223 0,1.936 1.324,-0.713 0.509,-1.732 0,-1.936 z m -7.335,4.38 c -0.917,0.204 -0.611,1.528 -1.426,1.63 -0.815,0.102 -1.222,1.019 -1.12,0.917 0.509,-0.407 1.63,-0.713 2.444,-0.713 0.815,0 1.019,0.51 1.732,0.51 0.713,0 0.917,-0.51 1.732,-0.51 0.815,0 1.935,0.306 2.445,0.713 0.101,0.102 -0.306,-0.815 -1.12,-0.917 -0.816,-0.102 -0.51,-1.426 -1.427,-1.63 0,0.408 0.305,0.306 0.407,0.917 0,0.51 -0.916,0.51 -1.12,0 0.204,0.815 -0.408,0.815 -0.917,0.815 -0.509,0 -1.12,0 -0.917,-0.815 -0.203,0.51 -1.12,0.51 -1.12,0 0.102,-0.611 0.407,-0.51 0.407,-0.917 z m -3.158,3.464 c -0.815,0.611 -1.018,0.917 -1.12,1.63 0.244,-0.428 0.364,-0.604 0.55,-0.855 l -0.142,-0.062 c 0.059,0.007 0.112,0.016 0.17,0.024 0.122,-0.166 0.232,-0.31 0.542,-0.737 z"
         id="path45" />
      <path
         d="m -22.34,153.747 -0.013,0.018 c 0.128,0.03 0.263,0.043 0.404,0.044 a 10.998,10.998 0 0 0 -0.39,-0.062 z m 0.391,0.062 c 0.636,0.112 1.134,0.258 1.591,0.406 0.57,-0.042 1.357,-0.187 3.35,-0.187 1.993,0 2.778,0.145 3.348,0.187 0.457,-0.148 0.956,-0.294 1.59,-0.406 -1.122,0.004 -2.618,-0.8 -3.31,-0.8 -0.814,0 -1.018,0.204 -1.629,0.204 -0.611,0 -0.815,-0.203 -1.63,-0.203 -0.691,0 -2.187,0.803 -3.31,0.799 z m 9.879,0 c 0.142,0 0.278,-0.015 0.405,-0.044 l -0.013,-0.018 c -0.136,0.02 -0.267,0.04 -0.391,0.062 z"
         id="path46" />
      <path
         d="m -11.678,153.747 c 0.057,-0.008 0.11,-0.017 0.17,-0.024 -0.051,0.021 -0.093,0.04 -0.143,0.062 0.186,0.251 0.306,0.427 0.55,0.855 -0.102,-0.713 -0.305,-1.019 -1.12,-1.63 0.31,0.427 0.42,0.57 0.543,0.737 z"
         id="path47" />
      <path
         d="m -11.65,153.785 a 0.037,0.037 0 0 0 -0.006,-0.007 c -1.063,0.41 -1.437,0.48 -2.004,0.437 -0.966,0.313 -1.762,0.629 -3.349,0.629 -1.587,0 -2.383,-0.316 -3.349,-0.629 -0.567,0.042 -0.941,-0.027 -2.004,-0.437 a 0.037,0.037 0 0 1 -0.005,0.007 c 3.2,1.377 2.85,1.873 5.358,1.873 2.508,0 2.158,-0.496 5.358,-1.873 z m -10.712,-0.007 a 0.72,0.72 0 0 1 0.01,-0.013 c -0.054,-0.012 -0.107,-0.024 -0.157,-0.042 0.058,0.023 0.093,0.034 0.147,0.055 z m 10.706,0 c 0.054,-0.021 0.09,-0.032 0.148,-0.055 -0.05,0.018 -0.104,0.03 -0.157,0.042 a 0.72,0.72 0 0 0 0.01,0.013 z m -13.604,-9.427 c 0.713,0.815 1.12,-0.61 3.667,-0.61 2.547,0 2.954,1.527 3.362,1.221 0.408,-0.306 -2.14,-2.139 -2.954,-2.24 -0.814,-0.101 -3.158,0.713 -4.075,1.63 m 2.954,0.916 c -0.713,0.611 -0.102,1.936 0.611,1.936 0.713,0 2.038,-1.223 1.426,-2.038"
         id="path48" />
      <path
         d="m -18.944,146.185 c -0.102,-1.223 -1.12,-1.426 -2.75,-1.426 -1.63,0 -2.344,1.222 -2.955,1.528 0.713,0 1.324,-1.019 2.954,-1.019 1.63,0 1.63,0 2.75,1.019 m -0.305,0.203 c -0.407,-0.61 -0.917,0.612 -2.037,0.612 -1.12,0 -1.732,-0.306 -2.445,-0.815 -0.713,-0.509 1.019,1.222 2.14,1.222 1.121,0 2.648,-0.611 2.342,-1.019 m 2.241,10.085 c -0.51,0 -1.833,0.306 0,0.306 1.833,0 0.51,-0.306 0,-0.306"
         id="path49" />
    </g>
  </g>
</svg>
