<?xml version="1.0" encoding="UTF-8" standalone="no"?>
<svg
   width="835"
   height="501"
   version="1.1"
   id="svg15"
   xmlns:xlink="http://www.w3.org/1999/xlink"
   xmlns="http://www.w3.org/2000/svg"
   xmlns:svg="http://www.w3.org/2000/svg">
  <defs
     id="defs15" />
  <path
     fill="#1eb53a"
     d="M 0,1 H 835 V 501 H 0 Z"
     id="path1"
     style="stroke-width:0.913783" />
  <path
     fill="#0099b5"
     d="M 0,0 H 835 V 251 H 0 Z"
     id="path2"
     style="stroke-width:0.915611" />
  <path
     fill="#ce1126"
     d="M 0,161 H 835 V 341 H 0 Z"
     id="path3"
     style="stroke-width:0.913783" />
  <path
     fill="#ffffff"
     d="M 0,171 H 835 V 331 H 0 Z"
     id="path4"
     style="stroke-width:0.913783" />
  <circle
     cx="130"
     cy="81"
     r="60"
     fill="#ffffff"
     id="circle4" />
  <circle
     cx="150"
     cy="81"
     r="60"
     fill="#0099b5"
     id="circle5" />
  <g
     transform="matrix(2,0,0,2,262,129)"
     fill="#ffffff"
     id="g15">
    <g
       id="e">
      <g
         id="d">
        <g
           id="c">
          <g
             id="b">
            <path
               id="a"
               d="M 0,-6 V 0 H 3"
               transform="rotate(18,0,-6)" />
            <use
               xlink:href="#a"
               transform="scale(-1,1)"
               width="100%"
               height="100%"
               id="use5" />
          </g>
          <use
             xlink:href="#b"
             transform="rotate(72)"
             width="100%"
             height="100%"
             id="use6" />
        </g>
        <use
           xlink:href="#b"
           transform="rotate(-72)"
           width="100%"
           height="100%"
           id="use7" />
        <use
           xlink:href="#c"
           transform="rotate(144)"
           width="100%"
           height="100%"
           id="use8" />
      </g>
      <use
         xlink:href="#d"
         y="-24"
         width="100%"
         height="100%"
         id="use9" />
      <use
         xlink:href="#d"
         y="-48"
         width="100%"
         height="100%"
         id="use10" />
    </g>
    <use
       xlink:href="#e"
       x="24"
       width="100%"
       height="100%"
       id="use11" />
    <use
       xlink:href="#e"
       x="48"
       width="100%"
       height="100%"
       id="use12" />
    <use
       xlink:href="#d"
       x="-48"
       width="100%"
       height="100%"
       id="use13" />
    <use
       xlink:href="#d"
       x="-24"
       width="100%"
       height="100%"
       id="use14" />
    <use
       xlink:href="#d"
       x="-24"
       y="-24"
       width="100%"
       height="100%"
       id="use15" />
  </g>
</svg>
