<?xml version="1.0" encoding="UTF-8" standalone="no"?>
<svg
   width="900"
   height="540"
   viewBox="0 0 180 108"
   version="1.1"
   id="svg14"
   xmlns:xlink="http://www.w3.org/1999/xlink"
   xmlns="http://www.w3.org/2000/svg"
   xmlns:svg="http://www.w3.org/2000/svg">
  <defs
     id="defs4">
    <g
       id="d"
       transform="translate(0,-36)">
      <g
         id="c">
        <g
           id="b">
          <path
             d="M 0,-5 V 0 H 3 Z"
             fill="#ffffff"
             transform="rotate(18,0,-5)"
             id="a" />
          <use
             xlink:href="#a"
             transform="scale(-1,1)"
             id="use1" />
        </g>
        <use
           xlink:href="#b"
           transform="rotate(72)"
           id="use2" />
      </g>
      <use
         xlink:href="#b"
         transform="rotate(-72)"
         id="use3" />
      <use
         xlink:href="#c"
         transform="rotate(144)"
         id="use4" />
    </g>
  </defs>
  <g
     style="display:inline;opacity:1"
     id="g14"
     transform="translate(0,-6)">
    <path
       style="fill:#cf142b;stroke-width:0.948684"
       d="M 0,6 H 180 V 114 H 0 Z"
       id="path4" />
    <path
       d="M 0,79 H 180 V 6 H 0 Z"
       style="fill:#00247d;stroke-width:0.955249"
       id="path5" />
    <path
       style="fill:#ffcc00;stroke-width:0.935415"
       d="M 0,6 H 180 V 41 H 0 Z"
       id="path6" />
    <g
       transform="translate(0,0.242)"
       id="g9">
      <use
         xlink:href="#d"
         transform="matrix(0.35515372,-0.97577682,0.97577682,0.35515372,91.479825,83.69873)"
         width="100%"
         height="100%"
         style="stroke-width:0.963021"
         id="use6" />
      <use
         xlink:href="#d"
         transform="matrix(0.72219321,-0.74613104,0.74613104,0.72219321,89.714429,86.888863)"
         width="100%"
         height="100%"
         style="stroke-width:0.963021"
         id="use7" />
      <use
         xlink:href="#d"
         transform="matrix(0.89928078,-0.5192,0.5192,0.89928078,91.063837,85.774867)"
         width="100%"
         height="100%"
         style="stroke-width:0.963021"
         id="use8" />
      <use
         xlink:href="#d"
         transform="matrix(1.0226244,-0.18031627,0.18031627,1.0226244,90.232743,86.190967)"
         width="100%"
         height="100%"
         style="stroke-width:0.963021"
         id="use9" />
    </g>
    <g
       transform="matrix(-1,0,0,1,180.051,0.242)"
       style="display:inline;opacity:1"
       id="g13">
      <use
         xlink:href="#d"
         transform="matrix(0.35515372,-0.97577682,0.97577682,0.35515372,91.479825,83.69873)"
         width="100%"
         height="100%"
         style="stroke-width:0.963021"
         id="use10" />
      <use
         xlink:href="#d"
         transform="matrix(0.72219321,-0.74613104,0.74613104,0.72219321,89.714429,86.888863)"
         width="100%"
         height="100%"
         style="stroke-width:0.963021"
         id="use11" />
      <use
         xlink:href="#d"
         transform="matrix(0.89928078,-0.5192,0.5192,0.89928078,91.063837,85.774867)"
         width="100%"
         height="100%"
         style="stroke-width:0.963021"
         id="use12" />
      <use
         xlink:href="#d"
         transform="matrix(1.0226244,-0.18031627,0.18031627,1.0226244,90.232743,86.190967)"
         width="100%"
         height="100%"
         style="stroke-width:0.963021"
         id="use13" />
    </g>
  </g>
</svg>
