<?xml version="1.0" encoding="UTF-8" standalone="no"?>
<svg
   width="1000"
   height="600"
   version="1.1"
   id="svg42"
   xmlns:xlink="http://www.w3.org/1999/xlink"
   xmlns="http://www.w3.org/2000/svg"
   xmlns:svg="http://www.w3.org/2000/svg">
  <defs
     id="defs2">
    <linearGradient
       id="b"
       gradientUnits="userSpaceOnUse"
       x1="103.083"
       y1="111.276"
       x2="92.551003"
       y2="107.764"
       gradientTransform="matrix(0.99614,0,0,2.25255,703.842,-75.047)">
      <stop
         stop-color="red"
         offset="0"
         id="stop1" />
      <stop
         stop-color="#ff0"
         offset="1"
         id="stop2" />
    </linearGradient>
    <clipPath
       id="a">
      <path
         d="M 0,0 V 150 H 700 V 300 H 600 Z M 600,0 H 300 V 350 H 0 v -50 z"
         id="path2" />
    </clipPath>
    <clipPath
       id="a-6">
      <path
         d="M 0,0 V 30 H 60 V 0 Z"
         id="path1" />
    </clipPath>
    <clipPath
       id="b-9">
      <path
         d="m 30,15 h 30 v 15 z m 0,0 V 30 H 0 Z m 0,0 H 0 V 0 Z m 0,0 V 0 h 30 z"
         id="path2-0" />
    </clipPath>
  </defs>
  <path
     fill="#012169"
     d="M 0,0 H 1000 V 600 H 0 Z"
     id="path3"
     style="stroke-width:0.912871" />
  <path
     fill="#ffffff"
     d="m 634.26,144.068 250.401,-0.93 -0.465,222.993 c 0,0 8.827,33.913 -104.992,85.48 40.882,-4.181 85.48,-47.85 85.48,-47.85 0,0 18.119,-23.228 26.946,-10.22 8.826,13.007 17.188,19.511 23.692,24.621 6.504,5.11 11.614,19.048 1.859,29.268 -9.755,10.22 -25.087,11.614 -29.268,-0.93 -6.504,3.253 -46.457,51.568 -128.22,53.89 -83.157,-1.393 -128.685,-54.354 -128.685,-54.354 0,0 -11.15,17.654 -26.945,3.717 -15.33,-18.118 -3.716,-29.732 -3.716,-29.732 0,0 13.007,-7.433 16.724,-12.544 6.04,-6.968 7.898,-16.26 18.118,-16.26 12.079,0.93 16.724,10.685 16.724,10.685 0,0 41.811,44.134 86.874,49.709 -101.736,-48.783 -105.453,-78.98 -104.988,-86.413 l 0.465,-221.133 z"
     id="path9" />
  <path
     fill="#006129"
     stroke="#000000"
     stroke-width="1.887"
     d="m 640.299,150.107 238.787,-1.394 v 214.63 c 0.465,27.874 -46.457,56.213 -119.858,92.449 C 683.504,416.768 639.834,393.076 639.37,362.879 l 0.93,-212.771 z"
     id="path10" />
  <g
     id="c"
     fill="#ffc72c"
     stroke="#000000"
     stroke-width="0.944"
     transform="translate(-142)">
    <path
       fill="none"
       stroke="#ffc72c"
       stroke-width="1.887"
       d="m 814.794,181.829 14.095,-20.701 14.164,20.744"
       id="path11" />
    <path
       d="m 831.719,174.09 a 2.8,2.8 0 1 1 -5.598,0.002 2.8,2.8 0 0 1 5.598,-0.002 z"
       id="path12" />
    <path
       d="m 817.444,197.119 21.852,0.062 c 0,0 0.342,-2.836 -2.283,-4.56 11.446,-1.573 8.472,-11.669 18.058,-12.241 1.86,0.286 -5.008,4.292 -5.008,4.292 0,0 -5.779,4.078 -3.147,6.152 2.09,1.646 3.004,-1.001 3.29,-3.004 0.286,-2.003 9.3,-3.29 8.012,-9.014 -2.146,-4.72 -14.736,3.148 -14.736,3.148 l -8.982,-0.05 c -0.56,-1.008 -3.035,-5.05 -5.592,-5.07 -3.033,0.111 -5.17,5.12 -5.17,5.12 h -20.315 c 0,0 -0.696,5.212 9.605,6.214 2.319,3.029 4.117,3.875 6.133,4.659 -1.344,1.12 -1.723,2.475 -1.717,4.292 z m 1.573,-4.435 18.2,-0.062"
       id="path13" />
    <path
       d="m 810.681,181.953 c 0,0 1.456,8.513 8.176,10.529"
       id="path14" />
    <path
       fill="url(#b)"
       d="m 809.561,181.841 c 0.672,-3.248 1.904,-3.808 3.248,-7.952 0.224,-4.033 -3.248,-3.585 -2.24,-6.16 1.792,-2.8 0.896,-5.49 -2.464,-7.617 0.672,3.696 -4.368,7.168 -4.368,10.192 0,3.025 2.576,2.353 2.24,6.945 0.224,2.688 -0.672,2.016 -0.896,4.592 z"
       id="path15"
       style="fill:url(#b)" />
    <path
       d="m 831.495,161.657 a 2.5750002,2.5750002 0 1 1 -5.15,0.002 2.5750002,2.5750002 0 0 1 5.15,-0.002 z"
       id="path16" />
  </g>
  <use
     xlink:href="#c"
     x="-0.77200001"
     y="41.304001"
     id="use16" />
  <use
     xlink:href="#c"
     x="-1.089"
     y="82.013"
     id="use17" />
  <use
     xlink:href="#c"
     x="25.627001"
     y="126.099"
     id="use18" />
  <use
     xlink:href="#c"
     x="-4.5739999"
     y="162.16299"
     id="use19" />
  <use
     xlink:href="#c"
     x="-3.7820001"
     y="204.77299"
     id="use20" />
  <use
     xlink:href="#c"
     x="146.28"
     y="0.67199999"
     id="use21" />
  <use
     xlink:href="#c"
     x="144.936"
     y="41.217999"
     id="use22" />
  <use
     xlink:href="#c"
     x="143.144"
     y="82.661003"
     id="use23" />
  <use
     xlink:href="#c"
     x="145.16"
     y="123.431"
     id="use24" />
  <use
     xlink:href="#c"
     x="144.71201"
     y="164.201"
     id="use25" />
  <use
     xlink:href="#c"
     x="144.936"
     y="205.19501"
     id="use26" />
  <g
     fill="#ffc6b5"
     stroke="#000000"
     stroke-width="0.944"
     id="g38"
     transform="translate(-142)">
    <path
       fill="#ffc72c"
       d="m 915.843,406.315 c 0,0 5.702,13.147 12.197,5.069 6.494,-8.079 4.118,-11.563 4.118,-11.563 l -14.573,-7.92 -4.276,9.028 z"
       id="path26" />
    <path
       d="m 928.357,404.572 c 0,0 0.95,0.159 1.742,-1.267 0.792,-1.426 -1.742,-2.06 -2.85,-3.643 l -1.268,2.534 z m -32.948,-3.485 -12.83,6.97 c 0,0 -6.337,1.267 -6.812,0 -0.475,-1.268 0.159,-2.376 3.485,-2.535 3.327,-0.158 12.355,-8.395 12.355,-8.395 z m 0.159,-227.938 c 0,0 0.317,3.01 0.475,4.594 0.159,1.584 -2.534,4.91 -2.693,4.752 -0.159,-0.158 -1.425,0.158 -1.267,1.108 0.159,0.95 2.06,1.268 2.06,1.268 0,0 -0.793,3.326 0,3.484 0.791,0.159 -2.06,4.277 0,5.386 2.059,1.109 5.543,2.534 7.127,2.218 1.584,-0.317 0,6.177 0,6.177 l -4.435,9.504 24.394,-2.534 -5.069,-8.079 c 0,0 -2.376,-1.584 -1.742,-6.177 0.633,-4.594 -0.317,-25.344 -0.317,-25.344 l -17.424,-2.376 z m -4.436,36.115 c 0,0 -7.92,3.643 -7.603,13.464 -2.06,9.504 -3.168,19.008 -3.168,19.008 0,0 -9.346,10.613 -12.197,14.415 -2.851,3.801 -7.128,11.563 -8.712,13.622 -1.584,2.06 -7.762,8.87 -7.603,11.405 0.158,2.534 -1.426,13.78 4.752,15.048 1.584,0.633 6.653,-12.99 6.653,-12.99 0,0 0.316,-5.86 -1.426,-6.969 -1.742,-1.108 3.802,-4.91 3.802,-4.91 0,0 10.612,-7.762 12.988,-9.663 2.376,-1.9 8.87,-9.187 8.87,-9.187 z"
       id="path27" />
    <path
       fill="#ffffff"
       d="m 900.161,201.82 c 0,0 2.06,5.544 6.653,4.594 4.594,-0.95 9.98,-5.228 9.98,-5.228 0,0 4.276,-0.158 4.91,0.476 0.633,0.633 11.563,11.246 11.246,14.572 -0.317,3.327 -5.069,2.376 -6.811,4.594 -1.743,2.218 -4.594,7.762 -3.802,11.88 0.792,4.119 3.168,9.504 2.851,11.563 -0.316,2.06 -2.059,2.693 -2.059,3.802 0,1.109 1.426,3.01 1.426,5.069 0,2.06 -1.901,5.069 -1.584,7.128 0.317,2.06 0.475,8.078 0.475,8.078 l -0.475,27.879 c 0,0 1.584,0.95 1.742,2.534 0.159,1.584 10.771,47.679 10.771,47.679 0,0 -0.475,1.425 -1.584,1.267 -1.108,-0.159 4.277,7.128 4.436,9.187 0.158,2.06 5.544,18.216 5.385,20.434 -0.158,2.217 -0.95,7.128 -1.425,7.286 -0.476,0.158 3.484,10.138 2.85,11.722 -0.633,1.584 -7.127,1.425 -7.127,1.425 l -1.743,-0.316 c 0,0 0.159,2.059 -1.108,2.217 -1.267,0.158 -10.613,-0.475 -10.613,-0.475 0,0 -2.693,4.118 -4.277,3.96 -1.584,-0.158 -3.643,-3.01 -4.119,-2.534 -0.475,0.475 1.426,3.167 0.95,3.96 -0.474,0.792 -8.553,2.534 -10.137,-1.268 -1.584,-3.801 0.95,-2.85 0.476,-3.643 -0.476,-0.792 -4.119,-2.851 -5.228,-2.217 -1.109,0.633 2.852,1.584 2.693,3.168 -0.158,1.584 -3.485,3.96 -4.752,3.96 -1.267,0 -4.277,-5.861 -8.712,-5.228 -4.435,0.634 -7.286,1.743 -7.286,1.743 0,0 -5.228,2.217 -7.445,1.742 -2.218,-0.475 -3.168,-2.218 -3.168,-3.168 0,-0.95 1.584,-5.069 1.425,-6.336 -0.159,-1.267 -1.425,-2.534 -1.425,-4.435 0,-1.9 3.643,-8.395 3.643,-8.395 l -0.158,-29.146 c 0,0 -3.327,0 -3.485,-2.06 -0.158,-2.06 5.069,-46.094 5.86,-48.945 0.793,-2.851 2.852,-12.989 2.852,-12.989 0,0 -2.376,1.109 -2.535,0 -0.158,-1.109 7.128,-26.294 7.128,-26.294 0,0 1.268,-12.514 1.268,-15.84 0,-3.327 -0.634,-7.92 -0.634,-7.92 0,0 -6.503,-2.753 -6.653,-6.97 -0.595,-6.709 6.178,-10.454 6.97,-12.672 l 3.168,-8.87 c 0,0 3.485,-6.02 9.187,-6.97 z"
       id="path28" />
    <path
       fill="#ffc72c"
       d="m 897.785,402.988 c 0,0 -15.365,8.079 -17.582,8.712 -2.218,0.634 -3.644,-2.693 -1.426,-3.326 2.218,-0.634 5.702,-0.95 5.702,-0.95 0,0 -5.227,-4.12 -5.068,-4.278 0.158,-0.158 7.128,-2.692 7.286,-2.692 0.158,0 2.218,4.118 3.643,3.801 1.426,-0.317 5.544,-3.484 5.544,-3.484 0,0 2.218,2.534 1.901,2.217 z"
       id="path29" />
    <path
       d="m 919.432,407.423 c 1.453,1.874 2.02,5.123 5.347,3.222 3.327,-1.9 -1.704,-5.428 -1.704,-5.428 z"
       id="path30" />
    <path
       d="m 925.505,407.106 c 0,0 1.584,1.267 3.01,-0.158 1.426,-1.425 -2.852,-4.436 -2.852,-4.436 l -2.059,2.376 z m 6.812,-190.146 c 0.158,0 5.227,15.682 5.86,19.642 0.634,3.96 2.694,19.8 1.902,22.017 -0.792,2.218 -8.87,12.83 -9.821,15.523 -0.95,2.693 -6.653,12.99 -6.653,12.99 0,0 -1.426,10.137 -2.06,10.612 -0.633,0.476 1.636,2.964 1.426,3.802 -0.314,0.943 -4.593,5.386 -6.494,4.91 -1.9,-0.475 -4.91,-2.693 -5.069,-4.752 -0.159,-2.059 0.158,-8.87 1.584,-10.612 1.426,-1.743 8.87,-19.325 9.346,-20.434 0.475,-1.109 6.81,-14.89 6.97,-17.266 0.158,-2.376 -1.972,-7.87 -4.212,-9.886 -4.985,-14.673 -3.026,-23.522 7.221,-26.546 z"
       id="path31" />
    <path
       fill="#9c5100"
       d="m 895.092,172.199 c 0,0 3.485,0.475 5.386,-0.634 1.9,-1.108 4.118,-1.584 5.702,0.634 1.584,2.218 2.693,2.06 2.693,2.06 0,0 -2.376,5.86 0,6.494 2.376,0.633 3.485,0.633 3.643,1.425 0.159,0.792 -2.06,2.535 -1.426,3.327 0.634,0.792 1.743,1.742 1.901,2.376 0.159,0.633 -1.425,3.326 -0.95,3.96 0.475,0.633 1.9,3.168 2.851,3.168 0.95,0 0.317,3.96 3.168,3.01 2.851,-0.95 2.693,-3.486 2.693,-3.486 0,0 3.01,-0.475 3.802,-3.168 0.791,-2.692 2.692,-3.326 2.692,-3.326 0,0 3.802,-2.06 -1.267,-5.227 0,-22.176 -14.573,-19.8 -14.573,-19.8 0,0 -1.742,-3.96 -4.593,-3.485 -2.851,0.475 -3.01,3.802 -5.07,3.485 -2.058,-0.317 -2.533,-1.743 -2.692,-1.584 -0.158,0.158 -1.9,3.326 -1.9,4.118 0,0.792 -5.545,-1.109 -5.07,3.01 0.476,4.118 3.168,3.96 3.01,3.643 z"
       id="path32" />
    <g
       fill="none"
       id="g37">
      <path
         d="m 920.753,207.997 c 0,0 -14.098,9.029 -13.78,12.197 m 16.948,-10.613 c 0,0 -3.168,3.485 -3.326,3.485 m 7.603,0.317 c 0,0 -6.97,5.702 -5.86,9.346 m -27.087,-15.524 c 0,0 -2.06,4.277 -1.584,5.702 0.475,1.426 3.96,6.812 4.435,10.138 0.475,3.326 0,5.703 0,5.703 m -6.494,-13.623 c 0,0 0.634,5.069 1.584,6.02 0.95,0.95 3.485,5.226 3.802,6.969 m -6.653,8.078 c 0,0 4.118,2.06 7.92,-5.86 m 6.177,-5.544 c -0.158,0 -3.01,7.762 2.06,10.613 5.068,2.851 8.87,2.534 11.087,1.742 2.218,-0.792 4.594,-2.217 4.594,-2.217 m -19.958,-0.634 c 0,0 0.317,10.455 15.682,20.75 m -15.049,-10.93 c 0,0 -0.158,9.187 5.86,13.306 m -9.028,-24.077 c 0,0 -4.594,13.622 -8.237,15.048 m 6.812,-5.069 c 0,0 -0.158,9.82 -1.426,13.306 m -1.267,2.376 c 0,0 3.168,3.96 6.653,3.643 3.485,-0.316 4.91,-4.435 7.286,-3.801 2.376,0.633 4.594,2.534 10.138,2.059 m -7.92,4.118 c 0,0 0,8.078 1.426,8.87 1.426,0.792 0.792,8.237 0.792,8.237 M 892.4,261.22 c 0,0 -0.158,7.603 -1.109,10.296 -0.95,2.693 -2.851,7.287 -2.534,11.247 m -6.02,4.434 c 0.792,-0.317 3.485,-2.693 3.485,-2.693 m 1.426,1.743 c 0,0 -6.811,29.146 -4.91,46.57 m 6.494,-45.144 c 0,0 -3.485,21.86 -1.9,25.978"
         id="path33" />
      <path
         d="m 887.489,287.039 c 0.158,0 13.306,0.95 13.306,0.95 m 1.901,-1.742 c 0,0 3.643,1.9 8.712,1.584 m -10.296,9.029 c 0,0 -0.634,37.383 -1.584,45.62 m 21.067,-37.067 c 0,0 4.118,32.789 6.494,35.798 m -14.414,-31.679 c 0,0 2.534,28.987 3.96,31.522 m -39.917,10.137 c 0,0 4.91,-1.584 9.345,-6.336 5.07,6.811 12.831,0.317 12.831,0.317 0,0 12.038,8.237 17.424,-0.95 8.237,5.385 12.355,-0.793 12.355,-0.793 0,0 3.01,4.594 5.228,4.119 m -13.148,3.168 c 0,0 6.178,28.987 15.365,37.224"
         id="path34" />
      <path
         d="m 888.915,347.706 c 0,0 0.792,24.235 2.218,41.342 m -3.327,-13.938 c 0,0 -0.792,15.84 -1.743,16.949 m -7.603,1.583 c 0,0 1.742,6.811 10.454,0.475 8.712,-6.336 8.87,2.376 9.188,3.327 0.316,0.95 1.742,7.761 5.068,2.059 m 6.971,-9.345 c 0,0 -1.426,14.097 11.088,3.801 12.514,-10.295 14.573,-0.158 14.89,3.01 m -25.82,-230.156 c 0,0 -1.109,6.97 6.336,6.336 -0.95,3.802 1.9,5.069 1.9,5.069 m 5.545,4.277 c 0.159,0 3.326,2.06 -0.158,4.594 m -10.613,0.95 c 0,0 1.584,1.9 3.326,1.426 1.743,-0.475 4.594,1.742 4.594,1.742 0,0 2.376,0.792 2.693,0.317 m -20.276,2.534 c 0,0 5.386,2.06 8.87,-6.494 m -18.849,-2.535 3.168,0.158 m -38.312,99.737 0.248,6.942 m -6.758,-7.457 c 0,0 4.45,7.443 4.079,11.41"
         id="path35" />
      <path
         stroke-linejoin="round"
         d="m 894.142,188.197 h 2.851 l -2.534,1.109 m 17.206,110.656 c 0,0 3.328,-0.35 3.223,5.206 2.125,-6.902 6.446,-7.066 6.446,-7.066"
         id="path36" />
      <path
         stroke-width="1.699"
         stroke-linejoin="round"
         d="m 898.102,179.327 c 0.475,0 2.217,-0.634 2.534,-0.158 0.317,0.475 -1.9,0.792 -2.534,0.158 z"
         id="path37" />
    </g>
  </g>
  <g
     fill="none"
     stroke="#000000"
     stroke-width="1.887"
     id="g41"
     transform="translate(-142)">
    <path
       fill="#ffc72c"
       d="m 900.299,458.579 c 66.898,-1.858 110.102,-50.173 109.638,-50.638 -0.465,-0.464 8.827,-13.472 16.26,-11.614 7.433,1.858 18.118,23.693 31.126,28.338 6.504,10.22 -1.859,19.512 -4.646,21.37 -2.787,1.859 -15.33,6.97 -17.189,-0.464 -1.858,-7.433 -5.575,-6.04 -5.575,-6.04 0,0 -59.464,58.071 -128.22,55.749 -71.078,0.464 -129.614,-55.748 -129.614,-55.748 l -5.11,5.574 c 0,0 -5.575,6.04 -8.362,5.575 -2.787,-0.464 -14.866,-8.362 -15.795,-16.26 -0.93,-7.897 7.433,-13.007 7.433,-13.007 0,0 20.44,-15.796 22.764,-24.158 4.645,-4.646 13.472,3.252 13.472,3.252 0,0 53.89,61.787 113.819,58.07 z"
       id="path38" />
    <path
       d="m 748.855,422.646 c 0,0 5.528,-1.474 7.555,0.83 2.027,2.302 15.938,15.938 15.938,15.938"
       id="path39" />
    <path
       d="m 761.477,429.095 -5.528,4.146 c 0,0 13.912,2.763 10.78,11.885 m 285.611,-22.941 c 0,0 -2.764,-1.474 -7.094,1.75 -4.33,3.225 -15.294,15.479 -15.294,15.479"
       id="path40" />
    <path
       d="m 1039.9,428.727 5.989,4.607 c 0,0 -12.53,0.829 -9.766,12.714"
       id="path41" />
  </g>
  <path
     d="m 677.664,437.396 c -0.362,1.052 -1.321,-0.029 -2.117,0.183 -2.094,0.079 -3.834,1.445 -5.628,2.377 l -18.407,10.731 c -0.62,-0.203 -0.473,-0.704 -0.322,-1.206 1.636,-7.663 3.335,-15.313 4.925,-22.986 0.264,-1.342 0.69,-3.01 -0.606,-3.986 -0.551,-0.376 0.301,-1.14 0.655,-0.446 l 9.41,6.71 c -0.302,0.885 -0.837,0.265 -1.372,-0.094 -1.303,-1.253 -2.873,-0.095 -2.835,1.488 -1.119,5.052 -2.21,10.11 -3.318,15.165 4.165,-2.476 8.378,-4.874 12.506,-7.412 1.474,-0.656 2.56,-2.631 1.029,-3.855 -0.582,-0.343 -1.544,-1.28 -0.585,-1.422 z m 6.611,31.986 c -0.168,0.572 -0.466,0.698 -0.922,0.286 l -11.074,-6.056 c 0.167,-0.572 0.466,-0.698 0.922,-0.286 1,0.68 2.634,0.938 3.363,-0.255 1.466,-2.35 2.701,-4.839 4.06,-7.253 1.845,-3.42 3.769,-6.8 5.559,-10.248 0.856,-1.222 -0.1,-2.728 -1.298,-3.251 -0.405,-0.217 -1.001,-0.378 -0.49,-0.864 0.247,-0.304 0.772,0.345 1.13,0.423 l 10.617,5.806 c -0.168,0.572 -0.467,0.698 -0.923,0.286 -1,-0.68 -2.642,-0.94 -3.38,0.245 -1.465,2.351 -2.7,4.84 -4.058,7.254 -1.847,3.42 -3.77,6.8 -5.56,10.248 -0.855,1.23 0.097,2.747 1.314,3.26 z m 42.609,-9.994 -3.007,8.443 c -1.232,-0.13 -0.413,-1.708 -0.796,-2.54 -0.44,-3.8 -3.243,-7.347 -7.06,-8.16 -2.92,-0.795 -6,0.708 -7.715,3.082 -2.59,3.537 -4.165,7.853 -4.387,12.235 -0.148,2.49 0.995,5.046 3.17,6.357 1.723,1.136 3.817,1.593 5.863,1.536 0.722,-2.13 1.586,-4.215 2.187,-6.381 0.247,-1.41 -1.21,-2.26 -2.375,-2.583 -0.181,-0.41 0.27,-0.912 0.745,-0.472 l 11.037,3.932 c -0.132,1.358 -1.667,-0.109 -2.517,0.433 -1.36,0.522 -1.476,2.157 -1.991,3.34 l -1.345,3.775 c -4.946,0.35 -10.044,-0.696 -14.348,-3.186 -4.185,-2.637 -7.015,-7.728 -6.192,-12.722 0.638,-4.274 3.301,-8.277 7.242,-10.165 3.62,-1.924 8.037,-1.916 11.796,-0.392 2.055,0.693 3.83,1.964 5.42,3.41 0.964,1.3 2.829,1.303 3.62,-0.175 l 0.653,0.233 m 17.952,28.813 c -0.022,0.449 -0.072,0.86 -0.61,0.61 l -12.638,-1.915 c 0.023,-0.449 0.073,-0.86 0.61,-0.61 1.096,0.224 2.564,0.206 3.093,-0.976 0.535,-1.688 0.642,-3.476 0.95,-5.215 0.723,-4.856 1.495,-9.706 2.186,-14.567 0.268,-1.048 -0.09,-2.233 -1.175,-2.64 -0.614,-0.29 -1.299,-0.334 -1.96,-0.444 0.023,-0.45 0.073,-0.86 0.61,-0.61 l 12.638,1.915 c -0.022,0.449 -0.072,0.86 -0.61,0.609 -1.101,-0.227 -2.563,-0.197 -3.111,0.974 -0.535,1.688 -0.642,3.476 -0.95,5.215 -0.723,4.856 -1.495,9.706 -2.186,14.567 -0.266,1.045 0.094,2.254 1.185,2.648 0.62,0.282 1.305,0.33 1.968,0.44 z m 34.118,-8.287 -0.5,8.962 -22.546,1.15 c -0.138,-0.548 0.01,-0.84 0.606,-0.725 1.133,0.029 2.593,-0.452 2.737,-1.752 0.1,-2.227 -0.15,-4.455 -0.224,-6.681 -0.243,-4.442 -0.419,-8.887 -0.71,-13.325 0.125,-1.322 -1.066,-2.301 -2.32,-2.261 -0.398,-0.202 -1.475,0.415 -1.367,-0.31 -0.182,-0.589 0.635,-0.276 0.98,-0.388 l 12.541,-0.64 c 0.138,0.549 -0.009,0.84 -0.606,0.725 -1.158,-0.006 -2.665,0.276 -2.985,1.584 -0.183,1.926 0.086,3.864 0.137,5.795 0.254,4.625 0.434,9.256 0.74,13.877 -0.094,1.21 0.877,2.28 2.13,2.047 1.83,-0.091 3.7,-0.013 5.487,-0.473 2.507,-0.667 3.874,-3.15 4.56,-5.47 0.45,-0.627 0.078,-2.191 1.071,-2.101 l 0.269,-0.014 m 17.577,-21.695 c -0.598,0.01 -0.334,0.773 -0.486,1.173 -0.998,7.476 -1.944,14.96 -2.976,22.432 -0.251,1.655 -0.664,3.588 -2.297,4.425 -0.603,0.214 -0.072,1.162 0.48,0.635 l 7.529,-2.259 c -0.095,-1.268 -1.54,-0.116 -2.35,-0.339 -1.727,-0.002 -1.984,-2.1 -1.744,-3.41 l 0.313,-2.657 8.625,-2.594 c 1.1,1.386 2.314,2.69 3.31,4.153 0.747,1.41 -1.07,2.055 -2.125,2.327 -0.493,0.052 -0.063,1.085 0.387,0.605 l 11.334,-3.397 c -0.034,-1.283 -1.677,-0.08 -2.369,-0.937 -2.121,-1.594 -3.644,-3.812 -5.4,-5.775 z m -0.063,8.969 6.125,7.312 -7.343,2.188 z m 38.632,-25.809 3.259,6.06 c -1.014,0.872 -1.541,-1.149 -2.46,-1.457 -1.507,-1.268 -3.779,-1.508 -5.457,-0.432 -0.687,0.357 -1.365,0.73 -2.048,1.095 3.277,6.068 6.509,12.16 9.815,18.212 0.511,1.552 2.418,1.843 3.648,0.968 0.476,-0.345 0.906,-0.54 1.06,0.188 -1.664,0.965 -3.482,1.882 -5.205,2.828 l -6.509,3.5 c -0.51,-0.53 -0.169,-0.803 0.407,-1.006 1.542,-0.573 2.135,-2.445 1.102,-3.763 -3.206,-6.025 -6.46,-12.026 -9.685,-18.042 -1.796,0.995 -4.09,1.892 -4.543,4.132 -0.51,1.41 0.24,3.135 0.24,4.334 -0.553,0.574 -0.698,-0.209 -0.954,-0.623 l -2.785,-5.18 20.115,-10.813 z m 15.251,-9.042 6.233,8.263 c 1.445,-0.919 2.652,-2.56 2.218,-4.353 0.167,-1.4 -1.836,-2.988 -1.148,-3.97 0.453,-0.281 0.72,0.767 1.095,1.044 l 7.118,9.436 c -0.928,1.057 -1.6,-1.098 -2.583,-1.331 -1.387,-0.986 -3.333,-1.477 -4.82,-0.397 -1.11,0.354 -1.058,0.977 -0.303,1.662 1.67,2.156 3.22,4.41 5.003,6.475 1.091,1.059 2.448,-0.048 3.372,-0.784 2.388,-1.626 4.485,-4.165 4.362,-7.21 0.156,-1.33 -0.679,-2.814 -0.67,-3.935 0.535,-0.713 0.685,0.393 0.992,0.755 l 3.366,6.08 -17.544,13.233 c -0.761,-0.54 -0.012,-0.857 0.468,-1.23 1.638,-1.012 1.117,-3.078 -0.088,-4.213 -3.748,-4.936 -7.43,-9.924 -11.226,-14.823 -0.972,-1.318 -2.765,-0.624 -3.745,0.295 -0.407,0.577 -1.044,-0.579 -0.273,-0.664 l 16.543,-12.479 4.528,6.003 c -1.049,1.064 -1.978,-1.307 -3.175,-1.431 -2.173,-1.131 -4.757,-0.22 -6.553,1.21 -1.074,0.764 -2.114,1.575 -3.17,2.364"
     id="path42" />
  <g
     clip-path="url(#a-6)"
     id="g7"
     transform="scale(8.5,9.1666667)">
    <path
       d="M 0,0 V 30 H 60 V 0 Z"
       fill="#012169"
       id="path3-2" />
    <path
       d="M 0,0 60,30 M 60,0 0,30"
       stroke="#ffffff"
       stroke-width="6"
       id="path4" />
    <path
       d="M 0,0 60,30 M 60,0 0,30"
       clip-path="url(#b-9)"
       stroke="#c8102e"
       stroke-width="4"
       id="path5" />
    <path
       d="M 30,0 V 30 M 0,15 h 60"
       stroke="#ffffff"
       stroke-width="10"
       id="path6" />
    <path
       d="M 30,0 V 30 M 0,15 h 60"
       stroke="#c8102e"
       stroke-width="6"
       id="path7" />
  </g>
</svg>
