<?xml version="1.0" encoding="UTF-8" standalone="no"?>
<svg
   width="1275"
   height="765"
   viewBox="1488.189 992.126 1275 765"
   xml:space="preserve"
   version="1.1"
   id="svg56"
   xmlns="http://www.w3.org/2000/svg"
   xmlns:svg="http://www.w3.org/2000/svg"><defs
     id="defs56" /><path
     fill="#ffffff"
     d="m 1488.189,992.126 h 1275 v 765 h -1275 z"
     id="path1"
     style="stroke-width:0.948684" /><path
     fill="#369443"
     stroke="#010002"
     stroke-width="3"
     stroke-miterlimit="10"
     d="m 1885.935,1525.623 c 0,0 -1.033,-6.99 12.242,-12.116 13.275,-5.126 14.307,-24.232 11.652,-36.97 0,0 -6.932,12.116 -15.339,16.155 0,0 -13.717,7.146 -14.345,20.795 0,0 -0.109,4.99 -1.142,8.873 -0.565,2.126 -6.637,-17.087 4.867,-31.377 11.872,-14.748 15.192,-26.717 5.752,-50.017 0,0 -0.885,14.135 -10.177,22.213 -9.292,8.077 -10.474,8.699 -10.325,27.96 0,0 0.148,6.679 -3.392,8.854 0,0 -7.227,-10.563 -9.145,-17.553 -1.917,-6.99 -2.802,-9.941 5.457,-18.019 0,0 26.461,-17.1 7.375,-54.522 0,0 -0.59,12.893 -9.735,20.504 -9.145,7.611 -8.407,12.737 -8.85,25.941 -0.443,13.203 -1.328,12.271 -2.36,14.135 0,0 -16.814,-30.911 -3.835,-47.377 12.979,-16.466 20.207,-19.883 5.9,-50.483 0,0 0.635,15.689 -10.818,23.456 -11.453,7.767 -8.798,25.941 -8.798,25.941 0,0 0.737,6.835 -1.622,11.805 0,0 -16.202,-31.601 -0.737,-48.62 13.127,-14.446 14.012,-24.543 6.932,-45.047 0,0 -0.885,9.476 -8.112,14.601 -7.227,5.126 -12.979,10.252 -11.652,29.979 0,0 0.59,13.825 -1.18,17.708 0,0 -6.785,-12.582 -8.702,-20.815 -1.917,-8.233 -2.655,-13.048 2.36,-21.281 5.015,-8.233 24.927,-31.844 1.18,-65.861 0,0 -0.737,11.029 -6.785,20.97 -6.047,9.941 -3.245,21.747 -1.917,30.756 1.328,9.009 -3.097,17.708 -3.097,17.708 0,0 -10.325,-18.951 -8.112,-40.697 2.212,-21.747 -6.637,-39.61 -26.697,-52.503 0,0 -14.602,33.863 5.31,51.105 0,0 16.962,16.776 21.239,37.125 0,0 -12.832,-1.243 -24.484,-23.921 -11.652,-22.679 -35.841,-19.106 -37.464,-19.261 0,0 3.983,35.105 41.151,45.047 0,0 23.747,4.039 28.172,21.436 0,0 3.982,11.961 5.605,18.329 0,0 -7.522,-2.951 -14.455,-13.203 -6.932,-10.252 -6.047,-11.495 -29.499,-13.825 0,0 -9.44,-1.088 -14.455,-7.767 0,0 9.882,37.125 35.251,36.814 0,0 23.157,-2.485 36.136,27.96 0,0 -2.507,-1.553 -5.9,-3.884 -3.392,-2.33 -11.947,-6.679 -28.909,-4.66 -16.962,2.019 -21.682,-0.777 -25.959,-2.175 0,0 17.109,31.377 41.299,22.057 24.189,-9.32 35.872,24.665 36.136,25.319 0,0 -3.245,-2.486 -7.522,-6.68 -4.277,-4.194 -13.157,-9.366 -29.942,-4.039 0,0 -12.094,4.66 -24.337,0.932 0,0 11.8,22.834 39.381,18.951 27.581,-3.884 34.514,20.349 34.514,20.349 0,0 -3.687,-2.175 -6.195,-4.194 -2.507,-2.019 -11.8,-7.301 -31.711,-1.398 -19.912,5.903 -27.139,-0.932 -27.139,-0.932 0,0 11.062,20.193 32.301,22.523 0,0 11.8,-0.155 16.814,-2.019 5.015,-1.864 18.289,-4.815 27.434,8.388 0,0 -2.507,0.466 -6.342,-1.243 0,0 -14.159,-5.126 -24.927,3.883 0,0 -9.587,9.786 -23.157,7.922 0,0 17.552,17.087 45.428,2.641 0,0 9.44,-6.835 16.372,-1.553 6.934,5.285 23.011,-5.123 23.011,-5.123 z"
     id="path2" /><path
     fill="#f4c53d"
     stroke="#010002"
     stroke-width="3"
     stroke-miterlimit="10"
     d="m 2041.1,1104.669 c 0,0 -3.238,-28.908 19.863,-31.688 24.091,-2.9 35.989,2.175 35.989,2.175 l 10.816,21.229 -3.737,14.291 -14.946,6.835 c 0,0 2.557,-21.954 -17.568,-22.411 -5.099,-0.116 -8.096,1.906 -16.161,0.626 -8.111,-1.288 -12.449,7.625 -14.256,8.943 z"
     id="path3" /><path
     fill="#f4c53d"
     stroke="#010002"
     stroke-width="3"
     stroke-miterlimit="10"
     d="m 2203.639,1176.226 c -3.442,4.453 -17.208,6.006 -17.208,6.006 0,0 14.159,10.873 20.256,26.407 6.097,15.533 -164.113,0.103 -164.113,0.103 0,0 7.375,-5.281 12.39,-15.223 0,0 -7.522,2.796 -15.044,-4.66 0,0 5.605,1.864 12.979,-9.32 0,0 10.915,-13.98 18.584,-17.708 0,0 -3.54,2.175 -12.094,-2.485 0,0 14.75,-1.864 20.059,-27.028 0,0 0.885,-5.592 6.49,-13.669 5.605,-8.078 4.425,1.553 14.75,-10.874 0,0 4.72,-8.802 0.59,-14.187 -4.13,-5.385 -8.555,-3.417 -17.208,-8.595 -8.653,-5.178 -12.488,-8.078 -9.538,-16.051 2.95,-7.974 10.62,-6.731 11.701,-6.731 1.082,0 1.672,-6.938 11.112,-11.702 9.44,-4.764 34.514,-2.693 38.25,-0.621 3.737,2.071 18.879,6.524 27.729,28.892 8.85,22.368 -2.36,30.756 21.731,64.515 0,0 -9.636,2.071 -15.831,0.207 0,0 12.487,22.161 34.415,32.724 z"
     id="path4" /><path
     fill="none"
     stroke="#010002"
     stroke-width="3"
     stroke-miterlimit="10"
     d="m 2098.328,1081.835 c -19.617,-0.932 -12.094,-19.624 -12.094,-19.624"
     id="path5" /><path
     fill="#f4c53d"
     stroke="#010002"
     stroke-width="3"
     stroke-miterlimit="10"
     d="m 2132.399,1084.398 c 0,0 -3.466,-1.631 -6.398,-5.514 -4.115,-5.449 -13.292,-8.077 -18.233,-2.951 0,0 -5.015,5.592 -9.44,5.903 0,0 5.015,1.553 8.481,4.738 3.466,3.184 7.08,5.514 12.242,4.815 5.162,-0.699 5.974,-3.417 8.407,-5.048 2.434,-1.633 4.941,-1.943 4.941,-1.943 z"
     id="path6" /><path
     fill="#f4c53d"
     stroke="#010002"
     stroke-width="3"
     d="m 2259.981,1363.765 c 0,0 18.29,14.912 33.629,0 0,0 6.195,7.456 18.584,5.281 12.39,-2.175 14.455,-8.699 15.635,-12.427 0,0 10.718,6.253 19.764,1.314 9.047,-4.939 9.047,-12.394 9.047,-12.394 0,0 15.733,3.101 23.796,-7.562 8.063,-10.663 3.147,-21.226 -1.18,-22.469 0,0 17.01,4.456 21.633,-10.148 3.933,-12.427 -4.917,-18.847 -4.917,-18.847 0,0 35.841,-0.172 50.542,-11.391 0,0 12.193,-7.663 4.917,-15.74 0,0 32.252,-5.178 40.315,-18.019 0,0 3.54,-3.521 2.36,-9.734 0,0 -0.197,-3.521 -3.737,-3.728 0,0 36.78,-5.681 47.395,-17.812 0,0 5.113,-5.592 2.557,-13.048 0,0 -0.541,-1.968 -1.426,-3.288 0,0 33.481,-7.068 50,-21.98 0,0 9.536,-8.496 4.62,-19.887 0,0 55.951,-15.322 42.972,-39.968 0,0 26.156,-8.492 17.896,-32.102 0,0 21.633,-10.977 12.193,-28.374 -9.034,-16.65 -36.775,2.899 -69.624,11.988 0,0 -88.884,27.985 -132.656,35.432 l -124.372,185.167 -72.568,27.96 z"
     id="path7" /><path
     fill="#f4c53d"
     stroke="#010002"
     stroke-width="3"
     d="m 2259.097,1227.382 c 0,0 11.657,-8.751 32.449,1.553 0,0 7,4.82 12.507,-0.461 4.601,-4.413 5.032,-12.549 -1.297,-17.247 -15.487,-11.495 -21.24,-45.979 2.36,-60.269 0,0 34.219,-20.297 159.696,-52.229 0,0 10.513,-2.915 16.118,-1.517 6.172,1.539 10.423,6.835 11.295,11.366 0,0 5.615,15.956 -13.262,25.086 0,0 -8.522,3.9 -17.306,6.421 0,0 9.648,-2.086 13.766,7.456 3.933,9.113 -1.77,18.433 -19.469,24.439 0,0 -4.787,1.863 -11.603,3.521 0,0 15.143,4.349 7.866,16.569 0,0 -6.49,12.841 -29.401,15.119 0,0 17.109,1.864 5.015,18.122 0,0 -5.31,8.906 -22.026,12.22 0,0 12.685,0.414 6.293,11.805 -6.391,11.391 -21.432,17.812 -36.232,18.847 0,0 -8.016,0.414 -13.621,-0.829 0,0 14.061,7.042 5.801,18.847 0,0 -6.096,8.388 -21.337,7.974 0,0 3.956,13.183 -7.227,18.174 -8.702,3.883 -15.929,-2.33 -15.929,-2.33 0,0 2.95,14.135 -9.735,19.106 0,0 -6.342,3.262 -15.782,0 0,0 -7.227,16.155 -32.891,4.815 -25.666,-11.338 -6.048,-106.558 -6.048,-106.558 z"
     id="path8" /><path
     fill="none"
     stroke="#010002"
     stroke-width="3"
     d="m 2654.383,1079.815 c 0,0 -40.315,23.342 -165.869,46.684"
     id="path9" /><path
     fill="#f4c53d"
     stroke="#010002"
     stroke-width="3"
     d="m 1934.384,1492.589 c 0,0 -14.946,25.682 -33.039,26.096 0,0 -31.122,-3.788 -39.922,4.349 -6.136,5.675 -12.39,10.356 -14.946,24.854 -2.556,14.498 4.916,17.605 6.686,18.226 0,0 1.377,10.356 11.603,7.663 0,0 0.59,10.77 18.683,5.592 18.093,-5.178 25.566,-3.521 29.106,-21.54 3.54,-18.019 6.808,-17.724 10.03,-19.883 4.327,-2.9 12.455,-5.64 18.486,-9.113 5.418,-3.12 26.156,-13.67 33.235,-14.498 7.08,-0.828 5.506,-24.646 5.506,-24.646 h -18.289 l -8.85,-13.048 z"
     id="path10" /><path
     fill="none"
     stroke="#010002"
     stroke-width="3"
     d="m 2636.487,1111.918 c 0,0 -109.115,35.594 -159.93,39.968 m 116.958,0 c 0,0 -64.011,20.094 -138.971,32.774 m 84.35,9.093 c 0,0 -72.322,17.372 -106.849,20.255"
     id="path11" /><path
     fill="none"
     stroke="#010002"
     stroke-width="3"
     stroke-miterlimit="10"
     d="m 2490.368,1227.9 c 0,0 -61.173,12.758 -76.672,14.292"
     id="path12" /><path
     fill="#0081c6"
     stroke="#010002"
     stroke-width="3"
     stroke-miterlimit="10"
     d="m 2421.511,1320.939 3.063,97.066 -17.139,-9.943 -28.534,123.179 -11.773,-8.458 27.776,-118.011 -19.368,0.356 z"
     id="path13" /><path
     fill="none"
     stroke="#010002"
     stroke-width="3"
     stroke-miterlimit="10"
     d="m 2451.43,1259.381 c 0,0 -44.642,6.783 -62.409,6.42 m 6.951,20.712 c 0,0 -18.05,-0.848 -26.724,-2.288 m 10.007,31.284 c 0,0 -15.34,-4.142 -24.386,-9.941 m 1.771,39.972 c 0,0 -11.8,-4.556 -17.503,-16.983 m -11.308,28.063 c 0,0 -9.145,-8.181 -9.735,-17.294"
     id="path14" /><path
     fill="#0081c6"
     stroke="#010002"
     stroke-width="3"
     stroke-miterlimit="10"
     d="m 2532.37,1364.102 -40.565,87.218 -10.701,-17.253 -85.643,101.197 -9.273,-10.381 85.318,-99.916 -17.259,-9.262 z"
     id="path15" /><path
     fill="none"
     stroke="#010002"
     stroke-width="3"
     stroke-miterlimit="10"
     d="m 2293.61,1363.765 c 0,0 3.424,-2.953 1.082,-15.792"
     id="path16" /><path
     fill="#0081c6"
     stroke="#010002"
     stroke-width="3"
     stroke-miterlimit="10"
     d="m 2495.369,1300.078 -20.896,94.594 -14.112,-14.276 -76.651,147.389 -11.812,-6.895 77.167,-147.088 -18.795,-4.935 z"
     id="path17" /><path
     fill="none"
     stroke="#010002"
     stroke-width="3"
     stroke-miterlimit="10"
     d="m 2298.035,1329.126 c 0,0 1.77,-3.676 1.18,-9.475"
     id="path18" /><path
     fill="#f4c53d"
     stroke="#010002"
     stroke-width="3"
     d="m 1991.986,1363.766 c 0,0 -18.289,14.912 -33.629,0 0,0 -6.195,7.456 -18.584,5.281 -12.389,-2.175 -14.455,-8.699 -15.635,-12.427 0,0 -10.718,6.253 -19.764,1.314 -9.047,-4.939 -9.047,-12.395 -9.047,-12.395 0,0 -15.733,3.101 -23.796,-7.562 -8.063,-10.663 -3.147,-21.226 1.18,-22.469 0,0 -17.01,4.456 -21.633,-10.148 -3.933,-12.427 4.917,-18.847 4.917,-18.847 0,0 -35.841,-0.172 -50.542,-11.391 0,0 -12.193,-7.663 -4.916,-15.74 0,0 -32.252,-5.178 -40.315,-18.019 0,0 -3.54,-3.521 -2.36,-9.734 0,0 0.197,-3.521 3.736,-3.728 0,0 -36.78,-5.681 -47.395,-17.812 0,0 -5.113,-5.592 -2.557,-13.048 0,0 0.541,-1.968 1.426,-3.288 0,0 -33.481,-7.068 -50.001,-21.98 0,0 -9.536,-8.496 -4.62,-19.887 0,0 -55.952,-15.322 -42.972,-39.968 0,0 -26.156,-8.492 -17.896,-32.102 0,0 -21.633,-10.977 -12.193,-28.374 9.034,-16.65 36.776,2.899 69.624,11.988 0,0 88.884,27.985 132.656,35.432 l 124.372,185.167 72.568,27.96 z"
     id="path19" /><path
     fill="none"
     stroke="#010002"
     stroke-width="3"
     stroke-miterlimit="10"
     d="m 2362.54,1145.263 c 0,0 -20.649,8.285 -27.532,19.676 -6.883,11.391 -2.35,22.462 0,28.814 1.181,3.192 15.733,31.248 -1.377,51.545"
     id="path20" /><path
     fill="#f4c53d"
     stroke="#010002"
     stroke-width="3"
     d="m 1992.871,1227.383 c 0,0 -11.657,-8.751 -32.449,1.553 0,0 -7,4.82 -12.506,-0.461 -4.601,-4.413 -5.033,-12.549 1.297,-17.247 15.487,-11.495 21.239,-45.979 -2.36,-60.269 0,0 -34.219,-20.297 -159.696,-52.229 0,0 -10.513,-2.915 -16.118,-1.517 -6.172,1.539 -10.423,6.835 -11.295,11.366 0,0 -5.615,15.956 13.262,25.086 0,0 8.522,3.9 17.306,6.421 0,0 -9.648,-2.086 -13.766,7.456 -3.933,9.113 1.77,18.433 19.469,24.439 0,0 4.787,1.863 11.603,3.521 0,0 -15.143,4.349 -7.866,16.569 0,0 6.49,12.841 29.401,15.119 0,0 -17.109,1.864 -5.015,18.122 0,0 5.31,8.906 22.026,12.22 0,0 -12.685,0.414 -6.293,11.805 6.391,11.391 21.432,17.812 36.233,18.847 0,0 8.016,0.414 13.621,-0.828 0,0 -14.061,7.042 -5.801,18.847 0,0 6.096,8.388 21.338,7.974 0,0 -3.956,13.184 7.227,18.174 8.702,3.883 15.929,-2.33 15.929,-2.33 0,0 -2.95,14.135 9.735,19.106 0,0 6.342,3.262 15.782,0 0,0 7.227,16.155 32.891,4.815 25.662,-11.34 6.045,-106.559 6.045,-106.559 z"
     id="path21" /><path
     fill="none"
     stroke="#010002"
     stroke-width="3"
     stroke-miterlimit="10"
     d="m 2362.245,1267.355 c 0,0 -0.098,-0.104 -7.375,-2.382 m 50.935,-27.442 c 0,0 -12.308,2.478 -24.386,2.589 m 41.397,-32.931 c 0,0 -14.455,1.45 -28.024,1.243 m 49.558,-32.931 c 0,0 -20.846,4.142 -32.056,4.349 m 49.362,-39.765 c 0,0 -25.709,7.338 -44.839,9.941 m -42.478,15.119 c 0,0 18.486,17.19 -3.737,33.138 0,0 9.243,14.498 -9.243,29.617"
     id="path22" /><path
     fill="#f4c53d"
     stroke="#010002"
     stroke-width="3"
     d="m 1994.394,1374.2 c 0,0 -3.766,20.218 -33.627,45.666 0,0 -23.04,20.324 -22.45,43.727 0.601,23.832 -4.13,26.51 -13.176,34.588 0,0 18.683,1.45 27.729,-10.977 0,0 -0.393,20.711 -3.147,22.575 0,0 5.859,0.374 14.356,-8.906 0,0 5.113,-5.385 9.833,-7.456 0,0 -5.506,14.291 -1.18,27.546 0,0 1.377,-5.178 8.653,-7.456 0,0 13.176,-2.693 18.29,-21.747 0,0 3.343,-12.634 23.992,-23.818 0,0 23.402,-8.827 22.813,-20.361 -0.589,-11.534 -52.086,-73.381 -52.086,-73.381 z"
     id="path23" /><path
     fill="none"
     stroke="#010002"
     stroke-width="3"
     stroke-miterlimit="10"
     d="m 2366.276,1235.046 c 0,0 2.753,27.646 -31.072,27.648 0,0 6.49,24.647 -26.156,23.819 0,0 -3.737,19.675 -27.336,15.74"
     id="path24" /><path
     fill="#f4c53d"
     stroke="#010002"
     stroke-width="3"
     d="m 2317.618,1492.589 c 0,0 14.946,25.682 33.039,26.096 0,0 31.122,-3.788 39.922,4.349 6.136,5.675 12.39,10.356 14.946,24.854 2.557,14.498 -4.917,17.604 -6.687,18.226 0,0 -1.377,10.356 -11.603,7.663 0,0 -0.59,10.77 -18.683,5.592 -18.093,-5.178 -25.566,-3.521 -29.106,-21.54 -3.54,-18.019 -6.808,-17.724 -10.03,-19.883 -4.327,-2.9 -12.455,-5.64 -18.486,-9.113 -5.418,-3.12 -26.156,-13.669 -33.235,-14.498 -7.08,-0.828 -5.507,-24.646 -5.507,-24.646 h 18.289 l 8.85,-13.048 z"
     id="path25" /><path
     fill="#f4c53d"
     stroke="#010002"
     stroke-width="3"
     d="m 2257.608,1374.2 c 0,0 3.766,20.218 33.627,45.666 0,0 23.04,20.324 22.45,43.727 -0.601,23.832 4.13,26.51 13.176,34.588 0,0 -18.683,1.45 -27.729,-10.977 0,0 0.393,20.711 3.147,22.575 0,0 -5.86,0.374 -14.356,-8.906 0,0 -5.113,-5.385 -9.833,-7.456 0,0 5.506,14.291 1.18,27.546 0,0 -1.377,-5.178 -8.653,-7.456 0,0 -13.176,-2.692 -18.29,-21.747 0,0 -3.343,-12.634 -23.992,-23.818 0,0 -23.403,-8.827 -22.813,-20.361 0.59,-11.534 52.086,-73.381 52.086,-73.381 z"
     id="path26" /><path
     fill="none"
     stroke="#010002"
     stroke-width="3"
     d="m 2333.695,1518.685 c 0,0 5.352,1.191 16.962,0"
     id="path27" /><path
     fill="none"
     stroke="#010002"
     stroke-width="3"
     stroke-miterlimit="10"
     d="m 2383.303,1533.183 c 0,0 16.323,-2.485 15.536,32.931 m -25.369,-24.854 c 0,0 14.75,-1.864 13.766,32.517"
     id="path28" /><path
     fill="none"
     stroke="#010002"
     stroke-width="3"
     d="m 2231.088,1458.416 c 0,0 7.08,1.45 11.997,7.042 4.916,5.592 14.356,4.556 14.356,4.556 0,0 -5.113,-4.142 -6.883,-14.498 -1.77,-10.356 -7.473,-13.462 -7.473,-13.462 m 16.889,-9.807 c 0,0 7.08,1.45 11.996,7.042 4.916,5.592 14.356,4.556 14.356,4.556 0,0 -5.113,-4.142 -6.883,-14.498 -1.77,-10.356 -7.473,-13.462 -7.473,-13.462 m -7.128,56.562 c 0,0 6.182,1.266 10.474,6.149 4.293,4.882 12.535,3.978 12.535,3.978 0,0 -4.465,-3.617 -6.01,-12.658 -1.545,-9.042 -6.525,-11.754 -6.525,-11.754"
     id="path29" /><path
     fill="#f4c53d"
     stroke="#010002"
     stroke-width="3"
     stroke-miterlimit="10"
     d="m 2149.136,1634.875 c 0,0 5.361,23.657 23.993,21.747 0,0 13.176,-1.243 12.193,-23.197 0,0 19.469,10.356 22.616,-15.326 0,0 17.699,4.142 17.503,-19.883 0,0 16.52,2.9 14.553,-18.433 0,0 17.896,4.763 17.896,-15.326 0,0 41.888,-6.947 -45.428,-86.573 l -77.877,46.393 z"
     id="path30" /><path
     fill="#f4c53d"
     stroke="#010002"
     stroke-width="3"
     d="m 2140.483,1528.709 c 0,0 12.979,11.516 22.222,-5.675 0,0 12.586,-0.621 14.553,-10.148 0,0 10.227,-1.036 12.193,-10.77 0,0 13.963,-1.45 13.57,-13.255 0,0 25.385,-1.96 0.01,-30.7 -25.377,-28.741 -68.446,47.684 -68.446,47.684 z"
     id="path31" /><path
     fill="none"
     stroke="#010002"
     stroke-width="3"
     stroke-miterlimit="10"
     d="m 2185.322,1633.425 c 0,0 -1.967,-41.63 -38.047,-101.278 m 60.663,85.952 c 0,0 5.605,-24.025 -45.232,-95.064 0,0 5.9,-16.983 -12.193,-27.857 m 74.927,103.038 c 0,0 1.573,-25.993 -48.181,-85.33 0,0 4.395,-15.326 -13.634,-27.546 m 76.368,94.443 c 0,0 -1.868,-26.303 -50.542,-77.667 0,0 2.435,-15.74 -15.007,-25.475 m 83.445,87.816 c 0,0 -3.54,-30.031 -54.868,-75.596 0,0 1.77,-11.805 -15.34,-23.818"
     id="path32" /><path
     fill="#f4c53d"
     stroke="#010002"
     stroke-width="3"
     stroke-miterlimit="10"
     d="m 2102.865,1634.875 c 0,0 -5.361,23.657 -23.992,21.747 0,0 -13.176,-1.243 -12.193,-23.197 0,0 -19.469,10.356 -22.616,-15.326 0,0 -17.699,4.142 -17.503,-19.883 0,0 -16.52,2.9 -14.553,-18.433 0,0 -17.896,4.764 -17.896,-15.326 0,0 -41.888,-6.947 45.428,-86.573 l 77.877,46.393 z"
     id="path33" /><path
     fill="#f4c53d"
     stroke="#010002"
     stroke-width="3"
     d="m 2111.519,1528.709 c 0,0 -12.979,11.516 -22.223,-5.674 0,0 -12.586,-0.621 -14.552,-10.148 0,0 -10.227,-1.036 -12.193,-10.77 0,0 -13.963,-1.45 -13.57,-13.255 0,0 -25.385,-1.96 -0.01,-30.7 25.377,-28.741 68.446,47.683 68.446,47.683 z"
     id="path34" /><path
     fill="none"
     stroke="#010002"
     stroke-width="3"
     stroke-miterlimit="10"
     d="m 2066.68,1633.425 c 0,0 1.966,-41.63 38.047,-101.278 m -60.663,85.952 c 0,0 -5.605,-24.025 45.232,-95.064 0,0 -5.9,-16.983 12.193,-27.856"
     id="path35" /><path
     fill="#f4c53d"
     stroke="#010002"
     stroke-width="3"
     d="m 2126.001,1521.585 c 12.582,0 26.839,78.599 23.139,125.953 -1.344,17.198 -10.557,31.245 -23.139,31.245 -12.582,0 -21.795,-14.047 -23.139,-31.245 -3.7,-47.354 10.557,-125.953 23.139,-125.953"
     id="path36" /><path
     fill="none"
     stroke="#010002"
     stroke-width="3"
     stroke-miterlimit="10"
     d="m 2026.561,1598.216 c 0,0 -1.573,-25.993 48.182,-85.33 0,0 -4.395,-15.326 13.634,-27.546 m -76.369,94.443 c 0,0 1.868,-26.303 50.542,-77.667 0,0 -2.435,-15.74 15.007,-25.475"
     id="path37" /><ellipse
     fill="#f4c53d"
     stroke="#010002"
     stroke-width="3"
     cx="2126.001"
     cy="1520.963"
     rx="17.41"
     ry="25.785"
     id="ellipse37" /><path
     fill="none"
     stroke="#010002"
     stroke-width="3"
     stroke-miterlimit="10"
     d="m 1994.112,1564.457 c 0,0 3.54,-30.031 54.868,-75.596 0,0 -1.77,-11.805 15.34,-23.818"
     id="path38" /><path
     fill="#ffffff"
     stroke="#010002"
     stroke-width="3"
     d="m 2126.001,1515.331 c 0,0 147.66,-65.433 148.029,-216.805 h -296.058 c 0.369,151.372 148.029,216.805 148.029,216.805 z"
     id="path39" /><path
     fill="none"
     stroke="#010002"
     stroke-width="3"
     stroke-miterlimit="10"
     d="m 2046.293,1298.525 h 22.774 m -68.321,0 h 22.774 m 68.321,0 h 22.773"
     id="path40" /><path
     fill="#a60032"
     stroke="#010002"
     stroke-width="3"
     d="m 2000.746,1298.525 v 96.719 c 0,0 11.31,22.432 22.774,36.5 v -133.219 z m 45.547,0 v 159.435 c 0,0 14.242,13.965 22.774,20.697 v -180.132 z m 45.548,0 v 197.076 c 0,0 16.248,10.494 22.774,13.937 v -211.013 z"
     id="path41" /><path
     fill="none"
     stroke="#010002"
     stroke-width="3"
     d="m 2000.746,1298.525 h 22.774 m 22.773,0 h 22.774 m 22.774,0 h 22.773"
     id="path42" /><path
     fill="#a60032"
     stroke="#010002"
     stroke-width="3"
     d="m 2251.256,1298.525 v 96.719 c 0,0 -11.31,22.432 -22.773,36.5 v -133.219 z m -45.548,0 v 159.435 c 0,0 -14.242,13.965 -22.774,20.697 v -180.132 z m -45.547,0 v 197.076 c 0,0 -16.248,10.494 -22.774,13.937 v -211.013 z"
     id="path43" /><path
     fill="none"
     d="m 2281.978,1661.708 -13.717,16.776 m -17.005,-18.639 37.801,34.948"
     id="path44" /><path
     fill="#0081c6"
     stroke="#010002"
     stroke-width="3"
     stroke-miterlimit="10"
     d="m 2364.725,1572.728 -5.742,23.475 15.719,15.659 -22.216,93.839 -19.76,-26.542 -29.279,13.665 22.216,-93.839 20.597,-5.743 5.348,-23.433 c 0,0 6.23,-2.44 13.117,2.919 z"
     id="path45" /><path
     fill="#0081c6"
     stroke="#010002"
     stroke-width="3"
     stroke-miterlimit="10"
     d="m 2369.988,1557.248 -11.315,21.11 11.335,19.41 -44.521,84.586 -12.564,-31.023 -31.64,5.219 44.521,-84.586 21.306,0.067 10.924,-21.177 c 10e-4,0 7.948,-0.017 11.954,6.394 z"
     id="path46" /><path
     fill="#0081c6"
     stroke="#010002"
     stroke-width="3"
     stroke-miterlimit="10"
     d="m 2371.898,1563.387 -30.096,38.235 6.898,21.598 -61.447,71.871 -5.615,-33.205 -31.943,-2.411 61.447,-71.871 20.746,5.113 31.924,-40.59 c -10e-4,10e-4 8.561,4.253 8.086,11.26 z"
     id="path47" /><path
     fill="none"
     stroke="#010002"
     stroke-width="3"
     d="m 1597.585,1079.816 c 0,0 40.315,23.342 165.869,46.684 m -147.973,-14.582 c 0,0 109.115,35.594 159.93,39.968 m -116.958,0 c 0,0 64.011,20.094 138.971,32.774 m -84.351,9.093 c 0,0 72.322,17.371 106.849,20.255"
     id="path48" /><path
     fill="none"
     stroke="#010002"
     stroke-width="3"
     stroke-miterlimit="10"
     d="m 1761.599,1227.901 c 0,0 61.173,12.758 76.672,14.292 m -37.733,17.189 c 0,0 44.642,6.783 62.409,6.42 m -6.951,20.711 c 0,0 18.05,-0.848 26.724,-2.288 m -10.008,31.284 c 0,0 15.34,-4.142 24.386,-9.941 m -1.77,39.972 c 0,0 11.8,-4.556 17.503,-16.983 m 11.308,28.064 c 0,0 9.145,-8.181 9.735,-17.294 m 24.484,24.439 c 0,0 -3.424,-2.953 -1.082,-15.792 m -3.343,-18.848 c 0,0 -1.77,-3.676 -1.18,-9.475 m -63.325,-174.388 c 0,0 20.649,8.284 27.532,19.675 6.883,11.391 2.35,22.462 0,28.814 -1.181,3.192 -15.733,31.248 1.377,51.545 m -28.614,22.058 c 0,0 0.098,-0.104 7.375,-2.382 m -50.935,-27.442 c 0,0 12.308,2.478 24.386,2.589 m -41.397,-32.931 c 0,0 14.455,1.45 28.024,1.243"
     id="path49" /><path
     fill="#369443"
     stroke="#010002"
     stroke-width="3"
     stroke-miterlimit="10"
     d="m 1882.877,1568.513 c 0,0 -0.442,-12.581 15.486,-13.513 l 46.901,65.237 c 0,0 -1.77,4.194 -23.008,3.728 0,0 -2.249,-0.015 -3.429,2.47 -1.812,3.815 -35.95,-57.922 -35.95,-57.922 z"
     id="path50" /><path
     fill="none"
     stroke="#010002"
     stroke-width="3"
     stroke-miterlimit="10"
     d="m 1807.618,1175.501 c 0,0 20.846,4.142 32.056,4.349 m -49.362,-39.765 c 0,0 25.709,7.338 44.839,9.941 m 42.478,15.12 c 0,0 -18.486,17.19 3.736,33.138 0,0 -9.243,14.498 9.243,29.617 m -4.916,7.146 c 0,0 -2.753,27.646 31.072,27.648 0,0 -6.49,24.647 26.156,23.819 0,0 3.736,19.676 27.336,15.74"
     id="path51" /><path
     fill="none"
     stroke="#010002"
     stroke-width="3"
     d="m 1918.258,1518.685 c 0,0 -5.352,1.191 -16.962,0"
     id="path52" /><path
     fill="none"
     stroke="#010002"
     stroke-width="3"
     stroke-miterlimit="10"
     d="m 1868.651,1533.183 c 0,0 -16.323,-2.485 -15.536,32.931 m 25.369,-24.854 c 0,0 -14.75,-1.864 -13.766,32.516"
     id="path53" /><path
     fill="none"
     stroke="#010002"
     stroke-width="3"
     d="m 2020.914,1458.415 c 0,0 -7.08,1.45 -11.996,7.042 -4.916,5.592 -14.356,4.556 -14.356,4.556 0,0 5.113,-4.142 6.883,-14.498 1.77,-10.356 7.473,-13.462 7.473,-13.462 m -16.89,-9.806 c 0,0 -7.08,1.45 -11.996,7.042 -4.916,5.592 -14.356,4.556 -14.356,4.556 0,0 5.113,-4.142 6.883,-14.498 1.77,-10.356 7.473,-13.462 7.473,-13.462 m 7.128,56.561 c 0,0 -6.182,1.266 -10.474,6.148 -4.293,4.883 -12.535,3.978 -12.535,3.978 0,0 4.465,-3.617 6.01,-12.659 1.545,-9.042 6.525,-11.754 6.525,-11.754"
     id="path54" /><path
     fill="#162667"
     stroke="#010002"
     stroke-width="3"
     stroke-miterlimit="10"
     d="m 2274.03,1188.549 c 0,0 -72.456,37.901 -148.029,-3.107 -75.573,41.008 -148.029,3.107 -148.029,3.107 v 109.976 h 296.058 z"
     id="path55" /><path
     fill="#0081c6"
     stroke="#010002"
     stroke-width="3"
     stroke-miterlimit="10"
     d="m 1609.306,1473.748 c 7.175,-2.929 12.342,-5.756 12.32,-13.412 0,-1.825 -1.019,-5.863 -3.055,-12.114 l -48.177,-147.24 c -2.853,-8.747 -5.01,-13.947 -6.01,-15.863 -2.166,-4.147 -6.417,-5.835 -12.143,-8.22 h 61.232 c -6.652,3.143 -12.716,5.639 -12.659,12.691 0.022,2.693 0.779,6.49 2.341,11.393 l 36.907,115.541 36.871,-115.541 c 1.562,-4.903 2.369,-8.7 2.343,-11.393 -0.071,-7.248 -6.386,-9.86 -12.591,-12.691 h 59.343 c -5.426,2.174 -9.848,3.878 -12.12,8.22 -1.002,1.916 -3.157,7.116 -6.009,15.863 l -48.177,147.24 c -2.038,6.25 -2.775,10.357 -3.056,12.258 0,0 -2.217,9.312 12.32,13.267 z m 1026.68,-15.143 v -166.709 c 0,-2.884 -0.476,-5.095 -1.425,-6.634 -0.951,-1.537 -5.09,-5.969 -10.995,-8.364 h 55.175 c -5.906,1.955 -10.046,6.706 -10.995,8.292 -0.951,1.586 -1.425,3.821 -1.425,6.706 v 166.709 c 0,2.981 0.491,5.264 1.476,6.85 0.983,1.586 5.039,5.458 10.944,8.292 h -55.175 c 5.906,-2.687 10.044,-6.825 10.995,-8.364 0.949,-1.536 1.425,-3.797 1.425,-6.778 z"
     id="path56" /></svg>
