<?xml version="1.0" encoding="UTF-8" standalone="no"?>
<svg
   width="1000"
   height="600"
   viewBox="0 0 240 144"
   fill="#ffffff"
   version="1.1"
   id="svg6"
   xmlns:xlink="http://www.w3.org/1999/xlink"
   xmlns="http://www.w3.org/2000/svg"
   xmlns:svg="http://www.w3.org/2000/svg">
  <defs
     id="defs1">
    <path
       id="a"
       d="M 0,-0.951 0.309,0 -0.5,-0.588 h 1 L -0.309,0 Z" />
    <path
       id="b"
       d="M 0,0 0.309,0.951 -0.5,0.363 h 1 l -0.809,0.588 z" />
  </defs>
  <path
     fill="#ce1126"
     d="M 0,0 H 240 V 144 H 0 Z"
     id="path1"
     style="stroke-width:0.96225" />
  <path
     fill="#002b7f"
     d="M 0,0 H 115.2 V 72 H 0 Z"
     id="path2" />
  <use
     xlink:href="#a"
     transform="matrix(20,0,0,20,57.6,69)"
     id="use2" />
  <use
     xlink:href="#b"
     transform="matrix(16,0,0,16,35.6,21)"
     id="use3" />
  <use
     xlink:href="#b"
     transform="matrix(16,0,0,16,57.6,3)"
     id="use4" />
  <use
     xlink:href="#b"
     transform="matrix(15,0,0,15,80.1,18)"
     id="use5" />
  <use
     xlink:href="#a"
     transform="matrix(10,0,0,10,68.6,46)"
     id="use6" />
</svg>
