<?xml version="1.0" encoding="UTF-8" standalone="no"?>
<svg
   width="1000"
   height="600"
   viewBox="0 0 21000 12600"
   version="1.1"
   id="svg12"
   xmlns="http://www.w3.org/2000/svg"
   xmlns:svg="http://www.w3.org/2000/svg">
  <defs
     id="defs1">
    <clipPath
       id="a">
      <path
         d="M 0,0 H 63 V 63 H 0 Z"
         id="path1" />
    </clipPath>
  </defs>
  <path
     fill="#006400"
     d="M 0,0 H 21000 V 12600 H 0 Z"
     id="path2"
     style="stroke-width:0.912871" />
  <path
     fill="#ffd200"
     d="M 166.66667,1800 H 21000 v 9000 H 166.66667 Z"
     id="path3"
     style="stroke-width:0.912871" />
  <path
     fill="#d40000"
     d="M 166.66667,3600 H 21000 V 9000 H 166.66667 Z"
     id="path4"
     style="stroke-width:0.912871" />
  <path
     d="M 166.66667,5400 H 21000 V 7200 H 166.66667 Z"
     id="path5"
     style="stroke-width:0.912871" />
  <path
     clip-path="url(#a)"
     stroke="#000000"
     stroke-width="3"
     d="M 42,31.5 0,63 V 0 Z"
     transform="scale(200)"
     id="path6" />
  <path
     fill="#ffffff"
     d="M 8400,6300 0,12600 V 0 Z"
     id="path7" />
  <path
     fill="#d40000"
     d="M 3200,3169.5 4845.8,8234.8 537,5104.3 H 5863 L 1554.2,8234.8 Z"
     id="path8" />
  <g
     fill="none"
     stroke="#000000"
     stroke-linejoin="round"
     stroke-linecap="round"
     stroke-width="38"
     id="g12">
    <path
       fill="#ffd200"
       d="m 2290,4580 c -18,-45 -15,-95 8,-138 23,-42 65,-72 113,-80 51,-9 102,-12 154,-11 49,-76 131,-125 221,-132 90,-6 178,30 238,98 71,81 113,183 122,290 l 37,464 1412,1105 a 86,86 0 0 1 -76,150 l -59,-17 c -227,141 -395,387 -428,651 l -85,672 H 2454 l -198,-769 c -71,-86 -81,-207 -25,-303 73,-125 161,-241 262,-345 66,-66 96,-160 83,-253 -14,-92 -21,-185 -22,-278 -1,-77 16,-154 49,-223 l -19,-694 c -3,-82 -48,-157 -119,-197 z"
       id="path9" />
    <path
       d="m 2465,4570 167,-10 m -29,901 580,-390 m 232,1167 c 229,64 372,45 439,-101 m -852,-566 c -62,179 50,338 200,381 l 1258,357 m -2040,631 c -47,-184 21,-513 312,-650 135,-63 179,-201 180,-318 0,-44 1,-95 64,-120 m -720,1011 44,-107 c 21,79 64,137 120,184 31,-65 58,-131 81,-198 26,52 47,123 65,194 -4,-161 81,-279 193,-329 l 434,-193 c 141,-63 276,-188 307,-378 m 742,460 H 3008 m -727,464 h 1751 m -1346,381 h 1297 m -1428,-381 131,381 v 291 m -63,-509 128,-128 128,128 128,-128 128,128 128,-128 128,128 128,-128 128,128 128,-128 128,128 124,-124 m -1366,269 90,-90 128,128 128,-128 128,128 128,-128 128,128 128,-128 128,128 128,-128 128,128 97,-97"
       id="path10" />
    <circle
       r="76"
       cx="2799"
       cy="4459"
       id="circle10" />
    <circle
       r="145"
       cx="3139"
       cy="6730"
       id="circle11" />
    <circle
       r="145"
       cx="3714"
       cy="6730"
       id="circle12" />
  </g>
</svg>
